<svg width="231" height="77" viewBox="0 0 231 77" fill="none" xmlns="http://www.w3.org/2000/svg">
<g clip-path="url(#clip0_3905_148819)">
<path d="M212.605 0.00025025H18.4058C17.6979 0.00025025 16.9985 0.00025025 16.2925 0.00410025C15.7015 0.00795025 15.1152 0.0191345 14.5186 0.0285478C13.2223 0.0437587 11.9291 0.157477 10.6502 0.368715C9.37312 0.584551 8.13602 0.991463 6.98077 1.57569C5.82692 2.16486 4.77262 2.93042 3.85612 3.84461C2.9348 4.75623 2.16681 5.80993 1.58168 6.96521C0.994931 8.11819 0.588079 9.35371 0.375174 10.6291C0.160245 11.9029 0.0445892 13.1914 0.0292456 14.483C0.0113315 15.0732 0.00943968 15.6653 0 16.2556V60.7506C0.00943968 61.3483 0.0113315 61.9273 0.0292456 62.5252C0.0445939 63.8167 0.160249 65.1052 0.375174 66.3789C0.587491 67.655 0.994367 68.8912 1.58168 70.0446C2.16654 71.1962 2.93464 72.2456 3.85612 73.1522C4.76915 74.0704 5.82413 74.8365 6.98077 75.4212C8.13601 76.007 9.37298 76.4163 10.6502 76.6355C11.9294 76.845 13.2224 76.9588 14.5186 76.9758C15.1152 76.9889 15.7015 76.9964 16.2925 76.9964C16.9985 77.0003 17.6979 77.0003 18.4058 77.0003H212.605C213.298 77.0003 214.003 77.0003 214.697 76.9964C215.285 76.9964 215.889 76.9889 216.477 76.9758C217.77 76.9597 219.061 76.8459 220.338 76.6355C221.619 76.4148 222.86 76.0055 224.021 75.4212C225.177 74.8362 226.231 74.0701 227.143 73.1522C228.062 72.2421 228.832 71.1934 229.424 70.0446C230.007 68.8904 230.41 67.6543 230.619 66.3789C230.834 65.105 230.954 63.8169 230.977 62.5252C230.985 61.9273 230.985 61.3483 230.985 60.7506C231 60.0512 231 59.3557 231 58.645V18.3573C231 17.6523 231 16.953 230.985 16.2556C230.985 15.6653 230.985 15.0732 230.977 14.4829C230.954 13.1912 230.834 11.903 230.619 10.629C230.409 9.35437 230.006 8.11894 229.424 6.96513C228.232 4.6495 226.343 2.7646 224.021 1.57552C222.86 0.992717 221.619 0.585913 220.338 0.368541C219.061 0.156373 217.771 0.0426152 216.477 0.0282783C215.889 0.0188843 215.285 0.00760375 214.697 0.00385C214.003 0 213.298 0 212.605 0V0.00025025Z" fill="#A6A6A6"/>
<path d="M16.3022 75.3158C15.7141 75.3158 15.1401 75.3083 14.5566 75.2952C13.3477 75.2795 12.1417 75.1746 10.9484 74.9813C9.83567 74.7902 8.75776 74.4347 7.7502 73.9266C6.75188 73.4226 5.84132 72.7619 5.05343 71.9696C4.25412 71.1867 3.58867 70.2786 3.08343 69.2813C2.57262 68.2776 2.21912 67.2018 2.03522 66.0912C1.83663 64.8979 1.72918 63.6914 1.71381 62.4818C1.70157 62.0759 1.68555 60.7241 1.68555 60.7241V16.2555C1.68555 16.2555 1.70261 14.9246 1.7139 14.5336C1.72863 13.326 1.83545 12.1213 2.03344 10.9298C2.21768 9.81625 2.57146 8.73729 3.08254 7.73028C3.58592 6.73374 4.24768 5.82498 5.04217 5.03923C5.83577 4.24602 6.74923 3.58186 7.74926 3.07097C8.7545 2.56448 9.83038 2.21151 10.9408 2.02389C12.1381 1.82863 13.3483 1.72306 14.5613 1.70807L16.3032 1.68457H214.688L216.451 1.70902C217.653 1.72326 218.852 1.82789 220.038 2.022C221.16 2.21197 222.247 2.56741 223.264 3.07661C225.267 4.10619 226.897 5.73508 227.926 7.73498C228.428 8.73503 228.777 9.8052 228.959 10.9092C229.159 12.1104 229.271 13.3245 229.294 14.542C229.3 15.0872 229.3 15.6728 229.3 16.2555C229.315 16.9774 229.315 17.6645 229.315 18.3572V58.6449C229.315 59.3443 229.315 60.0267 229.3 60.7147C229.3 61.3407 229.3 61.9142 229.292 62.5044C229.27 63.7001 229.159 64.8927 228.962 66.0724C228.782 67.1909 228.431 68.2752 227.92 69.2871C227.411 70.2735 226.75 71.1737 225.959 71.9546C225.171 72.7511 224.259 73.4157 223.258 73.9229C222.244 74.4349 221.159 74.7917 220.038 74.9813C218.845 75.1756 217.639 75.2806 216.43 75.2952C215.864 75.3083 215.272 75.3158 214.697 75.3158L212.605 75.3197L16.3022 75.3158Z" fill="black"/>
<path d="M47.6801 39.0787C47.7008 37.472 48.1276 35.8966 48.9208 34.4992C49.7139 33.1017 50.8477 31.9276 52.2165 31.086C51.3469 29.8441 50.1997 28.822 48.866 28.101C47.5323 27.38 46.0489 26.9799 44.5335 26.9325C41.301 26.5932 38.1672 28.8668 36.52 28.8668C34.8408 28.8668 32.3046 26.9662 29.5736 27.0223C27.8071 27.0794 26.0855 27.5931 24.5765 28.5134C23.0675 29.4336 21.8227 30.7291 20.9632 32.2735C17.2403 38.7192 20.0173 48.1922 23.5835 53.4024C25.3678 55.9537 27.4531 58.8036 30.1817 58.7026C32.8518 58.5918 33.849 56.9999 37.0721 56.9999C40.2652 56.9999 41.2008 58.7026 43.9847 58.6383C46.8499 58.5918 48.655 56.0757 50.3767 53.5002C51.6587 51.6823 52.6452 49.6731 53.2997 47.5471C51.6351 46.8431 50.2146 45.6647 49.2153 44.1587C48.216 42.6528 47.6821 40.886 47.6801 39.0787Z" fill="white"/>
<path d="M42.4215 23.5056C43.9837 21.6302 44.7533 19.2198 44.5669 16.7861C42.1803 17.0368 39.9756 18.1775 38.3924 19.9809C37.6182 20.8619 37.0253 21.8868 36.6476 22.9971C36.2698 24.1074 36.1146 25.2812 36.1907 26.4516C37.3845 26.4638 38.5655 26.2051 39.6448 25.6948C40.724 25.1845 41.6734 24.436 42.4215 23.5056Z" fill="white"/>
<path d="M81.4318 52.2433H72.32L70.1319 58.7045H66.2725L74.903 34.7998H78.9128L87.5433 58.7045H83.6181L81.4318 52.2433ZM73.2637 49.2618H80.4863L76.9258 38.7758H76.8262L73.2637 49.2618Z" fill="white"/>
<path d="M106.182 49.9915C106.182 55.4075 103.283 58.8871 98.9089 58.8871C97.8008 58.9451 96.6988 58.6898 95.7289 58.1506C94.7591 57.6113 93.9608 56.8098 93.4253 55.8379H93.3426V64.4704H89.7651V41.2764H93.2279V44.1752H93.2937C93.8538 43.2079 94.6657 42.4106 95.6428 41.8681C96.62 41.3255 97.726 41.058 98.8432 41.094C103.266 41.0941 106.182 44.5906 106.182 49.9915ZM102.505 49.9915C102.505 46.463 100.682 44.1432 97.8994 44.1432C95.1661 44.1432 93.3276 46.5119 93.3276 49.9915C93.3276 53.5032 95.1661 55.8549 97.8994 55.8549C100.682 55.8549 102.505 53.552 102.505 49.9915Z" fill="white"/>
<path d="M125.365 49.9915C125.365 55.4075 122.466 58.8871 118.092 58.8871C116.983 58.9451 115.881 58.6898 114.912 58.1506C113.942 57.6113 113.143 56.8098 112.608 55.8379H112.525V64.4703H108.948V41.2764H112.41V44.1752H112.476C113.036 43.2079 113.848 42.4106 114.825 41.868C115.803 41.3255 116.909 41.058 118.026 41.094C122.449 41.094 125.365 44.5906 125.365 49.9915ZM121.688 49.9915C121.688 46.463 119.864 44.1432 117.082 44.1432C114.349 44.1432 112.51 46.5119 112.51 49.9915C112.51 53.5031 114.349 55.8549 117.082 55.8549C119.864 55.8549 121.688 53.552 121.688 49.9915H121.688Z" fill="white"/>
<path d="M138.042 52.0442C138.308 54.4147 140.61 55.9712 143.757 55.9712C146.773 55.9712 148.942 54.4146 148.942 52.2772C148.942 50.4217 147.634 49.3108 144.536 48.5494L141.438 47.8031C137.048 46.7428 135.01 44.69 135.01 41.3588C135.01 37.2344 138.605 34.4014 143.708 34.4014C148.76 34.4014 152.222 37.2344 152.339 41.3588H148.728C148.511 38.9732 146.539 37.5333 143.658 37.5333C140.776 37.5333 138.804 38.9902 138.804 41.1107C138.804 42.8007 140.063 43.7952 143.144 44.5564L145.778 45.2031C150.683 46.363 152.721 48.3332 152.721 51.8297C152.721 56.3019 149.158 59.103 143.492 59.103C138.191 59.103 134.612 56.3677 134.38 52.044L138.042 52.0442Z" fill="white"/>
<path d="M160.441 37.1519V41.2763H163.756V44.1093H160.441V53.7174C160.441 55.21 161.105 55.9056 162.562 55.9056C162.955 55.8987 163.348 55.8711 163.739 55.8228V58.6389C163.084 58.7612 162.418 58.8167 161.752 58.8043C158.223 58.8043 156.847 57.479 156.847 54.0989V44.1093H154.313V41.2763H156.847V37.1519H160.441Z" fill="white"/>
<path d="M165.675 49.9915C165.675 44.5078 168.904 41.062 173.941 41.062C178.994 41.062 182.208 44.5078 182.208 49.9915C182.208 55.4901 179.011 58.9209 173.941 58.9209C168.872 58.9209 165.675 55.4901 165.675 49.9915ZM178.563 49.9915C178.563 46.2298 176.839 44.0097 173.941 44.0097C171.042 44.0097 169.32 46.2467 169.32 49.9915C169.32 53.7681 171.042 55.9714 173.941 55.9714C176.839 55.9714 178.563 53.7681 178.563 49.9915H178.563Z" fill="white"/>
<path d="M185.158 41.2762H188.57V44.2426H188.653C188.884 43.3162 189.427 42.4974 190.19 41.924C190.953 41.3506 191.891 41.0574 192.845 41.0938C193.257 41.0924 193.669 41.1372 194.071 41.2273V44.5735C193.55 44.4145 193.007 44.3415 192.463 44.3573C191.944 44.3363 191.426 44.4279 190.945 44.6259C190.464 44.824 190.031 45.1238 189.677 45.5047C189.323 45.8857 189.055 46.3387 188.893 46.8328C188.73 47.3269 188.677 47.8503 188.736 48.3671V58.7046H185.158L185.158 41.2762Z" fill="white"/>
<path d="M210.565 53.5858C210.083 56.7496 207.002 58.9209 203.06 58.9209C197.99 58.9209 194.843 55.5239 194.843 50.0742C194.843 44.6075 198.007 41.062 202.91 41.062C207.732 41.062 210.764 44.3744 210.764 49.6587V50.8844H198.455V51.1006C198.398 51.742 198.478 52.3881 198.69 52.9961C198.902 53.6041 199.241 54.16 199.685 54.6269C200.128 55.0939 200.666 55.4611 201.262 55.7042C201.858 55.9473 202.499 56.0608 203.143 56.0371C203.988 56.1164 204.837 55.9206 205.562 55.4789C206.287 55.0372 206.85 54.3733 207.168 53.5858L210.565 53.5858ZM198.471 48.3842H207.185C207.217 47.8074 207.129 47.2303 206.928 46.689C206.726 46.1476 206.415 45.6538 206.014 45.2385C205.612 44.8231 205.129 44.4952 204.595 44.2753C204.061 44.0555 203.487 43.9484 202.91 43.9608C202.327 43.9573 201.75 44.0692 201.211 44.2901C200.672 44.511 200.182 44.8365 199.769 45.2477C199.356 45.6589 199.029 46.1478 198.807 46.6862C198.584 47.2245 198.47 47.8016 198.471 48.3842V48.3842Z" fill="white"/>
<path d="M72.8154 16.807C73.5654 16.7532 74.318 16.8665 75.0189 17.1387C75.7198 17.411 76.3516 17.8354 76.8686 18.3814C77.3856 18.9274 77.7751 19.5813 78.0088 20.296C78.2425 21.0107 78.3146 21.7683 78.2201 22.5143C78.2201 26.1838 76.2368 28.2931 72.8154 28.2931H68.6665V16.807H72.8154ZM70.4505 26.6688H72.6161C73.1521 26.7008 73.6884 26.6129 74.1861 26.4115C74.6838 26.2102 75.1303 25.9003 75.4931 25.5046C75.856 25.1089 76.126 24.6373 76.2836 24.124C76.4412 23.6108 76.4823 23.0689 76.4041 22.5377C76.4767 22.0086 76.4313 21.4701 76.2713 20.9606C76.1113 20.4511 75.8406 19.9834 75.4786 19.5908C75.1166 19.1982 74.6722 18.8906 74.1773 18.6899C73.6824 18.4893 73.1493 18.4006 72.6161 18.4302H70.4505V26.6688Z" fill="white"/>
<path d="M80.2352 23.955C80.1807 23.3854 80.2458 22.8107 80.4265 22.2677C80.6071 21.7247 80.8992 21.2255 81.2841 20.802C81.669 20.3785 82.1382 20.0402 82.6615 19.8087C83.1848 19.5771 83.7507 19.4575 84.323 19.4575C84.8952 19.4575 85.4611 19.5771 85.9844 19.8087C86.5078 20.0402 86.9769 20.3785 87.3618 20.802C87.7467 21.2255 88.0388 21.7247 88.2195 22.2677C88.4001 22.8107 88.4653 23.3854 88.4108 23.955C88.4663 24.5253 88.4019 25.1008 88.2217 25.6447C88.0416 26.1885 87.7496 26.6887 87.3646 27.113C86.9796 27.5373 86.5102 27.8763 85.9863 28.1084C85.4625 28.3404 84.8959 28.4603 84.323 28.4603C83.75 28.4603 83.1834 28.3404 82.6596 28.1084C82.1358 27.8763 81.6663 27.5373 81.2813 27.113C80.8963 26.6887 80.6043 26.1885 80.4242 25.6447C80.244 25.1008 80.1796 24.5253 80.2352 23.955ZM86.6512 23.955C86.6512 22.0761 85.8071 20.9773 84.3258 20.9773C82.8388 20.9773 82.0023 22.0761 82.0023 23.9551C82.0023 25.8491 82.8389 26.9394 84.3258 26.9394C85.8071 26.9394 86.6512 25.8415 86.6512 23.955H86.6512Z" fill="white"/>
<path d="M99.2785 28.2931H97.5039L95.7124 21.9091H95.577L93.793 28.2931H92.0353L89.646 19.625H91.3811L92.9339 26.2393H93.0618L94.8439 19.625H96.485L98.2671 26.2393H98.4025L99.9478 19.625H101.658L99.2785 28.2931Z" fill="white"/>
<path d="M103.668 19.6251H105.315V21.0021H105.443C105.659 20.5075 106.025 20.0929 106.489 19.8161C106.953 19.5393 107.491 19.414 108.029 19.4578C108.451 19.426 108.875 19.4896 109.268 19.6438C109.662 19.798 110.016 20.0388 110.305 20.3485C110.593 20.6581 110.807 21.0286 110.933 21.4325C111.058 21.8364 111.091 22.2633 111.03 22.6817V28.2931H109.319V23.1113C109.319 21.7183 108.714 21.0256 107.448 21.0256C107.162 21.0123 106.876 21.061 106.61 21.1685C106.345 21.2759 106.105 21.4396 105.909 21.6482C105.712 21.8569 105.563 22.1056 105.471 22.3772C105.38 22.6489 105.348 22.9372 105.379 23.2222V28.2932H103.668L103.668 19.6251Z" fill="white"/>
<path d="M113.755 16.2412H115.466V28.2931H113.755V16.2412Z" fill="white"/>
<path d="M117.844 23.9552C117.79 23.3855 117.855 22.8108 118.035 22.2677C118.216 21.7247 118.508 21.2255 118.893 20.802C119.278 20.3785 119.747 20.0402 120.271 19.8087C120.794 19.5771 121.36 19.4575 121.932 19.4575C122.505 19.4575 123.071 19.5771 123.594 19.8087C124.117 20.0402 124.586 20.3785 124.971 20.802C125.356 21.2255 125.648 21.7247 125.829 22.2677C126.01 22.8108 126.075 23.3855 126.021 23.9552C126.076 24.5255 126.012 25.101 125.831 25.6449C125.651 26.1887 125.359 26.6889 124.974 27.1131C124.589 27.5374 124.12 27.8765 123.596 28.1085C123.072 28.3405 122.505 28.4604 121.932 28.4604C121.359 28.4604 120.793 28.3405 120.269 28.1085C119.745 27.8765 119.275 27.5374 118.89 27.1131C118.505 26.6889 118.213 26.1887 118.033 25.6449C117.853 25.101 117.789 24.5255 117.844 23.9552ZM124.26 23.9552C124.26 22.0763 123.416 20.9775 121.935 20.9775C120.448 20.9775 119.611 22.0763 119.611 23.9552C119.611 25.8492 120.448 26.9395 121.935 26.9395C123.416 26.9395 124.26 25.8417 124.26 23.9552H124.26Z" fill="white"/>
<path d="M127.822 25.8416C127.822 24.2813 128.984 23.3818 131.046 23.2539L133.394 23.1186V22.3704C133.394 21.4549 132.788 20.9379 131.619 20.9379C130.664 20.9379 130.002 21.2885 129.813 21.9014H128.156C128.331 20.4125 129.732 19.4575 131.698 19.4575C133.871 19.4575 135.097 20.5394 135.097 22.3704V28.293H133.45V27.0748H133.315C133.04 27.5118 132.654 27.868 132.197 28.1071C131.739 28.3462 131.227 28.4596 130.711 28.4358C130.347 28.4736 129.979 28.4348 129.632 28.3218C129.284 28.2088 128.963 28.0242 128.691 27.7797C128.419 27.5353 128.201 27.2366 128.051 26.9028C127.901 26.5689 127.823 26.2074 127.822 25.8416ZM133.394 25.1009V24.3762L131.277 24.5116C130.083 24.5915 129.542 24.9975 129.542 25.7617C129.542 26.5418 130.219 26.9958 131.149 26.9958C131.422 27.0234 131.697 26.9959 131.959 26.9149C132.221 26.8338 132.464 26.701 132.673 26.5242C132.883 26.3474 133.054 26.1303 133.178 25.8858C133.302 25.6413 133.375 25.3743 133.394 25.1009Z" fill="white"/>
<path d="M137.345 23.9553C137.345 21.2164 138.753 19.4812 140.943 19.4812C141.485 19.4563 142.023 19.586 142.493 19.8553C142.964 20.1246 143.348 20.5223 143.601 21.002H143.729V16.2412H145.44V28.2931H143.801V26.9236H143.665C143.393 27.4001 142.995 27.7928 142.515 28.0594C142.035 28.326 141.492 28.4562 140.943 28.436C138.738 28.4361 137.345 26.7009 137.345 23.9553ZM139.112 23.9553C139.112 25.7939 139.979 26.9002 141.428 26.9002C142.87 26.9002 143.761 25.7779 143.761 23.9629C143.761 22.1563 142.861 21.018 141.428 21.018C139.988 21.018 139.112 22.1318 139.112 23.9553H139.112Z" fill="white"/>
<path d="M152.518 23.955C152.463 23.3854 152.529 22.8107 152.709 22.2677C152.89 21.7247 153.182 21.2255 153.567 20.802C153.952 20.3785 154.421 20.0402 154.944 19.8087C155.467 19.5771 156.033 19.4575 156.606 19.4575C157.178 19.4575 157.744 19.5771 158.267 19.8087C158.79 20.0402 159.26 20.3785 159.644 20.802C160.029 21.2255 160.322 21.7247 160.502 22.2677C160.683 22.8107 160.748 23.3854 160.693 23.955C160.749 24.5253 160.685 25.1008 160.504 25.6447C160.324 26.1885 160.032 26.6887 159.647 27.113C159.262 27.5373 158.793 27.8763 158.269 28.1084C157.745 28.3404 157.179 28.4603 156.606 28.4603C156.033 28.4603 155.466 28.3404 154.942 28.1084C154.418 27.8763 153.949 27.5373 153.564 27.113C153.179 26.6887 152.887 26.1885 152.707 25.6447C152.527 25.1008 152.462 24.5253 152.518 23.955ZM158.934 23.955C158.934 22.0761 158.09 20.9773 156.608 20.9773C155.122 20.9773 154.285 22.0761 154.285 23.9551C154.285 25.8491 155.122 26.9394 156.608 26.9394C158.09 26.9394 158.934 25.8415 158.934 23.955Z" fill="white"/>
<path d="M162.989 19.6251H164.636V21.0021H164.763C164.98 20.5075 165.346 20.0929 165.81 19.8161C166.273 19.5393 166.812 19.414 167.35 19.4578C167.772 19.426 168.195 19.4896 168.589 19.6438C168.983 19.798 169.337 20.0388 169.625 20.3485C169.913 20.6581 170.128 21.0286 170.254 21.4325C170.379 21.8364 170.412 22.2633 170.35 22.6817V28.2931H168.64V23.1113C168.64 21.7183 168.034 21.0256 166.769 21.0256C166.483 21.0123 166.197 21.061 165.931 21.1685C165.665 21.2759 165.426 21.4396 165.23 21.6482C165.033 21.8569 164.884 22.1056 164.792 22.3772C164.701 22.6489 164.669 22.9372 164.699 23.2222V28.2932H162.989V19.6251Z" fill="white"/>
<path d="M180.017 17.4668V19.6644H181.895V21.1053H180.017V25.5625C180.017 26.4705 180.391 26.8681 181.243 26.8681C181.461 26.8674 181.678 26.8542 181.895 26.8286V28.2536C181.588 28.3085 181.276 28.3378 180.964 28.341C179.062 28.341 178.304 27.6717 178.304 26.0005V21.1052H176.928V19.6643H178.304V17.4668H180.017Z" fill="white"/>
<path d="M184.231 16.2412H185.927V21.018H186.062C186.29 20.5188 186.666 20.1019 187.139 19.824C187.612 19.5461 188.159 19.4208 188.705 19.4652C189.125 19.4424 189.544 19.5124 189.934 19.6704C190.323 19.8283 190.673 20.0702 190.958 20.3789C191.243 20.6875 191.457 21.0553 191.583 21.456C191.71 21.8566 191.747 22.2803 191.691 22.6967V28.2932H189.978V23.1188C189.978 21.7342 189.333 21.033 188.125 21.033C187.831 21.0089 187.535 21.0493 187.258 21.1515C186.981 21.2536 186.73 21.4149 186.522 21.6243C186.315 21.8336 186.155 22.0858 186.055 22.3633C185.954 22.6407 185.916 22.9367 185.942 23.2306V28.2931H184.232L184.231 16.2412Z" fill="white"/>
<path d="M201.665 25.9527C201.433 26.7449 200.929 27.4301 200.243 27.8886C199.556 28.347 198.73 28.5494 197.909 28.4604C197.338 28.4755 196.771 28.3661 196.246 28.1399C195.722 27.9136 195.252 27.5759 194.872 27.1502C194.491 26.7246 194.207 26.2211 194.04 25.6747C193.873 25.1283 193.827 24.5522 193.905 23.9863C193.829 23.4186 193.876 22.8413 194.042 22.2933C194.209 21.7453 194.491 21.2395 194.87 20.81C195.249 20.3806 195.716 20.0377 196.239 19.8043C196.762 19.571 197.329 19.4528 197.902 19.4577C200.314 19.4577 201.769 21.1055 201.769 23.8274V24.4243H195.648V24.5202C195.621 24.8383 195.661 25.1585 195.765 25.4602C195.869 25.762 196.035 26.0386 196.253 26.2724C196.47 26.5062 196.734 26.692 197.027 26.8179C197.321 26.9438 197.637 27.007 197.956 27.0035C198.365 27.0526 198.78 26.9789 199.147 26.7918C199.514 26.6046 199.818 26.3125 200.018 25.9526L201.665 25.9527ZM195.648 23.1592H200.026C200.048 22.8682 200.008 22.576 199.91 22.3013C199.812 22.0266 199.657 21.7754 199.456 21.5639C199.255 21.3524 199.012 21.1853 198.743 21.0733C198.474 20.9614 198.184 20.907 197.892 20.9136C197.596 20.9099 197.303 20.9655 197.029 21.077C196.755 21.1886 196.506 21.3538 196.297 21.5631C196.087 21.7724 195.922 22.0214 195.811 22.2955C195.699 22.5696 195.644 22.8633 195.648 23.1592H195.648Z" fill="white"/>
</g>
<defs>
<clipPath id="clip0_3905_148819">
<rect width="231" height="77" fill="white"/>
</clipPath>
</defs>
</svg>
