<svg width="119" height="86" viewBox="0 0 119 86" fill="none" xmlns="http://www.w3.org/2000/svg">
<rect x="1.06989" y="2.92969" width="117.848" height="82.9452" rx="33.5322" fill="#BC4118"/>
<rect x="0.561584" y="0.252441" width="117.848" height="82.9452" rx="32" fill="#EE5827"/>
<path d="M75.0177 40.332L51.4666 25.9093C51.0699 25.6662 50.6157 25.5335 50.1508 25.5246C49.6859 25.5158 49.2271 25.6313 48.8215 25.8592C48.4159 26.087 48.0782 26.4191 47.8432 26.8211C47.6082 27.2231 47.4843 27.6807 47.4843 28.1466V56.9946C47.4847 57.4603 47.6088 57.9176 47.8439 58.3195C48.079 58.7213 48.4166 59.0531 48.8221 59.2809C49.2275 59.5087 49.6862 59.6242 50.151 59.6156C50.6157 59.607 51.0698 59.4745 51.4666 59.2319L75.0177 44.8092C75.4003 44.5747 75.7164 44.2458 75.9357 43.8538C76.155 43.4618 76.2701 43.02 76.2701 42.5706C76.2701 42.1212 76.155 41.6794 75.9357 41.2874C75.7164 40.8954 75.4003 40.5664 75.0177 40.332V40.332Z" fill="white"/>
</svg>
