<svg width="1792" height="726" viewBox="0 0 1792 726" fill="none" xmlns="http://www.w3.org/2000/svg">
<g clip-path="url(#clip0_3537_156275)">
<mask id="mask0_3537_156275" style="mask-type:alpha" maskUnits="userSpaceOnUse" x="-301" y="-38" width="2395" height="753">
<path fill-rule="evenodd" clip-rule="evenodd" d="M1792 -38H0V361.615C-187.287 399.115 -301 448.451 -301 502.5C-301 619.861 235.139 715 896.5 715C1557.86 715 2094 619.861 2094 502.5C2094 448.355 1979.88 398.94 1792 361.415V-38Z" fill="#C4C4C4"/>
</mask>
<g mask="url(#mask0_3537_156275)">
<path d="M0 0H1792V740H0V0Z" fill="black"/>
<path opacity="0.08" d="M54.6597 59.8955C54.6781 58.4217 56.4917 57.7323 57.4842 58.8219L62.6677 64.5125C62.9707 64.8452 63.3982 65.0372 63.8481 65.0428L71.5445 65.1388C73.0181 65.1572 73.7074 66.9711 72.618 67.9637L66.928 73.1479C66.5954 73.451 66.4034 73.8784 66.3978 74.3284L66.3018 82.0259C66.2835 83.4997 64.4698 84.189 63.4773 83.0995L58.2938 77.4088C57.9908 77.0761 57.5633 76.8841 57.1134 76.8785L49.417 76.7825C47.9434 76.7641 47.2541 74.9502 48.3435 73.9576L54.0335 68.7734C54.3661 68.4703 54.5581 68.0429 54.5637 67.5929L54.6597 59.8955Z" fill="white"/>
<path opacity="0.08" d="M442.371 0.282864C442.482 -0.693387 443.732 -1.02821 444.317 -0.238575L447.371 3.88556C447.549 4.12664 447.82 4.28285 448.118 4.31693L453.216 4.90003C454.192 5.01167 454.527 6.26126 453.737 6.84607L449.614 9.90044C449.372 10.079 449.216 10.3495 449.182 10.6476L448.599 15.7464C448.488 16.7226 447.238 17.0575 446.653 16.2678L443.599 12.1437C443.421 11.9026 443.15 11.7464 442.852 11.7123L437.754 11.1292C436.778 11.0176 436.443 9.768 437.233 9.18319L441.356 6.12882C441.597 5.95027 441.754 5.67971 441.788 5.38166L442.371 0.282864Z" fill="white"/>
<path opacity="0.08" d="M175.996 330.249C176.095 329.271 177.34 328.92 177.935 329.702L181.042 333.786C181.224 334.024 181.497 334.177 181.795 334.207L186.9 334.724C187.878 334.823 188.229 336.068 187.447 336.663L183.364 339.771C183.125 339.952 182.972 340.225 182.942 340.524L182.426 345.63C182.327 346.607 181.082 346.958 180.487 346.176L177.379 342.092C177.198 341.854 176.925 341.701 176.627 341.671L171.521 341.154C170.544 341.056 170.193 339.81 170.975 339.215L175.058 336.107C175.297 335.926 175.449 335.653 175.48 335.355L175.996 330.249Z" fill="white"/>
<path opacity="0.5" d="M928.999 0.000610352H-0.000488281V730.645H928.999V0.000610352Z" fill="url(#paint0_radial_3537_156275)"/>
<path d="M8.64159e-06 1.33075L0 726L1792 726L1792 1.33077L8.64159e-06 1.33075Z" fill="url(#paint1_linear_3537_156275)"/>
<path opacity="0.5" d="M984.999 726L1792 726L1792 -0.000305176L984.999 -0.000375726L984.999 726Z" fill="url(#paint2_radial_3537_156275)"/>
<path d="M1544.51 182.052C1605 332.425 1827.97 446.825 1827.97 242.547L1827.97 -77.2143L1246.22 -145.032C1246.22 -145.032 1159.31 4.46556 1278.33 99.0865C1397.35 193.707 1484.01 31.6782 1544.51 182.052Z" fill="#3D17AD" fill-opacity="0.2"/>
<path opacity="0.08" d="M1590.68 277.604C1591.65 276.492 1593.48 277.139 1593.53 278.612L1593.8 286.306C1593.82 286.755 1594.02 287.178 1594.36 287.474L1600.17 292.526C1601.28 293.493 1600.63 295.322 1599.16 295.374L1591.47 295.647C1591.02 295.663 1590.6 295.865 1590.3 296.205L1585.25 302.013C1584.28 303.125 1582.45 302.478 1582.4 301.005L1582.13 293.312C1582.11 292.862 1581.91 292.439 1581.57 292.144L1575.76 287.092C1574.65 286.124 1575.3 284.295 1576.77 284.243L1584.46 283.97C1584.91 283.954 1585.34 283.752 1585.63 283.412L1590.68 277.604Z" fill="white"/>
<path opacity="0.08" d="M1630.3 257.574C1630.91 256.801 1632.15 257.171 1632.23 258.15L1632.67 263.264C1632.7 263.563 1632.85 263.837 1633.08 264.023L1637.12 267.194C1637.89 267.801 1637.52 269.04 1636.54 269.124L1631.43 269.561C1631.13 269.587 1630.85 269.735 1630.67 269.971L1627.5 274.007C1626.89 274.779 1625.65 274.409 1625.57 273.43L1625.13 268.317C1625.1 268.018 1624.96 267.743 1624.72 267.557L1620.69 264.387C1619.91 263.78 1620.28 262.54 1621.26 262.456L1626.38 262.019C1626.67 261.993 1626.95 261.845 1627.13 261.609L1630.3 257.574Z" fill="white"/>
<path d="M1708.54 202.435C1708.54 202.333 1708.54 202.333 1708.54 202.333C1708.54 202.029 1708.34 201.826 1708.14 201.624C1707.73 201.218 1707.43 201.015 1706.72 200.812C1706.51 200.711 1706.31 200.812 1706.21 200.812C1706.11 200.812 1706.11 200.812 1706.01 200.812C1705.4 200.913 1704.28 201.319 1703.98 202.232C1703.98 202.333 1703.98 202.435 1703.98 202.536C1703.98 203.043 1704.28 203.652 1704.59 204.058C1704.69 204.261 1704.89 204.362 1704.99 204.463C1705.09 204.463 1705.09 204.565 1705.2 204.666C1705.4 204.869 1705.7 205.275 1706.01 205.275C1706.31 205.275 1706.62 205.072 1706.82 204.768C1706.92 204.666 1707.02 204.463 1707.12 204.362C1707.22 204.261 1707.33 204.159 1707.33 204.058C1707.33 203.956 1707.43 203.956 1707.43 203.956C1707.63 203.652 1707.83 203.652 1708.04 203.551C1708.24 203.246 1708.54 203.043 1708.54 202.435Z" fill="white"/>
<path d="M1663.61 317.149C1663.61 316.946 1663.51 316.743 1663.41 316.641C1663.2 316.439 1662.9 316.337 1662.6 316.337C1662.49 316.337 1662.49 316.337 1662.39 316.337H1662.29C1662.09 316.438 1661.68 316.641 1661.68 317.047V317.149C1661.68 317.351 1661.89 317.656 1661.99 317.858C1662.09 317.96 1662.09 318.061 1662.19 318.163L1662.29 318.264C1662.39 318.366 1662.39 318.366 1662.49 318.467C1662.6 318.467 1662.6 318.467 1662.7 318.467H1662.8H1662.9L1663 318.366C1663.1 318.264 1663.2 318.061 1663.31 317.858C1663.41 317.656 1663.61 317.453 1663.61 317.149Z" fill="white"/>
<path d="M1757.74 67.8392C1757.74 67.8392 1757.74 67.7378 1757.74 67.8392C1757.63 67.7378 1757.63 67.7378 1757.63 67.6364C1757.43 67.3321 1757.13 66.9264 1756.82 66.6221C1756.11 65.9121 1755.1 65.2022 1753.88 64.8979C1753.58 64.7964 1753.27 64.7965 1752.97 64.6951C1752.87 64.6951 1752.77 64.6951 1752.56 64.6951C1751.55 64.8979 1750.74 66.3179 1750.33 67.9407C1750.33 68.1436 1750.23 68.245 1750.23 68.4479C1750.03 69.4621 1750.03 70.4764 1750.33 71.1864C1750.43 71.4906 1750.64 71.7949 1750.84 71.8963C1750.94 71.9977 1751.04 71.9977 1751.14 72.0991C1751.55 72.302 1752.06 72.3021 1752.56 72.2006C1753.07 72.0992 1753.58 71.8963 1754.08 71.6935C1754.39 71.5921 1754.69 71.3893 1754.9 71.2879C1755.1 71.1865 1755.3 71.085 1755.4 70.9835C1755.5 70.8821 1755.61 70.8822 1755.71 70.7807C1756.42 70.375 1756.92 69.8678 1757.33 69.4621C1757.94 69.0564 1758.14 68.5492 1757.74 67.8392Z" fill="white"/>
<path d="M1556.66 354.354C1556.66 354.253 1556.66 354.253 1556.66 354.253C1556.66 354.05 1556.45 353.847 1556.25 353.847C1555.84 353.847 1554.93 353.949 1554.12 353.442C1553.92 353.34 1553.71 353.239 1553.51 353.036C1553.41 353.036 1553.31 352.935 1553.31 352.935C1552.6 352.63 1551.99 353.036 1551.89 353.644C1551.89 353.746 1551.89 353.746 1551.89 353.847C1551.89 354.253 1551.99 354.557 1552.09 354.963C1552.19 355.166 1552.19 355.267 1552.29 355.47C1552.29 355.572 1552.4 355.673 1552.5 355.775C1552.7 356.18 1553.11 356.789 1553.41 357.093C1553.71 357.397 1553.92 357.499 1554.22 357.6C1554.32 357.6 1554.53 357.6 1554.63 357.499C1554.73 357.499 1554.83 357.397 1554.93 357.296C1555.03 357.195 1555.03 357.093 1555.13 356.992C1555.54 356.383 1555.95 355.775 1556.15 355.47C1556.45 355.267 1556.66 354.963 1556.66 354.354Z" fill="white"/>
<path d="M1737.86 401.842C1737.86 401.741 1737.86 401.741 1737.86 401.842C1737.86 401.741 1737.86 401.741 1737.86 401.842C1737.86 401.639 1737.75 401.538 1737.65 401.335C1737.35 401.031 1736.94 400.524 1736.54 400.929C1736.44 401.031 1736.33 401.132 1736.23 401.233L1736.13 401.335C1735.83 401.639 1735.52 401.741 1735.32 401.944C1735.32 401.944 1735.32 401.944 1735.32 402.045C1735.22 402.146 1735.22 402.349 1735.32 402.552C1735.32 402.654 1735.42 402.755 1735.42 402.755L1735.52 402.856C1735.62 402.958 1735.83 403.059 1736.03 402.958C1736.23 402.958 1736.44 402.856 1736.54 402.755C1736.64 402.755 1736.74 402.654 1736.84 402.654C1736.94 402.654 1736.94 402.654 1737.04 402.654H1737.15C1737.35 402.654 1737.55 402.654 1737.65 402.552C1737.75 402.451 1737.86 402.146 1737.86 401.842Z" fill="white"/>
<path d="M1408.42 201.623C1408.32 201.623 1408.32 201.623 1408.42 201.623C1408.32 201.623 1408.32 201.623 1408.42 201.623C1408.32 201.421 1408.21 201.319 1408.11 201.218C1407.91 201.015 1407.5 200.711 1407.2 200.609C1407.1 200.609 1407 200.609 1406.9 200.508H1406.79C1406.49 200.609 1406.19 201.015 1406.08 201.522C1406.08 201.623 1406.08 201.623 1406.08 201.725C1405.98 202.029 1405.98 202.435 1406.08 202.638C1406.08 202.739 1406.19 202.84 1406.29 202.84C1406.29 202.84 1406.39 202.84 1406.39 202.942C1406.49 203.043 1406.69 203.043 1406.9 202.942C1407.1 202.942 1407.2 202.84 1407.4 202.739C1407.5 202.739 1407.61 202.638 1407.71 202.638C1407.81 202.638 1407.81 202.536 1407.91 202.536C1407.91 202.536 1408.01 202.536 1408.01 202.435C1408.21 202.333 1408.42 202.13 1408.52 202.029C1408.42 202.029 1408.52 201.928 1408.42 201.623Z" fill="white"/>
<path d="M1687.65 45.4241C1687.65 45.2213 1687.55 45.1197 1687.45 45.0183C1687.24 44.8154 1687.14 44.7141 1686.74 44.6127C1686.63 44.6127 1686.53 44.6127 1686.43 44.6127H1686.33C1686.03 44.6127 1685.42 44.9169 1685.32 45.3226V45.4241C1685.32 45.7284 1685.42 46.0327 1685.62 46.1341C1685.72 46.2355 1685.72 46.2355 1685.82 46.3369L1685.92 46.4384C1686.03 46.5399 1686.13 46.7425 1686.33 46.7425C1686.53 46.7425 1686.63 46.6411 1686.74 46.5397C1686.84 46.4383 1686.84 46.4383 1686.84 46.3369L1686.94 46.2354C1686.94 46.2354 1686.94 46.1341 1687.04 46.1341C1687.14 46.0327 1687.24 46.0327 1687.34 45.9313C1687.45 45.8299 1687.65 45.7284 1687.65 45.4241Z" fill="white"/>
<path d="M247.443 91.4033C247.342 91.4033 247.342 91.4033 247.342 91.4033C247.038 91.4033 246.835 91.6062 246.632 91.809C246.226 92.2147 246.023 92.519 245.82 93.229C245.719 93.4319 245.82 93.6348 245.82 93.7362C245.82 93.8376 245.82 93.8376 245.82 93.939C245.922 94.5476 246.328 95.6633 247.24 95.9676C247.342 95.9676 247.443 95.9676 247.545 95.9676C248.052 95.9676 248.66 95.6633 249.066 95.359C249.269 95.2576 249.37 95.0547 249.472 94.9533C249.472 94.8519 249.573 94.8519 249.675 94.7505C249.878 94.5476 250.283 94.2433 250.283 93.939C250.283 93.6347 250.08 93.3305 249.776 93.1276C249.675 93.0262 249.472 92.9247 249.37 92.8233C249.269 92.7219 249.168 92.6205 249.066 92.6205C248.965 92.6205 248.965 92.519 248.965 92.519C248.66 92.3162 248.66 92.1133 248.559 91.9105C248.255 91.7076 248.052 91.4033 247.443 91.4033Z" fill="white"/>
<path d="M112.848 42.2108C112.848 42.2108 112.746 42.2108 112.848 42.2108C112.746 42.3123 112.746 42.3123 112.645 42.3123C112.341 42.5151 111.935 42.8194 111.631 43.1237C110.921 43.8337 110.211 44.848 109.906 46.0651C109.805 46.3694 109.805 46.6737 109.704 46.978C109.704 47.0794 109.704 47.1808 109.704 47.3837C109.906 48.3979 111.326 49.2094 112.949 49.6151C113.152 49.6151 113.254 49.7165 113.456 49.7165C114.471 49.9193 115.485 49.9194 116.195 49.6151C116.499 49.5137 116.803 49.3108 116.905 49.1079C117.006 49.0065 117.006 48.9051 117.108 48.8036C117.311 48.3979 117.311 47.8908 117.209 47.3837C117.108 46.8765 116.905 46.3694 116.702 45.8622C116.601 45.558 116.398 45.2537 116.296 45.0508C116.195 44.848 116.094 44.6451 115.992 44.5437C115.891 44.4423 115.891 44.3408 115.789 44.2394C115.384 43.5294 114.876 43.0222 114.471 42.6165C114.065 42.008 113.558 41.8051 112.848 42.2108Z" fill="white"/>
<path d="M419.363 353.29C419.262 353.29 419.262 353.29 419.262 353.29C419.059 353.29 418.856 353.493 418.856 353.696C418.856 354.101 418.958 355.014 418.45 355.825C418.349 356.028 418.248 356.231 418.045 356.434C418.045 356.536 417.943 356.637 417.943 356.637C417.639 357.347 418.045 357.955 418.653 358.057C418.755 358.057 418.755 358.057 418.856 358.057C419.262 358.057 419.566 357.955 419.972 357.854C420.175 357.753 420.276 357.753 420.479 357.651C420.58 357.651 420.682 357.55 420.783 357.448C421.189 357.246 421.798 356.84 422.102 356.535C422.406 356.231 422.508 356.028 422.609 355.724C422.609 355.623 422.609 355.42 422.508 355.318C422.508 355.217 422.406 355.116 422.305 355.014C422.203 354.913 422.102 354.913 422 354.811C421.392 354.406 420.783 354 420.479 353.797C420.276 353.493 419.972 353.29 419.363 353.29Z" fill="white"/>
<path d="M40.2256 389.906C40.3271 389.906 40.3271 389.906 40.2256 389.906C40.4285 389.804 40.6313 389.804 40.7328 389.703C41.0371 389.5 41.1385 389.094 41.2399 388.689C41.2399 388.587 41.2399 388.486 41.2399 388.384V388.283C41.1385 387.877 40.7326 387.674 40.3269 387.573H40.2256C40.0228 387.573 39.7183 387.573 39.5154 387.674C39.414 387.674 39.3126 387.776 39.3126 387.877L39.2114 387.979C39.1099 388.08 39.1097 388.283 39.0083 388.384C39.0083 388.486 39.0083 388.689 39.0083 388.79C39.0083 388.892 39.0083 388.993 39.0083 388.993C39.0083 389.094 39.0083 389.094 39.0083 389.196V389.297C39.1097 389.5 39.2112 389.703 39.3126 389.804C39.6169 389.906 39.9213 390.007 40.2256 389.906Z" fill="white"/>
<path d="M90.4326 112.297C90.2297 112.297 90.1281 112.399 90.0267 112.5C89.8239 112.703 89.7225 112.805 89.6211 113.21C89.6211 113.312 89.6211 113.413 89.6211 113.515V113.616C89.6211 113.92 89.9253 114.529 90.331 114.63H90.4326C90.7368 114.63 91.0411 114.529 91.1425 114.326C91.2439 114.225 91.2439 114.225 91.3453 114.123L91.4468 114.022C91.5483 113.92 91.7509 113.819 91.7509 113.616C91.7509 113.413 91.6496 113.312 91.5481 113.21C91.4467 113.109 91.4467 113.109 91.3453 113.109L91.2438 113.007C91.2438 113.007 91.1425 113.007 91.1425 112.906C91.0411 112.805 91.0411 112.703 90.9397 112.602C90.8383 112.5 90.7368 112.297 90.4326 112.297Z" fill="white"/>
<g style="mix-blend-mode:screen">
<path d="M0 0.000244141H1792V740H0V0.000244141Z" fill="#5B55FF" fill-opacity="0.3"/>
</g>
<path opacity="0.3" d="M1120.34 540.589C1089.64 551.806 1074.39 576.963 1034.36 614.44L1432.63 661.79C1432.8 579.134 1403.51 581.805 1322.3 574.102C1268.8 570.019 1273.45 516.776 1120.34 540.589Z" fill="#542E98"/>
<path d="M586.291 592.988C586.291 592.988 547.729 550.186 537.614 541.778C527.5 533.369 483.734 528.303 453.425 526.149C423.116 523.996 414.69 531.681 401.233 545.138C387.776 558.595 351.557 552.771 302.225 554.46C264.782 555.666 269.9 522.428 201.821 522.428C172.236 522.428 111.153 522.428 86.375 533.352L180.92 643.353L586.291 592.988Z" fill="#37257D"/>
<mask id="mask1_3537_156275" style="mask-type:alpha" maskUnits="userSpaceOnUse" x="-5302" y="566" width="11985" height="11985">
<path d="M2857.07 974.116C-227.19 -222.664 -3697.66 1307.29 -4894.44 4391.55C-6091.22 7475.8 -4561.09 10946.3 -1476.83 12143.1C1607.42 13339.9 5077.96 11809.8 6274.74 8725.52C7471.52 5641.26 5941.32 2170.88 2857.07 974.116ZM-1411.25 11974.1C-4402.17 10813.6 -5885.84 7448.13 -4725.35 4457.37C-3564.84 1466.59 -199.432 -17.4632 2791.5 1143.1C5782.42 2303.66 7266.09 5669.1 6105.58 8659.87C4945.09 11650.6 1579.66 13134.7 -1411.25 11974.1Z" fill="white"/>
</mask>
<g mask="url(#mask1_3537_156275)">
<path d="M-2946.46 462.793C-2893.24 450.921 -2656.35 86.6797 -1946.34 0.680954C-1280.54 -79.9418 -1346.47 -122.519 -891.885 -165.148C-437.302 -207.777 211.109 -35.4692 874.751 51.8219C1538.46 138.958 2530.49 437.946 3561.01 959.625C4591.62 1481.15 4881.87 1569.56 5400.1 1989.68C5918.53 2409.85 6006.75 2809.3 6202.83 3015.13C6398.75 3220.9 6828.64 3745.34 6673.11 4188.08L-2946.46 462.793Z" fill="#EE5928"/>
<path d="M-2944.84 462.638C-2891.62 450.766 -2654.73 86.5249 -1944.72 0.526108C-1278.99 -79.9416 -1344.9 -122.519 -890.332 -165.148C-435.75 -207.777 212.661 -35.469 876.304 51.8221C1540.02 138.958 2532.03 437.946 3562.58 959.625C4593.17 1481.15 4883.42 1569.56 5401.67 1989.68C5920.08 2409.85 6008.32 2809.3 6204.39 3015.14C6400.3 3220.89 6830.19 3745.34 6674.66 4188.09L-2944.84 462.638Z" fill="#F8D829"/>
<g opacity="0.4">
<path d="M770.264 775.532C938.661 864.529 1372.19 809.476 1372.19 809.476C1372.19 809.476 1340.81 776.048 1278.99 761.488C1207.43 744.43 1072.46 723.116 1031.64 705.437C993.592 689.188 954.599 678.677 876.061 678.16C793.819 677.661 752.362 694.478 689.555 673.439C626.749 652.4 548.401 657.104 474.791 667.736C410.727 677.075 199.943 753.493 56.5142 723.529C-135.471 683.416 -211.683 721.668 -289.824 746.791C-355.87 767.916 -439.043 776.496 -490.287 728.509C-540.859 681.159 -619.19 800.654 -619.19 800.654C-619.19 800.654 29.7203 808.304 142.323 767.709L770.264 775.532Z" fill="#FFE2B9"/>
</g>
<path d="M-250.26 783.32L-254.413 780.219C-254 779.633 -243.592 766.124 -221.33 751.65C-200.998 738.296 -166.347 721.41 -117.566 717.619C-65.874 713.467 -16.9386 723.581 30.3253 733.248C69.2152 741.122 106.003 748.755 142.411 748.273C190.347 747.653 228.272 749.427 258.599 750.84C314.271 753.597 347.854 755.165 381.988 738.641C503.586 680.108 588.93 678.299 628.94 682.365C663.091 685.811 719.142 699.992 733.702 724.856C737.476 731.318 738.355 738.124 736.149 745.223C767.389 752.357 825.835 763.195 840.792 757.543C844.738 755.941 844.996 751.96 844.979 744.379C845.048 736.091 845.013 725.718 853.922 717.533C866.19 706.402 892.605 702.611 935.113 705.971C967.334 708.677 992.078 719.205 1015.86 729.354C1041.51 740.416 1065.77 750.754 1097.22 750.203L1097.24 755.389C1064.64 756.044 1039.96 745.361 1013.82 734.109C990.355 724.081 966.163 713.587 934.803 711.02C893.932 707.729 868.637 711.037 857.506 721.134C850.303 727.768 850.269 736.435 850.217 744.189C850.131 751.547 850.079 759.301 842.687 762.161C822.01 770.208 735.839 750.272 732.135 749.393L729.05 748.755L730.325 745.93C733.203 739.468 732.789 733.386 729.36 727.441C715.903 704.472 660.386 690.877 628.56 687.586C589.102 683.554 504.826 685.415 384.349 743.466C349.095 760.472 314.978 758.87 258.53 756.199C228.203 754.786 190.658 752.96 142.739 753.597C105.779 754.045 68.7844 746.533 29.5672 738.52C-17.3866 728.992 -65.8223 719.067 -116.929 723.082C-164.572 726.769 -198.086 743.155 -218.091 756.096C-239.681 769.863 -250.192 783.165 -250.26 783.32Z" fill="#F0C645"/>
<path d="M134.932 426.608C87.1343 358.34 -866.727 542.141 -950.796 494.911C-1053.34 437.188 -683.925 343.039 -294.889 327.842C94.0782 312.799 589.377 309.077 778.347 348.398C967.489 387.77 1187.06 392.026 1559.07 442.667C1931.07 493.309 2406.43 716.206 2708.07 794.813C3009.65 873.575 3200.11 909.035 3477.68 1093.46C3755.27 1277.86 4078.9 1365 4367.57 1477.01C4656.23 1589.01 5011.84 1922.91 5144 2152.92C5276.11 2383.09 5438.34 2430.89 5660.24 2794.05C5944.94 3260.12 5962.09 3404.1 5962.09 3404.1L5447.9 2975.4C5057.52 2758.31 4924.41 2440.7 4787.12 2272.45C4649.67 2104.16 4194.38 1729 3839 1569.84C3712.87 1513.32 3692.47 1445.89 3550.31 1385.93C3472.48 1353.14 3391.01 1303.96 3326.28 1239.3C3275.29 1188.28 3194.26 1195.65 3125.09 1136.65C3049.66 1072.45 3030.82 1065.7 2947.06 1043.9C2875.18 1025.26 2798.03 1009.73 2731.06 975.615C2668.56 943.79 2628.38 945.392 2568.88 940.585C2505.09 935.416 2487.54 902.557 2395.87 903.952C2326.76 904.866 2303.67 868.181 2229.59 887.118C2138.01 910.724 2108.32 860.031 2055.8 877.727C1856.35 944.496 1628.24 913.653 1426.29 787.231C1288.15 700.733 1163.95 718.342 1067.12 679.28C990.13 648.11 930.408 641.028 880.766 645.594C822.078 651.091 747.073 660.068 685.283 642.562C565.167 608.703 452.065 638.202 332.225 661.739C253.411 677.178 157.712 711.381 66.0266 688.568C-75.1968 653.365 -190.574 670.148 -290.478 705.678C-569.461 804.979 -581.816 549.567 77.9158 480.265C119.459 476.043 169.687 476.13 134.932 426.608Z" fill="#F8D829"/>
<g opacity="0.5">
<path d="M4041.1 1601.49C3991.42 1578.52 3944.23 1562.05 3902.37 1547.47C3813.48 1516.49 3749.38 1475.91 3699.89 1408.64C3650.94 1342.34 3592.2 1343.2 3515.44 1324.33C3469.09 1312.8 3404.14 1268.19 3353.8 1205.97C3333.22 1180.42 3284.25 1163.28 3236.94 1146.58C3200.03 1133.55 3165.22 1121.34 3145.29 1106.03C3056.2 1037.46 2973.82 1008.25 2905.04 988.78C2904.73 988.659 2903.28 988.09 2901.68 987.47C2831.05 959.883 2765.95 942.377 2723.92 932.538C2701.39 927.3 2677.8 924.25 2652.9 921.235C2603.57 915.032 2552.65 908.57 2499.89 884.034C2480.63 875.074 2459.36 873.661 2438.91 872.575C2416.17 871.145 2394.68 869.836 2375.62 858.928C2345.33 841.25 2315.76 833.668 2284.09 835.236C2305.29 826.827 2333.8 819.039 2411.77 845.781C2437.2 854.535 2467.6 853.397 2496.89 852.191C2536.3 850.658 2577.02 849.09 2606.05 871.438L2609.31 867.337C2578.91 843.714 2537.21 845.454 2496.87 847.005C2467.96 848.176 2438.12 849.348 2413.5 840.888C2328.22 811.509 2300.34 822.864 2277.75 832.031C2272.01 834.426 2266.34 836.666 2260.28 838.01C2259.45 838.252 2258.69 838.32 2257.69 838.493L2257.97 839.699C2256.75 839.975 2255.59 840.078 2254.39 840.336C2240.43 842.49 2229.37 844.299 2200.64 841.663C2162.79 838.251 2135.18 827.913 2134.65 827.879C2124.69 824.019 2116.42 820.073 2108.48 816.248C2080.75 802.911 2058.85 792.194 1988.6 802.256C1965.53 805.496 1938.67 797.104 1907.65 787.472C1868.57 775.273 1824.03 761.488 1774.68 767.674C1715.46 775.015 1649.14 775.893 1564.59 731.8C1458.81 676.713 1410.54 678.677 1354.51 681.141C1336.85 681.865 1328.35 683.743 1310.45 685.122C1308.16 685.346 1297.06 685.828 1290.65 686.121C1252.02 685.173 1191.92 680.521 1149.7 661.188C1136.04 654.968 1122.84 647.059 1108.9 638.702C1056.57 607.307 997.264 571.536 881.129 603.172C772.23 632.809 734.047 622.608 607.832 588.25C560.171 575.31 503.671 587.561 443.519 600.639C418.655 606.153 392.843 611.667 367.135 615.544C217.003 638.064 57.7565 635.032 -106.16 606.377L-106.315 606.308C-106.694 606.343 -150.426 602.311 -212.095 615.527C-234.701 620.437 -256.343 631.448 -279.329 643.044C-320.493 663.859 -362.881 685.466 -420.087 678.074L-420.776 683.175C-362.175 690.756 -316.875 667.856 -277.055 647.645C-254.448 636.083 -233.099 625.331 -211.095 620.558C-151.615 607.773 -109.123 611.15 -107.004 611.408C57.4464 640.098 217.245 643.147 367.979 620.506C393.86 616.681 419.723 611.012 444.742 605.567C504.068 592.73 560.188 580.496 606.488 593.109C733.788 627.536 772.23 638.013 882.404 607.945C996.506 576.809 1054.76 611.977 1106.18 642.837C1120.27 651.263 1133.58 659.379 1147.41 665.668C1207.57 693.082 1302.39 691.618 1324.48 690.928C1364.26 693.616 1419.57 700.664 1463.63 737.159C1504.9 771.293 1585.64 854.741 1686.72 866.234C1686.72 866.234 1800.75 881.466 1877.67 853.277C1883.29 851.209 1892.45 849.021 1904.72 845.471C1914.15 842.663 1924.49 843.162 1936.62 843.8C1954.42 844.61 1976.66 845.85 2006.18 836.959C2047.36 824.656 2097.19 822.933 2133 832.565C2135.25 833.444 2162.8 843.386 2200.18 846.626C2229.45 849.296 2240.89 847.453 2255.23 845.247C2257.76 844.937 2260.35 844.455 2263.11 844.041L2262.9 842.663C2301.86 835.598 2337.06 842.06 2373.09 863.064C2393.15 874.729 2416.25 876.125 2438.67 877.417C2458.67 878.709 2479.3 879.881 2497.75 888.514C2551.32 913.36 2602.55 919.943 2652.28 926.111C2677.11 929.282 2700.54 932.263 2722.77 937.38C2764.3 947.029 2828.07 964.191 2897.61 991.175C2898.42 991.485 2899.06 991.743 2899.87 992.053C2902.59 993.104 2903.4 993.432 2903.73 993.552C2972.17 1012.9 3053.91 1041.85 3142.25 1109.96C3162.78 1125.68 3198.01 1138.24 3235.28 1151.23C3281.96 1167.67 3330.29 1184.57 3349.83 1208.99C3400.78 1272 3466.88 1317.44 3514.27 1329.16C3589.86 1347.77 3648.11 1346.71 3695.76 1411.61C3746.23 1480.17 3811.03 1520.83 3900.72 1552.12C3942.42 1566.63 3989.61 1583.1 4038.98 1605.95C4272.82 1714.44 4454.69 1854.49 4456.58 1855.78L4459.84 1851.7C4457.87 1850.63 4275.54 1710.39 4041.1 1601.49ZM2004.78 832.048C1976.09 840.698 1954.33 839.647 1936.98 838.631C1924.45 838.028 1913.58 837.493 1903.33 840.543C1891.89 843.869 1884.36 846.109 1879.31 847.677C1879.31 847.677 1815.19 875.28 1699.78 863.581C1586.38 851.915 1500.71 761.196 1467.15 733.385C1432.84 705.109 1386.21 692.376 1347.05 686.604C1349.67 686.517 1352.29 686.414 1354.91 686.328C1410.18 683.933 1457.91 681.934 1562.47 736.366C1648.24 781.114 1715.65 780.287 1775.63 772.878C1823.98 766.882 1867.83 780.563 1906.43 792.573C1938.08 802.446 1965.27 810.975 1989.55 807.46C2058.21 797.69 2078.41 807.563 2106.44 821.038C2108.15 821.882 2109.7 822.675 2111.41 823.519C2078.08 818.901 2038.66 821.899 2004.78 832.048Z" fill="#E9B361"/>
</g>
<g opacity="0.4">
<path fill-rule="evenodd" clip-rule="evenodd" d="M-224.71 577.842C-206.549 584.89 73.6063 624.469 260.508 613.458C347.713 608.306 508.425 541.83 703.27 576.964C792.56 593.126 851.076 579.979 955.236 574C1018.9 570.433 1061.86 593.557 1136.99 617.163C1313.98 673.094 1409.99 625.692 1542.44 687.809C1640.31 733.729 1764.29 756.698 1883.01 745.102C1957.39 737.744 2031.18 749.547 2096.33 783.147C2172.76 822.416 2275.54 795.209 2369.21 796.26C2694.87 800.085 3203.44 916.479 3405.09 1211.31C3442.84 1266.45 3451.27 1286.16 3517.8 1292.39C3849.78 1323.25 3750.77 1489.8 3898.18 1498.59C4216.83 1517.61 4436.06 1780.48 4714.28 2027.98C4992.51 2275.49 5064.69 2588.67 5215.06 2732.24C5365.43 2875.79 5455.96 2894.47 5455.96 2894.47L5081.23 2197.36L3486.47 927.231L2210.15 242.532L230.079 500.356L-224.71 577.842Z" fill="#FFE597"/>
</g>
<path opacity="0.4" d="M1124.55 698.768C1128.46 700.285 1132.85 698.355 1134.35 694.443C1135.87 690.532 1133.94 686.138 1130.03 684.639C1126.12 683.123 1121.74 685.053 1120.22 688.964C1118.71 692.858 1120.65 697.252 1124.55 698.768Z" fill="#FFE241"/>
<path opacity="0.4" d="M1461.61 713.328C1463.3 713.983 1465.2 713.139 1465.85 711.467C1466.51 709.779 1465.68 707.883 1463.99 707.228C1462.3 706.574 1460.41 707.418 1459.75 709.089C1459.1 710.778 1459.92 712.673 1461.61 713.328Z" fill="#A54130"/>
<path opacity="0.4" d="M423.323 635.84C425.011 636.495 426.907 635.651 427.561 633.979C428.216 632.291 427.372 630.395 425.7 629.741C424.012 629.086 422.117 629.93 421.462 631.602C420.79 633.29 421.634 635.186 423.323 635.84Z" fill="#FFE241"/>
<path opacity="0.4" d="M705.151 652.778C706.839 653.432 708.735 652.588 709.39 650.917C710.044 649.228 709.2 647.333 707.529 646.678C705.84 646.023 703.945 646.867 703.29 648.539C702.618 650.227 703.462 652.123 705.151 652.778Z" fill="#FFE241"/>
<path opacity="0.4" d="M758.636 662.582C760.325 663.237 762.22 662.392 762.875 660.721C763.53 659.032 762.685 657.137 761.014 656.482C759.325 655.827 757.43 656.672 756.775 658.343C756.103 660.014 756.948 661.927 758.636 662.582Z" fill="#FFE241"/>
<path opacity="0.4" d="M1330.52 720.116C1332.21 720.771 1334.11 719.927 1334.76 718.255C1335.42 716.567 1334.59 714.671 1332.9 714.016C1331.21 713.362 1329.32 714.206 1328.66 715.877C1328.01 717.566 1328.84 719.461 1330.52 720.116Z" fill="#A54130"/>
<path opacity="0.4" d="M1189.27 649.781C1190.95 650.436 1192.85 649.592 1193.5 647.92C1194.16 646.232 1193.32 644.336 1191.64 643.682C1189.96 643.027 1188.06 643.854 1187.4 645.543C1186.75 647.231 1187.58 649.127 1189.27 649.781Z" fill="#FFE241"/>
<path opacity="0.4" d="M1186.28 706.125C1187.97 706.78 1189.87 705.935 1190.52 704.264C1191.18 702.575 1190.33 700.68 1188.66 700.025C1186.97 699.37 1185.08 700.198 1184.42 701.886C1183.77 703.575 1184.6 705.47 1186.28 706.125Z" fill="#FFE241"/>
<path opacity="0.3" d="M426.356 712.499C430.268 714.016 434.644 712.086 436.161 708.174C437.677 704.263 435.73 699.886 431.836 698.37C427.924 696.854 423.531 698.784 422.031 702.695C420.532 706.589 422.462 710.983 426.356 712.499Z" fill="#A54130"/>
<path opacity="0.4" d="M1001.97 633.291C1005.88 634.807 1010.27 632.878 1011.77 628.966C1013.29 625.055 1011.36 620.661 1007.45 619.162C1003.55 617.646 999.158 619.575 997.642 623.487C996.126 627.381 998.056 631.775 1001.97 633.291Z" fill="#FFE241"/>
<path opacity="0.4" d="M536.634 614.078C540.545 615.594 544.922 613.647 546.438 609.753C547.955 605.842 546.025 601.448 542.113 599.949C538.202 598.433 533.808 600.362 532.309 604.274C530.793 608.168 532.74 612.562 536.634 614.078Z" fill="#FFE241"/>
<path opacity="0.4" d="M353.574 656.792C357.485 658.308 361.879 656.378 363.378 652.467C364.894 648.555 362.964 644.179 359.053 642.663C355.142 641.146 350.748 643.076 349.249 646.987C347.732 650.882 349.662 655.275 353.574 656.792Z" fill="#FFDF33"/>
<path opacity="0.4" d="M938.422 630.809C940.111 631.463 942.006 630.619 942.661 628.948C943.316 627.259 942.471 625.364 940.8 624.709C939.111 624.054 937.216 624.898 936.561 626.57C935.906 628.258 936.733 630.154 938.422 630.809Z" fill="#FFE13E"/>
<path opacity="0.3" d="M876.891 694.752C878.579 695.407 880.475 694.562 881.13 692.874C881.784 691.185 880.94 689.29 879.269 688.635C877.58 687.98 875.685 688.824 875.03 690.496C874.375 692.202 875.202 694.097 876.891 694.752Z" fill="#FFE13E"/>
<path opacity="0.3" d="M617.739 671.803C619.428 672.458 621.323 671.613 621.978 669.942C622.633 668.253 621.789 666.358 620.117 665.703C618.429 665.048 616.533 665.893 615.878 667.564C615.224 669.253 616.051 671.148 617.739 671.803Z" fill="#A54130"/>
<path opacity="0.4" d="M229.685 667.787C233.596 669.304 237.973 667.374 239.489 663.462C241.005 659.551 239.075 655.157 235.164 653.658C231.253 652.142 226.859 654.089 225.36 657.983C223.843 661.877 225.791 666.271 229.685 667.787Z" fill="#A54130"/>
<path opacity="0.4" d="M28.7384 615.508C30.427 616.163 32.3224 615.319 32.9772 613.648C33.632 611.959 32.7877 610.064 31.1163 609.409C29.4277 608.754 27.5323 609.581 26.8775 611.27C26.2227 612.958 27.0498 614.854 28.7384 615.508Z" fill="#A54130"/>
<path opacity="0.4" d="M101.969 672.558C103.658 673.213 105.553 672.369 106.208 670.697C106.862 669.009 106.018 667.113 104.33 666.459C102.641 665.804 100.746 666.631 100.091 668.319C99.4533 670.008 100.28 671.921 101.969 672.558Z" fill="#A54130"/>
<path opacity="0.4" d="M286.064 654.914C287.752 655.569 289.648 654.742 290.302 653.053C290.957 651.364 290.113 649.469 288.441 648.814C286.753 648.16 284.857 648.987 284.203 650.675C283.548 652.364 284.375 654.259 286.064 654.914Z" fill="#A54130"/>
<path d="M1644.57 662.894C1648.48 664.41 1652.88 662.48 1654.39 658.569C1655.91 654.658 1653.96 650.281 1650.07 648.765C1646.16 647.248 1641.76 649.178 1640.25 653.09C1638.73 656.984 1640.68 661.378 1644.57 662.894Z" fill="#EE5928"/>
<path d="M1727.71 677.765C1729.38 678.419 1731.28 677.575 1731.93 675.904C1732.59 674.215 1731.76 672.32 1730.07 671.665C1728.38 671.01 1726.49 671.854 1725.83 673.526C1725.18 675.214 1726.02 677.11 1727.71 677.765Z" fill="#EE5928"/>
<path d="M1439.89 635.031C1441.56 635.686 1443.47 634.842 1444.13 633.171C1444.78 631.482 1443.94 629.587 1442.25 628.932C1440.56 628.277 1438.66 629.121 1438.01 630.793C1437.35 632.481 1438.2 634.377 1439.89 635.031Z" fill="#EE5928"/>
<path d="M352.814 558.907L335.273 548.758L315.888 560.027L314.906 560.544C315.63 561.819 316.491 563.042 317.491 564.214C318.266 565.075 319.042 565.937 319.903 566.592C324.056 570.21 329.38 572.278 335.256 572.329C343.923 572.347 351.573 567.539 355.623 560.544L352.814 558.907Z" fill="#EE5928"/>
<g opacity="0.4">
<path opacity="0.4" d="M332.827 569.968C327.606 569.951 322.696 568.262 318.836 565.316C319.215 565.798 319.577 566.264 319.887 566.608C324.04 570.227 329.364 572.294 335.24 572.346C343.907 572.381 351.557 567.556 355.606 560.56L352.694 558.872C348.68 565.54 341.27 570.003 332.827 569.968Z" fill="#A54130"/>
</g>
<path d="M315.887 560.043C316.61 561.887 317.575 563.696 318.85 565.316C322.71 568.263 327.621 569.951 332.842 569.968C341.285 570.02 348.591 565.506 352.812 558.923L335.271 548.775L315.887 560.043Z" fill="#EE5928"/>
</g>
<mask id="mask2_3537_156275" style="mask-type:alpha" maskUnits="userSpaceOnUse" x="314" y="548" width="42" height="25">
<path d="M352.731 558.975L335.311 548.792L315.805 560.13L314.875 560.647C315.599 561.905 316.426 563.163 317.46 564.317C318.183 565.161 319.01 565.988 319.837 566.729C323.99 570.296 329.383 572.502 335.19 572.502C343.909 572.502 351.473 567.677 355.626 560.543L352.731 558.975Z" fill="white"/>
</mask>
<g mask="url(#mask2_3537_156275)">
<g opacity="0.4">
<path opacity="0.4" d="M313.458 567.108L312.355 566.143C312.424 566.074 318.903 558.768 329.81 561.973C345.852 566.591 358.017 558.717 358.138 558.648L358.947 559.871C358.431 560.216 346.128 568.194 329.414 563.386C319.42 560.457 313.699 566.85 313.458 567.108Z" fill="#FFE241"/>
</g>
<g opacity="0.4">
<path opacity="0.4" d="M338.202 555.667C330.482 555.667 327.191 551.015 327.019 550.756L328.225 549.929C328.415 550.222 333.205 556.873 345.335 552.962L345.783 554.357C342.889 555.305 340.373 555.667 338.202 555.667Z" fill="#FFE241"/>
</g>
<path d="M311.753 540.314C311.736 544.656 312.856 548.637 314.958 552.117L315.94 551.6L335.325 540.331L335.359 519.327V516.76C322.212 516.777 311.684 527.27 311.753 540.314Z" fill="#EE5928"/>
<path d="M353.074 524.979C356.623 529.028 358.76 534.421 358.794 540.331C358.812 544.432 357.778 548.309 355.882 551.979L355.796 552.083C355.245 551.79 353.194 550.584 352.884 550.377L335.274 540.314V519.516V516.949C341.15 517.001 346.474 519.068 350.627 522.687C350.937 523.032 351.368 523.342 351.747 523.807C352.178 524.1 352.66 524.6 353.074 524.979Z" fill="#EE5928"/>
<g opacity="0.4">
<path opacity="0.4" d="M335.258 519.292L335.378 540.469L352.833 550.342C355.056 546.638 356.503 542.209 356.4 537.609C356.331 532.353 354.815 527.632 351.748 523.772C347.716 520.757 342.633 519.068 337.377 519.137C336.585 519.172 336.085 519.155 335.258 519.292Z" fill="#FFE241"/>
</g>
<path d="M311.753 540.314C311.736 544.656 312.856 548.637 314.958 552.117L315.94 551.6L335.325 540.331L335.359 519.327V516.76C322.212 516.777 311.684 527.27 311.753 540.314Z" fill="#EE5928"/>
<g opacity="0.4">
<path opacity="0.4" d="M311.753 540.314C311.736 544.656 312.856 548.637 314.958 552.117L315.94 551.6L335.325 540.331L335.359 519.327V516.76C322.212 516.777 311.684 527.27 311.753 540.314Z" fill="#FFE241"/>
</g>
</g>
<mask id="mask3_3537_156275" style="mask-type:alpha" maskUnits="userSpaceOnUse" x="311" y="516" width="48" height="37">
<path d="M353.106 524.875C352.33 524.014 351.555 523.152 350.693 522.498C346.541 518.879 341.216 516.811 335.341 516.76C322.349 516.725 311.786 527.305 311.735 540.314C311.717 544.656 312.837 548.637 314.939 552.117L315.922 551.6L335.306 540.331L352.847 550.48L355.759 552.169C357.758 548.723 358.878 544.708 358.895 540.366C358.844 534.439 356.707 529.063 353.106 524.875Z" fill="white"/>
</mask>
<g mask="url(#mask3_3537_156275)">
</g>
<path d="M-2.53125 760.907V449.902C91.3024 449.902 107.88 519.867 116.375 532.41C124.869 544.953 154.783 590.61 213.026 606.424C326.269 637.159 338.798 711.98 326.269 760.921H-2.53125V760.907Z" fill="#F8BE35"/>
<path opacity="0.5" d="M264.288 720.913C289.205 727.057 293.268 757.58 300.686 777.938C253.501 791.019 153.395 809.324 130.418 777.938C101.707 738.708 153.282 671.589 185.022 696.251C226.687 728.6 233.157 713.225 264.288 720.913Z" fill="#EE5928"/>
<path opacity="0.6" d="M243.335 745.999C262.164 752.144 265.251 782.666 270.857 803.039C235.181 816.12 159.497 834.425 142.126 803.039C120.423 763.795 159.412 696.662 183.408 721.323C214.908 753.673 219.792 738.312 243.335 745.999Z" fill="#A54130"/>
<path d="M0 758.999V512.999C47.4739 531.436 33.4371 559.514 47.4739 609.798C53.2787 630.578 69.7596 656.737 112.396 677.263C152.011 696.349 104.164 745.856 100.277 758.985H0V758.999Z" fill="#F8D829"/>
<path d="M79.9363 607.232C83.0638 607.232 85.5992 604.697 85.5992 601.569C85.5992 598.441 83.0638 595.906 79.9363 595.906C76.8088 595.906 74.2734 598.441 74.2734 601.569C74.2734 604.697 76.8088 607.232 79.9363 607.232Z" fill="#F8D829"/>
<path d="M83.572 621.787C85.5814 621.787 87.2104 620.158 87.2104 618.148C87.2104 616.139 85.5814 614.51 83.572 614.51C81.5626 614.51 79.9336 616.139 79.9336 618.148C79.9336 620.158 81.5626 621.787 83.572 621.787Z" fill="#EFCF23"/>
<path d="M97.3181 614.509C99.3275 614.509 100.956 612.88 100.956 610.87C100.956 608.861 99.3275 607.232 97.3181 607.232C95.3086 607.232 93.6797 608.861 93.6797 610.87C93.6797 612.88 95.3086 614.509 97.3181 614.509Z" fill="#F8D829"/>
<path opacity="0.5" d="M272.076 688.92C274.085 688.92 275.714 687.291 275.714 685.281C275.714 683.272 274.085 681.643 272.076 681.643C270.066 681.643 268.438 683.272 268.438 685.281C268.438 687.291 270.066 688.92 272.076 688.92Z" fill="#EE5928"/>
<path opacity="0.5" d="M279.353 701.05C281.363 701.05 282.992 699.421 282.992 697.412C282.992 695.402 281.363 693.773 279.353 693.773C277.344 693.773 275.715 695.402 275.715 697.412C275.715 699.421 277.344 701.05 279.353 701.05Z" fill="#EE5928"/>
<path opacity="0.5" d="M260.75 701.064C264.104 701.064 266.823 698.345 266.823 694.991C266.823 691.637 264.104 688.917 260.75 688.917C257.395 688.917 254.676 691.637 254.676 694.991C254.676 698.345 257.395 701.064 260.75 701.064Z" fill="#EE5928"/>
<path d="M1439.75 547.706C1469.75 478.559 1609.87 441.306 1803.42 452.644V816.92H1259.28C1242.08 705.213 1293.55 652.073 1333.25 633.826C1403.6 601.484 1415.44 603.724 1439.75 547.706Z" fill="#EE5928"/>
<path d="M1439.75 547.706C1469.75 478.559 1609.87 441.306 1803.42 452.644V816.92H1259.28C1242.08 705.213 1293.55 652.073 1333.25 633.826C1403.6 601.484 1415.44 603.724 1439.75 547.706Z" fill="#FFDF33"/>
<path opacity="0.4" fill-rule="evenodd" clip-rule="evenodd" d="M1499.79 611.91C1470.27 598.729 1434.54 590.26 1413.79 591.658L1417.23 587.35C1439.19 585.871 1472.04 593.856 1501.9 607.19C1516.88 613.876 1530.94 621.856 1542.03 630.565C1553.05 639.226 1561.42 648.834 1564.51 658.859C1565.59 662.352 1566.62 665.75 1567.62 669.055C1578.11 703.619 1585.54 728.107 1610.51 746.91C1638.06 767.647 1687.24 781.624 1786.27 792.519L1785.7 797.657C1686.77 786.773 1636.22 772.733 1607.4 751.039C1581.02 731.174 1573.1 705.026 1562.74 670.782C1561.71 667.395 1560.66 663.929 1559.57 660.381C1556.94 651.849 1549.55 643.05 1538.83 634.63C1528.18 626.256 1514.51 618.48 1499.79 611.91Z" fill="#FFE241"/>
<path opacity="0.4" fill-rule="evenodd" clip-rule="evenodd" d="M1526.41 573.233C1493.61 564.699 1456.04 562.461 1431.88 564.092L1434.46 558.922C1459.08 557.262 1494.28 559.533 1527.71 568.23C1560.94 576.876 1591.57 592.653 1601.83 619.8C1618.14 662.989 1655.8 695.605 1711.19 716.633C1766.6 737.667 1839.54 747.009 1925.89 743.726L1926.08 748.891C1839.33 752.19 1765.63 742.828 1709.36 721.466C1653.07 700.097 1613.99 666.624 1596.99 621.627C1587.69 597.029 1559.4 581.817 1526.41 573.233Z" fill="#F8BE35"/>
<path opacity="0.4" fill-rule="evenodd" clip-rule="evenodd" d="M1542.95 523.681C1513.11 517.033 1476.79 519.069 1453.41 525.322L1460.31 518.635C1484.53 512.155 1513.47 511.817 1544.08 518.635C1574.67 525.451 1603.96 540.196 1621.74 565.609C1663.54 625.349 1698.51 656.008 1728.19 672.71C1754.76 687.667 1777.21 691.523 1797.06 694.934C1799.37 695.33 1801.64 695.72 1803.88 696.121L1802.97 701.209C1800.75 700.813 1798.49 700.425 1796.19 700.03C1776.31 696.621 1753.04 692.629 1725.65 677.214C1695.1 660.019 1659.59 628.724 1617.5 568.573C1600.72 544.585 1572.81 530.331 1542.95 523.681Z" fill="#F8BE35"/>
<path d="M1733.4 538.85C1707.09 505.353 1766.55 479.025 1799.56 470.047H1832.04V659.586C1775.61 660.947 1751.22 634.567 1746.34 614.993C1739.1 585.89 1767.14 581.806 1733.4 538.85Z" fill="#F8BE35"/>
<path d="M1366.6 668.545C1347.43 660.602 1303.75 671.854 1284.29 678.47C1269.28 695.115 1260.32 727.233 1257.72 741.208C1271.96 732.454 1307.85 712.208 1337.43 701.198C1374.43 687.43 1390.57 678.47 1366.6 668.545Z" fill="#EE5928"/>
<path opacity="0.6" d="M1315.9 686.81C1306.76 683.037 1285.93 688.378 1276.66 691.531C1269.51 699.44 1265.24 714.724 1264 721.358C1270.79 717.205 1287.9 707.573 1301.99 702.335C1319.62 695.787 1327.32 691.531 1315.9 686.81Z" fill="#A54130"/>
<path d="M1623.67 523.289C1626.62 523.289 1629.01 520.998 1629.01 518.172C1629.01 515.345 1626.62 513.054 1623.67 513.054C1620.72 513.054 1618.33 515.345 1618.33 518.172C1618.33 520.998 1620.72 523.289 1623.67 523.289Z" fill="#F8D829"/>
<path d="M1453.65 720.962C1456.6 720.962 1459 718.671 1459 715.844C1459 713.018 1456.6 710.727 1453.65 710.727C1450.7 710.727 1448.31 713.018 1448.31 715.844C1448.31 718.671 1450.7 720.962 1453.65 720.962Z" fill="#B54026"/>
<path d="M1627.1 536.436C1628.99 536.436 1630.53 534.963 1630.53 533.145C1630.53 531.328 1628.99 529.854 1627.1 529.854C1625.21 529.854 1623.67 531.328 1623.67 533.145C1623.67 534.963 1625.21 536.436 1627.1 536.436Z" fill="#F8D829"/>
<path d="M1640.08 529.857C1641.97 529.857 1643.51 528.383 1643.51 526.566C1643.51 524.748 1641.97 523.275 1640.08 523.275C1638.18 523.275 1636.65 524.748 1636.65 526.566C1636.65 528.383 1638.18 529.857 1640.08 529.857Z" fill="#F8D829"/>
<path d="M204.979 450.45C189.164 452.056 176.916 465.435 176.913 481.607C176.952 488.58 179.242 495.056 183.097 500.276C188.347 504.175 194.802 506.484 201.776 506.446C217.947 506.448 231.643 494.143 233.244 478.397L205.014 478.397L204.979 450.45Z" fill="#FFE034"/>
<path opacity="0.4" d="M218.787 464.627C220.246 465.193 221.887 464.47 222.453 463.011C223.019 461.553 222.295 459.912 220.837 459.346C219.378 458.78 217.737 459.503 217.171 460.962C216.605 462.42 217.329 464.061 218.787 464.627Z" fill="#A44030"/>
<path d="M242.755 470.301C242.736 470.098 242.684 469.979 242.75 469.809C242.679 469.487 242.726 469.114 242.655 468.792C242.636 468.589 242.617 468.385 242.597 468.182C242.611 467.893 242.54 467.571 242.521 467.368C242.502 467.165 242.398 466.928 242.412 466.639C242.393 466.436 242.321 466.114 242.302 465.911C242.283 465.707 242.212 465.386 242.108 465.149C242.089 464.946 241.985 464.709 241.965 464.506C241.861 464.27 241.875 463.981 241.771 463.744C241.752 463.541 241.648 463.304 241.595 463.186C241.524 462.865 241.42 462.628 241.349 462.307C241.297 462.188 241.278 461.985 241.14 461.834C241.069 461.512 240.88 461.242 240.808 460.921C240.756 460.802 240.704 460.684 240.652 460.566C239.311 457.203 237.463 454.134 235.162 451.477C234.148 450.299 233.102 449.207 231.904 448.252C229.182 445.922 226.176 444.069 222.769 442.747C222.684 442.714 222.598 442.681 222.428 442.615C222.087 442.483 221.832 442.384 221.491 442.251C221.321 442.185 221.15 442.119 220.98 442.053C220.724 441.954 220.469 441.855 220.095 441.808C219.925 441.742 219.669 441.643 219.466 441.662C219.21 441.562 218.921 441.548 218.666 441.449C218.41 441.35 218.207 441.369 217.951 441.27C217.696 441.171 217.492 441.19 217.237 441.091C216.981 440.992 216.693 440.978 216.489 440.997C216.201 440.983 216.03 440.917 215.742 440.903C215.453 440.889 215.197 440.79 214.909 440.776C214.705 440.795 214.45 440.695 214.246 440.715C213.958 440.701 213.584 440.654 213.295 440.64C213.092 440.659 212.922 440.593 212.718 440.612C212.226 440.617 211.649 440.589 211.157 440.594L211.107 444.005L211.142 471.952L239.09 471.917L242.501 471.967C242.818 471.403 242.727 470.878 242.755 470.301Z" fill="#FFDF33"/>
<path d="M231.938 448.167C232.403 448.739 232.952 449.344 233.383 450.001C233.998 450.436 234.581 450.956 235.163 451.476C234.183 450.214 233.103 449.207 231.938 448.167Z" fill="#F9D720"/>
<path d="M201.777 506.446C194.803 506.485 188.348 504.176 183.098 500.277C183.562 500.849 183.993 501.506 184.543 502.111C187.265 504.442 190.27 506.294 193.678 507.616C193.763 507.649 193.848 507.683 194.019 507.749C194.359 507.881 194.615 507.98 194.956 508.112C195.126 508.178 195.296 508.244 195.467 508.311C195.722 508.41 195.978 508.509 196.352 508.556C196.522 508.622 196.778 508.721 196.981 508.702C197.237 508.801 197.525 508.815 197.781 508.914C198.036 509.014 198.24 508.994 198.495 509.094C198.751 509.193 198.954 509.174 199.21 509.273C199.466 509.372 199.754 509.386 199.958 509.367C200.246 509.381 200.417 509.447 200.705 509.461C200.994 509.475 201.249 509.574 201.538 509.588C201.741 509.569 201.997 509.668 202.2 509.649C202.489 509.663 202.863 509.71 203.151 509.724C203.355 509.705 203.525 509.771 203.729 509.752C204.221 509.747 204.798 509.775 205.29 509.77C222.649 509.743 236.605 495.752 236.663 478.426L233.252 478.376C231.243 494.161 217.948 506.449 201.777 506.446Z" fill="#EDCF27"/>
<path d="M242.748 469.81C242.677 469.489 242.724 469.115 242.653 468.793C242.634 468.59 242.615 468.386 242.596 468.183C242.61 467.894 242.538 467.572 242.519 467.369C242.5 467.166 242.396 466.929 242.41 466.641C242.391 466.437 242.32 466.115 242.301 465.912C242.282 465.709 242.21 465.387 242.106 465.15C242.087 464.947 241.983 464.711 241.964 464.507C241.859 464.271 241.873 463.982 241.769 463.746C241.75 463.542 241.646 463.306 241.594 463.187C241.522 462.866 241.418 462.629 241.347 462.308C241.295 462.189 241.276 461.986 241.138 461.835C241.067 461.513 240.878 461.243 240.807 460.922C240.754 460.803 240.702 460.685 240.65 460.567C239.309 457.204 237.461 454.135 235.16 451.478C234.578 450.958 233.962 450.523 233.38 450.003C237.235 455.223 239.525 461.699 239.563 468.672C239.54 469.742 239.518 470.811 239.376 471.932L242.788 471.982C242.783 471.49 242.778 470.998 242.805 470.42C242.701 470.184 242.682 469.981 242.748 469.81Z" fill="#EDCF27"/>
<path d="M214.701 443.833C221.675 443.795 228.13 446.103 233.38 450.003C232.916 449.431 232.485 448.773 231.935 448.168C229.213 445.838 226.208 443.985 222.8 442.663C222.715 442.63 222.63 442.597 222.459 442.531C222.119 442.399 221.863 442.299 221.522 442.167C221.352 442.101 221.182 442.035 221.011 441.969C220.756 441.87 220.5 441.771 220.126 441.724C219.956 441.657 219.7 441.558 219.497 441.577C219.241 441.478 218.953 441.464 218.697 441.365C218.442 441.266 218.238 441.285 217.983 441.186C217.727 441.087 217.524 441.106 217.268 441.007C217.013 440.907 216.724 440.893 216.52 440.913C216.232 440.899 216.061 440.832 215.773 440.818C215.484 440.804 215.229 440.705 214.94 440.691C214.737 440.71 214.481 440.611 214.278 440.63C213.989 440.616 213.615 440.569 213.327 440.555C213.123 440.574 212.953 440.508 212.749 440.527C212.257 440.532 211.68 440.504 211.188 440.51L211.139 443.921C212.53 443.872 213.632 443.81 214.701 443.833Z" fill="#FFEC83"/>
<path d="M183.098 500.275C179.243 495.055 176.953 488.58 176.914 481.606C176.916 465.435 189.25 452.088 204.98 450.449L205.03 447.038C187.671 447.065 173.715 461.056 173.657 478.382C173.662 478.874 173.667 479.366 173.639 479.943C173.658 480.146 173.71 480.265 173.644 480.435C173.715 480.757 173.668 481.13 173.74 481.452C173.759 481.656 173.778 481.859 173.797 482.062C173.783 482.351 173.854 482.673 173.873 482.876C173.892 483.08 173.996 483.316 173.982 483.605C174.002 483.808 174.073 484.13 174.092 484.333C174.111 484.537 174.182 484.858 174.286 485.095C174.305 485.298 174.41 485.535 174.429 485.738C174.533 485.975 174.519 486.263 174.623 486.5C174.642 486.703 174.747 486.94 174.799 487.058C174.87 487.379 174.974 487.616 175.046 487.938C175.098 488.056 175.117 488.259 175.254 488.411C175.325 488.732 175.515 489.002 175.586 489.323C175.638 489.442 175.69 489.56 175.742 489.678C177.084 493.041 178.931 496.11 181.233 498.768C181.9 499.321 182.482 499.841 183.098 500.275Z" fill="#FFEC83"/>
<path d="M283.766 518.95L268.316 510.014L251.23 519.948L250.369 520.399C251.009 521.529 251.766 522.607 252.642 523.633C253.329 524.39 254.016 525.146 254.768 525.732C258.433 528.918 263.118 530.736 268.294 530.784C275.93 530.807 282.674 526.563 286.241 520.4L283.766 518.95Z" fill="#EDCF27"/>
<path d="M252.642 523.634C253.328 524.391 254.015 525.147 254.768 525.733C254.441 525.313 254.081 524.977 253.839 524.589C253.361 524.306 253.001 523.97 252.642 523.634Z" fill="#F9D720"/>
<path opacity="0.4" d="M251.226 519.949L250.365 520.399C251.005 521.53 251.763 522.608 252.639 523.634C252.999 523.969 253.444 524.338 253.837 524.589C252.719 523.175 251.838 521.657 251.226 519.949Z" fill="#F9D720"/>
<path d="M251.227 519.951C251.871 521.573 252.719 523.176 253.837 524.59C257.241 527.185 261.566 528.667 266.165 528.688C273.598 528.729 280.039 524.76 283.763 518.952L268.313 510.017L251.227 519.951Z" fill="#FFE034"/>
<path d="M247.587 502.558C247.576 506.376 248.563 509.895 250.41 512.964L251.271 512.514L268.358 502.58L268.386 484.067L268.38 481.81C256.807 481.828 247.536 491.071 247.587 502.558Z" fill="#EE5827"/>
<path d="M283.998 489.047C287.123 492.612 289.005 497.361 289.042 502.57C289.063 506.177 288.147 509.604 286.478 512.833L286.401 512.926C285.916 512.674 284.114 511.602 283.839 511.431L268.319 502.57L268.319 484.238L268.313 481.981C273.489 482.029 278.174 483.847 281.839 487.033C282.113 487.336 282.497 487.605 282.824 488.026C283.217 488.277 283.638 488.712 283.998 489.047Z" fill="#F8D82D"/>
<path d="M247.587 502.558C247.576 506.376 248.563 509.895 250.41 512.964L251.271 512.514L268.358 502.58L268.386 484.067L268.38 481.81C256.807 481.828 247.536 491.071 247.587 502.558Z" fill="#FFDF33"/>
<path d="M249.714 504.657C249.687 493.865 257.893 485.092 268.301 484.034L268.295 481.777C256.841 481.743 247.536 491.071 247.502 502.525C247.491 506.343 248.478 509.863 250.325 512.932L251.186 512.482C250.262 510.065 249.725 507.406 249.714 504.657Z" fill="#FFEB7C"/>
<path d="M284.03 488.961C283.343 488.204 282.657 487.448 281.904 486.862C282.231 487.283 282.59 487.618 282.832 488.006C283.277 488.375 283.67 488.625 284.03 488.961Z" fill="#F9D720"/>
<path d="M284.031 488.963C283.671 488.627 283.226 488.258 282.833 488.008C285.415 491.46 286.884 495.755 286.949 500.386C286.957 504.408 285.758 508.255 283.755 511.398L286.315 512.882C288.082 509.843 289.064 506.304 289.075 502.486C289.09 497.395 287.209 492.646 284.031 488.963Z" fill="#E8CB2F"/>
<path d="M270.506 483.91C275.104 483.93 279.43 485.413 282.834 488.008C282.507 487.587 282.18 487.166 281.905 486.863C278.241 483.677 273.556 481.859 268.38 481.811L268.386 484.068C268.997 484.011 269.725 483.901 270.506 483.91Z" fill="#ECCF31"/>
</g>
</g>
<defs>
<radialGradient id="paint0_radial_3537_156275" cx="0" cy="0" r="1" gradientUnits="userSpaceOnUse" gradientTransform="translate(68.9996 53.9996) rotate(39.1984) scale(797.458 772.704)">
<stop offset="0.260417" stop-color="#4C2193" stop-opacity="0.6"/>
<stop offset="0.51" stop-color="#3D17AD" stop-opacity="0.3"/>
<stop offset="1" stop-color="#1C0958" stop-opacity="0"/>
</radialGradient>
<linearGradient id="paint1_linear_3537_156275" x1="1147.83" y1="862" x2="1147.83" y2="178.632" gradientUnits="userSpaceOnUse">
<stop offset="0.01" stop-color="#612193" stop-opacity="0.6"/>
<stop offset="0.473958" stop-color="#3D17AD" stop-opacity="0.3"/>
<stop offset="1" stop-color="#1C0958" stop-opacity="0"/>
</linearGradient>
<radialGradient id="paint2_radial_3537_156275" cx="0" cy="0" r="1" gradientUnits="userSpaceOnUse" gradientTransform="translate(1792 11.3248) rotate(138.172) scale(834.727 820.786)">
<stop offset="0.243855" stop-color="#4C2193" stop-opacity="0.6"/>
<stop offset="0.51" stop-color="#3D17AD" stop-opacity="0.3"/>
<stop offset="1" stop-color="#1C0958" stop-opacity="0"/>
</radialGradient>
<clipPath id="clip0_3537_156275">
<rect width="1792" height="726" fill="white"/>
</clipPath>
</defs>
</svg>
