<svg width="90" height="90" viewBox="0 0 90 90" fill="none" xmlns="http://www.w3.org/2000/svg">
<mask id="mask0_3537_156664" style="mask-type:alpha" maskUnits="userSpaceOnUse" x="0" y="0" width="90" height="90">
<path d="M45 90C69.8528 90 90 69.8528 90 45C90 20.1472 69.8528 0 45 0C20.1472 0 0 20.1472 0 45C0 69.8528 20.1472 90 45 90Z" fill="#FEF6D0"/>
</mask>
<g mask="url(#mask0_3537_156664)">
<path d="M45 90C69.8528 90 90 69.8528 90 45C90 20.1472 69.8528 0 45 0C20.1472 0 0 20.1472 0 45C0 69.8528 20.1472 90 45 90Z" fill="#FFEFCC"/>
<path d="M60.5131 75.4343C59.8409 75.437 59.1869 75.2162 58.6538 74.8066C58.0121 74.3121 57.5921 73.5837 57.4856 72.7805C57.3791 71.9773 57.5948 71.1646 58.0854 70.5198L74.1078 49.6777L72.6631 37.6462C72.5657 36.8437 72.7911 36.0355 73.2897 35.3992C73.7882 34.7629 74.5192 34.3508 75.3216 34.2534C76.1241 34.156 76.9323 34.3814 77.5686 34.88C78.2049 35.3786 78.617 36.1095 78.7144 36.9119L80.3249 50.1869C80.4189 50.981 80.1978 51.7803 79.7091 52.4133L62.9288 74.2501C62.6438 74.6194 62.2778 74.9183 61.8589 75.1237C61.44 75.329 60.9796 75.4353 60.5131 75.4343V75.4343Z" fill="#F4AA89"/>
<path d="M78.5013 52.2829L75.4934 35.171C75.4235 34.7768 75.2765 34.4002 75.061 34.0628C74.8455 33.7254 74.5656 33.4337 74.2373 33.2044C73.9091 32.9751 73.5389 32.8127 73.1479 32.7265C72.7569 32.6403 72.3527 32.632 71.9585 32.702C71.5643 32.7719 71.1877 32.9189 70.8503 33.1344C70.5128 33.3499 70.2212 33.6298 69.9919 33.958C69.7626 34.2863 69.6003 34.6564 69.5141 35.0474C69.4279 35.4384 69.4195 35.8426 69.4895 36.2369L72.2369 51.75L58.2513 64.5394L64.5987 53.1592C64.9667 52.4939 65.0733 51.7152 64.8979 50.9754C64.7224 50.2357 64.2775 49.5879 63.6499 49.1587C63.0223 48.7295 62.2573 48.5496 61.5042 48.6544C60.7512 48.7591 60.0643 49.1408 59.5777 49.725L47.8066 63.9355C47.5258 64.2742 47.3221 64.67 47.2096 65.0953C47.0971 65.5207 47.0786 65.9654 47.1553 66.3987L49.0855 77.5303L48.8961 91.1723C48.8914 91.5765 48.9669 91.9777 49.1183 92.3525C49.2697 92.7273 49.4941 93.0683 49.7783 93.3558C50.0625 93.6433 50.4008 93.8715 50.7739 94.0273C51.1469 94.183 51.5471 94.2632 51.9513 94.2632H61.9224C62.7295 94.2632 63.5036 93.9425 64.0744 93.3718C64.6451 92.801 64.9658 92.0269 64.9658 91.2197V72.4855L77.9329 55.6934C78.1923 55.3623 78.3791 54.9803 78.4812 54.5722C78.5832 54.1642 78.5981 53.7392 78.525 53.325C78.5764 52.9788 78.5684 52.6264 78.5013 52.2829V52.2829Z" fill="#F6BC9F"/>
<path d="M29.4985 75.4341C29.0401 75.4271 28.5893 75.3169 28.1793 75.1119C27.7693 74.9069 27.4107 74.6123 27.13 74.2499L10.3617 52.4131C10.1174 52.1009 9.93718 51.7435 9.8315 51.3614C9.72582 50.9794 9.69672 50.5801 9.74585 50.1868L11.3445 36.9117C11.4648 36.1274 11.8856 35.4207 12.5178 34.9411C13.15 34.4615 13.944 34.2466 14.7318 34.342C15.5195 34.4374 16.2393 34.8355 16.7387 35.4522C17.2381 36.0688 17.478 36.8556 17.4077 37.646L15.9511 49.6776L31.9735 70.5196C32.3223 70.9671 32.5391 71.5031 32.5994 72.0672C32.6598 72.6313 32.5612 73.2011 32.3149 73.7122C32.0686 74.2233 31.6844 74.6553 31.2055 74.9596C30.7267 75.2638 30.1724 75.4282 29.6051 75.4341H29.4985Z" fill="#F4AA89"/>
<path d="M30.4342 49.725C29.9476 49.1409 29.2607 48.7591 28.5076 48.6544C27.7546 48.5497 26.9895 48.7296 26.362 49.1588C25.7344 49.588 25.2895 50.2357 25.114 50.9755C24.9386 51.7153 25.0452 52.4939 25.4132 53.1593L31.7488 64.5395L17.775 51.75L20.4751 36.1776C20.4631 35.4651 20.2023 34.7791 19.738 34.2384C19.2736 33.6978 18.6349 33.3365 17.9323 33.217C17.2297 33.0976 16.5074 33.2276 15.8905 33.5844C15.2736 33.9412 14.8008 34.5025 14.554 35.1711L11.5224 52.3421C11.4574 52.6865 11.4574 53.0399 11.5224 53.3843C11.4551 53.7986 11.473 54.2222 11.5748 54.6294C11.6766 55.0366 11.8602 55.4188 12.1145 55.7527L25.1408 72.5448V91.279C25.144 92.0873 25.4673 92.8613 26.0399 93.4317C26.6126 94.0022 27.3879 94.3224 28.1961 94.3224H38.2145C38.6186 94.3251 39.0191 94.2456 39.3916 94.0889C39.7642 93.9322 40.101 93.7014 40.3816 93.4106C40.6686 93.1264 40.8944 92.7865 41.0451 92.4118C41.1958 92.037 41.2682 91.6354 41.2579 91.2317L41.0329 77.625L42.9632 66.4935C43.0399 66.0602 43.0213 65.6155 42.9088 65.1902C42.7964 64.7648 42.5927 64.369 42.3119 64.0303L30.4342 49.725Z" fill="#F6BC9F"/>
</g>
<path d="M53.4909 15.8091C51.8347 15.8075 50.2018 16.1983 48.7259 16.9497C47.25 17.701 45.9732 18.7914 45.0001 20.1315C43.6938 18.3534 41.8602 17.0325 39.7601 16.3563C37.6599 15.6802 35.4 15.6833 33.3017 16.3653C31.2034 17.0472 29.3735 18.3732 28.0721 20.1549C26.7707 21.9365 26.0641 24.0831 26.0527 26.2894C26.0527 33.2762 37.8948 43.6262 42.904 47.6052C43.5052 48.0926 44.2557 48.3587 45.0297 48.3587C45.8037 48.3587 46.5542 48.0926 47.1554 47.6052C52.1054 43.5907 63.9948 33.2407 63.9948 26.2894C63.9948 24.9111 63.7229 23.5463 63.1948 22.2733C62.6666 21.0002 61.8925 19.8438 60.9168 18.8703C59.9411 17.8968 58.783 17.1254 57.5088 16.6001C56.2345 16.0748 54.8692 15.806 53.4909 15.8091Z" fill="#FF7D9D"/>
<path d="M47.1314 47.6409C52.0814 43.6264 63.9708 33.2764 63.9708 26.3251C63.9594 24.1188 63.2528 21.9722 61.9514 20.1906C60.65 18.409 58.8201 17.0829 56.7219 16.401C54.6236 15.719 52.3636 15.7159 50.2635 16.392C48.1633 17.0682 46.3297 18.3891 45.0234 20.1672V48.4343C45.7966 48.4209 46.5413 48.1406 47.1314 47.6409Z" fill="#FF6288"/>
</svg>
