<svg width="90" height="90" viewBox="0 0 90 90" fill="none" xmlns="http://www.w3.org/2000/svg">
<path opacity="0.2" d="M45.0058 90C69.8553 90 89.9999 69.8528 89.9999 45C89.9999 20.1472 69.8553 0 45.0058 0C20.1563 0 0.0117188 20.1472 0.0117188 45C0.0117188 69.8528 20.1563 90 45.0058 90Z" fill="#35D48D"/>
<path d="M75.614 84.4224H13.5459C10.2485 84.4224 7.08626 83.1123 4.7547 80.7805C2.42314 78.4486 1.11328 75.2859 1.11328 71.9882C1.11328 68.6904 2.42314 65.5277 4.7547 63.1959C7.08626 60.864 10.2485 59.554 13.5459 59.554H75.614C78.9113 59.554 82.0736 60.864 84.4051 63.1959C86.7367 65.5277 88.0466 68.6904 88.0466 71.9882C88.0466 75.2859 86.7367 78.4486 84.4051 80.7805C82.0736 83.1123 78.9113 84.4224 75.614 84.4224Z" fill="#EF5181"/>
<path d="M75.6135 59.5896H70.3682C73.6655 59.5896 76.8278 60.8996 79.1593 63.2315C81.4909 65.5634 82.8007 68.7261 82.8007 72.0238C82.8007 75.3216 81.4909 78.4843 79.1593 80.8161C76.8278 83.148 73.6655 84.458 70.3682 84.458H75.6135C78.9108 84.458 82.0731 83.148 84.4047 80.8161C86.7362 78.4843 88.0461 75.3216 88.0461 72.0238C88.0461 68.7261 86.7362 65.5634 84.4047 63.2315C82.0731 60.8996 78.9108 59.5896 75.6135 59.5896Z" fill="#E7387F"/>
<path d="M21.4318 63.6514L22.9829 66.8014C23.0792 66.9947 23.2212 67.1614 23.3966 67.2873C23.572 67.4132 23.7755 67.4944 23.9894 67.5238L27.4586 68.033C27.7043 68.0695 27.935 68.1735 28.1248 68.3336C28.3147 68.4937 28.4562 68.7035 28.5336 68.9395C28.6111 69.1755 28.6212 69.4283 28.5631 69.6698C28.505 69.9112 28.3809 70.1318 28.2046 70.3067L25.6944 72.758C25.538 72.9089 25.4207 73.0955 25.3526 73.3018C25.2846 73.5081 25.2678 73.728 25.3036 73.9422L25.8957 77.3883C25.9361 77.6327 25.9078 77.8836 25.814 78.113C25.7202 78.3423 25.5647 78.5411 25.3646 78.6872C25.1645 78.8334 24.9277 78.921 24.6808 78.9405C24.4338 78.96 24.1862 78.9104 23.9657 78.7975L20.8634 77.1633C20.6714 77.0636 20.4582 77.0116 20.2419 77.0116C20.0255 77.0116 19.8123 77.0636 19.6202 77.1633L16.518 78.8093C16.2971 78.9255 16.0481 78.9776 15.7992 78.9597C15.5503 78.9418 15.3113 78.8547 15.1093 78.7081C14.9073 78.5615 14.7503 78.3613 14.6561 78.1302C14.5619 77.8991 14.5342 77.6462 14.5761 77.4001L15.1681 73.9541C15.2087 73.7408 15.1953 73.5207 15.1291 73.3138C15.0629 73.107 14.9461 72.92 14.7892 72.7699L12.279 70.3186C12.0985 70.1463 11.9702 69.9266 11.9089 69.6847C11.8475 69.4429 11.8556 69.1886 11.9323 68.9512C12.009 68.7137 12.1511 68.5027 12.3423 68.3424C12.5335 68.1821 12.766 68.0789 13.0132 68.0448L16.4943 67.5356C16.7064 67.5054 16.9079 67.4238 17.0812 67.2979C17.2546 67.172 17.3945 67.0056 17.4889 66.8133L19.04 63.6633C19.1535 63.4475 19.3238 63.2669 19.5325 63.1409C19.7411 63.0149 19.9803 62.9482 20.2241 62.9482C20.4678 62.9482 20.7069 63.0149 20.9156 63.1409C21.1243 63.2669 21.2946 63.4475 21.4081 63.6633L21.4318 63.6514Z" fill="#FFDE43"/>
<path d="M70.1081 63.6514L71.6592 66.8014C71.7571 66.9934 71.8996 67.1592 72.0747 67.2849C72.2498 67.4106 72.4524 67.4925 72.6656 67.5238L76.1349 68.033C76.3805 68.0695 76.6112 68.1735 76.8011 68.3336C76.9909 68.4937 77.1325 68.7035 77.2099 68.9395C77.2873 69.1755 77.2976 69.4283 77.2395 69.6698C77.1813 69.9112 77.0571 70.1318 76.8809 70.3067L74.3707 72.758C74.2143 72.9089 74.0971 73.0954 74.029 73.3018C73.9609 73.5081 73.944 73.7279 73.9799 73.9422L74.5719 77.3883C74.6171 77.6338 74.5921 77.8871 74.4997 78.1191C74.4073 78.351 74.2513 78.5521 74.0496 78.6993C73.848 78.8465 73.6089 78.9338 73.3599 78.9512C73.1109 78.9686 72.8621 78.9153 72.642 78.7975L69.5753 77.1632C69.3832 77.0636 69.17 77.0116 68.9536 77.0116C68.7372 77.0116 68.5241 77.0636 68.332 77.1632L65.1942 78.8093C64.9741 78.9271 64.7253 78.9804 64.4762 78.9631C64.2272 78.9457 63.9882 78.8584 63.7866 78.7112C63.585 78.564 63.429 78.3628 63.3366 78.1308C63.2442 77.8989 63.2191 77.6456 63.2642 77.4001L63.8562 73.9541C63.8921 73.7398 63.8753 73.5199 63.8072 73.3136C63.7392 73.1073 63.6219 72.9207 63.4656 72.7699L60.9553 70.3185C60.7745 70.1456 60.6463 69.9249 60.5856 69.6821C60.5248 69.4394 60.534 69.1844 60.612 68.9466C60.69 68.7089 60.8337 68.498 61.0264 68.3384C61.2192 68.1788 61.4531 68.077 61.7013 68.0448L65.1706 67.5356C65.3827 67.5054 65.5841 67.4238 65.7575 67.2979C65.9308 67.172 66.0708 67.0056 66.1652 66.8133L67.7163 63.6633C67.8298 63.4475 68.0001 63.2669 68.2088 63.1409C68.4175 63.0149 68.6566 62.9482 68.9003 62.9482C69.1441 62.9482 69.3833 63.0149 69.5919 63.1409C69.8006 63.2669 69.9709 63.4475 70.0844 63.6633L70.1081 63.6514Z" fill="#FFDE43"/>
<path d="M45.965 63.6513L47.5161 66.8013C47.6116 66.9952 47.7534 67.1625 47.9289 67.2885C48.1045 67.4145 48.3083 67.4953 48.5225 67.5236L51.9919 68.0329C52.239 68.067 52.4716 68.1701 52.6628 68.3304C52.8539 68.4907 52.996 68.7018 53.0727 68.9392C53.1493 69.1767 53.1575 69.431 53.0961 69.6728C53.0348 69.9147 52.9065 70.1344 52.726 70.3066L50.2158 72.7579C50.0632 72.911 49.9492 73.0983 49.8833 73.3042C49.8174 73.5101 49.8015 73.7288 49.8369 73.9421L50.4289 77.3881C50.4709 77.6342 50.4431 77.8871 50.3489 78.1182C50.2547 78.3494 50.0977 78.5496 49.8957 78.6962C49.6937 78.8428 49.4548 78.9299 49.2058 78.9478C48.9569 78.9657 48.7079 78.9136 48.4871 78.7974L45.3848 77.1631C45.201 77.0714 44.9983 77.0236 44.7928 77.0236C44.5873 77.0236 44.3846 77.0714 44.2008 77.1631L41.0512 78.8092C40.8303 78.9254 40.5813 78.9775 40.3324 78.9596C40.0834 78.9417 39.8445 78.8546 39.6425 78.708C39.4405 78.5614 39.2835 78.3612 39.1893 78.1301C39.0951 77.8989 39.0674 77.6461 39.1094 77.4L39.7014 73.954C39.7368 73.7407 39.7208 73.522 39.6549 73.316C39.589 73.1101 39.4751 72.9229 39.3225 72.7698L36.8123 70.3184C36.6317 70.1462 36.5034 69.9265 36.4421 69.6846C36.3807 69.4428 36.3889 69.1885 36.4655 68.9511C36.5422 68.7136 36.6843 68.5026 36.8755 68.3423C37.0667 68.182 37.2992 68.0788 37.5464 68.0447L41.0157 67.5355C41.2299 67.5071 41.4337 67.4264 41.6093 67.3004C41.7848 67.1744 41.9266 67.007 42.0221 66.8132L43.5259 63.6513C43.6394 63.4356 43.8097 63.2549 44.0184 63.1289C44.227 63.0029 44.4661 62.9363 44.7099 62.9363C44.9537 62.9363 45.1928 63.0029 45.4015 63.1289C45.6101 63.2549 45.7805 63.4356 45.894 63.6513H45.965Z" fill="#FFDE43"/>
<path d="M45.5273 0C53.5315 0 60.0319 6.14604 60.0319 13.7487V44.3013H31.0107V13.7487C31.0107 6.14604 37.5112 0 45.5273 0Z" fill="#ED7C59"/>
<path d="M38.79 42.3828L42.1172 26.988L42.8632 9.22489L45.5273 0.0354004C53.5315 0.0354004 60.032 6.18151 60.032 13.7841V44.3368" fill="#BC3F31"/>
<path d="M45.5264 32.0803C32.6202 32.0803 27.7656 48.6593 27.7656 59.5896H63.2281C63.2518 48.612 58.4208 32.0803 45.5264 32.0803Z" fill="#5322FF"/>
<path d="M52.8203 59.5896H63.2518C63.2442 54.2624 62.2361 48.984 60.2799 44.0291L52.8203 59.5896Z" fill="#3725BE"/>
<path d="M45.1357 41.9212L52.5361 47.2265L54.9634 35.8936" fill="#3725BE"/>
<path d="M49.931 32.7908L50.3573 33.6079L45.5264 41.2461L51.9676 45.8289L54.9751 35.8815C53.5292 34.5088 51.8106 33.4557 49.931 32.7908Z" fill="#FFFEFA"/>
<path d="M36.0781 35.8816L37.4634 48.0198L45.9768 41.9804L40.684 33.6909L41.1104 32.8738C39.2409 33.5131 37.5266 34.5378 36.0781 35.8816Z" fill="#3725BE"/>
<path d="M36.0781 35.8815L39.0737 45.8289L45.5269 41.2461L40.684 33.6079L41.1104 32.7908C39.2338 33.4546 37.5188 34.5079 36.0781 35.8815Z" fill="#FFFEFA"/>
<path d="M48.7474 25.9697H42.3417L40.7314 33.6079L45.5742 41.2461L50.4052 33.6079L48.7474 25.9697Z" fill="#FFD9B6"/>
<path d="M48.7479 25.9697H42.3422L41.3594 30.7059L41.6318 30.848C42.8322 31.5288 44.1886 31.8867 45.5687 31.8867C46.9487 31.8867 48.3052 31.5288 49.5057 30.848L49.7781 30.7059L48.7479 25.9697Z" fill="#E59F5C"/>
<path d="M51.9685 15.2762C50.0132 15.3024 48.096 14.7346 46.4702 13.6478C44.8445 12.561 43.5867 11.0064 42.8632 9.18945C41.4153 9.30084 40.0607 9.94684 39.0627 11.0018C38.0648 12.0568 37.4949 13.4454 37.4639 14.8974V22.275C37.4701 22.9457 37.6542 23.6028 37.9974 24.1791C38.3407 24.7555 38.8308 25.2304 39.4176 25.5552L43.4433 27.8525C44.0781 28.2083 44.7937 28.3952 45.5213 28.3952C46.249 28.3952 46.9646 28.2083 47.5994 27.8525L51.6252 25.5552C52.2136 25.2323 52.705 24.7578 53.0485 24.1811C53.392 23.6044 53.5751 22.9463 53.5788 22.275V15.2762H51.9685Z" fill="#FFD9B6"/>
<path d="M43.4425 27.8883C44.0773 28.2441 44.7928 28.4309 45.5205 28.4309C46.2482 28.4309 46.9637 28.2441 47.5985 27.8883L51.6243 25.5909C52.2128 25.2679 52.7042 24.7935 53.0477 24.2167C53.3912 23.64 53.5742 22.9819 53.578 22.3106V15.312H51.9677C50.0124 15.3381 48.0952 14.7703 46.4694 13.6835C44.8436 12.5966 43.5859 11.042 42.8623 9.2251" fill="#FDBD7F"/>
</svg>
