<svg width="500" height="509" viewBox="0 0 500 509" fill="none" xmlns="http://www.w3.org/2000/svg">
<path d="M29.3809 31.9306C30.1182 20.7538 30.4869 15.1655 32.9436 11.04C35.1046 7.41114 38.359 4.55956 42.2403 2.89397C46.6528 1.00045 52.2411 1.3691 63.4179 2.10642L468.069 28.8007C479.246 29.538 484.834 29.9067 488.96 32.3634C492.589 34.5245 495.44 37.7789 497.106 41.6601C498.999 46.0726 498.631 51.661 497.893 62.8377L470.619 476.287C469.881 487.464 469.513 493.052 467.056 497.178C464.895 500.807 461.64 503.658 457.759 505.324C453.347 507.217 447.758 506.849 436.582 506.112L31.9303 479.417C20.7536 478.68 15.1652 478.311 11.0398 475.854C7.41089 473.693 4.55932 470.439 2.89373 466.558C1.0002 462.145 1.36886 456.557 2.10617 445.38L29.3809 31.9306Z" fill="#F8BE35"/>
<rect x="16" y="24" width="469" height="465" rx="20" fill="#FFFBE9"/>
</svg>
