<svg width="261" height="77" viewBox="0 0 261 77" fill="none" xmlns="http://www.w3.org/2000/svg">
<g clip-path="url(#clip0_3905_148855)">
<path d="M251.05 0H10.4248C5.10906 0 0.799805 4.30926 0.799805 9.625V67.375C0.799805 72.6907 5.10906 77 10.4248 77H251.05C256.366 77 260.675 72.6907 260.675 67.375V9.625C260.675 4.30926 256.366 0 251.05 0Z" fill="black"/>
<path d="M251.05 1.54C253.194 1.54 255.251 2.39181 256.767 3.90804C258.283 5.42427 259.135 7.48072 259.135 9.625V67.375C259.135 69.5193 258.283 71.5757 256.767 73.092C255.251 74.6082 253.194 75.46 251.05 75.46H10.4248C8.28053 75.46 6.22408 74.6082 4.70785 73.092C3.19161 71.5757 2.33981 69.5193 2.33981 67.375V9.625C2.33981 7.48072 3.19161 5.42427 4.70785 3.90804C6.22408 2.39181 8.28053 1.54 10.4248 1.54H251.05ZM251.05 0H10.4248C7.8721 0 5.42394 1.01406 3.6189 2.8191C1.81386 4.62414 0.799805 7.07229 0.799805 9.625V67.375C0.799805 69.9277 1.81386 72.3759 3.6189 74.1809C5.42394 75.9859 7.8721 77 10.4248 77H251.05C253.603 77 256.051 75.9859 257.856 74.1809C259.661 72.3759 260.675 69.9277 260.675 67.375V9.625C260.675 7.07229 259.661 4.62414 257.856 2.8191C256.051 1.01406 253.603 0 251.05 0Z" fill="#A6A6A6"/>
<path d="M92.0831 19.7123C92.1147 20.4182 92.0031 21.1233 91.755 21.7849C91.5069 22.4466 91.1274 23.0512 90.6394 23.5623C90.0925 24.1269 89.4326 24.5696 88.7028 24.8615C87.973 25.1535 87.1898 25.288 86.4044 25.2563C85.6145 25.2739 84.8293 25.1292 84.0976 24.8312C83.3658 24.5332 82.703 24.0882 82.1501 23.5238C81.0284 22.3764 80.4004 20.8356 80.4004 19.231C80.4004 17.6265 81.0284 16.0856 82.1501 14.9383C83.0077 14.1003 84.0938 13.5344 85.272 13.3118C86.4502 13.0892 87.6679 13.2197 88.7721 13.687C89.4663 13.9724 90.0854 14.4137 90.5816 14.9768L89.5614 15.997C89.1791 15.5365 88.6947 15.1715 88.1467 14.9309C87.5987 14.6903 87.0021 14.5808 86.4044 14.611C85.6498 14.6162 84.908 14.8062 84.2438 15.1643C83.5796 15.5224 83.0133 16.0377 82.5942 16.6653C82.1752 17.2928 81.9162 18.0134 81.84 18.7641C81.7637 19.5148 81.8725 20.2728 82.1568 20.9717C82.4412 21.6707 82.8924 22.2894 83.471 22.7737C84.0496 23.258 84.7381 23.5932 85.4762 23.75C86.2143 23.9069 86.9795 23.8805 87.7051 23.6733C88.4307 23.4661 89.0944 23.0843 89.6384 22.5613C90.2264 21.9166 90.5673 21.0847 90.6009 20.2128H86.4044V18.8268H92.0061C92.05 19.1201 92.0757 19.4158 92.0831 19.7123Z" fill="white" stroke="white" stroke-width="0.385" stroke-miterlimit="10"/>
<path d="M100.9 14.8996H95.7022V18.5571H100.438V19.9431H95.7022V23.6006H100.9V25.0251H94.2007V13.4751H100.9V14.8996Z" fill="white" stroke="white" stroke-width="0.385" stroke-miterlimit="10"/>
<path d="M107.214 25.0251H105.732V14.8996H102.498V13.4751H110.525V14.8996H107.214V25.0251Z" fill="white" stroke="white" stroke-width="0.385" stroke-miterlimit="10"/>
<path d="M116.184 25.0251V13.4751H117.666V25.0251H116.184Z" fill="white" stroke="white" stroke-width="0.385" stroke-miterlimit="10"/>
<path d="M124.25 25.0251H122.768V14.8996H119.534V13.4751H127.465V14.8996H124.25V25.0251Z" fill="white" stroke="white" stroke-width="0.385" stroke-miterlimit="10"/>
<path d="M142.499 23.5238C141.943 24.0803 141.283 24.5217 140.556 24.8229C139.83 25.124 139.051 25.279 138.264 25.279C137.478 25.279 136.699 25.124 135.972 24.8229C135.245 24.5217 134.585 24.0803 134.029 23.5238C132.941 22.367 132.335 20.8386 132.335 19.2503C132.335 17.6621 132.941 16.1337 134.029 14.9768C134.573 14.4047 135.231 13.9532 135.961 13.6514C136.69 13.3497 137.475 13.2044 138.264 13.2251C139.052 13.2126 139.834 13.3616 140.563 13.6629C141.291 13.9641 141.95 14.4113 142.499 14.9768C143.053 15.5399 143.488 16.2081 143.779 16.9421C144.07 17.6761 144.211 18.461 144.193 19.2503C144.218 20.0407 144.081 20.8278 143.79 21.5629C143.498 22.298 143.059 22.9654 142.499 23.5238ZM135.126 22.5613C135.536 22.9769 136.025 23.3069 136.564 23.5321C137.102 23.7573 137.68 23.8733 138.264 23.8733C138.848 23.8733 139.426 23.7573 139.965 23.5321C140.503 23.3069 140.992 22.9769 141.402 22.5613C142.232 21.6587 142.694 20.4769 142.694 19.2503C142.694 18.0237 142.232 16.8419 141.402 15.9393C140.992 15.5238 140.503 15.1938 139.965 14.9686C139.426 14.7434 138.848 14.6274 138.264 14.6274C137.68 14.6274 137.102 14.7434 136.564 14.9686C136.025 15.1938 135.536 15.5238 135.126 15.9393C134.296 16.8419 133.835 18.0237 133.835 19.2503C133.835 20.4769 134.296 21.6587 135.126 22.5613Z" fill="white" stroke="white" stroke-width="0.385" stroke-miterlimit="10"/>
<path d="M146.292 25.0251V13.4751H148.082L153.703 22.4648V20.2318V13.4751H155.185V25.0251H153.645L147.774 15.6118V17.8256V25.0251H146.292Z" fill="white" stroke="white" stroke-width="0.385" stroke-miterlimit="10"/>
<path d="M131.97 41.8686C130.348 41.8725 128.763 42.3571 127.417 43.2614C126.07 44.1656 125.022 45.4488 124.405 46.9487C123.788 48.4486 123.63 50.0979 123.95 51.6878C124.27 53.2778 125.054 54.7372 126.204 55.8814C127.353 57.0255 128.816 57.8031 130.408 58.1158C131.999 58.4285 133.648 58.2622 135.145 57.638C136.642 57.0138 137.92 55.9598 138.818 54.6091C139.716 53.2584 140.193 51.6718 140.189 50.0499C140.205 48.9679 140.003 47.8939 139.595 46.8916C139.187 45.8894 138.581 44.9796 137.814 44.2162C137.047 43.4528 136.135 42.8516 135.131 42.4483C134.126 42.045 133.051 41.8479 131.97 41.8686ZM131.97 55.0164C130.975 55.0859 129.983 54.8548 129.122 54.353C128.261 53.8513 127.571 53.1021 127.142 52.2029C126.712 51.3037 126.563 50.2961 126.714 49.311C126.864 48.3259 127.308 47.4089 127.987 46.6793C128.665 45.9496 129.548 45.4411 130.52 45.2196C131.491 44.9982 132.507 45.0742 133.435 45.4378C134.363 45.8013 135.16 46.4356 135.722 47.2581C136.285 48.0806 136.587 49.0534 136.59 50.0499C136.621 50.6813 136.525 51.3126 136.308 51.9064C136.091 52.5002 135.758 53.0447 135.327 53.5075C134.896 53.9704 134.378 54.3424 133.801 54.6015C133.224 54.8607 132.602 55.0017 131.97 55.0164ZM114.029 41.8686C112.407 41.8725 110.822 42.3571 109.476 43.2614C108.129 44.1656 107.081 45.4488 106.464 46.9487C105.847 48.4486 105.689 50.0979 106.009 51.6878C106.329 53.2778 107.113 54.7372 108.263 55.8814C109.412 57.0255 110.875 57.8031 112.467 58.1158C114.058 58.4285 115.707 58.2622 117.204 57.638C118.701 57.0138 119.979 55.9598 120.877 54.6091C121.775 53.2584 122.252 51.6718 122.248 50.0499C122.264 48.9679 122.062 47.8939 121.654 46.8916C121.246 45.8894 120.64 44.9796 119.873 44.2162C119.106 43.4528 118.194 42.8516 117.19 42.4483C116.185 42.045 115.11 41.8479 114.029 41.8686ZM114.029 55.0164C113.034 55.0859 112.042 54.8548 111.181 54.353C110.32 53.8513 109.63 53.1021 109.201 52.2029C108.771 51.3037 108.622 50.2961 108.773 49.311C108.923 48.3259 109.367 47.4089 110.046 46.6793C110.724 45.9496 111.607 45.4411 112.579 45.2196C113.55 44.9982 114.566 45.0742 115.494 45.4378C116.422 45.8013 117.219 46.4356 117.781 47.2581C118.344 48.0806 118.646 49.0534 118.649 50.0499C118.68 50.6813 118.584 51.3126 118.367 51.9064C118.15 52.5002 117.817 53.0447 117.386 53.5075C116.955 53.9704 116.437 54.3424 115.86 54.6015C115.283 54.8607 114.661 55.0017 114.029 55.0164ZM92.6995 44.3904V47.8554H101.016C100.885 49.4874 100.207 51.0274 99.0905 52.2252C98.2564 53.0751 97.253 53.7404 96.1455 54.1781C95.038 54.6158 93.8509 54.8161 92.661 54.7662C90.2104 54.7662 87.8602 53.7927 86.1274 52.0598C84.3945 50.327 83.421 47.9768 83.421 45.5262C83.421 43.0756 84.3945 40.7253 86.1274 38.9925C87.8602 37.2596 90.2104 36.2862 92.661 36.2862C95.0104 36.2512 97.2789 37.1434 98.975 38.7694L101.42 36.3247C100.272 35.1899 98.9102 34.2955 97.4128 33.6939C95.9154 33.0923 94.3131 32.7956 92.6995 32.8211C90.9882 32.7545 89.281 33.0341 87.6803 33.6431C86.0796 34.252 84.6183 35.1779 83.384 36.3651C82.1497 37.5523 81.1677 38.9765 80.497 40.5523C79.8262 42.1281 79.4805 43.8231 79.4805 45.5358C79.4805 47.2484 79.8262 48.9434 80.497 50.5192C81.1677 52.095 82.1497 53.5192 83.384 54.7065C84.6183 55.8937 86.0796 56.8195 87.6803 57.4285C89.281 58.0374 90.9882 58.317 92.6995 58.2504C94.3462 58.3162 95.9882 58.0329 97.5176 57.4191C99.0471 56.8053 100.429 55.875 101.574 54.6891C103.595 52.4685 104.672 49.5478 104.577 46.5464C104.584 45.824 104.526 45.1024 104.404 44.3904H92.6995ZM179.921 47.0854C179.419 45.6084 178.48 44.3188 177.229 43.3872C175.978 42.4556 174.473 41.9261 172.914 41.8686C171.861 41.8666 170.819 42.0805 169.852 42.4972C168.885 42.9139 168.014 43.5245 167.292 44.2913C166.57 45.0581 166.014 45.9648 165.656 46.9552C165.299 47.9457 165.148 48.999 165.214 50.0499C165.198 51.8071 165.75 53.5226 166.789 54.9399C167.828 56.3573 169.298 57.4005 170.978 57.9138C172.659 58.4271 174.461 58.3829 176.114 57.7878C177.768 57.1928 179.184 56.0787 180.152 54.6121L177.361 52.6871C176.945 53.3807 176.355 53.9534 175.649 54.3485C174.943 54.7435 174.147 54.9473 173.338 54.9394C172.503 54.9739 171.678 54.7551 170.97 54.3119C170.263 53.8687 169.706 53.2218 169.372 52.4562L180.326 47.9324L179.921 47.0854ZM168.756 49.8189C168.717 49.221 168.798 48.6212 168.994 48.0549C169.189 47.4885 169.496 46.9668 169.896 46.5205C170.295 46.0741 170.78 45.712 171.322 45.4553C171.863 45.1986 172.45 45.0525 173.049 45.0256C173.669 44.9878 174.287 45.1338 174.825 45.4454C175.362 45.757 175.796 46.2204 176.071 46.7774L168.756 49.8189ZM159.863 57.7499H163.463V33.6874H159.863V57.7499ZM153.972 43.6974H153.838C153.3 43.085 152.636 42.5959 151.892 42.2637C151.148 41.9314 150.341 41.7639 149.526 41.7724C147.422 41.8744 145.438 42.7819 143.985 44.3068C142.533 45.8317 141.722 47.8571 141.722 49.9633C141.722 52.0694 142.533 54.0948 143.985 55.6197C145.438 57.1446 147.422 58.0521 149.526 58.1541C150.342 58.1705 151.151 58.0065 151.897 57.6737C152.642 57.3409 153.305 56.8477 153.838 56.2291H153.972V57.4034C153.972 60.5411 152.298 62.2159 149.603 62.2159C148.702 62.1961 147.828 61.9092 147.091 61.3917C146.354 60.8742 145.788 60.1493 145.464 59.3092L142.345 60.5989C142.922 62.047 143.924 63.286 145.22 64.1522C146.516 65.0183 148.044 65.4708 149.603 65.4499C153.818 65.4499 157.303 62.9666 157.303 56.9221V42.3499H153.972V43.6974ZM149.834 55.0164C148.572 54.9378 147.388 54.3813 146.523 53.4604C145.658 52.5394 145.176 51.3232 145.176 50.0595C145.176 48.7958 145.658 47.5797 146.523 46.6587C147.388 45.7377 148.572 45.1813 149.834 45.1027C150.45 45.1293 151.055 45.2796 151.612 45.5447C152.169 45.8098 152.667 46.1843 153.077 46.6459C153.486 47.1074 153.799 47.6467 153.996 48.2315C154.192 48.8163 154.27 49.4347 154.223 50.0499C154.275 50.6672 154.202 51.2888 154.007 51.877C153.813 52.4652 153.501 53.0079 153.091 53.4721C152.68 53.9364 152.18 54.3126 151.62 54.578C151.06 54.8435 150.453 54.9926 149.834 55.0164ZM196.784 33.6874H188.16V57.7499H191.76V48.6254H196.784C197.81 48.6991 198.84 48.5607 199.81 48.2187C200.78 47.8767 201.67 47.3386 202.423 46.6378C203.176 45.9371 203.776 45.0887 204.187 44.1456C204.597 43.2025 204.809 42.185 204.809 41.1564C204.809 40.1278 204.597 39.1103 204.187 38.1672C203.776 37.2241 203.176 36.3757 202.423 35.675C201.67 34.9742 200.78 34.4361 199.81 34.0941C198.84 33.7521 197.81 33.6137 196.784 33.6874ZM196.784 45.2374H191.76V37.0369H196.861C197.402 37.0369 197.938 37.1435 198.438 37.3505C198.938 37.5575 199.392 37.8609 199.774 38.2435C200.157 38.626 200.46 39.0801 200.667 39.5799C200.874 40.0797 200.981 40.6154 200.981 41.1564C200.981 41.6974 200.874 42.2331 200.667 42.7329C200.46 43.2327 200.157 43.6868 199.774 44.0693C199.392 44.4519 198.938 44.7553 198.438 44.9623C197.938 45.1693 197.402 45.2759 196.861 45.2759L196.784 45.2374ZM218.999 41.7916C217.688 41.7108 216.382 42.016 215.243 42.6695C214.103 43.323 213.181 44.296 212.589 45.4684L215.765 46.7967C216.086 46.218 216.567 45.7447 217.152 45.4338C217.736 45.1229 218.397 44.9879 219.057 45.0449C219.514 44.9915 219.977 45.0297 220.419 45.1572C220.861 45.2847 221.273 45.4989 221.631 45.7874C221.99 46.0759 222.287 46.4329 222.506 46.8375C222.725 47.2421 222.861 47.6863 222.907 48.1441V48.3752C221.749 47.7667 220.461 47.4495 219.153 47.4512C215.726 47.4512 212.223 49.3762 212.223 52.8797C212.257 53.6243 212.44 54.3546 212.762 55.0271C213.083 55.6996 213.537 56.3006 214.095 56.7944C214.654 57.2882 215.306 57.6647 216.012 57.9016C216.719 58.1385 217.466 58.2309 218.21 58.1734C219.113 58.2234 220.013 58.0322 220.818 57.6195C221.623 57.2068 222.304 56.5875 222.791 55.8249H222.907V57.7499H226.372V48.4906C226.372 44.2749 223.176 41.8301 219.076 41.8301L218.999 41.7916ZM218.556 54.9779C217.382 54.9779 215.746 54.3811 215.746 52.9374C215.746 51.0124 217.786 50.3579 219.596 50.3579C220.739 50.3297 221.869 50.6089 222.868 51.1664C222.747 52.2118 222.251 53.178 221.473 53.8859C220.694 54.5938 219.685 54.9954 218.633 55.0164L218.556 54.9779ZM239 42.3499L234.88 52.7834H234.765L230.491 42.3499H226.641L233.051 56.9414L229.394 65.0457H233.148L243.004 42.3499H239ZM206.66 57.7499H210.24V33.6874H206.66V57.7499Z" fill="white"/>
<path d="M20.8969 14.5141C20.2626 15.2642 19.9389 16.2283 19.9922 17.2091V59.7901C19.9267 60.7726 20.2518 61.7412 20.8969 62.4851L21.0317 62.6391L44.8824 38.7884V38.2109L21.0317 14.3794L20.8969 14.5141Z" fill="url(#paint0_linear_3905_148855)"/>
<path d="M52.7743 46.7383L44.8818 38.788V38.2105L52.7743 30.2603L52.9476 30.3758L62.3993 35.7273C65.0943 37.248 65.0943 39.7505 62.3993 41.2905L52.9861 46.642L52.7743 46.7383Z" fill="url(#paint1_linear_3905_148855)"/>
<path d="M53.0055 46.6235L44.882 38.5L20.8965 62.4855C21.4404 62.9697 22.1367 63.2482 22.8645 63.2729C23.5923 63.2975 24.3058 63.0666 24.8812 62.6202L53.0055 46.6235Z" fill="url(#paint2_linear_3905_148855)"/>
<path d="M53.0055 30.3762L24.8812 14.3987C24.3096 13.9462 23.5966 13.7097 22.8678 13.7308C22.139 13.7519 21.441 14.0293 20.8965 14.5142L44.882 38.4997L53.0055 30.3762Z" fill="url(#paint3_linear_3905_148855)"/>
<path opacity="0.2" d="M52.7745 46.4502L24.8812 62.3314C24.3267 62.7499 23.6509 62.9763 22.9562 62.9763C22.2615 62.9763 21.5857 62.7499 21.0312 62.3314L20.8965 62.4662L21.0312 62.6202C21.5857 63.0387 22.2615 63.2651 22.9562 63.2651C23.6509 63.2651 24.3267 63.0387 24.8812 62.6202L53.0055 46.6234L52.7745 46.4502Z" fill="black"/>
<path opacity="0.12" d="M20.8966 62.2162C20.2783 61.4527 19.9753 60.4816 20.0496 59.502V59.7907C19.9841 60.7732 20.3093 61.7418 20.9544 62.4857L21.0891 62.351L20.8966 62.2162Z" fill="black"/>
<path opacity="0.12" d="M62.3999 41.0025L52.7749 46.4503L52.9482 46.6235L62.3999 41.272C62.9578 41.0361 63.4418 40.6541 63.8009 40.1663C64.16 39.6785 64.3809 39.1028 64.4404 38.5C64.3201 39.0478 64.0727 39.5597 63.7183 39.9943C63.3638 40.429 62.9123 40.7743 62.3999 41.0025Z" fill="black"/>
<path opacity="0.25" d="M24.8817 14.6683L62.3999 35.9973C62.9123 36.2255 63.3639 36.5708 63.7183 37.0055C64.0727 37.4401 64.3201 37.952 64.4404 38.4998C64.381 37.897 64.16 37.3213 63.8009 36.8335C63.4418 36.3457 62.9579 35.9637 62.3999 35.7278L24.8817 14.3988C22.2059 12.8588 19.9922 14.1293 19.9922 17.2093V17.498C20.0499 14.418 22.2059 13.1475 24.8817 14.6683Z" fill="white"/>
</g>
<defs>
<linearGradient id="paint0_linear_3905_148855" x1="42.7649" y1="16.7664" x2="10.4634" y2="49.0679" gradientUnits="userSpaceOnUse">
<stop stop-color="#00A0FF"/>
<stop offset="0.01" stop-color="#00A1FF"/>
<stop offset="0.26" stop-color="#00BEFF"/>
<stop offset="0.51" stop-color="#00D2FF"/>
<stop offset="0.76" stop-color="#00DFFF"/>
<stop offset="1" stop-color="#00E3FF"/>
</linearGradient>
<linearGradient id="paint1_linear_3905_148855" x1="65.9221" y1="38.4993" x2="19.3563" y2="38.4993" gradientUnits="userSpaceOnUse">
<stop stop-color="#FFE000"/>
<stop offset="0.41" stop-color="#FFBD00"/>
<stop offset="0.78" stop-color="#FFA500"/>
<stop offset="1" stop-color="#FF9C00"/>
</linearGradient>
<linearGradient id="paint2_linear_3905_148855" x1="48.5972" y1="42.9275" x2="4.78423" y2="86.7212" gradientUnits="userSpaceOnUse">
<stop stop-color="#FF3A44"/>
<stop offset="1" stop-color="#C31162"/>
</linearGradient>
<linearGradient id="paint3_linear_3905_148855" x1="14.852" y1="0.34621" x2="34.41" y2="19.9042" gradientUnits="userSpaceOnUse">
<stop stop-color="#32A071"/>
<stop offset="0.07" stop-color="#2DA771"/>
<stop offset="0.48" stop-color="#15CF74"/>
<stop offset="0.8" stop-color="#06E775"/>
<stop offset="1" stop-color="#00F076"/>
</linearGradient>
<clipPath id="clip0_3905_148855">
<rect width="259.875" height="77" fill="white" transform="translate(0.799805)"/>
</clipPath>
</defs>
</svg>
