<svg width="1792" height="924" viewBox="0 0 1792 924" fill="none" xmlns="http://www.w3.org/2000/svg">
<mask id="mask0_6115_151109" style="mask-type:alpha" maskUnits="userSpaceOnUse" x="0" y="587" width="1792" height="310">
<rect x="1792" y="897" width="1792" height="309" transform="rotate(-180 1792 897)" fill="#FFDE43"/>
</mask>
<g mask="url(#mask0_6115_151109)">
<path d="M1794.84 947.458L1794.84 630.2C1702.4 613.034 1652.7 648.866 1619.8 680.271C1564.56 732.998 1460.2 739.639 1355.2 739.639C1210.88 739.639 1136.12 908.833 1113.7 947.458L1794.84 947.458Z" fill="#190F3F"/>
<path d="M1841.74 992.996L1841.74 725.809C1768.9 664.312 1699.6 694.404 1666.7 725.809C1611.46 778.536 1507.1 785.177 1402.1 785.177C1257.78 785.177 1183.02 954.371 1160.6 992.996L1841.74 992.996Z" fill="#231752"/>
<path opacity="0.5" d="M-34.9993 901.291L-107.799 637.355C7.80072 549.842 166.073 631.835 200.901 696.722C234.558 759.428 346.501 786.132 462.701 766.104C635.362 736.345 675.601 867.582 702.801 901.292L-34.9993 901.291Z" fill="#1F134E"/>
<path d="M-65.8003 949.517L-65.8003 689.284C29.478 601.892 133.964 698.04 188.299 742.497C262.319 803.061 307.91 826.903 400.399 826.903C544.718 826.903 636.981 903.39 659.399 937.053L-65.8003 949.517Z" fill="#231752"/>
</g>
<path d="M0 4H1792V924H0V4Z" fill="url(#paint0_linear_6115_151109)"/>
<mask id="mask1_6115_151109" style="mask-type:alpha" maskUnits="userSpaceOnUse" x="0" y="627" width="1792" height="297">
<path d="M0 627H1792V923.771H0V627Z" fill="#FFC265"/>
</mask>
<g mask="url(#mask1_6115_151109)">
<mask id="mask2_6115_151109" style="mask-type:alpha" maskUnits="userSpaceOnUse" x="-4" y="-209" width="1859" height="1162">
<path d="M1854.04 -208.337H-3.10205V952.378H1854.04V-208.337Z" fill="#EE5827"/>
</mask>
<g mask="url(#mask2_6115_151109)">
<path opacity="0.4" d="M315.37 915.382C315.37 915.382 340.47 915.237 371.955 906.097C399.667 898.117 406.341 892.748 419.979 885.204" stroke="#FF9B00" stroke-width="4.35268" stroke-miterlimit="10"/>
<mask id="mask3_6115_151109" style="mask-type:alpha" maskUnits="userSpaceOnUse" x="-4119" y="804" width="10089" height="10089">
<path d="M925.47 804.097C-1860.25 804.097 -4118.56 3062.27 -4118.56 5847.99C-4118.56 8633.7 -1860.25 10892 925.47 10892C3711.19 10892 5969.5 8633.7 5969.5 5847.99C5969.5 3062.27 3711.19 804.097 925.47 804.097ZM925.47 10739.4C-1775.95 10739.4 -3965.78 8549.41 -3965.78 5848.13C-3965.78 3146.86 -1775.95 956.731 925.47 956.731C3626.89 956.731 5816.73 3146.71 5816.73 5847.99C5816.73 8549.26 3626.89 10739.4 925.47 10739.4Z" fill="white"/>
</mask>
<g mask="url(#mask3_6115_151109)">
<path d="M-3784.57 2174.47C-3746.41 2148.93 -3671.4 1790.85 -3140.23 1507.06C-2642.13 1240.96 -2706.84 1227.61 -2362.98 1055.68C-2019.12 883.752 -1457.62 821.509 -910.057 687.882C-362.49 554.109 507.321 486.643 1475.21 582.257C2443.1 677.726 2697.88 658.719 3232.68 830.65C3767.63 1002.58 3958.56 1289.28 4175.18 1391.13C4391.66 1492.98 4888.88 1773.73 4901.64 2168.66L-3784.57 2174.47Z" fill="#FFB542"/>
<path opacity="0.4" d="M-3784.57 2170.7C-3746.41 2145.16 -3671.4 1787.08 -3140.23 1503.28C-2642.13 1237.34 -2706.84 1223.99 -2362.98 1052.06C-2019.12 880.125 -1457.62 817.882 -910.057 684.254C-362.49 550.482 507.321 483.015 1475.21 578.629C2443.1 674.098 2697.88 655.091 3232.68 827.022C3767.63 998.953 3958.56 1285.65 4175.18 1387.5C4391.66 1489.36 4888.88 1770.1 4901.64 2165.04L-3784.57 2170.7Z" fill="#FFF6E9"/>
<path d="M-1376.66 1207.45C-1434.99 1168.42 -2127.79 1603.25 -2208.17 1591.79C-2306.25 1577.71 -2044.95 1391.27 -1744.18 1260.84C-1443.41 1130.55 -1055.73 976.754 -895.403 950.058C-734.934 923.361 -561.262 859.812 -253.818 786.252C53.627 712.691 494.699 742.87 755.425 712.691C1016.15 682.658 1176.47 652.479 1450.55 712.691C1724.62 772.903 2005.23 742.725 2265.95 742.725C2526.68 742.725 2907.54 896.52 3081.35 1036.82C3255.17 1177.27 3397.07 1165.37 3681.88 1382.86C4047.36 1662.01 4104.67 1769.81 4104.67 1769.81L3570.45 1589.9C3197.86 1538.4 2996.62 1329.61 2837.6 1239.37C2678.44 1149.12 2206.75 993.294 1879.29 976.609C1763.07 970.66 1726.51 923.941 1596.65 920.169C1525.56 918.138 1446.63 904.354 1376.12 873.305C1320.55 848.785 1259.18 879.254 1186.92 854.008C1108.14 826.586 1091.31 827.022 1018.91 835.437C956.809 842.691 891.518 854.008 828.55 847.624C769.788 841.676 738.739 855.169 690.569 869.533C638.918 884.912 615.123 864.455 543.594 893.473C489.621 915.236 460.313 893.473 407.936 930.906C343.226 977.334 304.487 946.575 268.65 976.464C132.411 1089.63 -56.0606 1134.9 -253.092 1097.18C-387.88 1071.35 -480.012 1123 -567.936 1121.84C-637.869 1120.83 -686.909 1133.45 -724.488 1152.17C-768.885 1174.37 -825.035 1204.25 -878.863 1209.33C-983.472 1219.34 -1063.27 1276.94 -1150.18 1331.93C-1207.35 1368.06 -1272.06 1424.06 -1350.98 1434.08C-1472.57 1449.46 -1558.03 1497.77 -1625.64 1556.1C-1814.4 1719.03 -1901.89 1522.29 -1405.1 1266.93C-1373.76 1250.97 -1334.3 1235.74 -1376.66 1207.45Z" fill="#FFB542"/>
<path opacity="0.4" d="M699.275 801.775C646.607 786.105 590.603 838.773 538.226 840.804C440.725 844.577 439.71 871.998 416.496 886.072C446.239 866.92 476.708 860.536 513.706 866.34C549.543 871.998 582.478 845.882 619.185 848.349C693.471 853.282 753.538 826.295 810.413 818.315C899.353 805.693 967.4 807.434 969.576 807.289C1033.85 801.195 1105.96 800.469 1193.16 826.005C1240.17 839.789 1345.21 816.864 1386.85 840.659C1444.02 873.449 1508.87 892.311 1549.79 886.072C1613.48 876.206 1661.8 871.853 1720.12 908.851C1809.06 965.291 1907.14 933.081 2047.74 942.077C2267.11 956.15 2452.1 1011.14 2452.1 1011.14" stroke="#FF9B00" stroke-width="4.35268" stroke-miterlimit="10"/>
<path opacity="0.5" d="M2047.59 939.901C2001.6 936.999 1959.52 938.45 1922.23 939.756C1843.02 942.513 1780.34 930.18 1721 892.457C1662.38 855.314 1616.53 873.886 1550.51 882.446C1510.62 887.524 1446.05 872.29 1387.58 838.774C1363.64 824.99 1319.97 826.441 1277.75 827.747C1244.81 828.763 1213.76 829.778 1193.45 823.83C1102.62 797.133 1029.06 799.31 969.141 804.968C968.851 804.968 967.546 804.968 966.095 804.968C902.255 804.823 845.816 810.917 809.834 815.995C790.537 818.752 771.095 823.539 750.637 828.763C710.012 838.919 668.081 849.365 619.186 846.173C601.34 845.013 584.219 850.381 567.824 855.749C549.543 861.553 532.277 867.066 513.996 864.31C484.833 859.667 459.297 862.714 434.922 873.595C448.996 860.537 469.018 845.738 538.371 842.982C561.005 842.111 584.509 831.955 607.143 822.089C637.612 808.885 669.097 795.247 698.695 803.952L700.001 799.745C668.951 790.459 636.742 804.533 605.548 818.026C583.204 827.747 560.134 837.758 538.226 838.629C462.344 841.531 443.918 858.941 428.974 873.015C425.201 876.642 421.429 880.124 417.076 883.026C416.496 883.461 415.916 883.752 415.19 884.187L415.771 885.057C414.9 885.638 414.029 886.073 413.159 886.653C402.858 892.602 394.732 897.39 371.373 904.064C340.614 912.915 315.804 913.205 315.369 913.35C306.373 913.35 298.683 912.769 291.284 912.189C265.458 910.158 245 908.417 192.913 937.725C175.792 947.301 152.143 948.897 124.866 950.783C90.48 953.104 51.3057 955.861 14.453 975.738C-29.7993 999.533 -81.5961 1020.43 -161.395 1011.58C-261.217 1000.55 -298.505 1016.8 -341.742 1035.81C-355.38 1041.75 -361.474 1045.82 -375.112 1052.35C-376.853 1053.22 -385.413 1056.99 -390.347 1059.16C-420.96 1070.19 -469.565 1084.85 -508.594 1082.52C-521.217 1081.8 -533.985 1079.62 -547.478 1077.3C-598.114 1068.6 -655.57 1058.58 -737.11 1118.8C-813.572 1175.24 -846.653 1178.86 -956.195 1190.33C-997.546 1194.68 -1038.17 1221.52 -1081.41 1250.1C-1099.25 1262 -1117.82 1274.19 -1136.83 1285.07C-1247.82 1348.47 -1373.76 1394.61 -1511.16 1422.03H-1511.31C-1511.6 1422.18 -1547.14 1432.33 -1591.54 1461.5C-1607.79 1472.23 -1621.43 1487.47 -1635.94 1503.57C-1661.91 1532.45 -1688.61 1562.33 -1735.76 1573.94L-1734.75 1578.15C-1686.43 1566.25 -1657.85 1534.48 -1632.75 1506.48C-1618.53 1490.52 -1605.04 1475.57 -1589.22 1465.12C-1546.42 1436.98 -1512.03 1426.68 -1510.29 1426.24C-1372.46 1398.67 -1246.08 1352.39 -1134.66 1288.7C-1115.5 1277.81 -1096.93 1265.48 -1078.94 1253.58C-1036.28 1225.44 -995.95 1198.74 -955.76 1194.53C-845.347 1182.78 -811.976 1179.3 -734.643 1122.13C-654.554 1062.94 -598.114 1072.8 -548.349 1081.36C-534.71 1083.68 -521.797 1086.01 -509.029 1086.73C-453.46 1089.92 -379.465 1059.89 -362.344 1052.64C-330.279 1042.62 -284.721 1031.31 -239.018 1046.54C-196.217 1060.76 -107.422 1101.68 -24.5759 1079.91C-24.5759 1079.91 69.5873 1057.13 121.384 1011.58C125.157 1008.24 131.686 1003.74 140.246 997.212C146.775 992.133 155.045 989.377 164.766 986.185C178.985 981.397 196.831 975.593 217.288 959.633C245.871 937.435 284.464 920.894 315.514 917.557C317.545 917.557 342.21 916.977 372.534 908.127C396.328 901.307 404.744 896.374 415.335 890.281C417.221 889.265 419.108 888.104 421.139 886.944L420.559 885.928C448.996 868.517 478.594 862.859 513.271 868.372C532.567 871.419 551.139 865.47 569.13 859.667C585.235 854.589 601.775 849.22 618.896 850.381C668.516 853.573 710.737 843.127 751.653 832.825C772.11 827.747 791.407 822.959 810.414 820.202C845.961 815.124 901.24 809.176 964.063 809.176C964.789 809.176 965.369 809.176 966.095 809.176C968.561 809.176 969.287 809.176 969.577 809.176C1029.21 803.517 1102.19 801.341 1192.29 827.892C1213.18 833.986 1244.67 833.115 1277.89 831.955C1319.53 830.649 1362.62 829.198 1385.4 842.401C1444.6 876.352 1510.33 891.877 1551.1 886.653C1616.1 878.238 1661.51 859.667 1718.67 896.084C1779.18 934.533 1842.43 946.72 1922.38 943.964C1959.52 942.658 2001.6 941.207 2047.3 944.109C2263.92 958.037 2449.34 1012.59 2451.23 1013.03L2452.54 1008.82C2450.65 1008.53 2264.79 953.975 2047.59 939.901ZM214.676 956.151C194.799 971.676 177.389 977.479 163.46 981.977C153.449 985.314 144.744 988.216 137.634 993.729C129.654 999.823 124.431 1003.89 120.949 1006.64C120.949 1006.64 79.018 1047.85 -15.1451 1073.82C-107.712 1099.21 -202.601 1054.09 -237.422 1042.48C-272.969 1030.73 -313.449 1034.93 -345.949 1042.33C-343.918 1041.46 -341.887 1040.59 -339.855 1039.72C-297.199 1021.01 -260.346 1004.9 -161.685 1015.78C-80.7255 1024.78 -28.058 1003.6 16.7746 979.511C52.9019 960.069 91.4955 957.457 125.446 955.136C153.304 953.249 177.244 951.653 195.235 941.497C246.161 912.915 265.023 914.511 291.139 916.542C292.735 916.687 294.186 916.832 295.782 916.977C268.215 923.506 238.181 937.87 214.676 956.151Z" fill="#FFE6BE"/>
<path opacity="0.4" fill-rule="evenodd" clip-rule="evenodd" d="M-1614.47 1431.75C-1598.07 1431.75 -1366.07 1377.49 -1222.72 1311.91C-1155.84 1281.3 -1049.92 1180.17 -886.262 1148.39C-811.25 1133.89 -769.319 1105.74 -689.375 1069.32C-640.48 1047.12 -599.71 1052.2 -533.549 1047.85C-377.578 1037.84 -316.641 971.386 -193.75 979.801C-102.924 986.04 1.39547 966.308 91.0607 921.04C147.21 892.602 208.728 879.399 270.101 885.928C342.066 893.473 414.465 840.805 488.316 813.093C745.124 716.899 1179.81 653.35 1427.92 823.394C1474.34 855.169 1486.97 868.082 1541.08 852.702C1811.1 775.805 1784.11 936.709 1902.5 898.696C2158.44 816.575 2410.61 956.151 2704.41 1065.69C2998.22 1175.24 3150.27 1399.11 3312.05 1466C3473.82 1532.88 3550.57 1519.97 3550.57 1519.97L3044.07 1086.88L1405.28 575.582L194.8 426.865L-1281.05 1232.4L-1614.47 1431.75Z" fill="#FF9B00"/>
<path d="M-664.856 1048.28L-665.291 1043.93C-663.55 1043.79 -488.572 1025.65 -425.023 991.118C-357.411 954.265 -303.873 935.839 -215.078 943.819C-149.063 949.767 -74.4866 942.077 -26.607 932.792C35.056 920.894 77.7122 900.002 115.145 881.575C153.739 862.568 187.11 846.173 227.88 848.35L231.362 848.495C299.118 851.832 333.07 853.573 370.938 821.218L373.695 824.555C334.52 858.071 299.844 856.33 231.072 852.847L227.59 852.702C187.835 850.671 156.641 866.051 116.886 885.493C79.163 904.064 36.2165 925.102 -26.0268 936.999C-74.1965 946.285 -149.353 953.975 -215.804 948.026C-303.583 940.191 -356.396 958.327 -423.282 994.745C-487.121 1029.86 -663.115 1048.14 -664.856 1048.28Z" fill="#FFB542"/>
<path d="M697.824 1018.4C697.824 1018.4 1352.61 962.1 1610.87 1082.38C1987.23 1257.65 2436.58 1208.9 2679.89 1542.75C2679.89 1542.75 3698.56 1703.07 3450.32 1613.84C3014.03 1457 2909.71 1255.47 2457.61 1159.71C2024.81 1068.16 2154.67 1169.58 1876.1 1055.25C1779.47 1015.49 1737.68 956.732 1647.87 952.234C1520.19 945.85 1442.57 927.714 1370.31 900.147C1313.87 878.529 1251.78 901.743 1199.11 885.058C1104.07 855.024 1046.91 861.118 956.374 909.433C892.68 943.384 837.546 932.357 793.148 949.332C698.695 985.46 697.824 1018.4 697.824 1018.4Z" fill="#FFB542"/>
<path opacity="0.4" d="M1561.11 979.946C1546.31 979.946 1466.22 977.915 1374.52 936.564C1355.52 928.004 1330.99 927.714 1305.02 927.569C1288.63 927.423 1271.51 927.278 1255.11 924.957C1171.98 913.205 1157.03 919.734 1154.57 923.216C1154.13 923.796 1153.84 924.522 1154.42 926.118C1160.81 940.627 1227.98 968.049 1264.98 971.386L1264.54 975.738C1228.71 972.546 1157.9 944.834 1150.36 927.859C1148.91 924.522 1149.92 922.055 1150.94 920.604C1157.76 911.609 1192 911.754 1255.69 920.749C1271.94 923.071 1288.77 923.216 1305.02 923.361C1331.43 923.651 1356.39 923.796 1376.26 932.792C1476.52 978.06 1562.56 975.883 1563.43 975.738L1563.57 980.091C1563.43 979.946 1562.56 979.946 1561.11 979.946Z" fill="#FFF6E9"/>
<path fill-rule="evenodd" clip-rule="evenodd" d="M185.077 1033.92C187.979 1033.19 326.974 1034.21 428.972 951.799C460.892 926.118 507.901 941.788 566.662 915.962C612.22 896.085 622.522 919.589 678.526 904.21C744.977 886.073 751.651 872.58 820.278 877.368C880.926 881.721 958.839 876.352 996.707 861.408C971.752 868.082 900.658 907.982 837.399 910.303C801.272 911.609 738.738 931.341 701.305 959.489C660.39 990.393 582.186 981.832 521.539 1012.59C319.575 1115.31 -52.8698 1090.36 185.077 1033.92Z" fill="#FFB542"/>
<g opacity="0.4">
<path d="M1328.96 917.268C1332.49 917.268 1335.35 914.409 1335.35 910.884C1335.35 907.358 1332.49 904.5 1328.96 904.5C1325.44 904.5 1322.58 907.358 1322.58 910.884C1322.58 914.409 1325.44 917.268 1328.96 917.268Z" fill="#FFF6E9"/>
<path d="M1618.27 910.882C1621.79 910.882 1624.65 908.024 1624.65 904.498C1624.65 900.972 1621.79 898.114 1618.27 898.114C1614.74 898.114 1611.88 900.972 1611.88 904.498C1611.88 908.024 1614.74 910.882 1618.27 910.882Z" fill="#FFF6E9"/>
<path d="M1789.47 904.499C1791 904.499 1792.23 903.265 1792.23 901.742C1792.23 900.22 1791 898.985 1789.47 898.985C1787.95 898.985 1786.72 900.22 1786.72 901.742C1786.72 903.265 1787.95 904.499 1789.47 904.499Z" fill="#FFF6E9"/>
<path d="M1436.62 852.702C1438.14 852.702 1439.37 851.467 1439.37 849.945C1439.37 848.422 1438.14 847.188 1436.62 847.188C1435.09 847.188 1433.86 848.422 1433.86 849.945C1433.86 851.467 1435.09 852.702 1436.62 852.702Z" fill="#FFF6E9"/>
<path d="M1648.74 907.255C1650.26 907.255 1651.5 906.021 1651.5 904.498C1651.5 902.976 1650.26 901.741 1648.74 901.741C1647.22 901.741 1645.98 902.976 1645.98 904.498C1645.98 906.021 1647.22 907.255 1648.74 907.255Z" fill="#FFF6E9"/>
<path d="M1297.04 851.107C1298.57 851.107 1299.8 849.872 1299.8 848.35C1299.8 846.827 1298.57 845.593 1297.04 845.593C1295.52 845.593 1294.29 846.827 1294.29 848.35C1294.29 849.872 1295.52 851.107 1297.04 851.107Z" fill="#FFF6E9"/>
<path d="M958.837 831.519C960.36 831.519 961.594 830.285 961.594 828.762C961.594 827.24 960.36 826.005 958.837 826.005C957.315 826.005 956.081 827.24 956.081 828.762C956.081 830.285 957.315 831.519 958.837 831.519Z" fill="#FFF6E9"/>
<path d="M383.994 882.883C387.52 882.883 390.378 880.024 390.378 876.499C390.378 872.973 387.52 870.115 383.994 870.115C380.469 870.115 377.61 872.973 377.61 876.499C377.61 880.024 380.469 882.883 383.994 882.883Z" fill="#FFF6E9"/>
<path d="M1098.27 906.386C1101.8 906.386 1104.66 903.528 1104.66 900.002C1104.66 896.476 1101.8 893.618 1098.27 893.618C1094.75 893.618 1091.89 896.476 1091.89 900.002C1091.89 903.528 1094.75 906.386 1098.27 906.386Z" fill="#FFF6E9"/>
<path d="M904.866 837.178C908.391 837.178 911.249 834.32 911.249 830.794C911.249 827.269 908.391 824.41 904.866 824.41C901.34 824.41 898.481 827.269 898.481 830.794C898.481 834.32 901.34 837.178 904.866 837.178Z" fill="#FFF6E9"/>
<path d="M698.985 830.939C702.511 830.939 705.37 828.08 705.37 824.555C705.37 821.029 702.511 818.171 698.985 818.171C695.46 818.171 692.602 821.029 692.602 824.555C692.602 828.08 695.46 830.939 698.985 830.939Z" fill="#FFF6E9"/>
<path d="M1054.74 896.373C1056.27 896.373 1057.5 895.139 1057.5 893.617C1057.5 892.094 1056.27 890.86 1054.74 890.86C1053.22 890.86 1051.99 892.094 1051.99 893.617C1051.99 895.139 1053.22 896.373 1054.74 896.373Z" fill="#FFF6E9"/>
<path d="M660.538 833.551C662.06 833.551 663.295 832.316 663.295 830.794C663.295 829.271 662.06 828.037 660.538 828.037C659.015 828.037 657.781 829.271 657.781 830.794C657.781 832.316 659.015 833.551 660.538 833.551Z" fill="#FFF6E9"/>
<path d="M786.906 896.373C788.429 896.373 789.663 895.139 789.663 893.617C789.663 892.094 788.429 890.86 786.906 890.86C785.384 890.86 784.149 892.094 784.149 893.617C784.149 895.139 785.384 896.373 786.906 896.373Z" fill="#FFF6E9"/>
<path d="M700.579 924.376C702.102 924.376 703.336 923.142 703.336 921.62C703.336 920.097 702.102 918.863 700.579 918.863C699.057 918.863 697.822 920.097 697.822 921.62C697.822 923.142 699.057 924.376 700.579 924.376Z" fill="#FFF6E9"/>
<path d="M154.317 929.165C157.843 929.165 160.701 926.306 160.701 922.781C160.701 919.255 157.843 916.397 154.317 916.397C150.791 916.397 147.933 919.255 147.933 922.781C147.933 926.306 150.791 929.165 154.317 929.165Z" fill="#FFF6E9"/>
<path d="M322.042 841.531C323.565 841.531 324.799 840.297 324.799 838.774C324.799 837.252 323.565 836.018 322.042 836.018C320.52 836.018 319.286 837.252 319.286 838.774C319.286 840.297 320.52 841.531 322.042 841.531Z" fill="#FFF6E9"/>
<path d="M453.927 892.313C455.449 892.313 456.683 891.079 456.683 889.556C456.683 888.034 455.449 886.8 453.927 886.8C452.404 886.8 451.17 888.034 451.17 889.556C451.17 891.079 452.404 892.313 453.927 892.313Z" fill="#FFF6E9"/>
<path d="M544.607 829.924C546.13 829.924 547.364 828.69 547.364 827.167C547.364 825.645 546.13 824.41 544.607 824.41C543.085 824.41 541.851 825.645 541.851 827.167C541.851 828.69 543.085 829.924 544.607 829.924Z" fill="#FFF6E9"/>
</g>
<path d="M314.207 872.725C317.733 872.725 320.591 869.867 320.591 866.341C320.591 862.815 317.733 859.957 314.207 859.957C310.681 859.957 307.823 862.815 307.823 866.341C307.823 869.867 310.681 872.725 314.207 872.725Z" fill="#FFB542"/>
<path d="M24.6089 910.884C28.1346 910.884 30.993 908.025 30.993 904.5C30.993 900.974 28.1346 898.116 24.6089 898.116C21.0831 898.116 18.2251 900.974 18.2251 904.5C18.2251 908.025 21.0831 910.884 24.6089 910.884Z" fill="#FFB542"/>
<path d="M238.035 872.581C239.558 872.581 240.792 871.347 240.792 869.824C240.792 868.302 239.558 867.067 238.035 867.067C236.513 867.067 235.279 868.302 235.279 869.824C235.279 871.347 236.513 872.581 238.035 872.581Z" fill="#FFB542"/>
</g>
<path opacity="0.4" d="M315.37 915.382C315.37 915.382 340.47 915.237 371.955 906.097C399.667 898.117 406.341 892.748 419.979 885.204" stroke="#FF9B00" stroke-width="4.35268" stroke-miterlimit="10"/>
<mask id="mask4_6115_151109" style="mask-type:alpha" maskUnits="userSpaceOnUse" x="-4119" y="804" width="10089" height="10089">
<path d="M925.47 804.097C-1860.25 804.097 -4118.56 3062.27 -4118.56 5847.99C-4118.56 8633.7 -1860.25 10892 925.47 10892C3711.19 10892 5969.5 8633.7 5969.5 5847.99C5969.5 3062.27 3711.19 804.097 925.47 804.097ZM925.47 10739.4C-1775.95 10739.4 -3965.78 8549.41 -3965.78 5848.13C-3965.78 3146.86 -1775.95 956.731 925.47 956.731C3626.89 956.731 5816.73 3146.71 5816.73 5847.99C5816.73 8549.26 3626.89 10739.4 925.47 10739.4Z" fill="white"/>
</mask>
<g mask="url(#mask4_6115_151109)">
<path d="M-3784.57 2174.47C-3746.41 2148.93 -3671.4 1790.85 -3140.23 1507.06C-2642.13 1240.96 -2706.84 1227.61 -2362.98 1055.68C-2019.12 883.752 -1457.62 821.509 -910.057 687.882C-362.49 554.109 507.321 486.643 1475.21 582.257C2443.1 677.726 2697.88 658.719 3232.68 830.65C3767.63 1002.58 3958.56 1289.28 4175.18 1391.13C4391.66 1492.98 4888.88 1773.73 4901.64 2168.66L-3784.57 2174.47Z" fill="#FFB542"/>
<path opacity="0.4" d="M-3784.57 2170.7C-3746.41 2145.16 -3671.4 1787.08 -3140.23 1503.28C-2642.13 1237.34 -2706.84 1223.99 -2362.98 1052.06C-2019.12 880.125 -1457.62 817.882 -910.057 684.254C-362.49 550.482 507.321 483.015 1475.21 578.629C2443.1 674.098 2697.88 655.091 3232.68 827.022C3767.63 998.953 3958.56 1285.65 4175.18 1387.5C4391.66 1489.36 4888.88 1770.1 4901.64 2165.04L-3784.57 2170.7Z" fill="#EDCD21"/>
<path d="M-1376.66 1207.45C-1434.99 1168.42 -2127.79 1603.25 -2208.17 1591.79C-2306.25 1577.71 -2044.95 1391.27 -1744.18 1260.84C-1443.41 1130.55 -1055.73 976.754 -895.403 950.058C-734.934 923.361 -561.262 859.812 -253.818 786.252C53.627 712.691 494.699 742.87 755.425 712.691C1016.15 682.658 1176.47 652.479 1450.55 712.691C1724.62 772.903 2005.23 742.725 2265.95 742.725C2526.68 742.725 2907.54 896.52 3081.35 1036.82C3255.17 1177.27 3397.07 1165.37 3681.88 1382.86C4047.36 1662.01 4104.67 1769.81 4104.67 1769.81L3570.45 1589.9C3197.86 1538.4 2996.62 1329.61 2837.6 1239.37C2678.44 1149.12 2206.75 993.294 1879.29 976.609C1763.07 970.66 1726.51 923.941 1596.65 920.169C1525.56 918.138 1446.63 904.354 1376.12 873.305C1320.55 848.785 1259.18 879.254 1186.92 854.008C1108.14 826.586 1091.31 827.022 1018.91 835.437C956.809 842.691 891.518 854.008 828.55 847.624C769.788 841.676 738.739 855.169 690.569 869.533C638.918 884.912 615.123 864.455 543.594 893.473C489.621 915.236 460.313 893.473 407.936 930.906C343.226 977.334 304.487 946.575 268.65 976.464C132.411 1089.63 -56.0606 1134.9 -253.092 1097.18C-387.88 1071.35 -480.012 1123 -567.936 1121.84C-637.869 1120.83 -686.909 1133.45 -724.488 1152.17C-768.885 1174.37 -825.035 1204.25 -878.863 1209.33C-983.472 1219.34 -1063.27 1276.94 -1150.18 1331.93C-1207.35 1368.06 -1272.06 1424.06 -1350.98 1434.08C-1472.57 1449.46 -1558.03 1497.77 -1625.64 1556.1C-1814.4 1719.03 -1901.89 1522.29 -1405.1 1266.93C-1373.76 1250.97 -1334.3 1235.74 -1376.66 1207.45Z" fill="#F8D829"/>
<path opacity="0.4" d="M699.275 801.775C646.607 786.105 590.603 838.773 538.226 840.804C440.725 844.577 439.71 871.998 416.496 886.072C446.239 866.92 476.708 860.536 513.706 866.34C549.543 871.998 582.478 845.882 619.185 848.349C693.471 853.282 753.538 826.295 810.413 818.315C899.353 805.693 967.4 807.434 969.576 807.289C1033.85 801.195 1105.96 800.469 1193.16 826.005C1240.17 839.789 1345.21 816.864 1386.85 840.659C1444.02 873.449 1508.87 892.311 1549.79 886.072C1613.48 876.206 1661.8 871.853 1720.12 908.851C1809.06 965.291 1907.14 933.081 2047.74 942.077C2267.11 956.15 2452.1 1011.14 2452.1 1011.14" stroke="#EDCD21" stroke-width="4.35268" stroke-miterlimit="10"/>
<path opacity="0.5" d="M2047.59 939.901C2001.6 936.999 1959.52 938.45 1922.23 939.756C1843.02 942.513 1780.34 930.18 1721 892.457C1662.38 855.314 1616.53 873.886 1550.51 882.446C1510.62 887.524 1446.05 872.29 1387.58 838.774C1363.64 824.99 1319.97 826.441 1277.75 827.747C1244.81 828.763 1213.76 829.778 1193.45 823.83C1102.62 797.133 1029.06 799.31 969.141 804.968C968.851 804.968 967.546 804.968 966.095 804.968C902.255 804.823 845.816 810.917 809.834 815.995C790.537 818.752 771.095 823.539 750.637 828.763C710.012 838.919 668.081 849.365 619.186 846.173C601.34 845.013 584.219 850.381 567.824 855.749C549.543 861.553 532.277 867.066 513.996 864.31C484.833 859.667 459.297 862.714 434.922 873.595C448.996 860.537 469.018 845.738 538.371 842.982C561.005 842.111 584.509 831.955 607.143 822.089C637.612 808.885 669.097 795.247 698.695 803.952L700.001 799.745C668.951 790.459 636.742 804.533 605.548 818.026C583.204 827.747 560.134 837.758 538.226 838.629C462.344 841.531 443.918 858.941 428.974 873.015C425.201 876.642 421.429 880.124 417.076 883.026C416.496 883.461 415.916 883.752 415.19 884.187L415.771 885.057C414.9 885.638 414.029 886.073 413.159 886.653C402.858 892.602 394.732 897.39 371.373 904.064C340.614 912.915 315.804 913.205 315.369 913.35C306.373 913.35 298.683 912.769 291.284 912.189C265.458 910.158 245 908.417 192.913 937.725C175.792 947.301 152.143 948.897 124.866 950.783C90.48 953.104 51.3057 955.861 14.453 975.738C-29.7993 999.533 -81.5961 1020.43 -161.395 1011.58C-261.217 1000.55 -298.505 1016.8 -341.742 1035.81C-355.38 1041.75 -361.474 1045.82 -375.112 1052.35C-376.853 1053.22 -385.413 1056.99 -390.347 1059.16C-420.96 1070.19 -469.565 1084.85 -508.594 1082.52C-521.217 1081.8 -533.985 1079.62 -547.478 1077.3C-598.114 1068.6 -655.57 1058.58 -737.11 1118.8C-813.572 1175.24 -846.653 1178.86 -956.195 1190.33C-997.546 1194.68 -1038.17 1221.52 -1081.41 1250.1C-1099.25 1262 -1117.82 1274.19 -1136.83 1285.07C-1247.82 1348.47 -1373.76 1394.61 -1511.16 1422.03H-1511.31C-1511.6 1422.18 -1547.14 1432.33 -1591.54 1461.5C-1607.79 1472.23 -1621.43 1487.47 -1635.94 1503.57C-1661.91 1532.45 -1688.61 1562.33 -1735.76 1573.94L-1734.75 1578.15C-1686.43 1566.25 -1657.85 1534.48 -1632.75 1506.48C-1618.53 1490.52 -1605.04 1475.57 -1589.22 1465.12C-1546.42 1436.98 -1512.03 1426.68 -1510.29 1426.24C-1372.46 1398.67 -1246.08 1352.39 -1134.66 1288.7C-1115.5 1277.81 -1096.93 1265.48 -1078.94 1253.58C-1036.28 1225.44 -995.95 1198.74 -955.76 1194.53C-845.347 1182.78 -811.976 1179.3 -734.643 1122.13C-654.554 1062.94 -598.114 1072.8 -548.349 1081.36C-534.71 1083.68 -521.797 1086.01 -509.029 1086.73C-453.46 1089.92 -379.465 1059.89 -362.344 1052.64C-330.279 1042.62 -284.721 1031.31 -239.018 1046.54C-196.217 1060.76 -107.422 1101.68 -24.5759 1079.91C-24.5759 1079.91 69.5873 1057.13 121.384 1011.58C125.157 1008.24 131.686 1003.74 140.246 997.212C146.775 992.133 155.045 989.377 164.766 986.185C178.985 981.397 196.831 975.593 217.288 959.633C245.871 937.435 284.464 920.894 315.514 917.557C317.545 917.557 342.21 916.977 372.534 908.127C396.328 901.307 404.744 896.374 415.335 890.281C417.221 889.265 419.108 888.104 421.139 886.944L420.559 885.928C448.996 868.517 478.594 862.859 513.271 868.372C532.567 871.419 551.139 865.47 569.13 859.667C585.235 854.589 601.775 849.22 618.896 850.381C668.516 853.573 710.737 843.127 751.653 832.825C772.11 827.747 791.407 822.959 810.414 820.202C845.961 815.124 901.24 809.176 964.063 809.176C964.789 809.176 965.369 809.176 966.095 809.176C968.561 809.176 969.287 809.176 969.577 809.176C1029.21 803.517 1102.19 801.341 1192.29 827.892C1213.18 833.986 1244.67 833.115 1277.89 831.955C1319.53 830.649 1362.62 829.198 1385.4 842.401C1444.6 876.352 1510.33 891.877 1551.1 886.653C1616.1 878.238 1661.51 859.667 1718.67 896.084C1779.18 934.533 1842.43 946.72 1922.38 943.964C1959.52 942.658 2001.6 941.207 2047.3 944.109C2263.92 958.037 2449.34 1012.59 2451.23 1013.03L2452.54 1008.82C2450.65 1008.53 2264.79 953.975 2047.59 939.901ZM214.676 956.151C194.799 971.676 177.389 977.479 163.46 981.977C153.449 985.314 144.744 988.216 137.634 993.729C129.654 999.823 124.431 1003.89 120.949 1006.64C120.949 1006.64 79.018 1047.85 -15.1451 1073.82C-107.712 1099.21 -202.601 1054.09 -237.422 1042.48C-272.969 1030.73 -313.449 1034.93 -345.949 1042.33C-343.918 1041.46 -341.887 1040.59 -339.855 1039.72C-297.199 1021.01 -260.346 1004.9 -161.685 1015.78C-80.7255 1024.78 -28.058 1003.6 16.7746 979.511C52.9019 960.069 91.4955 957.457 125.446 955.136C153.304 953.249 177.244 951.653 195.235 941.497C246.161 912.915 265.023 914.511 291.139 916.542C292.735 916.687 294.186 916.832 295.782 916.977C268.215 923.506 238.181 937.87 214.676 956.151Z" fill="#FFE6BE"/>
<path opacity="0.4" fill-rule="evenodd" clip-rule="evenodd" d="M-1614.47 1431.75C-1598.07 1431.75 -1366.07 1377.49 -1222.72 1311.91C-1155.84 1281.3 -1049.92 1180.17 -886.262 1148.39C-811.25 1133.89 -769.319 1105.74 -689.375 1069.32C-640.48 1047.12 -599.71 1052.2 -533.549 1047.85C-377.578 1037.84 -316.641 971.386 -193.75 979.801C-102.924 986.04 1.39547 966.308 91.0607 921.04C147.21 892.602 208.728 879.399 270.101 885.928C342.066 893.473 414.465 840.805 488.316 813.093C745.124 716.899 1179.81 653.35 1427.92 823.394C1474.34 855.169 1486.97 868.082 1541.08 852.702C1811.1 775.805 1784.11 936.709 1902.5 898.696C2158.44 816.575 2410.61 956.151 2704.41 1065.69C2998.22 1175.24 3150.27 1399.11 3312.05 1466C3473.82 1532.88 3550.57 1519.97 3550.57 1519.97L3044.07 1086.88L1405.28 575.582L194.8 426.865L-1281.05 1232.4L-1614.47 1431.75Z" fill="#F8BE35"/>
<path d="M-664.856 1048.28L-665.291 1043.93C-663.55 1043.79 -488.572 1025.65 -425.023 991.118C-357.411 954.265 -303.873 935.839 -215.078 943.819C-149.063 949.767 -74.4866 942.077 -26.607 932.792C35.056 920.894 77.7122 900.002 115.145 881.575C153.739 862.568 187.11 846.173 227.88 848.35L231.362 848.495C299.118 851.832 333.07 853.573 370.938 821.218L373.695 824.555C334.52 858.071 299.844 856.33 231.072 852.847L227.59 852.702C187.835 850.671 156.641 866.051 116.886 885.493C79.163 904.064 36.2165 925.102 -26.0268 936.999C-74.1965 946.285 -149.353 953.975 -215.804 948.026C-303.583 940.191 -356.396 958.327 -423.282 994.745C-487.121 1029.86 -663.115 1048.14 -664.856 1048.28Z" fill="#EDCD21"/>
<path d="M697.824 1018.4C697.824 1018.4 1352.61 962.1 1610.87 1082.38C1987.23 1257.65 2436.58 1208.9 2679.89 1542.75C2679.89 1542.75 3698.56 1703.07 3450.32 1613.84C3014.03 1457 2909.71 1255.47 2457.61 1159.71C2024.81 1068.16 2154.67 1169.58 1876.1 1055.25C1779.47 1015.49 1737.68 956.732 1647.87 952.234C1520.19 945.85 1442.57 927.714 1370.31 900.147C1313.87 878.529 1251.78 901.743 1199.11 885.058C1104.07 855.024 1046.91 861.118 956.374 909.433C892.68 943.384 837.546 932.357 793.148 949.332C698.695 985.46 697.824 1018.4 697.824 1018.4Z" fill="#F8D829"/>
<path opacity="0.4" d="M1561.11 979.946C1546.31 979.946 1466.22 977.915 1374.52 936.564C1355.52 928.004 1330.99 927.714 1305.02 927.569C1288.63 927.423 1271.51 927.278 1255.11 924.957C1171.98 913.205 1157.03 919.734 1154.57 923.216C1154.13 923.796 1153.84 924.522 1154.42 926.118C1160.81 940.627 1227.98 968.049 1264.98 971.386L1264.54 975.738C1228.71 972.546 1157.9 944.834 1150.36 927.859C1148.91 924.522 1149.92 922.055 1150.94 920.604C1157.76 911.609 1192 911.754 1255.69 920.749C1271.94 923.071 1288.77 923.216 1305.02 923.361C1331.43 923.651 1356.39 923.796 1376.26 932.792C1476.52 978.06 1562.56 975.883 1563.43 975.738L1563.57 980.091C1563.43 979.946 1562.56 979.946 1561.11 979.946Z" fill="#FFE6BE"/>
<path fill-rule="evenodd" clip-rule="evenodd" d="M185.077 1033.92C187.979 1033.19 326.974 1034.21 428.972 951.799C460.892 926.118 507.901 941.788 566.662 915.962C612.22 896.085 622.522 919.589 678.526 904.21C744.977 886.073 751.651 872.58 820.278 877.368C880.926 881.721 958.839 876.352 996.707 861.408C971.752 868.082 900.658 907.982 837.399 910.303C801.272 911.609 738.738 931.341 701.305 959.489C660.39 990.393 582.186 981.832 521.539 1012.59C319.575 1115.31 -52.8698 1090.36 185.077 1033.92Z" fill="#F8D829"/>
<g opacity="0.4">
<path d="M1328.96 917.268C1332.49 917.268 1335.35 914.409 1335.35 910.884C1335.35 907.358 1332.49 904.5 1328.96 904.5C1325.44 904.5 1322.58 907.358 1322.58 910.884C1322.58 914.409 1325.44 917.268 1328.96 917.268Z" fill="#FFF4F0"/>
<path d="M1618.27 910.882C1621.79 910.882 1624.65 908.024 1624.65 904.498C1624.65 900.972 1621.79 898.114 1618.27 898.114C1614.74 898.114 1611.88 900.972 1611.88 904.498C1611.88 908.024 1614.74 910.882 1618.27 910.882Z" fill="#FFF4F0"/>
<path d="M1789.47 904.499C1791 904.499 1792.23 903.265 1792.23 901.742C1792.23 900.22 1791 898.985 1789.47 898.985C1787.95 898.985 1786.72 900.22 1786.72 901.742C1786.72 903.265 1787.95 904.499 1789.47 904.499Z" fill="#FFF4F0"/>
<path d="M1436.62 852.702C1438.14 852.702 1439.37 851.467 1439.37 849.945C1439.37 848.422 1438.14 847.188 1436.62 847.188C1435.09 847.188 1433.86 848.422 1433.86 849.945C1433.86 851.467 1435.09 852.702 1436.62 852.702Z" fill="#FFF4F0"/>
<path d="M1648.74 907.255C1650.26 907.255 1651.5 906.021 1651.5 904.498C1651.5 902.976 1650.26 901.741 1648.74 901.741C1647.22 901.741 1645.98 902.976 1645.98 904.498C1645.98 906.021 1647.22 907.255 1648.74 907.255Z" fill="#FFF4F0"/>
<path d="M1297.04 851.107C1298.57 851.107 1299.8 849.872 1299.8 848.35C1299.8 846.827 1298.57 845.593 1297.04 845.593C1295.52 845.593 1294.29 846.827 1294.29 848.35C1294.29 849.872 1295.52 851.107 1297.04 851.107Z" fill="#FFF4F0"/>
<path d="M958.837 831.519C960.36 831.519 961.594 830.285 961.594 828.762C961.594 827.24 960.36 826.005 958.837 826.005C957.315 826.005 956.081 827.24 956.081 828.762C956.081 830.285 957.315 831.519 958.837 831.519Z" fill="#FFF6E9"/>
<path d="M383.994 882.883C387.52 882.883 390.378 880.024 390.378 876.499C390.378 872.973 387.52 870.115 383.994 870.115C380.469 870.115 377.61 872.973 377.61 876.499C377.61 880.024 380.469 882.883 383.994 882.883Z" fill="#FFF4F0"/>
<path d="M1098.27 906.386C1101.8 906.386 1104.66 903.528 1104.66 900.002C1104.66 896.476 1101.8 893.618 1098.27 893.618C1094.75 893.618 1091.89 896.476 1091.89 900.002C1091.89 903.528 1094.75 906.386 1098.27 906.386Z" fill="#FFF4F0"/>
<path d="M904.866 837.178C908.391 837.178 911.249 834.32 911.249 830.794C911.249 827.269 908.391 824.41 904.866 824.41C901.34 824.41 898.481 827.269 898.481 830.794C898.481 834.32 901.34 837.178 904.866 837.178Z" fill="#FFF6E9"/>
<path d="M698.985 830.939C702.511 830.939 705.37 828.08 705.37 824.555C705.37 821.029 702.511 818.171 698.985 818.171C695.46 818.171 692.602 821.029 692.602 824.555C692.602 828.08 695.46 830.939 698.985 830.939Z" fill="#FFF6E9"/>
<path d="M1054.74 896.373C1056.27 896.373 1057.5 895.139 1057.5 893.617C1057.5 892.094 1056.27 890.86 1054.74 890.86C1053.22 890.86 1051.99 892.094 1051.99 893.617C1051.99 895.139 1053.22 896.373 1054.74 896.373Z" fill="#FFF4F0"/>
<path d="M660.538 833.551C662.06 833.551 663.295 832.316 663.295 830.794C663.295 829.271 662.06 828.037 660.538 828.037C659.015 828.037 657.781 829.271 657.781 830.794C657.781 832.316 659.015 833.551 660.538 833.551Z" fill="#FFF6E9"/>
<path d="M786.906 896.373C788.429 896.373 789.663 895.139 789.663 893.617C789.663 892.094 788.429 890.86 786.906 890.86C785.384 890.86 784.149 892.094 784.149 893.617C784.149 895.139 785.384 896.373 786.906 896.373Z" fill="#FFF4F0"/>
<path d="M700.579 924.376C702.102 924.376 703.336 923.142 703.336 921.62C703.336 920.097 702.102 918.863 700.579 918.863C699.057 918.863 697.822 920.097 697.822 921.62C697.822 923.142 699.057 924.376 700.579 924.376Z" fill="#FFF4F0"/>
<path d="M154.317 929.165C157.843 929.165 160.701 926.306 160.701 922.781C160.701 919.255 157.843 916.397 154.317 916.397C150.791 916.397 147.933 919.255 147.933 922.781C147.933 926.306 150.791 929.165 154.317 929.165Z" fill="#FFF4F0"/>
<path d="M322.042 841.531C323.565 841.531 324.799 840.297 324.799 838.774C324.799 837.252 323.565 836.018 322.042 836.018C320.52 836.018 319.286 837.252 319.286 838.774C319.286 840.297 320.52 841.531 322.042 841.531Z" fill="#FFF6E9"/>
<path d="M453.927 892.313C455.449 892.313 456.683 891.079 456.683 889.556C456.683 888.034 455.449 886.8 453.927 886.8C452.404 886.8 451.17 888.034 451.17 889.556C451.17 891.079 452.404 892.313 453.927 892.313Z" fill="#FFF6E9"/>
<path d="M544.607 829.924C546.13 829.924 547.364 828.69 547.364 827.167C547.364 825.645 546.13 824.41 544.607 824.41C543.085 824.41 541.851 825.645 541.851 827.167C541.851 828.69 543.085 829.924 544.607 829.924Z" fill="#FFF6E9"/>
</g>
<path d="M314.207 872.725C317.733 872.725 320.591 869.867 320.591 866.341C320.591 862.815 317.733 859.957 314.207 859.957C310.681 859.957 307.823 862.815 307.823 866.341C307.823 869.867 310.681 872.725 314.207 872.725Z" fill="#FFB542"/>
<path d="M24.6089 910.884C28.1346 910.884 30.993 908.025 30.993 904.5C30.993 900.974 28.1346 898.116 24.6089 898.116C21.0831 898.116 18.2251 900.974 18.2251 904.5C18.2251 908.025 21.0831 910.884 24.6089 910.884Z" fill="#FFB542"/>
<path d="M238.035 872.581C239.558 872.581 240.792 871.347 240.792 869.824C240.792 868.302 239.558 867.067 238.035 867.067C236.513 867.067 235.279 868.302 235.279 869.824C235.279 871.347 236.513 872.581 238.035 872.581Z" fill="#FFB542"/>
</g>
<path d="M182.29 781.674C174.706 782.859 169.493 789.968 170.678 797.551C171.863 805.134 178.972 810.348 186.555 809.163C194.138 807.978 199.352 800.869 198.167 793.286C196.982 785.702 189.873 780.489 182.29 781.674ZM185.133 799.842C182.684 800.237 180.394 798.578 179.999 796.129C179.604 793.681 181.263 791.39 183.711 790.995C186.16 790.6 188.451 792.259 188.846 794.707C189.241 797.156 187.582 799.526 185.133 799.842Z" fill="#FFB542"/>
<path d="M140.424 751.184C132.841 752.369 127.627 759.478 128.812 767.062C129.997 774.645 137.106 779.858 144.689 778.673C152.273 777.489 157.486 770.379 156.301 762.796C155.116 755.134 148.007 749.999 140.424 751.184ZM143.267 769.352C140.819 769.747 138.528 768.089 138.133 765.64C137.738 763.191 139.397 760.9 141.846 760.505C144.294 760.11 146.585 761.769 146.98 764.218C147.375 766.667 145.716 768.957 143.267 769.352Z" fill="#FFB542"/>
<path opacity="0.4" d="M140.424 751.184C132.841 752.369 127.627 759.478 128.812 767.062C129.997 774.645 137.106 779.858 144.689 778.673C152.273 777.489 157.486 770.379 156.301 762.796C155.116 755.134 148.007 749.999 140.424 751.184ZM143.267 769.352C140.819 769.747 138.528 768.089 138.133 765.64C137.738 763.191 139.397 760.9 141.846 760.505C144.294 760.11 146.585 761.769 146.98 764.218C147.375 766.667 145.716 768.957 143.267 769.352Z" fill="#F8BE35"/>
<path d="M142.555 811.928L140.343 810.349C138.684 809.164 138.369 806.873 139.553 805.293L179.365 750.71C180.55 749.051 182.841 748.735 184.421 749.92L186.633 751.5C188.291 752.685 188.607 754.975 187.422 756.555L147.611 811.138C146.505 812.718 144.214 813.113 142.555 811.928Z" fill="#FFB542"/>
<path opacity="0.5" d="M187.424 756.555C188.293 755.055 188.214 752.685 186.634 751.5L184.422 749.92C182.763 748.735 180.551 749.13 179.366 750.71L174.706 757.108C174.706 757.108 180.394 750.947 187.424 756.555Z" fill="#FFE6BE"/>
<path opacity="0.4" d="M152.909 768.696C155.023 763.012 152.129 756.691 146.446 754.577C140.762 752.463 134.441 755.357 132.327 761.041C130.213 766.725 133.107 773.046 138.79 775.16C144.474 777.274 150.796 774.38 152.909 768.696Z" stroke="#FCDF74" stroke-width="2.36975" stroke-miterlimit="10"/>
<path opacity="0.4" d="M190.154 801.284C193.434 798.086 193.5 792.835 190.303 789.555C187.105 786.276 181.854 786.209 178.574 789.407C175.294 792.605 175.228 797.856 178.425 801.136C181.623 804.415 186.874 804.482 190.154 801.284Z" stroke="#FCDF74" stroke-width="2.36975" stroke-miterlimit="10"/>
<mask id="mask5_6115_151109" style="mask-type:alpha" maskUnits="userSpaceOnUse" x="138" y="749" width="51" height="64">
<path d="M142.559 811.928L140.347 810.349C138.688 809.164 138.372 806.873 139.557 805.293L179.369 750.71C180.553 749.051 182.844 748.735 184.424 749.92L186.636 751.5C188.295 752.685 188.611 754.975 187.426 756.555L147.614 811.138C146.508 812.718 144.217 813.113 142.559 811.928Z" fill="white"/>
</mask>
<g mask="url(#mask5_6115_151109)">
<path opacity="0.4" d="M142.634 799.922C142.634 799.922 157.248 798.421 164.673 779.7C174.468 755.133 184.421 760.584 184.421 760.584" stroke="#FCDF74" stroke-width="2.36975" stroke-miterlimit="10"/>
<path opacity="0.4" d="M147.454 793.997C147.454 793.997 151.167 792.733 154.879 788.31C158.671 783.886 161.515 775.118 161.515 775.118L147.454 793.997Z" fill="#F8BE35"/>
</g>
<path fill-rule="evenodd" clip-rule="evenodd" d="M112.676 831.374L119.35 829.778C127.765 831.374 129.651 833.115 135.455 836.452V856.184C140.243 854.733 145.321 855.604 149.383 858.36L156.638 863.148L153.011 863.874L44.9189 882.3L62.3297 865.18L78.1446 852.122C85.3991 846.463 91.3476 853.718 91.3476 853.718C95.7003 844.867 103.245 835.291 112.676 831.374Z" fill="#FFB542"/>
<path opacity="0.4" fill-rule="evenodd" clip-rule="evenodd" d="M112.676 831.374L119.35 829.778C127.765 831.374 129.651 833.115 135.455 836.452V856.184C140.243 854.733 145.321 855.604 149.383 858.36L156.638 863.148L153.011 863.874L44.9189 882.3L62.3297 865.18L78.1446 852.122C85.3991 846.463 91.3476 853.718 91.3476 853.718C95.7003 844.867 103.245 835.291 112.676 831.374Z" fill="#F8BE35"/>
<path fill-rule="evenodd" clip-rule="evenodd" d="M160.991 850.961L167.955 855.459L174.194 860.247L135.89 866.921L134.875 847.334C143.725 844.722 153.156 846.028 160.991 850.961Z" fill="#FFB542"/>
<path opacity="0.4" fill-rule="evenodd" clip-rule="evenodd" d="M160.991 850.961L167.955 855.459L174.194 860.247L135.89 866.921L134.875 847.334C143.725 844.722 153.156 846.028 160.991 850.961Z" fill="#F8BE35"/>
<mask id="mask6_6115_151109" style="mask-type:alpha" maskUnits="userSpaceOnUse" x="44" y="829" width="131" height="54">
<path d="M174.05 860.247L167.811 855.459L160.847 850.961C153.302 846.173 143.871 844.722 135.311 847.189V836.452C129.652 832.97 127.621 831.229 119.206 829.778L112.532 831.374C103.101 835.436 95.5563 844.867 91.0585 853.863C91.0585 853.863 85.11 846.608 77.8556 852.267L62.0406 865.325L44.6299 882.445L135.746 866.921V867.066L174.05 860.247Z" fill="#F8CE2E"/>
</mask>
<g mask="url(#mask6_6115_151109)">
<path d="M167.521 845.592C151.561 845.592 143.146 843.125 117.61 856.328C95.7018 867.645 67.9897 877.657 56.9629 870.257" stroke="#FFB542" stroke-width="4.35268" stroke-miterlimit="10"/>
<path opacity="0.3" fill-rule="evenodd" clip-rule="evenodd" d="M135.456 836.597C135.456 836.597 132.99 839.064 127.331 838.483C124.139 838.193 120.947 835.146 117.175 833.695C114.418 832.535 111.226 832.244 107.744 834.421C111.226 831.809 114.418 829.488 119.497 830.068C126.606 830.648 127.767 832.535 135.456 836.597Z" fill="#FFE6BE"/>
<path d="M119.496 844.867C121.018 844.867 122.252 843.633 122.252 842.11C122.252 840.588 121.018 839.354 119.496 839.354C117.973 839.354 116.739 840.588 116.739 842.11C116.739 843.633 117.973 844.867 119.496 844.867Z" fill="#FFB542"/>
</g>
<path d="M1807.61 880.573L1804 875.363L1797.92 862.483L1790.39 834.842C1790.25 834.119 1790.1 833.54 1790.1 833.54C1787.35 832.237 1784.17 832.382 1781.42 833.829L1778.96 835.132L1779.54 811.543C1779.97 796.058 1744.95 809.951 1736.85 827.751L1722.95 857.418L1721.22 856.261C1720.64 855.826 1720.06 855.248 1719.77 854.524C1719.48 853.8 1719.34 853.077 1719.48 852.353L1729.18 773.627C1729.32 772.469 1728.45 771.456 1727.29 771.166L1738.44 705.464L1738.29 704.307C1738 699.531 1721.07 700.11 1716.15 707.056L1712.24 712.556L1700.52 715.884C1699.22 716.174 1698.06 716.752 1696.9 717.331C1689.67 721.239 1684.31 728.041 1682.14 736C1676.79 756.116 1668.68 784.48 1666.22 793.453C1662.32 807.491 1657.97 820.949 1657.97 820.949C1653.78 822.975 1650.45 826.449 1648.71 830.645L1645.82 837.737L1634.68 829.054C1626.86 823.265 1620.78 831.224 1620.78 831.224C1616.59 823.41 1610.07 815.305 1602.11 810.53C1598.64 808.07 1595.31 806.043 1590.25 806.767C1585.62 807.491 1582.58 808.793 1580.84 809.806C1579.39 810.674 1578.38 812.122 1578.38 813.858L1576.79 830.79C1573.75 845.407 1566.95 844.394 1566.95 844.394L1638.58 855.248L1638.44 855.682L1729.75 868.417L1730.77 868.706L1765.07 880.284L1771.58 886.651L1774.62 885.783L1779.83 886.651L1807.61 880.573Z" fill="#F8CE2E"/>
<path d="M1694.74 799.018C1698.26 799.018 1701.12 796.16 1701.12 792.634C1701.12 789.108 1698.26 786.25 1694.74 786.25C1691.21 786.25 1688.35 789.108 1688.35 792.634C1688.35 796.16 1691.21 799.018 1694.74 799.018Z" fill="#FFF4F0"/>
<path d="M1782.37 867.646C1783.89 867.646 1785.12 866.412 1785.12 864.889C1785.12 863.367 1783.89 862.132 1782.37 862.132C1780.85 862.132 1779.61 863.367 1779.61 864.889C1779.61 866.412 1780.85 867.646 1782.37 867.646Z" fill="#FFF4F0"/>
<path d="M1721.72 729.086C1723.24 729.086 1724.48 727.851 1724.48 726.329C1724.48 724.807 1723.24 723.572 1721.72 723.572C1720.2 723.572 1718.96 724.807 1718.96 726.329C1718.96 727.851 1720.2 729.086 1721.72 729.086Z" fill="#FFF4F0"/>
<path opacity="0.3" fill-rule="evenodd" clip-rule="evenodd" d="M1711.27 712.835L1700.54 715.882C1699.23 716.172 1698.07 716.752 1696.91 717.333C1689.66 721.25 1684.29 728.069 1682.11 736.049C1682.11 736.049 1698.22 736.629 1703.29 730.826C1708.52 725.022 1710.11 717.042 1710.11 717.042C1710.11 717.042 1731.15 709.353 1734.92 707.757C1738.12 706.451 1738.26 704.129 1738.26 704.129C1737.97 699.341 1721 699.922 1716.06 706.886L1712.15 712.4L1711.27 712.835Z" fill="#E9A912"/>
<path opacity="0.3" fill-rule="evenodd" clip-rule="evenodd" d="M1727.23 771.306C1727.23 771.306 1719.54 776.53 1705.76 774.934C1710.11 780.302 1717.22 781.172 1722.45 780.157C1729.84 778.706 1729.12 773.773 1729.12 773.773C1729.26 772.032 1728.1 771.451 1727.23 771.306Z" fill="#FFE6BE"/>
<path opacity="0.3" fill-rule="evenodd" clip-rule="evenodd" d="M1781.35 833.84L1774.24 837.612C1776.42 840.804 1784.4 841.674 1789.33 837.902C1791.36 836.306 1790.06 833.404 1790.06 833.404C1787.3 832.389 1784.11 832.389 1781.35 833.84Z" fill="#FFE6BE"/>
<path fill-rule="evenodd" clip-rule="evenodd" d="M1597.23 808.449L1590.56 806.998C1581.71 808.884 1584.17 810.335 1578.23 814.108L1576.63 831.083C1573.58 845.737 1566.76 844.722 1566.76 844.722L1655.85 858.215L1651.79 842.835L1634.67 829.487C1626.83 823.684 1620.74 831.663 1620.74 831.663C1615.66 822.088 1607.24 812.367 1597.23 808.449Z" fill="#F8BE35"/>
<path d="M1596.51 821.072C1598.03 821.072 1599.26 819.838 1599.26 818.315C1599.26 816.793 1598.03 815.559 1596.51 815.559C1594.98 815.559 1593.75 816.793 1593.75 818.315C1593.75 819.838 1594.98 821.072 1596.51 821.072Z" fill="#FFF4F0"/>
<path fill-rule="evenodd" clip-rule="evenodd" d="M1736.66 827.746C1744.93 810.045 1779.9 795.972 1779.47 811.496C1779.18 827.166 1736.66 827.746 1736.66 827.746Z" fill="#FFB542"/>
<path opacity="0.3" fill-rule="evenodd" clip-rule="evenodd" d="M1779.61 811.641C1779.18 827.165 1736.81 827.891 1736.81 827.891C1744.93 810.045 1780.05 795.971 1779.61 811.641Z" fill="#E9A912"/>
<path opacity="0.3" fill-rule="evenodd" clip-rule="evenodd" d="M1621.61 832.679C1621.61 832.679 1624.07 837.612 1634.67 829.632C1634.67 829.632 1634.52 829.632 1634.52 829.487C1630.17 826.295 1624.94 826.73 1620.59 831.663L1621.61 832.679Z" fill="#E9A912"/>
<path fill-rule="evenodd" clip-rule="evenodd" d="M1580.69 810.045C1579.24 810.916 1578.23 812.367 1578.23 814.108C1578.23 815.414 1578.95 816.72 1582 816.284C1585.34 815.849 1588.67 812.512 1592.59 810.771C1595.49 809.465 1598.83 809.03 1602.75 811.206C1598.97 808.594 1595.49 806.128 1590.12 806.998C1585.48 807.724 1582.43 809.03 1580.69 810.045Z" fill="#FFB542"/>
<path opacity="0.3" fill-rule="evenodd" clip-rule="evenodd" d="M1580.69 810.045C1579.24 810.916 1578.23 812.367 1578.23 814.108C1578.23 815.414 1578.95 816.72 1582 816.284C1585.34 815.849 1588.67 812.512 1592.59 810.771C1595.49 809.465 1598.83 809.03 1602.75 811.206C1598.97 808.594 1595.49 806.128 1590.12 806.998C1585.48 807.724 1582.43 809.03 1580.69 810.045Z" fill="#E9A912"/>
<mask id="mask7_6115_151109" style="mask-type:alpha" maskUnits="userSpaceOnUse" x="1566" y="701" width="167" height="128">
<path d="M1732.76 824.772L1730.27 821.181L1726.08 812.304L1720.89 793.252C1720.79 792.754 1720.69 792.355 1720.69 792.355C1718.8 791.457 1716.6 791.557 1714.71 792.554L1713.01 793.452L1713.41 777.194C1713.71 766.521 1689.57 776.096 1683.99 788.365L1674.41 808.812L1673.21 808.015C1672.81 807.715 1672.42 807.316 1672.22 806.818C1672.02 806.319 1671.92 805.82 1672.02 805.321L1678.7 751.061C1678.8 750.263 1678.2 749.565 1677.4 749.365L1685.08 704.081L1684.98 703.283C1684.78 699.992 1673.11 700.391 1669.72 705.179L1667.03 708.969L1658.95 711.263C1658.05 711.462 1657.25 711.861 1656.46 712.26C1651.47 714.953 1647.78 719.641 1646.28 725.127C1642.59 738.992 1637.01 758.541 1635.31 764.726C1632.62 774.401 1629.63 783.677 1629.63 783.677C1626.73 785.073 1624.44 787.467 1623.24 790.36L1621.25 795.247L1613.57 789.263C1608.18 785.273 1603.99 790.759 1603.99 790.759C1601.1 785.373 1596.61 779.787 1591.12 776.495C1588.73 774.8 1586.44 773.403 1582.95 773.902C1579.75 774.401 1577.66 775.299 1576.46 775.997C1575.46 776.595 1574.77 777.593 1574.77 778.79L1573.67 790.46C1571.57 800.534 1566.89 799.836 1566.89 799.836L1616.26 807.316L1616.16 807.616L1679.1 816.393L1679.8 816.592L1703.44 824.572L1707.92 828.961L1710.02 828.362L1713.61 828.961L1732.76 824.772Z" fill="white"/>
</mask>
<g mask="url(#mask7_6115_151109)">
<path opacity="0.4" d="M1674.42 766.519C1674.42 766.519 1683.85 767.099 1690.38 765.794C1696.91 764.488 1705.47 755.927 1707.94 754.186C1720.85 745.771 1731.44 746.932 1731.44 746.932" stroke="#FFF6E9" stroke-width="4.35268" stroke-miterlimit="10"/>
<path opacity="0.5" d="M1577.21 825.715C1581.85 827.891 1591.43 830.358 1596.65 829.632C1611.45 827.746 1616.09 823.974 1616.09 823.974" stroke="#FFE6BE" stroke-width="4.35268" stroke-miterlimit="10"/>
<path opacity="0.5" d="M1651.5 816.865C1651.5 816.865 1660.93 808.449 1696.76 819.911C1713.82 825.365 1735.5 840.659 1745.08 844.286C1767.57 852.847 1784.98 856.039 1800.79 846.608C1816.61 837.177 1807.61 816.139 1807.61 816.139" stroke="#FFE6BE" stroke-width="4.35268" stroke-miterlimit="10"/>
</g>
</g>
</g>
<path d="M1576.98 585.45C1561.16 587.057 1548.92 600.436 1548.91 616.607C1548.95 623.581 1551.24 630.057 1555.1 635.277C1560.35 639.176 1566.8 641.485 1573.78 641.447C1589.95 641.449 1603.64 629.144 1605.24 613.398L1577.01 613.398L1576.98 585.45Z" fill="#F8D829"/>
<path opacity="0.4" d="M1590.79 599.628C1592.25 600.194 1593.89 599.47 1594.45 598.012C1595.02 596.553 1594.3 594.912 1592.84 594.346C1591.38 593.781 1589.74 594.504 1589.17 595.963C1588.61 597.421 1589.33 599.062 1590.79 599.628Z" fill="#A44030"/>
<path d="M1614.76 605.302C1614.74 605.098 1614.68 604.98 1614.75 604.81C1614.68 604.488 1614.73 604.114 1614.65 603.793C1614.64 603.589 1614.62 603.386 1614.6 603.182C1614.61 602.894 1614.54 602.572 1614.52 602.369C1614.5 602.165 1614.4 601.929 1614.41 601.64C1614.39 601.437 1614.32 601.115 1614.3 600.912C1614.28 600.708 1614.21 600.387 1614.11 600.15C1614.09 599.947 1613.98 599.71 1613.97 599.507C1613.86 599.27 1613.88 598.982 1613.77 598.745C1613.75 598.542 1613.65 598.305 1613.6 598.187C1613.52 597.865 1613.42 597.629 1613.35 597.307C1613.3 597.189 1613.28 596.986 1613.14 596.834C1613.07 596.513 1612.88 596.243 1612.81 595.921C1612.76 595.803 1612.7 595.685 1612.65 595.567C1611.31 592.204 1609.46 589.134 1607.16 586.477C1606.15 585.3 1605.1 584.208 1603.9 583.253C1601.18 580.923 1598.18 579.07 1594.77 577.748C1594.68 577.715 1594.6 577.682 1594.43 577.616C1594.09 577.484 1593.83 577.384 1593.49 577.252C1593.32 577.186 1593.15 577.12 1592.98 577.054C1592.72 576.955 1592.47 576.856 1592.09 576.809C1591.92 576.742 1591.67 576.643 1591.47 576.662C1591.21 576.563 1590.92 576.549 1590.67 576.45C1590.41 576.351 1590.21 576.37 1589.95 576.271C1589.7 576.172 1589.49 576.191 1589.24 576.091C1588.98 575.992 1588.69 575.978 1588.49 575.997C1588.2 575.984 1588.03 575.917 1587.74 575.903C1587.45 575.889 1587.2 575.79 1586.91 575.776C1586.71 575.795 1586.45 575.696 1586.25 575.715C1585.96 575.701 1585.58 575.654 1585.3 575.64C1585.09 575.659 1584.92 575.593 1584.72 575.612C1584.23 575.617 1583.65 575.589 1583.16 575.595L1583.11 579.006L1583.14 606.953L1611.09 606.918L1614.5 606.967C1614.82 606.404 1614.73 605.879 1614.76 605.302Z" fill="#F8D829"/>
<path d="M1603.94 583.167C1604.4 583.74 1604.95 584.345 1605.38 585.002C1606 585.437 1606.58 585.957 1607.16 586.477C1606.18 585.214 1605.1 584.207 1603.94 583.167Z" fill="#F89372"/>
<path d="M1573.78 641.447C1566.8 641.486 1560.35 639.177 1555.1 635.278C1555.56 635.85 1555.99 636.507 1556.54 637.112C1559.26 639.443 1562.27 641.295 1565.68 642.617C1565.76 642.65 1565.85 642.683 1566.02 642.749C1566.36 642.882 1566.61 642.981 1566.96 643.113C1567.13 643.179 1567.3 643.245 1567.47 643.311C1567.72 643.411 1567.98 643.51 1568.35 643.557C1568.52 643.623 1568.78 643.722 1568.98 643.703C1569.24 643.802 1569.53 643.816 1569.78 643.915C1570.04 644.014 1570.24 643.995 1570.5 644.094C1570.75 644.194 1570.95 644.175 1571.21 644.274C1571.47 644.373 1571.75 644.387 1571.96 644.368C1572.25 644.382 1572.42 644.448 1572.71 644.462C1572.99 644.476 1573.25 644.575 1573.54 644.589C1573.74 644.57 1574 644.669 1574.2 644.65C1574.49 644.664 1574.86 644.711 1575.15 644.725C1575.35 644.706 1575.53 644.772 1575.73 644.753C1576.22 644.748 1576.8 644.776 1577.29 644.771C1594.65 644.744 1608.6 630.752 1608.66 613.427L1605.25 613.377C1603.24 629.162 1589.95 641.449 1573.78 641.447Z" fill="#E9A912"/>
<path d="M1614.75 604.811C1614.68 604.49 1614.72 604.116 1614.65 603.794C1614.63 603.591 1614.61 603.387 1614.6 603.184C1614.61 602.895 1614.54 602.573 1614.52 602.37C1614.5 602.167 1614.4 601.93 1614.41 601.642C1614.39 601.438 1614.32 601.116 1614.3 600.913C1614.28 600.71 1614.21 600.388 1614.11 600.151C1614.09 599.948 1613.98 599.712 1613.96 599.508C1613.86 599.272 1613.87 598.983 1613.77 598.746C1613.75 598.543 1613.65 598.307 1613.59 598.188C1613.52 597.867 1613.42 597.63 1613.35 597.309C1613.29 597.19 1613.28 596.987 1613.14 596.836C1613.07 596.514 1612.88 596.244 1612.81 595.923C1612.75 595.804 1612.7 595.686 1612.65 595.568C1611.31 592.205 1609.46 589.136 1607.16 586.479C1606.58 585.959 1605.96 585.524 1605.38 585.004C1609.23 590.224 1611.52 596.7 1611.56 603.673C1611.54 604.743 1611.52 605.812 1611.38 606.933L1614.79 606.983C1614.78 606.491 1614.78 605.999 1614.81 605.421C1614.7 605.185 1614.68 604.982 1614.75 604.811Z" fill="#E9A912"/>
<path d="M1586.7 578.834C1593.67 578.796 1600.13 581.104 1605.38 585.004C1604.92 584.432 1604.48 583.774 1603.94 583.169C1601.21 580.839 1598.21 578.986 1594.8 577.664C1594.71 577.631 1594.63 577.598 1594.46 577.532C1594.12 577.4 1593.86 577.3 1593.52 577.168C1593.35 577.102 1593.18 577.036 1593.01 576.97C1592.76 576.871 1592.5 576.772 1592.13 576.724C1591.96 576.658 1591.7 576.559 1591.5 576.578C1591.24 576.479 1590.95 576.465 1590.7 576.366C1590.44 576.267 1590.24 576.286 1589.98 576.187C1589.73 576.088 1589.52 576.107 1589.27 576.008C1589.01 575.908 1588.72 575.894 1588.52 575.913C1588.23 575.9 1588.06 575.833 1587.77 575.819C1587.48 575.805 1587.23 575.706 1586.94 575.692C1586.74 575.711 1586.48 575.612 1586.28 575.631C1585.99 575.617 1585.62 575.57 1585.33 575.556C1585.12 575.575 1584.95 575.509 1584.75 575.528C1584.26 575.533 1583.68 575.505 1583.19 575.511L1583.14 578.922C1584.53 578.873 1585.63 578.811 1586.7 578.834Z" fill="#F9DD72"/>
<path d="M1555.1 635.276C1551.24 630.056 1548.95 623.58 1548.91 616.607C1548.92 600.435 1561.25 587.089 1576.98 585.45L1577.03 582.038C1559.67 582.066 1545.71 596.057 1545.66 613.382C1545.66 613.875 1545.67 614.367 1545.64 614.944C1545.66 615.147 1545.71 615.265 1545.64 615.436C1545.72 615.757 1545.67 616.131 1545.74 616.453C1545.76 616.656 1545.78 616.86 1545.8 617.063C1545.78 617.352 1545.85 617.674 1545.87 617.877C1545.89 618.08 1546 618.317 1545.98 618.605C1546 618.809 1546.07 619.131 1546.09 619.334C1546.11 619.537 1546.18 619.859 1546.29 620.096C1546.31 620.299 1546.41 620.535 1546.43 620.739C1546.53 620.975 1546.52 621.264 1546.62 621.501C1546.64 621.704 1546.75 621.94 1546.8 622.059C1546.87 622.38 1546.97 622.617 1547.05 622.938C1547.1 623.057 1547.12 623.26 1547.25 623.411C1547.33 623.733 1547.51 624.003 1547.59 624.324C1547.64 624.443 1547.69 624.561 1547.74 624.679C1549.08 628.042 1550.93 631.111 1553.23 633.768C1553.9 634.321 1554.48 634.841 1555.1 635.276Z" fill="#F9DD72"/>
<path d="M1655.77 653.95L1640.32 645.015L1623.23 654.949L1622.37 655.4C1623.01 656.53 1623.77 657.608 1624.64 658.634C1625.33 659.39 1626.02 660.147 1626.77 660.733C1630.43 663.919 1635.12 665.737 1640.29 665.785C1647.93 665.808 1654.67 661.564 1658.24 655.401L1655.77 653.95Z" fill="#E9A912"/>
<path d="M1624.64 658.635C1625.33 659.392 1626.01 660.148 1626.77 660.734C1626.44 660.313 1626.08 659.978 1625.84 659.59C1625.36 659.307 1625 658.971 1624.64 658.635Z" fill="#F89372"/>
<path opacity="0.4" d="M1623.23 654.95L1622.37 655.4C1623 656.531 1623.76 657.609 1624.64 658.635C1625 658.97 1625.44 659.339 1625.84 659.59C1624.72 658.176 1623.84 656.658 1623.23 654.95Z" fill="#F89372"/>
<path d="M1623.23 654.952C1623.87 656.574 1624.72 658.177 1625.84 659.591C1629.24 662.186 1633.57 663.668 1638.17 663.688C1645.6 663.73 1652.04 659.761 1655.76 653.953L1640.31 645.018L1623.23 654.952Z" fill="#F8D829"/>
<path d="M1619.59 637.559C1619.58 641.377 1620.56 644.896 1622.41 647.965L1623.27 647.515L1640.36 637.581L1640.39 619.068L1640.38 616.811C1628.81 616.829 1619.54 626.071 1619.59 637.559Z" fill="#EE5827"/>
<path d="M1656 624.048C1659.12 627.613 1661 632.362 1661.04 637.571C1661.06 641.178 1660.15 644.604 1658.48 647.833L1658.4 647.927C1657.92 647.675 1656.11 646.603 1655.84 646.431L1640.32 637.571L1640.32 619.239L1640.31 616.982C1645.49 617.03 1650.17 618.848 1653.84 622.034C1654.11 622.337 1654.5 622.606 1654.82 623.027C1655.22 623.278 1655.64 623.712 1656 624.048Z" fill="#F8D829"/>
<path d="M1619.59 637.559C1619.58 641.377 1620.56 644.896 1622.41 647.965L1623.27 647.515L1640.36 637.581L1640.39 619.068L1640.38 616.811C1628.81 616.829 1619.54 626.071 1619.59 637.559Z" fill="#F8D829"/>
<path d="M1621.71 639.658C1621.69 628.866 1629.89 620.093 1640.3 619.035L1640.29 616.778C1628.84 616.744 1619.54 626.072 1619.5 637.526C1619.49 641.344 1620.48 644.863 1622.33 647.932L1623.19 647.482C1622.26 645.065 1621.73 642.407 1621.71 639.658Z" fill="#F9DD72"/>
<path d="M1656.03 623.962C1655.34 623.205 1654.66 622.449 1653.9 621.863C1654.23 622.283 1654.59 622.619 1654.83 623.007C1655.28 623.375 1655.67 623.626 1656.03 623.962Z" fill="#F89372"/>
<path d="M1656.03 623.964C1655.67 623.628 1655.23 623.259 1654.83 623.009C1657.41 626.461 1658.88 630.755 1658.95 635.387C1658.96 639.409 1657.76 643.256 1655.75 646.399L1658.32 647.883C1660.08 644.844 1661.06 641.304 1661.08 637.486C1661.09 632.396 1659.21 627.647 1656.03 623.964Z" fill="#E9A912"/>
<path d="M1642.51 618.911C1647.1 618.931 1651.43 620.414 1654.83 623.008C1654.51 622.588 1654.18 622.167 1653.91 621.864C1650.24 618.678 1645.56 616.86 1640.38 616.812L1640.39 619.069C1641 619.011 1641.73 618.902 1642.51 618.911Z" fill="#F9DD72"/>
<path d="M92.7586 5C93.6577 16.5516 92.3717 46.2217 92.7017 57.8075C93.2025 76.1194 93.6805 94.6133 90.6873 112.755C89.2749 121.743 86.7953 130.53 83.3011 138.931C80.1827 146.26 75.2206 152.918 71.0552 159.678C66.8813 166.562 64.5312 174.396 64.2266 182.44C63.8283 189.041 64.8981 195.926 68.4489 201.514C72.8078 208.343 80.7062 212.747 87.3754 217.095" stroke="white" stroke-width="8.44464" stroke-miterlimit="10" stroke-linecap="round"/>
<path d="M63.02 246.127C59.674 249.542 59.6057 255.357 60.4593 259.784C60.8917 262.061 64.1353 269.003 70.5199 270.801C76.9046 272.599 87.4093 269.663 87.4093 269.663L87.1816 272.053C85.8956 279.564 91.4039 286.108 100.179 287.542C108.953 288.976 122.792 277.3 122.792 277.3C125.069 275.376 127.436 273.589 129.621 271.495C135.245 265.907 140.146 259.637 144.211 252.831C145.714 250.361 147.125 247.846 148.422 245.274C149.103 243.511 149.925 241.806 150.881 240.175C152.485 237.99 155.137 238.593 157.447 238.798C160.627 238.961 163.804 238.429 166.757 237.239C173.199 234.826 181.62 229.534 181.097 221.579C181.017 220.441 180.448 219.871 181.347 218.927C182.093 218.142 182.603 217.163 182.819 216.102C183.035 215.042 182.948 213.941 182.568 212.928C182.188 211.914 181.53 211.027 180.671 210.37C179.811 209.712 178.783 209.309 177.705 209.208C177.967 208.592 178.03 207.91 177.885 207.257C177.74 206.604 177.395 206.013 176.897 205.566C175.886 204.691 174.698 204.043 173.415 203.665C181.108 196.267 186.856 186.764 184.443 175.645C183.88 173.04 182.779 170.581 181.212 168.425C179.644 166.269 177.643 164.465 175.338 163.126C175.065 162.99 174.371 158.267 174.132 157.629C173.411 155.715 172.48 153.887 171.355 152.178C169.186 148.89 166.553 145.935 163.536 143.403C163.206 143.107 162.853 142.823 162.512 142.538C150.414 132.796 132.819 128.369 118.126 134.389C114.397 135.901 110.982 138.093 108.054 140.854C107.599 141.286 105.402 144.427 104.868 144.473C104.868 144.473 95.08 145.224 90.9146 156.696C85.8956 170.535 92.3827 176.988 92.3827 176.988C94.454 189.314 99.7461 196.643 99.7461 196.643C99.7461 196.643 86.0891 195.585 76.8364 203.085C67.5837 210.585 66.1269 217.55 66.1269 217.561C65.6655 220.137 66.0655 222.793 67.265 225.118C68.5359 227.487 70.5294 229.389 72.9555 230.547C76.8364 232.516 79.2378 232.106 78.1111 237.375C78.0712 237.647 77.9825 237.909 77.8493 238.149C77.4531 238.621 76.9066 238.943 76.3015 239.06C71.9341 240.443 67.8239 242.534 64.1353 245.251C63.7437 245.517 63.371 245.81 63.02 246.127V246.127Z" fill="white"/>
<path d="M92.7586 5C93.6577 16.5516 92.3717 46.2217 92.7017 57.8075C93.2025 76.1194 93.6805 94.6133 90.6873 112.755C89.2749 121.743 86.7953 130.53 83.3011 138.931C80.1827 146.26 75.2206 152.918 71.0552 159.678C66.8813 166.562 64.5312 174.396 64.2266 182.44C63.8283 189.041 64.8981 195.926 68.4489 201.514C72.8078 208.343 80.7062 212.747 87.3754 217.095" stroke="#EF5B81" stroke-width="3.01594" stroke-miterlimit="10" stroke-linecap="round"/>
<path d="M86.1124 240.107L95.3879 243.271C95.9771 243.473 96.6007 243.554 97.2221 243.511C97.8434 243.468 98.4498 243.301 99.0056 243.02C99.5614 242.739 100.055 242.35 100.458 241.875C100.861 241.4 101.165 240.849 101.351 240.255L108.18 218.29C108.545 217.112 108.43 215.839 107.861 214.746C107.292 213.652 106.315 212.828 105.141 212.451L95.3651 209.344C94.7905 209.169 94.1869 209.11 93.5892 209.169C92.9915 209.229 92.4115 209.406 91.8825 209.69C91.3536 209.975 90.8862 210.361 90.5072 210.827C90.1283 211.293 89.8453 211.83 89.6746 212.406L83.2331 234.53C82.9058 235.652 83.0222 236.856 83.5582 237.894C84.0941 238.932 85.0086 239.724 86.1124 240.107V240.107Z" fill="#EF5B81"/>
<path d="M74.7409 244.819C81.2053 243.533 87.1234 241.564 91.3912 237.171C95.659 232.778 102.601 231.662 107.541 235.862C112.025 239.663 113.174 247.55 108.849 252.011C99.813 261.332 89.354 265.145 76.8691 267.637C70.8031 268.844 64.9306 263.005 64.3501 257.292C63.7697 250.589 68.6521 246.036 74.7409 244.819Z" fill="#F9D929"/>
<path d="M69.6783 246.799C67.8804 247.853 66.4254 249.404 65.4885 251.266C64.5517 253.127 64.1728 255.22 64.3975 257.292C64.9324 262.982 70.805 268.844 76.9165 267.637C78.5668 267.307 80.1715 266.954 81.7534 266.567C81.7534 266.567 71.1464 252.671 69.9628 247.766" fill="#3AC2DF"/>
<path d="M98.7666 261.071C105.836 257.596 111.667 252.034 115.474 245.137C118.467 239.72 124.806 236.841 130.701 239.584C136.028 242.065 139.26 249.36 136.255 254.8C129.62 267.005 119.25 276.765 106.665 282.649C101.088 285.323 93.9525 281.215 91.9836 275.82C89.6391 269.481 93.2355 263.779 98.7666 261.071Z" fill="#F9D929"/>
<path d="M95.0231 263.631C93.3283 265.097 92.1238 267.047 91.5723 269.218C91.0207 271.39 91.1487 273.678 91.9389 275.775C93.9078 281.181 101.044 285.289 106.62 282.603C108.032 281.92 109.42 281.203 110.752 280.452C110.752 280.452 98.4033 268.684 95.7288 264.451" fill="#3AC2DF"/>
<path d="M171.911 230.035C172.921 229.263 173.808 228.342 174.54 227.303C175.348 227.383 175.974 227.463 176.498 226.7C176.677 226.436 176.781 226.129 176.801 225.811C176.821 225.493 176.756 225.175 176.612 224.891C176.464 224.606 176.236 224.549 176.487 224.287C176.678 224.16 176.885 224.057 177.101 223.98C177.502 223.811 177.845 223.53 178.091 223.172C179.104 221.59 178.251 219.917 176.953 218.938L173.209 216.161C171.525 214.91 169.237 212.531 166.995 212.85C165.333 213.089 164.719 214.705 163.74 215.797C162.88 216.972 161.692 217.867 160.326 218.369L160.997 219.246L165.834 225.596L168.315 228.851C168.748 229.409 169.692 231.127 170.523 230.945C170.656 230.907 170.782 230.85 170.899 230.775C171.249 230.546 171.587 230.299 171.911 230.035V230.035Z" fill="#FFAF80"/>
<path d="M175.849 218.529L179.935 215.581C180.167 215.405 180.359 215.181 180.498 214.924C180.637 214.668 180.719 214.385 180.739 214.094C180.76 213.803 180.718 213.511 180.617 213.237C180.515 212.964 180.356 212.715 180.151 212.508V212.508C179.784 212.099 179.28 211.836 178.734 211.769C178.188 211.702 177.636 211.836 177.181 212.144C175.679 213.282 173.63 214.773 173.63 214.773L174.882 210.881C175.031 210.332 174.968 209.746 174.707 209.241C174.446 208.735 174.005 208.346 173.471 208.149V208.149C173.216 208.043 172.943 207.988 172.667 207.988C172.391 207.988 172.118 208.042 171.863 208.148C171.608 208.254 171.376 208.409 171.182 208.605C170.987 208.8 170.833 209.032 170.728 209.287L168.748 214.489" fill="#FFAF80"/>
<path d="M160.531 218.233C160.401 218.065 160.214 217.949 160.006 217.905C159.798 217.861 159.58 217.893 159.393 217.994C158.178 218.586 156.852 218.915 155.501 218.961C152.166 219.178 148.467 218.381 145.121 217.823C140.569 216.993 136.449 221.67 136.222 225.79C135.948 230.741 139.693 233.87 144.188 234.69C153.293 236.351 162.398 236.42 170.08 231.276C170.186 231.202 170.276 231.106 170.343 230.995C170.411 230.885 170.455 230.761 170.472 230.633C170.489 230.504 170.479 230.374 170.443 230.249C170.407 230.125 170.345 230.009 170.262 229.91L160.531 218.233Z" fill="#F9D929"/>
<path d="M163.432 234.223L162.488 229.341C162.438 229.083 162.293 228.854 162.083 228.698C161.872 228.542 161.61 228.471 161.35 228.498L154.829 229.033C154.569 229.056 154.327 229.175 154.15 229.366C153.973 229.558 153.874 229.808 153.873 230.069C153.873 231.662 153.975 234.747 154.669 235.566C154.692 235.566 162.033 235.373 163.432 234.223Z" fill="#3AC2DF"/>
<path d="M169.784 215.183L170.922 216.856C171.46 217.525 171.848 218.301 172.06 219.132C172.146 219.556 172.092 219.997 171.908 220.388C171.723 220.78 171.418 221.102 171.036 221.306C170.618 221.442 170.168 221.442 169.75 221.306C169.227 221.179 168.74 220.934 168.327 220.589C168.009 220.299 167.716 219.983 167.451 219.644L165.687 217.516" stroke="#000202" stroke-width="0.603189" stroke-miterlimit="10" stroke-linecap="round"/>
<path d="M176.193 220.099C174.857 220.029 173.518 220.056 172.187 220.179C172.187 220.179 172.187 220.179 172.187 220.179" stroke="#000202" stroke-width="0.603189" stroke-miterlimit="10" stroke-linecap="round"/>
<path d="M176.545 224.333L173.927 224.583C173.235 224.663 172.536 224.663 171.844 224.583C171.14 224.514 170.481 224.205 169.978 223.707C169.733 223.459 169.563 223.147 169.487 222.807C169.41 222.467 169.431 222.113 169.545 221.784C169.552 221.751 169.567 221.72 169.589 221.694C169.611 221.668 169.639 221.648 169.67 221.636C169.727 221.636 169.807 221.636 169.784 221.727" stroke="#000202" stroke-width="0.603189" stroke-miterlimit="10" stroke-linecap="round"/>
<path d="M175.258 227.144L173.085 227.235C172.448 227.323 171.8 227.241 171.207 226.996C170.983 226.879 170.784 226.718 170.624 226.522C170.464 226.326 170.344 226.1 170.274 225.858C170.212 225.606 170.205 225.344 170.252 225.089C170.299 224.834 170.4 224.592 170.547 224.378" stroke="#000202" stroke-width="0.603189" stroke-miterlimit="10" stroke-linecap="round"/>
<path d="M145.371 210.994C145.371 210.994 150.299 213.953 150.038 219.029C149.776 224.105 148.615 235.85 140.421 252.262C132.227 268.673 101.088 250.828 101.088 250.828C101.088 250.828 86.0883 243.84 91.4146 229.067C96.7408 214.295 102.636 197.132 109.465 199.318C116.293 201.503 145.371 210.994 145.371 210.994Z" fill="white" stroke="#000405" stroke-width="1.20638" stroke-miterlimit="10"/>
<path d="M75.3907 210.994C75.2316 210.783 75.1573 210.52 75.1826 210.257C75.2079 209.993 75.3308 209.749 75.5273 209.572C82.8452 203.187 91.8475 201.082 101.544 200.9C106.096 200.82 110.285 203.745 110.728 208.525C111.138 212.804 107.69 217.629 103.115 217.709C97.868 217.812 92.3596 218.392 87.83 221.123C87.0688 221.593 86.3354 222.106 85.6335 222.66C85.525 222.745 85.4006 222.808 85.2675 222.844C85.1345 222.881 84.9955 222.89 84.8587 222.872C84.722 222.854 84.5902 222.809 84.4711 222.739C84.352 222.669 84.2481 222.577 84.1654 222.466L75.3907 210.994Z" fill="#F9D929"/>
<path d="M81.3767 221.419C81.1897 221.393 81 221.442 80.8487 221.555C80.6974 221.668 80.5968 221.836 80.5686 222.022L79.8402 226.905C79.7676 227.426 79.9003 227.954 80.2104 228.379C80.5205 228.804 80.9836 229.092 81.5019 229.181V229.181C82.0249 229.256 82.5566 229.123 82.9824 228.81C83.4081 228.497 83.6939 228.03 83.7781 227.508L84.5861 223.013C84.6104 222.877 84.6071 222.738 84.5765 222.604C84.5458 222.469 84.4884 222.343 84.4076 222.231C84.3269 222.12 84.2245 222.026 84.1066 221.954C83.9886 221.883 83.8575 221.837 83.7212 221.818L81.3767 221.419Z" fill="#FFAF80"/>
<path d="M76.1638 209.777C76.0159 209.868 70.94 213.76 69.9043 216.811C68.8687 219.861 70.4734 220.1 70.4734 220.1C70.4734 220.1 70.8831 222.068 71.7253 222.626C72.5674 223.184 72.9431 224.242 74.195 224.902C74.8095 225.244 76.2891 228.317 79.8171 226.883L85.371 222.034L76.1638 209.777Z" fill="#FFAF80"/>
<path d="M140.944 185.82C140.46 186.365 139.896 186.833 139.271 187.208C138.958 187.395 138.609 187.509 138.247 187.545C137.885 187.58 137.519 187.535 137.177 187.413" stroke="#000202" stroke-width="1.20638" stroke-miterlimit="10" stroke-linecap="round"/>
<path d="M118.136 232.243C109.976 229.033 103.102 226.757 94.6006 224.128" stroke="#000202" stroke-width="4.82551" stroke-miterlimit="10" stroke-linecap="round"/>
<path d="M144.449 241.928C142.71 240.987 140.879 240.224 138.986 239.652" stroke="#000202" stroke-width="4.82551" stroke-miterlimit="10" stroke-linecap="round"/>
<path d="M142.584 207.58C142.584 207.58 148.195 207.865 147.341 211.12C146.488 214.375 133.684 215.592 124.397 211.939C115.11 208.286 106.188 202.721 108.783 198.703C108.783 198.703 109.192 197.349 111.867 198.475C114.541 199.602 119.549 206.92 135.232 207.922" fill="white"/>
<path d="M142.584 207.58C142.584 207.58 148.195 207.865 147.341 211.12C146.488 214.375 133.684 215.592 124.397 211.939C115.11 208.286 106.188 202.721 108.783 198.703C108.783 198.703 109.192 197.349 111.867 198.475C114.541 199.602 119.549 206.92 135.232 207.922" stroke="#000405" stroke-width="1.20638" stroke-miterlimit="10"/>
<path d="M176.602 189.236C180.092 181.736 178.002 173.367 171.933 170.542C165.864 167.718 158.115 171.507 154.624 179.006C151.134 186.505 153.224 194.874 159.293 197.699C165.362 200.524 173.111 196.735 176.602 189.236Z" fill="#3AC2DF"/>
<path d="M170.154 190.147C177.834 172.177 168.518 150.968 149.346 142.775C130.174 134.582 108.407 142.507 100.728 160.476C93.0482 178.446 102.364 199.655 121.536 207.848C140.708 216.041 162.475 208.116 170.154 190.147Z" fill="#BEE9F3"/>
<path d="M149.343 142.766C153.906 144.706 158.067 147.481 161.611 150.949C172.07 161.191 175.951 176.59 170.158 190.133C167.65 195.994 163.525 201.019 158.265 204.621C152.91 208.207 146.736 210.382 140.316 210.945C133.895 211.508 127.437 210.441 121.539 207.842C102.362 199.648 93.0869 178.434 100.723 160.463C108.36 142.493 130.166 134.571 149.343 142.766Z" fill="#F9D929"/>
<path d="M116.792 169.469C120.283 161.97 118.193 153.601 112.124 150.776C106.055 147.951 98.3054 151.74 94.8148 159.239C91.3243 166.739 93.4144 175.108 99.4833 177.933C105.552 180.757 113.302 176.968 116.792 169.469Z" fill="#3AC2DF"/>
<path d="M107.728 165.67C109.68 161.475 108.764 156.912 105.681 155.477C102.598 154.042 98.5161 156.279 96.564 160.473C94.6118 164.667 95.5284 169.23 98.6113 170.665C101.694 172.1 105.776 169.864 107.728 165.67Z" fill="white"/>
<path d="M90.7086 202.152L92.9848 207.136C93.0412 207.261 93.0708 207.396 93.0718 207.533C93.0728 207.67 93.045 207.806 92.9903 207.931C92.9356 208.057 92.8551 208.169 92.7542 208.262C92.6533 208.354 92.5341 208.424 92.4043 208.468L86.6228 210.346C86.4134 210.414 86.1871 210.409 85.9806 210.333C85.7741 210.257 85.5994 210.113 85.4847 209.925C84.5742 208.422 82.446 204.906 82.5143 204.997C82.5826 205.088 86.6456 202.652 90.7086 202.152Z" fill="#3AC2DF"/>
<path d="M99.2448 259.534C99.2448 259.466 95.8305 256.29 94.4192 254.982C94.2599 254.831 94.0563 254.737 93.8388 254.712C93.6213 254.688 93.4017 254.734 93.2128 254.845L87.9208 257.804C87.7771 257.884 87.6541 257.996 87.5618 258.132C87.4696 258.267 87.4105 258.423 87.3895 258.586C87.3685 258.749 87.386 258.914 87.4407 259.069C87.4954 259.224 87.5858 259.364 87.7045 259.477C89.1954 260.888 91.7675 263.324 91.8472 263.335C91.9269 263.347 98.4936 260.592 99.2448 259.534Z" fill="#3AC2DF"/>
<path d="M124.136 270.756L118.525 267.25C118.326 267.134 118.097 267.08 117.868 267.096C117.638 267.112 117.419 267.198 117.239 267.341L112.584 271.199C112.463 271.306 112.366 271.438 112.3 271.585C112.233 271.732 112.199 271.892 112.199 272.053C112.199 272.214 112.233 272.374 112.3 272.521C112.366 272.668 112.463 272.8 112.584 272.907C114.121 274.165 115.821 275.21 117.637 276.014L124.136 270.756Z" fill="#3AC2DF"/>
<path d="M74.5608 225.255C74.471 224.834 74.5025 224.396 74.6518 223.992C74.8036 223.596 74.9902 223.216 75.2094 222.854" stroke="#000202" stroke-width="0.603189" stroke-miterlimit="10" stroke-linecap="round"/>
<path d="M72.2148 222.728L72.3058 222.819C72.2544 222.77 72.2152 222.709 72.1915 222.642C72.1678 222.575 72.1601 222.503 72.1693 222.432C72.1549 221.702 72.3699 220.986 72.7839 220.384" stroke="#000202" stroke-width="0.603189" stroke-miterlimit="10" stroke-linecap="round"/>
<path d="M79.9541 227.076C79.8989 226.2 79.9524 225.321 80.1133 224.458C79.3189 224.7 78.6114 225.166 78.0762 225.801" stroke="#000202" stroke-width="0.603189" stroke-linecap="round" stroke-linejoin="round"/>
<path d="M124.886 226.928C129.55 228.322 134.113 230.034 138.543 232.049C140.581 233.028 140.444 234.997 139.682 236.818L136.597 244.512C135.641 246.879 130.509 244.512 128.961 244.034C125.546 242.895 122.132 241.405 118.832 239.891C115.998 238.605 117.193 236.898 118.081 234.508L119.549 230.547C119.947 229.409 120.471 227.531 121.427 226.78C122.383 226.029 123.851 226.621 124.886 226.928Z" fill="white" stroke="#000405" stroke-width="1.20638" stroke-miterlimit="10"/>
<path d="M132.285 239.572C134.026 239.572 135.437 238.16 135.437 236.419C135.437 234.678 134.026 233.267 132.285 233.267C130.544 233.267 129.132 234.678 129.132 236.419C129.132 238.16 130.544 239.572 132.285 239.572Z" fill="#EF5B81"/>
<path d="M111.731 158.381C112.461 159.95 112.688 161.707 112.379 163.411C112.072 165.105 111.484 166.736 110.638 168.236" stroke="#000405" stroke-width="1.20638" stroke-miterlimit="10" stroke-linecap="round"/>
<path d="M108.498 171.161C107.926 171.859 107.114 172.317 106.222 172.447" stroke="#000405" stroke-width="1.20638" stroke-miterlimit="10" stroke-linecap="round"/>
<path d="M169.063 190.971C175.554 177.027 170.066 160.72 156.805 154.548C143.545 148.376 127.534 154.676 121.043 168.62C114.553 182.564 120.041 198.872 133.301 205.044C146.562 211.216 162.573 204.915 169.063 190.971Z" fill="white" stroke="#000405" stroke-width="1.32019" stroke-miterlimit="10"/>
<path d="M135.778 165.619C128.949 172.072 126.832 181.643 128.357 190.657C129.495 197.485 139.977 194.617 138.828 187.777C138.376 185.169 138.56 182.49 139.364 179.968C140.169 177.446 141.57 175.155 143.448 173.29C148.524 168.464 140.842 160.771 135.778 165.619Z" fill="#ACECF9"/>
<path d="M1623.46 240.31C1623.81 239.928 1624.24 239.637 1624.73 239.463C1625.21 239.288 1625.73 239.236 1626.24 239.31C1627.66 239.479 1629.03 239.899 1630.3 240.55C1631.43 241.035 1632.54 241.579 1633.61 242.18C1635.61 243.32 1637.47 244.65 1639.46 245.8C1644.58 248.824 1649.35 252.402 1653.68 256.47C1654.09 256.84 1655.92 258.58 1656.42 257.53C1656.47 257.376 1656.49 257.212 1656.48 257.05C1656.46 256.889 1656.41 256.732 1656.33 256.59C1655.51 254.52 1654.04 252.78 1653.09 250.77C1652.93 250.505 1652.87 250.185 1652.94 249.88C1653.01 249.73 1653.12 249.604 1653.26 249.517C1653.4 249.43 1653.56 249.386 1653.72 249.39C1654.05 249.401 1654.38 249.494 1654.66 249.66C1658.22 251.41 1660.43 255.18 1663.92 257.05L1664.56 257.4C1664.72 257.499 1664.89 257.57 1665.07 257.61C1665.16 257.624 1665.25 257.614 1665.34 257.58C1665.42 257.547 1665.5 257.492 1665.55 257.42C1665.6 257.271 1665.6 257.109 1665.55 256.96C1665.29 256.058 1664.94 255.184 1664.5 254.35C1664.29 253.928 1664.19 253.459 1664.22 252.988C1664.24 252.517 1664.38 252.06 1664.63 251.66C1664.73 251.534 1664.86 251.435 1665.01 251.37C1665.18 251.33 1665.35 251.33 1665.51 251.37C1667.69 251.54 1669.81 253.21 1671.44 254.6C1672.44 255.43 1673.3 256.36 1674.28 257.18C1675.32 258.019 1676.42 258.794 1677.55 259.5L1684.95 264.28C1687.28 265.713 1689.46 267.389 1691.43 269.28C1692.17 270.009 1692.87 270.78 1693.52 271.59C1694.05 272.425 1694.46 273.322 1694.76 274.26C1695.14 275.15 1695.66 275.98 1696.12 276.83C1697.58 279.594 1698.38 282.657 1698.45 285.78C1698.59 287.758 1698.35 289.744 1697.74 291.63C1697.19 292.98 1695.54 294.24 1694.36 295.04C1691.52 296.95 1688.15 297.81 1684.99 299.04C1683.1 299.76 1680.73 299.53 1678.72 299.53C1676.89 299.53 1675.16 299.71 1673.34 299.83C1672.46 299.89 1671.58 300 1670.69 299.99C1668.82 299.897 1666.98 299.442 1665.28 298.65C1663.7 298.045 1662.19 297.285 1660.76 296.38C1659.57 295.595 1658.49 294.638 1657.57 293.54C1656.94 292.73 1656.44 291.82 1655.76 291.05C1655.08 290.34 1654.36 289.672 1653.6 289.05C1651.16 286.927 1648.97 284.516 1647.1 281.87C1646.26 280.56 1645.32 279.32 1644.28 278.16C1642.83 276.68 1640.97 275.65 1639.54 274.16C1638.11 272.67 1637.17 270.79 1635.84 269.22C1633.92 266.96 1631.21 265.36 1629.74 262.77C1629 261.46 1628.48 259.33 1630.45 258.98C1631.83 258.74 1633.34 259.57 1634.56 260.1C1636.76 261.155 1638.88 262.365 1640.91 263.72C1641.36 264 1643.91 265.23 1643.85 263.86C1643.77 263.46 1643.55 263.104 1643.22 262.86L1634.66 254.86C1632.02 252.39 1629.17 250.13 1626.66 247.57C1625.2 246.198 1624.07 244.513 1623.35 242.64C1623.16 242.239 1623.08 241.793 1623.12 241.35C1623.17 240.907 1623.33 240.485 1623.6 240.13" fill="#F68B2B"/>
<path d="M1649.88 264.03C1650.04 264.611 1650.3 265.159 1650.65 265.65C1651.65 267.164 1652.86 268.528 1654.24 269.7C1654.46 269.88 1654.71 270.19 1654.53 270.42C1654.47 270.478 1654.4 270.521 1654.32 270.545C1654.24 270.569 1654.16 270.574 1654.07 270.56C1653 270.48 1651.88 269.83 1650.93 270.32C1650.63 270.486 1650.37 270.734 1650.19 271.035C1650.02 271.337 1649.93 271.681 1649.93 272.03C1649.95 272.727 1650.12 273.41 1650.44 274.03C1651.88 277.26 1654.27 279.96 1656.01 283.03C1656.59 284.03 1657.1 285.13 1657.65 286.16C1658.94 288.567 1660.5 290.818 1662.3 292.87C1663.05 293.821 1663.91 294.675 1664.86 295.41C1665.89 296.096 1667.05 296.572 1668.26 296.81C1670.21 297.152 1672.18 297.249 1674.15 297.1C1676.06 297.03 1677.98 296.94 1679.9 296.99C1681.32 296.99 1682.75 297.12 1684.17 296.99C1685.35 296.939 1686.51 296.636 1687.56 296.1L1691.01 294.1C1692.24 293.48 1693.35 292.639 1694.27 291.62C1694.65 291.119 1694.97 290.571 1695.21 289.99C1695.56 289.059 1695.77 288.088 1695.86 287.1C1696.23 285.49 1696.3 283.827 1696.08 282.19C1695.98 281.61 1695.77 281.052 1695.48 280.54C1695.21 280.106 1694.9 279.698 1694.55 279.32L1692.63 277.06C1691.24 275.43 1690.63 273.26 1689.38 271.52C1688.18 269.828 1686.6 268.438 1684.76 267.46C1682.67 266.496 1680.66 265.348 1678.76 264.03C1677.61 263.2 1676.53 262.26 1675.33 261.51C1674.14 260.757 1672.84 260.194 1671.47 259.84C1670.9 259.69 1670.16 259.64 1669.86 260.15C1669.56 260.66 1669.86 261.15 1670.08 261.61C1670.3 262.07 1671.28 263.86 1670.56 263.92C1670.2 263.92 1669.38 263.23 1669.08 263.07L1667.66 262.31C1666.9 261.818 1666.03 261.513 1665.13 261.42C1664.68 261.379 1664.23 261.491 1663.86 261.738C1663.48 261.985 1663.2 262.352 1663.05 262.78C1663.01 263.346 1663.04 263.915 1663.16 264.47C1663.16 265.03 1662.96 265.72 1662.41 265.83C1662.01 265.842 1661.62 265.703 1661.32 265.44C1659.15 264.006 1656.83 262.803 1654.4 261.85C1653.6 261.455 1652.72 261.253 1651.83 261.26C1651.51 261.292 1651.2 261.392 1650.93 261.555C1650.65 261.717 1650.41 261.937 1650.22 262.199C1650.04 262.462 1649.91 262.761 1649.85 263.077C1649.8 263.393 1649.81 263.718 1649.88 264.03V264.03Z" fill="#F9D929"/>
<path d="M1690.47 290.87C1689.49 292.138 1688.18 293.104 1686.68 293.66C1684.51 294.391 1682.19 294.61 1679.92 294.3C1675.92 294.03 1671.81 295.3 1668.23 292.89C1667.29 292.21 1666.44 291.418 1665.7 290.53L1663.09 287.68C1662.63 287.27 1662.29 286.751 1662.09 286.17C1661.95 285.59 1662.09 284.96 1661.98 284.38C1661.71 283.68 1661.31 283.038 1660.79 282.49C1660.46 281.929 1660.32 281.278 1660.38 280.63C1660.21 278.76 1659.45 276.98 1659.38 275.08C1659.37 273.848 1659.64 272.63 1660.17 271.518C1660.7 270.406 1661.48 269.429 1662.44 268.66C1663.63 267.694 1665.12 267.164 1666.65 267.16C1667.64 267.304 1668.65 267.35 1669.65 267.3C1670.5 267.15 1671.27 266.66 1672.12 266.51C1672.92 266.374 1673.74 266.526 1674.43 266.94C1674.63 267.088 1674.85 267.213 1675.08 267.31C1675.46 267.412 1675.85 267.439 1676.24 267.39C1677.44 267.343 1678.63 267.627 1679.68 268.21C1680.86 268.897 1682.08 269.521 1683.32 270.08C1684.42 270.475 1685.42 271.111 1686.24 271.94C1686.75 272.749 1687.13 273.633 1687.37 274.56C1688.07 276.37 1689.52 277.65 1690.37 279.34C1691.38 280.988 1692.12 282.783 1692.57 284.66C1692.64 285.02 1692.66 285.385 1692.65 285.75C1692.39 287.618 1691.63 289.384 1690.47 290.87V290.87Z" fill="#606AB1"/>
<path d="M1682.68 286.87C1681.68 286.07 1679.87 284.54 1678.68 285.87C1678.39 286.21 1678.21 286.633 1678.16 287.08C1678.13 287.425 1678.18 287.772 1678.3 288.095C1678.43 288.418 1678.63 288.708 1678.88 288.94C1679.34 289.3 1679.87 289.549 1680.44 289.67C1680.8 289.76 1681.17 289.84 1681.54 289.9C1681.84 289.977 1682.14 289.994 1682.44 289.949C1682.75 289.905 1683.03 289.799 1683.29 289.64C1684.29 288.87 1683.43 287.44 1682.68 286.87Z" fill="#131313"/>
<path d="M1685.94 277.35C1685.45 277.525 1685.05 277.884 1684.82 278.35C1684.75 278.588 1684.75 278.842 1684.82 279.08C1684.85 279.199 1684.91 279.309 1684.99 279.4C1685.15 279.522 1685.34 279.595 1685.53 279.61C1686.14 279.68 1686.75 279.68 1687.35 279.61C1687.49 279.598 1687.62 279.564 1687.75 279.51C1687.81 279.481 1687.86 279.436 1687.9 279.379C1687.94 279.323 1687.96 279.258 1687.96 279.19C1687.95 279.062 1687.89 278.942 1687.8 278.85L1687.11 277.97C1687.02 277.82 1686.91 277.69 1686.76 277.589C1686.62 277.487 1686.46 277.416 1686.29 277.38C1686.03 277.38 1685.78 277.52 1685.51 277.51" fill="#131313"/>
<path d="M1689.65 288.05C1689.57 288.226 1689.44 288.376 1689.28 288.48C1689.2 288.538 1689.14 288.614 1689.1 288.7C1689.05 288.787 1689.03 288.883 1689.03 288.98C1689.06 289.074 1689.11 289.158 1689.19 289.221C1689.26 289.283 1689.35 289.322 1689.45 289.33C1689.64 289.338 1689.83 289.292 1690 289.196C1690.16 289.1 1690.29 288.959 1690.38 288.79C1690.62 288.35 1690.79 287.15 1690.2 286.89C1689.31 286.49 1689.74 287.74 1689.65 288.05Z" fill="#131313"/>
<path d="M1670.57 276.87C1669.85 276.56 1668.73 276.64 1668.57 277.6C1668.55 277.679 1668.55 277.762 1668.57 277.84C1668.61 277.903 1668.65 277.961 1668.7 278.01C1669 278.425 1669.44 278.719 1669.94 278.84C1670.16 278.853 1670.38 278.829 1670.59 278.77C1670.8 278.738 1671 278.663 1671.17 278.55C1671.26 278.494 1671.34 278.416 1671.39 278.323C1671.44 278.231 1671.47 278.127 1671.47 278.02C1671.44 277.817 1671.35 277.628 1671.2 277.48C1671.04 277.233 1670.82 277.025 1670.57 276.87Z" fill="#131313"/>
<path d="M1672.98 269.39C1672.92 269.442 1672.87 269.508 1672.83 269.582C1672.8 269.657 1672.78 269.738 1672.78 269.82C1672.76 269.933 1672.78 270.05 1672.82 270.156C1672.86 270.262 1672.94 270.354 1673.03 270.42C1673.14 270.474 1673.25 270.498 1673.37 270.49C1673.5 270.514 1673.63 270.514 1673.75 270.49C1673.81 270.467 1673.87 270.429 1673.91 270.378C1673.95 270.327 1673.98 270.265 1673.99 270.2C1674.01 270.121 1674.01 270.039 1673.99 269.96C1673.94 269.787 1673.85 269.629 1673.72 269.5C1673.66 269.455 1673.6 269.422 1673.52 269.403C1673.45 269.384 1673.38 269.379 1673.3 269.39C1673.23 269.4 1673.16 269.425 1673.1 269.462C1673.03 269.5 1672.98 269.55 1672.93 269.61" fill="#131313"/>
<path d="M1662.32 282.12C1662.16 282.386 1662.08 282.69 1662.08 283C1662.08 283.31 1662.16 283.614 1662.32 283.88C1662.85 284.821 1663.53 285.672 1664.32 286.4C1664.58 286.721 1664.93 286.955 1665.32 287.07C1665.72 287.15 1666.2 286.87 1666.17 286.47C1666.15 286.346 1666.1 286.228 1666.02 286.127C1665.95 286.026 1665.85 285.945 1665.73 285.89C1665.51 285.777 1665.3 285.636 1665.11 285.47C1664.86 285.2 1664.79 284.78 1664.51 284.54C1664.23 284.3 1663.93 284.32 1663.69 284.13C1663.46 283.888 1663.3 283.582 1663.23 283.25C1663.14 282.94 1663.03 282.636 1662.9 282.34C1662.84 282.2 1662.75 282.04 1662.6 282.02C1662.53 282.018 1662.45 282.043 1662.39 282.091C1662.33 282.138 1662.29 282.205 1662.27 282.28C1662.24 282.428 1662.24 282.582 1662.27 282.73" fill="#131313"/>
<path d="M1611.97 247.07C1611.71 247.07 1611.45 247.176 1611.27 247.363C1611.08 247.551 1610.97 247.805 1610.97 248.07C1610.97 248.336 1611.08 248.59 1611.27 248.777C1611.45 248.965 1611.71 249.07 1611.97 249.07C1612.24 249.07 1612.49 248.965 1612.68 248.777C1612.87 248.59 1612.97 248.336 1612.97 248.07C1612.97 247.805 1612.87 247.551 1612.68 247.363C1612.49 247.176 1612.24 247.07 1611.97 247.07Z" fill="#F68B2B"/>
<path d="M1610.1 245.7C1609.98 245.58 1609.83 245.494 1609.66 245.45L1608.9 245.13C1608.77 245.095 1608.63 245.095 1608.5 245.13C1608.37 245.139 1608.24 245.181 1608.13 245.25C1608.02 245.312 1607.92 245.402 1607.85 245.51C1607.76 245.606 1607.7 245.723 1607.67 245.85V246.12C1607.68 246.296 1607.72 246.467 1607.81 246.62L1607.97 246.82C1608.09 246.946 1608.24 247.036 1608.41 247.08L1609.16 247.4C1609.29 247.435 1609.43 247.435 1609.56 247.4C1609.7 247.399 1609.83 247.361 1609.94 247.29C1610.05 247.225 1610.15 247.136 1610.22 247.03C1610.3 246.931 1610.36 246.815 1610.39 246.69V246.42C1610.39 246.244 1610.34 246.071 1610.25 245.92L1610.1 245.7Z" fill="#F68B2B"/>
<path d="M1661.32 248.21C1661.25 247.965 1661.08 247.755 1660.86 247.62C1660.24 247.219 1659.57 246.909 1658.86 246.7C1658.73 246.665 1658.6 246.655 1658.47 246.672C1658.34 246.69 1658.21 246.733 1658.09 246.8C1657.98 246.866 1657.88 246.954 1657.8 247.059C1657.72 247.164 1657.66 247.283 1657.63 247.41C1657.6 247.538 1657.59 247.67 1657.61 247.801C1657.62 247.931 1657.67 248.057 1657.73 248.17C1657.87 248.391 1658.08 248.555 1658.33 248.63C1658.51 248.685 1658.69 248.748 1658.86 248.82C1659.21 248.967 1659.54 249.14 1659.86 249.34C1660.09 249.475 1660.36 249.514 1660.62 249.449C1660.88 249.383 1661.1 249.218 1661.23 248.99C1661.3 248.873 1661.34 248.743 1661.36 248.609C1661.37 248.475 1661.36 248.34 1661.32 248.21Z" fill="#F68B2B"/>
<path d="M1627.22 256.87C1627 256.507 1626.74 256.171 1626.44 255.87C1626.14 255.579 1625.8 255.324 1625.44 255.11C1625.11 254.898 1624.73 254.774 1624.33 254.75C1623.96 254.744 1623.6 254.86 1623.31 255.081C1623.01 255.302 1622.8 255.615 1622.7 255.97C1622.62 256.269 1622.63 256.583 1622.71 256.88C1622.8 257.177 1622.96 257.446 1623.18 257.66C1623.38 257.854 1623.62 258.001 1623.88 258.09C1624.05 258.172 1624.21 258.265 1624.36 258.37C1624.48 258.48 1624.6 258.6 1624.71 258.72C1624.92 259.054 1625.24 259.3 1625.61 259.41C1625.81 259.46 1626.01 259.46 1626.21 259.41C1626.41 259.399 1626.6 259.337 1626.77 259.23C1627.11 259.028 1627.35 258.707 1627.46 258.33C1627.55 258.027 1627.55 257.704 1627.46 257.4C1627.42 257.209 1627.34 257.028 1627.22 256.87V256.87Z" fill="#F68B2B"/>
<path d="M1648.84 242.39C1648.74 242.183 1648.61 241.991 1648.46 241.82C1648.13 241.485 1647.76 241.195 1647.35 240.96L1647.09 240.77C1646.33 240.22 1645.59 239.61 1644.78 239.13C1644.4 238.879 1643.97 238.712 1643.53 238.64C1643.08 238.568 1642.62 238.591 1642.18 238.71C1642.12 238.729 1642.06 238.761 1642.01 238.802C1641.96 238.844 1641.92 238.895 1641.89 238.953C1641.86 239.011 1641.84 239.074 1641.84 239.138C1641.83 239.203 1641.84 239.268 1641.86 239.33C1641.77 239.402 1641.69 239.494 1641.63 239.6C1641.24 240.38 1642.3 241.08 1642.79 241.48C1643.55 242.12 1644.35 242.698 1645.2 243.21C1646.09 243.702 1647.03 244.095 1648 244.38C1648.07 244.406 1648.15 244.413 1648.22 244.401C1648.29 244.388 1648.36 244.357 1648.42 244.31C1648.46 244.32 1648.51 244.32 1648.55 244.31C1649.55 244.18 1649.23 242.99 1648.87 242.4L1648.84 242.39Z" fill="#F68B2B"/>
<path d="M1622.31 253.48L1618.61 250.74C1618.05 250.287 1617.45 249.885 1616.82 249.54C1616.67 249.46 1616.51 249.4 1616.35 249.33L1616.07 249.21C1615.83 249.117 1615.6 248.982 1615.4 248.81C1614.48 247.91 1613.06 249.32 1613.99 250.22C1614.25 250.475 1614.54 250.688 1614.86 250.85L1615.34 251.06L1615.61 251.17H1615.66C1616.33 251.5 1616.96 251.906 1617.53 252.38L1621.35 255.21C1621.47 255.277 1621.59 255.32 1621.72 255.338C1621.85 255.356 1621.99 255.348 1622.11 255.315C1622.24 255.281 1622.36 255.223 1622.46 255.143C1622.57 255.064 1622.66 254.964 1622.72 254.85C1622.79 254.734 1622.83 254.606 1622.84 254.473C1622.86 254.341 1622.84 254.207 1622.81 254.079C1622.77 253.951 1622.7 253.833 1622.62 253.73C1622.54 253.627 1622.43 253.542 1622.31 253.48Z" fill="#F68B2B"/>
<path d="M1620.17 238.98C1620.37 239.08 1620.55 239.2 1620.75 239.3C1620.98 239.414 1621.23 239.485 1621.49 239.51C1621.76 239.518 1622.03 239.452 1622.26 239.32C1622.49 239.191 1622.65 238.979 1622.72 238.73C1622.76 238.602 1622.77 238.467 1622.75 238.335C1622.73 238.203 1622.69 238.075 1622.62 237.96C1622.47 237.414 1622.2 236.911 1621.82 236.492C1621.44 236.073 1620.96 235.75 1620.43 235.55C1620.07 235.391 1619.67 235.361 1619.29 235.465C1618.91 235.569 1618.57 235.8 1618.34 236.12C1618.13 236.471 1618.06 236.89 1618.15 237.29C1618.23 237.617 1618.38 237.919 1618.6 238.17C1619.04 238.579 1619.58 238.859 1620.17 238.98V238.98Z" fill="#F68B2B"/>
<path d="M1625.79 230.02C1625.01 229.702 1624.26 229.313 1623.54 228.86C1622.05 227.86 1620.79 226.5 1619.23 225.56C1618.43 225.08 1617.39 224.56 1616.47 225.04C1616.26 225.176 1616.07 225.355 1615.93 225.566C1615.78 225.777 1615.69 226.016 1615.64 226.267C1615.59 226.518 1615.6 226.776 1615.66 227.025C1615.72 227.273 1615.83 227.506 1615.98 227.71C1616.6 228.518 1617.46 229.104 1618.43 229.38C1619.27 229.744 1620.04 230.259 1620.69 230.9C1621.75 231.997 1623.04 232.847 1624.46 233.39C1624.67 233.537 1624.91 233.632 1625.16 233.667C1625.42 233.702 1625.67 233.675 1625.91 233.59C1626.19 233.569 1626.46 233.519 1626.72 233.44C1626.91 233.381 1627.07 233.269 1627.19 233.118C1627.32 232.967 1627.39 232.783 1627.41 232.59C1627.53 232.357 1627.56 232.094 1627.51 231.84C1627.39 231.422 1627.17 231.038 1626.87 230.722C1626.57 230.405 1626.2 230.165 1625.79 230.02Z" fill="#F68B2B"/>
<path d="M1610.26 223.01L1610.48 223.23C1610.62 223.354 1610.77 223.468 1610.92 223.57C1611 223.629 1611.09 223.683 1611.18 223.73C1611.35 223.81 1611.52 223.88 1611.7 223.94C1611.83 223.975 1611.97 223.975 1612.1 223.94C1612.23 223.929 1612.36 223.888 1612.47 223.82C1612.69 223.678 1612.85 223.466 1612.93 223.22V222.96C1612.93 222.781 1612.89 222.605 1612.8 222.45L1612.64 222.25C1612.53 222.14 1612.39 222.057 1612.24 222.01C1612.12 221.95 1612 221.879 1611.89 221.8C1611.8 221.734 1611.72 221.657 1611.65 221.57C1611.56 221.48 1611.45 221.411 1611.33 221.37C1611.21 221.305 1611.08 221.274 1610.94 221.28C1610.81 221.274 1610.68 221.305 1610.56 221.37C1610.44 221.411 1610.32 221.479 1610.23 221.57C1610.14 221.663 1610.07 221.774 1610.02 221.896C1609.97 222.018 1609.94 222.148 1609.94 222.28V222.55C1610.01 222.729 1610.12 222.888 1610.26 223.01V223.01Z" fill="#F68B2B"/>
<path d="M1614.23 232.51C1612.34 231.039 1610.3 229.778 1608.14 228.75C1605.8 227.489 1603.54 226.097 1601.36 224.58C1596.98 221.678 1592.29 219.292 1587.36 217.47C1586.16 217.01 1585.64 218.94 1586.83 219.4C1591.59 221.173 1596.13 223.488 1600.35 226.3C1602.35 227.703 1604.42 228.998 1606.55 230.18C1608.77 231.2 1610.86 232.453 1612.81 233.92C1613.79 234.74 1615.17 233.34 1614.23 232.51Z" fill="#F68B2B"/>
<path d="M1581.83 215.03C1581.71 214.904 1581.56 214.814 1581.39 214.77L1580.81 214.53C1580.68 214.491 1580.54 214.491 1580.41 214.53C1580.28 214.529 1580.15 214.571 1580.04 214.65C1579.93 214.711 1579.83 214.796 1579.75 214.9C1579.67 214.999 1579.61 215.115 1579.58 215.24V215.51C1579.58 215.69 1579.63 215.866 1579.72 216.02L1579.87 216.22C1579.99 216.34 1580.15 216.426 1580.31 216.47L1580.9 216.72C1581.03 216.755 1581.17 216.755 1581.3 216.72C1581.43 216.709 1581.56 216.668 1581.67 216.6C1581.79 216.541 1581.88 216.451 1581.95 216.34C1582.04 216.244 1582.1 216.127 1582.13 216V215.74C1582.14 215.562 1582.09 215.385 1582 215.23L1581.83 215.03Z" fill="#F68B2B"/>
<path d="M1576.96 212.56C1576.04 211.941 1575 211.515 1573.9 211.31C1573.64 211.248 1573.37 211.284 1573.13 211.41C1572.91 211.548 1572.75 211.761 1572.67 212.01C1572.64 212.139 1572.63 212.273 1572.65 212.405C1572.66 212.538 1572.71 212.665 1572.77 212.78C1572.91 213.002 1573.12 213.166 1573.37 213.24C1573.87 213.328 1574.35 213.469 1574.81 213.66C1575.21 213.838 1575.59 214.049 1575.95 214.29C1576.07 214.357 1576.2 214.401 1576.33 214.418C1576.46 214.435 1576.59 214.426 1576.72 214.39C1576.98 214.321 1577.19 214.156 1577.32 213.93C1577.39 213.817 1577.43 213.691 1577.45 213.561C1577.47 213.43 1577.46 213.298 1577.43 213.17C1577.39 213.043 1577.34 212.924 1577.26 212.819C1577.18 212.714 1577.08 212.626 1576.96 212.56V212.56Z" fill="#F68B2B"/>
<path d="M1571.27 210.12C1571.18 210.021 1571.06 209.946 1570.93 209.9C1570.93 209.9 1570.93 209.82 1570.84 209.8C1570.75 209.712 1570.63 209.65 1570.5 209.62C1570.37 209.586 1570.23 209.586 1570.1 209.62C1569.97 209.63 1569.84 209.671 1569.72 209.74L1569.52 209.89C1569.4 210.016 1569.31 210.171 1569.27 210.34V210.6C1569.27 210.78 1569.32 210.956 1569.41 211.11C1569.47 211.198 1569.53 211.281 1569.6 211.36C1569.6 211.36 1569.6 211.36 1569.6 211.36L1569.82 211.53L1570.04 211.63C1570.11 211.667 1570.18 211.694 1570.26 211.71C1570.39 211.745 1570.53 211.745 1570.66 211.71C1570.79 211.701 1570.92 211.66 1571.03 211.59C1571.14 211.528 1571.24 211.439 1571.31 211.33C1571.4 211.235 1571.46 211.117 1571.49 210.99V210.72C1571.49 210.544 1571.44 210.372 1571.35 210.22L1571.27 210.12Z" fill="#F68B2B"/>
<path d="M1566.83 208C1566.57 208 1566.31 208.105 1566.12 208.293C1565.94 208.48 1565.83 208.735 1565.83 209C1565.83 209.265 1565.94 209.52 1566.12 209.707C1566.31 209.895 1566.57 210 1566.83 210C1567.1 210 1567.35 209.895 1567.54 209.707C1567.73 209.52 1567.83 209.265 1567.83 209C1567.83 208.735 1567.73 208.48 1567.54 208.293C1567.35 208.105 1567.1 208 1566.83 208Z" fill="#F68B2B"/>
<path d="M1564.79 207.3L1564.59 207.14C1564.44 207.048 1564.26 207 1564.08 207H1564C1563.87 206.999 1563.73 207.03 1563.61 207.09C1563.49 207.131 1563.38 207.204 1563.29 207.3C1563.2 207.385 1563.13 207.496 1563.09 207.62C1563.02 207.734 1562.99 207.867 1563 208V208.27C1563.05 208.435 1563.14 208.586 1563.26 208.71L1563.46 208.87C1563.62 208.958 1563.79 209.003 1563.97 209H1564.05C1564.32 209 1564.57 208.895 1564.76 208.707C1564.95 208.52 1565.05 208.265 1565.05 208V207.74C1565.01 207.573 1564.92 207.422 1564.79 207.3V207.3Z" fill="#F68B2B"/>
<defs>
<linearGradient id="paint0_linear_6115_151109" x1="896" y1="4" x2="896" y2="924" gradientUnits="userSpaceOnUse">
<stop stop-color="#1D1A50"/>
<stop offset="1" stop-color="#3A257F"/>
</linearGradient>
</defs>
</svg>
