<svg width="127" height="18" viewBox="0 0 127 18" fill="none" xmlns="http://www.w3.org/2000/svg">
<path d="M3.13238 5.0275C1.36454 3.93245 3.98405 4.02716 5.14194 3.94903C12.5821 3.44703 20.0924 3.48312 27.5094 3.44305C52.5622 3.30769 77.5678 3.83771 102.439 5.62218C108.047 6.02454 113.757 6.39371 119.287 7.28858C119.531 7.32809 120.246 7.46873 119.996 7.48867C117.956 7.65117 115.94 7.30975 113.914 7.19875C90.82 5.93322 67.4449 6.07013 44.1909 7.74224C34.7464 8.42137 25.2488 9.5519 15.8734 11.3021C13.3268 11.7775 7.321 12.9786 14.8076 12.9367C26.8451 12.8694 38.9177 12.0618 50.961 11.9717C66.2251 11.8574 81.4244 12.3052 96.6155 13.0213C103.032 13.3238 109.438 13.7624 115.878 13.8332C118.455 13.8616 121.696 14.2364 124.292 13.6843C126.211 13.2764 120.497 13.0791 118.568 12.9937C114.807 12.8273 111.262 13.2098 107.516 13.6053" stroke="#F8D829" stroke-width="4" stroke-linecap="round" stroke-linejoin="round"/>
</svg>
