<svg width="136" height="40" viewBox="0 0 136 40" fill="none" xmlns="http://www.w3.org/2000/svg">
<g clip-path="url(#clip0_3537_156825)">
<path fill-rule="evenodd" clip-rule="evenodd" d="M136.001 22.5342C136.145 16.7294 132.353 12.7312 126.558 12.577C125.7 12.5498 124.842 12.6216 124.001 12.7911L124.257 3.27054L108.576 2.85102L106.999 2.80822L94.0108 2.46574L93.7552 12.089L89.315 11.9692L89.2639 14.0325C88.2648 13.2576 87.1405 12.661 85.9401 12.2688L84.8834 11.9606C83.3123 11.5738 81.7027 11.367 80.0853 11.3442C71.3498 11.113 68.2136 15.0086 67.1654 18.6558L64.2251 18.5788L64.4126 11.3099L53.1375 11.0103L52.9415 18.2791L46.6946 18.1164L46.7713 15.0942L51.3734 15.214L51.7398 1.34417L39.4762 1.01882L35.5729 0.916089L28.9766 0.744859L26.3347 7.86814L24.0763 0.616439L15.767 0.393828L11.8808 0.291093L0.97208 0L0.605624 13.8699L5.19919 13.9897L4.9776 22.4401L0.384086 22.3202L0.0175781 36.1901H0.0687103V36.5325L74.5287 38.5017C74.7247 38.5017 74.8866 38.5616 75.0912 38.5616C75.2957 38.5616 75.3469 38.5616 75.4832 38.5616L131.987 40.0342L135.651 29.8544L136.001 22.5342Z" fill="#F8D829"/>
<path fill-rule="evenodd" clip-rule="evenodd" d="M19.0559 33.0222L3.74121 32.6198L3.91166 26.0787L8.51374 26.1986L8.92281 10.4281L4.32925 10.2996L4.4997 3.75854L21.3484 4.21231L26.0187 19.1609L31.4645 4.47772L47.9723 4.91437L47.8019 11.4555L43.1998 11.3356L42.7822 27.1061L47.3843 27.226L47.2138 33.7757L30.5526 33.3305L30.723 26.7894L35.1291 26.9092L35.5382 11.2842L27.2544 33.2448L22.4734 33.1164L15.2379 10.7106L14.8288 26.3698L19.2349 26.4811L19.0559 33.0222Z" fill="#5322FF"/>
<path fill-rule="evenodd" clip-rule="evenodd" d="M60.3555 26.0359L60.168 33.3476L56.1795 33.2448L56.367 25.9332L49.5576 25.7448L49.6599 21.8578L56.4778 22.0462L56.6653 14.7688L60.6537 14.8801L60.4577 22.1489L67.2756 22.3287L67.1734 26.2157L60.3555 26.0359Z" fill="#5322FF"/>
<path fill-rule="evenodd" clip-rule="evenodd" d="M81.8575 28.0736L81.9427 24.6489C80.9456 26.3185 77.0594 25.3681 76.9742 28.5188C76.9516 28.7821 76.9841 29.0472 77.0696 29.297C77.1552 29.5469 77.2918 29.776 77.4709 29.9696C77.6499 30.1631 77.8673 30.3169 78.1091 30.4209C78.3509 30.525 78.6117 30.577 78.8747 30.5736C79.9485 30.5736 81.2609 30.1369 81.8575 28.0051V28.0736ZM75.1589 34.9229C71.179 34.8202 69.3126 32.9965 69.3978 29.6489C69.483 26.3013 71.5199 24.7774 75.5169 24.1952L78.2526 23.8013C80.8093 23.4503 81.8064 22.5856 81.8404 21.3527C81.8404 20.3595 81.116 19.8373 79.8121 19.803C79.4912 19.7494 79.1622 19.7713 78.8511 19.8669C78.54 19.9625 78.2551 20.1293 78.019 20.3541C77.7828 20.5789 77.6017 20.8557 77.4899 21.1626C77.3781 21.4696 77.3387 21.7984 77.3747 22.1233L70.3267 21.9349C70.4631 16.7979 73.8124 14.8715 79.974 15.0342C86.2636 15.1969 89.2294 17.2774 89.093 22.4315L88.914 29.512L91.59 29.5804L91.4452 34.9743L81.6871 34.7089L81.7978 30.3681C80.6814 33.2791 78.8747 35 75.1419 34.8972L75.1589 34.9229Z" fill="#5322FF"/>
<path fill-rule="evenodd" clip-rule="evenodd" d="M108.643 30.0086L104.194 29.8887L104.408 21.8151L108.856 21.9264L109.01 16.1559L104.561 16.036L104.817 6.42128L97.5385 6.22437L97.2913 15.8477L92.8427 15.7278L92.6978 21.4983L97.1379 21.6182L96.9249 29.7004L92.4847 29.5805L92.3398 34.9658L108.498 35.3939L108.643 30.0086Z" fill="#5322FF"/>
<path d="M133.818 30.7791L132.003 30.7192L132.088 28.3134L132.267 22.5428C132.395 18.5017 129.89 16.4213 126.404 16.31C122.918 16.1987 120.941 18.2106 120.012 22.0377L120.498 6.87503L110.535 6.54968L110.365 11.935L113.049 12.0206L112.478 30.1028L109.794 30.0172L109.632 35.4024L121.384 35.7534L121.555 30.3939L119.756 30.3339L119.91 25.3339C119.978 23.2192 120.668 21.9093 122.509 21.9521C124.35 21.9949 124.964 23.3733 124.895 25.4538L124.734 30.4795L122.066 30.3939L121.896 35.7792L132.975 36.1302L133.716 34.9315L133.818 30.7791Z" fill="#5322FF"/>
<path d="M127.333 34.9486L130.58 39.9572L131.96 40L132.02 38.9383L127.333 34.9486Z" fill="#CFB41E"/>
<path fill-rule="evenodd" clip-rule="evenodd" d="M135.625 29.8202L131.96 40L127.333 34.9486L135.625 29.8202Z" fill="white"/>
</g>
<defs>
<clipPath id="clip0_3537_156825">
<rect width="136" height="40" fill="white"/>
</clipPath>
</defs>
</svg>
