<svg width="90" height="90" viewBox="0 0 90 90" fill="none" xmlns="http://www.w3.org/2000/svg">
<mask id="mask0_3537_156841" style="mask-type:alpha" maskUnits="userSpaceOnUse" x="0" y="0" width="90" height="90">
<path d="M45 90C69.8528 90 90 69.8528 90 45C90 20.1472 69.8528 0 45 0C20.1472 0 0 20.1472 0 45C0 69.8528 20.1472 90 45 90Z" fill="#FEF6D0"/>
</mask>
<g mask="url(#mask0_3537_156841)">
<path d="M45 90C69.8528 90 90 69.8528 90 45C90 20.1472 69.8528 0 45 0C20.1472 0 0 20.1472 0 45C0 69.8528 20.1472 90 45 90Z" fill="#FFEFCC"/>
<path d="M25.0339 59.7437H12.3865C10.9477 59.7437 9.78125 60.9101 9.78125 62.3489V100.149C9.78125 101.588 10.9477 102.754 12.3865 102.754H25.0339C26.4727 102.754 27.6391 101.588 27.6391 100.149V62.3489C27.6391 60.9101 26.4727 59.7437 25.0339 59.7437Z" fill="#785CFB"/>
<path d="M51.2526 46.3738H38.6053C37.1664 46.3738 36 47.5402 36 48.979V89.5027C36 90.9416 37.1664 92.108 38.6053 92.108H51.2526C52.6915 92.108 53.8579 90.9416 53.8579 89.5027V48.979C53.8579 47.5402 52.6915 46.3738 51.2526 46.3738Z" fill="#785CFB"/>
<path d="M51.217 46.3738H44.9644V91.812H52.4012C52.8363 91.5901 53.2002 91.2503 53.4514 90.8316C53.7027 90.4128 53.8312 89.9318 53.8223 89.4435V48.979C53.8239 48.6364 53.7575 48.297 53.6271 47.9802C53.4968 47.6634 53.305 47.3756 53.0627 47.1334C52.8205 46.8911 52.5326 46.6993 52.2158 46.5689C51.899 46.4385 51.5596 46.3722 51.217 46.3738Z" fill="#6750FB"/>
<path d="M77.613 29.1436H64.9656C63.5268 29.1436 62.3604 30.31 62.3604 31.7488V97.662C62.3604 99.1008 63.5268 100.267 64.9656 100.267H77.613C79.0518 100.267 80.2182 99.1008 80.2182 97.662V31.7488C80.2182 30.31 79.0518 29.1436 77.613 29.1436Z" fill="#785CFB"/>
</g>
<path d="M44.9999 41.6251C52.1419 41.6251 57.9315 35.8355 57.9315 28.6935C57.9315 21.5516 52.1419 15.762 44.9999 15.762C37.858 15.762 32.0684 21.5516 32.0684 28.6935C32.0684 35.8355 37.858 41.6251 44.9999 41.6251Z" fill="#FF7D9D"/>
<path d="M50.2816 24.6672H39.2329V39.2567H50.2816V24.6672Z" fill="#BC3F31"/>
<path d="M46.5634 33.3828C46.5603 33.8278 46.3821 34.2538 46.0675 34.5685C45.7528 34.8832 45.3269 35.0613 44.8819 35.0644C44.4359 35.0644 44.0082 34.8872 43.6928 34.5719C43.3775 34.2565 43.2002 33.8288 43.2002 33.3828V30.6828C43.1987 30.4616 43.2411 30.2422 43.3251 30.0374C43.409 29.8327 43.5328 29.6467 43.6893 29.4903C43.8457 29.3338 44.0318 29.21 44.2365 29.1261C44.4412 29.0421 44.6606 28.9997 44.8819 29.0013C45.3279 29.0013 45.7556 29.1784 46.0709 29.4938C46.3863 29.8091 46.5634 30.2368 46.5634 30.6828V33.3828Z" fill="#FDBD7F"/>
<path d="M44.7635 30.2446C47.8113 30.2446 50.282 27.7739 50.282 24.7262C50.282 21.6784 47.8113 19.2078 44.7635 19.2078C41.7158 19.2078 39.2451 21.6784 39.2451 24.7262C39.2451 27.7739 41.7158 30.2446 44.7635 30.2446Z" fill="#BC3F31"/>
<path d="M40.8554 26.8814C41.1721 27.1278 41.3819 27.4865 41.4415 27.8833C41.501 28.2801 41.4056 28.6846 41.1752 29.013C40.9963 29.346 40.717 29.6143 40.3771 29.7797C40.0372 29.9451 39.6538 29.9992 39.2813 29.9345C38.9089 29.8698 38.5662 29.6895 38.302 29.4191C38.0379 29.1487 37.8655 28.8019 37.8095 28.4281C37.7534 28.0542 37.8164 27.6723 37.9897 27.3363C38.1629 27.0002 38.4375 26.7273 38.7746 26.5562C39.1117 26.385 39.494 26.3243 39.8675 26.3827C40.241 26.4411 40.5867 26.6156 40.8554 26.8814Z" fill="#FA944C"/>
<path d="M48.4931 26.8818C48.306 26.9804 48.1447 27.1215 48.0221 27.2939C47.8996 27.4662 47.8193 27.665 47.7877 27.8741C47.756 28.0832 47.7739 28.2968 47.84 28.4977C47.906 28.6986 48.0183 28.8811 48.1678 29.0307C48.3174 29.1802 48.5 29.2925 48.7009 29.3586C48.9018 29.4246 49.1153 29.4425 49.3244 29.4109C49.5335 29.3793 49.7323 29.2989 49.9046 29.1764C50.077 29.0539 50.2182 28.8926 50.3168 28.7055C50.5038 28.6069 50.6652 28.4657 50.7877 28.2933C50.9103 28.121 50.9905 27.9222 51.0222 27.7132C51.0538 27.5041 51.0359 27.2904 50.9699 27.0895C50.9038 26.8886 50.7915 26.7061 50.642 26.5566C50.4925 26.407 50.3099 26.2947 50.109 26.2287C49.9081 26.1626 49.6945 26.1447 49.4854 26.1763C49.2763 26.208 49.0776 26.2883 48.9052 26.4108C48.7329 26.5334 48.5917 26.6947 48.4931 26.8818Z" fill="#FA944C"/>
<path d="M49.9499 25.3778C49.9499 28.9304 47.5814 32.9212 44.763 32.9212C41.9446 32.9212 39.5762 28.9186 39.5762 25.3778C39.5762 24.0021 40.1227 22.6828 41.0954 21.7101C42.0681 20.7374 43.3874 20.1909 44.763 20.1909C46.1387 20.1909 47.458 20.7374 48.4307 21.7101C49.4034 22.6828 49.9499 24.0021 49.9499 25.3778Z" fill="#FFCBA1"/>
<path d="M45 41.6248C48.3592 41.6269 51.5856 40.3134 53.9882 37.9656C53.9687 37.8481 53.937 37.733 53.8934 37.6222C53.6329 37.113 46.575 33.3235 46.575 33.3235L45 34.3537L43.425 33.3235C43.425 33.3235 36.3197 37.113 36.0947 37.6222C36.0511 37.733 36.0194 37.8481 36 37.9656C38.4055 40.3162 41.6367 41.63 45 41.6248Z" fill="#FDBD7F"/>
<path d="M48.8488 34.5669C47.7793 35.5562 46.4316 36.1929 44.9883 36.3906C43.5471 36.1929 42.2047 35.5466 41.1514 34.5432C39.387 35.4407 37.6927 36.47 36.083 37.6222C36.0394 37.733 36.0077 37.8481 35.9883 37.9656C38.3945 40.3114 41.6219 41.6243 44.9823 41.6243C48.3428 41.6243 51.5703 40.3114 53.9764 37.9656C53.957 37.8481 53.9253 37.733 53.8817 37.6222C52.2874 36.4723 50.6045 35.4507 48.8488 34.5669Z" fill="#4C28ED"/>
<path d="M40.2038 28.6579L39.4341 26.2658V23.7789L40.2038 22.6895V28.6579Z" fill="#BC3F31"/>
<path d="M49.2632 28.8591L50.0329 26.2657V23.7789L49.2632 23.1394V28.8591Z" fill="#BC3F31"/>
<path d="M39.9553 24.5132H49.6421C49.8426 23.7616 49.7764 22.9637 49.4546 22.2555C49.1329 21.5473 48.5756 20.9725 47.8777 20.629C45.3553 19.2316 39.2329 19.8711 39.9553 24.5132Z" fill="#BC3F31"/>
</svg>
