<svg width="33" height="35" viewBox="0 0 33 35" fill="none" xmlns="http://www.w3.org/2000/svg">
<path d="M32.327 18.4761C32.3289 21.538 31.4332 24.5333 29.7506 27.0915C29.607 27.3048 29.4634 27.5017 29.3116 27.7233C27.8542 29.7097 25.95 31.3255 23.7528 32.4401C21.5557 33.5548 19.1271 34.137 16.6634 34.1397C16.2203 34.1397 15.7854 34.1397 15.3506 34.0863C12.5016 33.8504 9.7724 32.8356 7.46134 31.153C7.29724 31.034 7.13313 30.911 6.97313 30.7838C6.81313 30.6566 6.56288 30.4556 6.37006 30.2833C6.17724 30.111 6.06237 30.0125 5.91467 29.873C5.76698 29.7335 5.56596 29.5366 5.39775 29.3643C5.22955 29.192 5.11878 29.0689 4.9875 28.9171C4.85621 28.7653 4.64288 28.5069 4.47878 28.3181C4.31467 28.1294 4.22442 27.9981 4.10134 27.834C2.39065 25.5425 1.34322 22.8246 1.07365 19.9776C1.02852 19.4853 1.00391 18.9848 1.00391 18.4761C1.00391 14.3218 2.65417 10.3378 5.59167 7.40026C8.52916 4.46277 12.5133 2.8125 16.6675 2.8125C20.8217 2.8125 24.8058 4.46277 27.7433 7.40026C30.6808 10.3378 32.3311 14.3218 32.3311 18.4761H32.327Z" fill="#FFEFF3"/>
<path d="M32.4175 22.4021C33.1538 19.715 33.1757 16.8823 32.4809 14.1842C31.7862 11.4861 30.399 9.01619 28.4566 7.01887C26.5142 5.02154 24.0839 3.56605 21.4062 2.79641C18.7285 2.02678 15.8963 1.96969 13.1897 2.63079C10.4832 3.2919 7.99623 4.64828 5.9749 6.56571C3.95357 8.48314 2.46796 10.8951 1.66508 13.563C0.862199 16.231 0.769887 19.0623 1.39728 21.7768C2.02466 24.4913 3.35001 26.995 5.24214 29.04L32.4175 22.4021Z" fill="#FFEFF3"/>
<path d="M24.8196 27.2679H28.7376V1.74998C28.737 1.62017 28.7108 1.49176 28.6602 1.3722C28.6097 1.25263 28.5359 1.14429 28.4431 1.05345C28.3504 0.962623 28.2406 0.891112 28.12 0.843067C27.9994 0.795023 27.8704 0.771401 27.7406 0.773575H6.2227C5.96265 0.773575 5.71326 0.876878 5.52937 1.06076C5.34549 1.24464 5.24219 1.49404 5.24219 1.75409V29.0484C6.37966 30.2767 7.70148 31.3203 9.16014 32.1418H24.8196V27.2679Z" fill="#7A54FF"/>
<path d="M12.4217 0.773146H6.2227C5.96265 0.773146 5.71326 0.876449 5.52937 1.06033C5.34549 1.24421 5.24219 1.49361 5.24219 1.75366V29.048C6.37966 30.2763 7.70148 31.3199 9.16014 32.1414H12.4422V20.3506C12.1821 20.3506 11.9327 20.2473 11.7489 20.0634C11.565 19.8795 11.4617 19.6301 11.4617 19.3701C11.4617 19.11 11.565 18.8606 11.7489 18.6767C11.9327 18.4929 12.1821 18.3896 12.4422 18.3896V2.73007C12.1821 2.73007 11.9327 2.62677 11.7489 2.44288C11.565 2.259 11.4617 2.0096 11.4617 1.74956C11.4617 1.48951 11.565 1.24011 11.7489 1.05623C11.9327 0.872349 12.1821 0.769043 12.4422 0.769043L12.4217 0.773146Z" fill="#472FE3"/>
<path d="M24.8198 8.1946V3.38229C24.8198 3.20929 24.7511 3.04337 24.6288 2.92104C24.5065 2.79871 24.3405 2.72998 24.1675 2.72998H9.80856C9.63556 2.72998 9.46964 2.79871 9.34731 2.92104C9.22498 3.04337 9.15625 3.20929 9.15625 3.38229V11.0828L16.988 13.9874L24.8198 8.1946Z" fill="#4FABF7"/>
<path d="M11.7694 3.38229C11.7694 3.29663 11.7863 3.2118 11.819 3.13266C11.8518 3.05352 11.8999 2.98161 11.9604 2.92104C12.021 2.86047 12.0929 2.81242 12.1721 2.77963C12.2512 2.74685 12.336 2.72998 12.4217 2.72998H9.81247C9.63946 2.72998 9.47354 2.79871 9.35121 2.92104C9.22888 3.04337 9.16016 3.20929 9.16016 3.38229V11.0828L11.7694 12.051V3.38229Z" fill="#2E8BE6"/>
<path d="M24.8198 21.0029C24.8198 20.8299 24.7511 20.664 24.6288 20.5416C24.5065 20.4193 24.3405 20.3506 24.1675 20.3506H9.80856C9.63556 20.3506 9.46964 20.4193 9.34731 20.5416C9.22498 20.664 9.15625 20.8299 9.15625 21.0029V32.1372C11.5477 33.4792 14.2438 34.1839 16.986 34.1839C19.7282 34.1839 22.4243 33.4792 24.8157 32.1372L24.8198 21.0029Z" fill="#4FABF7"/>
<path d="M11.7694 21.0029C11.7694 20.9172 11.7863 20.8324 11.819 20.7533C11.8518 20.6741 11.8999 20.6022 11.9604 20.5416C12.021 20.4811 12.0929 20.433 12.1721 20.4002C12.2512 20.3675 12.336 20.3506 12.4217 20.3506H9.81247C9.63946 20.3506 9.47354 20.4193 9.35121 20.5416C9.22888 20.664 9.16016 20.8299 9.16016 21.0029V32.1372C9.99161 32.6085 10.8651 33.0013 11.7694 33.3106V21.0029Z" fill="#2E8BE6"/>
<path d="M26.7812 2.72998C26.9542 2.72998 27.1201 2.79871 27.2425 2.92104C27.3648 3.04337 27.4335 3.20929 27.4335 3.38229V4.5228C27.4335 4.6958 27.3648 4.86172 27.2425 4.98405C27.1201 5.10638 26.9542 5.17511 26.7812 5.17511C26.6082 5.17511 26.4423 5.10638 26.32 4.98405C26.1976 4.86172 26.1289 4.6958 26.1289 4.5228V3.38229C26.1289 3.20929 26.1976 3.04337 26.32 2.92104C26.4423 2.79871 26.6082 2.72998 26.7812 2.72998Z" fill="#2D3C6B"/>
<path d="M26.7812 7.13232C26.9539 7.1334 27.1192 7.20247 27.2413 7.32457C27.3634 7.44667 27.4324 7.61196 27.4335 7.78463V8.92925C27.4335 9.10225 27.3648 9.26817 27.2425 9.3905C27.1201 9.51283 26.9542 9.58156 26.7812 9.58156C26.6082 9.58156 26.4423 9.51283 26.32 9.3905C26.1976 9.26817 26.1289 9.10225 26.1289 8.92925V7.78463C26.1289 7.61163 26.1976 7.44571 26.32 7.32338C26.4423 7.20105 26.6082 7.13232 26.7812 7.13232Z" fill="#2D3C6B"/>
<path d="M26.7812 11.5386C26.9542 11.5386 27.1201 11.6073 27.2425 11.7296C27.3648 11.852 27.4335 12.0179 27.4335 12.1909V13.3355C27.4335 13.5085 27.3648 13.6744 27.2425 13.7967C27.1201 13.9191 26.9542 13.9878 26.7812 13.9878C26.6082 13.9878 26.4423 13.9191 26.32 13.7967C26.1976 13.6744 26.1289 13.5085 26.1289 13.3355V12.1909C26.1289 12.0179 26.1976 11.852 26.32 11.7296C26.4423 11.6073 26.6082 11.5386 26.7812 11.5386Z" fill="#2D3C6B"/>
<path d="M26.7812 15.9526C26.9542 15.9526 27.1201 16.0214 27.2425 16.1437C27.3648 16.266 27.4335 16.4319 27.4335 16.6049V17.7455C27.4335 17.9185 27.3648 18.0844 27.2425 18.2067C27.1201 18.329 26.9542 18.3978 26.7812 18.3978C26.6082 18.3978 26.4423 18.329 26.32 18.2067C26.1976 18.0844 26.1289 17.9185 26.1289 17.7455V16.6049C26.1289 16.4319 26.1976 16.266 26.32 16.1437C26.4423 16.0214 26.6082 15.9526 26.7812 15.9526Z" fill="#2D3C6B"/>
<path d="M7.19918 2.72998C7.11352 2.72998 7.0287 2.74685 6.94956 2.77963C6.87042 2.81242 6.79851 2.86047 6.73793 2.92104C6.67736 2.98161 6.62931 3.05352 6.59653 3.13266C6.56375 3.2118 6.54688 3.29663 6.54688 3.38229V4.5228C6.54688 4.6958 6.6156 4.86172 6.73793 4.98405C6.86027 5.10638 7.02618 5.17511 7.19918 5.17511C7.37219 5.17511 7.5381 5.10638 7.66043 4.98405C7.78277 4.86172 7.85149 4.6958 7.85149 4.5228V3.38229C7.85149 3.20929 7.78277 3.04337 7.66043 2.92104C7.5381 2.79871 7.37219 2.72998 7.19918 2.72998Z" fill="#222D5B"/>
<path d="M7.19918 7.13232C7.02651 7.1334 6.86122 7.20247 6.73912 7.32457C6.61702 7.44667 6.54795 7.61196 6.54688 7.78463V8.92925C6.54688 9.10225 6.6156 9.26817 6.73793 9.3905C6.86027 9.51283 7.02618 9.58156 7.19918 9.58156C7.37219 9.58156 7.5381 9.51283 7.66043 9.3905C7.78277 9.26817 7.85149 9.10225 7.85149 8.92925V7.78463C7.85149 7.61163 7.78277 7.44571 7.66043 7.32338C7.5381 7.20105 7.37219 7.13232 7.19918 7.13232Z" fill="#222D5B"/>
<path d="M7.19918 11.5386C7.11352 11.5386 7.0287 11.5554 6.94956 11.5882C6.87042 11.621 6.79851 11.6691 6.73793 11.7296C6.67736 11.7902 6.62931 11.8621 6.59653 11.9412C6.56375 12.0204 6.54688 12.1052 6.54688 12.1909V13.3355C6.54688 13.5085 6.6156 13.6744 6.73793 13.7967C6.86027 13.9191 7.02618 13.9878 7.19918 13.9878C7.37219 13.9878 7.5381 13.9191 7.66043 13.7967C7.78277 13.6744 7.85149 13.5085 7.85149 13.3355V12.1909C7.85149 12.0179 7.78277 11.852 7.66043 11.7296C7.5381 11.6073 7.37219 11.5386 7.19918 11.5386Z" fill="#222D5B"/>
<path d="M7.19918 15.9526C7.11352 15.9526 7.0287 15.9695 6.94956 16.0023C6.87042 16.0351 6.79851 16.0831 6.73793 16.1437C6.67736 16.2043 6.62931 16.2762 6.59653 16.3553C6.56375 16.4345 6.54688 16.5193 6.54688 16.6049V17.7455C6.54688 17.9185 6.6156 18.0844 6.73793 18.2067C6.86027 18.329 7.02618 18.3978 7.19918 18.3978C7.37219 18.3978 7.5381 18.329 7.66043 18.2067C7.78277 18.0844 7.85149 17.9185 7.85149 17.7455V16.6049C7.85149 16.4319 7.78277 16.266 7.66043 16.1437C7.5381 16.0214 7.37219 15.9526 7.19918 15.9526Z" fill="#222D5B"/>
<path d="M7.19918 20.3506C7.11352 20.3506 7.0287 20.3675 6.94956 20.4002C6.87042 20.433 6.79851 20.4811 6.73793 20.5416C6.67736 20.6022 6.62931 20.6741 6.59653 20.7533C6.56375 20.8324 6.54688 20.9172 6.54688 21.0029V22.1434C6.54688 22.3164 6.6156 22.4823 6.73793 22.6047C6.86027 22.727 7.02618 22.7957 7.19918 22.7957C7.37219 22.7957 7.5381 22.727 7.66043 22.6047C7.78277 22.4823 7.85149 22.3164 7.85149 22.1434V21.0029C7.85149 20.8299 7.78277 20.664 7.66043 20.5416C7.5381 20.4193 7.37219 20.3506 7.19918 20.3506Z" fill="#222D5B"/>
<path d="M7.19918 24.7529C7.0293 24.7539 6.86641 24.8207 6.74476 24.9393C6.62312 25.0579 6.55218 25.219 6.54688 25.3888V26.5334C6.54688 26.7064 6.6156 26.8724 6.73793 26.9947C6.86027 27.117 7.02618 27.1858 7.19918 27.1858C7.37219 27.1858 7.5381 27.117 7.66043 26.9947C7.78277 26.8724 7.85149 26.7064 7.85149 26.5334V25.3888C7.84721 25.2187 7.7766 25.057 7.65473 24.9382C7.53286 24.8193 7.36938 24.7529 7.19918 24.7529Z" fill="#222D5B"/>
<path d="M7.19918 29.1592C7.11352 29.1592 7.0287 29.1761 6.94956 29.2088C6.87042 29.2416 6.79851 29.2897 6.73793 29.3502C6.67736 29.4108 6.62931 29.4827 6.59653 29.5619C6.56375 29.641 6.54688 29.7258 6.54688 29.8115V30.312C6.96436 30.6716 7.39979 31.0098 7.85149 31.3253V29.8197C7.85258 29.7333 7.83651 29.6476 7.80421 29.5675C7.77192 29.4875 7.72404 29.4146 7.66336 29.3531C7.60268 29.2917 7.5304 29.2429 7.45072 29.2096C7.37104 29.1763 7.28554 29.1592 7.19918 29.1592Z" fill="#222D5B"/>
<path d="M22.4818 5.85657C22.3609 5.73476 22.2171 5.63808 22.0587 5.57211C21.9003 5.50614 21.7303 5.47217 21.5587 5.47217C21.3871 5.47217 21.2172 5.50614 21.0588 5.57211C20.9003 5.63808 20.7565 5.73476 20.6356 5.85657L13.8418 12.6709L22.9905 18.4145H24.1679C24.341 18.4145 24.5069 18.3458 24.6292 18.2235C24.7515 18.1011 24.8203 17.9352 24.8203 17.7622V8.19503L22.4818 5.85657Z" fill="#2E8BE6"/>
<path d="M20.6356 5.85645L13.8418 12.6708L22.9905 18.4144C26.7567 12.2605 16.8367 10.3323 20.6356 5.88106V5.85645Z" fill="#157DD1"/>
<path d="M9.16016 11.0832V17.7376C9.16016 17.8232 9.17703 17.9081 9.20981 17.9872C9.24259 18.0664 9.29064 18.1383 9.35121 18.1988C9.41178 18.2594 9.4837 18.3075 9.56284 18.3402C9.64198 18.373 9.7268 18.3899 9.81247 18.3899H22.9899L13.3448 8.74476C13.0995 8.50075 12.7677 8.36377 12.4217 8.36377C12.0757 8.36377 11.7439 8.50075 11.4986 8.74476L9.16016 11.0832Z" fill="#2E8BE6"/>
<path d="M11.7694 8.56787H11.7407C11.6529 8.62119 11.5717 8.68452 11.4986 8.75659L9.16016 11.0951V17.7494C9.16016 17.9224 9.22888 18.0883 9.35121 18.2107C9.47354 18.333 9.63946 18.4017 9.81247 18.4017H22.9899C20.475 16.2027 6.53452 14.0243 11.7694 8.58018V8.56787Z" fill="#157DD1"/>
<path d="M24.8196 32.1372L17.8945 25.2285C17.7737 25.1073 17.6302 25.0112 17.4721 24.9456C17.3141 24.88 17.1446 24.8462 16.9735 24.8462C16.8024 24.8462 16.6329 24.88 16.4749 24.9456C16.3168 25.0112 16.1733 25.1073 16.0525 25.2285L9.16016 32.1372C11.5516 33.4792 14.2477 34.1839 16.9899 34.1839C19.7321 34.1839 22.4282 33.4792 24.8196 32.1372Z" fill="#2E8BE6"/>
<path d="M9.16016 32.1375C11.5499 33.4859 14.2481 34.1926 16.992 34.1888C17.9661 34.1889 18.9382 34.1011 19.8966 33.9262C16.7786 32.6668 14.0545 27.2473 16.0689 25.2329L9.16016 32.1375Z" fill="#157DD1"/>
<path d="M24.8201 16.4736C22.743 16.4736 20.7509 17.2988 19.2822 18.7675C17.8134 20.2363 16.9883 22.2283 16.9883 24.3054C16.9883 26.3825 17.8134 28.3746 19.2822 29.8433C20.7509 31.3121 22.743 32.1372 24.8201 32.1372C26.6683 31.0988 28.2918 29.7034 29.5962 28.0321C30.9005 26.3608 31.8597 24.447 32.418 22.4018C31.9936 20.7081 31.0154 19.2048 29.6388 18.1307C28.2622 17.0567 26.5661 16.4734 24.8201 16.4736Z" fill="#AF31AD"/>
<path d="M26.1288 16.5844C25.6965 16.51 25.2587 16.473 24.8201 16.4736C22.743 16.4736 20.7509 17.2988 19.2822 18.7675C17.8134 20.2363 16.9883 22.2283 16.9883 24.3054C16.9883 26.3826 17.8134 28.3746 19.2822 29.8434C20.7509 31.3121 22.743 32.1372 24.8201 32.1372C24.9883 32.0429 25.1524 31.9485 25.3165 31.846C23.6039 31.3638 22.1065 30.3129 21.0708 28.8662C20.0352 27.4196 19.5229 25.6634 19.6184 23.8868C19.7139 22.1102 20.4115 20.419 21.5963 19.0918C22.7812 17.7645 24.3826 16.8802 26.137 16.5844H26.1288Z" fill="#852583"/>
<path d="M23.8934 20.5684L28.2872 23.3376C28.4534 23.4416 28.5904 23.5862 28.6853 23.7577C28.7803 23.9292 28.8301 24.1221 28.8301 24.3181C28.8301 24.5141 28.7803 24.707 28.6853 24.8785C28.5904 25.05 28.4534 25.1946 28.2872 25.2986L23.8934 28.0555C23.7183 28.1655 23.5169 28.2266 23.3101 28.2323C23.1034 28.2381 22.8989 28.1883 22.718 28.0882C22.537 27.9881 22.3862 27.8413 22.2812 27.6631C22.1762 27.4849 22.1209 27.2818 22.1211 27.075V21.5489C22.1209 21.3421 22.1762 21.139 22.2812 20.9608C22.3862 20.7826 22.537 20.6358 22.718 20.5357C22.8989 20.4356 23.1034 20.3858 23.3101 20.3916C23.5169 20.3973 23.7183 20.4583 23.8934 20.5684Z" fill="white"/>
<path d="M24.078 20.6873L23.8934 20.5684C23.7183 20.4583 23.5169 20.3973 23.3101 20.3916C23.1034 20.3858 22.8989 20.4356 22.718 20.5357C22.537 20.6358 22.3862 20.7826 22.2812 20.9608C22.1762 21.139 22.1209 21.3421 22.1211 21.5489V27.0627C22.1209 27.2695 22.1762 27.4726 22.2812 27.6508C22.3862 27.829 22.537 27.9758 22.718 28.0759C22.8989 28.176 23.1034 28.2258 23.3101 28.22C23.5169 28.2143 23.7183 28.1532 23.8934 28.0432L24.078 27.9242V20.6873Z" fill="#EBF5FF"/>
<path d="M20.3963 7.21834V12.8676C20.3963 13.6019 19.6496 14.1968 18.7553 14.1968C18.3514 14.2013 17.9564 14.0778 17.627 13.844C17.4636 13.7388 17.3292 13.5943 17.2361 13.4237C17.143 13.2531 17.0942 13.0619 17.0942 12.8676C17.0942 12.6732 17.143 12.482 17.2361 12.3114C17.3292 12.1408 17.4636 11.9963 17.627 11.8912C17.9365 11.6757 18.3013 11.5537 18.6782 11.5399C19.055 11.5261 19.4278 11.621 19.7522 11.8132V9.05219L17.6065 9.96295L15.744 10.763V14.8655C15.744 15.5999 14.9973 16.1948 14.0824 16.1948C13.1676 16.1948 12.4414 15.5999 12.4414 14.8655C12.4414 14.1312 13.1881 13.5363 14.0824 13.5363C14.4338 13.534 14.7789 13.6291 15.0794 13.8112V9.21629C15.0797 9.15161 15.0989 9.08844 15.1346 9.03451C15.1703 8.98059 15.221 8.93825 15.2804 8.9127L19.945 6.92706C19.9952 6.90512 20.0501 6.89625 20.1046 6.90127C20.1591 6.90629 20.2115 6.92505 20.2568 6.95578C20.303 6.98526 20.3412 7.02586 20.3677 7.07388C20.3942 7.1219 20.4083 7.1758 20.4086 7.23065L20.3963 7.21834Z" fill="#EBF5FF"/>
<path d="M20.245 6.92729C20.1988 6.9032 20.1474 6.89062 20.0953 6.89062C20.0431 6.89062 19.9918 6.9032 19.9455 6.92729L17.6071 7.9119V9.96318L19.7322 9.05242V11.8134C19.4078 11.6212 19.035 11.5263 18.6582 11.5401C18.2814 11.5539 17.9165 11.6759 17.6071 11.8914C17.4436 11.9965 17.3092 12.141 17.2161 12.3116C17.123 12.4822 17.0742 12.6735 17.0742 12.8678C17.0742 13.0621 17.123 13.2534 17.2161 13.424C17.3092 13.5946 17.4436 13.7391 17.6071 13.8442C17.9364 14.0781 18.3314 14.2016 18.7353 14.197C19.6501 14.197 20.3763 13.6022 20.3763 12.8678V7.21857C20.376 7.16372 20.3619 7.10982 20.3354 7.06181C20.3089 7.01379 20.2708 6.97318 20.2245 6.9437L20.245 6.92729Z" fill="white"/>
</svg>
