<svg width="32" height="33" viewBox="0 0 32 33" fill="none" xmlns="http://www.w3.org/2000/svg">
<path d="M31.9795 16.2418C31.9794 18.6597 31.4294 21.0459 30.3713 23.2197C30.0698 23.8412 29.7271 24.4418 29.3456 25.0176C29.2034 25.2338 29.0557 25.4472 28.9026 25.6579C27.421 27.6959 25.4795 29.3551 23.2361 30.5006C20.9926 31.6461 18.5105 32.2455 15.9918 32.25C15.5364 32.25 15.0933 32.25 14.6503 32.1966C11.7422 31.9547 8.9564 30.9182 6.59692 29.2002L6.09641 28.8226C5.88718 28.6584 5.68615 28.486 5.48103 28.3095C5.2759 28.133 5.16923 28.0345 5.01744 27.899C4.86564 27.7636 4.66051 27.5543 4.4882 27.3778C4.3159 27.2013 4.20513 27.074 4.07795 26.918C3.95077 26.7621 3.72513 26.5076 3.56103 26.3105C3.39692 26.1135 3.29846 25.9822 3.17538 25.8139C1.42529 23.4743 0.352288 20.6982 0.0738463 17.7892C0.0246155 17.2844 0 16.7754 0 16.2582C6.32325e-08 12.0126 1.68571 7.94082 4.68629 4.9387C7.68687 1.93657 11.7565 0.25 16 0.25C20.2435 0.25 24.3131 1.93657 27.3137 4.9387C30.3143 7.94082 32 12.0126 32 16.2582L31.9795 16.2418Z" fill="#FFEFF3"/>
<path d="M7.82031 14.2603H23.5085V28.4838H7.82031V14.2603Z" fill="#EDF5FF"/>
<path d="M15.6641 14.2603H23.5082V28.4838H15.6641V14.2603Z" fill="#D5E8FE"/>
<path d="M29.0507 4.84902V22.1044C29.0496 22.3126 28.9661 22.5119 28.8185 22.6587C28.6709 22.8056 28.4712 22.888 28.263 22.888H23.5081V14.2726H7.81991V22.888H3.06504C2.85684 22.888 2.6571 22.8056 2.5095 22.6587C2.3619 22.5119 2.27843 22.3126 2.27734 22.1044V4.84902C2.27843 4.64082 2.3619 4.44153 2.5095 4.29469C2.6571 4.14786 2.85684 4.06543 3.06504 4.06543H28.263C28.4712 4.06543 28.6709 4.14786 28.8185 4.29469C28.9661 4.44153 29.0496 4.64082 29.0507 4.84902Z" fill="#5A2BFF"/>
<path d="M29.0507 4.84902V22.1044C29.0496 22.3126 28.9662 22.5119 28.8186 22.6587C28.671 22.8056 28.4712 22.888 28.263 22.888H23.5082V14.2726H15.6641V4.06543H28.263C28.4712 4.06543 28.671 4.14786 28.8186 4.29469C28.9662 4.44153 29.0496 4.64082 29.0507 4.84902Z" fill="#683DFF"/>
<path d="M12.866 7.54032H5.02187C4.81405 7.54032 4.61474 7.45777 4.46779 7.31082C4.32084 7.16386 4.23828 6.96455 4.23828 6.75673C4.23828 6.54891 4.32084 6.3496 4.46779 6.20265C4.61474 6.0557 4.81405 5.97314 5.02187 5.97314H12.866C13.0738 5.97314 13.2731 6.0557 13.4201 6.20265C13.567 6.3496 13.6496 6.54891 13.6496 6.75673C13.6496 6.96455 13.567 7.16386 13.4201 7.31082C13.2731 7.45777 13.0738 7.54032 12.866 7.54032Z" fill="#EDF5FF"/>
<path d="M24.0728 6.34238C24.3945 6.34238 24.6554 6.08155 24.6554 5.75981C24.6554 5.43806 24.3945 5.17725 24.0728 5.17725C23.7511 5.17725 23.4902 5.43806 23.4902 5.75981C23.4902 6.08155 23.7511 6.34238 24.0728 6.34238Z" fill="#C5F306"/>
<path d="M25.7935 6.34238C26.1152 6.34238 26.3761 6.08155 26.3761 5.75981C26.3761 5.43806 26.1152 5.17725 25.7935 5.17725C25.4718 5.17725 25.2109 5.43806 25.2109 5.75981C25.2109 6.08155 25.4718 6.34238 25.7935 6.34238Z" fill="#FED843"/>
<path d="M27.5123 6.34238C27.834 6.34238 28.0948 6.08155 28.0948 5.75981C28.0948 5.43806 27.834 5.17725 27.5123 5.17725C27.1905 5.17725 26.9297 5.43806 26.9297 5.75981C26.9297 6.08155 27.1905 6.34238 27.5123 6.34238Z" fill="#FF6C6C"/>
<path d="M22.7243 28.4838C22.7233 28.692 22.6398 28.8913 22.4922 29.0381C22.3446 29.185 22.1449 29.2674 21.9367 29.2674H9.39101C9.18319 29.2674 8.98388 29.1848 8.83693 29.0379C8.68998 28.8909 8.60742 28.6916 8.60742 28.4838C8.60742 28.276 8.68998 28.0767 8.83693 27.9297C8.98388 27.7828 9.18319 27.7002 9.39101 27.7002H21.9367C22.0399 27.6997 22.1422 27.7195 22.2378 27.7587C22.3333 27.7978 22.4202 27.8554 22.4934 27.9283C22.5666 28.0011 22.6247 28.0876 22.6643 28.183C22.7039 28.2783 22.7243 28.3805 22.7243 28.4838Z" fill="#76E2F8"/>
<path d="M22.7246 28.4838C22.7235 28.692 22.64 28.8913 22.4924 29.0381C22.3448 29.185 22.1451 29.2674 21.9369 29.2674H15.6641V27.7207H21.9369C22.1419 27.7196 22.3392 27.7988 22.4865 27.9415C22.6337 28.0841 22.7192 28.2788 22.7246 28.4838Z" fill="#3AAAFF"/>
<path d="M24.2801 15.8231V26.9001C24.2801 27.1079 24.1975 27.3072 24.0506 27.4542C23.9036 27.6011 23.7043 27.6837 23.4965 27.6837C23.2887 27.6837 23.0893 27.6011 22.9424 27.4542C22.7954 27.3072 22.7129 27.1079 22.7129 26.9001V15.8231C22.7129 15.6153 22.7954 15.416 22.9424 15.2691C23.0893 15.1221 23.2887 15.0396 23.4965 15.0396C23.7043 15.0396 23.9036 15.1221 24.0506 15.2691C24.1975 15.416 24.2801 15.6153 24.2801 15.8231Z" fill="#3AAAFF"/>
<path d="M22.7243 14.2602C22.7243 14.3634 22.7039 14.4656 22.6643 14.561C22.6247 14.6563 22.5666 14.7429 22.4934 14.8157C22.4202 14.8885 22.3333 14.9461 22.2378 14.9853C22.1422 15.0244 22.0399 15.0443 21.9367 15.0437H9.39101C9.18319 15.0437 8.98388 14.9612 8.83693 14.8142C8.68998 14.6673 8.60742 14.468 8.60742 14.2602C8.60742 14.0523 8.68998 13.853 8.83693 13.7061C8.98388 13.5591 9.18319 13.4766 9.39101 13.4766H21.9367C22.1449 13.4766 22.3446 13.559 22.4922 13.7058C22.6398 13.8527 22.7233 14.052 22.7243 14.2602Z" fill="#76E2F8"/>
<path d="M22.7246 14.2602C22.7246 14.3634 22.7042 14.4656 22.6645 14.561C22.6249 14.6563 22.5668 14.7429 22.4936 14.8157C22.4204 14.8885 22.3336 14.9461 22.238 14.9853C22.1425 15.0244 22.0401 15.0443 21.9369 15.0437H15.6641V13.4766H21.9369C22.1451 13.4766 22.3448 13.559 22.4924 13.7058C22.64 13.8527 22.7235 14.052 22.7246 14.2602Z" fill="#3AAAFF"/>
<path d="M8.60399 15.8231V26.9001C8.6179 27.0104 8.60818 27.1224 8.57546 27.2286C8.54275 27.3349 8.48781 27.433 8.41427 27.5164C8.34074 27.5997 8.2503 27.6665 8.14897 27.7123C8.04764 27.758 7.93773 27.7817 7.82656 27.7817C7.71538 27.7817 7.60547 27.758 7.50414 27.7123C7.40281 27.6665 7.31238 27.5997 7.23885 27.5164C7.16531 27.433 7.11036 27.3349 7.07765 27.2286C7.04494 27.1224 7.03522 27.0104 7.04912 26.9001V15.8231C7.04912 15.6153 7.13168 15.416 7.27863 15.2691C7.42558 15.1221 7.62489 15.0396 7.83271 15.0396C8.04053 15.0396 8.23984 15.1221 8.38679 15.2691C8.53375 15.416 8.6163 15.6153 8.6163 15.8231H8.60399Z" fill="#76E2F8"/>
<path d="M9.39081 26.1289H6.25235C6.04664 26.1289 5.84918 26.2098 5.70258 26.3541C5.55597 26.4984 5.47199 26.6945 5.46876 26.9002V30.0386C5.46822 30.1417 5.48811 30.2438 5.5273 30.3392C5.56648 30.4345 5.62419 30.5211 5.69706 30.5939C5.76993 30.6668 5.85652 30.7245 5.95184 30.7637C6.04716 30.8029 6.14929 30.8228 6.25235 30.8222H9.39081C9.59863 30.8222 9.79794 30.7397 9.94489 30.5927C10.0918 30.4458 10.1744 30.2465 10.1744 30.0386V26.9002C10.1701 26.6948 10.0858 26.4993 9.93944 26.3552C9.79306 26.2111 9.5962 26.1299 9.39081 26.1289Z" fill="#76E2F8"/>
<path d="M7.04883 27.7207H8.61601V29.2879H7.04883V27.7207Z" fill="#FFEFF3"/>
<path d="M9.39084 16.6152H6.25238C6.14878 16.6152 6.04622 16.5947 5.95061 16.5548C5.855 16.5149 5.76825 16.4565 5.69538 16.3828C5.62251 16.3092 5.56496 16.2218 5.52607 16.1258C5.48718 16.0298 5.46771 15.927 5.46879 15.8234V12.685C5.46825 12.5819 5.48814 12.4798 5.52733 12.3845C5.56652 12.2891 5.62422 12.2025 5.69709 12.1297C5.76996 12.0568 5.85656 11.9991 5.95187 11.9599C6.04719 11.9207 6.14933 11.9008 6.25238 11.9014H9.39084C9.49375 11.9014 9.59564 11.9216 9.69071 11.961C9.78578 12.0004 9.87216 12.0581 9.94493 12.1309C10.0177 12.2036 10.0754 12.29 10.1148 12.3851C10.1542 12.4802 10.1744 12.5821 10.1744 12.685V15.8234C10.175 15.9269 10.1551 16.0294 10.116 16.1252C10.077 16.2209 10.0194 16.3081 9.94663 16.3816C9.87386 16.4551 9.78733 16.5136 9.69197 16.5537C9.59661 16.5938 9.49428 16.6147 9.39084 16.6152Z" fill="#76E2F8"/>
<path d="M7.04883 13.4766H8.61601V15.0437H7.04883V13.4766Z" fill="#5A2BFF"/>
<path d="M25.0744 16.6153H21.9359C21.7284 16.6142 21.5298 16.5313 21.383 16.3846C21.2363 16.2379 21.1534 16.0392 21.1523 15.8317V12.6933C21.1523 12.4854 21.2349 12.2861 21.3819 12.1392C21.5288 11.9922 21.7281 11.9097 21.9359 11.9097H25.0744C25.1775 11.9091 25.2796 11.929 25.3749 11.9682C25.4702 12.0074 25.5568 12.0651 25.6297 12.138C25.7026 12.2109 25.7603 12.2974 25.7994 12.3928C25.8386 12.4881 25.8585 12.5902 25.858 12.6933V15.8235C25.8591 15.9271 25.8396 16.0299 25.8007 16.1259C25.7618 16.2219 25.7043 16.3093 25.6314 16.3829C25.5585 16.4566 25.4718 16.515 25.3762 16.5549C25.2806 16.5948 25.178 16.6153 25.0744 16.6153Z" fill="#3AAAFF"/>
<path d="M22.7252 13.4766H24.2801V15.0437H22.7129L22.7252 13.4766Z" fill="#683DFF"/>
<path d="M25.0744 26.1289H21.9359C21.7284 26.13 21.5298 26.2129 21.383 26.3596C21.2363 26.5063 21.1534 26.705 21.1523 26.9125V30.051C21.1523 30.2588 21.2349 30.4581 21.3819 30.605C21.5288 30.752 21.7281 30.8345 21.9359 30.8345H25.0744C25.1775 30.8351 25.2796 30.8152 25.3749 30.776C25.4702 30.7368 25.5568 30.6791 25.6297 30.6063C25.7026 30.5334 25.7603 30.4468 25.7994 30.3515C25.8386 30.2561 25.8585 30.154 25.858 30.051V26.9002C25.8548 26.6945 25.7708 26.4984 25.6242 26.3541C25.4776 26.2098 25.2801 26.1289 25.0744 26.1289Z" fill="#3AAAFF"/>
<path d="M22.7252 27.7207H24.2801V29.2879H22.7129L22.7252 27.7207Z" fill="#FFEFF3"/>
<path d="M19.5863 18.182V19.7492C19.5863 19.8521 19.566 19.954 19.5266 20.0491C19.4873 20.1441 19.4295 20.2305 19.3568 20.3033C19.284 20.376 19.1976 20.4338 19.1026 20.4732C19.0075 20.5125 18.9056 20.5328 18.8027 20.5328C18.6998 20.5328 18.5979 20.5125 18.5028 20.4732C18.4078 20.4338 18.3214 20.376 18.2486 20.3033C18.1759 20.2305 18.1181 20.1441 18.0788 20.0491C18.0394 19.954 18.0191 19.8521 18.0191 19.7492V18.9656H16.4478V23.7779H17.2314C17.4392 23.7779 17.6385 23.8605 17.7855 24.0074C17.9324 24.1544 18.015 24.3537 18.015 24.5615C18.015 24.7693 17.9324 24.9686 17.7855 25.1156C17.6385 25.2625 17.4392 25.3451 17.2314 25.3451H14.0971C13.8892 25.3451 13.6899 25.2625 13.543 25.1156C13.396 24.9686 13.3135 24.7693 13.3135 24.5615C13.3135 24.3537 13.396 24.1544 13.543 24.0074C13.6899 23.8605 13.8892 23.7779 14.0971 23.7779H14.8806V18.9656H13.3094V19.7492C13.3094 19.957 13.2268 20.1563 13.0799 20.3033C12.9329 20.4502 12.7336 20.5328 12.5258 20.5328C12.318 20.5328 12.1186 20.4502 11.9717 20.3033C11.8247 20.1563 11.7422 19.957 11.7422 19.7492V18.182C11.7422 17.9742 11.8247 17.7749 11.9717 17.6279C12.1186 17.481 12.318 17.3984 12.5258 17.3984H18.8027C19.0105 17.3984 19.2098 17.481 19.3568 17.6279C19.5037 17.7749 19.5863 17.9742 19.5863 18.182Z" fill="#528BBA"/>
<path d="M19.5861 18.182V19.7492C19.5861 19.8521 19.5658 19.954 19.5265 20.0491C19.4871 20.1441 19.4294 20.2305 19.3566 20.3033C19.2838 20.376 19.1975 20.4338 19.1024 20.4732C19.0073 20.5125 18.9054 20.5328 18.8025 20.5328C18.6996 20.5328 18.5977 20.5125 18.5027 20.4732C18.4076 20.4338 18.3212 20.376 18.2484 20.3033C18.1757 20.2305 18.118 20.1441 18.0786 20.0491C18.0392 19.954 18.0189 19.8521 18.0189 19.7492V18.9656H16.4477V23.7779H17.2312C17.4391 23.7779 17.6384 23.8605 17.7853 24.0074C17.9323 24.1544 18.0148 24.3537 18.0148 24.5615C18.0148 24.7693 17.9323 24.9686 17.7853 25.1156C17.6384 25.2625 17.4391 25.3451 17.2312 25.3451H15.6641V17.3984H18.8025C19.0103 17.3984 19.2097 17.481 19.3566 17.6279C19.5036 17.7749 19.5861 17.9742 19.5861 18.182Z" fill="#39689E"/>
</svg>
