<svg width="32" height="32" viewBox="0 0 32 32" fill="none" xmlns="http://www.w3.org/2000/svg">
<path d="M15.9903 0C19.1498 0 22.2384 0.937304 24.8654 2.69338C27.4924 4.44945 29.5399 6.94543 30.749 9.86567C31.9581 12.7859 32.2745 15.9993 31.6581 19.0994C31.0417 22.1995 29.5202 25.0472 27.2861 27.2822C25.052 29.5173 22.2056 31.0394 19.1068 31.656C16.008 32.2727 12.7961 31.9562 9.87707 30.7466C6.95807 29.537 4.46317 27.4886 2.70785 24.8604C0.952525 22.2323 0.015625 19.1424 0.015625 15.9815C0.015625 11.743 1.69867 7.67801 4.69451 4.68089C7.69034 1.68377 11.7536 0 15.9903 0Z" fill="#FFEFF3"/>
<path d="M22.2422 25.7464C21.5856 25.7455 20.9458 25.9536 20.4153 26.3406L17.8635 16.8173L16.7985 12.8465C16.7885 12.8066 16.7707 12.7692 16.746 12.7363C16.7213 12.7035 16.6903 12.676 16.6547 12.6553C16.6192 12.6347 16.5799 12.6214 16.5392 12.6162C16.4985 12.611 16.4571 12.6141 16.4176 12.6252C15.8418 12.7845 15.3438 13.1482 15.0166 13.6482C14.6894 14.1483 14.5555 14.7504 14.6399 15.342L15.8687 23.2345C15.8924 23.4093 15.9535 23.5769 16.0477 23.726C16.1419 23.8751 16.2671 24.0021 16.4147 24.0985C16.5624 24.1949 16.7291 24.2584 16.9034 24.2847C17.0778 24.311 17.2557 24.2994 17.4252 24.2507L17.8922 24.1278L18.5639 26.6357C18.7237 27.3487 19.1456 29.2296 19.166 29.3648C19.2615 29.9542 19.5236 30.5039 19.9214 30.949C20.3192 31.3941 20.8361 31.7159 21.4109 31.8764C21.9857 32.0369 22.5945 32.0294 23.1652 31.8548C23.7359 31.6802 24.2447 31.3458 24.6314 30.891C25.0182 30.4363 25.2667 29.8803 25.3476 29.2887C25.4285 28.6972 25.3384 28.0948 25.088 27.5529C24.8375 27.0109 24.4372 26.5521 23.9344 26.2305C23.4315 25.9089 22.8472 25.7381 22.2504 25.7382L22.2422 25.7464ZM22.2422 30.4344C21.9324 30.4352 21.6293 30.3439 21.3713 30.1722C21.1134 30.0006 20.9122 29.7561 20.7933 29.4699C20.6743 29.1837 20.643 28.8686 20.7033 28.5646C20.7635 28.2606 20.9126 27.9813 21.1317 27.7621C21.3508 27.5429 21.6299 27.3938 21.9338 27.3335C22.2377 27.2732 22.5527 27.3046 22.8388 27.4236C23.1248 27.5425 23.3692 27.7438 23.5408 28.0019C23.7124 28.2599 23.8036 28.5631 23.8028 28.8731C23.8017 29.2868 23.6369 29.6833 23.3445 29.9759C23.0521 30.2684 22.6557 30.4333 22.2422 30.4344Z" fill="#FBAA17"/>
<path d="M25.2726 28.1069C25.3754 28.5159 25.3944 28.9415 25.3285 29.358C25.2626 29.7745 25.1132 30.1734 24.8892 30.5306C24.6652 30.8879 24.3713 31.1961 24.0252 31.4368C23.679 31.6774 23.2878 31.8455 22.875 31.931C22.4622 32.0165 22.0365 32.0175 21.6233 31.9341C21.2101 31.8506 20.818 31.6845 20.4707 31.4455C20.1234 31.2065 19.828 30.8998 19.6022 30.5436C19.3765 30.1875 19.2251 29.7894 19.1572 29.3732C19.1572 29.3158 19.0712 28.9634 18.9688 28.488C19.2178 29.1488 19.6718 29.7125 20.2642 30.0966C20.8567 30.4806 21.5565 30.6648 22.2611 30.6222C22.9657 30.5796 23.6383 30.3125 24.1802 29.8599C24.7221 29.4072 25.1049 28.7929 25.2726 28.1069Z" fill="#F8D923"/>
<path d="M1.45417 22.6649C-0.189475 19.0767 -0.449575 15.0074 0.723861 11.239C1.8973 7.47059 4.42147 4.269 7.81128 2.24951H24.171C27.5608 4.269 30.085 7.47059 31.2584 11.239C32.4319 15.0074 32.1718 19.0767 30.5281 22.6649H1.45417Z" fill="#AA9CFF"/>
<path d="M31.0113 21.4888C30.8078 22.0475 30.574 22.5947 30.3109 23.1279H1.67113C1.40803 22.5947 1.1742 22.0475 0.970703 21.4888H31.0113Z" fill="#8F7DFF"/>
<path d="M11.9318 4.12633C11.9318 4.31192 11.8768 4.49335 11.7738 4.64767C11.6707 4.80199 11.5242 4.92228 11.3528 4.9933C11.1814 5.06433 10.9928 5.08291 10.8108 5.0467C10.6289 5.01049 10.4618 4.92111 10.3306 4.78987C10.1994 4.65863 10.1101 4.49143 10.0739 4.3094C10.0377 4.12736 10.0562 3.93869 10.1272 3.76722C10.1982 3.59574 10.3185 3.44918 10.4727 3.34606C10.627 3.24295 10.8083 3.18792 10.9938 3.18792C11.2426 3.18792 11.4812 3.28678 11.6571 3.46277C11.833 3.63875 11.9318 3.87745 11.9318 4.12633ZM10.9938 20.3087C10.8083 20.3087 10.627 20.3637 10.4727 20.4668C10.3185 20.5699 10.1982 20.7165 10.1272 20.888C10.0562 21.0594 10.0377 21.2481 10.0739 21.4301C10.1101 21.6122 10.1994 21.7794 10.3306 21.9106C10.4618 22.0419 10.6289 22.1312 10.8108 22.1674C10.9928 22.2037 11.1814 22.1851 11.3528 22.114C11.5242 22.043 11.6707 21.9227 11.7738 21.7684C11.8768 21.6141 11.9318 21.4327 11.9318 21.2471C11.9318 20.9982 11.833 20.7595 11.6571 20.5835C11.4812 20.4075 11.2426 20.3087 10.9938 20.3087ZM14.2707 20.3087C14.0852 20.3087 13.9038 20.3637 13.7496 20.4668C13.5953 20.5699 13.4751 20.7165 13.4041 20.888C13.3331 21.0594 13.3145 21.2481 13.3507 21.4301C13.3869 21.6122 13.4763 21.7794 13.6074 21.9106C13.7386 22.0419 13.9058 22.1312 14.0877 22.1674C14.2697 22.2037 14.4583 22.1851 14.6297 22.114C14.8011 22.043 14.9476 21.9227 15.0506 21.7684C15.1537 21.6141 15.2087 21.4327 15.2087 21.2471C15.2082 21.1233 15.1833 21.0008 15.1354 20.8867C15.0876 20.7726 15.0177 20.669 14.9299 20.5818C14.842 20.4947 14.7379 20.4257 14.6234 20.3788C14.5088 20.332 14.3862 20.3081 14.2625 20.3087H14.2707ZM6.2424 5.06063C6.47479 5.0571 6.6976 4.96739 6.86764 4.80887C7.03767 4.65035 7.14283 4.43431 7.16272 4.20265C7.18261 3.97098 7.11583 3.74018 6.9753 3.55497C6.83478 3.36976 6.63053 3.24334 6.40214 3.20021C6.0253 3.48706 5.66075 3.7862 5.30849 4.10583V4.12633C5.30849 4.24902 5.33265 4.37052 5.37958 4.48387C5.42651 4.59723 5.4953 4.70023 5.58202 4.78698C5.66875 4.87374 5.7717 4.94256 5.885 4.98951C5.99831 5.03647 6.11975 5.06063 6.2424 5.06063ZM2.96553 20.3087C2.77984 20.3079 2.59809 20.3622 2.4433 20.4648C2.28851 20.5674 2.16764 20.7137 2.09602 20.8851C2.0244 21.0565 2.00524 21.2453 2.04096 21.4276C2.07669 21.6099 2.16571 21.7775 2.29672 21.9092C2.42774 22.0408 2.59487 22.1306 2.77693 22.1671C2.959 22.2037 3.14781 22.1853 3.31944 22.1144C3.49108 22.0435 3.63782 21.9232 3.74107 21.7688C3.84432 21.6144 3.89944 21.4328 3.89944 21.2471C3.89944 20.9989 3.80118 20.7608 3.62615 20.585C3.45113 20.4091 3.2136 20.3097 2.96553 20.3087ZM6.29564 20.3087C6.11012 20.3087 5.92877 20.3637 5.77452 20.4668C5.62026 20.5699 5.50004 20.7165 5.42904 20.888C5.35805 21.0594 5.33947 21.2481 5.37567 21.4301C5.41186 21.6122 5.5012 21.7794 5.63238 21.9106C5.76356 22.0419 5.93069 22.1312 6.11265 22.1674C6.2946 22.2037 6.48321 22.1851 6.6546 22.114C6.826 22.043 6.9725 21.9227 7.07556 21.7684C7.17863 21.6141 7.23364 21.4327 7.23364 21.2471C7.23311 21.1233 7.20821 21.0008 7.16037 20.8867C7.11253 20.7726 7.04268 20.669 6.95482 20.5818C6.86696 20.4947 6.7628 20.4257 6.64829 20.3788C6.53378 20.332 6.41117 20.3081 6.28745 20.3087H6.29564ZM7.99961 23.128H9.43324V2.24951H7.99961V23.128ZM14.324 3.19202C14.1379 3.1904 13.9556 3.24415 13.8002 3.34645C13.6448 3.44875 13.5233 3.59498 13.4511 3.76654C13.379 3.9381 13.3595 4.12725 13.3951 4.30993C13.4307 4.49261 13.5198 4.66058 13.651 4.79247C13.7823 4.92437 13.9498 5.01424 14.1323 5.05065C14.3147 5.08707 14.5038 5.06839 14.6757 4.99698C14.8475 4.92557 14.9941 4.80467 15.0971 4.64964C15.2 4.4946 15.2546 4.31244 15.2538 4.12633C15.2538 3.87886 15.1561 3.64141 14.9819 3.46566C14.8078 3.2899 14.5713 3.19008 14.324 3.18792V3.19202ZM17.6008 20.3128C17.4148 20.3111 17.2325 20.3649 17.077 20.4672C16.9216 20.5695 16.8001 20.7157 16.728 20.8873C16.6559 21.0588 16.6364 21.248 16.672 21.4307C16.7076 21.6134 16.7966 21.7813 16.9279 21.9132C17.0592 22.0451 17.2267 22.135 17.4091 22.1714C17.5916 22.2078 17.7807 22.1891 17.9525 22.1177C18.1243 22.0463 18.271 21.9254 18.374 21.7704C18.4769 21.6153 18.5314 21.4332 18.5306 21.2471C18.5295 20.9985 18.4304 20.7605 18.2547 20.5847C18.079 20.409 17.8411 20.3097 17.5926 20.3087L17.6008 20.3128ZM25.5964 3.20431C25.4203 3.23475 25.2567 3.31483 25.1246 3.43514C24.9925 3.55546 24.8975 3.711 24.8508 3.88348C24.804 4.05596 24.8075 4.23821 24.8608 4.40879C24.914 4.57937 25.0149 4.73118 25.1514 4.84639C25.288 4.96159 25.4546 5.03539 25.6316 5.05911C25.8087 5.08282 25.9888 5.05547 26.1508 4.98027C26.3129 4.90507 26.4501 4.78514 26.5463 4.63459C26.6426 4.48404 26.6938 4.30913 26.6941 4.13043V4.10993C26.3336 3.7862 25.9691 3.48706 25.5882 3.20021L25.5964 3.20431ZM29.0248 20.3128C28.8393 20.3128 28.6579 20.3678 28.5036 20.4709C28.3494 20.574 28.2292 20.7206 28.1582 20.892C28.0872 21.0635 28.0686 21.2522 28.1048 21.4342C28.141 21.6163 28.2303 21.7835 28.3615 21.9147C28.4927 22.046 28.6598 22.1353 28.8418 22.1715C29.0237 22.2077 29.2123 22.1892 29.3837 22.1181C29.5551 22.0471 29.7016 21.9268 29.8047 21.7725C29.9078 21.6182 29.9628 21.4368 29.9628 21.2512C29.9633 21.1269 29.9392 21.0037 29.8918 20.8889C29.8444 20.774 29.7746 20.6697 29.6866 20.582C29.5986 20.4944 29.494 20.425 29.379 20.3781C29.264 20.3312 29.1408 20.3076 29.0166 20.3087L29.0248 20.3128ZM25.7479 20.3128C25.5624 20.3128 25.381 20.3678 25.2268 20.4709C25.0725 20.574 24.9523 20.7206 24.8813 20.892C24.8103 21.0635 24.7917 21.2522 24.8279 21.4342C24.8641 21.6163 24.9535 21.7835 25.0846 21.9147C25.2158 22.046 25.383 22.1353 25.5649 22.1715C25.7469 22.2077 25.9355 22.1892 26.1069 22.1181C26.2783 22.0471 26.4248 21.9268 26.5278 21.7725C26.6309 21.6182 26.6859 21.4368 26.6859 21.2512C26.6859 21.0019 26.5872 20.7628 26.4114 20.5862C26.2356 20.4095 25.9971 20.3097 25.7479 20.3087V20.3128ZM22.5489 23.128H23.9784V2.24951H22.5489V23.128ZM17.6336 3.19202C17.4481 3.19202 17.2667 3.24705 17.1125 3.35017C16.9582 3.45328 16.838 3.59983 16.767 3.7713C16.696 3.94278 16.6774 4.13146 16.7136 4.3135C16.7498 4.49553 16.8391 4.66274 16.9703 4.79397C17.1015 4.92521 17.2686 5.01458 17.4506 5.05079C17.6325 5.087 17.8211 5.06842 17.9925 4.99739C18.1639 4.92636 18.3104 4.80609 18.4135 4.65177C18.5166 4.49745 18.5716 4.31603 18.5716 4.13043C18.5738 3.88403 18.4786 3.64674 18.3068 3.47022C18.1349 3.2937 17.9003 3.19223 17.6541 3.18792L17.6336 3.19202ZM20.9678 3.19202C20.7823 3.19202 20.6009 3.24705 20.4467 3.35017C20.2924 3.45328 20.1722 3.59983 20.1012 3.7713C20.0302 3.94278 20.0116 4.13146 20.0478 4.3135C20.084 4.49553 20.1733 4.66274 20.3045 4.79397C20.4357 4.92521 20.6028 5.01458 20.7848 5.05079C20.9667 5.087 21.1553 5.06842 21.3267 4.99739C21.4981 4.92636 21.6446 4.80609 21.7477 4.65177C21.8508 4.49745 21.9058 4.31603 21.9058 4.13043C21.908 3.88403 21.8128 3.64674 21.641 3.47022C21.4691 3.2937 21.2345 3.19223 20.9883 3.18792L20.9678 3.19202Z" fill="#4619E3"/>
<path d="M31.638 19.3743H0.356315C-0.141654 17.0507 -0.117391 14.6453 0.427353 12.3322C0.972096 10.0191 2.02371 7.8559 3.5062 5.99902H28.4923C29.9779 7.8541 31.0311 10.0174 31.5753 12.3312C32.1195 14.645 32.141 17.0512 31.638 19.3743Z" fill="#683DFF"/>
<path d="M23.9786 5.99902V19.3743H22.5491V5.99902H23.9786ZM8.00391 19.3743H9.43753V5.99902H8.00391V19.3743Z" fill="#4619E3"/>
<path d="M20.0501 12.6869C20.0501 13.4901 19.812 14.2753 19.366 14.9431C18.9199 15.6109 18.286 16.1314 17.5442 16.4388C16.8025 16.7461 15.9863 16.8266 15.1989 16.6699C14.4115 16.5132 13.6882 16.1264 13.1206 15.5585C12.5529 14.9905 12.1663 14.2669 12.0096 13.4792C11.853 12.6914 11.9334 11.8749 12.2406 11.1329C12.5479 10.3908 13.0681 9.75661 13.7357 9.31038C14.4032 8.86416 15.188 8.62598 15.9909 8.62598C17.0674 8.62598 18.0999 9.05383 18.8611 9.81541C19.6224 10.577 20.0501 11.6099 20.0501 12.6869Z" fill="#4619E3"/>
<path d="M14.3535 14.7073V10.6627C14.3539 10.5965 14.372 10.5316 14.4061 10.4749C14.4402 10.4181 14.4889 10.3716 14.5471 10.3401C14.6053 10.3087 14.671 10.2935 14.7371 10.2962C14.8032 10.2989 14.8674 10.3193 14.9229 10.3554L18.0523 12.3756C18.103 12.4102 18.1444 12.4566 18.1731 12.5109C18.2018 12.5652 18.2168 12.6256 18.2168 12.687C18.2168 12.7484 18.2018 12.8089 18.1731 12.8631C18.1444 12.9174 18.103 12.9639 18.0523 12.9985L14.9229 15.0187C14.8671 15.0549 14.8025 15.0754 14.7361 15.0779C14.6696 15.0804 14.6037 15.0649 14.5453 15.0329C14.4869 15.001 14.4383 14.9539 14.4045 14.8965C14.3708 14.8392 14.3531 14.7738 14.3535 14.7073Z" fill="#FFF5F5"/>
<path d="M21.1636 12.6252C21.124 12.6141 21.0827 12.611 21.0419 12.6162C21.0012 12.6214 20.9619 12.6347 20.9264 12.6553C20.8909 12.676 20.8599 12.7035 20.8352 12.7363C20.8105 12.7692 20.7926 12.8066 20.7826 12.8465L17.8867 23.6524L17.1658 26.3406C16.6353 25.9536 15.9955 25.7455 15.3389 25.7464C14.7421 25.7463 14.1578 25.9171 13.6549 26.2387C13.1521 26.5602 12.7518 27.0191 12.5014 27.5611C12.2509 28.103 12.1608 28.7054 12.2417 29.2969C12.3226 29.8885 12.5712 30.4445 12.9579 30.8992C13.3446 31.354 13.8534 31.6884 14.4242 31.863C14.9949 32.0376 15.6036 32.0451 16.1784 31.8846C16.7533 31.7241 17.2701 31.4023 17.668 30.9572C18.0658 30.5121 18.3279 29.9624 18.4233 29.373C18.4438 29.2378 18.8657 27.3569 19.0254 26.6439L19.6972 24.136L20.1641 24.2589C20.3336 24.3076 20.5116 24.3192 20.6859 24.2929C20.8603 24.2666 21.0269 24.2032 21.1746 24.1067C21.3222 24.0103 21.4474 23.8833 21.5416 23.7342C21.6359 23.5851 21.6969 23.4174 21.7206 23.2427L22.9495 15.3502C23.0356 14.7562 22.9015 14.1512 22.5725 13.6492C22.2436 13.1473 21.7424 12.783 21.1636 12.6252ZM15.3389 30.4344C15.0291 30.4368 14.7256 30.3472 14.4668 30.1768C14.2079 30.0065 14.0055 29.7631 13.885 29.4775C13.7646 29.192 13.7316 28.8771 13.7903 28.5727C13.8489 28.2684 13.9965 27.9883 14.2145 27.768C14.4324 27.5477 14.7108 27.397 15.0144 27.3352C15.3179 27.2733 15.633 27.303 15.9197 27.4205C16.2064 27.5379 16.4518 27.7379 16.6248 27.9951C16.7978 28.2522 16.8905 28.5549 16.8914 28.8649C16.8924 29.0699 16.8531 29.2732 16.7757 29.463C16.6983 29.6528 16.5842 29.8255 16.4401 29.9713C16.2959 30.117 16.1245 30.2329 15.9355 30.3124C15.7466 30.3918 15.5439 30.4333 15.3389 30.4344Z" fill="#F8D923"/>
<path d="M16.0363 31.918C15.808 31.9709 15.5743 31.997 15.34 31.9959C14.9203 32.0111 14.5019 31.9415 14.1097 31.7913C13.7175 31.6412 13.3596 31.4134 13.0573 31.1218C12.755 30.8301 12.5146 30.4806 12.3504 30.0939C12.1862 29.7072 12.1016 29.2914 12.1016 28.8713C12.1016 28.4512 12.1862 28.0353 12.3504 27.6487C12.5146 27.262 12.755 26.9124 13.0573 26.6207C13.3596 26.3291 13.7175 26.1014 14.1097 25.9512C14.5019 25.801 14.9203 25.7315 15.34 25.7467C15.5742 25.7477 15.8077 25.7737 16.0363 25.8245C15.3475 25.9834 14.7329 26.3711 14.2928 26.9245C13.8527 27.4778 13.6131 28.1641 13.6131 28.8713C13.6131 29.5784 13.8527 30.2647 14.2928 30.818C14.7329 31.3714 15.3475 31.7592 16.0363 31.918Z" fill="#FBAA17"/>
</svg>
