<svg width="33" height="32" viewBox="0 0 33 32" fill="none" xmlns="http://www.w3.org/2000/svg">
<path d="M32.2393 16.3099C32.2475 18.6871 31.7031 21.0349 30.6475 23.1746C30.3444 23.7833 30.0018 24.3724 29.6218 24.938C29.4782 25.1514 29.3305 25.3407 29.1746 25.5661C28.4897 26.4851 27.7057 27.3287 26.8362 28.0825C23.9175 30.6111 20.1571 32.0045 16.2639 32C15.8126 32 15.3654 32 14.9223 31.9476C12.0084 31.7138 9.21643 30.6969 6.85259 29.0085C6.68028 28.8877 6.51618 28.7629 6.35207 28.6341C6.18797 28.5053 5.94182 28.308 5.73669 28.1348C5.53156 27.9617 5.4249 27.8651 5.2731 27.7322C5.12131 27.5994 4.91618 27.394 4.74387 27.2209C4.57156 27.0478 4.45669 26.923 4.33361 26.77C4.21054 26.617 3.98489 26.3673 3.81669 26.1701C3.64848 25.9728 3.55823 25.852 3.43105 25.6869C1.68772 23.391 0.619243 20.67 0.341818 17.8197C0.29669 17.3245 0.272074 16.8252 0.272074 16.3179C0.187605 14.2057 0.538588 12.0985 1.30398 10.1225C2.06938 8.14662 3.23343 6.34271 4.72635 4.81894C6.21928 3.29518 8.01034 2.08293 9.99217 1.25487C11.974 0.426812 14.1058 0 16.2598 0C18.4137 0 20.5455 0.426812 22.5274 1.25487C24.5092 2.08293 26.3003 3.29518 27.7932 4.81894C29.2861 6.34271 30.4502 8.14662 31.2155 10.1225C31.9809 12.0985 32.3319 14.2057 32.2475 16.3179L32.2393 16.3099Z" fill="#FFEFF3"/>
<path d="M27.9011 7.61484H5.05674C4.87122 7.61985 4.69492 7.69684 4.56514 7.8295C4.43535 7.96217 4.36226 8.14013 4.36133 8.32572V18.2779C4.36133 18.4664 4.43622 18.6472 4.56954 18.7805C4.70285 18.9138 4.88366 18.9887 5.0722 18.9887H27.9165C28.1051 18.9887 28.2859 18.9138 28.4192 18.7805C28.5525 18.6472 28.6274 18.4664 28.6274 18.2779V8.32572C28.6269 8.2312 28.6077 8.13772 28.5708 8.05069C28.5339 7.96366 28.4802 7.88479 28.4126 7.81868C28.3451 7.75257 28.2651 7.70052 28.1773 7.66553C28.0895 7.63054 27.9956 7.61331 27.9011 7.61484Z" fill="#FFDA2D"/>
<path d="M28.6116 8.32514V18.2773C28.6116 18.4658 28.5367 18.6466 28.4034 18.7799C28.2701 18.9132 28.0892 18.9881 27.9007 18.9881H16.4805V7.61426H27.9007C28.0889 7.61527 28.2691 7.6905 28.4022 7.82359C28.5353 7.95669 28.6106 8.13691 28.6116 8.32514Z" fill="#FDBF00"/>
<path d="M12.1654 20.4292H5.05674C4.87449 20.434 4.70098 20.5083 4.57171 20.6369C4.44244 20.7654 4.36718 20.9385 4.36133 21.1207V31.0729C4.36133 31.2614 4.43622 31.4422 4.56954 31.5755C4.70285 31.7089 4.88366 31.7838 5.0722 31.7838H12.1654C12.3513 31.7797 12.5281 31.7031 12.6581 31.5702C12.7881 31.4373 12.8609 31.2588 12.8608 31.0729V21.1207C12.8559 20.9382 12.7809 20.7646 12.6515 20.6358C12.522 20.5071 12.348 20.4331 12.1654 20.4292Z" fill="#683DFF"/>
<path d="M27.8999 20.4292H15.0077C14.8195 20.4302 14.6393 20.5054 14.5062 20.6385C14.3731 20.7716 14.2979 20.9519 14.2969 21.1401V31.0922C14.2969 31.2807 14.3718 31.4615 14.5051 31.5949C14.6384 31.7282 14.8192 31.8031 15.0077 31.8031H27.8999C28.0885 31.8031 28.2693 31.7282 28.4026 31.5949C28.5359 31.4615 28.6108 31.2807 28.6108 31.0922V21.1207C28.6048 20.9359 28.5274 20.7606 28.3948 20.6316C28.2623 20.5027 28.0849 20.4301 27.8999 20.4292Z" fill="#4211F0"/>
<path d="M28.6116 21.1207V31.0729C28.6116 31.2614 28.5367 31.4422 28.4034 31.5755C28.2701 31.7089 28.0892 31.7838 27.9007 31.7838H16.4805V20.4292H27.9007C28.0856 20.4301 28.263 20.5027 28.3956 20.6316C28.5282 20.7606 28.6056 20.9359 28.6116 21.1207Z" fill="#683DFF"/>
<path d="M24.4527 22.515L25.4688 21.665C25.5592 21.5887 25.6291 21.4911 25.6723 21.3809C25.7154 21.2707 25.7303 21.1515 25.7158 21.0341C25.7012 20.9167 25.6575 20.8048 25.5888 20.7085C25.52 20.6123 25.4283 20.5347 25.3219 20.4828L17.5951 16.7005C17.4732 16.641 17.3367 16.6176 17.2018 16.6331C17.067 16.6486 16.9394 16.7024 16.8341 16.7882C16.7289 16.8739 16.6504 16.988 16.6079 17.1169C16.5655 17.2458 16.5608 17.3842 16.5945 17.5157L18.7619 25.965C18.7907 26.0838 18.8497 26.193 18.9331 26.2823C19.0165 26.3717 19.1215 26.438 19.238 26.4749C19.3545 26.5118 19.4786 26.518 19.5982 26.493C19.7178 26.4679 19.829 26.4125 19.9209 26.332L20.9331 25.4859L22.0071 26.7763C22.0671 26.8483 22.1407 26.9078 22.2237 26.9513C22.3067 26.9948 22.3975 27.0214 22.4909 27.0297C22.5843 27.0379 22.6783 27.0277 22.7677 26.9994C22.8571 26.9712 22.94 26.9256 23.0116 26.8652L25.4649 24.8098C25.6075 24.6877 25.6966 24.5146 25.7132 24.3276C25.7298 24.1406 25.6726 23.9546 25.5538 23.8092L24.4527 22.515Z" fill="#FF641A"/>
<path d="M25.5169 23.8093C25.6357 23.9547 25.693 24.1407 25.6764 24.3277C25.6597 24.5147 25.5706 24.6878 25.428 24.81L24.3965 25.6715L16.8242 16.7856C16.9277 16.702 17.0532 16.6502 17.1856 16.6365C17.3179 16.6228 17.4514 16.6477 17.5699 16.7084L25.2967 20.4907C25.403 20.5425 25.4947 20.6201 25.5635 20.7164C25.6323 20.8126 25.6759 20.9246 25.6905 21.042C25.7051 21.1594 25.6901 21.2786 25.647 21.3887C25.6038 21.4989 25.5339 21.5965 25.4435 21.6728L24.4506 22.5151L25.5169 23.8093Z" fill="#F03800"/>
<path d="M9.32205 10.4575C8.75677 10.4585 8.21492 10.6836 7.81521 11.0833C7.41549 11.483 7.19047 12.0248 7.18945 12.5901V15.4336C7.18945 15.6221 7.26435 15.8029 7.39766 15.9362C7.53098 16.0696 7.71179 16.1445 7.90032 16.1445C8.08886 16.1445 8.26967 16.0696 8.40298 15.9362C8.53629 15.8029 8.61119 15.6221 8.61119 15.4336V14.7227H10.0329V15.4336C10.0329 15.6221 10.1078 15.8029 10.2411 15.9362C10.3744 16.0696 10.5553 16.1445 10.7438 16.1445C10.9323 16.1445 11.1131 16.0696 11.2464 15.9362C11.3798 15.8029 11.4547 15.6221 11.4547 15.4336V12.5901C11.4547 12.3101 11.3995 12.0328 11.2923 11.774C11.1851 11.5153 11.0281 11.2802 10.83 11.0821C10.632 10.8841 10.3969 10.727 10.1382 10.6199C9.87943 10.5127 9.60211 10.4575 9.32205 10.4575ZM8.61119 13.301V12.5901C8.61119 12.4016 8.68608 12.2208 8.8194 12.0875C8.95271 11.9542 9.13352 11.8793 9.32205 11.8793C9.51059 11.8793 9.6914 11.9542 9.82471 12.0875C9.95803 12.2208 10.0329 12.4016 10.0329 12.5901V13.301H8.61119Z" fill="#FE9022"/>
<path d="M14.2966 10.4572H13.5857C13.3968 10.4541 13.2143 10.5259 13.0782 10.657C12.9421 10.788 12.8634 10.9676 12.8594 11.1565V15.4062C12.8594 15.5948 12.9343 15.7756 13.0676 15.9089C13.2009 16.0422 13.3817 16.1171 13.5702 16.1171H14.2811C15.0352 16.1171 15.7585 15.8175 16.2917 15.2843C16.825 14.751 17.1246 14.0278 17.1246 13.2737C17.1246 12.5195 16.825 11.7963 16.2917 11.263C15.7585 10.7298 15.0352 10.4302 14.2811 10.4302L14.2966 10.4572ZM14.2966 14.707V11.8635C14.6736 11.8635 15.0353 12.0133 15.3019 12.2799C15.5685 12.5465 15.7183 12.9082 15.7183 13.2852C15.7183 13.6623 15.5685 14.0239 15.3019 14.2906C15.0353 14.5572 14.6736 14.707 14.2966 14.707Z" fill="#FE9022"/>
<path d="M16.4805 11.478V15.1251C16.9073 14.6133 17.141 13.968 17.141 13.3016C17.141 12.6351 16.9073 11.9898 16.4805 11.478Z" fill="#FF641A"/>
<path d="M19.2734 12.3548H24.9603C25.1488 12.3548 25.3296 12.2799 25.463 12.1466C25.5963 12.0133 25.6712 11.8325 25.6712 11.644C25.6712 11.4554 25.5963 11.2746 25.463 11.1413C25.3296 11.008 25.1488 10.9331 24.9603 10.9331H19.2734C19.0848 10.9331 18.904 11.008 18.7707 11.1413C18.6374 11.2746 18.5625 11.4554 18.5625 11.644C18.5625 11.8325 18.6374 12.0133 18.7707 12.1466C18.904 12.2799 19.0848 12.3548 19.2734 12.3548Z" fill="#FF641A"/>
<path d="M24.9603 13.7764H19.2734C19.0848 13.7764 18.904 13.8513 18.7707 13.9846C18.6374 14.1179 18.5625 14.2987 18.5625 14.4872C18.5625 14.6758 18.6374 14.8566 18.7707 14.9899C18.904 15.1232 19.0848 15.1981 19.2734 15.1981H24.9603C25.1488 15.1981 25.3296 15.1232 25.463 14.9899C25.5963 14.8566 25.6712 14.6758 25.6712 14.4872C25.6712 14.2987 25.5963 14.1179 25.463 13.9846C25.3296 13.8513 25.1488 13.7764 24.9603 13.7764Z" fill="#FF641A"/>
</svg>
