<svg width="32" height="32" viewBox="0 0 32 32" fill="none" xmlns="http://www.w3.org/2000/svg">
<path d="M31.9672 15.9979C31.9708 18.4232 31.4207 20.8172 30.359 22.9973C30.0559 23.618 29.7133 24.2186 29.3333 24.7954C29.1897 25.013 29.0421 25.2059 28.8862 25.4399C28.2012 26.3756 27.4171 27.2344 26.5477 28.0015C23.6304 30.5825 19.8694 32.005 15.9754 32C15.5241 32 15.0769 32 14.6379 31.9425C11.7302 31.7019 8.94443 30.6667 6.58462 28.9498C6.41641 28.8226 6.24821 28.6994 6.0841 28.5681C5.92 28.4367 5.67385 28.2314 5.46872 28.059C5.26359 27.8866 5.15692 27.7798 5.00513 27.6485C4.85333 27.5171 4.64821 27.3036 4.4759 27.1271C4.30359 26.9506 4.18872 26.8233 4.06564 26.6673C3.94256 26.5113 3.71282 26.2568 3.54462 26.0598C3.37641 25.8627 3.28615 25.7314 3.16308 25.563C1.41584 23.2243 0.346918 20.4487 0.0738463 17.5415C0.0246155 17.0407 0 16.5275 0 16.0103C8.94243e-08 11.7641 1.68571 7.6918 4.68629 4.68929C7.68687 1.68678 11.7565 0 16 0C20.2435 0 24.3131 1.68678 27.3137 4.68929C30.3143 7.6918 32 11.7641 32 16.0103L31.9672 15.9979Z" fill="#FFEFF3"/>
<path d="M28.0815 6.38379H3.19531L2.41992 7.15917V28.1233C2.41992 28.3289 2.50161 28.5261 2.64703 28.6715C2.79244 28.817 2.98966 28.8987 3.19531 28.8987H14.863L15.6384 28.431L16.4138 28.8987H28.0815C28.2871 28.8987 28.4843 28.817 28.6297 28.6715C28.7752 28.5261 28.8568 28.3289 28.8568 28.1233V7.15917L28.0815 6.38379Z" fill="#F8D923"/>
<path d="M28.8571 7.15917V28.1233C28.8571 28.3289 28.7754 28.5261 28.63 28.6715C28.4846 28.817 28.2874 28.8987 28.0817 28.8987H16.4141L15.6387 28.431V6.38379H28.0817L28.8571 7.15917Z" fill="#FBAA17"/>
<path d="M28.8569 3.23681C28.8569 3.03117 28.7752 2.83395 28.6297 2.68854C28.4843 2.54312 28.2871 2.46144 28.0815 2.46144H3.19532C3.09334 2.46089 2.99227 2.48057 2.89795 2.51934C2.80363 2.55812 2.71793 2.61521 2.64582 2.68732C2.57371 2.75943 2.51662 2.84513 2.47785 2.93945C2.43907 3.03377 2.41939 3.13484 2.41993 3.23681V7.15886H28.8569V3.23681Z" fill="#6456C0"/>
<path d="M28.8571 3.2368V7.15885H15.6387V2.46143H28.0817C28.2874 2.46143 28.4846 2.54311 28.63 2.68853C28.7754 2.83394 28.8571 3.03116 28.8571 3.2368Z" fill="#5241B8"/>
<path d="M26.9162 4.0083C27.1303 4.01365 27.3337 4.10246 27.4832 4.25576C27.6327 4.40906 27.7163 4.61471 27.7162 4.82881C27.711 5.03935 27.6251 5.23982 27.4761 5.38873C27.3272 5.53765 27.1268 5.62361 26.9162 5.62881C26.7021 5.62887 26.4965 5.54525 26.3432 5.39578C26.1899 5.24632 26.1011 5.04285 26.0957 4.82881C26.0957 4.6112 26.1821 4.4025 26.336 4.24862C26.4899 4.09475 26.6986 4.0083 26.9162 4.0083Z" fill="#F80847"/>
<path d="M24.5918 4.0083C24.7974 4.0083 24.9947 4.08999 25.1401 4.2354C25.2855 4.38081 25.3672 4.57803 25.3672 4.78368V4.83701C25.3672 5.04266 25.2855 5.23988 25.1401 5.38529C24.9947 5.5307 24.7974 5.6124 24.5918 5.6124C24.3861 5.6124 24.1889 5.5307 24.0435 5.38529C23.8981 5.23988 23.8164 5.04266 23.8164 4.83701V4.78368C23.8164 4.57803 23.8981 4.38081 24.0435 4.2354C24.1889 4.08999 24.3861 4.0083 24.5918 4.0083Z" fill="#F8D923"/>
<path d="M22.2891 4.0083C22.4947 4.0083 22.6919 4.08999 22.8373 4.2354C22.9827 4.38081 23.0644 4.57803 23.0644 4.78368V4.83701C23.0644 5.04266 22.9827 5.23988 22.8373 5.38529C22.6919 5.5307 22.4947 5.6124 22.2891 5.6124C22.0834 5.6124 21.8862 5.5307 21.7408 5.38529C21.5954 5.23988 21.5137 5.04266 21.5137 4.83701V4.78368C21.5137 4.57803 21.5954 4.38081 21.7408 4.2354C21.8862 4.08999 22.0834 4.0083 22.2891 4.0083Z" fill="#C5F306"/>
<path d="M3.9707 4.0083H17.9604V5.6124H3.9707V4.0083Z" fill="#9070FF"/>
<path d="M15.6387 4.0083H17.9607V5.6124H15.6387V4.0083Z" fill="#825EFF"/>
<path d="M21.834 13.354C21.6283 13.354 21.4311 13.4357 21.2857 13.5811C21.1403 13.7265 21.0586 13.9237 21.0586 14.1294V17.2268C21.0586 17.4325 21.1403 17.6297 21.2857 17.7751C21.4311 17.9205 21.6283 18.0022 21.834 18.0022C22.0396 18.0022 22.2368 17.9205 22.3823 17.7751C22.5277 17.6297 22.6094 17.4325 22.6094 17.2268V14.1294C22.6094 13.9237 22.5277 13.7265 22.3823 13.5811C22.2368 13.4357 22.0396 13.354 21.834 13.354Z" fill="#7A54FF"/>
<path d="M24.9316 11.8071C24.726 11.8071 24.5288 11.8888 24.3834 12.0342C24.2379 12.1796 24.1562 12.3769 24.1562 12.5825V18.7774C24.1562 18.983 24.2379 19.1802 24.3834 19.3257C24.5288 19.4711 24.726 19.5528 24.9316 19.5528C25.1373 19.5528 25.3345 19.4711 25.4799 19.3257C25.6253 19.1802 25.707 18.983 25.707 18.7774V12.5825C25.707 12.3769 25.6253 12.1796 25.4799 12.0342C25.3345 11.8888 25.1373 11.8071 24.9316 11.8071Z" fill="#7A54FF"/>
<path d="M9.44345 13.354C9.23781 13.354 9.04059 13.4357 8.89517 13.5811C8.74976 13.7265 8.66807 13.9237 8.66807 14.1294V17.2268C8.66032 17.3331 8.67457 17.4399 8.70992 17.5404C8.74527 17.6409 8.80097 17.7331 8.87354 17.8112C8.94611 17.8892 9.03399 17.9515 9.1317 17.994C9.2294 18.0366 9.33483 18.0586 9.4414 18.0586C9.54798 18.0586 9.65341 18.0366 9.75111 17.994C9.84881 17.9515 9.93669 17.8892 10.0093 17.8112C10.0818 17.7331 10.1375 17.6409 10.1729 17.5404C10.2082 17.4399 10.2225 17.3331 10.2147 17.2268V14.1294C10.2147 13.9244 10.1336 13.7279 9.98908 13.5826C9.84456 13.4373 9.64838 13.3551 9.44345 13.354Z" fill="#7A54FF"/>
<path d="M6.34169 11.8071C6.24006 11.8071 6.13943 11.8272 6.04558 11.8662C5.95174 11.9053 5.86653 11.9624 5.79486 12.0345C5.72318 12.1065 5.66646 12.1921 5.62794 12.2861C5.58942 12.3802 5.56987 12.4809 5.57041 12.5825V18.7774C5.56266 18.8837 5.57691 18.9904 5.61227 19.091C5.64762 19.1915 5.70332 19.2837 5.77589 19.3617C5.84845 19.4398 5.93633 19.502 6.03404 19.5446C6.13174 19.5872 6.23717 19.6091 6.34374 19.6091C6.45032 19.6091 6.55575 19.5872 6.65345 19.5446C6.75115 19.502 6.83903 19.4398 6.9116 19.3617C6.98417 19.2837 7.03987 19.1915 7.07522 19.091C7.11057 18.9904 7.12482 18.8837 7.11708 18.7774V12.5825C7.11762 12.4805 7.09794 12.3795 7.05916 12.2852C7.02039 12.1908 6.96329 12.1051 6.89118 12.033C6.81907 11.9609 6.73338 11.9038 6.63906 11.865C6.54474 11.8263 6.44367 11.8066 6.34169 11.8071Z" fill="#7A54FF"/>
<path d="M16.414 25.6699V28.8986H14.8633V25.6699L15.6387 24.8945L16.414 25.6699Z" fill="#495959"/>
<path d="M16.4141 25.6699V28.8986H15.6387V24.8945L16.4141 25.6699Z" fill="#323232"/>
<path d="M16.4138 25.6698C17.2877 25.4897 18.0727 25.014 18.6369 24.3228C19.201 23.6316 19.5098 22.7671 19.5113 21.8749V20.3242L19.302 20.1724H12.0241L11.7656 20.3242V21.8913C11.7671 22.7835 12.0758 23.648 12.64 24.3392C13.2042 25.0304 13.9892 25.5061 14.8631 25.6862L16.4138 25.6698Z" fill="#3F4A4A"/>
<path d="M19.5115 20.3239V21.891C19.5101 22.7832 19.2013 23.6477 18.6371 24.3389C18.073 25.0301 17.2879 25.5058 16.4141 25.6859H15.6387V20.1885H19.3023L19.5115 20.3239Z" fill="#323232"/>
<path d="M18.74 14.1295L19.4374 13.3541C19.2592 12.4792 18.7841 11.6927 18.0925 11.1278C17.401 10.5629 16.5355 10.2544 15.6425 10.2544C14.7496 10.2544 13.8841 10.5629 13.1926 11.1278C12.501 11.6927 12.0259 12.4792 11.8477 13.3541L12.4918 14.1295L11.7656 14.9172V16.468L12.541 17.2392L11.7656 18.0023V20.3244H19.5113V18.0023L18.74 17.2269L19.5154 16.4557V14.9172L18.74 14.1295Z" fill="#EFFAFF"/>
<path d="M19.5115 16.4553L18.7402 17.2266L19.5156 18.002V20.324H15.6387V10.2563C16.5309 10.2578 17.3953 10.5666 18.0865 11.1307C18.7777 11.6949 19.2534 12.48 19.4335 13.3538L18.7402 14.1292L19.5156 14.9045L19.5115 16.4553Z" fill="#C3E3E9"/>
<path d="M15.2241 17.2269C15.2246 17.3288 15.2049 17.4299 15.1662 17.5242C15.1274 17.6185 15.0703 17.7042 14.9982 17.7764C14.9261 17.8485 14.8404 17.9056 14.7461 17.9443C14.6518 17.9831 14.5507 18.0028 14.4487 18.0022H11.7656V16.4556H14.4487C14.5503 16.455 14.6511 16.4746 14.7451 16.5131C14.8392 16.5516 14.9247 16.6083 14.9967 16.68C15.0688 16.7517 15.126 16.8369 15.165 16.9308C15.204 17.0246 15.2241 17.1252 15.2241 17.2269Z" fill="#C3E3E9"/>
<path d="M19.5111 16.4552V18.0018H16.8239C16.7176 18.0096 16.6109 17.9953 16.5104 17.96C16.4098 17.9246 16.3176 17.8689 16.2396 17.7964C16.1615 17.7238 16.0993 17.6359 16.0567 17.5382C16.0142 17.4405 15.9922 17.3351 15.9922 17.2285C15.9922 17.1219 16.0142 17.0165 16.0567 16.9188C16.0993 16.8211 16.1615 16.7332 16.2396 16.6607C16.3176 16.5881 16.4098 16.5324 16.5104 16.497C16.6109 16.4617 16.7176 16.4474 16.8239 16.4552H19.5111Z" fill="#A9CAD5"/>
<path d="M19.5114 14.1293V14.917H16.8242C16.6186 14.917 16.4213 14.8353 16.2759 14.6899C16.1305 14.5445 16.0488 14.3472 16.0488 14.1416C16.0488 13.9359 16.1305 13.7387 16.2759 13.5933C16.4213 13.4479 16.6186 13.3662 16.8242 13.3662H19.4334C19.4836 13.6175 19.5097 13.873 19.5114 14.1293Z" fill="#A9CAD5"/>
<path d="M15.2241 14.1293C15.2258 14.2321 15.2069 14.3343 15.1687 14.4298C15.1304 14.5253 15.0736 14.6122 15.0014 14.6855C14.9293 14.7589 14.8432 14.8171 14.7483 14.8568C14.6534 14.8965 14.5516 14.917 14.4487 14.917H11.7657V14.1416C11.7646 13.8811 11.7907 13.6213 11.8436 13.3662H14.4487C14.6523 13.3662 14.8476 13.4462 14.9927 13.5889C15.1378 13.7317 15.2209 13.9258 15.2241 14.1293Z" fill="#C3E3E9"/>
</svg>
