<svg width="32" height="34" viewBox="0 0 32 34" fill="none" xmlns="http://www.w3.org/2000/svg">
<path d="M31.9775 16.8354C31.9805 19.2179 31.4304 21.5697 30.3692 23.7116C30.0677 24.3222 29.7251 24.9123 29.3436 25.478C29.1986 25.6905 29.051 25.9002 28.9005 26.1072C28.2141 27.0277 27.4287 27.8728 26.558 28.6278C23.6421 31.1666 19.8808 32.567 15.9856 32.564C15.5344 32.564 15.0913 32.564 14.6482 32.5115C11.7401 32.2738 8.95437 31.2554 6.59489 29.5675C6.42669 29.4465 6.25847 29.3215 6.09437 29.1924C5.93026 29.0634 5.68411 28.8657 5.47898 28.6923C5.27385 28.5189 5.16718 28.4221 5.01539 28.289C4.8636 28.1559 4.65848 27.9503 4.48617 27.7768C4.31386 27.6034 4.20309 27.4784 4.07591 27.3251C3.94873 27.1719 3.72309 26.9219 3.55898 26.7242C3.39488 26.5266 3.29642 26.4056 3.17334 26.2403C1.42835 23.9415 0.359665 21.2154 0.0840998 18.3599C0.034869 17.8638 0.0102566 17.3637 0.0102566 16.8556C-0.0666908 14.744 0.289951 12.6389 1.05886 10.6658C1.82777 8.69275 2.99319 6.8922 4.48557 5.37164C5.97795 3.85109 7.76667 2.64171 9.74498 1.81569C11.7233 0.989678 13.8506 0.563965 16 0.563965C18.1494 0.563965 20.2767 0.989678 22.255 1.81569C24.2333 2.64171 26.0221 3.85109 27.5145 5.37164C29.0068 6.8922 30.1723 8.69275 30.9412 10.6658C31.7101 12.6389 32.0667 14.744 31.9897 16.8556L31.9775 16.8354Z" fill="#FFEFF3"/>
<path d="M20.1328 26.6019L19.0769 27.6539L15.8782 24.4552V33.7951H14.3876V24.4552L8.4327 30.903L7.35352 29.917L14.605 22.1299L15.1329 22.6578L15.6609 22.1299L20.1328 26.6019Z" fill="#465A61"/>
<path d="M23.7041 30.1732L22.0582 30.6352L15.8781 24.4552V33.7951H15.1328V22.6578L15.6607 22.1299L23.7041 30.1732Z" fill="#3B4A51"/>
<path d="M7.68377 14.4629V18.931H4.19004L2.41211 14.4629H7.68377Z" fill="#465A61"/>
<path d="M7.68338 17.4404V18.9311H4.18965L3.5957 17.4404H7.68338Z" fill="#3B4A51"/>
<path d="M21.8418 14.8043V20.0798L27.851 24.0394V10.8408L21.8418 14.8043Z" fill="#465A61"/>
<path d="M27.851 17.4404V24.0397L21.8418 20.0801V17.4404H27.851Z" fill="#3B4A51"/>
<path d="M10.6641 5.51904C9.92691 5.51828 9.206 5.73619 8.59264 6.14521C7.97929 6.55423 7.50103 7.13598 7.21838 7.81687C6.93572 8.49776 6.86138 9.24719 7.00473 9.97034C7.14809 10.6935 7.50271 11.3579 8.02374 11.8795C8.54477 12.401 9.20879 12.7563 9.93179 12.9005C10.6548 13.0446 11.4043 12.971 12.0855 12.689C12.7667 12.4071 13.3489 11.9294 13.7586 11.3165C14.1682 10.7036 14.3869 9.98292 14.3869 9.24569C14.3859 8.25831 13.9934 7.31161 13.2956 6.61306C12.5978 5.91451 11.6515 5.5211 10.6641 5.51904Z" fill="#465A61"/>
<path d="M14.3888 9.24569C14.3877 10.2331 13.9953 11.1798 13.2975 11.8783C12.5997 12.5769 11.6534 12.9703 10.666 12.9723V5.51904C11.6534 5.5211 12.5997 5.91451 13.2975 6.61306C13.9953 7.31161 14.3877 8.25831 14.3888 9.24569Z" fill="#3B4A51"/>
<path d="M18.1157 2.54151C17.0835 2.54074 16.0743 2.84618 15.2157 3.41917C14.3571 3.99216 13.6878 4.80695 13.2924 5.76045C12.8971 6.71395 12.7934 7.76329 12.9946 8.77571C13.1958 9.78813 13.6928 10.7181 14.4226 11.448C15.1525 12.1779 16.0825 12.6749 17.095 12.8761C18.1074 13.0773 19.1567 12.9736 20.1102 12.5782C21.0637 12.1829 21.8785 11.5136 22.4515 10.655C23.0245 9.7964 23.3299 8.78715 23.3292 7.75494C23.3271 6.37288 22.7772 5.04802 21.7999 4.07075C20.8227 3.09349 19.4978 2.54356 18.1157 2.54151Z" fill="#596C76"/>
<path d="M23.3267 7.75493C23.3257 9.13766 22.7762 10.4635 21.7988 11.4416C20.8214 12.4197 19.496 12.9702 18.1133 12.9722V2.5415C19.4957 2.54253 20.8211 3.09213 21.7986 4.06962C22.7761 5.0471 23.3257 6.37256 23.3267 7.75493Z" fill="#465A61"/>
<path d="M18.1149 5.51904C17.6727 5.51904 17.2403 5.65018 16.8726 5.89587C16.5049 6.14157 16.2183 6.49078 16.0491 6.89936C15.8799 7.30793 15.8356 7.75751 15.9219 8.19125C16.0081 8.62499 16.2211 9.02341 16.5338 9.33612C16.8465 9.64883 17.245 9.86178 17.6787 9.94806C18.1124 10.0343 18.562 9.99006 18.9706 9.82082C19.3791 9.65158 19.7284 9.36499 19.9741 8.99728C20.2198 8.62958 20.3509 8.19727 20.3509 7.75503C20.3499 7.16233 20.114 6.59419 19.6949 6.17508C19.2758 5.75598 18.7076 5.52007 18.1149 5.51904Z" fill="#ECECF1"/>
<path d="M20.3395 7.75503C20.3385 8.34774 20.1026 8.91588 19.6835 9.33499C19.2644 9.75409 18.6962 9.99 18.1035 9.99103V5.51904C18.6962 5.52007 19.2644 5.75598 19.6835 6.17508C20.1026 6.59419 20.3385 7.16233 20.3395 7.75503Z" fill="#CFDDE2"/>
<path d="M6.93945 12.9722H23.329V23.4029H6.93945V12.9722Z" fill="#852583"/>
<path d="M6.93945 17.4404H23.329V23.4031H6.93945V17.4404Z" fill="#AF31AD"/>
<path d="M12.8965 14.2339V20.6895L18.9523 17.4598L12.8965 14.2339Z" fill="white"/>
<path d="M18.9523 17.4404L12.8965 20.6702V17.4404H18.9523Z" fill="#CFDDE2"/>
<path d="M9.91992 8.5H11.4106V9.99066H9.91992V8.5Z" fill="#ECECF1"/>
<path d="M10.666 8.5H11.4113V9.99066H10.666V8.5Z" fill="#CFDDE2"/>
<path d="M18.8593 18.9312H20.3383V20.4218H18.8477L18.8593 18.9312Z" fill="#ECECF1"/>
<path d="M19.6047 20.4218H18.8594V18.9312H19.6047" fill="#DADADA"/>
</svg>
