<svg width="32" height="33" viewBox="0 0 32 33" fill="none" xmlns="http://www.w3.org/2000/svg">
<path d="M32 16.29C32 19.4545 31.0616 22.548 29.3035 25.1792C27.5454 27.8103 25.0466 29.8611 22.1229 31.0721C19.1993 32.2831 15.9823 32.6 12.8786 31.9826C9.77486 31.3652 6.92394 29.8414 4.6863 27.6037C2.44866 25.3661 0.924806 22.5152 0.307443 19.4115C-0.309921 16.3078 0.00693189 13.0907 1.21793 10.1671C2.42894 7.24349 4.4797 4.74463 7.11088 2.98653C9.74207 1.22842 12.8355 0.290039 16 0.290039C20.2435 0.290039 24.3131 1.97575 27.3137 4.97633C30.3143 7.97691 32 12.0466 32 16.29Z" fill="#FFEFF3"/>
<path d="M11.5938 25.6235H20.4062V29.5451H11.5938V25.6235Z" fill="#5241B8"/>
<path d="M11.5938 25.6235H16V29.5451H11.5938V25.6235Z" fill="#4839A1"/>
<path d="M30.3518 5.97519V23.376C29.7531 24.5871 29.0032 25.7173 28.1202 26.7398C28.0172 26.7459 27.9138 26.7459 27.8107 26.7398H4.1915C4.08842 26.7459 3.98507 26.7459 3.882 26.7398C2.999 25.7173 2.24916 24.5871 1.65039 23.376V5.97519C1.65039 5.30124 1.91811 4.6549 2.39466 4.17835C2.87121 3.7018 3.51755 3.43408 4.1915 3.43408H27.8107C28.4847 3.43408 29.131 3.7018 29.6076 4.17835C30.0841 4.6549 30.3518 5.30124 30.3518 5.97519Z" fill="#9070FF"/>
<path d="M16.0011 26.756H4.1915C4.08842 26.7622 3.98507 26.7622 3.882 26.756C2.999 25.7336 2.24916 24.6034 1.65039 23.3923V5.97519C1.65039 5.30124 1.91811 4.6549 2.39466 4.17835C2.87121 3.7018 3.51755 3.43408 4.1915 3.43408H15.9319" fill="#7A54FF"/>
<path d="M29.0314 5.9751V21.9303C29.0314 22.2543 28.9026 22.5651 28.6735 22.7942C28.4444 23.0233 28.1337 23.152 27.8097 23.152H4.19043C3.86642 23.152 3.55568 23.0233 3.32657 22.7942C3.09746 22.5651 2.96875 22.2543 2.96875 21.9303V5.9751C2.96875 5.65109 3.09746 5.34035 3.32657 5.11124C3.55568 4.88213 3.86642 4.75342 4.19043 4.75342H27.8097C28.1337 4.75342 28.4444 4.88213 28.6735 5.11124C28.9026 5.34035 29.0314 5.65109 29.0314 5.9751Z" fill="#CAF1FF"/>
<path d="M23.3303 30.4045C23.3303 30.4493 23.3303 30.49 23.3303 30.5308C21.0679 31.6871 18.5633 32.29 16.0226 32.29C13.4818 32.29 10.9772 31.6871 8.71484 30.5308C8.71484 30.49 8.71484 30.4452 8.71484 30.4045C8.71592 29.9041 8.91547 29.4245 9.26972 29.071C9.62396 28.7176 10.104 28.519 10.6044 28.519H21.4529C21.9516 28.5212 22.4291 28.7208 22.7809 29.0742C23.1327 29.4275 23.3303 29.9059 23.3303 30.4045Z" fill="#9070FF"/>
<path d="M16 32.29C13.4513 32.297 10.9379 31.6938 8.66992 30.5308C8.66992 30.49 8.66992 30.4452 8.66992 30.4045C8.671 29.9041 8.87055 29.4245 9.22479 29.071C9.57903 28.7176 10.059 28.519 10.5595 28.519H16" fill="#7A54FF"/>
<path d="M27.8097 4.74121H4.19043C3.86642 4.74121 3.55568 4.86992 3.32657 5.09903C3.09746 5.32814 2.96875 5.63888 2.96875 5.9629V8.02754H29.0314V5.9629C29.0314 5.63888 28.9026 5.32814 28.6735 5.09903C28.4444 4.86992 28.1337 4.74121 27.8097 4.74121Z" fill="#EBF5FF"/>
<path d="M15.5277 4.74121H4.19043C3.86642 4.74121 3.55568 4.86992 3.32657 5.09903C3.09746 5.32814 2.96875 5.63888 2.96875 5.9629V8.02754H15.5277" fill="white"/>
<path d="M18.553 11.9734V23.1804H4.22266V11.9734C4.22265 11.7182 4.32378 11.4733 4.50389 11.2924C4.68401 11.1115 4.92845 11.0094 5.18371 11.0083H17.592C17.8472 11.0094 18.0917 11.1115 18.2718 11.2924C18.4519 11.4733 18.553 11.7182 18.553 11.9734Z" fill="white"/>
<path d="M17.2495 12.3154V22.4473C16.9074 22.6997 16.5572 22.94 16.1948 23.164H5.52539V12.3154H17.2495Z" fill="#36507D"/>
<path d="M11.3854 23.1803H5.52539V12.3154H11.3854" fill="#4567A1"/>
<path d="M17.2503 20.1015V23.1801H5.9375L8.42159 20.696C8.48865 20.6281 8.56853 20.5741 8.65662 20.5373C8.7447 20.5004 8.83923 20.4815 8.9347 20.4815C9.03018 20.4815 9.1247 20.5004 9.21278 20.5373C9.30086 20.5741 9.38075 20.6281 9.44781 20.696L10.3396 21.5878C10.4067 21.6558 10.4866 21.7098 10.5747 21.7466C10.6627 21.7835 10.7573 21.8024 10.8527 21.8024C10.9482 21.8024 11.0427 21.7835 11.1308 21.7466C11.2189 21.7098 11.2988 21.6558 11.3659 21.5878L14.5789 18.3748C14.6464 18.3055 14.7272 18.2504 14.8163 18.2128C14.9055 18.1751 15.0013 18.1558 15.0981 18.1558C15.1949 18.1558 15.2907 18.1751 15.3799 18.2128C15.469 18.2504 15.5498 18.3055 15.6173 18.3748L17.2503 20.1015Z" fill="#C5F306"/>
<path d="M11.3652 21.5717L14.5783 18.3587C14.6458 18.2894 14.7265 18.2343 14.8157 18.1967C14.9049 18.159 15.0007 18.1396 15.0975 18.1396C15.1943 18.1396 15.2901 18.159 15.3792 18.1967C15.4684 18.2343 15.5492 18.2894 15.6167 18.3587L17.2456 20.0894V23.1803H11.3856" fill="#AFD900"/>
<path d="M9.23983 15.1619C9.23983 15.3931 9.17129 15.619 9.04287 15.8112C8.91444 16.0034 8.73191 16.1532 8.51835 16.2417C8.30479 16.3301 8.06979 16.3533 7.84308 16.3082C7.61636 16.2631 7.40811 16.1518 7.24466 15.9883C7.08121 15.8249 6.9699 15.6166 6.9248 15.3899C6.87971 15.1632 6.90285 14.9282 6.99131 14.7146C7.07977 14.5011 7.22957 14.3186 7.42177 14.1901C7.61397 14.0617 7.83993 13.9932 8.07109 13.9932C8.38106 13.9932 8.67833 14.1163 8.89752 14.3355C9.1167 14.5547 9.23983 14.8519 9.23983 15.1619Z" fill="white"/>
<path d="M8.07053 16.3347C7.77196 16.3171 7.4914 16.1861 7.28623 15.9685C7.08107 15.7508 6.9668 15.463 6.9668 15.1639C6.9668 14.8649 7.08107 14.5771 7.28623 14.3594C7.4914 14.1418 7.77196 14.0108 8.07053 13.9932" fill="#F6F6F6"/>
<path d="M11.8462 1.15727C11.7975 1.11511 11.7402 1.08414 11.6783 1.06655C11.6164 1.04895 11.5513 1.04517 11.4878 1.05546L6.60106 1.80883C6.4964 1.82536 6.4011 1.87878 6.33239 1.95944C6.26368 2.0401 6.22609 2.14268 6.22642 2.24864V6.28835C5.91874 6.14179 5.57177 6.09918 5.23778 6.16697C4.9038 6.23475 4.60088 6.40923 4.37468 6.66414C4.14848 6.91904 4.01126 7.24056 3.98367 7.58024C3.95609 7.91992 4.03965 8.25936 4.22176 8.54742C4.40386 8.83548 4.67466 9.05656 4.99333 9.17734C5.31201 9.29812 5.66131 9.31206 5.9886 9.21706C6.31589 9.12206 6.60343 8.92326 6.80792 8.65063C7.0124 8.378 7.12274 8.04629 7.12232 7.7055V4.04044L11.1132 3.42146V5.53904C10.8058 5.39155 10.4588 5.34798 10.1246 5.41489C9.79029 5.4818 9.48682 5.65557 9.25992 5.91C9.03302 6.16443 8.89499 6.48572 8.86663 6.82545C8.83827 7.16517 8.92112 7.50491 9.1027 7.79344C9.28427 8.08197 9.55472 8.30365 9.87328 8.42506C10.1918 8.54647 10.5412 8.56102 10.8688 8.46653C11.1963 8.37204 11.4843 8.17362 11.6892 7.9012C11.8942 7.62877 12.005 7.29711 12.005 6.9562V1.49527C12.0044 1.43082 11.9899 1.36726 11.9625 1.30893C11.9351 1.2506 11.8954 1.19886 11.8462 1.15727Z" fill="#FF3871"/>
<path d="M9.02814 1.43457L6.60921 1.80922C6.50306 1.82397 6.40583 1.87662 6.33547 1.95746C6.26512 2.0383 6.22638 2.14186 6.22642 2.24903V6.28873C5.91874 6.14217 5.57177 6.09957 5.23778 6.16735C4.9038 6.23513 4.60088 6.40962 4.37468 6.66453C4.14848 6.91943 4.01126 7.24095 3.98367 7.58063C3.95609 7.92031 4.03965 8.25975 4.22176 8.54781C4.40386 8.83587 4.67466 9.05695 4.99333 9.17773C5.31201 9.29851 5.66131 9.31244 5.9886 9.21745C6.31589 9.12245 6.60343 8.92365 6.80792 8.65102C7.0124 8.37839 7.12274 8.04668 7.12232 7.70589V4.04083L9.0933 3.73541" fill="#FF5988"/>
<path d="M26.6328 17.0068H21.799C21.7103 17.0068 21.6224 16.9893 21.5404 16.9553C21.4583 16.9214 21.3838 16.8716 21.321 16.8088C21.2583 16.746 21.2085 16.6715 21.1745 16.5895C21.1405 16.5075 21.123 16.4196 21.123 16.3308C21.123 16.242 21.1405 16.1541 21.1745 16.0721C21.2085 15.9901 21.2583 15.9155 21.321 15.8528C21.3838 15.79 21.4583 15.7402 21.5404 15.7062C21.6224 15.6723 21.7103 15.6548 21.799 15.6548H26.6328C26.7216 15.6548 26.8095 15.6723 26.8915 15.7062C26.9736 15.7402 27.0481 15.79 27.1108 15.8528C27.1736 15.9155 27.2234 15.9901 27.2574 16.0721C27.2914 16.1541 27.3088 16.242 27.3088 16.3308C27.3088 16.4196 27.2914 16.5075 27.2574 16.5895C27.2234 16.6715 27.1736 16.746 27.1108 16.8088C27.0481 16.8716 26.9736 16.9214 26.8915 16.9553C26.8095 16.9893 26.7216 17.0068 26.6328 17.0068Z" fill="#1B1236"/>
<path d="M26.6325 19.6498H21.7987C21.7058 19.657 21.6124 19.6449 21.5244 19.6143C21.4364 19.5837 21.3556 19.5353 21.2872 19.472C21.2188 19.4087 21.1642 19.332 21.1269 19.2466C21.0896 19.1612 21.0703 19.069 21.0703 18.9758C21.0703 18.8826 21.0896 18.7904 21.1269 18.705C21.1642 18.6196 21.2188 18.5429 21.2872 18.4796C21.3556 18.4163 21.4364 18.3679 21.5244 18.3373C21.6124 18.3067 21.7058 18.2946 21.7987 18.3018H26.6325C26.7255 18.2946 26.8189 18.3067 26.9069 18.3373C26.9949 18.3679 27.0757 18.4163 27.1441 18.4796C27.2125 18.5429 27.267 18.6196 27.3044 18.705C27.3417 18.7904 27.361 18.8826 27.361 18.9758C27.361 19.069 27.3417 19.1612 27.3044 19.2466C27.267 19.332 27.2125 19.4087 27.1441 19.472C27.0757 19.5353 26.9949 19.5837 26.9069 19.6143C26.8189 19.6449 26.7255 19.657 26.6325 19.6498Z" fill="#1B1236"/>
<path d="M26.6325 22.2923H21.7987C21.7058 22.2996 21.6124 22.2875 21.5244 22.2569C21.4364 22.2263 21.3556 22.1779 21.2872 22.1146C21.2188 22.0513 21.1642 21.9745 21.1269 21.8891C21.0896 21.8038 21.0703 21.7116 21.0703 21.6184C21.0703 21.5252 21.0896 21.433 21.1269 21.3476C21.1642 21.2622 21.2188 21.1855 21.2872 21.1222C21.3556 21.0589 21.4364 21.0104 21.5244 20.9798C21.6124 20.9493 21.7058 20.9372 21.7987 20.9444H26.6325C26.7255 20.9372 26.8189 20.9493 26.9069 20.9798C26.9949 21.0104 27.0757 21.0589 27.1441 21.1222C27.2125 21.1855 27.267 21.2622 27.3044 21.3476C27.3417 21.433 27.361 21.5252 27.361 21.6184C27.361 21.7116 27.3417 21.8038 27.3044 21.8891C27.267 21.9745 27.2125 22.0513 27.1441 22.1146C27.0757 22.1779 26.9949 22.2263 26.9069 22.2569C26.8189 22.2875 26.7255 22.2996 26.6325 22.2923Z" fill="#1B1236"/>
<path d="M18.9034 3.67803V4.52507C18.9043 4.69746 18.843 4.8644 18.7308 4.99529C18.6186 5.12619 18.463 5.21225 18.2925 5.23772L16.0976 5.57572V9.21227C16.1014 9.42482 16.0628 9.636 15.984 9.83347C15.9053 10.0309 15.788 10.2108 15.639 10.3624C15.49 10.514 15.3123 10.6345 15.1163 10.7167C14.9202 10.7989 14.7098 10.8412 14.4972 10.8412C14.0803 10.8374 13.682 10.6682 13.3898 10.3707C13.0977 10.0732 12.9357 9.67192 12.9395 9.25502C12.9433 8.83813 13.1125 8.43981 13.41 8.1477C13.7075 7.85558 14.1088 7.6936 14.5257 7.69738C14.7612 7.69595 14.994 7.74891 15.2057 7.85212V3.80835C15.2007 3.6971 15.2378 3.58804 15.3094 3.5028C15.3811 3.41756 15.4822 3.36237 15.5926 3.34818L18.0808 2.96539C18.183 2.95011 18.2874 2.95714 18.3867 2.98599C18.486 3.01484 18.5778 3.06483 18.656 3.13253C18.7341 3.20023 18.7967 3.28404 18.8394 3.3782C18.8821 3.47236 18.9039 3.57464 18.9034 3.67803Z" fill="#FF3871"/>
<path d="M16.0976 6.74869V9.19206C16.1014 9.40462 16.0628 9.6158 15.984 9.81327C15.9053 10.0107 15.788 10.1905 15.639 10.3422C15.49 10.4938 15.3123 10.6143 15.1163 10.6965C14.9202 10.7787 14.7098 10.821 14.4972 10.821C14.2907 10.8191 14.0867 10.7766 13.8967 10.6959C13.7067 10.6151 13.5345 10.4978 13.3898 10.3505C13.2452 10.2032 13.131 10.0289 13.0537 9.83745C12.9765 9.64602 12.9376 9.44125 12.9395 9.23482C12.9414 9.0284 12.9839 8.82436 13.0646 8.63437C13.1454 8.44437 13.2627 8.27213 13.41 8.12749C13.5573 7.98285 13.7316 7.86864 13.923 7.79137C14.1145 7.71411 14.3192 7.6753 14.5257 7.67717C14.7612 7.67575 14.994 7.72871 15.2057 7.83192V6.34961" fill="#FF5787"/>
<path d="M20.8628 16.0984C24.0652 16.4688 27.2996 16.4688 30.5019 16.0984C30.797 16.0648 31.0729 15.9355 31.2876 15.7304C31.5024 15.5252 31.644 15.2554 31.691 14.9622C32.1023 12.4623 32.1023 9.91206 31.691 7.41219C31.6436 7.11877 31.5018 6.84878 31.2873 6.64305C31.0728 6.43733 30.7971 6.30706 30.5019 6.27195C27.2996 5.90154 24.0652 5.90154 20.8628 6.27195C20.5677 6.30706 20.292 6.43733 20.0774 6.64305C19.8629 6.84878 19.7212 7.11877 19.6737 7.41219C19.2624 9.91206 19.2624 12.4623 19.6737 14.9622C19.7207 15.2554 19.8624 15.5252 20.0771 15.7304C20.2918 15.9355 20.5678 16.0648 20.8628 16.0984Z" fill="#852583"/>
<path d="M25.9369 5.99512H25.6844C24.0733 5.99602 22.4635 6.08847 20.8628 6.27203C20.5677 6.30714 20.292 6.43741 20.0774 6.64313C19.8629 6.84885 19.7212 7.11885 19.6737 7.41227C19.2624 9.91214 19.2624 12.4624 19.6737 14.9623C19.7207 15.2555 19.8624 15.5253 20.0771 15.7304C20.2918 15.9356 20.5678 16.0648 20.8628 16.0984C22.5469 16.2942 24.2415 16.3867 25.9369 16.3754" fill="#AF31AD"/>
<path d="M25.1627 8.52015L28.2576 10.4626C28.3737 10.5361 28.4693 10.6377 28.5356 10.758C28.6018 10.8784 28.6366 11.0135 28.6366 11.1509C28.6366 11.2882 28.6018 11.4233 28.5356 11.5437C28.4693 11.664 28.3737 11.7656 28.2576 11.8391L25.1627 13.8141C25.0396 13.8911 24.8982 13.9337 24.753 13.9376C24.6079 13.9415 24.4644 13.9066 24.3373 13.8364C24.2102 13.7662 24.1042 13.6634 24.0302 13.5384C23.9563 13.4135 23.917 13.2711 23.9166 13.1259V9.24095C23.911 9.09302 23.9459 8.94639 24.0175 8.8168C24.089 8.68721 24.1945 8.57957 24.3227 8.50545C24.4508 8.43133 24.5967 8.39353 24.7447 8.39612C24.8927 8.39871 25.0372 8.4416 25.1627 8.52015Z" fill="white"/>
<path d="M25.2926 8.61394L25.1623 8.53249C25.0392 8.45555 24.8978 8.41291 24.7527 8.40899C24.6075 8.40507 24.464 8.44001 24.3369 8.5102C24.2098 8.58039 24.1038 8.68327 24.0298 8.80819C23.9559 8.93311 23.9167 9.07553 23.9162 9.22071V13.1057C23.913 13.2526 23.9495 13.3976 24.022 13.5254C24.0945 13.6533 24.2002 13.7591 24.3279 13.8317C24.4556 13.9043 24.6006 13.9411 24.7475 13.938C24.8944 13.9349 25.0378 13.8922 25.1623 13.8142L25.2926 13.7328V8.61394Z" fill="#EBF5FF"/>
</svg>
