<svg width="32" height="37" viewBox="0 0 32 37" fill="none" xmlns="http://www.w3.org/2000/svg">
<path d="M32 16.5796C32.0005 19.041 31.4504 21.4702 30.3916 23.6829C30.09 24.3155 29.7474 24.9269 29.3658 25.513C29.2222 25.7345 29.0745 25.9518 28.9186 26.1691C28.2335 27.1214 27.4493 27.9956 26.5798 28.7764C23.6622 31.4035 19.9007 32.8512 16.0062 32.8462C15.5548 32.8462 15.1076 32.8253 14.6685 32.7877C11.7605 32.5428 8.9743 31.4891 6.61418 29.7416C6.44595 29.6163 6.27771 29.4867 6.11359 29.353C5.94947 29.2193 5.70328 29.0104 5.49813 28.8349C5.29297 28.6594 5.18631 28.5508 5.0345 28.417C4.88269 28.2833 4.67752 28.0661 4.50519 27.8864C4.33286 27.7067 4.21797 27.5772 4.09488 27.4184C3.97178 27.2596 3.74203 27.0006 3.5738 26.8C3.40557 26.5994 3.31528 26.4657 3.19219 26.2944C1.43236 23.9136 0.353165 21.0836 0.0738526 18.1172C0.0246155 17.6075 0 17.0852 0 16.5587C0.148385 12.3405 1.89818 8.34543 4.88101 5.4147C7.86384 2.48397 11.847 0.846191 15.9918 0.846191C20.1366 0.846191 24.1197 2.48397 27.1026 5.4147C30.0854 8.34543 31.8352 12.3405 31.9836 16.5587L32 16.5796Z" fill="#FFEFF3"/>
<path d="M12.4308 29.4452L2.79794 13.9498C2.68021 13.7574 2.64303 13.5263 2.69448 13.3067C2.74593 13.087 2.88186 12.8965 3.07281 12.7764L18.4984 3.18465C18.6909 3.06692 18.9219 3.02975 19.1415 3.0812C19.3612 3.13265 19.5517 3.26857 19.6718 3.45952L29.3087 18.9631C29.3681 19.0581 29.4081 19.1639 29.4264 19.2744C29.4447 19.3849 29.441 19.4979 29.4155 19.607C29.3899 19.716 29.343 19.819 29.2775 19.9098C29.212 20.0007 29.1292 20.0777 29.0338 20.1364L13.6123 29.7241C13.5168 29.7846 13.4101 29.8254 13.2986 29.8441C13.187 29.8629 13.0729 29.8591 12.9629 29.8331C12.8528 29.8072 12.749 29.7595 12.6577 29.6928C12.5663 29.6262 12.4891 29.542 12.4308 29.4452ZM3.96716 13.5887L4.56204 14.5529L5.49741 13.9703L4.90256 13.0103L3.96716 13.5887ZM18.482 5.90465L19.4297 5.31388L18.8349 4.35387L17.8831 4.94464L18.482 5.90465ZM6.76512 16.0011L6.15384 15.0205L5.21025 15.5908L5.82153 16.5713L6.76512 16.0011ZM20.6933 7.34465L20.0779 6.36003L19.1467 6.9385L19.7579 7.92721L20.6933 7.34465ZM12.0205 26.5529L12.9641 25.9662L12.361 24.9898L11.4133 25.5805L12.0205 26.5529ZM25.3456 16.9118L25.9569 17.8964L26.9005 17.3098L26.2892 16.3252L25.3456 16.9118ZM12.6646 27.5785L13.2554 28.5303L14.2154 27.9354L13.6246 26.9836L12.6646 27.5785ZM27.1713 19.8739L28.1354 19.2749L27.5487 18.3354L26.5887 18.9303L27.1713 19.8739ZM7.42562 17.0021L6.48204 17.6421L7.06049 18.5775L8.00818 17.9908L7.42562 17.0021ZM20.9641 9.86772L21.9077 9.28106L21.3251 8.34567L20.3815 8.92824L20.9641 9.86772ZM7.71281 19.5949L8.29947 20.5426L9.23487 19.96L8.6482 19.0164L7.71281 19.5949ZM23.1713 11.3118L22.5846 10.3682L21.641 10.9549L22.2277 11.8985L23.1713 11.3118ZM10.5025 21.9498C10.3179 21.6585 10.1661 21.3918 9.98973 21.1293C9.95705 21.0994 9.91727 21.0785 9.87417 21.0684C9.83106 21.0583 9.7861 21.0595 9.74358 21.0718C9.46461 21.2195 9.20204 21.3959 8.92307 21.56L9.55896 22.5652L10.5025 21.9498ZM23.4461 13.88L24.3897 13.2893L23.8113 12.358L22.8636 12.9446L23.4461 13.88ZM10.7569 24.5262L11.7046 23.9395L11.122 23.0041L10.1743 23.5908L10.7569 24.5262ZM25.6328 15.2954L25.0461 14.3518L24.1107 14.9303L24.7015 15.878L25.6328 15.2954Z" fill="#AA9CFF"/>
<path opacity="0.35" d="M13.6121 29.7202L29.0336 20.1325C29.129 20.0738 29.2118 19.9967 29.2773 19.9059C29.3428 19.815 29.3897 19.7121 29.4153 19.603C29.4408 19.494 29.4445 19.3809 29.4262 19.2704C29.4079 19.1599 29.3679 19.0541 29.3085 18.9591L19.6716 3.45557C19.6142 3.36036 19.538 3.27781 19.4478 3.21293C19.3575 3.14805 19.255 3.10218 19.1465 3.07812L18.847 4.35812L19.4377 5.31403L18.4901 5.9048L13.5054 27.0781L13.6244 27.0043L14.2152 27.9561L13.2511 28.5468L13.1813 28.432L12.8613 29.794C12.9839 29.8395 13.1152 29.8564 13.2452 29.8436C13.3753 29.8308 13.5008 29.7886 13.6121 29.7202ZM28.1352 19.2833L27.1711 19.8822C26.97 19.5581 26.7854 19.2627 26.5885 18.9386L27.5485 18.3438L28.1352 19.2833ZM26.9044 17.3017L25.9608 17.8884L25.3495 16.9038L26.2931 16.3171C26.4941 16.6617 26.6911 16.9735 26.9003 17.3099L26.9044 17.3017ZM25.6367 15.2874L24.7054 15.8699L24.1147 14.9222L25.0501 14.3438L25.6367 15.2874ZM24.4059 13.2812L23.4624 13.872L22.8798 12.9366L23.8275 12.3499L24.4059 13.2812ZM23.1752 11.3038L22.2316 11.8904L21.6449 10.9468L22.5885 10.3602L23.1752 11.3038ZM21.9444 9.30581L21.0008 9.89248L20.4182 8.953L21.3619 8.37043L21.9444 9.30581ZM20.1024 6.33967L20.7177 7.32428L19.7824 7.90684L19.1711 6.91812L20.1024 6.33967Z" fill="#8F86EA"/>
<path d="M18.933 9.86355L8.88141 16.1128C8.65242 16.2552 8.5822 16.5562 8.72456 16.7852L12.5045 22.865C12.6468 23.0939 12.9479 23.1642 13.1768 23.0218L23.2285 16.7725C23.4574 16.6301 23.5277 16.3291 23.3853 16.1001L19.6054 10.0204C19.463 9.79139 19.162 9.72119 18.933 9.86355Z" fill="#683DFF"/>
<path d="M16.438 5.85288L6.37945 12.1065C6.15047 12.2489 6.08025 12.5499 6.22261 12.7789L7.55478 14.9216C7.69714 15.1506 7.99818 15.2208 8.22716 15.0784L18.2857 8.82481C18.5147 8.68245 18.5849 8.38141 18.4426 8.15243L17.1104 6.00972C16.9681 5.78073 16.667 5.71051 16.438 5.85288Z" fill="#683DFF"/>
<path d="M23.8938 17.8098L13.8247 24.0699C13.5958 24.2122 13.5256 24.5133 13.6679 24.7422L15.0001 26.885C15.1425 27.1139 15.4435 27.1842 15.6725 27.0418L25.7415 20.7817C25.9705 20.6393 26.0407 20.3383 25.8983 20.1093L24.5662 17.9666C24.4238 17.7376 24.1228 17.6674 23.8938 17.8098Z" fill="#683DFF"/>
<path d="M3.97461 13.5887L4.90998 13.0103L5.50486 13.9703L4.56949 14.5528L3.97461 13.5887Z" fill="#683DFF"/>
<path d="M18.4896 5.90479L17.8906 4.94477L18.8424 4.354L19.4373 5.31401L18.4896 5.90479Z" fill="#683DFF"/>
<path d="M6.76385 16.0008L5.82026 16.5875L5.20898 15.5906L6.15257 15.0039L6.76385 16.0008Z" fill="#683DFF"/>
<path d="M20.6932 7.33227L19.7578 7.91484L19.1465 6.92612L20.0778 6.34766L20.6932 7.33227Z" fill="#683DFF"/>
<path d="M12.0212 26.5528L11.4141 25.5805L12.3618 24.9897L12.9648 25.9662L12.0212 26.5528Z" fill="#683DFF"/>
<path d="M25.3457 16.9119L26.2893 16.3252L26.9006 17.3098L25.957 17.8965L25.3457 16.9119Z" fill="#683DFF"/>
<path d="M12.6641 27.5949L13.624 27L14.2148 27.9518L13.2507 28.5467L12.6641 27.5949Z" fill="#683DFF"/>
<path d="M27.1724 19.89L26.5898 18.9464L27.5498 18.3516L28.1365 19.291L27.1724 19.89Z" fill="#683DFF"/>
<path d="M7.42601 17.0347L8.00856 17.9701L7.06087 18.5567L6.48242 17.6419L7.42601 17.0347Z" fill="#683DFF"/>
<path d="M20.9771 9.90047L20.3945 8.96098L21.3381 8.37842L21.9207 9.3138L20.9771 9.90047Z" fill="#683DFF"/>
<path d="M7.71289 19.5951L8.64829 19.0166L9.23495 19.9602L8.29955 20.5428L7.71289 19.5951Z" fill="#683DFF"/>
<path d="M23.1709 11.3118L22.2273 11.8984L21.6406 10.9548L22.5842 10.3682L23.1709 11.3118Z" fill="#683DFF"/>
<path d="M10.5017 21.9499L9.55814 22.5653L8.95508 21.593C9.26687 21.4002 9.57454 21.1828 9.90685 21.0269C10.1203 21.3245 10.3188 21.6326 10.5017 21.9499Z" fill="#683DFF"/>
<path d="M23.4458 13.88L22.8633 12.9446L23.811 12.3579L24.3894 13.2892L23.4458 13.88Z" fill="#683DFF"/>
<path d="M10.7564 24.526L10.1738 23.5906L11.1215 23.0039L11.7041 23.9393L10.7564 24.526Z" fill="#683DFF"/>
<path d="M25.6334 15.2951L24.7021 15.8777L24.1113 14.93L25.0467 14.3516L25.6334 15.2951Z" fill="#683DFF"/>
<path d="M26.9004 12.7191C27.2081 12.6452 27.4665 12.5673 27.7209 12.5303C28.0023 12.4892 28.2575 12.3425 28.4347 12.1201C28.6112 11.915 28.8122 11.7303 29.0255 11.5088C29.1117 11.8862 29.1773 12.2267 29.2676 12.559C29.3028 12.6846 29.3675 12.7999 29.4563 12.8955C29.6901 13.1457 29.9404 13.3796 30.2194 13.6544C29.9158 13.7242 29.6532 13.8062 29.3988 13.8431C29.1173 13.8839 28.862 14.0307 28.685 14.2534C28.5127 14.4585 28.3158 14.6391 28.0942 14.8606C28.0286 14.5652 27.9506 14.3026 27.9096 14.0401C27.872 13.7529 27.7251 13.4913 27.4993 13.3098C27.2983 13.1293 27.1178 12.9447 26.9004 12.7191Z" fill="#F8D923"/>
<path d="M29.037 11.5293C28.8237 11.7467 28.6268 11.9395 28.4504 12.1365C28.2731 12.3589 28.0179 12.5056 27.7365 12.5467C27.4658 12.5836 27.2073 12.6616 26.916 12.7355C27.1335 12.9488 27.3263 13.1457 27.515 13.318C27.7407 13.4995 27.8877 13.7611 27.9253 14.0483C27.9663 14.3149 28.0442 14.5734 28.1099 14.8688L29.037 11.5293Z" fill="#FBAA17"/>
<path d="M8.91602 6.13013C9.24832 5.87577 9.52321 5.63373 9.8268 5.44091C10.1482 5.24301 10.3805 4.92836 10.475 4.56295C10.5775 4.21423 10.717 3.87783 10.8606 3.49219C11.1683 3.90244 11.435 4.27988 11.7263 4.6327C11.8369 4.76617 11.9774 4.8716 12.1365 4.94039C12.5468 5.1168 12.9899 5.26449 13.4781 5.445C13.1458 5.69936 12.875 5.93731 12.5714 6.13013C12.2509 6.33089 12.0191 6.64636 11.9232 7.01218C11.8247 7.35269 11.6811 7.68091 11.5376 8.07065C11.2955 7.74655 11.0576 7.47578 10.8647 7.17219C10.6578 6.84364 10.3337 6.60605 9.95806 6.50756C9.62165 6.4091 9.29755 6.26962 8.91602 6.13013Z" fill="#F8D923"/>
<path d="M10.8565 3.50049C10.717 3.88203 10.5734 4.21433 10.475 4.56305C10.3805 4.92846 10.1482 5.24311 9.8268 5.44101C9.52321 5.63383 9.24832 5.87587 8.91602 6.13023C9.29755 6.26972 9.62165 6.4092 9.96216 6.50766C10.3378 6.60615 10.6619 6.84374 10.8688 7.17229C11.0576 7.47178 11.2791 7.74664 11.5376 8.06664L10.8565 3.50049Z" fill="#FBAA17"/>
<path d="M5.5005 24.7151C5.09024 23.9807 4.72513 23.2833 4.33128 22.5981C4.24372 22.4489 4.11944 22.3247 3.97025 22.2371C3.28512 21.8474 2.58768 21.474 1.85742 21.0802C1.93947 21.0269 1.99691 20.9858 2.05844 20.953C2.70665 20.5961 3.35898 20.2474 4.00308 19.8822C4.13196 19.8067 4.23928 19.6993 4.31485 19.5705C4.67178 18.9428 5.01231 18.3028 5.36103 17.671C5.39795 17.5971 5.44307 17.5274 5.50461 17.4248C5.56615 17.5233 5.61537 17.5971 5.6564 17.6751C6.00512 18.311 6.34563 18.9469 6.70255 19.5787C6.77224 19.6997 6.87275 19.8002 6.99384 19.8699C7.62974 20.231 8.27384 20.5797 8.91384 20.9284C8.98768 20.9694 9.05333 21.0145 9.15179 21.0761C8.46256 21.4535 7.80204 21.8269 7.13742 22.1756C6.91224 22.2868 6.72938 22.4682 6.61641 22.6925C6.30462 23.2915 5.9764 23.8781 5.65229 24.4648C5.61127 24.5387 5.56614 24.6166 5.5005 24.7151Z" fill="#F8D923"/>
<path opacity="0.5" d="M5.50461 17.4248C5.44307 17.5274 5.39795 17.5971 5.36103 17.671C5.01231 18.3028 4.67178 18.9428 4.31485 19.5705C4.23928 19.6993 4.13196 19.8067 4.00308 19.8822C3.35898 20.2474 2.70665 20.5961 2.05844 20.953C1.99691 20.9858 1.93947 21.0269 1.85742 21.0761C2.58768 21.4863 3.28512 21.8474 3.97025 22.2371C4.11944 22.3247 4.24372 22.4489 4.33128 22.5981C4.74154 23.2833 5.09845 23.9807 5.5005 24.7151V17.4248H5.50461Z" fill="#FBAA17"/>
<g opacity="0.4">
<path opacity="0.4" d="M15.9629 19.0496C15.9629 18.9471 15.9629 18.8527 15.9629 18.7625L15.9875 17.5317C15.9875 17.2814 16.1188 17.1994 16.3445 17.2979L19.1547 18.5655L19.2614 18.6148C19.2237 18.6448 19.1839 18.6722 19.1424 18.6968L15.3024 21.1502C15.2122 21.2076 15.126 21.2609 15.0152 21.1994C14.9045 21.1379 14.9168 21.0312 14.925 20.9245C14.9742 20.3009 15.0276 19.6938 15.0768 19.0579C15.0973 18.8281 15.204 18.7625 15.4214 18.8404L15.9629 19.0496Z" fill="#76E2F8"/>
<path opacity="0.4" d="M20.2252 18.0527C20.0816 18.1471 19.9421 18.2415 19.7903 18.3235C19.7643 18.3346 19.7364 18.3403 19.7082 18.3403C19.68 18.3403 19.6521 18.3346 19.6262 18.3235C18.5814 17.8613 17.538 17.3936 16.4959 16.9204C16.474 16.9066 16.4556 16.888 16.4421 16.8659C16.4286 16.8439 16.4203 16.819 16.418 16.7932C16.418 16.4938 16.418 16.1943 16.4385 15.8948C16.4339 15.8555 16.4405 15.8157 16.4576 15.78C16.4747 15.7443 16.5015 15.7142 16.535 15.6932C16.5685 15.6722 16.6073 15.661 16.6468 15.6611C16.6864 15.6612 16.7251 15.6725 16.7585 15.6938C18.0494 16.2408 19.339 16.8015 20.6272 17.3758C20.6928 17.4045 20.7749 17.4907 20.7749 17.5522C20.7704 17.5938 20.7571 17.634 20.7359 17.6701C20.7146 17.7061 20.686 17.7373 20.6518 17.7615C20.5 17.8722 20.3523 17.9543 20.2252 18.0527Z" fill="#76E2F8"/>
<path opacity="0.4" d="M15.585 18.0894C15.3404 18.0495 15.1084 17.9534 14.9073 17.8086C14.7062 17.6638 14.5415 17.4743 14.4261 17.2549C14.3107 17.0356 14.2479 16.7925 14.2426 16.5447C14.2372 16.297 14.2895 16.0514 14.3953 15.8272C14.501 15.6031 14.6574 15.4067 14.8521 15.2533C15.0468 15.0999 15.2744 14.9939 15.517 14.9435C15.7597 14.8932 16.0107 14.8999 16.2503 14.9631C16.4899 15.0263 16.7116 15.1443 16.8978 15.3078C16.8043 15.2897 16.7098 15.2774 16.6148 15.2709C16.4562 15.273 16.3049 15.3375 16.1936 15.4504C16.0823 15.5633 16.0199 15.7154 16.0199 15.874C16.0199 16.1858 16.0199 16.4976 15.9912 16.8094C15.989 16.8347 15.9813 16.8592 15.9685 16.8812C15.9557 16.9032 15.9382 16.9221 15.9173 16.9365C15.8213 16.9905 15.7413 17.0692 15.6858 17.1644C15.6303 17.2596 15.6011 17.3679 15.6014 17.4781C15.5932 17.6791 15.5891 17.8801 15.585 18.0894Z" fill="#76E2F8"/>
<path opacity="0.4" d="M13.4021 17.5723C13.5169 17.4985 13.6277 17.4246 13.7426 17.359C13.7647 17.3452 13.7892 17.336 13.8149 17.3317C13.8406 17.3275 13.8668 17.3284 13.8921 17.3343C13.9175 17.3402 13.9414 17.351 13.9626 17.3662C13.9837 17.3813 14.0017 17.4005 14.0154 17.4226C14.0291 17.4447 14.0384 17.4692 14.0426 17.4949C14.0469 17.5206 14.046 17.5468 14.0401 17.5721C14.0342 17.5975 14.0234 17.6214 14.0082 17.6426C13.9931 17.6637 13.9739 17.6817 13.9518 17.6954C13.7344 17.839 13.5128 17.9826 13.2872 18.1056C13.2649 18.123 13.2392 18.1354 13.2117 18.1421C13.1843 18.1488 13.1557 18.1497 13.128 18.1446C13.1002 18.1396 13.0738 18.1287 13.0505 18.1128C13.0271 18.0968 13.0074 18.0762 12.9926 18.0521C12.9778 18.028 12.9683 18.0011 12.9646 17.9731C12.9609 17.9451 12.9632 17.9166 12.9712 17.8896C12.9793 17.8625 12.9929 17.8374 13.0113 17.816C13.0297 17.7945 13.0524 17.7772 13.078 17.7651C13.1846 17.7036 13.2954 17.6421 13.4021 17.5723Z" fill="#76E2F8"/>
<path opacity="0.4" d="M17.8332 14.7703L18.1614 14.5652C18.1836 14.548 18.2093 14.5357 18.2367 14.5292C18.2641 14.5227 18.2925 14.5222 18.3201 14.5276C18.3477 14.5331 18.3738 14.5444 18.3967 14.5608C18.4196 14.5771 18.4386 14.5982 18.4527 14.6226C18.4671 14.6452 18.4766 14.6705 18.4807 14.697C18.4848 14.7234 18.4833 14.7505 18.4763 14.7763C18.4694 14.8022 18.4571 14.8263 18.4403 14.8472C18.4236 14.868 18.4026 14.8852 18.3788 14.8975C18.1614 15.0411 17.944 15.1806 17.7224 15.3077C17.7005 15.3257 17.6748 15.3385 17.6473 15.3454C17.6198 15.3522 17.5911 15.353 17.5633 15.3475C17.5355 15.342 17.5092 15.3304 17.4864 15.3136C17.4635 15.2968 17.4447 15.2752 17.4311 15.2503C17.4173 15.2273 17.4082 15.2016 17.4044 15.175C17.4006 15.1484 17.4021 15.1212 17.409 15.0952C17.4159 15.0692 17.428 15.0448 17.4444 15.0235C17.4609 15.0023 17.4815 14.9845 17.505 14.9713L17.8127 14.7785L17.8332 14.7703Z" fill="#76E2F8"/>
<path opacity="0.4" d="M12.6603 15.4843C12.7299 15.4779 12.8 15.4779 12.8696 15.4843L13.5875 15.6443C13.7311 15.6771 13.7967 15.7715 13.768 15.8905C13.7612 15.9186 13.7484 15.9449 13.7306 15.9678C13.7128 15.9906 13.6904 16.0095 13.6649 16.023C13.6393 16.0366 13.6111 16.0446 13.5822 16.0465C13.5533 16.0484 13.5244 16.0442 13.4972 16.0341C13.247 15.9807 12.9967 15.9315 12.7547 15.8618C12.718 15.8457 12.6851 15.822 12.6583 15.7923C12.6314 15.7626 12.6111 15.7276 12.5988 15.6894C12.5824 15.6361 12.6357 15.5623 12.6603 15.4843Z" fill="#76E2F8"/>
<path opacity="0.4" d="M16.3165 14.3602C16.2549 14.3602 16.1729 14.3602 16.1236 14.3315C16.0948 14.3101 16.0713 14.2823 16.0549 14.2502C16.0385 14.2182 16.0298 14.1829 16.0293 14.1469C16.0785 13.8679 16.14 13.589 16.2139 13.3264C16.2192 13.3018 16.2299 13.2786 16.2451 13.2585C16.2603 13.2385 16.2798 13.222 16.3021 13.2103C16.3244 13.1985 16.349 13.1918 16.3741 13.1906C16.3993 13.1894 16.4244 13.1938 16.4477 13.2033C16.4709 13.2067 16.4932 13.2149 16.5131 13.2272C16.5331 13.2395 16.5503 13.2558 16.5637 13.275C16.5772 13.2942 16.5865 13.3159 16.5913 13.3389C16.596 13.3618 16.5961 13.3855 16.5913 13.4084C16.538 13.6915 16.4724 13.9664 16.4067 14.229C16.3944 14.2905 16.3575 14.3192 16.3165 14.3602Z" fill="#76E2F8"/>
<path opacity="0.4" d="M14.2717 14.4052C14.202 14.2945 14.1323 14.1878 14.0666 14.077C14.0484 14.0543 14.0352 14.0279 14.0279 13.9996C14.0207 13.9714 14.0195 13.9419 14.0246 13.9132C14.0296 13.8844 14.0408 13.8571 14.0572 13.833C14.0736 13.8089 14.095 13.7886 14.12 13.7735C14.1442 13.7595 14.171 13.7507 14.1989 13.7477C14.2267 13.7447 14.2548 13.7476 14.2814 13.7561C14.3081 13.7646 14.3326 13.7785 14.3536 13.7971C14.3745 13.8156 14.3914 13.8383 14.403 13.8637C14.5425 14.077 14.6779 14.274 14.8133 14.5078C14.8284 14.5302 14.8388 14.5553 14.844 14.5818C14.8491 14.6083 14.8489 14.6355 14.8433 14.6619C14.8377 14.6883 14.8269 14.7133 14.8114 14.7354C14.796 14.7575 14.7762 14.7763 14.7534 14.7906C14.7305 14.8049 14.705 14.8145 14.6784 14.8187C14.6517 14.823 14.6245 14.8219 14.5983 14.8154C14.5722 14.8089 14.5475 14.7972 14.526 14.781C14.5044 14.7648 14.4863 14.7445 14.4728 14.7211C14.403 14.6186 14.3374 14.5119 14.2717 14.4052Z" fill="#76E2F8"/>
</g>
<path d="M21.3541 36.4317L18.1172 35.8492L22.3592 12.4646C22.3781 12.3728 22.4308 12.2916 22.5068 12.2369C22.5828 12.1821 22.6765 12.158 22.7695 12.1692L25.2803 12.6205C25.3732 12.6375 25.4561 12.6896 25.5118 12.7659C25.5675 12.8422 25.5918 12.937 25.5798 13.0307L21.3541 36.4317Z" fill="#FF3871"/>
<path d="M22.7811 12.1624L25.2927 12.6134C25.3891 12.6308 25.4747 12.6856 25.5306 12.766C25.5865 12.8464 25.6082 12.9457 25.5909 13.0421L24.7106 17.9442L21.4803 17.3641L22.3634 12.4459C22.3841 12.3544 22.4387 12.2743 22.5163 12.2216C22.5938 12.169 22.6885 12.1478 22.7811 12.1624Z" fill="#F8D923"/>
<path opacity="0.32" d="M19.7377 36.1405L18.1172 35.8492L22.3593 12.4646C22.3781 12.3728 22.4308 12.2916 22.5068 12.2369C22.5828 12.1821 22.6765 12.158 22.7695 12.1692L23.6598 12.3292C23.7527 12.3462 23.8355 12.3983 23.8913 12.4746C23.947 12.5509 23.9713 12.6457 23.9592 12.7394L19.7377 36.1405Z" fill="#A63871"/>
</svg>
