<svg width="32" height="32" viewBox="0 0 32 32" fill="none" xmlns="http://www.w3.org/2000/svg">
<path d="M31.9795 15.9918C31.9794 18.4097 31.4294 20.7959 30.3713 22.9697C30.0698 23.5912 29.7271 24.1918 29.3456 24.7676C29.2034 24.9838 29.0557 25.1972 28.9026 25.4079C27.421 27.4459 25.4795 29.1051 23.2361 30.2506C20.9926 31.3961 18.5105 31.9955 15.9918 32C15.5364 32 15.0933 32 14.6503 31.9466C11.7422 31.7047 8.9564 30.6682 6.59692 28.9502L6.09641 28.5726C5.88718 28.4084 5.68615 28.236 5.48103 28.0595C5.2759 27.883 5.16923 27.7845 5.01744 27.649C4.86564 27.5136 4.66051 27.3043 4.4882 27.1278C4.3159 26.9513 4.20513 26.824 4.07795 26.668C3.95077 26.5121 3.72513 26.2576 3.56103 26.0605C3.39692 25.8635 3.29846 25.7322 3.17539 25.5639C1.42529 23.2244 0.352288 20.4482 0.0738463 17.5392C0.0246155 17.0344 0 16.5254 0 16.0082C6.32325e-08 11.7626 1.68571 7.69082 4.68629 4.6887C7.68687 1.68657 11.7565 0 16 0C20.2435 0 24.3131 1.68657 27.3137 4.6887C30.3143 7.69082 32 11.7626 32 16.0082L31.9795 15.9918Z" fill="#FFEFF3"/>
<path d="M30.6834 5.63285H1.30492C1.05466 5.63285 0.814656 5.73226 0.637698 5.90922C0.460741 6.08618 0.361328 6.32618 0.361328 6.57644V26.1621C0.361328 26.4123 0.460741 26.6523 0.637698 26.8293C0.814656 27.0063 1.05466 27.1057 1.30492 27.1057H30.6916C30.9418 27.1057 31.1818 27.0063 31.3588 26.8293C31.5358 26.6523 31.6352 26.4123 31.6352 26.1621V6.56823C31.6341 6.44432 31.6086 6.32183 31.5602 6.20776C31.5118 6.09368 31.4414 5.99027 31.353 5.90341C31.2646 5.81655 31.16 5.74795 31.0451 5.70153C30.9302 5.6551 30.8073 5.63177 30.6834 5.63285Z" fill="#7A54FF"/>
<path d="M30.6838 5.63281H30.171V24.5046C30.171 24.7549 30.0715 24.9949 29.8946 25.1718C29.7176 25.3488 29.4776 25.4482 29.2274 25.4482H0.353516V26.1415C0.353516 26.3918 0.452929 26.6318 0.629886 26.8087C0.806843 26.9857 1.04685 27.0851 1.29711 27.0851H30.6838C30.934 27.0851 31.174 26.9857 31.351 26.8087C31.5279 26.6318 31.6274 26.3918 31.6274 26.1415V6.5682C31.6252 6.31937 31.5248 6.08146 31.3481 5.90628C31.1714 5.73109 30.9326 5.6328 30.6838 5.63281Z" fill="#472FE3"/>
<path d="M29.3951 24.1599H2.58487C2.50435 24.1599 2.42713 24.1279 2.3702 24.071C2.31326 24.014 2.28128 23.9368 2.28128 23.8563V8.0655C2.28073 8.02529 2.28819 7.98537 2.3032 7.94807C2.31821 7.91076 2.34049 7.87681 2.36873 7.84818C2.39698 7.81956 2.43063 7.79683 2.46773 7.78131C2.50484 7.7658 2.54465 7.75781 2.58487 7.75781H29.3951C29.4353 7.75781 29.4752 7.7658 29.5123 7.78131C29.5494 7.79683 29.583 7.81956 29.6113 7.84818C29.6395 7.87681 29.6618 7.91076 29.6768 7.94807C29.6918 7.98537 29.6993 8.02529 29.6987 8.0655V23.8563C29.6987 23.9368 29.6667 24.014 29.6098 24.071C29.5529 24.1279 29.4756 24.1599 29.3951 24.1599Z" fill="#EBF5FF"/>
<path d="M6.6382 14.2768H2.28128V8.0655C2.28073 8.02529 2.28819 7.98537 2.3032 7.94807C2.31821 7.91076 2.34049 7.87681 2.36873 7.84818C2.39698 7.81956 2.43063 7.79683 2.46773 7.78131C2.50484 7.7658 2.54465 7.75781 2.58487 7.75781H6.6382V14.2768Z" fill="#2E8BE6"/>
<path d="M29.7033 17.6654H25.6992C25.537 17.6654 25.3816 17.601 25.2669 17.4864C25.1523 17.3717 25.0879 17.2163 25.0879 17.0541V7.729H29.3956C29.4769 7.73007 29.5545 7.76283 29.612 7.8203C29.6695 7.87777 29.7022 7.95542 29.7033 8.0367V17.6654Z" fill="#2E8BE6"/>
<path d="M6.03099 17.6942H2.28125V13.9526H6.63817V17.0829C6.63818 17.2443 6.57434 17.3992 6.46059 17.5137C6.34683 17.6282 6.1924 17.6931 6.03099 17.6942Z" fill="#157DD1"/>
<path d="M28.3813 22.322H3.82336C3.69823 22.322 3.57823 22.2723 3.48975 22.1838C3.40127 22.0953 3.35156 21.9753 3.35156 21.8502C3.35156 21.7251 3.40127 21.6051 3.48975 21.5166C3.57823 21.4281 3.69823 21.3784 3.82336 21.3784H28.3813C28.5064 21.3784 28.6264 21.4281 28.7149 21.5166C28.8034 21.6051 28.8531 21.7251 28.8531 21.8502C28.8531 21.9753 28.8034 22.0953 28.7149 22.1838C28.6264 22.2723 28.5064 22.322 28.3813 22.322Z" fill="#472FE3"/>
<path d="M24.1631 21.8504C24.1639 22.0786 24.0969 22.3018 23.9708 22.492C23.8446 22.6821 23.6648 22.8305 23.4543 22.9184C23.2437 23.0062 23.0118 23.0297 22.7879 22.9856C22.564 22.9416 22.3582 22.8322 22.1965 22.6711C22.0349 22.51 21.9247 22.3046 21.8799 22.0809C21.8351 21.8572 21.8576 21.6252 21.9448 21.4143C22.0319 21.2034 22.1797 21.0231 22.3693 20.8962C22.559 20.7694 22.7821 20.7017 23.0102 20.7017C23.3153 20.7017 23.6079 20.8226 23.824 21.0379C24.04 21.2532 24.162 21.5453 24.1631 21.8504Z" fill="#FF4155"/>
<path opacity="0.38" d="M23.0126 23.0033C22.8557 23.0127 22.6985 22.9899 22.5508 22.9363C22.403 22.8827 22.2678 22.7994 22.1533 22.6916C22.0389 22.5839 21.9478 22.4538 21.8855 22.3095C21.8232 22.1652 21.791 22.0097 21.791 21.8525C21.791 21.6953 21.8232 21.5398 21.8855 21.3955C21.9478 21.2512 22.0389 21.1212 22.1533 21.0134C22.2678 20.9056 22.403 20.8224 22.5508 20.7688C22.6985 20.7152 22.8557 20.6924 23.0126 20.7018" fill="#E80054"/>
<path d="M9.4404 21.8504C9.44121 22.0786 9.37429 22.3018 9.24811 22.492C9.12193 22.6821 8.94217 22.8305 8.73159 22.9184C8.52102 23.0062 8.28909 23.0297 8.0652 22.9856C7.84131 22.9416 7.63551 22.8322 7.47387 22.6711C7.31224 22.51 7.20203 22.3046 7.15722 22.0809C7.1124 21.8572 7.13499 21.6252 7.22213 21.4143C7.30926 21.2034 7.45702 21.0231 7.64668 20.8962C7.83635 20.7694 8.0594 20.7017 8.28758 20.7017C8.59262 20.7017 8.88522 20.8226 9.1013 21.0379C9.31738 21.2532 9.43931 21.5453 9.4404 21.8504Z" fill="#FF4155"/>
<path opacity="0.38" d="M8.28015 23.0033C8.12325 23.0127 7.9661 22.9899 7.81833 22.9363C7.67057 22.8827 7.53533 22.7994 7.42092 22.6916C7.30651 22.5839 7.21535 22.4538 7.15304 22.3095C7.09074 22.1652 7.05859 22.0097 7.05859 21.8525C7.05859 21.6953 7.09074 21.5398 7.15304 21.3955C7.21535 21.2512 7.30651 21.1212 7.42092 21.0134C7.53533 20.9056 7.67057 20.8224 7.81833 20.7688C7.9661 20.7152 8.12325 20.6924 8.28015 20.7018" fill="#E80054"/>
<path d="M28.3813 20.0124H3.82336C3.69823 20.0124 3.57823 19.9627 3.48975 19.8742C3.40127 19.7858 3.35156 19.6658 3.35156 19.5406C3.35156 19.4155 3.40127 19.2955 3.48975 19.207C3.57823 19.1186 3.69823 19.0688 3.82336 19.0688H28.3813C28.5064 19.0688 28.6264 19.1186 28.7149 19.207C28.8034 19.2955 28.8531 19.4155 28.8531 19.5406C28.8531 19.6658 28.8034 19.7858 28.7149 19.8742C28.6264 19.9627 28.5064 20.0124 28.3813 20.0124Z" fill="#472FE3"/>
<path d="M14.2236 19.5405C14.2236 19.7685 14.156 19.9914 14.0293 20.181C13.9026 20.3706 13.7226 20.5183 13.512 20.6056C13.3013 20.6928 13.0695 20.7157 12.8459 20.6712C12.6223 20.6267 12.4168 20.5169 12.2556 20.3557C12.0944 20.1945 11.9846 19.989 11.9401 19.7654C11.8956 19.5418 11.9185 19.31 12.0057 19.0993C12.093 18.8887 12.2407 18.7087 12.4303 18.582C12.6199 18.4553 12.8428 18.3877 13.0708 18.3877C13.3765 18.3877 13.6698 18.5092 13.886 18.7253C14.1022 18.9415 14.2236 19.2348 14.2236 19.5405Z" fill="#FF4155"/>
<path opacity="0.38" d="M13.0708 20.6933C12.765 20.6933 12.4718 20.5719 12.2556 20.3557C12.0394 20.1395 11.918 19.8463 11.918 19.5405C11.918 19.2348 12.0394 18.9415 12.2556 18.7253C12.4718 18.5092 12.765 18.3877 13.0708 18.3877" fill="#E80054"/>
<path d="M20.0503 12.7223L14.2411 9.36636C14.1482 9.31323 14.043 9.28539 13.936 9.28565C13.829 9.2859 13.724 9.31422 13.6314 9.36779C13.5388 9.42136 13.4619 9.49832 13.4083 9.59093C13.3547 9.68355 13.3264 9.7886 13.3262 9.89558V16.6033C13.3252 16.7108 13.3527 16.8166 13.4059 16.9099C13.4592 17.0033 13.5363 17.0808 13.6293 17.1347C13.7224 17.1885 13.828 17.2166 13.9355 17.2163C14.043 17.2159 14.1484 17.187 14.2411 17.1325L20.0503 13.7807C20.1442 13.7279 20.2224 13.651 20.2768 13.558C20.3312 13.465 20.3599 13.3592 20.3599 13.2515C20.3599 13.1437 20.3312 13.0379 20.2768 12.9449C20.2224 12.8519 20.1442 12.7751 20.0503 12.7223Z" fill="#7A54FF"/>
<path d="M20.0257 12.6894L19.1067 12.1602C19.0886 12.2458 19.0525 12.3267 19.0009 12.3974C18.9493 12.4681 18.8833 12.5271 18.8072 12.5704L13.3262 15.7253V16.5458C13.3263 16.6561 13.3555 16.7644 13.4109 16.8599C13.4662 16.9553 13.5457 17.0344 13.6414 17.0893C13.7371 17.1442 13.8455 17.173 13.9559 17.1726C14.0662 17.1723 14.1744 17.1429 14.2698 17.0873L20.0133 13.7643C20.1066 13.7095 20.1841 13.6315 20.2383 13.538C20.2926 13.4444 20.3217 13.3384 20.323 13.2303C20.3242 13.1222 20.2975 13.0155 20.2454 12.9208C20.1933 12.826 20.1176 12.7463 20.0257 12.6894Z" fill="#472FE3"/>
</svg>
