<svg width="1792" height="926" viewBox="0 0 1792 926" fill="none" xmlns="http://www.w3.org/2000/svg">
<path d="M0 0H1792V920H0V0Z" fill="#6FCFF0"/>
<path d="M0 0H1792V920H0V0Z" fill="url(#paint0_linear_6231_168312)"/>
<path d="M157.992 78.6986C157.992 78.6986 143.413 78.9031 130.842 94.1986C126.545 99.4283 122.755 105.68 123.509 112.69C123.719 114.32 123.441 115.976 122.71 117.449C122.054 118.951 121.783 120.593 121.922 122.226C122.102 126.504 123.282 130.68 125.367 134.42C126.175 135.882 127.259 135.9 126.041 136.984C124.392 138.466 120.925 139.262 118.913 140.19C115.324 141.842 111.75 143.541 108.224 145.306C102.343 148.269 95.0164 151.323 90.4656 156.258C84.2865 162.962 83.427 173.318 86.6774 178.355C89.9277 183.391 97.8625 182.058 98.1816 182.636C98.5008 183.214 103.356 190.162 104.835 192.384L97.8775 199.106C96.9243 200.032 96.3345 201.269 96.2148 202.593C96.095 203.917 96.4533 205.239 97.2248 206.321L99.3516 209.282C99.5058 209.495 99.5816 209.755 99.5663 210.017C99.551 210.28 99.4454 210.529 99.2674 210.722L94.1578 216.218C93.2228 217.224 92.7104 218.551 92.7268 219.924C92.7431 221.298 93.287 222.612 94.2458 223.595L96.3091 225.883C96.7783 226.41 97.3537 226.831 97.9976 227.12C98.6414 227.409 99.339 227.558 100.045 227.558C100.75 227.557 101.448 227.408 102.091 227.119C102.735 226.83 103.31 226.408 103.779 225.881L107.469 221.786C107.796 221.418 108.251 221.19 108.741 221.146C109.231 221.103 109.719 221.248 110.105 221.552L113.264 224.023C113.732 224.389 114.315 224.578 114.909 224.556C115.503 224.535 116.071 224.306 116.513 223.908L129.677 209.85C129.677 209.85 136.259 222.676 145.309 220.716C154.36 218.755 171.173 202.887 173.726 180.457L177.339 174.154C177.339 174.154 182.052 173.07 183.98 169.218C185.908 165.365 189.734 157.174 187.582 155.575L185.431 153.976L185.966 147.603C185.966 147.603 201.529 132.677 204.495 127.497C207.46 122.318 211.707 119.458 210.835 115.13C209.995 111.024 203.993 103.281 198.145 104.215C197.506 104.332 196.922 104.655 196.482 105.133L194.191 107.541L191.424 98.7882C191.424 98.7882 192 91.1241 184.796 84.9701C179.072 80.0667 173.461 81.8636 173.461 81.8636C168.582 79.7395 163.313 78.6613 157.992 78.6986V78.6986Z" fill="white"/>
<path d="M176.264 150.038L167.768 140.199L172.687 135.951C180.827 128.93 181.88 127.777 186.68 121.801L190.737 116.738L200.916 124.824L196.858 129.888C191.456 136.653 189.654 138.437 181.217 145.748L176.264 150.038Z" fill="#3AC2DF"/>
<path d="M167.726 142.107C171.491 153.473 164.195 162.953 156.261 170.077L127.585 195.823C126.817 196.698 125.767 197.278 124.617 197.462C123.873 197.427 123.146 197.218 122.497 196.851C119.004 195.349 115.826 193.202 113.129 190.521C109.103 186.211 107.447 175.085 100.688 174.203C98.2166 173.866 95.8813 175.201 93.4715 176.03C93.2886 176.093 93.0944 176.119 92.9013 176.104C92.7082 176.088 92.5203 176.033 92.3495 175.942C92.1788 175.851 92.0288 175.725 91.9092 175.572C91.7896 175.42 91.7029 175.244 91.6546 175.057C90.8036 172.164 90.6598 169.109 91.2352 166.149C93.5643 155.392 112.399 149.284 121.308 145.516C143.388 136.164 141.854 135.537 141.854 135.537" fill="#EF5B81"/>
<path d="M140.477 197.076C145.53 192.924 149.182 187.317 150.936 181.016C152.322 176.081 156.895 172.55 162.173 173.667C166.944 174.652 170.943 179.927 169.528 184.913C166.482 196.029 159.954 205.877 150.902 213.012C146.903 216.237 140.355 214.268 137.743 210.284C134.703 205.589 136.474 200.315 140.477 197.076Z" fill="#3AC2DF"/>
<path d="M137.932 199.852C136.845 201.357 136.244 203.159 136.212 205.015C136.179 206.871 136.716 208.693 137.749 210.235C140.366 214.227 146.909 216.188 150.908 212.962C151.918 212.142 152.895 211.305 153.835 210.443C153.835 210.443 141.627 203.295 138.661 200.386" fill="#6B2075"/>
<path d="M162.772 200.068L157.608 198.351C157.425 198.292 157.229 198.291 157.046 198.349C156.863 198.407 156.702 198.521 156.587 198.675L153.572 202.626C153.49 202.734 153.434 202.86 153.407 202.993C153.38 203.126 153.384 203.264 153.417 203.395C153.45 203.527 153.513 203.65 153.599 203.754C153.686 203.859 153.795 203.942 153.919 203.999C155.4 204.725 156.972 205.248 158.593 205.553L162.772 200.068Z" fill="#6B2075"/>
<path d="M160.864 136.015C164.275 136.256 167.533 136.901 171.044 136.949C173.448 136.822 175.836 137.396 177.92 138.601C183.646 142.452 182.012 153.122 180.134 158.844C177.795 165.985 174.178 173.044 168.974 178.204C164.689 182.421 159.405 181.81 153.82 181.525C150.121 180.999 146.477 180.14 142.933 178.959C140.902 178.344 138.774 177.635 137.387 176.013C136.605 174.979 136.078 173.776 135.846 172.5C134.759 167.595 136.139 163.496 138.311 159.177C140.571 154.685 139.932 149.04 142.482 144.764C145.158 140.281 148.966 136.772 154.348 136.05C155.992 135.877 157.648 135.837 159.298 135.932C159.795 135.943 160.33 135.979 160.864 136.015Z" fill="white"/>
<path d="M166.597 180.579C163.096 182.513 159.06 182.32 154.866 182.09L153.7 182.048C150.1 181.547 146.553 180.718 143.102 179.574L142.708 179.46C140.792 178.885 138.408 178.169 136.914 176.355C136.09 175.276 135.535 174.016 135.295 172.679C134.125 167.396 135.807 162.995 137.805 159.023C138.751 156.876 139.381 154.604 139.677 152.277C139.977 149.601 140.764 147.002 141.998 144.609C145.152 139.336 149.267 136.321 154.244 135.651C155.913 135.47 157.594 135.428 159.27 135.525C159.816 135.543 160.354 135.566 160.893 135.611C162.271 135.706 163.63 135.87 164.952 136.03C166.918 136.259 168.96 136.502 171.047 136.537C173.134 136.572 176.004 136.803 178.209 138.293C184.179 142.318 182.53 153.271 180.582 159.134C177.924 167.228 174.008 173.995 169.246 178.693C168.453 179.439 167.562 180.073 166.597 180.579V180.579ZM149.579 138.125C146.767 139.785 144.449 142.165 142.866 145.021C141.572 147.186 141.133 149.702 140.669 152.357C140.361 154.788 139.701 157.161 138.712 159.402C136.502 163.799 135.282 167.671 136.291 172.392C136.501 173.593 136.994 174.726 137.729 175.699C139.02 177.271 141.254 177.944 143.035 178.48L143.429 178.594C146.815 179.714 150.293 180.53 153.824 181.031L154.927 181.085C159.983 181.365 164.743 181.626 168.576 177.852C173.217 173.266 177.049 166.637 179.685 158.669C181.515 153.089 183.147 142.682 177.674 138.999C175.695 137.671 173.099 137.46 171.087 137.417C169.013 137.35 166.943 137.178 164.885 136.902C163.576 136.745 162.223 136.59 160.876 136.489C160.349 136.445 159.819 136.417 159.288 136.406C157.664 136.309 156.035 136.349 154.418 136.526C152.718 136.745 151.075 137.288 149.579 138.125V138.125Z" fill="#000405"/>
<path d="M168.088 165.635C167.822 165.784 167.525 165.87 167.221 165.886C157.519 166.249 147.813 165.293 138.369 163.042C138.114 162.976 137.875 162.861 137.665 162.703C137.455 162.545 137.278 162.347 137.144 162.121C137.011 161.894 136.923 161.644 136.886 161.383C136.85 161.123 136.865 160.858 136.93 160.603C136.996 160.349 137.111 160.11 137.269 159.9C137.427 159.69 137.625 159.513 137.852 159.379C138.078 159.246 138.329 159.158 138.589 159.121C138.849 159.084 139.114 159.099 139.369 159.165C148.426 161.298 157.726 162.215 167.025 161.892C167.475 161.873 167.917 162.006 168.282 162.27C168.646 162.533 168.911 162.912 169.034 163.345C169.157 163.777 169.13 164.239 168.959 164.654C168.787 165.07 168.48 165.416 168.088 165.635V165.635Z" fill="#000202"/>
<path d="M174.249 136.173C174.249 136.173 178.623 134.557 179.04 137.319C179.458 140.082 170.077 145.207 161.839 145.473C153.6 145.74 144.979 144.402 145.593 140.51C145.593 140.51 145.465 139.347 147.877 139.328C150.288 139.31 156.492 143.24 168.768 138.847" fill="white"/>
<path d="M174.879 142.257C170.876 144.457 166.434 145.74 161.874 146.013C158.852 146.106 148.775 146.166 145.85 142.858C145.561 142.551 145.344 142.182 145.217 141.78C145.089 141.377 145.055 140.951 145.115 140.533C145.12 140.205 145.248 139.89 145.473 139.65C145.802 139.361 146.187 139.142 146.604 139.008C147.021 138.874 147.462 138.827 147.898 138.871C148.709 138.936 149.51 139.096 150.285 139.345C153.652 140.25 159.287 141.764 168.617 138.427L168.96 139.38C159.335 142.823 153.279 141.187 150.057 140.317C149.369 140.092 148.659 139.944 147.939 139.876C146.48 139.882 146.155 140.348 146.153 140.531L146.153 140.634C146.106 140.916 146.126 141.204 146.211 141.477C146.296 141.749 146.444 141.998 146.643 142.203C148.361 144.155 154.342 145.262 161.9 145.005C168.323 144.804 175.718 141.542 178.038 138.752C178.391 138.398 178.598 137.925 178.619 137.426C178.601 137.237 178.539 137.055 178.439 136.895C178.338 136.734 178.202 136.599 178.04 136.501C177.066 135.896 175.164 136.444 174.498 136.687L174.146 135.739C174.408 135.594 177.009 134.717 178.535 135.599C178.823 135.774 179.068 136.012 179.25 136.295C179.432 136.578 179.548 136.9 179.587 137.234C179.609 137.624 179.548 138.013 179.409 138.378C179.27 138.742 179.055 139.073 178.779 139.348C177.66 140.54 176.34 141.525 174.879 142.257Z" fill="#000405"/>
<path d="M121.251 161.736C121.062 161.625 120.921 161.447 120.857 161.238C120.792 161.029 120.807 160.803 120.9 160.604C124.43 153.365 132.308 147.174 139.658 143.914C143.109 142.384 147.289 143.251 149.135 146.779C150.861 149.903 149.747 154.712 146.279 156.25C142.301 158.025 136.602 161.916 134.036 165.481C133.587 166.09 133.175 166.726 132.802 167.385C132.748 167.485 132.674 167.574 132.585 167.645C132.496 167.716 132.394 167.769 132.284 167.799C132.174 167.83 132.059 167.839 131.946 167.824C131.833 167.81 131.724 167.772 131.625 167.715L121.251 161.736Z" fill="#3AC2DF"/>
<path d="M129.184 167.761C129.109 167.781 129.038 167.815 128.976 167.862C128.913 167.909 128.861 167.968 128.822 168.035C128.783 168.103 128.757 168.177 128.747 168.254C128.736 168.332 128.742 168.41 128.762 168.486L129.821 172.471C129.93 172.89 130.201 173.25 130.573 173.471C130.946 173.693 131.391 173.759 131.812 173.655V173.655C132.026 173.605 132.228 173.512 132.406 173.383C132.585 173.254 132.736 173.091 132.851 172.903C132.966 172.715 133.043 172.506 133.077 172.289C133.111 172.071 133.101 171.849 133.049 171.635L132.217 167.937C132.192 167.825 132.144 167.72 132.077 167.628C132.011 167.535 131.926 167.457 131.828 167.398C131.731 167.339 131.622 167.3 131.509 167.284C131.396 167.268 131.281 167.274 131.171 167.304L129.184 167.761Z" fill="#FFD180"/>
<path d="M121.422 160.556C121.329 160.676 118.707 165.277 118.901 167.946C119.096 170.615 120.437 170.251 120.437 170.251C120.437 170.251 121.388 171.622 122.214 171.771C123.039 171.921 123.663 172.616 124.841 172.742C125.416 172.812 127.534 174.681 129.783 172.445L132.458 166.946L121.422 160.556Z" fill="#FFD180"/>
<path d="M130.108 150.034L133.439 153.106C133.523 153.184 133.59 153.279 133.635 153.385C133.68 153.491 133.702 153.605 133.699 153.719C133.697 153.834 133.67 153.947 133.621 154.051C133.571 154.154 133.5 154.246 133.413 154.32L129.589 157.575C129.449 157.694 129.274 157.763 129.09 157.771C128.907 157.779 128.726 157.726 128.575 157.621C127.394 156.765 124.631 154.761 124.736 154.806C124.841 154.851 127.161 151.73 130.108 150.034Z" fill="#6B2075"/>
<path d="M125.325 173.103C125.273 173.131 125.212 173.139 125.154 173.128C125.096 173.117 125.043 173.085 125.005 173.04C124.771 172.71 124.638 172.319 124.623 171.914C124.609 171.544 124.63 171.173 124.685 170.806C124.689 170.773 124.699 170.742 124.715 170.713C124.73 170.684 124.752 170.658 124.778 170.638C124.803 170.617 124.833 170.602 124.865 170.593C124.896 170.584 124.929 170.581 124.962 170.584C124.995 170.588 125.027 170.598 125.056 170.614C125.085 170.63 125.11 170.651 125.131 170.677C125.151 170.703 125.166 170.732 125.176 170.764C125.185 170.796 125.188 170.829 125.184 170.862C125.13 171.199 125.108 171.54 125.118 171.881C125.132 172.188 125.233 172.485 125.409 172.737C125.428 172.764 125.442 172.794 125.45 172.826C125.458 172.858 125.459 172.892 125.454 172.925C125.448 172.957 125.437 172.989 125.419 173.017C125.401 173.045 125.378 173.069 125.351 173.088L125.325 173.103Z" fill="#000202"/>
<path d="M122.657 171.995C122.62 171.988 122.583 171.978 122.548 171.964V171.964C122.491 171.94 122.443 171.898 122.414 171.844C122.355 171.778 122.312 171.701 122.288 171.616C122.02 171.015 121.946 170.346 122.075 169.7C122.094 169.638 122.136 169.585 122.193 169.553C122.251 169.522 122.318 169.514 122.381 169.531C122.413 169.539 122.443 169.554 122.469 169.574C122.495 169.594 122.516 169.619 122.532 169.648C122.548 169.676 122.558 169.708 122.561 169.741C122.564 169.773 122.561 169.806 122.55 169.838C122.439 170.378 122.501 170.939 122.728 171.442C122.767 171.512 122.781 171.538 122.786 171.547L122.657 171.995Z" fill="#000202"/>
<path d="M120.302 170.314C120.242 170.344 120.172 170.35 120.108 170.33C120.044 170.31 119.99 170.266 119.957 170.207C119.673 169.495 119.64 168.706 119.866 167.973C119.869 167.938 119.88 167.903 119.897 167.873C119.915 167.842 119.939 167.815 119.968 167.794C119.997 167.773 120.03 167.759 120.064 167.752C120.099 167.744 120.135 167.745 120.17 167.753C120.205 167.761 120.237 167.776 120.266 167.797C120.294 167.819 120.317 167.846 120.334 167.877C120.351 167.909 120.361 167.943 120.364 167.979C120.366 168.014 120.361 168.05 120.349 168.083C120.153 168.705 120.172 169.374 120.405 169.983C120.434 170.041 120.439 170.108 120.42 170.169C120.401 170.231 120.358 170.283 120.302 170.314Z" fill="#000202"/>
<path d="M130.039 172.761C130.01 172.775 129.978 172.784 129.945 172.786C129.912 172.789 129.879 172.785 129.848 172.774C129.817 172.764 129.788 172.748 129.763 172.726C129.738 172.705 129.718 172.678 129.703 172.649C129.435 172.107 129.221 171.54 129.065 170.956C128.729 171.325 128.475 171.761 128.321 172.236C128.313 172.268 128.299 172.297 128.279 172.323C128.259 172.349 128.233 172.371 128.205 172.387C128.176 172.403 128.144 172.412 128.112 172.416C128.079 172.419 128.046 172.415 128.015 172.405C127.982 172.396 127.952 172.381 127.926 172.36C127.899 172.34 127.877 172.314 127.861 172.284C127.845 172.255 127.834 172.223 127.831 172.189C127.828 172.156 127.831 172.122 127.841 172.09C128.054 171.388 128.467 170.763 129.029 170.291C129.062 170.261 129.103 170.241 129.147 170.233C129.191 170.224 129.236 170.229 129.278 170.245C129.31 170.268 129.337 170.298 129.356 170.333C129.375 170.368 129.387 170.407 129.389 170.446C129.542 171.139 129.779 171.81 130.093 172.445C130.123 172.496 130.133 172.555 130.123 172.613C130.113 172.67 130.084 172.723 130.039 172.761V172.761Z" fill="#000202"/>
<path d="M172.129 158.022C175.551 157.792 178.985 157.827 182.401 158.128C183.908 158.313 183.679 159.822 182.996 161.398L180.099 168.025C179.203 170.063 175.336 169.742 174.204 169.762C171.661 169.79 169.118 169.669 166.589 169.399C164.473 169.208 165.517 167.603 166.365 165.559L167.757 162.185C168.133 160.981 168.708 159.848 169.459 158.834C170.208 158.223 171.167 157.932 172.129 158.022V158.022Z" fill="white"/>
<path d="M179.287 169.491C177.851 170.088 176.294 170.338 174.743 170.219L174.214 170.214C171.66 170.247 169.106 170.132 166.564 169.87C166.275 169.878 165.989 169.816 165.729 169.688C165.47 169.561 165.245 169.372 165.075 169.139C164.664 168.395 165.076 167.424 165.612 166.18C165.727 165.934 165.841 165.665 165.947 165.401L167.546 161.513C167.899 160.434 168.441 159.427 169.147 158.538C169.538 158.19 169.994 157.923 170.489 157.753C170.984 157.584 171.508 157.515 172.03 157.551L172.126 157.498C175.572 157.273 179.03 157.31 182.47 157.611C182.734 157.626 182.99 157.704 183.218 157.839C183.445 157.973 183.637 158.161 183.777 158.385C184.154 159.068 184.053 160.084 183.427 161.515L180.53 168.142C180.286 168.723 179.846 169.2 179.287 169.491ZM170.233 158.829C170.071 158.921 169.923 159.037 169.796 159.174C169.179 159.978 168.704 160.881 168.392 161.845L166.77 165.712C166.66 165.99 166.541 166.25 166.431 166.505C166.042 167.394 165.641 168.301 165.843 168.646C165.925 168.795 166.206 168.891 166.629 168.932C169.134 169.193 171.653 169.305 174.171 169.267L174.735 169.275C176.114 169.29 178.998 169.319 179.644 167.82L182.541 161.193C183.178 159.699 183.06 159.113 182.929 158.877C182.895 158.815 182.784 158.614 182.307 158.557C178.918 158.264 175.51 158.237 172.117 158.474L172.02 158.528C171.409 158.486 170.797 158.589 170.233 158.829V158.829Z" fill="#000405"/>
<path d="M178.628 164.489C179.573 163.415 179.606 161.9 178.702 161.104C177.798 160.309 176.299 160.535 175.354 161.609C174.41 162.683 174.376 164.198 175.28 164.993C176.184 165.789 177.683 165.563 178.628 164.489Z" fill="#EF5B81"/>
<path d="M168.317 120.303L168.081 120.433C167.957 120.482 167.82 120.479 167.699 120.426C167.577 120.373 167.482 120.274 167.433 120.151C167.385 120.028 167.388 119.891 167.441 119.769C167.494 119.648 167.593 119.553 167.716 119.504C167.922 119.405 168.104 119.262 168.249 119.085C168.394 118.908 168.498 118.702 168.555 118.48C168.711 117.939 168.786 117.378 168.778 116.815C168.775 116.747 168.786 116.679 168.809 116.616C168.833 116.552 168.87 116.494 168.917 116.445C168.964 116.396 169.021 116.357 169.084 116.331C169.146 116.305 169.214 116.291 169.282 116.292C169.349 116.292 169.417 116.307 169.479 116.334C169.541 116.362 169.597 116.401 169.643 116.451C169.69 116.501 169.725 116.56 169.748 116.624C169.771 116.688 169.781 116.756 169.776 116.823C169.798 117.477 169.723 118.13 169.556 118.762C169.36 119.418 168.915 119.971 168.317 120.303V120.303Z" fill="#000202"/>
<path d="M185.536 92.7914C183.305 86.3047 177.242 82.5094 171.993 84.3143C166.744 86.1191 164.297 92.8406 166.528 99.3272C168.758 105.814 174.821 109.609 180.07 107.804C185.319 106 187.766 99.278 185.536 92.7914Z" fill="#EF5B81"/>
<path d="M189.111 102.57C183.358 87.4216 165.589 80.1183 149.424 86.2576C133.258 92.3969 124.818 109.654 130.571 124.802C136.324 139.951 154.092 147.254 170.258 141.115C186.423 134.975 194.864 117.718 189.111 102.57Z" fill="#BEE9F3"/>
<path d="M161.529 84.0677C157.418 84.03 153.336 84.7654 149.497 86.2356C133.327 92.369 124.891 109.63 130.642 124.777C136.393 139.925 154.148 147.208 170.328 141.092C175.334 139.248 179.795 136.171 183.297 132.146C186.798 128.121 189.228 123.278 190.361 118.065C191.432 112.89 191.008 107.517 189.139 102.575C184.799 91.1602 173.656 84.2234 161.529 84.0677Z" fill="#3AC2DF"/>
<path d="M145.727 120.831C142.733 114.659 136.258 111.619 131.264 114.042C126.27 116.464 124.649 123.431 127.642 129.603C130.636 135.774 137.111 138.814 142.105 136.391C147.099 133.969 148.721 127.002 145.727 120.831Z" fill="#EF5B81"/>
<path d="M138.522 124.651C136.846 121.198 133.43 119.396 130.891 120.628C128.352 121.86 127.651 125.658 129.326 129.111C131.001 132.565 134.418 134.366 136.957 133.134C139.496 131.903 140.197 128.105 138.522 124.651Z" fill="white"/>
<path d="M141.959 124.581L141.907 124.61C141.785 124.66 141.648 124.66 141.526 124.61C141.404 124.559 141.307 124.463 141.256 124.341C140.756 123.065 140.045 121.882 139.152 120.843C138.285 119.831 137.129 119.11 135.84 118.776C135.714 118.739 135.609 118.654 135.545 118.539C135.482 118.425 135.466 118.29 135.501 118.164C135.519 118.1 135.55 118.041 135.591 117.989C135.632 117.937 135.683 117.894 135.741 117.863C135.798 117.831 135.862 117.81 135.927 117.803C135.993 117.796 136.059 117.802 136.123 117.82C137.614 118.191 138.953 119.016 139.953 120.183C140.92 121.31 141.69 122.592 142.23 123.975C142.267 124.091 142.26 124.217 142.21 124.329C142.16 124.441 142.071 124.531 141.959 124.581Z" fill="#000405"/>
<path d="M142.389 129.621C142.293 129.673 142.182 129.692 142.074 129.675C141.967 129.659 141.867 129.607 141.791 129.528C141.716 129.45 141.668 129.349 141.655 129.24C141.642 129.132 141.665 129.022 141.72 128.928C142.03 128.4 142.129 127.774 141.997 127.176C141.971 127.047 141.996 126.913 142.068 126.803C142.14 126.693 142.252 126.615 142.38 126.587C142.445 126.571 142.511 126.569 142.576 126.579C142.642 126.59 142.704 126.614 142.76 126.649C142.816 126.684 142.864 126.731 142.901 126.785C142.939 126.839 142.965 126.901 142.978 126.965C143.172 127.818 143.033 128.713 142.588 129.466C142.537 129.535 142.468 129.589 142.389 129.621Z" fill="#000405"/>
<path d="M141.037 163.761C130.201 165.406 132.945 182.203 143.784 180.523C144.43 180.426 145.08 180.367 145.733 180.349C145.381 181.057 145.081 181.692 144.921 181.94C143.697 183.861 142.435 185.712 141.148 187.519C134.731 196.377 148.658 206.14 155.088 197.264C159.921 190.585 166.836 181.636 164.276 172.928C161.291 162.912 149.689 162.444 141.037 163.761Z" fill="#3AC2DF"/>
<path d="M163.368 183.586L158.935 181.373C158.856 181.336 158.769 181.316 158.682 181.314C158.594 181.312 158.507 181.327 158.426 181.359C158.344 181.392 158.27 181.44 158.208 181.501C158.146 181.563 158.096 181.637 158.063 181.718L155.535 186.324C155.393 186.589 155.346 186.895 155.401 187.19C155.456 187.486 155.611 187.754 155.839 187.95C157.052 188.813 158.4 189.47 159.827 189.894L163.368 183.586Z" fill="#6B2075"/>
<path d="M152.354 200.089C151.181 200.733 149.864 201.067 148.526 201.06C147.016 201.034 145.532 200.656 144.193 199.956C142.854 199.255 141.697 198.252 140.814 197.026C140.794 197.001 140.779 196.971 140.77 196.94C140.761 196.908 140.759 196.875 140.763 196.843C140.768 196.81 140.779 196.779 140.796 196.751C140.813 196.723 140.836 196.699 140.863 196.68C140.89 196.66 140.92 196.646 140.952 196.638C140.984 196.631 141.018 196.629 141.05 196.635C141.083 196.64 141.114 196.652 141.143 196.669C141.171 196.687 141.195 196.71 141.214 196.737C142.06 197.889 143.159 198.833 144.426 199.496C145.693 200.158 147.094 200.522 148.524 200.559C149.776 200.558 151.01 200.247 152.113 199.653C153.216 199.06 154.156 198.202 154.847 197.157C157.945 192.808 160.725 188.241 163.166 183.491C163.18 183.462 163.199 183.436 163.223 183.414C163.247 183.393 163.275 183.376 163.306 183.366C163.336 183.356 163.369 183.351 163.401 183.354C163.433 183.356 163.464 183.365 163.493 183.379C163.523 183.394 163.549 183.414 163.571 183.438C163.593 183.463 163.61 183.492 163.621 183.523C163.632 183.554 163.637 183.587 163.635 183.62C163.633 183.653 163.624 183.685 163.61 183.715C161.167 188.494 158.379 193.089 155.267 197.463C154.502 198.543 153.507 199.44 152.354 200.089Z" fill="#000202"/>
<path d="M145.768 180.741C145.729 180.763 145.685 180.775 145.639 180.774C145.594 180.772 145.55 180.758 145.513 180.733C145.459 180.696 145.42 180.639 145.406 180.575C145.392 180.511 145.403 180.444 145.436 180.387L145.984 179.559C146.693 178.58 147.252 177.501 147.643 176.358L148.196 175.001C148.204 174.969 148.218 174.94 148.238 174.914C148.258 174.888 148.284 174.866 148.312 174.85C148.341 174.834 148.373 174.825 148.405 174.821C148.438 174.818 148.471 174.822 148.502 174.832C148.565 174.851 148.618 174.893 148.649 174.951C148.681 175.008 148.689 175.075 148.671 175.138L148.127 176.49C147.707 177.65 147.122 178.743 146.389 179.735L145.855 180.567C145.853 180.6 145.844 180.633 145.829 180.662C145.814 180.692 145.793 180.719 145.768 180.741Z" fill="#000202"/>
<path d="M207.531 117.274C207.857 116.466 207.969 115.587 207.856 114.723C207.743 113.859 207.409 113.039 206.885 112.342C206.072 111.362 205.077 110.55 203.954 109.951C202.455 108.977 200.726 108.415 198.941 108.322C194.291 108.32 192.841 113.679 190.605 116.788L191.474 117.45C193.505 119.059 195.604 120.79 197.71 122.368C198.398 122.891 199.085 123.391 199.726 123.951C200.367 124.511 200.84 124.603 201.413 123.613C201.785 122.962 202.248 121.609 202.862 121.19C203.317 120.939 203.822 121.128 204.339 120.865C205.781 120.067 206.907 118.8 207.531 117.274Z" fill="#FFD180"/>
<path d="M203.146 118.622C202.735 118.845 202.281 118.975 201.815 119.004C200.991 119.025 200.168 118.98 199.352 118.868C198.96 118.821 198.569 118.775 198.152 118.765C197.68 118.691 197.197 118.73 196.743 118.881C196.678 118.908 196.605 118.909 196.54 118.883C196.474 118.857 196.421 118.807 196.392 118.743C196.365 118.678 196.364 118.605 196.39 118.54C196.416 118.475 196.466 118.422 196.53 118.393C197.065 118.21 197.635 118.158 198.193 118.239C198.584 118.264 198.975 118.31 199.398 118.351C200.181 118.457 200.972 118.505 201.762 118.496C202.091 118.486 202.412 118.398 202.7 118.239C202.988 118.08 203.233 117.855 203.417 117.582C203.544 117.232 203.58 116.856 203.523 116.488C203.465 116.12 203.316 115.773 203.089 115.478C202.514 114.79 201.031 114.193 198.683 113.708C198.625 113.683 198.577 113.639 198.547 113.583C198.518 113.527 198.509 113.463 198.523 113.401C198.536 113.339 198.571 113.284 198.621 113.245C198.671 113.206 198.733 113.186 198.796 113.188C201.297 113.703 202.873 114.364 203.505 115.157C203.787 115.523 203.971 115.954 204.042 116.411C204.112 116.867 204.066 117.334 203.908 117.768C203.76 118.132 203.491 118.434 203.146 118.622Z" fill="#000202"/>
<path d="M204.403 121.15C204.142 121.317 203.841 121.41 203.531 121.42C203.221 121.431 202.914 121.358 202.642 121.209C202.216 120.951 201.888 120.556 201.713 120.089C201.538 119.622 201.525 119.11 201.677 118.635C201.698 118.569 201.743 118.514 201.804 118.481C201.864 118.448 201.934 118.439 202.001 118.456C202.068 118.478 202.124 118.524 202.158 118.586C202.192 118.648 202.202 118.72 202.185 118.788C202.07 119.148 202.079 119.536 202.21 119.89C202.342 120.244 202.588 120.544 202.909 120.741C203.528 121.096 204.237 120.808 205.138 119.853C205.986 119.019 206.66 118.026 207.122 116.93C207.571 115.828 207.582 114.596 207.15 113.486C207.123 113.422 207.122 113.349 207.148 113.283C207.174 113.218 207.224 113.165 207.288 113.136C207.352 113.112 207.424 113.113 207.487 113.14C207.551 113.166 207.602 113.216 207.63 113.279C208.106 114.504 208.093 115.865 207.593 117.08C207.11 118.244 206.4 119.3 205.505 120.187C205.187 120.56 204.816 120.885 204.403 121.15Z" fill="#000202"/>
<path d="M175.295 138.954C173.25 140.107 171.102 141.064 168.877 141.814C168.846 141.823 168.813 141.826 168.78 141.823C168.747 141.819 168.715 141.809 168.686 141.793C168.657 141.777 168.632 141.756 168.611 141.73C168.591 141.704 168.575 141.675 168.566 141.643C168.551 141.581 168.559 141.515 168.589 141.459C168.618 141.402 168.668 141.359 168.728 141.337C168.842 141.274 180.878 137.584 187.21 127.517C187.228 127.489 187.25 127.464 187.277 127.445C187.304 127.425 187.335 127.411 187.367 127.403C187.399 127.395 187.433 127.394 187.466 127.399C187.498 127.405 187.53 127.416 187.558 127.433C187.587 127.451 187.611 127.474 187.631 127.5C187.65 127.527 187.664 127.558 187.672 127.59C187.68 127.622 187.681 127.656 187.676 127.689C187.671 127.722 187.659 127.753 187.642 127.781C184.516 132.472 180.273 136.311 175.295 138.954V138.954Z" fill="#000202"/>
<path d="M101.814 222.077C106.308 217.161 110.997 212.435 115.409 207.393C116.67 205.953 114.568 203.802 113.311 205.25C108.916 210.26 104.236 215.004 99.7116 219.925C98.4183 221.348 100.533 223.481 101.814 222.077V222.077Z" fill="#3AC2DF"/>
<path d="M116.874 217.264L123.707 209.697C123.993 209.419 124.157 209.04 124.163 208.641C124.169 208.242 124.016 207.858 123.739 207.572C123.461 207.286 123.081 207.122 122.683 207.116C122.284 207.11 121.899 207.263 121.613 207.541L114.777 215.121C114.629 215.258 114.51 215.422 114.428 215.605C114.345 215.787 114.299 215.985 114.294 216.186C114.289 216.386 114.324 216.586 114.398 216.773C114.471 216.96 114.581 217.13 114.722 217.273C114.862 217.417 115.03 217.53 115.215 217.608C115.4 217.685 115.599 217.725 115.8 217.724C116.001 217.723 116.199 217.682 116.384 217.603C116.568 217.524 116.735 217.409 116.874 217.264Z" fill="#3AC2DF"/>
<path d="M128.066 204.89C128.415 204.698 128.672 204.375 128.782 203.993C128.893 203.611 128.846 203.2 128.654 202.852C128.462 202.504 128.139 202.246 127.757 202.136C127.374 202.026 126.964 202.072 126.616 202.264C126.268 202.457 126.01 202.779 125.9 203.162C125.79 203.544 125.836 203.954 126.028 204.302C126.22 204.651 126.543 204.908 126.925 205.018C127.308 205.129 127.718 205.083 128.066 204.89V204.89Z" fill="#3AC2DF"/>
<path d="M104.95 204.796C107.082 202.864 109.017 200.721 111.032 198.66C111.179 198.524 111.298 198.36 111.381 198.177C111.464 197.994 111.509 197.797 111.514 197.596C111.519 197.395 111.484 197.196 111.411 197.009C111.337 196.822 111.227 196.652 111.087 196.508C110.946 196.365 110.779 196.251 110.593 196.174C110.408 196.096 110.209 196.057 110.009 196.058C109.808 196.059 109.609 196.1 109.425 196.179C109.24 196.258 109.073 196.373 108.934 196.517C106.92 198.578 104.993 200.716 102.853 202.653C102.586 202.937 102.439 203.313 102.442 203.703C102.444 204.092 102.597 204.466 102.867 204.747C103.155 205.011 103.532 205.156 103.922 205.152C104.313 205.149 104.687 204.997 104.97 204.728L104.95 204.796Z" fill="#3AC2DF"/>
<path d="M184.997 119.788C191.382 110.365 187.749 96.7564 176.881 89.3918C166.014 82.0273 152.028 83.6958 145.642 93.1185C139.257 102.541 142.89 116.15 153.757 123.515C164.625 130.879 178.611 129.211 184.997 119.788Z" fill="white"/>
<path d="M179.008 126.05C176.593 127.361 173.947 128.19 171.217 128.492C164.972 129.082 158.717 127.48 153.525 123.961C148.333 120.441 144.528 115.224 142.764 109.205C141.929 106.451 141.72 103.546 142.152 100.702C142.585 97.8571 143.647 95.1451 145.262 92.7639C146.877 90.3827 149.003 88.3924 151.486 86.9386C153.969 85.4848 156.745 84.6042 159.612 84.3611C165.861 83.6952 172.14 85.3047 177.299 88.8942V88.8942C182.532 92.3881 186.331 97.6507 188 103.718C188.804 106.476 188.997 109.377 188.566 112.218C188.134 115.058 187.089 117.771 185.502 120.166C183.83 122.611 181.605 124.627 179.008 126.05ZM152.224 87.9049C149.769 89.2526 147.669 91.1644 146.098 93.4827C144.606 95.7395 143.625 98.2945 143.222 100.969C142.819 103.645 143.005 106.375 143.766 108.971C145.455 114.723 149.092 119.708 154.054 123.072C159.016 126.436 164.993 127.97 170.962 127.41C173.664 127.185 176.282 126.358 178.623 124.989C180.964 123.621 182.969 121.746 184.491 119.502C186.013 117.258 187.014 114.701 187.42 112.02C187.825 109.339 187.625 106.601 186.835 104.007C185.207 98.2231 181.551 93.2187 176.535 89.9103V89.9103C171.607 86.4608 165.597 84.911 159.616 85.547C157.022 85.8453 154.512 86.6461 152.224 87.9049V87.9049Z" fill="#000202"/>
<path d="M154.979 108.672C156.641 111.537 159.113 113.849 162.083 115.315C165.054 116.782 168.391 117.339 171.677 116.916C172.06 116.826 172.392 116.591 172.604 116.261C172.816 115.93 172.891 115.531 172.813 115.146C172.717 114.769 172.482 114.442 172.154 114.233C171.826 114.024 171.43 113.947 171.048 114.019C168.406 114.293 165.742 113.797 163.376 112.59C161.01 111.383 159.045 109.517 157.717 107.216C157.525 106.868 157.202 106.611 156.82 106.5C156.437 106.39 156.027 106.436 155.679 106.629C155.331 106.821 155.073 107.144 154.963 107.526C154.853 107.908 154.899 108.319 155.091 108.667L154.979 108.672Z" fill="#ACECF9"/>
<path d="M152.827 100.185C153.175 99.9923 153.433 99.6695 153.543 99.2873C153.653 98.905 153.607 98.4946 153.415 98.1464C153.222 97.7981 152.9 97.5406 152.517 97.4304C152.135 97.3202 151.725 97.3663 151.376 97.5587C151.028 97.751 150.771 98.0738 150.66 98.4561C150.55 98.8383 150.596 99.2487 150.789 99.5969C150.981 99.9452 151.304 100.203 151.686 100.313C152.068 100.423 152.479 100.377 152.827 100.185V100.185Z" fill="#ACECF9"/>
<path d="M156.317 195.557C155.602 196.558 155.729 196.396 155.06 197.314C148.63 206.19 134.703 196.426 141.12 187.569L141.585 187.232" fill="#6B2075"/>
<path d="M193.466 133.612L190.223 131.05C190.061 130.926 189.861 130.862 189.656 130.87C189.452 130.878 189.257 130.959 189.106 131.096L185.284 134.932C185.132 135.086 185.042 135.291 185.033 135.508C185.023 135.724 185.095 135.936 185.234 136.103C186.085 137.106 187.806 139 188.684 139.143C188.646 139.176 193.166 135.137 193.466 133.612Z" fill="#6B2075"/>
<mask id="mask0_6231_168312" style="mask-type:alpha" maskUnits="userSpaceOnUse" x="0" y="616" width="1792" height="310">
<rect x="1792" y="926" width="1792" height="309" transform="rotate(-180 1792 926)" fill="#FFDE43"/>
</mask>
<g mask="url(#mask0_6231_168312)">
<mask id="mask1_6231_168312" style="mask-type:alpha" maskUnits="userSpaceOnUse" x="0" y="-175" width="1792" height="1214">
<path d="M1792 -175H0V1039H1792V-175Z" fill="#C4C4C4"/>
</mask>
<g mask="url(#mask1_6231_168312)">
<path d="M895.838 802.64C-1792.16 802.64 -3971.26 2981.6 -3971.26 5669.6C-3971.26 8357.6 -1792.16 10536.7 895.838 10536.7C3583.84 10536.7 5762.94 8357.6 5762.94 5669.6C5762.94 2981.6 3583.84 802.64 895.838 802.64ZM895.838 10389.4C-1710.82 10389.4 -3823.84 8276.26 -3823.84 5669.74C-3823.84 3063.22 -1710.82 949.92 895.838 949.92C3502.5 949.92 5615.52 3063.08 5615.52 5669.6C5615.52 8276.12 3502.5 10389.4 895.838 10389.4Z" fill="white"/>
<path opacity="0.5" d="M1291.34 867.46C1294.7 867.46 1297.5 864.66 1297.5 861.3C1297.5 857.94 1294.7 855.14 1291.34 855.14C1287.98 855.14 1285.18 857.94 1285.18 861.3C1285.18 864.66 1287.98 867.46 1291.34 867.46Z" fill="#5322FF"/>
<path opacity="0.5" d="M1415.94 829.66C1417.34 829.66 1418.32 828.54 1418.32 827.28C1418.32 825.88 1417.2 824.9 1415.94 824.9C1414.54 824.9 1413.56 826.02 1413.56 827.28C1413.42 828.54 1414.54 829.66 1415.94 829.66Z" fill="#A1E3FB"/>
<path d="M-3656 2128C-3619.18 2108.1 -3546.81 1829.04 -3034.3 1607.87C-2553.71 1400.5 -2616.14 1390.1 -2284.36 1256.11C-1952.59 1122.12 -1410.82 1073.61 -882.492 969.469C-636.675 921.016 -339.251 915.932 1 882.228C170 854.711 212.5 840.778 571 812.685C681.831 804 817.325 800.11 979.5 803C1099.21 805.133 1225.1 812.562 1339.5 821.69C1509.43 835.249 1642.5 858.713 1791 883.729C2386.61 957.178 2656.39 1039.79 3078.5 1149.39C3594.51 1283.38 3815.06 1438.15 4024.06 1517.53C4233.07 1596.9 4712.68 1815.7 4725 2123.48L-3656 2128Z" fill="#36C6DA"/>
<path d="M-601.574 1399.87C-551.524 1374.44 -493.956 1350.38 -430.116 1327.32C-257.286 1264.32 -51.3184 1214.83 180.2 1180C307.292 1160.68 440.922 1146.4 576.4 1137.21C641.178 1132.82 691.732 1075.99 688.806 1010.81L688.526 1009.41C687.707 993.438 683.692 977.797 676.718 963.409C669.744 949.021 659.953 936.179 647.926 925.644C635.998 914.921 622.024 906.723 606.844 901.542C591.665 896.362 575.594 894.308 559.6 895.502C155 922.9 -225.59 995.504 -512.338 1099.71C-585.614 1126.15 -652.926 1154.85 -712.902 1185.5" stroke="#75D1F1" stroke-width="3" stroke-miterlimit="10"/>
<path opacity="0.5" d="M964.481 1146.77C976.376 1150.5 988.768 1152.38 1001.23 1152.37C1033.84 1152.35 1065.1 1139.41 1088.19 1116.39C1111.28 1093.37 1124.31 1062.14 1124.43 1029.54C1124.59 1013.38 1121.53 997.35 1115.43 982.385C1109.33 967.42 1100.31 953.819 1088.9 942.374C1077.58 930.822 1064.06 921.668 1049.13 915.457C1034.2 909.247 1018.17 906.107 1002 906.226C969.399 906.256 938.134 919.195 915.047 942.214C891.959 965.234 878.927 996.46 878.801 1029.06C878.724 1055.24 886.987 1080.76 902.393 1101.93C917.799 1123.09 939.546 1138.8 964.481 1146.77Z" stroke="#8DDBF6" stroke-width="3" stroke-miterlimit="10"/>
<mask id="mask2_6231_168312" style="mask-type:alpha" maskUnits="userSpaceOnUse" x="-3656" y="804" width="8381" height="1325">
<path d="M-3656 2128C-3619.18 2108.1 -3546.81 1829.04 -3034.3 1607.87C-2553.71 1400.5 -2616.14 1390.1 -2284.36 1256.11C-1952.59 1122.12 -1410.82 1073.61 -882.492 969.469C-636.675 921.016 -339.251 915.932 1 882.228C170 854.711 212.5 840.778 571 812.685C737 799.677 1070.11 800.196 1339.5 821.691C1509.43 835.249 1642.5 858.714 1791 883.729C2386.61 957.178 2656.39 1039.79 3078.5 1149.39C3594.51 1283.38 3815.06 1438.15 4024.06 1517.53C4233.07 1596.9 4712.68 1815.7 4725 2123.48L-3656 2128Z" fill="#654CDD"/>
</mask>
<g mask="url(#mask2_6231_168312)">
<path opacity="0.5" d="M1810.23 753.346C1744.66 773.814 1679.09 792.308 1615.09 808.044C1588.95 814.36 1565.96 829.87 1550.31 851.738C1536.87 870.409 1518.05 884.525 1496.37 892.195C1474.68 899.865 1451.17 900.721 1428.98 894.648L1410.14 889.524C1388.51 883.464 1365.82 882.191 1343.64 885.794C1321.47 889.396 1300.35 897.788 1281.75 910.384C1224.35 949.346 1165.46 948.184 1109.31 907.234L1097.87 900.934C1076.28 885.198 1053.56 874.964 1027.25 871.03C925.614 852.83 858.484 913.5 858.484 950.396C861.5 1009 898.146 968.246 913.462 1026.49C977.456 1039.48 1045.78 1043.82 1108.59 1043.82C1233.45 1043.82 1377.16 1028.07 1529.49 997.366C1569.94 989.106 1609.99 1013.1 1622.55 1052.86C1628.71 1072.6 1642.19 1089.22 1660.23 1099.32C1678.26 1109.42 1699.48 1112.23 1719.53 1107.17C1780.78 1091.43 1842.42 1073.85 1904.45 1054.43C2070.14 1002.49 2226.8 941.03 2366.98 873.382C2391.97 753.947 2393.04 630.744 2370.12 510.894C2217.79 602.202 2023.03 686.832 1810.23 753.346Z" fill="#4CE6FC"/>
<path opacity="0.5" d="M630.72 421.967C534.076 409.714 436.094 412.994 340.486 431.682C362.746 423.618 385.361 416.324 408.33 409.8C232.636 458.733 75.9023 559.776 -41.1958 699.6C-111.714 783.418 -88.3058 910.818 6.82421 964.34C18.0957 970.671 30.5045 974.716 43.341 976.247C56.1774 977.777 69.1896 976.762 81.6333 973.259C94.077 969.756 105.708 963.834 115.861 955.832C126.014 947.83 134.49 937.905 140.804 926.625C153.525 903.909 174.74 887.17 199.792 880.082C224.844 872.995 251.685 876.139 274.42 888.825C278.522 891.233 283.002 893.654 287.482 896.076C404.634 961.316 552.082 919.443 617.882 802.389C646.229 752.043 691.531 713.398 745.716 693.342C794.086 675.422 840.58 656.691 885.184 637.525C853.936 530.803 767.556 439.887 630.72 421.967Z" fill="#4CE6FC"/>
<path opacity="0.5" d="M2480.43 995.21C2432.34 968.33 2378.23 942.823 2319.11 918.967C2087.9 825.041 1779.03 754.102 1449.15 719.354C1436.11 717.891 1422.91 719.081 1410.35 722.851C1397.79 726.621 1386.11 732.894 1376.04 741.292C1365.89 749.533 1357.5 759.726 1351.36 771.27C1345.22 782.813 1341.47 795.47 1340.31 808.492L1340.03 809.612C1335.65 862.812 1375.25 910.804 1428.05 916.376C1538.55 928.01 1647.34 943.761 1750.64 963.431C1938.81 998.963 2105.66 1045.72 2245 1102.46C2296.48 1123.25 2342.81 1144.69 2382.93 1166.99" stroke="#A1E3FB" stroke-width="3" stroke-miterlimit="10"/>
<path opacity="0.5" d="M1166.61 886.99C1175.72 889.84 1185.21 891.294 1194.75 891.302C1219.71 891.292 1243.65 881.393 1261.32 863.773C1278.99 846.154 1288.97 822.249 1289.06 797.292C1289.18 784.925 1286.84 772.657 1282.17 761.203C1277.5 749.75 1270.6 739.341 1261.87 730.582C1253.21 721.744 1242.86 714.74 1231.43 709.987C1220.01 705.235 1207.74 702.831 1195.37 702.918C1170.41 702.929 1146.47 712.828 1128.8 730.447C1111.12 748.066 1101.14 771.97 1101.05 796.928C1100.99 816.958 1107.32 836.487 1119.1 852.68C1130.89 868.874 1147.53 880.892 1166.61 886.99V886.99Z" stroke="#8DDBF6" stroke-width="3" stroke-miterlimit="10"/>
</g>
<path d="M216.219 926.764C216.924 926.764 217.601 926.484 218.1 925.985C218.598 925.486 218.879 924.81 218.879 924.104C218.879 923.399 218.598 922.722 218.1 922.223C217.601 921.724 216.924 921.444 216.219 921.444C215.513 921.444 214.837 921.724 214.338 922.223C213.839 922.722 213.559 923.399 213.559 924.104C213.559 924.81 213.839 925.486 214.338 925.985C214.837 926.484 215.513 926.764 216.219 926.764Z" fill="#75D1F1"/>
<path d="M1006.49 936.578C1008.13 936.578 1009.69 935.929 1010.85 934.774C1012 933.619 1012.65 932.052 1012.65 930.418C1012.65 928.784 1012 927.217 1010.85 926.062C1009.69 924.907 1008.13 924.258 1006.49 924.258C1004.86 924.258 1003.29 924.907 1002.14 926.062C1000.98 927.217 1000.33 928.784 1000.33 930.418C1000.33 932.052 1000.98 933.619 1002.14 934.774C1003.29 935.929 1004.86 936.578 1006.49 936.578V936.578Z" fill="#75D1F1"/>
<path d="M1375.09 878.688C1376.72 878.688 1378.29 878.039 1379.44 876.884C1380.6 875.729 1381.25 874.162 1381.25 872.528C1381.25 870.894 1380.6 869.327 1379.44 868.172C1378.29 867.017 1376.72 866.368 1375.09 866.368C1373.45 866.368 1371.89 867.017 1370.73 868.172C1369.57 869.327 1368.93 870.894 1368.93 872.528C1368.93 874.162 1369.57 875.729 1370.73 876.884C1371.89 878.039 1373.45 878.688 1375.09 878.688V878.688Z" fill="#75D1F1"/>
<path d="M725.61 831.844C726.419 831.844 727.22 831.685 727.968 831.375C728.715 831.066 729.394 830.612 729.966 830.04C730.538 829.468 730.992 828.789 731.301 828.041C731.611 827.294 731.77 826.493 731.77 825.684C731.77 824.05 731.121 822.483 729.966 821.328C728.811 820.173 727.244 819.524 725.61 819.524C723.977 819.524 722.41 820.173 721.254 821.328C720.099 822.483 719.45 824.05 719.45 825.684C719.45 826.493 719.61 827.294 719.919 828.041C720.229 828.789 720.682 829.468 721.254 830.04C721.826 830.612 722.505 831.066 723.253 831.375C724 831.685 724.801 831.844 725.61 831.844V831.844Z" fill="#75D1F1"/>
<path d="M1582.97 903.804C1584.6 903.804 1586.17 903.155 1587.32 902C1588.48 900.844 1589.13 899.278 1589.13 897.644C1589.13 896.01 1588.48 894.443 1587.32 893.288C1586.17 892.133 1584.6 891.484 1582.97 891.484C1581.33 891.484 1579.77 892.133 1578.61 893.288C1577.46 894.443 1576.81 896.01 1576.81 897.644C1576.81 899.278 1577.46 900.844 1578.61 902C1579.77 903.155 1581.33 903.804 1582.97 903.804V903.804Z" fill="#75D1F1"/>
<path d="M1723.18 919.904C1724.81 919.904 1726.38 919.255 1727.54 918.1C1728.69 916.944 1729.34 915.378 1729.34 913.744C1729.34 912.11 1728.69 910.544 1727.54 909.388C1726.38 908.233 1724.81 907.584 1723.18 907.584C1722.37 907.584 1721.57 907.743 1720.82 908.053C1720.08 908.362 1719.4 908.816 1718.82 909.388C1718.25 909.96 1717.8 910.639 1717.49 911.387C1717.18 912.134 1717.02 912.935 1717.02 913.744C1717.02 914.553 1717.18 915.354 1717.49 916.101C1717.8 916.849 1718.25 917.528 1718.82 918.1C1719.4 918.672 1720.08 919.126 1720.82 919.435C1721.57 919.745 1722.37 919.904 1723.18 919.904V919.904Z" fill="#75D1F1"/>
<path d="M1503.63 919.064C1504.34 919.064 1505.01 918.784 1505.51 918.285C1506.01 917.786 1506.29 917.11 1506.29 916.404C1506.29 915.699 1506.01 915.022 1505.51 914.523C1505.01 914.024 1504.34 913.744 1503.63 913.744C1502.93 913.744 1502.25 914.024 1501.75 914.523C1501.25 915.022 1500.97 915.699 1500.97 916.404C1500.97 917.11 1501.25 917.786 1501.75 918.285C1502.25 918.784 1502.93 919.064 1503.63 919.064Z" fill="#75D1F1"/>
<path d="M1235.69 902.964C1236.39 902.964 1237.07 902.684 1237.57 902.185C1238.07 901.686 1238.35 901.01 1238.35 900.304C1238.35 899.599 1238.07 898.922 1237.57 898.423C1237.07 897.924 1236.39 897.644 1235.69 897.644C1234.98 897.644 1234.31 897.924 1233.81 898.423C1233.31 898.922 1233.03 899.599 1233.03 900.304C1233.03 901.01 1233.31 901.686 1233.81 902.185C1234.31 902.684 1234.98 902.964 1235.69 902.964Z" fill="#75D1F1"/>
<path d="M1341.13 915.928C1341.48 915.928 1341.83 915.859 1342.15 915.726C1342.47 915.592 1342.77 915.396 1343.01 915.149C1343.26 914.902 1343.46 914.609 1343.59 914.286C1343.72 913.963 1343.79 913.617 1343.79 913.268C1343.79 912.563 1343.51 911.886 1343.01 911.387C1342.51 910.888 1341.84 910.608 1341.13 910.608C1340.78 910.608 1340.44 910.677 1340.11 910.811C1339.79 910.944 1339.5 911.14 1339.25 911.387C1339 911.634 1338.81 911.928 1338.68 912.25C1338.54 912.573 1338.47 912.919 1338.47 913.268C1338.47 913.617 1338.54 913.963 1338.68 914.286C1338.81 914.609 1339 914.902 1339.25 915.149C1339.5 915.396 1339.79 915.592 1340.11 915.726C1340.44 915.859 1340.78 915.928 1341.13 915.928V915.928Z" fill="#75D1F1"/>
<path d="M1649.55 892.324C1650.26 892.324 1650.94 892.044 1651.43 891.545C1651.93 891.046 1652.21 890.369 1652.21 889.664C1652.21 888.959 1651.93 888.282 1651.43 887.783C1650.94 887.284 1650.26 887.004 1649.55 887.004C1648.85 887.004 1648.17 887.284 1647.67 887.783C1647.17 888.282 1646.89 888.959 1646.89 889.664C1646.89 890.369 1647.17 891.046 1647.67 891.545C1648.17 892.044 1648.85 892.324 1649.55 892.324Z" fill="#75D1F1"/>
<path d="M1114.28 924.104C1114.98 924.104 1115.66 923.824 1116.16 923.325C1116.66 922.826 1116.94 922.15 1116.94 921.444C1116.94 920.739 1116.66 920.062 1116.16 919.563C1115.66 919.064 1114.98 918.784 1114.28 918.784C1113.57 918.784 1112.9 919.064 1112.4 919.563C1111.9 920.062 1111.62 920.739 1111.62 921.444C1111.62 922.15 1111.9 922.826 1112.4 923.325C1112.9 923.824 1113.57 924.104 1114.28 924.104Z" fill="#75D1F1"/>
<path d="M1463.17 871.002C1463.81 870.999 1464.43 870.74 1464.88 870.284C1465.34 869.828 1465.59 869.21 1465.59 868.566C1465.59 867.924 1465.34 867.308 1464.88 866.854C1464.43 866.399 1463.81 866.144 1463.17 866.144C1462.85 866.142 1462.53 866.204 1462.24 866.325C1461.94 866.445 1461.68 866.623 1461.45 866.849C1461.22 867.074 1461.04 867.341 1460.92 867.636C1460.8 867.931 1460.73 868.247 1460.73 868.566C1460.73 869.213 1460.99 869.832 1461.45 870.289C1461.9 870.746 1462.52 871.002 1463.17 871.002Z" fill="#75D1F1"/>
<path d="M627.062 842.204C627.768 842.204 628.444 841.924 628.943 841.425C629.442 840.926 629.722 840.25 629.722 839.544C629.722 838.839 629.442 838.162 628.943 837.663C628.444 837.164 627.768 836.884 627.062 836.884C626.357 836.884 625.68 837.164 625.181 837.663C624.683 838.162 624.402 838.839 624.402 839.544C624.402 840.25 624.683 840.926 625.181 841.425C625.68 841.924 626.357 842.204 627.062 842.204Z" fill="#75D1F1"/>
<path opacity="0.5" d="M794.797 905.624C795.502 905.624 796.179 905.344 796.678 904.845C797.177 904.346 797.457 903.67 797.457 902.964C797.457 902.259 797.177 901.582 796.678 901.083C796.179 900.584 795.502 900.304 794.797 900.304C794.091 900.304 793.415 900.584 792.916 901.083C792.417 901.582 792.137 902.259 792.137 902.964C792.137 903.67 792.417 904.346 792.916 904.845C793.415 905.344 794.091 905.624 794.797 905.624Z" fill="#75D1F1"/>
<path d="M804.754 863.834C805.459 863.834 806.136 863.554 806.635 863.055C807.133 862.556 807.414 861.88 807.414 861.174C807.414 860.469 807.133 859.792 806.635 859.293C806.136 858.795 805.459 858.514 804.754 858.514C804.048 858.514 803.372 858.795 802.873 859.293C802.374 859.792 802.094 860.469 802.094 861.174C802.094 861.88 802.374 862.556 802.873 863.055C803.372 863.554 804.048 863.834 804.754 863.834Z" fill="#75D1F1"/>
<path d="M856.68 823.304C857.385 823.304 858.062 823.024 858.56 822.525C859.059 822.026 859.339 821.349 859.339 820.644C859.339 819.938 859.059 819.262 858.56 818.763C858.062 818.264 857.385 817.984 856.68 817.984C855.974 817.984 855.297 818.264 854.799 818.763C854.3 819.262 854.02 819.938 854.02 820.644C854.02 821.349 854.3 822.026 854.799 822.525C855.297 823.024 855.974 823.304 856.68 823.304Z" fill="#75D1F1"/>
<path opacity="0.5" d="M765.9 841.546C766.607 841.546 767.285 841.266 767.786 840.768C768.287 840.269 768.57 839.593 768.574 838.886C768.57 838.179 768.287 837.503 767.786 837.004C767.285 836.506 766.607 836.226 765.9 836.226C765.197 836.23 764.524 836.512 764.028 837.01C763.532 837.509 763.254 838.183 763.254 838.886C763.254 839.589 763.532 840.264 764.028 840.762C764.524 841.261 765.197 841.542 765.9 841.546V841.546Z" fill="#75D1F1"/>
<path d="M28.7459 901.144C29.5549 901.144 30.3559 900.985 31.1033 900.675C31.8506 900.366 32.5297 899.912 33.1017 899.34C33.6737 898.768 34.1275 898.089 34.437 897.341C34.7466 896.594 34.9059 895.793 34.9059 894.984C34.9059 893.35 34.2569 891.783 33.1017 890.628C31.9465 889.473 30.3797 888.824 28.7459 888.824C27.1122 888.824 25.5454 889.473 24.3902 890.628C23.2349 891.783 22.5859 893.35 22.5859 894.984C22.5859 895.793 22.7453 896.594 23.0548 897.341C23.3644 898.089 23.8181 898.768 24.3902 899.34C24.9622 899.912 25.6412 900.366 26.3886 900.675C27.136 900.985 27.937 901.144 28.7459 901.144V901.144Z" fill="#75D1F1"/>
<path opacity="0.5" d="M608.528 867.334C610.162 867.334 611.729 866.685 612.884 865.53C614.039 864.375 614.688 862.808 614.688 861.174C614.688 859.541 614.039 857.974 612.884 856.819C611.729 855.663 610.162 855.014 608.528 855.014C606.894 855.014 605.328 855.663 604.172 856.819C603.017 857.974 602.368 859.541 602.368 861.174C602.368 862.808 603.017 864.375 604.172 865.53C605.328 866.685 606.894 867.334 608.528 867.334V867.334Z" fill="#75D1F1"/>
<path opacity="0.5" d="M859.34 884.848C860.973 884.848 862.54 884.199 863.695 883.044C864.851 881.889 865.5 880.322 865.5 878.688C865.5 877.055 864.851 875.488 863.695 874.333C862.54 873.177 860.973 872.528 859.34 872.528C857.706 872.528 856.139 873.177 854.984 874.333C853.829 875.488 853.18 877.055 853.18 878.688C853.18 880.322 853.829 881.889 854.984 883.044C856.139 884.199 857.706 884.848 859.34 884.848Z" fill="#75D1F1"/>
<path opacity="0.5" d="M1027.16 833.72C1028.79 833.72 1030.36 833.071 1031.51 831.916C1032.67 830.76 1033.32 829.194 1033.32 827.56C1033.32 825.926 1032.67 824.359 1031.51 823.204C1030.36 822.049 1028.79 821.4 1027.16 821.4C1025.52 821.4 1023.96 822.049 1022.8 823.204C1021.65 824.359 1021 825.926 1021 827.56C1021 829.194 1021.65 830.76 1022.8 831.916C1023.96 833.071 1025.52 833.72 1027.16 833.72Z" fill="#75D1F1"/>
<path opacity="0.5" d="M1211.39 852.004C1212.2 852.004 1213 851.845 1213.75 851.535C1214.5 851.226 1215.18 850.772 1215.75 850.2C1216.32 849.628 1216.78 848.949 1217.09 848.201C1217.4 847.454 1217.55 846.653 1217.55 845.844C1217.55 845.035 1217.4 844.234 1217.09 843.487C1216.78 842.74 1216.32 842.06 1215.75 841.488C1215.18 840.916 1214.5 840.463 1213.75 840.153C1213 839.843 1212.2 839.684 1211.39 839.684C1209.76 839.684 1208.19 840.333 1207.04 841.488C1205.88 842.644 1205.23 844.21 1205.23 845.844C1205.23 847.478 1205.88 849.045 1207.04 850.2C1208.19 851.355 1209.76 852.004 1211.39 852.004V852.004Z" fill="#75D1F1"/>
<path opacity="0.5" d="M314.89 853.39C315.596 853.39 316.273 853.11 316.771 852.611C317.27 852.113 317.55 851.436 317.55 850.731C317.55 850.381 317.482 850.035 317.348 849.712C317.214 849.39 317.018 849.097 316.771 848.85C316.524 848.603 316.231 848.407 315.908 848.273C315.586 848.139 315.24 848.07 314.89 848.07C314.541 848.07 314.195 848.139 313.873 848.273C313.55 848.407 313.257 848.603 313.01 848.85C312.763 849.097 312.567 849.39 312.433 849.712C312.299 850.035 312.23 850.381 312.23 850.731C312.23 851.436 312.511 852.113 313.01 852.611C313.508 853.11 314.185 853.39 314.89 853.39Z" fill="#75D1F1"/>
<path opacity="0.5" d="M673.754 875.188C674.103 875.188 674.449 875.119 674.772 874.986C675.094 874.852 675.388 874.656 675.635 874.409C675.882 874.162 676.078 873.869 676.211 873.546C676.345 873.223 676.414 872.877 676.414 872.528C676.414 871.823 676.133 871.146 675.635 870.647C675.136 870.148 674.459 869.868 673.754 869.868C673.048 869.868 672.372 870.148 671.873 870.647C671.374 871.146 671.094 871.823 671.094 872.528C671.094 872.877 671.163 873.223 671.296 873.546C671.43 873.869 671.626 874.162 671.873 874.409C672.12 874.656 672.413 874.852 672.736 874.986C673.059 875.119 673.404 875.188 673.754 875.188V875.188Z" fill="#75D1F1"/>
<path opacity="0.5" d="M541.832 924.104C542.537 924.104 543.214 923.824 543.713 923.325C544.212 922.826 544.492 922.15 544.492 921.444C544.492 920.739 544.212 920.062 543.713 919.563C543.214 919.064 542.537 918.784 541.832 918.784C541.126 918.784 540.45 919.064 539.951 919.563C539.452 920.062 539.172 920.739 539.172 921.444C539.172 922.15 539.452 922.826 539.951 923.325C540.45 923.824 541.126 924.104 541.832 924.104Z" fill="#75D1F1"/>
<path opacity="0.5" d="M1299.48 859.984C1300.19 859.984 1300.87 859.704 1301.37 859.205C1301.86 858.706 1302.14 858.03 1302.14 857.324C1302.14 856.619 1301.86 855.942 1301.37 855.443C1300.87 854.945 1300.19 854.664 1299.48 854.664C1299.13 854.664 1298.79 854.733 1298.47 854.867C1298.14 855 1297.85 855.196 1297.6 855.443C1297.36 855.69 1297.16 855.983 1297.03 856.306C1296.89 856.629 1296.82 856.975 1296.82 857.324C1296.82 857.674 1296.89 858.019 1297.03 858.342C1297.16 858.665 1297.36 858.958 1297.6 859.205C1297.85 859.452 1298.14 859.648 1298.47 859.782C1298.79 859.916 1299.13 859.984 1299.48 859.984V859.984Z" fill="#75D1F1"/>
<path opacity="0.5" d="M1477.61 866.144C1478.31 866.144 1478.99 865.864 1479.49 865.365C1479.99 864.866 1480.27 864.19 1480.27 863.484C1480.27 862.779 1479.99 862.102 1479.49 861.603C1478.99 861.104 1478.31 860.824 1477.61 860.824C1476.9 860.824 1476.22 861.104 1475.73 861.603C1475.23 862.102 1474.95 862.779 1474.95 863.484C1474.95 864.19 1475.23 864.866 1475.73 865.365C1476.22 865.864 1476.9 866.144 1477.61 866.144Z" fill="#75D1F1"/>
<path opacity="0.5" d="M872.457 829.52C872.806 829.52 873.152 829.451 873.475 829.318C873.798 829.184 874.091 828.988 874.338 828.741C874.585 828.494 874.781 828.201 874.914 827.878C875.048 827.556 875.117 827.209 875.117 826.86C875.117 826.155 874.837 825.478 874.338 824.979C873.839 824.48 873.162 824.2 872.457 824.2C871.751 824.2 871.075 824.48 870.576 824.979C870.077 825.478 869.797 826.155 869.797 826.86C869.797 827.209 869.866 827.556 869.999 827.878C870.133 828.201 870.329 828.494 870.576 828.741C870.823 828.988 871.116 829.184 871.439 829.318C871.762 829.451 872.108 829.52 872.457 829.52Z" fill="#75D1F1"/>
<path opacity="0.5" d="M1169.73 836.464C1170.44 836.464 1171.11 836.184 1171.61 835.685C1172.11 835.186 1172.39 834.51 1172.39 833.804C1172.39 833.099 1172.11 832.422 1171.61 831.923C1171.11 831.424 1170.44 831.144 1169.73 831.144C1169.38 831.144 1169.04 831.213 1168.71 831.347C1168.39 831.48 1168.1 831.676 1167.85 831.923C1167.6 832.17 1167.41 832.464 1167.27 832.786C1167.14 833.109 1167.07 833.455 1167.07 833.804C1167.07 834.154 1167.14 834.499 1167.27 834.822C1167.41 835.145 1167.6 835.438 1167.85 835.685C1168.1 835.932 1168.39 836.128 1168.71 836.262C1169.04 836.395 1169.38 836.464 1169.73 836.464V836.464Z" fill="#75D1F1"/>
<path opacity="0.3" d="M1202.63 908.312C1203.34 908.312 1204.01 908.032 1204.51 907.533C1205.01 907.034 1205.29 906.358 1205.29 905.652C1205.29 904.947 1205.01 904.27 1204.51 903.771C1204.01 903.273 1203.34 902.992 1202.63 902.992C1201.93 902.992 1201.25 903.273 1200.75 903.771C1200.25 904.27 1199.97 904.947 1199.97 905.652C1199.97 906.358 1200.25 907.034 1200.75 907.533C1201.25 908.032 1201.93 908.312 1202.63 908.312Z" fill="#75D1F1"/>
<path opacity="0.3" d="M473.036 872.136C474.67 872.136 476.237 871.487 477.392 870.332C478.547 869.177 479.196 867.61 479.196 865.976C479.196 864.343 478.547 862.776 477.392 861.62C476.237 860.465 474.67 859.816 473.036 859.816C471.402 859.816 469.835 860.465 468.68 861.62C467.525 862.776 466.876 864.343 466.876 865.976C466.876 867.61 467.525 869.177 468.68 870.332C469.835 871.487 471.402 872.136 473.036 872.136V872.136Z" fill="#75D1F1"/>
<path opacity="0.3" d="M406.324 853.824C407.03 853.824 407.706 853.544 408.205 853.045C408.704 852.546 408.984 851.869 408.984 851.164C408.984 850.458 408.704 849.782 408.205 849.283C407.706 848.784 407.03 848.504 406.324 848.504C405.619 848.504 404.942 848.784 404.443 849.283C403.944 849.782 403.664 850.458 403.664 851.164C403.664 851.869 403.944 852.546 404.443 853.045C404.942 853.544 405.619 853.824 406.324 853.824V853.824Z" fill="#75D1F1"/>
<path opacity="0.3" d="M539.172 845.41C539.876 845.406 540.551 845.125 541.049 844.627C541.547 844.129 541.828 843.454 541.832 842.75C541.832 842.044 541.551 841.368 541.053 840.869C540.554 840.37 539.877 840.09 539.172 840.09C538.466 840.09 537.79 840.37 537.291 840.869C536.792 841.368 536.512 842.044 536.512 842.75C536.515 843.454 536.797 844.129 537.295 844.627C537.793 845.125 538.467 845.406 539.172 845.41Z" fill="#75D1F1"/>
<path opacity="0.3" d="M91.2694 906.744C91.9749 906.744 92.6514 906.464 93.1503 905.965C93.6491 905.466 93.9294 904.79 93.9294 904.084C93.9294 903.735 93.8606 903.389 93.7269 903.066C93.5933 902.744 93.3973 902.45 93.1503 902.203C92.9033 901.956 92.6101 901.76 92.2873 901.627C91.9646 901.493 91.6187 901.424 91.2694 901.424C90.9201 901.424 90.5742 901.493 90.2515 901.627C89.9287 901.76 89.6355 901.956 89.3885 902.203C89.1415 902.45 88.9456 902.744 88.8119 903.066C88.6782 903.389 88.6094 903.735 88.6094 904.084C88.6094 904.79 88.8897 905.466 89.3885 905.965C89.8873 906.464 90.5639 906.744 91.2694 906.744Z" fill="#75D1F1"/>
<path opacity="0.3" d="M306.07 869.644C307.704 869.644 309.271 868.995 310.426 867.84C311.581 866.685 312.23 865.118 312.23 863.484C312.23 862.675 312.071 861.874 311.761 861.127C311.452 860.379 310.998 859.7 310.426 859.128C309.854 858.556 309.175 858.103 308.427 857.793C307.68 857.484 306.879 857.324 306.07 857.324C305.261 857.324 304.46 857.484 303.713 857.793C302.965 858.103 302.286 858.556 301.714 859.128C301.142 859.7 300.689 860.379 300.379 861.127C300.069 861.874 299.91 862.675 299.91 863.484C299.91 865.118 300.559 866.685 301.714 867.84C302.87 868.995 304.436 869.644 306.07 869.644V869.644Z" fill="#75D1F1"/>
<path opacity="0.3" d="M734.484 898.946C736.118 898.946 737.685 898.297 738.84 897.142C739.995 895.986 740.644 894.42 740.644 892.786C740.644 891.152 739.995 889.586 738.84 888.43C737.685 887.275 736.118 886.626 734.484 886.626C732.85 886.626 731.284 887.275 730.128 888.43C728.973 889.586 728.324 891.152 728.324 892.786C728.324 894.42 728.973 895.986 730.128 897.142C731.284 898.297 732.85 898.946 734.484 898.946V898.946Z" fill="#75D1F1"/>
<path opacity="0.3" d="M188.207 919.428C189.841 919.428 191.407 918.779 192.563 917.624C193.718 916.469 194.367 914.902 194.367 913.268C194.367 911.634 193.718 910.067 192.563 908.912C191.407 907.757 189.841 907.108 188.207 907.108C186.573 907.108 185.006 907.757 183.851 908.912C182.696 910.067 182.047 911.634 182.047 913.268C182.047 914.902 182.696 916.469 183.851 917.624C185.006 918.779 186.573 919.428 188.207 919.428V919.428Z" fill="#75D1F1"/>
<path opacity="0.3" d="M738.992 869.644C740.626 869.644 742.193 868.995 743.348 867.84C744.503 866.685 745.152 865.118 745.152 863.484C745.152 862.675 744.993 861.874 744.683 861.127C744.374 860.379 743.92 859.7 743.348 859.128C742.776 858.556 742.097 858.103 741.349 857.793C740.602 857.484 739.801 857.324 738.992 857.324C738.183 857.324 737.382 857.484 736.635 857.793C735.887 858.103 735.208 858.556 734.636 859.128C734.064 859.7 733.611 860.379 733.301 861.127C732.991 861.874 732.832 862.675 732.832 863.484C732.832 865.118 733.481 866.685 734.636 867.84C735.792 868.995 737.358 869.644 738.992 869.644V869.644Z" fill="#75D1F1"/>
<path opacity="0.3" d="M1169.73 834.336C1170.44 834.336 1171.11 834.056 1171.61 833.557C1172.11 833.058 1172.39 832.381 1172.39 831.676C1172.39 830.97 1172.11 830.294 1171.61 829.795C1171.11 829.296 1170.44 829.016 1169.73 829.016C1169.38 829.016 1169.04 829.085 1168.71 829.218C1168.39 829.352 1168.1 829.548 1167.85 829.795C1167.6 830.042 1167.41 830.335 1167.27 830.658C1167.14 830.981 1167.07 831.327 1167.07 831.676C1167.07 832.025 1167.14 832.371 1167.27 832.694C1167.41 833.017 1167.6 833.31 1167.85 833.557C1168.1 833.804 1168.39 834 1168.71 834.133C1169.04 834.267 1169.38 834.336 1169.73 834.336V834.336Z" fill="#75D1F1"/>
<path opacity="0.3" d="M1114.28 825.712C1114.98 825.712 1115.66 825.432 1116.16 824.933C1116.66 824.434 1116.94 823.758 1116.94 823.052C1116.94 822.703 1116.87 822.357 1116.74 822.034C1116.6 821.711 1116.41 821.418 1116.16 821.171C1115.91 820.924 1115.62 820.728 1115.3 820.595C1114.97 820.461 1114.63 820.392 1114.28 820.392C1113.93 820.392 1113.58 820.461 1113.26 820.595C1112.94 820.728 1112.64 820.924 1112.4 821.171C1112.15 821.418 1111.95 821.711 1111.82 822.034C1111.69 822.357 1111.62 822.703 1111.62 823.052C1111.62 823.758 1111.9 824.434 1112.4 824.933C1112.9 825.432 1113.57 825.712 1114.28 825.712Z" fill="#75D1F1"/>
<path opacity="0.3" d="M1040.55 842.204C1041.26 842.204 1041.94 841.924 1042.43 841.425C1042.93 840.926 1043.21 840.249 1043.21 839.544C1043.21 838.838 1042.93 838.162 1042.43 837.663C1041.94 837.164 1041.26 836.884 1040.55 836.884C1039.85 836.884 1039.17 837.164 1038.67 837.663C1038.17 838.162 1037.89 838.838 1037.89 839.544C1037.89 840.249 1038.17 840.926 1038.67 841.425C1039.17 841.924 1039.85 842.204 1040.55 842.204Z" fill="#75D1F1"/>
</g>
<mask id="mask3_6231_168312" style="mask-type:alpha" maskUnits="userSpaceOnUse" x="50" y="735" width="141" height="98">
<path fill-rule="evenodd" clip-rule="evenodd" d="M118.414 736.425L118.859 736.265C119.596 736.015 120.379 735.936 121.151 736.033C121.922 736.131 122.661 736.402 123.312 736.827C123.963 737.252 124.51 737.819 124.909 738.486C125.309 739.153 125.552 739.902 125.62 740.677L129.447 781.903L133.339 823.936C133.456 825.099 133.173 826.267 132.536 827.247C131.9 828.226 130.948 828.96 129.838 829.325L122.136 831.915L121.69 832.063C120.95 832.32 120.162 832.405 119.385 832.31C118.608 832.216 117.863 831.945 117.207 831.519C116.55 831.092 116 830.521 115.599 829.849C115.197 829.177 114.954 828.423 114.889 827.643L111.227 788.012L107.21 744.391C107.096 743.23 107.381 742.065 108.017 741.088C108.654 740.11 109.605 739.379 110.713 739.014L118.414 736.425ZM187.103 758.097L186.498 756.299C186.218 755.454 185.723 754.696 185.061 754.101C184.4 753.505 183.595 753.091 182.726 752.901L141.348 743.618C140.449 743.4 139.509 743.428 138.625 743.701C137.741 743.973 136.947 744.479 136.328 745.165C135.708 745.852 135.285 746.693 135.104 747.599C134.922 748.506 134.989 749.445 135.298 750.317L138.207 758.999C138.502 759.858 139.019 760.624 139.706 761.218C140.394 761.811 141.226 762.212 142.119 762.379L171.074 767.883L151.335 789.812C150.717 790.493 150.294 791.326 150.109 792.226C149.924 793.126 149.983 794.059 150.282 794.927L151.786 799.404L153.123 803.385C153.404 804.267 153.917 805.056 154.61 805.669C155.302 806.283 156.147 806.698 157.056 806.871C157.965 807.043 158.903 806.967 159.772 806.65C160.641 806.333 161.408 805.787 161.993 805.07L189.414 772.715C189.991 772.038 190.383 771.223 190.55 770.349C190.717 769.474 190.654 768.572 190.367 767.73L187.127 758.081L187.103 758.097ZM98.9466 807.408L69.9645 801.894L89.6996 780.031C90.3123 779.351 90.732 778.519 90.9151 777.622C91.0983 776.725 91.0383 775.796 90.7413 774.93L87.8322 766.248C87.5499 765.367 87.0352 764.58 86.3424 763.968C85.6496 763.356 84.8044 762.943 83.8961 762.772C82.9878 762.6 82.0502 762.678 81.1821 762.995C80.3141 763.313 79.5479 763.859 78.9645 764.576L51.599 796.962C51.0235 797.638 50.6331 798.451 50.4657 799.323C50.2984 800.194 50.36 801.094 50.6444 801.935L51.3508 804.018L51.7555 805.26L54.4911 813.395C54.7768 814.236 55.2736 814.991 55.934 815.586C56.5945 816.181 57.3964 816.596 58.2633 816.793L99.6728 826.02C100.571 826.238 101.512 826.209 102.396 825.937C103.28 825.665 104.073 825.159 104.693 824.472C105.313 823.786 105.736 822.945 105.917 822.038C106.098 821.132 106.031 820.193 105.723 819.321L102.862 810.813C102.571 809.949 102.055 809.178 101.366 808.579C100.678 807.981 99.8429 807.576 98.9466 807.408Z" fill="#56ED78"/>
</mask>
<g mask="url(#mask3_6231_168312)">
<path fill-rule="evenodd" clip-rule="evenodd" d="M98.947 807.408L69.965 801.894L89.7 780.031C90.3127 779.351 90.7324 778.519 90.9156 777.622C91.0987 776.725 91.0387 775.796 90.7418 774.93L87.8326 766.248C87.5503 765.368 87.0356 764.58 86.3428 763.968C85.65 763.356 84.8048 762.943 83.8965 762.772C82.9883 762.6 82.0506 762.678 81.1826 762.995C80.3145 763.313 79.5484 763.859 78.965 764.576L51.5995 796.962C51.024 797.638 50.6335 798.451 50.4662 799.323C50.2989 800.194 50.3604 801.094 50.6449 801.935L51.3513 804.018L51.7559 805.26L54.4916 813.395C54.7773 814.237 55.274 814.991 55.9345 815.586C56.5949 816.181 57.3969 816.596 58.2637 816.793L99.6732 826.02C100.572 826.238 101.513 826.209 102.396 825.937C103.28 825.665 104.074 825.159 104.694 824.472C105.313 823.786 105.736 822.945 105.918 822.039C106.099 821.132 106.032 820.193 105.723 819.321L102.862 810.813C102.571 809.949 102.055 809.178 101.367 808.579C100.679 807.981 99.8434 807.576 98.947 807.408Z" fill="#36C6DA"/>
<path fill-rule="evenodd" clip-rule="evenodd" d="M187.104 758.097L186.498 756.299C186.218 755.454 185.723 754.696 185.062 754.101C184.401 753.505 183.596 753.091 182.726 752.901L141.348 743.618C140.45 743.4 139.509 743.429 138.625 743.701C137.742 743.973 136.948 744.479 136.328 745.166C135.708 745.852 135.285 746.693 135.104 747.599C134.923 748.506 134.99 749.445 135.298 750.317L138.207 758.999C138.502 759.859 139.02 760.624 139.707 761.218C140.394 761.811 141.227 762.212 142.12 762.379L171.075 767.883L151.335 789.812C150.718 790.493 150.295 791.326 150.109 792.226C149.924 793.126 149.984 794.059 150.282 794.927V794.927L151.786 799.404L153.124 803.385C153.404 804.267 153.918 805.056 154.61 805.669C155.302 806.283 156.148 806.698 157.056 806.871C157.965 807.043 158.904 806.967 159.773 806.65C160.642 806.333 161.409 805.787 161.993 805.07L189.414 772.715C189.992 772.038 190.383 771.223 190.55 770.349C190.717 769.475 190.654 768.572 190.367 767.73L187.127 758.081L187.104 758.097Z" fill="#36C6DA"/>
<path fill-rule="evenodd" clip-rule="evenodd" d="M118.86 736.265L118.415 736.425L110.713 739.014C109.605 739.379 108.654 740.11 108.018 741.088C107.381 742.065 107.096 743.23 107.21 744.391L111.228 788.012L114.89 827.643C114.955 828.423 115.197 829.177 115.599 829.849C116.001 830.521 116.551 831.092 117.207 831.518C117.863 831.945 118.608 832.216 119.386 832.31C120.163 832.405 120.951 832.32 121.69 832.063L122.137 831.915L129.838 829.325C130.948 828.96 131.9 828.226 132.537 827.246C133.174 826.267 133.457 825.099 133.34 823.936L129.448 781.903L125.62 740.677C125.552 739.902 125.309 739.153 124.91 738.486C124.51 737.819 123.964 737.252 123.313 736.827C122.662 736.402 121.922 736.131 121.151 736.033C120.38 735.936 119.596 736.015 118.86 736.265Z" fill="#36C6DA"/>
<path d="M121.68 832.09L129.828 829.353C130.938 828.987 131.89 828.254 132.527 827.274C133.163 826.294 133.447 825.126 133.329 823.964L129.433 781.892L111.214 788.014L114.876 827.645C114.938 828.427 115.178 829.185 115.578 829.86C115.978 830.536 116.528 831.11 117.185 831.539C117.843 831.969 118.59 832.242 119.369 832.337C120.148 832.433 120.939 832.348 121.68 832.09V832.09Z" fill="#41D6EB"/>
</g>
<path fill-rule="evenodd" clip-rule="evenodd" d="M224.343 810.246L212.448 806.348L221.938 798.226C222.237 797.975 222.462 797.647 222.59 797.277C222.718 796.908 222.744 796.511 222.665 796.128L221.909 792.344C221.831 791.963 221.653 791.609 221.393 791.319C221.134 791.028 220.802 790.812 220.432 790.691C220.062 790.57 219.667 790.55 219.286 790.631C218.905 790.713 218.553 790.893 218.264 791.155L204.981 803.294C204.704 803.548 204.497 803.869 204.38 804.226C204.262 804.583 204.239 804.964 204.311 805.333L204.493 806.254L204.562 806.788L205.266 810.372C205.341 810.74 205.509 811.084 205.754 811.369C205.998 811.655 206.312 811.874 206.665 812.004L223.594 818.142C223.961 818.274 224.356 818.306 224.739 818.236C225.122 818.166 225.48 817.995 225.776 817.742C226.073 817.489 226.296 817.161 226.425 816.793C226.553 816.425 226.582 816.03 226.508 815.647L225.765 811.862C225.682 811.495 225.509 811.154 225.26 810.872C225.012 810.59 224.696 810.374 224.343 810.246Z" fill="#41D6EB"/>
<path fill-rule="evenodd" clip-rule="evenodd" d="M257.325 800.307L257.503 801.086C257.579 801.457 257.559 801.842 257.444 802.203C257.329 802.564 257.124 802.89 256.848 803.149L243.725 815.526C243.441 815.794 243.091 815.981 242.711 816.068C242.331 816.155 241.934 816.139 241.562 816.022C241.19 815.905 240.856 815.691 240.594 815.402C240.332 815.113 240.152 814.759 240.072 814.377L239.266 810.599C239.186 810.218 239.208 809.821 239.331 809.451C239.455 809.081 239.673 808.75 239.966 808.492L249.362 800.24L237.434 796.488C237.058 796.379 236.72 796.17 236.455 795.882C236.19 795.595 236.009 795.24 235.932 794.857V794.857L235.514 792.905L235.147 791.154C235.069 790.773 235.093 790.377 235.217 790.007C235.341 789.638 235.561 789.308 235.854 789.051C236.147 788.794 236.503 788.619 236.885 788.545C237.268 788.47 237.663 788.497 238.032 788.625L255.036 794.546C255.392 794.675 255.709 794.892 255.959 795.177C256.208 795.461 256.38 795.805 256.46 796.175L257.35 800.394L257.325 800.307Z" fill="#41D6EB"/>
</g>
<path d="M1655.9 839.04C1648.06 838.2 1642.32 831.06 1643.16 823.22L1643.86 816.64" stroke="#41D6EB" stroke-width="2.6565" stroke-miterlimit="10"/>
<path d="M1656.6 833.02C1662.48 833.72 1667.8 829.38 1668.5 823.5L1669.34 815.24" stroke="#41D6EB" stroke-width="2.6565" stroke-miterlimit="10"/>
<path d="M1658.14 818.32L1652.96 865.64" stroke="#41D6EB" stroke-width="2.6565" stroke-miterlimit="10"/>
<path d="M1687.9 799.693C1690.8 783.716 1680.19 768.415 1664.22 765.518C1648.24 762.622 1632.94 773.226 1630.04 789.203C1627.15 805.18 1637.75 820.481 1653.73 823.378C1669.7 826.274 1685 815.67 1687.9 799.693Z" fill="#41D6EB"/>
<path d="M1684.46 791.44C1685.02 786.54 1684.32 781.78 1682.78 777.44C1678.02 771 1670.74 766.38 1662.2 765.4C1646.1 763.58 1631.54 775.34 1629.86 791.44C1629.02 799.14 1631.26 806.28 1635.46 812.02C1639.8 815.38 1645.12 817.76 1651 818.32C1667.66 820.28 1682.64 808.24 1684.46 791.44Z" fill="#36C6DA"/>
<mask id="mask4_6231_168312" style="mask-type:alpha" maskUnits="userSpaceOnUse" x="1629" y="765" width="60" height="59">
<path d="M1687.9 799.693C1690.8 783.716 1680.19 768.415 1664.22 765.518C1648.24 762.622 1632.94 773.226 1630.04 789.203C1627.15 805.18 1637.75 820.481 1653.73 823.378C1669.7 826.274 1685 815.67 1687.9 799.693Z" fill="#36C6DA"/>
</mask>
<g mask="url(#mask4_6231_168312)">
<path opacity="0.5" d="M1676.18 797.133C1680.78 769.132 1661.8 742.707 1633.8 738.113C1605.8 733.519 1579.37 752.495 1574.78 780.497C1570.19 808.498 1589.16 834.923 1617.16 839.517C1645.16 844.111 1671.59 825.135 1676.18 797.133Z" stroke="#A1E3FB" stroke-width="10.685" stroke-miterlimit="10"/>
<path d="M1653.54 793.435C1656.18 778.119 1645.9 763.562 1630.59 760.922C1615.27 758.281 1600.71 768.557 1598.07 783.873C1595.43 799.189 1605.71 813.745 1621.02 816.385C1636.34 819.026 1650.9 808.751 1653.54 793.435Z" stroke="#B7ECFF" stroke-width="2.6565" stroke-miterlimit="10"/>
</g>
<path d="M1595.67 844.36C1589.79 844.22 1585.03 839.18 1585.17 833.3L1585.73 816.5" stroke="#41D6EB" stroke-width="2.6565" stroke-miterlimit="10"/>
<path d="M1596.09 817.48L1594.69 864.24" stroke="#41D6EB" stroke-width="2.6565" stroke-miterlimit="10"/>
<path d="M1596.4 821.96C1583.24 821.54 1572.88 810.62 1573.3 797.46L1574.14 768.48C1574.56 755.32 1585.48 744.96 1598.64 745.38C1611.8 745.8 1622.16 756.72 1621.74 769.88L1620.9 798.86C1620.48 812.02 1609.56 822.38 1596.4 821.96Z" fill="#41D6EB"/>
<path d="M1592.06 818.32C1605.22 818.74 1616.14 808.38 1616.56 795.22L1617.4 766.24C1617.54 759.66 1615.16 753.78 1611.1 749.3C1607.46 746.92 1603.26 745.52 1598.64 745.38C1585.48 744.96 1574.56 755.32 1574.14 768.48L1573.3 797.46C1573.16 804.04 1575.54 809.92 1579.6 814.4C1583.24 816.78 1587.44 818.18 1592.06 818.32Z" fill="#36C6DA"/>
<mask id="mask5_6231_168312" style="mask-type:alpha" maskUnits="userSpaceOnUse" x="1573" y="745" width="45" height="74">
<path d="M1592.06 818.32C1605.22 818.74 1616.14 808.38 1616.56 795.22L1617.4 766.24C1617.54 759.66 1615.16 753.78 1611.1 749.3C1607.46 746.92 1603.26 745.52 1598.64 745.38C1585.48 744.96 1574.56 755.32 1574.14 768.48L1573.3 797.46C1573.16 804.04 1575.54 809.92 1579.6 814.4C1583.24 816.78 1587.44 818.18 1592.06 818.32Z" fill="#36C6DA"/>
</mask>
<g mask="url(#mask5_6231_168312)">
<path d="M1595.14 865.36L1596.82 810.2C1597.24 797.04 1586.88 786.12 1573.72 785.7" stroke="#B7ECFF" stroke-width="2.6565" stroke-miterlimit="10"/>
<path d="M1585.48 789.9L1587.16 734.74C1587.58 721.58 1577.22 710.66 1564.06 710.24" stroke="#B7ECFF" stroke-width="2.6565" stroke-miterlimit="10"/>
<path d="M1622.44 744.96C1609.28 744.54 1598.36 754.9 1597.94 768.06L1596.26 823.22" stroke="#B7ECFF" stroke-width="2.6565" stroke-miterlimit="10"/>
</g>
<path d="M1714.11 852.48C1719.99 853.18 1725.45 849.12 1726.15 843.24L1727.27 834.98" stroke="#41D6EB" stroke-width="3" stroke-miterlimit="10"/>
<path d="M1715.79 837.36L1709.77 883.98" stroke="#41D6EB" stroke-width="3" stroke-miterlimit="10"/>
<path d="M1716.52 840.58C1703.5 838.9 1694.26 827 1695.94 813.84L1703.08 759.24C1704.76 746.22 1716.66 736.98 1729.82 738.66C1742.84 740.34 1752.08 752.24 1750.4 765.4L1743.26 820C1741.58 833.02 1729.54 842.26 1716.52 840.58Z" fill="#41D6EB"/>
<path d="M1711.34 836.66C1724.36 838.34 1736.4 829.1 1738.08 816.08L1745.22 761.48C1746.2 753.78 1743.4 746.5 1738.22 741.32C1735.7 739.92 1732.9 738.94 1729.82 738.52C1716.8 736.84 1704.76 746.08 1703.08 759.1L1695.94 813.7C1694.96 821.4 1697.76 828.68 1702.94 833.86C1705.46 835.4 1708.26 836.38 1711.34 836.66Z" fill="#36C6DA"/>
<mask id="mask6_6231_168312" style="mask-type:alpha" maskUnits="userSpaceOnUse" x="1695" y="738" width="56" height="100">
<path d="M1716.94 837.08C1694.26 836.94 1694.26 827 1695.94 813.84L1703.08 759.24C1704.76 746.22 1716.66 736.98 1729.82 738.66C1742.84 740.34 1752.08 752.24 1750.4 765.4L1744.94 807.82C1743.12 820.7 1728.28 836.1 1716.94 837.08Z" fill="#36C6DA"/>
</mask>
<g mask="url(#mask6_6231_168312)">
<path d="M1712.6 865.22L1719.74 810.62C1721.42 797.6 1733.32 788.36 1746.48 790.04" stroke="#B7ECFF" stroke-width="2.6565" stroke-miterlimit="10"/>
<path opacity="0.4" d="M1705.18 739.5C1718.2 741.18 1727.44 753.08 1725.76 766.24L1716.38 838.06" stroke="#B7ECFF" stroke-width="11.4482" stroke-miterlimit="10"/>
<path d="M1701.12 736.98C1716.24 738.94 1726.88 752.8 1724.92 767.92L1714.14 850.52" stroke="#B7ECFF" stroke-width="2.6565" stroke-miterlimit="10"/>
<path d="M1714.56 852.62C1720.44 853.32 1725.9 849.26 1726.6 843.38L1727.72 835.12" stroke="#36C6DA" stroke-width="2.6565" stroke-miterlimit="10"/>
</g>
<path d="M1610.46 323.31C1610.81 322.928 1611.24 322.637 1611.73 322.463C1612.21 322.288 1612.73 322.236 1613.24 322.31C1614.66 322.479 1616.03 322.899 1617.3 323.55C1618.43 324.035 1619.54 324.579 1620.61 325.18C1622.61 326.32 1624.47 327.65 1626.46 328.8C1631.58 331.824 1636.35 335.402 1640.68 339.47C1641.09 339.84 1642.92 341.58 1643.42 340.53C1643.47 340.376 1643.49 340.212 1643.48 340.05C1643.46 339.889 1643.41 339.732 1643.33 339.59C1642.51 337.52 1641.04 335.78 1640.09 333.77C1639.93 333.505 1639.87 333.185 1639.94 332.88C1640.01 332.73 1640.12 332.604 1640.26 332.517C1640.4 332.43 1640.56 332.386 1640.72 332.39C1641.05 332.401 1641.38 332.494 1641.66 332.66C1645.22 334.41 1647.43 338.18 1650.92 340.05L1651.56 340.4C1651.72 340.499 1651.89 340.57 1652.07 340.61C1652.16 340.624 1652.25 340.614 1652.34 340.58C1652.42 340.547 1652.5 340.492 1652.55 340.42C1652.6 340.271 1652.6 340.109 1652.55 339.96C1652.29 339.058 1651.94 338.184 1651.5 337.35C1651.29 336.928 1651.19 336.459 1651.22 335.988C1651.24 335.517 1651.38 335.06 1651.63 334.66C1651.73 334.534 1651.86 334.435 1652.01 334.37C1652.18 334.33 1652.35 334.33 1652.51 334.37C1654.69 334.54 1656.81 336.21 1658.44 337.6C1659.44 338.43 1660.3 339.36 1661.28 340.18C1662.32 341.019 1663.42 341.794 1664.55 342.5L1671.95 347.28C1674.28 348.713 1676.46 350.389 1678.43 352.28C1679.17 353.009 1679.87 353.78 1680.52 354.59C1681.05 355.425 1681.46 356.322 1681.76 357.26C1682.14 358.15 1682.66 358.98 1683.12 359.83C1684.58 362.594 1685.38 365.657 1685.45 368.78C1685.59 370.758 1685.35 372.744 1684.74 374.63C1684.19 375.98 1682.54 377.24 1681.36 378.04C1678.52 379.95 1675.15 380.81 1671.99 382.04C1670.1 382.76 1667.73 382.53 1665.72 382.53C1663.89 382.53 1662.16 382.71 1660.34 382.83C1659.46 382.89 1658.58 383 1657.69 382.99C1655.82 382.897 1653.98 382.442 1652.28 381.65C1650.7 381.045 1649.19 380.285 1647.76 379.38C1646.57 378.595 1645.49 377.638 1644.57 376.54C1643.94 375.73 1643.44 374.82 1642.76 374.05C1642.08 373.34 1641.36 372.672 1640.6 372.05C1638.16 369.927 1635.97 367.516 1634.1 364.87C1633.26 363.56 1632.32 362.32 1631.28 361.16C1629.83 359.68 1627.97 358.65 1626.54 357.16C1625.11 355.67 1624.17 353.79 1622.84 352.22C1620.92 349.96 1618.21 348.36 1616.74 345.77C1616 344.46 1615.48 342.33 1617.45 341.98C1618.83 341.74 1620.34 342.57 1621.56 343.1C1623.76 344.155 1625.88 345.365 1627.91 346.72C1628.36 347 1630.91 348.23 1630.85 346.86C1630.77 346.46 1630.55 346.104 1630.22 345.86L1621.66 337.86C1619.02 335.39 1616.17 333.13 1613.66 330.57C1612.2 329.198 1611.07 327.513 1610.35 325.64C1610.16 325.239 1610.08 324.793 1610.12 324.35C1610.17 323.907 1610.33 323.485 1610.6 323.13" fill="#F68B2B"/>
<path d="M1636.88 347.03C1637.04 347.611 1637.3 348.159 1637.65 348.65C1638.65 350.164 1639.86 351.528 1641.24 352.7C1641.46 352.88 1641.71 353.19 1641.53 353.42C1641.47 353.478 1641.4 353.521 1641.32 353.545C1641.24 353.569 1641.16 353.574 1641.07 353.56C1640 353.48 1638.88 352.83 1637.93 353.32C1637.63 353.486 1637.37 353.734 1637.19 354.035C1637.02 354.337 1636.93 354.681 1636.93 355.03C1636.95 355.727 1637.12 356.41 1637.44 357.03C1638.88 360.26 1641.27 362.96 1643.01 366.03C1643.59 367.03 1644.1 368.13 1644.65 369.16C1645.94 371.567 1647.5 373.818 1649.3 375.87C1650.05 376.821 1650.91 377.675 1651.86 378.41C1652.89 379.096 1654.05 379.572 1655.26 379.81C1657.21 380.152 1659.18 380.249 1661.15 380.1C1663.06 380.03 1664.98 379.94 1666.9 379.99C1668.32 379.99 1669.75 380.12 1671.17 379.99C1672.35 379.939 1673.51 379.636 1674.56 379.1L1678.01 377.1C1679.24 376.48 1680.35 375.639 1681.27 374.62C1681.65 374.119 1681.97 373.571 1682.21 372.99C1682.56 372.059 1682.77 371.088 1682.86 370.1C1683.23 368.49 1683.3 366.827 1683.08 365.19C1682.98 364.61 1682.77 364.052 1682.48 363.54C1682.21 363.106 1681.9 362.698 1681.55 362.32L1679.63 360.06C1678.24 358.43 1677.63 356.26 1676.38 354.52C1675.18 352.828 1673.6 351.438 1671.76 350.46C1669.67 349.496 1667.66 348.348 1665.76 347.03C1664.61 346.2 1663.53 345.26 1662.33 344.51C1661.14 343.757 1659.84 343.194 1658.47 342.84C1657.9 342.69 1657.16 342.64 1656.86 343.15C1656.56 343.66 1656.86 344.15 1657.08 344.61C1657.3 345.07 1658.28 346.86 1657.56 346.92C1657.2 346.92 1656.38 346.23 1656.08 346.07L1654.66 345.31C1653.9 344.818 1653.03 344.513 1652.13 344.42C1651.68 344.379 1651.23 344.491 1650.86 344.738C1650.48 344.985 1650.2 345.352 1650.05 345.78C1650.01 346.346 1650.04 346.915 1650.16 347.47C1650.16 348.03 1649.96 348.72 1649.41 348.83C1649.01 348.842 1648.62 348.703 1648.32 348.44C1646.15 347.006 1643.83 345.803 1641.4 344.85C1640.6 344.455 1639.72 344.253 1638.83 344.26C1638.51 344.292 1638.2 344.392 1637.93 344.555C1637.65 344.717 1637.41 344.937 1637.22 345.199C1637.04 345.462 1636.91 345.761 1636.85 346.077C1636.8 346.393 1636.81 346.718 1636.88 347.03V347.03Z" fill="#F9D929"/>
<path d="M1677.47 373.87C1676.49 375.138 1675.18 376.104 1673.68 376.66C1671.51 377.391 1669.19 377.61 1666.92 377.3C1662.92 377.03 1658.81 378.3 1655.23 375.89C1654.29 375.21 1653.44 374.418 1652.7 373.53L1650.09 370.68C1649.63 370.27 1649.29 369.751 1649.09 369.17C1648.95 368.59 1649.09 367.96 1648.98 367.38C1648.71 366.68 1648.31 366.038 1647.79 365.49C1647.46 364.929 1647.32 364.278 1647.38 363.63C1647.21 361.76 1646.45 359.98 1646.38 358.08C1646.37 356.848 1646.64 355.63 1647.17 354.518C1647.7 353.406 1648.48 352.429 1649.44 351.66C1650.63 350.694 1652.12 350.164 1653.65 350.16C1654.64 350.304 1655.65 350.35 1656.65 350.3C1657.5 350.15 1658.27 349.66 1659.12 349.51C1659.92 349.374 1660.74 349.526 1661.43 349.94C1661.63 350.088 1661.85 350.213 1662.08 350.31C1662.46 350.412 1662.85 350.439 1663.24 350.39C1664.44 350.343 1665.63 350.627 1666.68 351.21C1667.86 351.897 1669.08 352.521 1670.32 353.08C1671.42 353.475 1672.42 354.111 1673.24 354.94C1673.75 355.749 1674.13 356.633 1674.37 357.56C1675.07 359.37 1676.52 360.65 1677.37 362.34C1678.38 363.988 1679.12 365.783 1679.57 367.66C1679.64 368.02 1679.66 368.385 1679.65 368.75C1679.39 370.618 1678.63 372.384 1677.47 373.87V373.87Z" fill="#606AB1"/>
<path d="M1669.68 369.87C1668.68 369.07 1666.87 367.54 1665.68 368.87C1665.39 369.21 1665.21 369.633 1665.16 370.08C1665.13 370.425 1665.18 370.772 1665.3 371.095C1665.43 371.418 1665.63 371.708 1665.88 371.94C1666.34 372.3 1666.87 372.549 1667.44 372.67C1667.8 372.76 1668.17 372.84 1668.54 372.9C1668.84 372.977 1669.14 372.994 1669.44 372.949C1669.75 372.905 1670.03 372.799 1670.29 372.64C1671.29 371.87 1670.43 370.44 1669.68 369.87Z" fill="#131313"/>
<path d="M1672.94 360.35C1672.45 360.525 1672.05 360.884 1671.82 361.35C1671.75 361.588 1671.75 361.842 1671.82 362.08C1671.85 362.199 1671.91 362.309 1671.99 362.4C1672.15 362.522 1672.34 362.595 1672.53 362.61C1673.14 362.68 1673.75 362.68 1674.35 362.61C1674.49 362.598 1674.62 362.564 1674.75 362.51C1674.81 362.481 1674.86 362.436 1674.9 362.379C1674.94 362.323 1674.96 362.258 1674.96 362.19C1674.95 362.062 1674.89 361.942 1674.8 361.85L1674.11 360.97C1674.02 360.82 1673.91 360.69 1673.76 360.589C1673.62 360.487 1673.46 360.416 1673.29 360.38C1673.03 360.38 1672.78 360.52 1672.51 360.51" fill="#131313"/>
<path d="M1676.65 371.05C1676.57 371.226 1676.44 371.376 1676.28 371.48C1676.2 371.538 1676.14 371.614 1676.1 371.7C1676.05 371.787 1676.03 371.883 1676.03 371.98C1676.06 372.074 1676.11 372.158 1676.19 372.221C1676.26 372.283 1676.35 372.322 1676.45 372.33C1676.64 372.338 1676.83 372.292 1677 372.196C1677.16 372.1 1677.29 371.959 1677.38 371.79C1677.62 371.35 1677.79 370.15 1677.2 369.89C1676.31 369.49 1676.74 370.74 1676.65 371.05Z" fill="#131313"/>
<path d="M1657.57 359.87C1656.85 359.56 1655.73 359.64 1655.57 360.6C1655.55 360.679 1655.55 360.762 1655.57 360.84C1655.61 360.903 1655.65 360.961 1655.7 361.01C1656 361.425 1656.44 361.719 1656.94 361.84C1657.16 361.853 1657.38 361.829 1657.59 361.77C1657.8 361.738 1658 361.663 1658.17 361.55C1658.26 361.494 1658.34 361.416 1658.39 361.323C1658.44 361.231 1658.47 361.127 1658.47 361.02C1658.44 360.817 1658.35 360.628 1658.2 360.48C1658.04 360.233 1657.82 360.025 1657.57 359.87Z" fill="#131313"/>
<path d="M1659.98 352.39C1659.92 352.442 1659.87 352.508 1659.83 352.582C1659.8 352.657 1659.78 352.738 1659.78 352.82C1659.76 352.933 1659.78 353.05 1659.82 353.156C1659.86 353.262 1659.94 353.354 1660.03 353.42C1660.14 353.474 1660.25 353.498 1660.37 353.49C1660.5 353.514 1660.63 353.514 1660.75 353.49C1660.81 353.467 1660.87 353.429 1660.91 353.378C1660.95 353.327 1660.98 353.265 1660.99 353.2C1661.01 353.121 1661.01 353.039 1660.99 352.96C1660.94 352.787 1660.85 352.629 1660.72 352.5C1660.66 352.455 1660.6 352.422 1660.52 352.403C1660.45 352.384 1660.38 352.379 1660.3 352.39C1660.23 352.4 1660.16 352.425 1660.1 352.462C1660.03 352.5 1659.98 352.55 1659.93 352.61" fill="#131313"/>
<path d="M1649.32 365.12C1649.16 365.386 1649.08 365.69 1649.08 366C1649.08 366.31 1649.16 366.614 1649.32 366.88C1649.85 367.821 1650.53 368.672 1651.32 369.4C1651.58 369.721 1651.93 369.955 1652.32 370.07C1652.72 370.15 1653.2 369.87 1653.17 369.47C1653.15 369.346 1653.1 369.228 1653.02 369.127C1652.95 369.026 1652.85 368.945 1652.73 368.89C1652.51 368.777 1652.3 368.636 1652.11 368.47C1651.86 368.2 1651.79 367.78 1651.51 367.54C1651.23 367.3 1650.93 367.32 1650.69 367.13C1650.46 366.888 1650.3 366.582 1650.23 366.25C1650.14 365.94 1650.03 365.636 1649.9 365.34C1649.84 365.2 1649.75 365.04 1649.6 365.02C1649.53 365.018 1649.45 365.043 1649.39 365.091C1649.33 365.138 1649.29 365.205 1649.27 365.28C1649.24 365.428 1649.24 365.582 1649.27 365.73" fill="#131313"/>
<path d="M1598.97 330.07C1598.71 330.07 1598.45 330.176 1598.27 330.363C1598.08 330.551 1597.97 330.805 1597.97 331.07C1597.97 331.336 1598.08 331.59 1598.27 331.777C1598.45 331.965 1598.71 332.07 1598.97 332.07C1599.24 332.07 1599.49 331.965 1599.68 331.777C1599.87 331.59 1599.97 331.336 1599.97 331.07C1599.97 330.805 1599.87 330.551 1599.68 330.363C1599.49 330.176 1599.24 330.07 1598.97 330.07Z" fill="#F68B2B"/>
<path d="M1597.1 328.7C1596.98 328.58 1596.83 328.494 1596.66 328.45L1595.9 328.13C1595.77 328.095 1595.63 328.095 1595.5 328.13C1595.37 328.139 1595.24 328.181 1595.13 328.25C1595.02 328.312 1594.92 328.402 1594.85 328.51C1594.76 328.606 1594.7 328.723 1594.67 328.85V329.12C1594.68 329.296 1594.72 329.467 1594.81 329.62L1594.97 329.82C1595.09 329.946 1595.24 330.036 1595.41 330.08L1596.16 330.4C1596.29 330.435 1596.43 330.435 1596.56 330.4C1596.7 330.399 1596.83 330.361 1596.94 330.29C1597.05 330.225 1597.15 330.136 1597.22 330.03C1597.3 329.931 1597.36 329.815 1597.39 329.69V329.42C1597.39 329.244 1597.34 329.071 1597.25 328.92L1597.1 328.7Z" fill="#F68B2B"/>
<path d="M1648.32 331.21C1648.25 330.965 1648.08 330.755 1647.86 330.62C1647.24 330.219 1646.57 329.909 1645.86 329.7C1645.73 329.665 1645.6 329.655 1645.47 329.672C1645.34 329.69 1645.21 329.733 1645.09 329.8C1644.98 329.866 1644.88 329.954 1644.8 330.059C1644.72 330.164 1644.66 330.283 1644.63 330.41C1644.6 330.538 1644.59 330.67 1644.61 330.801C1644.62 330.931 1644.67 331.057 1644.73 331.17C1644.87 331.391 1645.08 331.555 1645.33 331.63C1645.51 331.685 1645.69 331.748 1645.86 331.82C1646.21 331.967 1646.54 332.14 1646.86 332.34C1647.09 332.475 1647.36 332.514 1647.62 332.449C1647.88 332.383 1648.1 332.218 1648.23 331.99C1648.3 331.873 1648.34 331.743 1648.36 331.609C1648.37 331.475 1648.36 331.34 1648.32 331.21Z" fill="#F68B2B"/>
<path d="M1614.22 339.87C1614 339.507 1613.74 339.171 1613.44 338.87C1613.14 338.579 1612.8 338.324 1612.44 338.11C1612.11 337.898 1611.73 337.774 1611.33 337.75C1610.96 337.744 1610.6 337.86 1610.31 338.081C1610.01 338.302 1609.8 338.615 1609.7 338.97C1609.62 339.269 1609.63 339.583 1609.71 339.88C1609.8 340.177 1609.96 340.446 1610.18 340.66C1610.38 340.854 1610.62 341.001 1610.88 341.09C1611.05 341.172 1611.21 341.265 1611.36 341.37C1611.48 341.48 1611.6 341.6 1611.71 341.72C1611.92 342.054 1612.24 342.3 1612.61 342.41C1612.81 342.46 1613.01 342.46 1613.21 342.41C1613.41 342.399 1613.6 342.337 1613.77 342.23C1614.11 342.028 1614.35 341.707 1614.46 341.33C1614.55 341.027 1614.55 340.704 1614.46 340.4C1614.42 340.209 1614.34 340.028 1614.22 339.87V339.87Z" fill="#F68B2B"/>
<path d="M1635.84 325.39C1635.74 325.183 1635.61 324.991 1635.46 324.82C1635.13 324.485 1634.76 324.195 1634.35 323.96L1634.09 323.77C1633.33 323.22 1632.59 322.61 1631.78 322.13C1631.4 321.879 1630.97 321.712 1630.53 321.64C1630.08 321.568 1629.62 321.591 1629.18 321.71C1629.12 321.729 1629.06 321.761 1629.01 321.802C1628.96 321.844 1628.92 321.895 1628.89 321.953C1628.86 322.011 1628.84 322.074 1628.84 322.138C1628.83 322.203 1628.84 322.268 1628.86 322.33C1628.77 322.402 1628.69 322.494 1628.63 322.6C1628.24 323.38 1629.3 324.08 1629.79 324.48C1630.55 325.12 1631.35 325.698 1632.2 326.21C1633.09 326.702 1634.03 327.095 1635 327.38C1635.07 327.406 1635.15 327.413 1635.22 327.401C1635.29 327.388 1635.36 327.357 1635.42 327.31C1635.46 327.32 1635.51 327.32 1635.55 327.31C1636.55 327.18 1636.23 325.99 1635.87 325.4L1635.84 325.39Z" fill="#F68B2B"/>
<path d="M1609.31 336.48L1605.61 333.74C1605.05 333.287 1604.45 332.885 1603.82 332.54C1603.67 332.46 1603.51 332.4 1603.35 332.33L1603.07 332.21C1602.83 332.117 1602.6 331.982 1602.4 331.81C1601.48 330.91 1600.06 332.32 1600.99 333.22C1601.25 333.475 1601.54 333.688 1601.86 333.85L1602.34 334.06L1602.61 334.17H1602.66C1603.33 334.5 1603.96 334.906 1604.53 335.38L1608.35 338.21C1608.47 338.277 1608.59 338.32 1608.72 338.338C1608.85 338.356 1608.99 338.348 1609.11 338.315C1609.24 338.281 1609.36 338.223 1609.46 338.143C1609.57 338.064 1609.66 337.964 1609.72 337.85C1609.79 337.734 1609.83 337.606 1609.84 337.473C1609.86 337.341 1609.84 337.207 1609.81 337.079C1609.77 336.951 1609.7 336.833 1609.62 336.73C1609.54 336.627 1609.43 336.542 1609.31 336.48Z" fill="#F68B2B"/>
<path d="M1607.17 321.98C1607.37 322.08 1607.55 322.2 1607.75 322.3C1607.98 322.414 1608.23 322.485 1608.49 322.51C1608.76 322.518 1609.03 322.452 1609.26 322.32C1609.49 322.191 1609.65 321.979 1609.72 321.73C1609.76 321.602 1609.77 321.467 1609.75 321.335C1609.73 321.203 1609.69 321.075 1609.62 320.96C1609.47 320.414 1609.2 319.911 1608.82 319.492C1608.44 319.073 1607.96 318.75 1607.43 318.55C1607.07 318.391 1606.67 318.361 1606.29 318.465C1605.91 318.569 1605.57 318.8 1605.34 319.12C1605.13 319.471 1605.06 319.89 1605.15 320.29C1605.23 320.617 1605.38 320.919 1605.6 321.17C1606.04 321.579 1606.58 321.859 1607.17 321.98V321.98Z" fill="#F68B2B"/>
<path d="M1612.79 313.02C1612.01 312.702 1611.26 312.313 1610.54 311.86C1609.05 310.86 1607.79 309.5 1606.23 308.56C1605.43 308.08 1604.39 307.56 1603.47 308.04C1603.26 308.176 1603.07 308.355 1602.93 308.566C1602.78 308.777 1602.69 309.016 1602.64 309.267C1602.59 309.518 1602.6 309.776 1602.66 310.025C1602.72 310.273 1602.83 310.506 1602.98 310.71C1603.6 311.518 1604.46 312.104 1605.43 312.38C1606.27 312.744 1607.04 313.259 1607.69 313.9C1608.75 314.997 1610.04 315.847 1611.46 316.39C1611.67 316.537 1611.91 316.632 1612.16 316.667C1612.42 316.702 1612.67 316.675 1612.91 316.59C1613.19 316.569 1613.46 316.519 1613.72 316.44C1613.91 316.381 1614.07 316.269 1614.19 316.118C1614.32 315.967 1614.39 315.783 1614.41 315.59C1614.53 315.357 1614.56 315.094 1614.51 314.84C1614.39 314.422 1614.17 314.038 1613.87 313.722C1613.57 313.405 1613.2 313.165 1612.79 313.02Z" fill="#F68B2B"/>
<path d="M1597.26 306.01L1597.48 306.23C1597.62 306.354 1597.77 306.468 1597.92 306.57C1598 306.629 1598.09 306.683 1598.18 306.73C1598.35 306.81 1598.52 306.88 1598.7 306.94C1598.83 306.975 1598.97 306.975 1599.1 306.94C1599.23 306.929 1599.36 306.888 1599.47 306.82C1599.69 306.678 1599.85 306.466 1599.93 306.22V305.96C1599.93 305.781 1599.89 305.605 1599.8 305.45L1599.64 305.25C1599.53 305.14 1599.39 305.057 1599.24 305.01C1599.12 304.95 1599 304.879 1598.89 304.8C1598.8 304.734 1598.72 304.657 1598.65 304.57C1598.56 304.48 1598.45 304.411 1598.33 304.37C1598.21 304.305 1598.08 304.274 1597.94 304.28C1597.81 304.274 1597.68 304.305 1597.56 304.37C1597.44 304.411 1597.32 304.479 1597.23 304.57C1597.14 304.663 1597.07 304.774 1597.02 304.896C1596.97 305.018 1596.94 305.148 1596.94 305.28V305.55C1597.01 305.729 1597.12 305.888 1597.26 306.01V306.01Z" fill="#F68B2B"/>
<path d="M1601.23 315.51C1599.34 314.039 1597.3 312.778 1595.14 311.75C1592.8 310.489 1590.54 309.097 1588.36 307.58C1583.98 304.678 1579.29 302.292 1574.36 300.47C1573.16 300.01 1572.64 301.94 1573.83 302.4C1578.59 304.173 1583.13 306.488 1587.35 309.3C1589.35 310.703 1591.42 311.998 1593.55 313.18C1595.77 314.2 1597.86 315.453 1599.81 316.92C1600.79 317.74 1602.17 316.34 1601.23 315.51Z" fill="#F68B2B"/>
<path d="M1568.83 298.03C1568.71 297.904 1568.56 297.814 1568.39 297.77L1567.81 297.53C1567.68 297.491 1567.54 297.491 1567.41 297.53C1567.28 297.529 1567.15 297.571 1567.04 297.65C1566.93 297.711 1566.83 297.796 1566.75 297.9C1566.67 297.999 1566.61 298.115 1566.58 298.24V298.51C1566.58 298.69 1566.63 298.866 1566.72 299.02L1566.87 299.22C1566.99 299.34 1567.15 299.426 1567.31 299.47L1567.9 299.72C1568.03 299.755 1568.17 299.755 1568.3 299.72C1568.43 299.709 1568.56 299.668 1568.67 299.6C1568.79 299.541 1568.88 299.451 1568.95 299.34C1569.04 299.244 1569.1 299.127 1569.13 299V298.74C1569.14 298.562 1569.09 298.385 1569 298.23L1568.83 298.03Z" fill="#F68B2B"/>
<path d="M1563.96 295.56C1563.04 294.941 1562 294.515 1560.9 294.31C1560.64 294.248 1560.37 294.284 1560.13 294.41C1559.91 294.548 1559.75 294.761 1559.67 295.01C1559.64 295.139 1559.63 295.273 1559.65 295.405C1559.66 295.538 1559.71 295.665 1559.77 295.78C1559.91 296.002 1560.12 296.166 1560.37 296.24C1560.87 296.328 1561.35 296.469 1561.81 296.66C1562.21 296.838 1562.59 297.049 1562.95 297.29C1563.07 297.357 1563.2 297.401 1563.33 297.418C1563.46 297.435 1563.59 297.426 1563.72 297.39C1563.98 297.321 1564.19 297.156 1564.32 296.93C1564.39 296.817 1564.43 296.691 1564.45 296.561C1564.47 296.43 1564.46 296.298 1564.43 296.17C1564.39 296.043 1564.34 295.924 1564.26 295.819C1564.18 295.714 1564.08 295.626 1563.96 295.56V295.56Z" fill="#F68B2B"/>
<path d="M1558.27 293.12C1558.18 293.021 1558.06 292.946 1557.93 292.9C1557.93 292.9 1557.93 292.82 1557.84 292.8C1557.75 292.712 1557.63 292.65 1557.5 292.62C1557.37 292.586 1557.23 292.586 1557.1 292.62C1556.97 292.63 1556.84 292.671 1556.72 292.74L1556.52 292.89C1556.4 293.016 1556.31 293.171 1556.27 293.34V293.6C1556.27 293.78 1556.32 293.956 1556.41 294.11C1556.47 294.198 1556.53 294.281 1556.6 294.36C1556.6 294.36 1556.6 294.36 1556.6 294.36L1556.82 294.53L1557.04 294.63C1557.11 294.667 1557.18 294.694 1557.26 294.71C1557.39 294.745 1557.53 294.745 1557.66 294.71C1557.79 294.701 1557.92 294.66 1558.03 294.59C1558.14 294.528 1558.24 294.439 1558.31 294.33C1558.4 294.235 1558.46 294.117 1558.49 293.99V293.72C1558.49 293.544 1558.44 293.372 1558.35 293.22L1558.27 293.12Z" fill="#F68B2B"/>
<path d="M1553.83 291C1553.57 291 1553.31 291.105 1553.12 291.293C1552.94 291.48 1552.83 291.735 1552.83 292C1552.83 292.265 1552.94 292.52 1553.12 292.707C1553.31 292.895 1553.57 293 1553.83 293C1554.1 293 1554.35 292.895 1554.54 292.707C1554.73 292.52 1554.83 292.265 1554.83 292C1554.83 291.735 1554.73 291.48 1554.54 291.293C1554.35 291.105 1554.1 291 1553.83 291Z" fill="#F68B2B"/>
<path d="M1551.79 290.3L1551.59 290.14C1551.44 290.048 1551.26 290 1551.08 290H1551C1550.87 289.999 1550.73 290.03 1550.61 290.09C1550.49 290.131 1550.38 290.204 1550.29 290.3C1550.2 290.385 1550.13 290.496 1550.09 290.62C1550.02 290.734 1549.99 290.867 1550 291V291.27C1550.05 291.435 1550.14 291.586 1550.26 291.71L1550.46 291.87C1550.62 291.958 1550.79 292.003 1550.97 292H1551.05C1551.32 292 1551.57 291.895 1551.76 291.707C1551.95 291.52 1552.05 291.265 1552.05 291V290.74C1552.01 290.573 1551.92 290.422 1551.79 290.3V290.3Z" fill="#F68B2B"/>
<defs>
<linearGradient id="paint0_linear_6231_168312" x1="896" y1="1.16099e-06" x2="896" y2="920" gradientUnits="userSpaceOnUse">
<stop stop-color="#1D1A50"/>
<stop offset="1" stop-color="#3A257F"/>
</linearGradient>
</defs>
</svg>
