<svg width="158" height="48" viewBox="0 0 158 48" fill="none" xmlns="http://www.w3.org/2000/svg">
<rect opacity="0.06" width="158" height="48" rx="8" fill="#813589"/>
<path d="M60.114 30.6V32.994C60.114 33.714 59.88 34.266 59.412 34.65C58.176 35.706 56.706 36.234 55.002 36.234C53.226 36.258 51.708 35.676 50.448 34.488C49.2 33.3 48.588 31.806 48.612 30.006C48.588 28.182 49.2 26.688 50.448 25.524C51.696 24.348 53.214 23.772 55.002 23.796C56.574 23.796 57.912 24.3 59.016 25.308C59.268 25.548 59.394 25.848 59.394 26.208C59.394 26.532 59.28 26.814 59.052 27.054C58.824 27.282 58.542 27.396 58.206 27.396C57.882 27.396 57.606 27.282 57.378 27.054C56.706 26.394 55.914 26.064 55.002 26.064C53.922 26.064 53.022 26.442 52.302 27.198C51.594 27.942 51.24 28.878 51.24 30.006C51.24 31.134 51.594 32.076 52.302 32.832C53.022 33.576 53.922 33.948 55.002 33.948C56.034 33.948 56.886 33.642 57.558 33.03V31.59H55.362C55.062 31.59 54.798 31.482 54.57 31.266C54.354 31.05 54.246 30.792 54.246 30.492C54.246 30.192 54.354 29.928 54.57 29.7C54.798 29.472 55.062 29.358 55.362 29.358H58.89C59.262 29.358 59.556 29.472 59.772 29.7C60 29.928 60.114 30.228 60.114 30.6ZM61.5311 31.644C61.5311 30.36 61.9511 29.28 62.7911 28.404C63.6431 27.528 64.7531 27.09 66.1211 27.09C67.5011 27.09 68.6111 27.528 69.4511 28.404C70.3031 29.28 70.7291 30.36 70.7291 31.644C70.7291 32.94 70.3031 34.026 69.4511 34.902C68.6111 35.778 67.5011 36.216 66.1211 36.216C64.7411 36.216 63.6311 35.778 62.7911 34.902C61.9511 34.026 61.5311 32.94 61.5311 31.644ZM68.3531 31.644C68.3531 30.924 68.1491 30.324 67.7411 29.844C67.3331 29.364 66.7931 29.124 66.1211 29.124C65.4491 29.124 64.9091 29.364 64.5011 29.844C64.1051 30.312 63.9071 30.912 63.9071 31.644C63.9071 32.376 64.1051 32.982 64.5011 33.462C64.9091 33.942 65.4491 34.182 66.1211 34.182C66.7931 34.182 67.3331 33.942 67.7411 33.462C68.1491 32.982 68.3531 32.376 68.3531 31.644ZM71.867 31.644C71.867 30.36 72.287 29.28 73.127 28.404C73.979 27.528 75.089 27.09 76.457 27.09C77.837 27.09 78.947 27.528 79.787 28.404C80.639 29.28 81.065 30.36 81.065 31.644C81.065 32.94 80.639 34.026 79.787 34.902C78.947 35.778 77.837 36.216 76.457 36.216C75.077 36.216 73.967 35.778 73.127 34.902C72.287 34.026 71.867 32.94 71.867 31.644ZM78.689 31.644C78.689 30.924 78.485 30.324 78.077 29.844C77.669 29.364 77.129 29.124 76.457 29.124C75.785 29.124 75.245 29.364 74.837 29.844C74.441 30.312 74.243 30.912 74.243 31.644C74.243 32.376 74.441 32.982 74.837 33.462C75.245 33.942 75.785 34.182 76.457 34.182C77.129 34.182 77.669 33.942 78.077 33.462C78.485 32.982 78.689 32.376 78.689 31.644ZM91.023 28.332V35.406C91.023 36.894 90.561 37.956 89.637 38.592C88.725 39.216 87.621 39.528 86.325 39.528C85.149 39.528 84.129 39.258 83.265 38.718C82.953 38.538 82.797 38.268 82.797 37.908C82.797 37.644 82.887 37.416 83.067 37.224C83.259 37.044 83.487 36.954 83.751 36.954C83.907 36.954 84.069 37.002 84.237 37.098C84.801 37.47 85.497 37.656 86.325 37.656C87.021 37.656 87.591 37.476 88.035 37.116C88.491 36.756 88.719 36.204 88.719 35.46V34.596C87.975 35.496 87.081 35.946 86.037 35.946C84.897 35.946 83.973 35.556 83.265 34.776C82.557 33.984 82.203 32.898 82.203 31.518C82.203 30.15 82.557 29.07 83.265 28.278C83.973 27.486 84.897 27.09 86.037 27.09C87.117 27.09 88.011 27.534 88.719 28.422V28.278C88.719 27.978 88.833 27.72 89.061 27.504C89.301 27.288 89.577 27.18 89.889 27.18C90.201 27.18 90.465 27.294 90.681 27.522C90.909 27.75 91.023 28.02 91.023 28.332ZM88.719 32.922V30.114C88.527 29.826 88.245 29.592 87.873 29.412C87.513 29.22 87.141 29.124 86.757 29.124C86.097 29.124 85.563 29.346 85.155 29.79C84.759 30.222 84.561 30.798 84.561 31.518C84.561 32.238 84.759 32.82 85.155 33.264C85.563 33.696 86.097 33.912 86.757 33.912C87.129 33.912 87.501 33.816 87.873 33.624C88.245 33.432 88.527 33.198 88.719 32.922ZM93.2903 34.974V25.02C93.2903 24.708 93.3983 24.438 93.6143 24.21C93.8423 23.982 94.1183 23.868 94.4423 23.868C94.7543 23.868 95.0183 23.982 95.2343 24.21C95.4623 24.438 95.5763 24.708 95.5763 25.02V34.974C95.5763 35.286 95.4623 35.556 95.2343 35.784C95.0183 36.012 94.7543 36.126 94.4423 36.126C94.1183 36.126 93.8423 36.012 93.6143 35.784C93.3983 35.556 93.2903 35.286 93.2903 34.974ZM101.785 27.09C103.033 27.09 104.071 27.504 104.899 28.332C105.727 29.148 106.141 30.138 106.141 31.302C106.141 32.022 105.691 32.382 104.791 32.382H99.679C99.751 32.97 100.009 33.456 100.453 33.84C100.909 34.212 101.485 34.398 102.181 34.398C102.781 34.398 103.369 34.236 103.945 33.912C104.065 33.84 104.209 33.804 104.377 33.804C104.617 33.804 104.827 33.894 105.007 34.074C105.187 34.254 105.277 34.464 105.277 34.704C105.277 35.052 105.115 35.316 104.791 35.496C103.951 35.976 102.997 36.216 101.929 36.216C100.585 36.216 99.475 35.796 98.599 34.956C97.723 34.104 97.285 33 97.285 31.644C97.285 30.372 97.711 29.298 98.563 28.422C99.415 27.534 100.489 27.09 101.785 27.09ZM99.643 30.834H103.927C103.891 30.294 103.687 29.838 103.315 29.466C102.943 29.094 102.433 28.908 101.785 28.908C101.173 28.908 100.681 29.094 100.309 29.466C99.937 29.838 99.715 30.294 99.643 30.834ZM112.452 34.848V25.344C112.452 24.912 112.566 24.582 112.794 24.354C113.034 24.114 113.37 23.994 113.802 23.994H118.068C119.304 23.994 120.282 24.366 121.002 25.11C121.734 25.842 122.1 26.76 122.1 27.864C122.1 28.956 121.734 29.868 121.002 30.6C120.282 31.332 119.304 31.698 118.068 31.698H115.008V34.848C115.008 35.196 114.882 35.496 114.63 35.748C114.39 36 114.096 36.126 113.748 36.126C113.388 36.126 113.082 36 112.83 35.748C112.578 35.496 112.452 35.196 112.452 34.848ZM117.726 26.19H115.008V29.502H117.726C118.242 29.502 118.662 29.352 118.986 29.052C119.322 28.74 119.49 28.338 119.49 27.846C119.49 27.354 119.322 26.958 118.986 26.658C118.65 26.346 118.23 26.19 117.726 26.19ZM123.63 34.974V25.02C123.63 24.708 123.738 24.438 123.954 24.21C124.182 23.982 124.458 23.868 124.782 23.868C125.094 23.868 125.358 23.982 125.574 24.21C125.802 24.438 125.916 24.708 125.916 25.02V34.974C125.916 35.286 125.802 35.556 125.574 35.784C125.358 36.012 125.094 36.126 124.782 36.126C124.458 36.126 124.182 36.012 123.954 35.784C123.738 35.556 123.63 35.286 123.63 34.974ZM135.689 30.384V34.938C135.689 35.262 135.575 35.544 135.347 35.784C135.131 36.012 134.861 36.126 134.537 36.126C134.249 36.126 133.991 36.03 133.763 35.838C133.547 35.646 133.421 35.4 133.385 35.1C132.773 35.844 131.861 36.216 130.649 36.216C129.857 36.216 129.155 35.958 128.543 35.442C127.931 34.926 127.625 34.224 127.625 33.336C127.625 32.436 127.925 31.752 128.525 31.284C129.125 30.804 129.833 30.564 130.649 30.564C131.909 30.564 132.827 30.918 133.403 31.626V30.42C133.403 29.976 133.229 29.622 132.881 29.358C132.533 29.094 132.071 28.962 131.495 28.962C130.835 28.962 130.193 29.154 129.569 29.538C129.437 29.622 129.287 29.664 129.119 29.664C128.879 29.664 128.675 29.58 128.507 29.412C128.339 29.232 128.255 29.022 128.255 28.782C128.255 28.446 128.393 28.194 128.669 28.026C129.617 27.402 130.691 27.09 131.891 27.09C133.019 27.09 133.931 27.348 134.627 27.864C135.335 28.392 135.689 29.232 135.689 30.384ZM133.403 33.912V32.832C133.031 32.328 132.419 32.076 131.567 32.076C131.087 32.076 130.691 32.196 130.379 32.436C130.079 32.676 129.929 32.994 129.929 33.39C129.929 33.774 130.079 34.086 130.379 34.326C130.691 34.554 131.087 34.668 131.567 34.668C132.419 34.668 133.031 34.416 133.403 33.912ZM138.568 37.512L138.676 37.494C139.276 37.482 139.672 37.272 139.864 36.864L140.188 36.126L137.2 28.728C137.152 28.632 137.128 28.494 137.128 28.314C137.128 28.002 137.236 27.738 137.452 27.522C137.668 27.294 137.932 27.18 138.244 27.18C138.784 27.18 139.132 27.414 139.288 27.882L141.376 33.426L143.446 27.882C143.626 27.414 143.98 27.18 144.508 27.18C144.832 27.18 145.102 27.294 145.318 27.522C145.534 27.738 145.642 28.002 145.642 28.314C145.642 28.446 145.612 28.59 145.552 28.746L142.024 37.422C141.484 38.802 140.434 39.504 138.874 39.528C138.742 39.528 138.658 39.522 138.622 39.51C138.322 39.498 138.076 39.396 137.884 39.204C137.692 39.012 137.596 38.772 137.596 38.484C137.596 38.208 137.692 37.98 137.884 37.8C138.076 37.62 138.304 37.524 138.568 37.512Z" fill="#181824"/>
<path opacity="0.9" d="M49.464 18H51.672C54.156 18 55.776 16.284 55.776 14.004C55.776 11.736 54.156 9.996 51.672 9.996H49.464C49.128 9.996 48.936 10.188 48.936 10.524V17.472C48.936 17.808 49.128 18 49.464 18ZM49.932 17.112V10.884H51.672C53.652 10.884 54.744 12.276 54.744 14.004C54.744 15.72 53.616 17.112 51.672 17.112H49.932ZM59.8343 18.144C61.5983 18.144 62.7023 16.776 62.7023 15.096C62.7023 13.416 61.5983 12.06 59.8343 12.06C58.0703 12.06 56.9663 13.416 56.9663 15.096C56.9663 16.776 58.0703 18.144 59.8343 18.144ZM59.8343 17.34C58.5983 17.34 57.9023 16.284 57.9023 15.096C57.9023 13.92 58.5983 12.864 59.8343 12.864C61.0703 12.864 61.7543 13.92 61.7543 15.096C61.7543 16.284 61.0703 17.34 59.8343 17.34ZM69.6295 18.048C69.8935 18.048 70.1335 17.88 70.2055 17.628L71.7655 12.756C71.7775 12.72 71.7895 12.648 71.7895 12.6C71.7895 12.36 71.5855 12.156 71.3455 12.156C71.1415 12.156 70.9615 12.288 70.9135 12.468L69.5815 16.824L68.1655 12.504C68.0935 12.288 67.9015 12.156 67.6735 12.156C67.4455 12.156 67.2535 12.288 67.1815 12.504L65.7655 16.824L64.4335 12.468C64.3855 12.288 64.2055 12.156 64.0015 12.156C63.7615 12.156 63.5575 12.348 63.5575 12.6C63.5575 12.648 63.5695 12.696 63.5815 12.744L65.1415 17.628C65.2135 17.88 65.4535 18.048 65.7175 18.048C65.9815 18.048 66.2095 17.88 66.2815 17.628L67.6735 13.344L69.0655 17.628C69.1375 17.88 69.3655 18.048 69.6295 18.048ZM75.946 12.06C75.058 12.06 74.278 12.576 73.882 13.056V12.6C73.882 12.36 73.678 12.156 73.426 12.156C73.186 12.156 72.982 12.36 72.982 12.6V17.604C72.982 17.844 73.186 18.048 73.438 18.048C73.678 18.048 73.882 17.844 73.882 17.604V13.764C74.218 13.296 74.89 12.864 75.598 12.864C76.378 12.864 76.894 13.188 76.894 14.208V17.604C76.894 17.844 77.098 18.048 77.338 18.048C77.59 18.048 77.794 17.844 77.794 17.604V13.932C77.794 12.672 77.158 12.06 75.946 12.06ZM80.0474 18.048C80.2874 18.048 80.4914 17.844 80.4914 17.604V10.392C80.4914 10.152 80.2874 9.948 80.0474 9.948C79.7954 9.948 79.5914 10.152 79.5914 10.392V17.604C79.5914 17.844 79.7954 18.048 80.0474 18.048ZM84.8187 18.144C86.5827 18.144 87.6867 16.776 87.6867 15.096C87.6867 13.416 86.5827 12.06 84.8187 12.06C83.0547 12.06 81.9507 13.416 81.9507 15.096C81.9507 16.776 83.0547 18.144 84.8187 18.144ZM84.8187 17.34C83.5827 17.34 82.8867 16.284 82.8867 15.096C82.8867 13.92 83.5827 12.864 84.8187 12.864C86.0547 12.864 86.7387 13.92 86.7387 15.096C86.7387 16.284 86.0547 17.34 84.8187 17.34ZM91.4339 12.06C90.6059 12.06 89.9339 12.3 89.3459 12.816C89.2619 12.876 89.1899 12.996 89.1899 13.116C89.1899 13.32 89.3579 13.488 89.5619 13.488C89.6579 13.488 89.7419 13.452 89.8019 13.416C90.2579 13.008 90.7379 12.84 91.3139 12.84C92.1539 12.84 92.7779 13.284 92.7779 14.064V15.108C92.3099 14.568 91.6499 14.316 90.8579 14.316C89.8739 14.316 88.8299 14.928 88.8299 16.224C88.8299 17.484 89.8739 18.144 90.8579 18.144C91.6499 18.144 92.3219 17.868 92.7779 17.34V17.604C92.7779 17.844 92.9819 18.048 93.2219 18.048C93.4739 18.048 93.6779 17.844 93.6779 17.604V14.016C93.6779 12.612 92.6579 12.06 91.4339 12.06ZM91.1819 17.496C90.3419 17.496 89.7539 16.968 89.7539 16.236C89.7539 15.492 90.3419 14.964 91.1819 14.964C91.8179 14.964 92.4299 15.204 92.7779 15.684V16.776C92.4299 17.256 91.8179 17.496 91.1819 17.496ZM100.126 9.948C99.886 9.948 99.682 10.152 99.682 10.392V13.092C99.202 12.444 98.506 12.06 97.726 12.06C96.202 12.06 95.146 13.26 95.146 15.108C95.146 16.992 96.214 18.144 97.726 18.144C98.542 18.144 99.25 17.724 99.682 17.136V17.604C99.682 17.844 99.886 18.048 100.126 18.048C100.378 18.048 100.582 17.844 100.582 17.604V10.392C100.582 10.152 100.378 9.948 100.126 9.948ZM97.942 17.34C96.778 17.34 96.082 16.392 96.082 15.108C96.082 13.824 96.778 12.864 97.942 12.864C98.662 12.864 99.358 13.296 99.682 13.8V16.428C99.358 16.932 98.662 17.34 97.942 17.34ZM108.01 18.144C109.774 18.144 110.878 16.776 110.878 15.096C110.878 13.416 109.774 12.06 108.01 12.06C106.246 12.06 105.142 13.416 105.142 15.096C105.142 16.776 106.246 18.144 108.01 18.144ZM108.01 17.34C106.774 17.34 106.078 16.284 106.078 15.096C106.078 13.92 106.774 12.864 108.01 12.864C109.246 12.864 109.93 13.92 109.93 15.096C109.93 16.284 109.246 17.34 108.01 17.34ZM115.309 12.06C114.421 12.06 113.641 12.576 113.245 13.056V12.6C113.245 12.36 113.041 12.156 112.789 12.156C112.549 12.156 112.345 12.36 112.345 12.6V17.604C112.345 17.844 112.549 18.048 112.801 18.048C113.041 18.048 113.245 17.844 113.245 17.604V13.764C113.581 13.296 114.253 12.864 114.961 12.864C115.741 12.864 116.257 13.188 116.257 14.208V17.604C116.257 17.844 116.461 18.048 116.701 18.048C116.953 18.048 117.157 17.844 117.157 17.604V13.932C117.157 12.672 116.521 12.06 115.309 12.06Z" fill="#181824"/>
<path d="M26.9205 24.3349L13.2372 37.5623C12.5965 37.1227 12.216 36.3915 12.2227 35.6124V13.0574C12.216 12.2783 12.5965 11.547 13.2372 11.1074L26.9205 24.3349Z" fill="#2196F3"/>
<path d="M31.7055 19.7174L26.9176 24.3377L13.2344 11.1103C13.2859 11.0702 13.3396 11.0328 13.3952 10.9985C14.1184 10.5585 15.0217 10.5443 15.7582 10.9612L31.7055 19.7174Z" fill="#4CAF50"/>
<path d="M37.5122 24.3361C37.5211 25.2156 37.045 26.028 36.275 26.4476L31.7098 28.9564L26.9219 24.3361L31.7098 19.7158L36.275 22.2247C37.045 22.6442 37.5211 23.4566 37.5122 24.3361Z" fill="#FFC107"/>
<path d="M31.7055 28.9553L15.7582 37.7115C15.02 38.122 14.1202 38.1078 13.3952 37.6742C13.3396 37.6399 13.2859 37.6026 13.2344 37.5624L26.9177 24.335L31.7055 28.9553Z" fill="#F44336"/>
</svg>
