<svg width="155" height="48" viewBox="0 0 155 48" fill="none" xmlns="http://www.w3.org/2000/svg">
<rect opacity="0.06" width="155" height="48" rx="8" fill="#813589"/>
<g clip-path="url(#clip0_4490_58316)">
<path d="M20.1988 37.1362C16.1435 37.1127 12.7891 28.8022 12.7891 24.5698C12.7891 17.6562 17.9552 16.1426 19.9463 16.1426C20.8435 16.1426 21.8016 16.4964 22.6467 16.8094C23.2376 17.0278 23.8488 17.2532 24.1887 17.2532C24.3921 17.2532 24.8716 17.0614 25.2949 16.8932C26.1976 16.5324 27.321 16.084 28.6291 16.084C28.6314 16.084 28.6345 16.084 28.6368 16.084C29.6136 16.084 32.5752 16.2992 34.3557 18.9835L34.7728 19.6127L34.1726 20.0674C33.3151 20.717 31.7504 21.9019 31.7504 24.249C31.7504 27.0288 33.5224 28.0978 34.3737 28.612C34.7495 28.839 35.1384 29.073 35.1384 29.5848C35.1384 29.919 32.4817 37.0947 28.6236 37.0947C27.6795 37.0947 27.0122 36.8098 26.4236 36.5586C25.8281 36.3043 25.3143 36.0852 24.4654 36.0852C24.035 36.0852 23.4909 36.2894 22.9148 36.5062C22.1275 36.8012 21.2364 37.1362 20.2253 37.1362H20.1988Z" fill="#181824"/>
<path d="M29.037 9.77734C29.1375 13.4144 26.5465 15.9376 23.9586 15.7794C23.5322 12.8769 26.5462 9.77734 29.037 9.77734Z" fill="#181824"/>
</g>
<path d="M59.808 34.83C59.808 35.19 59.676 35.496 59.412 35.748C59.16 36 58.854 36.126 58.494 36.126C58.218 36.126 57.966 36.048 57.738 35.892C57.522 35.724 57.372 35.514 57.288 35.262L56.802 33.858H51.402L50.916 35.262C50.832 35.514 50.676 35.724 50.448 35.892C50.22 36.048 49.968 36.126 49.692 36.126C49.332 36.126 49.026 36 48.774 35.748C48.522 35.496 48.396 35.19 48.396 34.83C48.396 34.746 48.426 34.596 48.486 34.38L51.996 25.308C52.164 24.876 52.44 24.528 52.824 24.264C53.208 24 53.634 23.868 54.102 23.868C54.57 23.868 54.996 24 55.38 24.264C55.764 24.528 56.04 24.876 56.208 25.308L59.7 34.38C59.772 34.548 59.808 34.698 59.808 34.83ZM52.194 31.644H56.01L54.102 26.208L52.194 31.644ZM69.0732 28.314C69.7932 29.13 70.1532 30.24 70.1532 31.644C70.1532 33.048 69.7932 34.164 69.0732 34.992C68.3652 35.808 67.4412 36.216 66.3012 36.216C65.2212 36.216 64.3272 35.772 63.6192 34.884V38.286C63.6192 38.598 63.5052 38.868 63.2772 39.096C63.0612 39.324 62.7972 39.438 62.4852 39.438C62.1612 39.438 61.8852 39.324 61.6572 39.096C61.4412 38.868 61.3332 38.598 61.3332 38.286V28.332C61.3332 28.008 61.4412 27.732 61.6572 27.504C61.8852 27.264 62.1612 27.144 62.4852 27.144C62.7972 27.144 63.0672 27.264 63.2952 27.504C63.5232 27.732 63.6372 28.008 63.6372 28.332V28.386C64.3212 27.522 65.2092 27.09 66.3012 27.09C67.4412 27.09 68.3652 27.498 69.0732 28.314ZM67.7772 31.644C67.7772 30.9 67.5732 30.294 67.1652 29.826C66.7692 29.358 66.2412 29.124 65.5812 29.124C65.2092 29.124 64.8372 29.22 64.4652 29.412C64.0932 29.604 63.8112 29.838 63.6192 30.114V33.192C63.8112 33.468 64.0932 33.702 64.4652 33.894C64.8492 34.086 65.2212 34.182 65.5812 34.182C66.2412 34.182 66.7692 33.948 67.1652 33.48C67.5732 33.012 67.7772 32.4 67.7772 31.644ZM79.6025 28.314C80.3225 29.13 80.6825 30.24 80.6825 31.644C80.6825 33.048 80.3225 34.164 79.6025 34.992C78.8945 35.808 77.9705 36.216 76.8305 36.216C75.7505 36.216 74.8565 35.772 74.1485 34.884V38.286C74.1485 38.598 74.0345 38.868 73.8065 39.096C73.5905 39.324 73.3265 39.438 73.0145 39.438C72.6905 39.438 72.4145 39.324 72.1865 39.096C71.9705 38.868 71.8625 38.598 71.8625 38.286V28.332C71.8625 28.008 71.9705 27.732 72.1865 27.504C72.4145 27.264 72.6905 27.144 73.0145 27.144C73.3265 27.144 73.5965 27.264 73.8245 27.504C74.0525 27.732 74.1665 28.008 74.1665 28.332V28.386C74.8505 27.522 75.7385 27.09 76.8305 27.09C77.9705 27.09 78.8945 27.498 79.6025 28.314ZM78.3065 31.644C78.3065 30.9 78.1025 30.294 77.6945 29.826C77.2985 29.358 76.7705 29.124 76.1105 29.124C75.7385 29.124 75.3665 29.22 74.9945 29.412C74.6225 29.604 74.3405 29.838 74.1485 30.114V33.192C74.3405 33.468 74.6225 33.702 74.9945 33.894C75.3785 34.086 75.7505 34.182 76.1105 34.182C76.7705 34.182 77.2985 33.948 77.6945 33.48C78.1025 33.012 78.3065 32.4 78.3065 31.644ZM86.5473 34.02C86.5473 33.684 86.6613 33.402 86.8893 33.174C87.1293 32.934 87.4113 32.814 87.7353 32.814C87.9993 32.814 88.2273 32.886 88.4193 33.03C89.3433 33.666 90.3513 33.984 91.4433 33.984C92.0793 33.984 92.5833 33.858 92.9553 33.606C93.3393 33.342 93.5313 33.018 93.5313 32.634C93.5313 32.25 93.3453 31.95 92.9733 31.734C92.6013 31.518 91.9773 31.308 91.1013 31.104C90.1773 30.888 89.4153 30.672 88.8153 30.456C88.1673 30.216 87.6393 29.844 87.2313 29.34C86.8233 28.836 86.6193 28.2 86.6193 27.432C86.6193 26.388 87.0453 25.524 87.8973 24.84C88.7613 24.156 89.9133 23.814 91.3533 23.814C92.7093 23.814 93.9513 24.144 95.0793 24.804C95.4753 25.02 95.6733 25.356 95.6733 25.812C95.6733 26.136 95.5533 26.418 95.3133 26.658C95.0853 26.886 94.8153 27 94.5033 27C94.2633 27 94.0593 26.94 93.8913 26.82C92.9793 26.304 92.0733 26.046 91.1733 26.046C90.5373 26.046 90.0513 26.154 89.7153 26.37C89.3913 26.586 89.2293 26.886 89.2293 27.27C89.2293 27.618 89.3973 27.882 89.7333 28.062C90.0693 28.23 90.6993 28.428 91.6233 28.656C92.4753 28.836 93.2313 29.058 93.8913 29.322C95.3793 29.874 96.1233 30.888 96.1233 32.364C96.1233 33.54 95.7033 34.476 94.8633 35.172C94.0233 35.868 92.8413 36.216 91.3173 36.216C89.6373 36.216 88.2273 35.814 87.0873 35.01C86.7273 34.782 86.5473 34.452 86.5473 34.02ZM102.385 35.136C102.385 35.592 102.157 35.892 101.701 36.036C101.377 36.156 100.981 36.216 100.513 36.216C99.7089 36.216 99.0969 36.012 98.6769 35.604C98.2569 35.196 98.0469 34.608 98.0469 33.84V29.304H97.4889C97.2129 29.304 96.9729 29.208 96.7689 29.016C96.5769 28.824 96.4809 28.59 96.4809 28.314C96.4809 28.038 96.5769 27.804 96.7689 27.612C96.9729 27.408 97.2129 27.306 97.4889 27.306H98.0469V25.956C98.0469 25.644 98.1609 25.374 98.3889 25.146C98.6169 24.918 98.8929 24.804 99.2169 24.804C99.5289 24.804 99.7929 24.918 100.009 25.146C100.237 25.374 100.351 25.644 100.351 25.956V27.306H101.251C101.527 27.306 101.761 27.408 101.953 27.612C102.145 27.804 102.241 28.038 102.241 28.314C102.241 28.578 102.145 28.812 101.953 29.016C101.761 29.208 101.527 29.304 101.251 29.304H100.351V33.228C100.351 33.516 100.417 33.75 100.549 33.93C100.693 34.098 100.885 34.182 101.125 34.182C101.185 34.182 101.257 34.176 101.341 34.164C101.425 34.152 101.479 34.146 101.503 34.146C101.767 34.158 101.977 34.26 102.133 34.452C102.301 34.632 102.385 34.86 102.385 35.136ZM103.121 31.644C103.121 30.36 103.541 29.28 104.381 28.404C105.233 27.528 106.343 27.09 107.711 27.09C109.091 27.09 110.201 27.528 111.041 28.404C111.893 29.28 112.319 30.36 112.319 31.644C112.319 32.94 111.893 34.026 111.041 34.902C110.201 35.778 109.091 36.216 107.711 36.216C106.331 36.216 105.221 35.778 104.381 34.902C103.541 34.026 103.121 32.94 103.121 31.644ZM109.943 31.644C109.943 30.924 109.739 30.324 109.331 29.844C108.923 29.364 108.383 29.124 107.711 29.124C107.039 29.124 106.499 29.364 106.091 29.844C105.695 30.312 105.497 30.912 105.497 31.644C105.497 32.376 105.695 32.982 106.091 33.462C106.499 33.942 107.039 34.182 107.711 34.182C108.383 34.182 108.923 33.942 109.331 33.462C109.739 32.982 109.943 32.376 109.943 31.644ZM118.983 27.432C119.163 27.624 119.253 27.87 119.253 28.17C119.253 28.47 119.157 28.722 118.965 28.926C118.773 29.13 118.509 29.256 118.173 29.304C117.825 29.34 117.465 29.448 117.093 29.628C116.733 29.808 116.469 30.018 116.301 30.258V34.974C116.301 35.286 116.187 35.556 115.959 35.784C115.743 36.012 115.479 36.126 115.167 36.126C114.843 36.126 114.567 36.012 114.339 35.784C114.123 35.556 114.015 35.286 114.015 34.974V28.35C114.015 28.026 114.123 27.75 114.339 27.522C114.567 27.294 114.837 27.18 115.149 27.18C115.473 27.18 115.749 27.294 115.977 27.522C116.205 27.738 116.319 28.008 116.319 28.332L116.301 28.494C116.757 27.882 117.231 27.48 117.723 27.288C117.975 27.192 118.167 27.144 118.299 27.144C118.587 27.144 118.815 27.24 118.983 27.432ZM124.443 27.09C125.691 27.09 126.729 27.504 127.557 28.332C128.385 29.148 128.799 30.138 128.799 31.302C128.799 32.022 128.349 32.382 127.449 32.382H122.337C122.409 32.97 122.667 33.456 123.111 33.84C123.567 34.212 124.143 34.398 124.839 34.398C125.439 34.398 126.027 34.236 126.603 33.912C126.723 33.84 126.867 33.804 127.035 33.804C127.275 33.804 127.485 33.894 127.665 34.074C127.845 34.254 127.935 34.464 127.935 34.704C127.935 35.052 127.773 35.316 127.449 35.496C126.609 35.976 125.655 36.216 124.587 36.216C123.243 36.216 122.133 35.796 121.257 34.956C120.381 34.104 119.943 33 119.943 31.644C119.943 30.372 120.369 29.298 121.221 28.422C122.073 27.534 123.147 27.09 124.443 27.09ZM122.301 30.834H126.585C126.549 30.294 126.345 29.838 125.973 29.466C125.601 29.094 125.091 28.908 124.443 28.908C123.831 28.908 123.339 29.094 122.967 29.466C122.595 29.838 122.373 30.294 122.301 30.834Z" fill="#181824"/>
<path opacity="0.9" d="M48.936 17.472V10.524C48.936 10.172 49.112 9.996 49.464 9.996H51.672C52.872 9.98 53.86 10.36 54.636 11.136C55.412 11.912 55.792 12.868 55.776 14.004C55.792 15.14 55.412 16.092 54.636 16.86C53.86 17.628 52.872 18.008 51.672 18H49.464C49.112 18 48.936 17.824 48.936 17.472ZM49.932 17.112H51.672C52.6 17.112 53.344 16.816 53.904 16.224C54.464 15.632 54.744 14.892 54.744 14.004C54.744 13.1 54.468 12.356 53.916 11.772C53.364 11.18 52.616 10.884 51.672 10.884H49.932V17.112ZM57.7583 17.268C57.2303 16.684 56.9663 15.96 56.9663 15.096C56.9663 14.232 57.2303 13.512 57.7583 12.936C58.2943 12.352 58.9863 12.06 59.8343 12.06C60.6823 12.06 61.3703 12.352 61.8983 12.936C62.4343 13.512 62.7023 14.232 62.7023 15.096C62.7023 15.96 62.4343 16.684 61.8983 17.268C61.3703 17.852 60.6823 18.144 59.8343 18.144C58.9863 18.144 58.2943 17.852 57.7583 17.268ZM61.7543 15.096C61.7543 14.472 61.5783 13.944 61.2263 13.512C60.8823 13.08 60.4183 12.864 59.8343 12.864C59.2503 12.864 58.7823 13.08 58.4303 13.512C58.0783 13.944 57.9023 14.472 57.9023 15.096C57.9023 15.728 58.0783 16.26 58.4303 16.692C58.7823 17.124 59.2503 17.34 59.8343 17.34C60.4183 17.34 60.8823 17.124 61.2263 16.692C61.5783 16.26 61.7543 15.728 61.7543 15.096ZM69.0655 17.628L67.6735 13.344L66.2815 17.628C66.2495 17.756 66.1815 17.86 66.0775 17.94C65.9735 18.012 65.8535 18.048 65.7175 18.048C65.5815 18.048 65.4575 18.012 65.3455 17.94C65.2415 17.86 65.1735 17.756 65.1415 17.628L63.5815 12.744C63.5655 12.664 63.5575 12.616 63.5575 12.6C63.5575 12.472 63.6015 12.368 63.6895 12.288C63.7775 12.2 63.8815 12.156 64.0015 12.156C64.2335 12.156 64.3775 12.26 64.4335 12.468L65.7655 16.824L67.1815 12.504C67.2535 12.272 67.4175 12.156 67.6735 12.156C67.9295 12.156 68.0935 12.272 68.1655 12.504L69.5815 16.824L70.9135 12.468C70.9695 12.26 71.1135 12.156 71.3455 12.156C71.4655 12.156 71.5695 12.2 71.6575 12.288C71.7455 12.376 71.7895 12.48 71.7895 12.6C71.7895 12.64 71.7815 12.692 71.7655 12.756L70.2055 17.628C70.1735 17.756 70.1015 17.86 69.9895 17.94C69.8855 18.012 69.7655 18.048 69.6295 18.048C69.4935 18.048 69.3735 18.012 69.2695 17.94C69.1655 17.86 69.0975 17.756 69.0655 17.628ZM77.794 13.932V17.604C77.794 17.724 77.75 17.828 77.662 17.916C77.574 18.004 77.466 18.048 77.338 18.048C77.218 18.048 77.114 18.004 77.026 17.916C76.938 17.828 76.894 17.724 76.894 17.604V14.208C76.894 13.736 76.786 13.396 76.57 13.188C76.354 12.972 76.03 12.864 75.598 12.864C75.27 12.864 74.946 12.952 74.626 13.128C74.306 13.296 74.058 13.508 73.882 13.764V17.604C73.882 17.724 73.838 17.828 73.75 17.916C73.662 18.004 73.558 18.048 73.438 18.048C73.31 18.048 73.202 18.004 73.114 17.916C73.026 17.828 72.982 17.724 72.982 17.604V12.6C72.982 12.48 73.026 12.376 73.114 12.288C73.202 12.2 73.306 12.156 73.426 12.156C73.554 12.156 73.662 12.2 73.75 12.288C73.838 12.376 73.882 12.48 73.882 12.6V13.056C74.114 12.768 74.414 12.532 74.782 12.348C75.158 12.156 75.546 12.06 75.946 12.06C77.178 12.06 77.794 12.684 77.794 13.932ZM79.5914 17.604V10.392C79.5914 10.272 79.6354 10.168 79.7234 10.08C79.8114 9.992 79.9194 9.948 80.0474 9.948C80.1674 9.948 80.2714 9.992 80.3594 10.08C80.4474 10.168 80.4914 10.272 80.4914 10.392V17.604C80.4914 17.724 80.4474 17.828 80.3594 17.916C80.2714 18.004 80.1674 18.048 80.0474 18.048C79.9194 18.048 79.8114 18.004 79.7234 17.916C79.6354 17.828 79.5914 17.724 79.5914 17.604ZM82.7427 17.268C82.2147 16.684 81.9507 15.96 81.9507 15.096C81.9507 14.232 82.2147 13.512 82.7427 12.936C83.2787 12.352 83.9707 12.06 84.8187 12.06C85.6667 12.06 86.3547 12.352 86.8827 12.936C87.4187 13.512 87.6867 14.232 87.6867 15.096C87.6867 15.96 87.4187 16.684 86.8827 17.268C86.3547 17.852 85.6667 18.144 84.8187 18.144C83.9707 18.144 83.2787 17.852 82.7427 17.268ZM86.7387 15.096C86.7387 14.472 86.5627 13.944 86.2107 13.512C85.8667 13.08 85.4027 12.864 84.8187 12.864C84.2347 12.864 83.7667 13.08 83.4147 13.512C83.0627 13.944 82.8867 14.472 82.8867 15.096C82.8867 15.728 83.0627 16.26 83.4147 16.692C83.7667 17.124 84.2347 17.34 84.8187 17.34C85.4027 17.34 85.8667 17.124 86.2107 16.692C86.5627 16.26 86.7387 15.728 86.7387 15.096ZM93.6779 14.016V17.604C93.6779 17.724 93.6339 17.828 93.5459 17.916C93.4579 18.004 93.3499 18.048 93.2219 18.048C93.1019 18.048 92.9979 18.004 92.9099 17.916C92.8219 17.828 92.7779 17.724 92.7779 17.604V17.34C92.3299 17.876 91.6899 18.144 90.8579 18.144C90.3139 18.144 89.8379 17.972 89.4299 17.628C89.0299 17.276 88.8299 16.808 88.8299 16.224C88.8299 15.64 89.0299 15.176 89.4299 14.832C89.8379 14.488 90.3139 14.316 90.8579 14.316C91.6819 14.316 92.3219 14.58 92.7779 15.108V14.064C92.7779 13.688 92.6419 13.392 92.3699 13.176C92.1059 12.952 91.7539 12.84 91.3139 12.84C90.7379 12.84 90.2339 13.032 89.8019 13.416C89.7219 13.464 89.6419 13.488 89.5619 13.488C89.4579 13.488 89.3699 13.452 89.2979 13.38C89.2259 13.308 89.1899 13.22 89.1899 13.116C89.1899 12.988 89.2419 12.888 89.3459 12.816C89.9219 12.312 90.6179 12.06 91.4339 12.06C92.1219 12.06 92.6659 12.224 93.0659 12.552C93.4739 12.88 93.6779 13.368 93.6779 14.016ZM92.7779 16.776V15.684C92.4339 15.204 91.9019 14.964 91.1819 14.964C90.7659 14.964 90.4219 15.084 90.1499 15.324C89.8859 15.556 89.7539 15.86 89.7539 16.236C89.7539 16.604 89.8859 16.908 90.1499 17.148C90.4219 17.38 90.7659 17.496 91.1819 17.496C91.9019 17.496 92.4339 17.256 92.7779 16.776ZM100.582 10.392V17.604C100.582 17.724 100.538 17.828 100.45 17.916C100.362 18.004 100.254 18.048 100.126 18.048C100.006 18.048 99.902 18.004 99.814 17.916C99.726 17.828 99.682 17.724 99.682 17.604V17.136C99.458 17.448 99.17 17.696 98.818 17.88C98.474 18.056 98.11 18.144 97.726 18.144C96.958 18.144 96.334 17.872 95.854 17.328C95.382 16.776 95.146 16.036 95.146 15.108C95.146 14.196 95.382 13.46 95.854 12.9C96.334 12.34 96.958 12.06 97.726 12.06C98.526 12.06 99.178 12.404 99.682 13.092V10.392C99.682 10.272 99.726 10.168 99.814 10.08C99.902 9.992 100.006 9.948 100.126 9.948C100.254 9.948 100.362 9.992 100.45 10.08C100.538 10.168 100.582 10.272 100.582 10.392ZM99.682 16.428V13.8C99.514 13.536 99.266 13.316 98.938 13.14C98.61 12.956 98.278 12.864 97.942 12.864C97.374 12.864 96.922 13.076 96.586 13.5C96.25 13.924 96.082 14.46 96.082 15.108C96.082 15.756 96.25 16.292 96.586 16.716C96.922 17.132 97.374 17.34 97.942 17.34C98.286 17.34 98.618 17.256 98.938 17.088C99.266 16.912 99.514 16.692 99.682 16.428ZM105.934 17.268C105.406 16.684 105.142 15.96 105.142 15.096C105.142 14.232 105.406 13.512 105.934 12.936C106.47 12.352 107.162 12.06 108.01 12.06C108.858 12.06 109.546 12.352 110.074 12.936C110.61 13.512 110.878 14.232 110.878 15.096C110.878 15.96 110.61 16.684 110.074 17.268C109.546 17.852 108.858 18.144 108.01 18.144C107.162 18.144 106.47 17.852 105.934 17.268ZM109.93 15.096C109.93 14.472 109.754 13.944 109.402 13.512C109.058 13.08 108.594 12.864 108.01 12.864C107.426 12.864 106.958 13.08 106.606 13.512C106.254 13.944 106.078 14.472 106.078 15.096C106.078 15.728 106.254 16.26 106.606 16.692C106.958 17.124 107.426 17.34 108.01 17.34C108.594 17.34 109.058 17.124 109.402 16.692C109.754 16.26 109.93 15.728 109.93 15.096ZM117.157 13.932V17.604C117.157 17.724 117.113 17.828 117.025 17.916C116.937 18.004 116.829 18.048 116.701 18.048C116.581 18.048 116.477 18.004 116.389 17.916C116.301 17.828 116.257 17.724 116.257 17.604V14.208C116.257 13.736 116.149 13.396 115.933 13.188C115.717 12.972 115.393 12.864 114.961 12.864C114.633 12.864 114.309 12.952 113.989 13.128C113.669 13.296 113.421 13.508 113.245 13.764V17.604C113.245 17.724 113.201 17.828 113.113 17.916C113.025 18.004 112.921 18.048 112.801 18.048C112.673 18.048 112.565 18.004 112.477 17.916C112.389 17.828 112.345 17.724 112.345 17.604V12.6C112.345 12.48 112.389 12.376 112.477 12.288C112.565 12.2 112.669 12.156 112.789 12.156C112.917 12.156 113.025 12.2 113.113 12.288C113.201 12.376 113.245 12.48 113.245 12.6V13.056C113.477 12.768 113.777 12.532 114.145 12.348C114.521 12.156 114.909 12.06 115.309 12.06C116.541 12.06 117.157 12.684 117.157 13.932ZM124.556 17.616C124.556 17.784 124.48 17.896 124.328 17.952C124.12 18.08 123.848 18.144 123.512 18.144C122.656 18.144 122.228 17.692 122.228 16.788V12.996H121.616C121.512 12.996 121.42 12.956 121.34 12.876C121.26 12.796 121.22 12.704 121.22 12.6C121.22 12.488 121.26 12.396 121.34 12.324C121.42 12.244 121.512 12.204 121.616 12.204H122.228V11.016C122.228 10.896 122.272 10.792 122.36 10.704C122.448 10.616 122.556 10.572 122.684 10.572C122.804 10.572 122.908 10.616 122.996 10.704C123.084 10.792 123.128 10.896 123.128 11.016V12.204H123.956C124.068 12.204 124.164 12.244 124.244 12.324C124.324 12.404 124.364 12.496 124.364 12.6C124.364 12.704 124.324 12.796 124.244 12.876C124.164 12.956 124.068 12.996 123.956 12.996H123.128V16.596C123.128 16.82 123.176 17 123.272 17.136C123.376 17.272 123.524 17.34 123.716 17.34C123.788 17.34 123.88 17.324 123.992 17.292C124.104 17.252 124.164 17.232 124.172 17.232C124.284 17.232 124.376 17.268 124.448 17.34C124.52 17.412 124.556 17.504 124.556 17.616ZM129.5 17.604V14.184C129.5 13.72 129.392 13.384 129.176 13.176C128.96 12.968 128.632 12.864 128.192 12.864C127.872 12.864 127.552 12.952 127.232 13.128C126.92 13.296 126.668 13.508 126.476 13.764V17.604C126.476 17.724 126.432 17.828 126.344 17.916C126.256 18.004 126.152 18.048 126.032 18.048C125.904 18.048 125.796 18.004 125.708 17.916C125.62 17.828 125.576 17.724 125.576 17.604V10.392C125.576 10.272 125.62 10.168 125.708 10.08C125.796 9.992 125.904 9.948 126.032 9.948C126.152 9.948 126.256 9.992 126.344 10.08C126.432 10.168 126.476 10.272 126.476 10.392V13.044C126.708 12.764 127.012 12.532 127.388 12.348C127.772 12.156 128.16 12.06 128.552 12.06C129.784 12.06 130.4 12.676 130.4 13.908V17.604C130.4 17.724 130.356 17.828 130.268 17.916C130.18 18.004 130.072 18.048 129.944 18.048C129.824 18.048 129.72 18.004 129.632 17.916C129.544 17.828 129.5 17.724 129.5 17.604ZM134.717 12.06C135.541 12.06 136.209 12.344 136.721 12.912C137.241 13.472 137.501 14.148 137.501 14.94C137.501 15.244 137.325 15.396 136.973 15.396H132.809C132.841 15.956 133.049 16.432 133.433 16.824C133.801 17.208 134.289 17.4 134.897 17.4C135.473 17.4 135.993 17.216 136.457 16.848C136.513 16.816 136.581 16.8 136.661 16.8C136.765 16.8 136.853 16.836 136.925 16.908C136.997 16.972 137.033 17.056 137.033 17.16C137.033 17.28 136.981 17.38 136.877 17.46C136.293 17.916 135.605 18.144 134.813 18.144C133.949 18.144 133.241 17.86 132.689 17.292C132.137 16.724 131.861 15.992 131.861 15.096C131.861 14.256 132.133 13.54 132.677 12.948C133.229 12.356 133.909 12.06 134.717 12.06ZM132.809 14.736H136.613C136.597 14.224 136.421 13.776 136.085 13.392C135.757 13 135.297 12.804 134.705 12.804C134.145 12.804 133.693 13 133.349 13.392C133.013 13.776 132.833 14.224 132.809 14.736Z" fill="#181824"/>
<defs>
<clipPath id="clip0_4490_58316">
<rect width="27.2479" height="27.3542" fill="white" transform="translate(10.3398 9.7832)"/>
</clipPath>
</defs>
</svg>
