<svg width="155" height="56" viewBox="0 0 155 56" fill="none" xmlns="http://www.w3.org/2000/svg">
<rect width="155" height="56" rx="8" fill="#130C30"/>
<g clip-path="url(#clip0_4490_58277)">
<path d="M20.1988 41.1362C16.1435 41.1127 12.7891 32.8022 12.7891 28.5698C12.7891 21.6562 17.9552 20.1426 19.9463 20.1426C20.8435 20.1426 21.8016 20.4964 22.6467 20.8094C23.2376 21.0278 23.8488 21.2532 24.1887 21.2532C24.3921 21.2532 24.8716 21.0614 25.2949 20.8932C26.1976 20.5324 27.321 20.084 28.6291 20.084C28.6314 20.084 28.6345 20.084 28.6368 20.084C29.6136 20.084 32.5752 20.2992 34.3557 22.9835L34.7728 23.6127L34.1726 24.0674C33.3151 24.717 31.7504 25.9019 31.7504 28.249C31.7504 31.0288 33.5224 32.0978 34.3737 32.612C34.7495 32.839 35.1384 33.073 35.1384 33.5848C35.1384 33.919 32.4817 41.0947 28.6236 41.0947C27.6795 41.0947 27.0122 40.8098 26.4236 40.5586C25.8281 40.3043 25.3143 40.0852 24.4654 40.0852C24.035 40.0852 23.4909 40.2894 22.9148 40.5062C22.1275 40.8012 21.2364 41.1362 20.2253 41.1362H20.1988Z" fill="white"/>
<path d="M29.037 13.7773C29.1375 17.4144 26.5465 19.9376 23.9586 19.7794C23.5322 16.8769 26.5462 13.7773 29.037 13.7773Z" fill="white"/>
</g>
<path d="M59.808 38.83C59.808 39.19 59.676 39.496 59.412 39.748C59.16 40 58.854 40.126 58.494 40.126C58.218 40.126 57.966 40.048 57.738 39.892C57.522 39.724 57.372 39.514 57.288 39.262L56.802 37.858H51.402L50.916 39.262C50.832 39.514 50.676 39.724 50.448 39.892C50.22 40.048 49.968 40.126 49.692 40.126C49.332 40.126 49.026 40 48.774 39.748C48.522 39.496 48.396 39.19 48.396 38.83C48.396 38.746 48.426 38.596 48.486 38.38L51.996 29.308C52.164 28.876 52.44 28.528 52.824 28.264C53.208 28 53.634 27.868 54.102 27.868C54.57 27.868 54.996 28 55.38 28.264C55.764 28.528 56.04 28.876 56.208 29.308L59.7 38.38C59.772 38.548 59.808 38.698 59.808 38.83ZM52.194 35.644H56.01L54.102 30.208L52.194 35.644ZM69.0732 32.314C69.7932 33.13 70.1532 34.24 70.1532 35.644C70.1532 37.048 69.7932 38.164 69.0732 38.992C68.3652 39.808 67.4412 40.216 66.3012 40.216C65.2212 40.216 64.3272 39.772 63.6192 38.884V42.286C63.6192 42.598 63.5052 42.868 63.2772 43.096C63.0612 43.324 62.7972 43.438 62.4852 43.438C62.1612 43.438 61.8852 43.324 61.6572 43.096C61.4412 42.868 61.3332 42.598 61.3332 42.286V32.332C61.3332 32.008 61.4412 31.732 61.6572 31.504C61.8852 31.264 62.1612 31.144 62.4852 31.144C62.7972 31.144 63.0672 31.264 63.2952 31.504C63.5232 31.732 63.6372 32.008 63.6372 32.332V32.386C64.3212 31.522 65.2092 31.09 66.3012 31.09C67.4412 31.09 68.3652 31.498 69.0732 32.314ZM67.7772 35.644C67.7772 34.9 67.5732 34.294 67.1652 33.826C66.7692 33.358 66.2412 33.124 65.5812 33.124C65.2092 33.124 64.8372 33.22 64.4652 33.412C64.0932 33.604 63.8112 33.838 63.6192 34.114V37.192C63.8112 37.468 64.0932 37.702 64.4652 37.894C64.8492 38.086 65.2212 38.182 65.5812 38.182C66.2412 38.182 66.7692 37.948 67.1652 37.48C67.5732 37.012 67.7772 36.4 67.7772 35.644ZM79.6025 32.314C80.3225 33.13 80.6825 34.24 80.6825 35.644C80.6825 37.048 80.3225 38.164 79.6025 38.992C78.8945 39.808 77.9705 40.216 76.8305 40.216C75.7505 40.216 74.8565 39.772 74.1485 38.884V42.286C74.1485 42.598 74.0345 42.868 73.8065 43.096C73.5905 43.324 73.3265 43.438 73.0145 43.438C72.6905 43.438 72.4145 43.324 72.1865 43.096C71.9705 42.868 71.8625 42.598 71.8625 42.286V32.332C71.8625 32.008 71.9705 31.732 72.1865 31.504C72.4145 31.264 72.6905 31.144 73.0145 31.144C73.3265 31.144 73.5965 31.264 73.8245 31.504C74.0525 31.732 74.1665 32.008 74.1665 32.332V32.386C74.8505 31.522 75.7385 31.09 76.8305 31.09C77.9705 31.09 78.8945 31.498 79.6025 32.314ZM78.3065 35.644C78.3065 34.9 78.1025 34.294 77.6945 33.826C77.2985 33.358 76.7705 33.124 76.1105 33.124C75.7385 33.124 75.3665 33.22 74.9945 33.412C74.6225 33.604 74.3405 33.838 74.1485 34.114V37.192C74.3405 37.468 74.6225 37.702 74.9945 37.894C75.3785 38.086 75.7505 38.182 76.1105 38.182C76.7705 38.182 77.2985 37.948 77.6945 37.48C78.1025 37.012 78.3065 36.4 78.3065 35.644ZM86.5473 38.02C86.5473 37.684 86.6613 37.402 86.8893 37.174C87.1293 36.934 87.4113 36.814 87.7353 36.814C87.9993 36.814 88.2273 36.886 88.4193 37.03C89.3433 37.666 90.3513 37.984 91.4433 37.984C92.0793 37.984 92.5833 37.858 92.9553 37.606C93.3393 37.342 93.5313 37.018 93.5313 36.634C93.5313 36.25 93.3453 35.95 92.9733 35.734C92.6013 35.518 91.9773 35.308 91.1013 35.104C90.1773 34.888 89.4153 34.672 88.8153 34.456C88.1673 34.216 87.6393 33.844 87.2313 33.34C86.8233 32.836 86.6193 32.2 86.6193 31.432C86.6193 30.388 87.0453 29.524 87.8973 28.84C88.7613 28.156 89.9133 27.814 91.3533 27.814C92.7093 27.814 93.9513 28.144 95.0793 28.804C95.4753 29.02 95.6733 29.356 95.6733 29.812C95.6733 30.136 95.5533 30.418 95.3133 30.658C95.0853 30.886 94.8153 31 94.5033 31C94.2633 31 94.0593 30.94 93.8913 30.82C92.9793 30.304 92.0733 30.046 91.1733 30.046C90.5373 30.046 90.0513 30.154 89.7153 30.37C89.3913 30.586 89.2293 30.886 89.2293 31.27C89.2293 31.618 89.3973 31.882 89.7333 32.062C90.0693 32.23 90.6993 32.428 91.6233 32.656C92.4753 32.836 93.2313 33.058 93.8913 33.322C95.3793 33.874 96.1233 34.888 96.1233 36.364C96.1233 37.54 95.7033 38.476 94.8633 39.172C94.0233 39.868 92.8413 40.216 91.3173 40.216C89.6373 40.216 88.2273 39.814 87.0873 39.01C86.7273 38.782 86.5473 38.452 86.5473 38.02ZM102.385 39.136C102.385 39.592 102.157 39.892 101.701 40.036C101.377 40.156 100.981 40.216 100.513 40.216C99.7089 40.216 99.0969 40.012 98.6769 39.604C98.2569 39.196 98.0469 38.608 98.0469 37.84V33.304H97.4889C97.2129 33.304 96.9729 33.208 96.7689 33.016C96.5769 32.824 96.4809 32.59 96.4809 32.314C96.4809 32.038 96.5769 31.804 96.7689 31.612C96.9729 31.408 97.2129 31.306 97.4889 31.306H98.0469V29.956C98.0469 29.644 98.1609 29.374 98.3889 29.146C98.6169 28.918 98.8929 28.804 99.2169 28.804C99.5289 28.804 99.7929 28.918 100.009 29.146C100.237 29.374 100.351 29.644 100.351 29.956V31.306H101.251C101.527 31.306 101.761 31.408 101.953 31.612C102.145 31.804 102.241 32.038 102.241 32.314C102.241 32.578 102.145 32.812 101.953 33.016C101.761 33.208 101.527 33.304 101.251 33.304H100.351V37.228C100.351 37.516 100.417 37.75 100.549 37.93C100.693 38.098 100.885 38.182 101.125 38.182C101.185 38.182 101.257 38.176 101.341 38.164C101.425 38.152 101.479 38.146 101.503 38.146C101.767 38.158 101.977 38.26 102.133 38.452C102.301 38.632 102.385 38.86 102.385 39.136ZM103.121 35.644C103.121 34.36 103.541 33.28 104.381 32.404C105.233 31.528 106.343 31.09 107.711 31.09C109.091 31.09 110.201 31.528 111.041 32.404C111.893 33.28 112.319 34.36 112.319 35.644C112.319 36.94 111.893 38.026 111.041 38.902C110.201 39.778 109.091 40.216 107.711 40.216C106.331 40.216 105.221 39.778 104.381 38.902C103.541 38.026 103.121 36.94 103.121 35.644ZM109.943 35.644C109.943 34.924 109.739 34.324 109.331 33.844C108.923 33.364 108.383 33.124 107.711 33.124C107.039 33.124 106.499 33.364 106.091 33.844C105.695 34.312 105.497 34.912 105.497 35.644C105.497 36.376 105.695 36.982 106.091 37.462C106.499 37.942 107.039 38.182 107.711 38.182C108.383 38.182 108.923 37.942 109.331 37.462C109.739 36.982 109.943 36.376 109.943 35.644ZM118.983 31.432C119.163 31.624 119.253 31.87 119.253 32.17C119.253 32.47 119.157 32.722 118.965 32.926C118.773 33.13 118.509 33.256 118.173 33.304C117.825 33.34 117.465 33.448 117.093 33.628C116.733 33.808 116.469 34.018 116.301 34.258V38.974C116.301 39.286 116.187 39.556 115.959 39.784C115.743 40.012 115.479 40.126 115.167 40.126C114.843 40.126 114.567 40.012 114.339 39.784C114.123 39.556 114.015 39.286 114.015 38.974V32.35C114.015 32.026 114.123 31.75 114.339 31.522C114.567 31.294 114.837 31.18 115.149 31.18C115.473 31.18 115.749 31.294 115.977 31.522C116.205 31.738 116.319 32.008 116.319 32.332L116.301 32.494C116.757 31.882 117.231 31.48 117.723 31.288C117.975 31.192 118.167 31.144 118.299 31.144C118.587 31.144 118.815 31.24 118.983 31.432ZM124.443 31.09C125.691 31.09 126.729 31.504 127.557 32.332C128.385 33.148 128.799 34.138 128.799 35.302C128.799 36.022 128.349 36.382 127.449 36.382H122.337C122.409 36.97 122.667 37.456 123.111 37.84C123.567 38.212 124.143 38.398 124.839 38.398C125.439 38.398 126.027 38.236 126.603 37.912C126.723 37.84 126.867 37.804 127.035 37.804C127.275 37.804 127.485 37.894 127.665 38.074C127.845 38.254 127.935 38.464 127.935 38.704C127.935 39.052 127.773 39.316 127.449 39.496C126.609 39.976 125.655 40.216 124.587 40.216C123.243 40.216 122.133 39.796 121.257 38.956C120.381 38.104 119.943 37 119.943 35.644C119.943 34.372 120.369 33.298 121.221 32.422C122.073 31.534 123.147 31.09 124.443 31.09ZM122.301 34.834H126.585C126.549 34.294 126.345 33.838 125.973 33.466C125.601 33.094 125.091 32.908 124.443 32.908C123.831 32.908 123.339 33.094 122.967 33.466C122.595 33.838 122.373 34.294 122.301 34.834Z" fill="white"/>
<path opacity="0.9" d="M48.936 21.472V14.524C48.936 14.172 49.112 13.996 49.464 13.996H51.672C52.872 13.98 53.86 14.36 54.636 15.136C55.412 15.912 55.792 16.868 55.776 18.004C55.792 19.14 55.412 20.092 54.636 20.86C53.86 21.628 52.872 22.008 51.672 22H49.464C49.112 22 48.936 21.824 48.936 21.472ZM49.932 21.112H51.672C52.6 21.112 53.344 20.816 53.904 20.224C54.464 19.632 54.744 18.892 54.744 18.004C54.744 17.1 54.468 16.356 53.916 15.772C53.364 15.18 52.616 14.884 51.672 14.884H49.932V21.112ZM57.7583 21.268C57.2303 20.684 56.9663 19.96 56.9663 19.096C56.9663 18.232 57.2303 17.512 57.7583 16.936C58.2943 16.352 58.9863 16.06 59.8343 16.06C60.6823 16.06 61.3703 16.352 61.8983 16.936C62.4343 17.512 62.7023 18.232 62.7023 19.096C62.7023 19.96 62.4343 20.684 61.8983 21.268C61.3703 21.852 60.6823 22.144 59.8343 22.144C58.9863 22.144 58.2943 21.852 57.7583 21.268ZM61.7543 19.096C61.7543 18.472 61.5783 17.944 61.2263 17.512C60.8823 17.08 60.4183 16.864 59.8343 16.864C59.2503 16.864 58.7823 17.08 58.4303 17.512C58.0783 17.944 57.9023 18.472 57.9023 19.096C57.9023 19.728 58.0783 20.26 58.4303 20.692C58.7823 21.124 59.2503 21.34 59.8343 21.34C60.4183 21.34 60.8823 21.124 61.2263 20.692C61.5783 20.26 61.7543 19.728 61.7543 19.096ZM69.0655 21.628L67.6735 17.344L66.2815 21.628C66.2495 21.756 66.1815 21.86 66.0775 21.94C65.9735 22.012 65.8535 22.048 65.7175 22.048C65.5815 22.048 65.4575 22.012 65.3455 21.94C65.2415 21.86 65.1735 21.756 65.1415 21.628L63.5815 16.744C63.5655 16.664 63.5575 16.616 63.5575 16.6C63.5575 16.472 63.6015 16.368 63.6895 16.288C63.7775 16.2 63.8815 16.156 64.0015 16.156C64.2335 16.156 64.3775 16.26 64.4335 16.468L65.7655 20.824L67.1815 16.504C67.2535 16.272 67.4175 16.156 67.6735 16.156C67.9295 16.156 68.0935 16.272 68.1655 16.504L69.5815 20.824L70.9135 16.468C70.9695 16.26 71.1135 16.156 71.3455 16.156C71.4655 16.156 71.5695 16.2 71.6575 16.288C71.7455 16.376 71.7895 16.48 71.7895 16.6C71.7895 16.64 71.7815 16.692 71.7655 16.756L70.2055 21.628C70.1735 21.756 70.1015 21.86 69.9895 21.94C69.8855 22.012 69.7655 22.048 69.6295 22.048C69.4935 22.048 69.3735 22.012 69.2695 21.94C69.1655 21.86 69.0975 21.756 69.0655 21.628ZM77.794 17.932V21.604C77.794 21.724 77.75 21.828 77.662 21.916C77.574 22.004 77.466 22.048 77.338 22.048C77.218 22.048 77.114 22.004 77.026 21.916C76.938 21.828 76.894 21.724 76.894 21.604V18.208C76.894 17.736 76.786 17.396 76.57 17.188C76.354 16.972 76.03 16.864 75.598 16.864C75.27 16.864 74.946 16.952 74.626 17.128C74.306 17.296 74.058 17.508 73.882 17.764V21.604C73.882 21.724 73.838 21.828 73.75 21.916C73.662 22.004 73.558 22.048 73.438 22.048C73.31 22.048 73.202 22.004 73.114 21.916C73.026 21.828 72.982 21.724 72.982 21.604V16.6C72.982 16.48 73.026 16.376 73.114 16.288C73.202 16.2 73.306 16.156 73.426 16.156C73.554 16.156 73.662 16.2 73.75 16.288C73.838 16.376 73.882 16.48 73.882 16.6V17.056C74.114 16.768 74.414 16.532 74.782 16.348C75.158 16.156 75.546 16.06 75.946 16.06C77.178 16.06 77.794 16.684 77.794 17.932ZM79.5914 21.604V14.392C79.5914 14.272 79.6354 14.168 79.7234 14.08C79.8114 13.992 79.9194 13.948 80.0474 13.948C80.1674 13.948 80.2714 13.992 80.3594 14.08C80.4474 14.168 80.4914 14.272 80.4914 14.392V21.604C80.4914 21.724 80.4474 21.828 80.3594 21.916C80.2714 22.004 80.1674 22.048 80.0474 22.048C79.9194 22.048 79.8114 22.004 79.7234 21.916C79.6354 21.828 79.5914 21.724 79.5914 21.604ZM82.7427 21.268C82.2147 20.684 81.9507 19.96 81.9507 19.096C81.9507 18.232 82.2147 17.512 82.7427 16.936C83.2787 16.352 83.9707 16.06 84.8187 16.06C85.6667 16.06 86.3547 16.352 86.8827 16.936C87.4187 17.512 87.6867 18.232 87.6867 19.096C87.6867 19.96 87.4187 20.684 86.8827 21.268C86.3547 21.852 85.6667 22.144 84.8187 22.144C83.9707 22.144 83.2787 21.852 82.7427 21.268ZM86.7387 19.096C86.7387 18.472 86.5627 17.944 86.2107 17.512C85.8667 17.08 85.4027 16.864 84.8187 16.864C84.2347 16.864 83.7667 17.08 83.4147 17.512C83.0627 17.944 82.8867 18.472 82.8867 19.096C82.8867 19.728 83.0627 20.26 83.4147 20.692C83.7667 21.124 84.2347 21.34 84.8187 21.34C85.4027 21.34 85.8667 21.124 86.2107 20.692C86.5627 20.26 86.7387 19.728 86.7387 19.096ZM93.6779 18.016V21.604C93.6779 21.724 93.6339 21.828 93.5459 21.916C93.4579 22.004 93.3499 22.048 93.2219 22.048C93.1019 22.048 92.9979 22.004 92.9099 21.916C92.8219 21.828 92.7779 21.724 92.7779 21.604V21.34C92.3299 21.876 91.6899 22.144 90.8579 22.144C90.3139 22.144 89.8379 21.972 89.4299 21.628C89.0299 21.276 88.8299 20.808 88.8299 20.224C88.8299 19.64 89.0299 19.176 89.4299 18.832C89.8379 18.488 90.3139 18.316 90.8579 18.316C91.6819 18.316 92.3219 18.58 92.7779 19.108V18.064C92.7779 17.688 92.6419 17.392 92.3699 17.176C92.1059 16.952 91.7539 16.84 91.3139 16.84C90.7379 16.84 90.2339 17.032 89.8019 17.416C89.7219 17.464 89.6419 17.488 89.5619 17.488C89.4579 17.488 89.3699 17.452 89.2979 17.38C89.2259 17.308 89.1899 17.22 89.1899 17.116C89.1899 16.988 89.2419 16.888 89.3459 16.816C89.9219 16.312 90.6179 16.06 91.4339 16.06C92.1219 16.06 92.6659 16.224 93.0659 16.552C93.4739 16.88 93.6779 17.368 93.6779 18.016ZM92.7779 20.776V19.684C92.4339 19.204 91.9019 18.964 91.1819 18.964C90.7659 18.964 90.4219 19.084 90.1499 19.324C89.8859 19.556 89.7539 19.86 89.7539 20.236C89.7539 20.604 89.8859 20.908 90.1499 21.148C90.4219 21.38 90.7659 21.496 91.1819 21.496C91.9019 21.496 92.4339 21.256 92.7779 20.776ZM100.582 14.392V21.604C100.582 21.724 100.538 21.828 100.45 21.916C100.362 22.004 100.254 22.048 100.126 22.048C100.006 22.048 99.902 22.004 99.814 21.916C99.726 21.828 99.682 21.724 99.682 21.604V21.136C99.458 21.448 99.17 21.696 98.818 21.88C98.474 22.056 98.11 22.144 97.726 22.144C96.958 22.144 96.334 21.872 95.854 21.328C95.382 20.776 95.146 20.036 95.146 19.108C95.146 18.196 95.382 17.46 95.854 16.9C96.334 16.34 96.958 16.06 97.726 16.06C98.526 16.06 99.178 16.404 99.682 17.092V14.392C99.682 14.272 99.726 14.168 99.814 14.08C99.902 13.992 100.006 13.948 100.126 13.948C100.254 13.948 100.362 13.992 100.45 14.08C100.538 14.168 100.582 14.272 100.582 14.392ZM99.682 20.428V17.8C99.514 17.536 99.266 17.316 98.938 17.14C98.61 16.956 98.278 16.864 97.942 16.864C97.374 16.864 96.922 17.076 96.586 17.5C96.25 17.924 96.082 18.46 96.082 19.108C96.082 19.756 96.25 20.292 96.586 20.716C96.922 21.132 97.374 21.34 97.942 21.34C98.286 21.34 98.618 21.256 98.938 21.088C99.266 20.912 99.514 20.692 99.682 20.428ZM105.934 21.268C105.406 20.684 105.142 19.96 105.142 19.096C105.142 18.232 105.406 17.512 105.934 16.936C106.47 16.352 107.162 16.06 108.01 16.06C108.858 16.06 109.546 16.352 110.074 16.936C110.61 17.512 110.878 18.232 110.878 19.096C110.878 19.96 110.61 20.684 110.074 21.268C109.546 21.852 108.858 22.144 108.01 22.144C107.162 22.144 106.47 21.852 105.934 21.268ZM109.93 19.096C109.93 18.472 109.754 17.944 109.402 17.512C109.058 17.08 108.594 16.864 108.01 16.864C107.426 16.864 106.958 17.08 106.606 17.512C106.254 17.944 106.078 18.472 106.078 19.096C106.078 19.728 106.254 20.26 106.606 20.692C106.958 21.124 107.426 21.34 108.01 21.34C108.594 21.34 109.058 21.124 109.402 20.692C109.754 20.26 109.93 19.728 109.93 19.096ZM117.157 17.932V21.604C117.157 21.724 117.113 21.828 117.025 21.916C116.937 22.004 116.829 22.048 116.701 22.048C116.581 22.048 116.477 22.004 116.389 21.916C116.301 21.828 116.257 21.724 116.257 21.604V18.208C116.257 17.736 116.149 17.396 115.933 17.188C115.717 16.972 115.393 16.864 114.961 16.864C114.633 16.864 114.309 16.952 113.989 17.128C113.669 17.296 113.421 17.508 113.245 17.764V21.604C113.245 21.724 113.201 21.828 113.113 21.916C113.025 22.004 112.921 22.048 112.801 22.048C112.673 22.048 112.565 22.004 112.477 21.916C112.389 21.828 112.345 21.724 112.345 21.604V16.6C112.345 16.48 112.389 16.376 112.477 16.288C112.565 16.2 112.669 16.156 112.789 16.156C112.917 16.156 113.025 16.2 113.113 16.288C113.201 16.376 113.245 16.48 113.245 16.6V17.056C113.477 16.768 113.777 16.532 114.145 16.348C114.521 16.156 114.909 16.06 115.309 16.06C116.541 16.06 117.157 16.684 117.157 17.932ZM124.556 21.616C124.556 21.784 124.48 21.896 124.328 21.952C124.12 22.08 123.848 22.144 123.512 22.144C122.656 22.144 122.228 21.692 122.228 20.788V16.996H121.616C121.512 16.996 121.42 16.956 121.34 16.876C121.26 16.796 121.22 16.704 121.22 16.6C121.22 16.488 121.26 16.396 121.34 16.324C121.42 16.244 121.512 16.204 121.616 16.204H122.228V15.016C122.228 14.896 122.272 14.792 122.36 14.704C122.448 14.616 122.556 14.572 122.684 14.572C122.804 14.572 122.908 14.616 122.996 14.704C123.084 14.792 123.128 14.896 123.128 15.016V16.204H123.956C124.068 16.204 124.164 16.244 124.244 16.324C124.324 16.404 124.364 16.496 124.364 16.6C124.364 16.704 124.324 16.796 124.244 16.876C124.164 16.956 124.068 16.996 123.956 16.996H123.128V20.596C123.128 20.82 123.176 21 123.272 21.136C123.376 21.272 123.524 21.34 123.716 21.34C123.788 21.34 123.88 21.324 123.992 21.292C124.104 21.252 124.164 21.232 124.172 21.232C124.284 21.232 124.376 21.268 124.448 21.34C124.52 21.412 124.556 21.504 124.556 21.616ZM129.5 21.604V18.184C129.5 17.72 129.392 17.384 129.176 17.176C128.96 16.968 128.632 16.864 128.192 16.864C127.872 16.864 127.552 16.952 127.232 17.128C126.92 17.296 126.668 17.508 126.476 17.764V21.604C126.476 21.724 126.432 21.828 126.344 21.916C126.256 22.004 126.152 22.048 126.032 22.048C125.904 22.048 125.796 22.004 125.708 21.916C125.62 21.828 125.576 21.724 125.576 21.604V14.392C125.576 14.272 125.62 14.168 125.708 14.08C125.796 13.992 125.904 13.948 126.032 13.948C126.152 13.948 126.256 13.992 126.344 14.08C126.432 14.168 126.476 14.272 126.476 14.392V17.044C126.708 16.764 127.012 16.532 127.388 16.348C127.772 16.156 128.16 16.06 128.552 16.06C129.784 16.06 130.4 16.676 130.4 17.908V21.604C130.4 21.724 130.356 21.828 130.268 21.916C130.18 22.004 130.072 22.048 129.944 22.048C129.824 22.048 129.72 22.004 129.632 21.916C129.544 21.828 129.5 21.724 129.5 21.604ZM134.717 16.06C135.541 16.06 136.209 16.344 136.721 16.912C137.241 17.472 137.501 18.148 137.501 18.94C137.501 19.244 137.325 19.396 136.973 19.396H132.809C132.841 19.956 133.049 20.432 133.433 20.824C133.801 21.208 134.289 21.4 134.897 21.4C135.473 21.4 135.993 21.216 136.457 20.848C136.513 20.816 136.581 20.8 136.661 20.8C136.765 20.8 136.853 20.836 136.925 20.908C136.997 20.972 137.033 21.056 137.033 21.16C137.033 21.28 136.981 21.38 136.877 21.46C136.293 21.916 135.605 22.144 134.813 22.144C133.949 22.144 133.241 21.86 132.689 21.292C132.137 20.724 131.861 19.992 131.861 19.096C131.861 18.256 132.133 17.54 132.677 16.948C133.229 16.356 133.909 16.06 134.717 16.06ZM132.809 18.736H136.613C136.597 18.224 136.421 17.776 136.085 17.392C135.757 17 135.297 16.804 134.705 16.804C134.145 16.804 133.693 17 133.349 17.392C133.013 17.776 132.833 18.224 132.809 18.736Z" fill="white"/>
<defs>
<clipPath id="clip0_4490_58277">
<rect width="27.2479" height="27.3542" fill="white" transform="translate(10.3398 13.7832)"/>
</clipPath>
</defs>
</svg>
