<svg width="501" height="509" viewBox="0 0 501 509" fill="none" xmlns="http://www.w3.org/2000/svg">
<path d="M29.4014 31.9306C30.1387 20.7538 30.5074 15.1655 32.9641 11.04C35.1252 7.41114 38.3795 4.55956 42.2608 2.89397C46.6733 1.00045 52.2617 1.3691 63.4384 2.10642L468.09 28.8007C479.266 29.538 484.855 29.9067 488.98 32.3634C492.609 34.5245 495.461 37.7788 497.126 41.6601C499.02 46.0726 498.651 51.661 497.914 62.8377L470.639 476.287C469.902 487.464 469.533 493.052 467.076 497.178C464.915 500.807 461.661 503.658 457.78 505.324C453.367 507.217 447.779 506.849 436.602 506.112L31.9508 479.417C20.7741 478.68 15.1857 478.311 11.0603 475.854C7.4314 473.693 4.57982 470.439 2.91423 466.558C1.02071 462.145 1.38937 456.557 2.12668 445.38L29.4014 31.9306Z" fill="#DD4C6F"/>
<rect x="16.0195" y="24" width="469" height="465" rx="20" fill="#FFEFF3"/>
</svg>
