<svg width="1792" height="750" viewBox="0 0 1792 750" fill="none" xmlns="http://www.w3.org/2000/svg">
<g clip-path="url(#clip0_5100_184669)">
<rect width="1792" height="750" fill="#30207D"/>
<path d="M1792 750L0 750L6.60815e-05 -5.88492L1792 -5.88477L1792 750Z" fill="url(#paint0_linear_5100_184669)"/>
<path opacity="0.5" d="M926 -21.7432H-3V708.901H926V-21.7432Z" fill="url(#paint1_radial_5100_184669)"/>
<path opacity="0.5" d="M992.501 761.56L1799.5 761.561L1799.5 -5.88477L992.501 -5.88484L992.501 761.56Z" fill="url(#paint2_radial_5100_184669)"/>
<path opacity="0.3" d="M1359 769.15C1313.7 949.729 1476.66 1191.15 1690.61 1178.04C2020.19 1157.77 2237.03 688.425 2081.91 631.101C1841.13 542.081 1986.06 253.468 1967 167.149C1947.16 77.2744 1777.81 150.968 1690.61 425.15C1623.27 636.889 1424.97 506.146 1359 769.15Z" fill="#3D17AD"/>
<path d="M1619.39 625.428C1749.6 547.179 1723.98 384.156 1870.69 407.562C2034.25 433.658 2125.3 550.203 2086.85 721.698C2049.87 886.588 1900.49 941.974 1757.32 947.549C1606.92 953.461 1307 813.149 1619.39 625.428Z" fill="#612193" fill-opacity="0.5"/>
<path opacity="0.3" d="M-191.018 -87.6384C-337.255 -5.13992 -375.823 229.332 -234.478 360.837C-16.681 563.377 421.099 474.5 366.143 276.821C274.957 64.4226 425.64 36.9281 470.278 -29.0801C516.757 -97.8049 427.734 -195.605 254.232 -131.093C80.7299 -66.5817 -44.3564 -170.37 -191.018 -87.6384Z" fill="#3D17AD"/>
<path opacity="0.5" d="M-191.954 -115.911C-330.13 -51.4205 -381.424 158.198 -262.62 287.144C-79.5494 485.748 323.061 435.838 287.102 253.005C219.364 54.314 357.725 39.9391 402.753 -16.7137C449.638 -75.6979 375.857 -170.47 214.249 -124.17C52.6406 -77.8704 -53.3768 -180.584 -191.954 -115.911Z" fill="#612193"/>
<path d="M79.4043 180.109C79.4043 180.21 79.4043 180.21 79.4043 180.21L79.81 180.92C80.1076 181.217 80.3507 181.406 80.7394 181.565C81.0583 181.696 81.3926 181.731 81.7372 181.731C81.8722 181.731 82.0072 181.722 82.1385 181.691C82.6906 181.56 83.477 181.227 83.8439 180.589C83.9443 180.414 83.9686 180.209 83.9686 180.007C83.9686 179.534 83.7035 178.972 83.4207 178.569C83.3811 178.513 83.3467 178.453 83.3058 178.398C83.2697 178.349 83.2281 178.307 83.1855 178.269C83.042 178.143 82.8867 178.012 82.7514 177.877C82.5486 177.674 82.2443 177.269 81.94 177.269C81.783 177.269 81.626 177.323 81.483 177.417C81.2008 177.602 81.0631 177.942 80.8243 178.181C80.7229 178.283 80.6214 178.384 80.6214 178.486C80.6214 178.586 80.4895 178.64 80.4206 178.714C80.3275 178.813 80.2344 178.862 80.1412 178.899C79.9906 178.961 79.8637 179.064 79.762 179.191C79.5859 179.41 79.4043 179.638 79.4043 180.109Z" fill="white"/>
<path d="M144.336 65.3951C144.336 65.5979 144.437 65.8008 144.539 65.9022C144.742 66.1051 145.046 66.2065 145.35 66.2065C145.452 66.2065 145.452 66.2065 145.553 66.2065C145.62 66.2065 145.686 66.1917 145.745 66.1605C145.958 66.0476 146.263 65.8484 146.263 65.4966V65.3951C146.263 65.2853 146.204 65.1458 146.133 65.0088C146.022 64.7923 145.928 64.553 145.756 64.3808L145.654 64.2793C145.63 64.2543 145.611 64.2355 145.595 64.2198C145.503 64.128 145.379 64.0765 145.249 64.0765H145.147C145.082 64.0765 145.02 64.1023 144.974 64.1482L144.944 64.178C144.843 64.2794 144.742 64.4823 144.64 64.6851C144.539 64.888 144.336 65.0908 144.336 65.3951Z" fill="white"/>
<path d="M50.2066 314.697C50.2095 314.702 50.2111 314.701 50.2111 314.707C50.2111 314.737 50.2477 314.74 50.2678 314.763C50.3069 314.806 50.3118 314.825 50.3124 314.881C50.3126 314.898 50.3176 314.915 50.3272 314.929C50.5299 315.231 50.8269 315.625 51.1239 315.922C51.8339 316.632 52.8482 317.342 54.0654 317.646C54.2884 317.72 54.5115 317.74 54.7345 317.785C54.8981 317.818 55.0246 317.849 55.1915 317.849C55.2937 317.849 55.4352 317.841 55.5325 317.81C56.42 317.524 57.1377 316.307 57.5412 314.881C57.5933 314.697 57.6146 314.506 57.6742 314.325C57.7223 314.178 57.7331 314.02 57.7589 313.868C57.9179 312.931 57.8968 312.014 57.6153 311.357C57.5388 311.128 57.4044 310.898 57.2559 310.756C57.168 310.671 57.0649 310.6 56.956 310.546C56.8472 310.492 56.7496 310.413 56.6346 310.373C56.2615 310.244 55.8227 310.255 55.3839 310.343C54.8768 310.444 54.3696 310.647 53.8625 310.85C53.5582 310.952 53.2539 311.154 53.0511 311.256C52.8482 311.357 52.6454 311.459 52.5439 311.56C52.3714 311.733 52.1301 311.821 51.9269 311.956C51.5588 312.201 51.2508 312.468 50.9844 312.721C50.7359 312.957 50.4479 313.155 50.2294 313.419C49.9454 313.762 49.9107 314.174 50.2066 314.697Z" fill="white"/>
<path d="M361.289 8.18903C361.289 8.29046 361.289 8.29031 361.289 8.29031L361.695 8.69617C362.101 8.69617 363.013 8.59464 363.825 9.10178C363.989 9.18371 364.153 9.26558 364.316 9.40095C364.394 9.46546 364.53 9.52086 364.609 9.5847C364.647 9.61536 364.659 9.61937 364.705 9.63619C365.306 9.85787 365.824 9.57135 366.004 9.09464C366.051 8.96833 366.056 8.83114 366.056 8.69617C366.056 8.34837 365.982 8.07504 365.896 7.74851C365.867 7.6369 365.824 7.52937 365.784 7.42112C365.766 7.37145 365.752 7.32573 365.735 7.27794C365.688 7.13997 365.658 7.00489 365.565 6.89287C365.5 6.81531 365.425 6.72261 365.377 6.63402C365.16 6.2379 364.807 5.72239 364.535 5.45028C364.27 5.1855 364.082 5.07432 363.837 4.98308C363.762 4.95519 363.698 4.9409 363.618 4.94542C363.421 4.95658 363.202 5.06308 363.06 5.20075C363.045 5.21607 363.029 5.23177 363.013 5.24747C362.84 5.42034 362.742 5.6543 362.607 5.85772C362.562 5.92446 362.518 5.99057 362.475 6.05563C362.027 6.72738 361.309 7.32071 361.29 8.12784C361.289 8.14789 361.289 8.16828 361.289 8.18903Z" fill="white"/>
<path d="M397.909 387.332C397.908 387.328 397.907 387.32 397.907 387.316C397.907 387.279 397.863 387.226 397.852 387.191C397.802 387.043 397.784 386.909 397.713 386.829C397.707 386.822 397.702 386.816 397.697 386.809C397.543 386.586 397.277 386.474 396.984 386.39C396.79 386.334 396.588 386.312 396.386 386.312C396.318 386.312 396.25 386.318 396.188 386.344C395.876 386.469 395.7 386.79 395.601 387.128C395.582 387.192 395.574 387.259 395.574 387.327C395.574 387.497 395.574 387.738 395.634 387.931C395.656 388.002 395.669 388.082 395.712 388.143C395.722 388.159 395.735 388.173 395.749 388.186C395.818 388.247 395.915 388.276 395.98 388.341C395.992 388.353 396.006 388.364 396.021 388.373C396.238 388.515 396.532 388.544 396.791 388.544C396.893 388.544 396.994 388.544 396.994 388.544C396.994 388.544 396.994 388.544 396.994 388.544C397.096 388.544 397.096 388.544 397.197 388.544C397.264 388.544 397.33 388.529 397.389 388.498C397.449 388.468 397.508 388.438 397.562 388.408C397.733 388.313 397.843 388.145 397.894 387.956C397.95 387.748 397.977 387.54 397.909 387.332Z" fill="white"/>
<path d="M399.529 180.92C399.631 180.92 399.631 180.92 399.529 180.92C399.631 180.92 399.631 180.92 399.529 180.92C399.631 181.123 399.732 181.225 399.833 181.326C400.017 181.51 400.368 181.778 400.659 181.901C400.716 181.926 400.778 181.932 400.84 181.938C400.891 181.942 400.943 181.955 400.994 181.99C401.033 182.016 401.077 182.036 401.123 182.036C401.142 182.036 401.161 182.033 401.179 182.026C401.459 181.917 401.734 181.554 401.845 181.097C401.857 181.047 401.862 180.99 401.862 180.939C401.862 180.856 401.877 180.779 401.896 180.698C401.933 180.538 401.946 180.363 401.934 180.209C401.918 180.004 401.865 179.704 401.659 179.703C401.659 179.703 401.659 179.703 401.659 179.703C401.556 179.703 401.517 179.551 401.416 179.532C401.362 179.522 401.3 179.524 401.234 179.537C401.108 179.563 400.979 179.591 400.859 179.637C400.834 179.647 400.81 179.658 400.786 179.671C400.624 179.754 400.462 179.854 400.286 179.9C400.27 179.904 400.255 179.906 400.239 179.906C400.138 179.906 400.138 180.007 400.036 180.008C400.036 180.008 400.036 180.008 400.036 180.008C400.035 180.008 400.024 180.008 400.009 180.012C399.93 180.032 399.888 180.131 399.82 180.176C399.799 180.19 399.779 180.205 399.758 180.22C399.627 180.317 399.477 180.765 399.529 180.92Z" fill="white"/>
<path d="M120.297 337.12C120.297 337.323 120.398 337.424 120.5 337.526C120.643 337.669 120.735 337.761 120.92 337.839C121.106 337.917 121.312 337.931 121.514 337.931H121.615C121.895 337.931 122.433 337.674 122.596 337.317C122.624 337.255 122.63 337.187 122.63 337.12C122.63 336.937 122.593 336.754 122.52 336.615C122.431 336.447 122.257 336.341 122.123 336.207L122.021 336.105C121.92 336.004 121.818 335.801 121.615 335.801C121.413 335.801 121.311 335.903 121.21 336.004C121.14 336.074 121.118 336.096 121.111 336.135C121.104 336.181 121.09 336.225 121.058 336.258C121.025 336.29 121.012 336.339 120.984 336.375C120.982 336.378 120.98 336.38 120.978 336.382C120.943 336.419 120.886 336.432 120.843 336.461C120.763 336.515 120.682 336.532 120.601 336.613C120.5 336.714 120.297 336.815 120.297 337.12Z" fill="white"/>
<g opacity="0.7">
<path d="M1702.86 36.4617L1700.75 45.0723L1692.47 48.2179C1690.98 48.7777 1690.8 50.8171 1692.14 51.6435L1699.66 56.3086L1700.09 65.1591C1700.17 66.7586 1702.05 67.5583 1703.24 66.532L1710.01 60.8005L1718.55 63.1331C1720.07 63.5463 1721.44 62.0401 1720.83 60.5606L1717.48 52.3499L1722.32 44.939C1723.2 43.6061 1722.16 41.8466 1720.58 41.9666L1711.75 42.6197L1706.21 35.702C1705.23 34.489 1703.23 34.9156 1702.86 36.4617Z" fill="#FAD902"/>
<path d="M1741.78 76.0639L1744.02 74.6426C1744.65 74.2388 1744.43 73.2536 1743.68 73.1729L1741.03 72.8821C1740.79 72.8498 1740.58 72.7206 1740.45 72.5107L1739.03 70.2656C1738.62 69.6357 1737.63 69.8618 1737.55 70.6048L1737.26 73.2536C1737.23 73.4959 1737.1 73.7059 1736.89 73.8351L1734.64 75.2564C1734.01 75.6602 1734.24 76.6454 1734.98 76.7261L1737.63 77.0169C1737.88 77.0492 1738.09 77.1784 1738.22 77.3883L1739.64 79.6334C1740.04 80.2633 1741.03 80.0372 1741.11 79.2942L1741.4 76.6454C1741.42 76.4031 1741.56 76.1931 1741.78 76.0639Z" fill="#FFDE43"/>
</g>
</g>
<defs>
<linearGradient id="paint0_linear_5100_184669" x1="896" y1="750" x2="896" y2="-5.88484" gradientUnits="userSpaceOnUse">
<stop stop-color="#1D1A50"/>
<stop offset="1" stop-color="#3A257F"/>
</linearGradient>
<radialGradient id="paint1_radial_5100_184669" cx="0" cy="0" r="1" gradientUnits="userSpaceOnUse" gradientTransform="translate(66 32.2558) rotate(39.1984) scale(797.458 772.704)">
<stop offset="0.260417" stop-color="#4C2193" stop-opacity="0.6"/>
<stop offset="0.51" stop-color="#3D17AD" stop-opacity="0.3"/>
<stop offset="1" stop-color="#1C0958" stop-opacity="0"/>
</radialGradient>
<radialGradient id="paint2_radial_5100_184669" cx="0" cy="0" r="1" gradientUnits="userSpaceOnUse" gradientTransform="translate(1785 743.15) rotate(-134.601) scale(811.778 801.906)">
<stop offset="0.243855" stop-color="#4C2193" stop-opacity="0.6"/>
<stop offset="0.51" stop-color="#3D17AD" stop-opacity="0.3"/>
<stop offset="1" stop-color="#1C0958" stop-opacity="0"/>
</radialGradient>
<clipPath id="clip0_5100_184669">
<rect width="1792" height="750" fill="white"/>
</clipPath>
</defs>
</svg>
