<svg width="1792" height="726" viewBox="0 0 1792 726" fill="none" xmlns="http://www.w3.org/2000/svg">
<g clip-path="url(#clip0_5100_184041)">
<mask id="mask0_5100_184041" style="mask-type:alpha" maskUnits="userSpaceOnUse" x="-301" y="-38" width="2395" height="753">
<path fill-rule="evenodd" clip-rule="evenodd" d="M1792 -38H0V361.615C-187.287 399.115 -301 448.451 -301 502.5C-301 619.861 235.139 715 896.5 715C1557.86 715 2094 619.861 2094 502.5C2094 448.355 1979.88 398.94 1792 361.415V-38Z" fill="#C4C4C4"/>
</mask>
<g mask="url(#mask0_5100_184041)">
<path d="M0 0H1792V740H0V0Z" fill="black"/>
<path opacity="0.08" d="M54.6611 59.8955C54.6795 58.4217 56.4932 57.7323 57.4857 58.8219L62.6692 64.5125C62.9722 64.8452 63.3996 65.0372 63.8495 65.0428L71.546 65.1388C73.0196 65.1572 73.7089 66.9711 72.6194 67.9637L66.9295 73.1479C66.5969 73.451 66.4049 73.8784 66.3993 74.3284L66.3033 82.0259C66.2849 83.4997 64.4712 84.189 63.4788 83.0995L58.2952 77.4088C57.9922 77.0761 57.5648 76.8841 57.1149 76.8785L49.4185 76.7825C47.9449 76.7641 47.2556 74.9502 48.345 73.9576L54.0349 68.7734C54.3675 68.4703 54.5595 68.0429 54.5652 67.5929L54.6611 59.8955Z" fill="white"/>
<path opacity="0.08" d="M442.372 0.282864C442.483 -0.693387 443.733 -1.02821 444.318 -0.238575L447.372 3.88556C447.55 4.12664 447.821 4.28285 448.119 4.31693L453.217 4.90003C454.193 5.01167 454.528 6.26126 453.738 6.84607L449.614 9.90044C449.373 10.079 449.217 10.3495 449.183 10.6476L448.6 15.7464C448.489 16.7226 447.239 17.0575 446.654 16.2678L443.6 12.1437C443.422 11.9026 443.151 11.7464 442.853 11.7123L437.755 11.1292C436.779 11.0176 436.444 9.768 437.234 9.18319L441.357 6.12882C441.598 5.95027 441.755 5.67971 441.789 5.38166L442.372 0.282864Z" fill="white"/>
<path opacity="0.08" d="M175.997 330.249C176.096 329.271 177.341 328.92 177.936 329.702L181.044 333.786C181.225 334.024 181.498 334.177 181.796 334.207L186.902 334.724C187.879 334.823 188.23 336.068 187.448 336.663L183.365 339.771C183.126 339.952 182.974 340.225 182.944 340.524L182.427 345.63C182.328 346.607 181.083 346.958 180.488 346.176L177.381 342.092C177.199 341.854 176.927 341.701 176.628 341.671L171.523 341.154C170.545 341.056 170.194 339.81 170.976 339.215L175.059 336.107C175.298 335.926 175.451 335.653 175.481 335.355L175.997 330.249Z" fill="white"/>
<path opacity="0.5" d="M929 0.000610352H0V730.645H929V0.000610352Z" fill="url(#paint0_radial_5100_184041)"/>
<path d="M8.64159e-06 1.33075L0 726L1792 726L1792 1.33077L8.64159e-06 1.33075Z" fill="url(#paint1_linear_5100_184041)"/>
<path opacity="0.5" d="M985.001 726L1792 726L1792 -0.000305176L985.001 -0.000375726L985.001 726Z" fill="url(#paint2_radial_5100_184041)"/>
<path d="M1544.51 182.052C1605 332.425 1827.97 446.825 1827.97 242.547L1827.97 -77.2143L1246.22 -145.032C1246.22 -145.032 1159.31 4.46556 1278.33 99.0865C1397.35 193.707 1484.01 31.6782 1544.51 182.052Z" fill="#3D17AD" fill-opacity="0.2"/>
<path opacity="0.08" d="M1590.68 277.604C1591.65 276.492 1593.48 277.139 1593.53 278.612L1593.81 286.306C1593.82 286.755 1594.02 287.178 1594.36 287.474L1600.17 292.526C1601.28 293.493 1600.63 295.322 1599.16 295.374L1591.47 295.647C1591.02 295.663 1590.6 295.865 1590.3 296.205L1585.25 302.013C1584.28 303.125 1582.45 302.478 1582.4 301.005L1582.13 293.312C1582.11 292.862 1581.91 292.439 1581.57 292.144L1575.76 287.092C1574.65 286.124 1575.3 284.295 1576.77 284.243L1584.46 283.97C1584.91 283.954 1585.34 283.752 1585.63 283.412L1590.68 277.604Z" fill="white"/>
<path opacity="0.08" d="M1630.31 257.574C1630.91 256.801 1632.15 257.171 1632.24 258.15L1632.67 263.264C1632.7 263.563 1632.85 263.837 1633.08 264.023L1637.12 267.194C1637.89 267.801 1637.52 269.04 1636.54 269.124L1631.43 269.561C1631.13 269.587 1630.85 269.735 1630.67 269.971L1627.5 274.007C1626.89 274.779 1625.65 274.409 1625.57 273.43L1625.13 268.317C1625.11 268.018 1624.96 267.743 1624.72 267.557L1620.69 264.387C1619.91 263.78 1620.28 262.54 1621.26 262.456L1626.38 262.019C1626.67 261.993 1626.95 261.845 1627.14 261.609L1630.31 257.574Z" fill="white"/>
<path d="M1708.54 202.435C1708.54 202.333 1708.54 202.333 1708.54 202.333C1708.54 202.029 1708.34 201.826 1708.14 201.624C1707.73 201.218 1707.43 201.015 1706.72 200.812C1706.51 200.711 1706.31 200.812 1706.21 200.812C1706.11 200.812 1706.11 200.812 1706.01 200.812C1705.4 200.913 1704.28 201.319 1703.98 202.232C1703.98 202.333 1703.98 202.435 1703.98 202.536C1703.98 203.043 1704.28 203.652 1704.59 204.058C1704.69 204.261 1704.89 204.362 1704.99 204.463C1705.09 204.463 1705.09 204.565 1705.19 204.666C1705.4 204.869 1705.7 205.275 1706.01 205.275C1706.31 205.275 1706.61 205.072 1706.82 204.768C1706.92 204.666 1707.02 204.463 1707.12 204.362C1707.22 204.261 1707.32 204.159 1707.32 204.058C1707.32 203.956 1707.43 203.956 1707.43 203.956C1707.63 203.652 1707.83 203.652 1708.03 203.551C1708.24 203.246 1708.54 203.043 1708.54 202.435Z" fill="white"/>
<path d="M1663.61 317.149C1663.61 316.946 1663.51 316.743 1663.41 316.641C1663.2 316.439 1662.9 316.337 1662.6 316.337C1662.49 316.337 1662.49 316.337 1662.39 316.337H1662.29C1662.09 316.438 1661.68 316.641 1661.68 317.047V317.149C1661.68 317.351 1661.89 317.656 1661.99 317.858C1662.09 317.96 1662.09 318.061 1662.19 318.163L1662.29 318.264C1662.39 318.366 1662.39 318.366 1662.49 318.467C1662.6 318.467 1662.6 318.467 1662.7 318.467H1662.8H1662.9L1663 318.366C1663.1 318.264 1663.2 318.061 1663.31 317.858C1663.41 317.656 1663.61 317.453 1663.61 317.149Z" fill="white"/>
<path d="M1757.73 67.8392C1757.73 67.8392 1757.73 67.7378 1757.73 67.8392C1757.63 67.7378 1757.63 67.7378 1757.63 67.6364C1757.43 67.3321 1757.13 66.9264 1756.82 66.6221C1756.11 65.9121 1755.1 65.2022 1753.88 64.8979C1753.58 64.7964 1753.27 64.7965 1752.97 64.6951C1752.87 64.6951 1752.76 64.6951 1752.56 64.6951C1751.55 64.8979 1750.74 66.3179 1750.33 67.9407C1750.33 68.1436 1750.23 68.245 1750.23 68.4479C1750.03 69.4621 1750.03 70.4764 1750.33 71.1864C1750.43 71.4906 1750.63 71.7949 1750.84 71.8963C1750.94 71.9977 1751.04 71.9977 1751.14 72.0991C1751.55 72.302 1752.05 72.3021 1752.56 72.2006C1753.07 72.0992 1753.58 71.8963 1754.08 71.6935C1754.39 71.5921 1754.69 71.3893 1754.89 71.2879C1755.1 71.1865 1755.3 71.085 1755.4 70.9835C1755.5 70.8821 1755.6 70.8822 1755.71 70.7807C1756.42 70.375 1756.92 69.8678 1757.33 69.4621C1757.94 69.0564 1758.14 68.5492 1757.73 67.8392Z" fill="white"/>
<path d="M1556.66 354.354C1556.66 354.253 1556.66 354.253 1556.66 354.253C1556.66 354.05 1556.45 353.847 1556.25 353.847C1555.84 353.847 1554.93 353.949 1554.12 353.442C1553.92 353.34 1553.71 353.239 1553.51 353.036C1553.41 353.036 1553.31 352.935 1553.31 352.935C1552.6 352.63 1551.99 353.036 1551.89 353.644C1551.89 353.746 1551.89 353.746 1551.89 353.847C1551.89 354.253 1551.99 354.557 1552.09 354.963C1552.19 355.166 1552.19 355.267 1552.29 355.47C1552.29 355.572 1552.4 355.673 1552.5 355.775C1552.7 356.18 1553.11 356.789 1553.41 357.093C1553.71 357.397 1553.92 357.499 1554.22 357.6C1554.32 357.6 1554.53 357.6 1554.63 357.499C1554.73 357.499 1554.83 357.397 1554.93 357.296C1555.03 357.195 1555.03 357.093 1555.13 356.992C1555.54 356.383 1555.95 355.775 1556.15 355.47C1556.45 355.267 1556.66 354.963 1556.66 354.354Z" fill="white"/>
<path d="M1737.85 401.842C1737.85 401.741 1737.85 401.741 1737.85 401.842C1737.85 401.741 1737.85 401.741 1737.85 401.842C1737.85 401.639 1737.75 401.538 1737.65 401.335C1737.35 401.031 1736.94 400.524 1736.53 400.929C1736.43 401.031 1736.33 401.132 1736.23 401.233L1736.13 401.335C1735.82 401.639 1735.52 401.741 1735.32 401.944C1735.32 401.944 1735.32 401.944 1735.32 402.045C1735.22 402.146 1735.22 402.349 1735.32 402.552C1735.32 402.654 1735.42 402.755 1735.42 402.755L1735.52 402.856C1735.62 402.958 1735.82 403.059 1736.03 402.958C1736.23 402.958 1736.43 402.856 1736.53 402.755C1736.64 402.755 1736.74 402.654 1736.84 402.654C1736.94 402.654 1736.94 402.654 1737.04 402.654H1737.14C1737.35 402.654 1737.55 402.654 1737.65 402.552C1737.75 402.451 1737.85 402.146 1737.85 401.842Z" fill="white"/>
<path d="M1408.42 201.623C1408.31 201.623 1408.31 201.623 1408.42 201.623C1408.31 201.623 1408.31 201.623 1408.42 201.623C1408.31 201.421 1408.21 201.319 1408.11 201.218C1407.91 201.015 1407.5 200.711 1407.2 200.609C1407.1 200.609 1407 200.609 1406.89 200.508H1406.79C1406.49 200.609 1406.18 201.015 1406.08 201.522C1406.08 201.623 1406.08 201.623 1406.08 201.725C1405.98 202.029 1405.98 202.435 1406.08 202.638C1406.08 202.739 1406.18 202.84 1406.29 202.84C1406.29 202.84 1406.39 202.84 1406.39 202.942C1406.49 203.043 1406.69 203.043 1406.89 202.942C1407.1 202.942 1407.2 202.84 1407.4 202.739C1407.5 202.739 1407.6 202.638 1407.71 202.638C1407.81 202.638 1407.81 202.536 1407.91 202.536C1407.91 202.536 1408.01 202.536 1408.01 202.435C1408.21 202.333 1408.42 202.13 1408.52 202.029C1408.42 202.029 1408.52 201.928 1408.42 201.623Z" fill="white"/>
<path d="M1687.65 45.4241C1687.65 45.2213 1687.55 45.1197 1687.45 45.0183C1687.24 44.8154 1687.14 44.7141 1686.74 44.6127C1686.63 44.6127 1686.53 44.6127 1686.43 44.6127H1686.33C1686.03 44.6127 1685.42 44.9169 1685.32 45.3226V45.4241C1685.32 45.7284 1685.42 46.0327 1685.62 46.1341C1685.72 46.2355 1685.72 46.2355 1685.82 46.3369L1685.92 46.4384C1686.03 46.5399 1686.13 46.7425 1686.33 46.7425C1686.53 46.7425 1686.63 46.6411 1686.74 46.5397C1686.84 46.4383 1686.84 46.4383 1686.84 46.3369L1686.94 46.2354C1686.94 46.2354 1686.94 46.1341 1687.04 46.1341C1687.14 46.0327 1687.24 46.0327 1687.34 45.9313C1687.45 45.8299 1687.65 45.7284 1687.65 45.4241Z" fill="white"/>
<path d="M247.443 91.4033C247.342 91.4033 247.342 91.4033 247.342 91.4033C247.038 91.4033 246.835 91.6062 246.632 91.809C246.226 92.2147 246.023 92.519 245.82 93.229C245.719 93.4319 245.82 93.6348 245.82 93.7362C245.82 93.8376 245.82 93.8376 245.82 93.939C245.922 94.5476 246.328 95.6633 247.24 95.9676C247.342 95.9676 247.443 95.9676 247.545 95.9676C248.052 95.9676 248.66 95.6633 249.066 95.359C249.269 95.2576 249.37 95.0547 249.472 94.9533C249.472 94.8519 249.573 94.8519 249.675 94.7505C249.878 94.5476 250.283 94.2433 250.283 93.939C250.283 93.6347 250.08 93.3305 249.776 93.1276C249.675 93.0262 249.472 92.9247 249.37 92.8233C249.269 92.7219 249.168 92.6205 249.066 92.6205C248.965 92.6205 248.965 92.519 248.965 92.519C248.66 92.3162 248.66 92.1133 248.559 91.9105C248.255 91.7076 248.052 91.4033 247.443 91.4033Z" fill="white"/>
<path d="M112.847 42.2108C112.847 42.2108 112.746 42.2108 112.847 42.2108C112.746 42.3123 112.746 42.3123 112.644 42.3123C112.34 42.5151 111.934 42.8194 111.63 43.1237C110.92 43.8337 110.21 44.848 109.906 46.0651C109.805 46.3694 109.805 46.6737 109.703 46.978C109.703 47.0794 109.703 47.1808 109.703 47.3837C109.906 48.3979 111.326 49.2094 112.949 49.6151C113.152 49.6151 113.253 49.7165 113.456 49.7165C114.47 49.9193 115.484 49.9194 116.194 49.6151C116.499 49.5137 116.803 49.3108 116.904 49.1079C117.006 49.0065 117.006 48.9051 117.107 48.8036C117.31 48.3979 117.31 47.8908 117.209 47.3837C117.107 46.8765 116.904 46.3694 116.702 45.8622C116.6 45.558 116.397 45.2537 116.296 45.0508C116.195 44.848 116.093 44.6451 115.992 44.5437C115.89 44.4423 115.89 44.3408 115.789 44.2394C115.383 43.5294 114.876 43.0222 114.47 42.6165C114.064 42.008 113.557 41.8051 112.847 42.2108Z" fill="white"/>
<path d="M419.363 353.29C419.262 353.29 419.262 353.29 419.262 353.29C419.059 353.29 418.856 353.493 418.856 353.696C418.856 354.101 418.958 355.014 418.45 355.825C418.349 356.028 418.248 356.231 418.045 356.434C418.045 356.536 417.943 356.637 417.943 356.637C417.639 357.347 418.045 357.955 418.653 358.057C418.755 358.057 418.755 358.057 418.856 358.057C419.262 358.057 419.566 357.955 419.972 357.854C420.175 357.753 420.276 357.753 420.479 357.651C420.58 357.651 420.682 357.55 420.783 357.448C421.189 357.246 421.798 356.84 422.102 356.535C422.406 356.231 422.508 356.028 422.609 355.724C422.609 355.623 422.609 355.42 422.508 355.318C422.508 355.217 422.406 355.116 422.305 355.014C422.203 354.913 422.102 354.913 422 354.811C421.392 354.406 420.783 354 420.479 353.797C420.276 353.493 419.972 353.29 419.363 353.29Z" fill="white"/>
<path d="M40.2251 389.906C40.3266 389.906 40.3266 389.906 40.2251 389.906C40.428 389.804 40.6309 389.804 40.7323 389.703C41.0366 389.5 41.138 389.094 41.2394 388.689C41.2394 388.587 41.2394 388.486 41.2394 388.384V388.283C41.138 387.877 40.7321 387.674 40.3264 387.573H40.2251C40.0223 387.573 39.7178 387.573 39.515 387.674C39.4135 387.674 39.3121 387.776 39.3121 387.877L39.2109 387.979C39.1094 388.08 39.1092 388.283 39.0078 388.384C39.0078 388.486 39.0078 388.689 39.0078 388.79C39.0078 388.892 39.0078 388.993 39.0078 388.993C39.0078 389.094 39.0078 389.094 39.0078 389.196V389.297C39.1092 389.5 39.2107 389.703 39.3121 389.804C39.6164 389.906 39.9209 390.007 40.2251 389.906Z" fill="white"/>
<path d="M90.4326 112.297C90.2297 112.297 90.1281 112.399 90.0267 112.5C89.8239 112.703 89.7225 112.805 89.6211 113.21C89.6211 113.312 89.6211 113.413 89.6211 113.515V113.616C89.6211 113.92 89.9253 114.529 90.331 114.63H90.4326C90.7368 114.63 91.0411 114.529 91.1425 114.326C91.2439 114.225 91.2439 114.225 91.3453 114.123L91.4468 114.022C91.5483 113.92 91.7509 113.819 91.7509 113.616C91.7509 113.413 91.6496 113.312 91.5481 113.21C91.4467 113.109 91.4467 113.109 91.3453 113.109L91.2438 113.007C91.2438 113.007 91.1425 113.007 91.1425 112.906C91.0411 112.805 91.0411 112.703 90.9397 112.602C90.8383 112.5 90.7368 112.297 90.4326 112.297Z" fill="white"/>
<g style="mix-blend-mode:screen">
<path d="M0 0.000244141H1792V740H0V0.000244141Z" fill="#5B55FF" fill-opacity="0.3"/>
</g>
<g clip-path="url(#clip1_5100_184041)">
<path d="M1794.3 585.036C1780.42 583.768 1766.75 582.162 1752.79 582.182C1740.15 582.182 1727.52 582.717 1714.87 582.757C1690.41 582.876 1667.92 580.894 1646.35 570.289C1625.6 560.081 1604.23 543.629 1579.51 541.567C1563.89 540.239 1550.12 546.126 1535.55 549.873C1517.63 554.726 1499.36 558.133 1480.9 560.061C1462.07 561.868 1443.11 561.802 1424.29 559.863C1415.43 558.666 1406.51 557.945 1397.57 557.702C1389.64 557.702 1381.89 558.019 1374.04 558.178C1358.96 558.495 1344.01 558.515 1329.44 554.769C1316.68 551.498 1309.96 543.55 1303.32 534.194C1294.83 522.301 1282.98 512.212 1267.06 507.91C1251.7 503.787 1235.86 504.62 1219.99 504.085C1203.44 503.53 1186.69 502.103 1170.14 503.629C1153.52 505.104 1137.66 511.232 1124.37 521.31C1112.78 529.959 1099.16 535.475 1084.82 537.326C1066.73 539.803 1048.49 538.971 1030.31 537.504C1011.48 536.017 992.436 533.877 973.486 535.066C953.565 536.315 934.774 541.865 916.558 548.624C883.614 560.814 852.594 576.89 818.56 586.84C798.041 592.545 777.152 596.824 756.042 599.645C732.647 603.176 709.077 605.439 685.438 606.424C680.231 606.609 674.985 606.728 669.699 606.781V607.058C666.092 607.058 662.484 607.058 658.936 606.88C638.024 606.285 617.172 604.521 596.558 602.142C578.006 600.2 559.576 597.229 541.354 593.242C511.285 586.305 483.871 575.125 454.813 566.642C438.479 561.506 421.59 558.339 404.505 557.207C387.776 556.374 370.948 557.861 354.318 558.892C338.295 560.23 322.187 560.19 306.171 558.773C293.863 557.603 281.951 553.797 271.245 547.613C258.913 540.425 245.073 536.217 230.828 535.324C216.22 534.273 201.413 535.324 186.785 535.641C172.771 536.017 158.777 535.423 145.16 538.297C132.803 540.805 121.581 547.219 113.148 556.592C107.201 563.114 101.254 568.644 90.0548 570.923C77.2104 573.52 63.9901 573.5 50.67 573.282C43.7523 573.282 36.7949 572.985 29.897 572.965C21.9683 572.965 14.1781 573.797 6.28909 574.452C-10.3449 575.803 -27.0593 575.856 -43.7015 574.61C-59.9299 573.263 -76.0569 570.893 -91.9867 567.514C-104.831 564.898 -117.002 560.814 -130.798 561.726C-152.601 563.173 -171.511 574.61 -189.846 581.726C-208.875 589.1 -228.756 590.487 -250.361 590.408C-261.521 590.408 -272.68 590.011 -283.86 589.992C-296.169 589.992 -308.3 591.102 -320.51 591.974C-328.617 592.568 -336.744 593.084 -344.891 593.441V738.931H1821.89V587.137C1812.69 586.642 1803.48 585.889 1794.3 585.036Z" fill="#34257C"/>
<path opacity="0.8" d="M2028.39 609.674C1970.22 604.639 1934.72 601.448 1875.43 604.639C1814.68 607.93 1756.14 615.64 1696.34 620.952C1575.01 631.715 1448.41 625.571 1326.81 618.97C1297.49 617.384 1268.37 615.541 1239.33 613.202C1209.2 610.764 1179.1 608.128 1148.63 606.542C1119.57 605.016 1090.06 604.282 1060.88 605.65C1030.33 607.038 1001.57 610.942 972.355 614.768C888.708 625.729 801.89 637.642 713.723 638.752C625.655 637.642 538.758 625.729 455.111 614.768C425.894 610.942 397.132 607.038 366.587 605.65C337.409 604.282 307.895 605.016 278.837 606.542C248.371 608.128 218.261 610.764 188.132 613.202C159.094 615.541 129.976 617.384 100.66 618.97C-20.9659 625.61 -147.546 631.755 -268.874 620.952C-328.676 615.64 -387.21 607.93 -447.963 604.639C-447.963 646.879 -449.826 761.23 -449.826 761.23H2028.29C2028.29 761.23 2028.39 662.558 2028.39 609.674Z" fill="#DD4C6F"/>
<path d="M2028.39 647.335C1970.22 642.3 1918.86 639.109 1859.57 642.3C1798.82 645.591 1740.29 653.301 1680.48 658.613C1559.16 669.377 1432.55 663.232 1310.95 656.631C1281.63 655.046 1252.51 653.202 1223.46 650.863C1193.35 648.425 1163.24 645.789 1132.77 644.203C1103.71 642.677 1074.2 641.943 1045.02 643.311C1014.48 644.699 985.715 648.603 956.498 652.429C872.851 663.39 786.032 675.303 697.866 676.413C609.798 675.303 522.901 663.39 439.253 652.429C410.036 648.603 381.275 644.699 350.73 643.311C321.552 641.943 292.038 642.677 262.979 644.203C232.513 645.789 202.404 648.425 172.275 650.863C143.236 653.202 114.119 655.046 84.8023 656.631C-36.8232 663.272 -163.404 669.416 -284.732 658.613C-344.534 653.301 -389.073 645.591 -449.826 642.3V761.23H2028.39V647.335Z" fill="#DD4C6F"/>
<path opacity="0.7" d="M12.4141 691.358C20.3427 691.358 250.274 641.507 722.028 699.148C1193.78 756.789 1284.96 738.93 1284.96 738.93" stroke="#BB3858" stroke-width="3.96433" stroke-miterlimit="10"/>
<path opacity="0.7" d="M1273.07 695.324C1273.07 695.324 1022.05 676.037 938.441 684.679C854.834 693.322 858.441 714.412 711.939 697.92" stroke="#BB3858" stroke-width="3.96433" stroke-miterlimit="10"/>
<path d="M1063.08 712.033C1063.08 712.033 1066.35 706.463 1081.49 682.063C1096.64 657.663 1114.1 627.93 1140.26 627.93C1166.43 627.93 1173.96 628.069 1207.66 635.859C1250.14 645.77 1257.21 657.663 1273.07 667.573C1286.31 644.838 1316.4 602.915 1338.09 598.198C1356.32 594.233 1396.4 591.419 1412.34 598.198C1435.61 608.108 1493.61 618.019 1522.82 618.019C1552.04 618.019 1586.25 683.431 1586.25 683.431C1586.25 683.431 1617.97 550.626 1728.19 575.442C1761.89 583.014 1807.3 595.264 1814.2 471.339C1818.16 399.981 1944.57 366.403 1952.71 336.552C1960.86 306.701 2028.29 312.29 2028.29 312.29V762.103H1036.08L1063.08 712.033Z" fill="#FF6288"/>
<path d="M1748.1 605.155C1781.79 612.707 1827.2 624.976 1834.08 501.051C1838.05 429.694 1964.47 396.116 1972.61 366.264C1977.87 347.037 2007.82 342.478 2028.39 341.745V312.27C2028.39 312.27 1961 306.74 1952.81 336.532C1944.63 366.324 1818.26 399.961 1814.3 471.319C1807.4 595.303 1761.91 582.974 1728.31 575.422C1624.13 551.973 1590.1 669.218 1586.65 682.221C1593.82 692.088 1600.33 702.418 1606.13 713.143C1606.13 713.143 1637.85 580.358 1748.1 605.155Z" fill="#FF85A2"/>
<path d="M-328.516 80.8531C-328.516 80.8531 -307.287 133.361 -269.052 245.373C-248.774 304.838 -237.337 386.106 -253.194 413.857C-217.515 397.999 -147.109 389.753 -130.3 394.035C-21.2811 421.785 -2.13342 475.918 14.3978 472.707C42.1481 467.375 124.646 484.362 137.292 524.858C155.131 582.34 145.221 556.572 145.221 556.572C145.221 556.572 169.007 582.34 289.919 596.216C382.208 606.8 490.117 629.912 480.206 738.931L478.481 761.488L300.761 762.856L-449.824 769.913V84.8175L-328.516 80.8531Z" fill="#FF6288"/>
<path d="M-338.428 116.532C-336.446 124.461 -249.727 381.191 -276.981 449.536C-276.981 449.536 -174.781 405.928 -121.817 434.63C-68.8538 463.331 -43.3833 493.143 -43.3833 493.143C-43.3833 493.143 104.982 465.393 113.208 556.572C125.398 580.358 201.533 606.503 245.715 615.225C289.898 623.946 402.623 627.91 428.53 668.545C454.437 709.179 457.014 762.143 457.014 762.143L-449.746 769.893V116.532H-338.428Z" fill="#FF6288"/>
<path d="M1338.72 696.354C1301.43 696.354 1283.06 690.051 1276.52 681.151C1271.09 673.777 1271.9 669.912 1273.07 667.573L1275.29 663.827L1273.07 667.573L1275.29 663.827C1275.29 664.025 1274.12 673.123 1279.51 678.534C1289.42 688.564 1323.36 702.32 1438.32 681.508C1465.34 676.631 1484.17 666.423 1494.3 651.2C1500.94 641.063 1503.56 628.816 1501.65 616.849L1506.33 617.246C1507.97 629.954 1504.87 642.82 1497.61 653.381C1486.85 669.555 1467.14 680.338 1439.02 685.412C1395.31 693.341 1362.82 696.354 1338.72 696.354Z" fill="#DD4C6F"/>
<path d="M1295.65 635.263C1295.65 635.363 1289.7 645.789 1294.32 654.173C1298.94 662.558 1315.73 671.596 1370.04 667.573L1377.09 667.097C1411.29 664.897 1482.45 660.318 1484.67 615.006L1488.63 615.363C1486.25 664.203 1412.71 668.782 1377.37 671.061L1370.43 671.537C1361.54 672.198 1353.36 672.528 1345.9 672.528C1315.35 672.528 1296.9 666.998 1290.91 656.056C1288.96 652.282 1288.27 647.983 1288.93 643.787L1295.65 635.263Z" fill="#DD4C6F"/>
<path d="M-227.428 686.661H-230.678C-271.216 685.925 -311.31 678.075 -349.133 663.47L-347.567 659.823C-310.187 674.253 -270.562 682.002 -230.5 682.717C-192.661 683.113 -158.052 676.255 -127.428 662.32C-89.271 644.917 -57.438 616.314 -32.7997 577.345C-17.4379 553.024 17.4084 541.864 70.689 544.124C95.9962 545.354 121.175 548.488 146.011 553.5L147.3 558.296C145.913 557.94 5.49564 524.263 -29.4102 579.446C-85.3271 667.692 -167.289 686.661 -227.428 686.661Z" fill="#DD4C6F"/>
<path d="M127.38 508.266C125.08 527.433 97.2507 527.493 65.3974 528.226C42.2853 528.781 16.1015 529.396 -6.39606 536.532C-78.745 601.784 -167.387 617.8 -229.053 619.683C-233.797 619.829 -238.455 619.901 -243.027 619.901C-302.829 619.901 -346.417 608.167 -346.893 608.008L-345.841 604.203C-345.346 604.322 -295.336 617.78 -229.053 615.699C-168.002 613.717 -80.2122 597.86 -8.73535 533.281L-8.41788 532.983L-8.02203 532.865C15.1098 525.431 41.7897 524.797 65.318 524.242C97.7858 523.489 123.475 522.26 123.475 504.421L127.38 508.266Z" fill="#DD4C6F"/>
<path d="M93.9214 486.304C96.5775 489.257 98.5792 492.825 97.0727 497.166C93.1084 508.682 62.9599 512.548 5.06088 509.059C-12.7786 522.102 -75.8116 551.2 -151.273 564.738C-175.07 569.125 -199.205 571.413 -223.403 571.576C-272.263 571.576 -323.522 560.892 -361.6 526.343L-358.923 523.41C-302.234 574.946 -215.097 572.151 -151.966 560.833C-76.3064 547.255 -13.5316 518.058 3.27713 505.451L3.85202 505.015H4.58566C80.1655 509.673 91.8009 500.159 93.3271 495.858C94.8534 491.556 89.362 485.194 87.0429 483.529L93.9214 486.304Z" fill="#DD4C6F"/>
<path d="M471.304 761.309L435.01 745.868C403.296 732.112 296.08 683.787 261.492 645.491C251.581 634.569 248.389 624.936 251.838 616.849C257.23 604.242 277.904 599.009 293.86 596.671L313.582 598.97C313.087 598.97 263.374 599.921 255.485 618.395C252.71 624.936 255.703 633.162 264.445 642.835C304.504 687.216 480.065 760.734 480.798 761.051L471.304 761.309Z" fill="#DD4C6F"/>
<path d="M471.305 679.228C469.931 681.717 468.014 683.865 465.696 685.511C461.355 689.475 451.266 691.458 437.609 691.458C405.359 691.458 353.248 679.664 310.017 651.814C292.177 640.318 284.704 630.823 287.142 622.815C289.58 614.807 302.345 605.61 325.021 602.994C327.737 602.677 330.452 602.419 333.069 602.201L347.955 605.134C320.384 604.084 294.933 610.823 290.929 623.965C289.68 628.088 292.356 635.699 312.157 648.484C371.186 686.542 448.253 692.984 463.059 682.518C467.579 679.327 470.155 676.869 469.006 674.589L471.305 679.228Z" fill="#DD4C6F"/>
<path d="M0.501678 465.948C-6.85216 472.786 -25.405 481.052 -71.6489 479.387C-141.362 476.889 -107.328 432.053 -59.9349 420.259L-73.9882 413.638C-150.46 427.296 -211.57 501.072 -101.56 505.036C8.44968 509 14.4562 472.707 14.4562 472.707L13.108 472.984C10.5183 472.63 8.06184 471.62 5.97198 470.051L0.501678 465.948Z" fill="#FF85A2"/>
<path d="M250.709 590.804C233.841 595.462 217.606 602.697 216.576 614.055C214.593 635.858 261.115 717.266 300.758 762.856C273.008 762.856 214.812 763.688 214.812 763.688C214.812 763.688 149.182 639.823 169.004 608.108C178.538 592.845 199.787 586.463 216.734 584.322L250.709 590.804Z" fill="#FF85A2"/>
<path opacity="0.4" d="M289.916 596.215C187.617 584.481 154.851 564.223 147.2 558.277C145.971 553.44 143.097 543.549 137.29 524.857C124.703 484.362 42.1457 467.375 14.3954 472.707C-2.19531 475.918 -21.2836 421.785 -130.303 394.035C-147.111 389.753 -217.518 397.999 -253.197 413.856C-237.339 386.106 -248.776 304.837 -269.054 245.372C-307.29 133.36 -328.519 80.8528 -328.519 80.8528L-338.43 116.532C-336.448 124.46 -249.728 381.19 -276.983 449.535C-276.983 449.535 -174.782 405.928 -121.818 434.629C-89.2905 452.493 -59.449 474.862 -33.1765 501.071C-33.1765 501.071 104.98 465.392 113.206 556.572C125.397 580.358 201.532 606.503 245.714 615.224C289.897 623.946 402.622 627.91 428.529 668.544C454.436 709.179 457.013 762.142 457.013 762.142C457.013 762.142 457.012 762.142 478.479 761.468C479.411 759.704 479.986 741.151 480.204 738.911C490.115 629.912 382.206 606.8 289.916 596.215Z" fill="#FFA8BD"/>
<path d="M1160.05 657.662C1186.21 657.662 1193.74 657.801 1227.44 665.591C1269.92 675.502 1261.14 677.484 1276.99 687.395C1290.24 664.659 1336.14 632.647 1357.83 627.93C1376.06 623.966 1416.16 621.151 1432.1 627.93C1455.35 637.841 1513.47 647.752 1542.57 647.752C1556.18 647.752 1570.95 662.083 1582.8 677.325C1573.43 661.072 1546.39 618.019 1522.78 618.019C1493.67 618.019 1435.57 608.108 1412.3 598.197C1396.44 591.418 1356.28 594.233 1338.05 598.197C1316.36 602.915 1286.27 644.838 1273.03 667.573C1257.17 657.662 1250.1 645.769 1207.62 635.859C1173.92 628.069 1166.37 627.93 1140.23 627.93C1114.08 627.93 1096.62 657.662 1081.45 682.063C1066.29 706.463 1063.04 712.033 1063.04 712.033L1036.04 762.162H1075.25C1078.03 757.682 1095.94 720.319 1101.26 711.795C1116.44 687.395 1133.88 657.662 1160.05 657.662Z" fill="#FF85A2"/>
<g filter="url(#filter0_d_5100_184041)">
<path d="M1603.69 553H1554.91C1553.01 553 1551.43 554.579 1551.43 556.474V600.368C1551.43 602.263 1553.01 603.842 1554.91 603.842H1566.27L1557.75 623.105C1556.96 624.842 1557.75 626.895 1559.48 627.684C1561.22 628.474 1563.27 627.684 1564.06 625.947L1573.85 603.842H1584.75L1594.54 625.947C1595.09 627.21 1596.35 628 1597.69 628C1598.17 628 1598.64 627.921 1599.12 627.684C1600.85 626.895 1601.64 624.842 1600.85 623.105L1592.33 603.842H1603.69C1605.59 603.842 1607.17 602.263 1607.17 600.368V556.474C1607.17 554.579 1605.67 553 1603.69 553ZM1600.22 596.895H1558.38V559.947H1600.3V596.895H1600.22Z" fill="#FF6288"/>
<path d="M1565.8 591.368H1592.8C1593.43 591.368 1594.06 590.974 1594.38 590.421C1594.7 589.868 1594.62 589.158 1594.3 588.605L1587.43 578.579C1586.8 577.632 1585.14 577.632 1584.51 578.579L1581.67 582.605L1576.46 575.026C1575.83 574.079 1574.17 574.079 1573.54 575.026L1564.3 588.526C1563.91 589.079 1563.91 589.789 1564.22 590.342C1564.54 590.974 1565.17 591.368 1565.8 591.368Z" fill="#FF6288"/>
<path d="M1584.75 574.237C1587.32 574.237 1589.41 572.151 1589.41 569.579C1589.41 567.006 1587.32 564.921 1584.75 564.921C1582.18 564.921 1580.09 567.006 1580.09 569.579C1580.09 572.151 1582.18 574.237 1584.75 574.237Z" fill="#FF6288"/>
</g>
<g filter="url(#filter1_d_5100_184041)">
<path d="M301.13 483.286C301.03 482.933 300.853 482.607 300.612 482.33C300.372 482.054 300.073 481.834 299.738 481.686C299.381 481.543 298.998 481.476 298.614 481.489C298.23 481.501 297.853 481.593 297.506 481.759C289.132 485.267 271.341 529.501 268.606 536.405C261.476 538.864 259.606 542.145 256.473 548.605C254.996 551.654 251.805 553.183 249.388 553.929C248.918 554.062 248.506 554.347 248.216 554.741C247.926 555.134 247.776 555.612 247.788 556.101C247.8 556.613 247.98 557.108 248.3 557.508C248.62 557.909 249.063 558.193 249.56 558.319C251.659 558.903 253.827 559.206 256.007 559.219C258.863 559.2 261.692 558.669 264.36 557.651H264.378C264.395 557.644 264.412 557.64 264.429 557.634C271.968 554.829 275.729 544.786 275.416 539.891C278.975 533.848 303.775 491.336 301.13 483.286ZM266.591 554.109C266.586 553.783 266.534 553.46 266.435 553.151C266.168 552.404 265.658 551.769 264.987 551.347C264.316 550.925 263.523 550.74 262.735 550.823C262.274 550.857 261.811 550.778 261.387 550.593C260.963 550.407 260.591 550.121 260.304 549.759C259.965 549.289 259.741 548.747 259.65 548.175C259.558 547.603 259.603 547.018 259.779 546.467C262.012 542.257 263.997 540.097 269.302 538.281L273.425 540.281C273.538 543.947 271.024 550.644 266.591 554.109ZM270.64 536.709C271.822 533.736 273.398 529.891 275.209 525.639L279.967 527.939C277.925 531.593 275.903 535.116 274.007 538.339L270.64 536.709Z" fill="#FF6288"/>
<path d="M242.938 468.02C224.467 468.813 212.975 476.187 205.194 489.349C197.438 502.469 197.249 518.973 203.05 531.107C205.008 535.065 207.727 538.598 211.052 541.504C214.377 544.41 218.242 546.632 222.427 548.044C234.615 551.972 250.538 543.844 248.746 530.552C246.954 517.26 254.924 513.807 265.195 511.376C272.585 509.625 277.285 504.431 278.286 496.965C281.557 472.576 251.756 467.641 242.938 468.02ZM221.511 486.148C222.799 485.883 224.137 486.006 225.356 486.501C226.574 486.997 227.618 487.842 228.356 488.931C229.094 490.02 229.493 491.304 229.501 492.619C229.51 493.934 229.128 495.223 228.404 496.321C227.681 497.42 226.647 498.279 225.435 498.79C224.223 499.302 222.887 499.442 221.595 499.194C220.303 498.946 219.114 498.32 218.178 497.396C217.242 496.472 216.601 495.291 216.336 494.003C215.98 492.275 216.326 490.476 217.297 489.003C218.267 487.53 219.783 486.503 221.511 486.148ZM216.97 520.891C215.681 521.156 214.343 521.032 213.124 520.537C211.906 520.041 210.862 519.196 210.124 518.107C209.386 517.018 208.988 515.734 208.979 514.419C208.971 513.103 209.352 511.815 210.076 510.716C210.8 509.618 211.833 508.759 213.045 508.248C214.257 507.736 215.594 507.596 216.885 507.844C218.177 508.093 219.366 508.719 220.303 509.643C221.239 510.567 221.88 511.748 222.145 513.037C222.5 514.764 222.154 516.562 221.183 518.035C220.213 519.508 218.697 520.535 216.97 520.891ZM230.585 539.482C229.151 539.777 227.662 539.64 226.306 539.089C224.95 538.538 223.788 537.597 222.966 536.386C222.145 535.174 221.702 533.746 221.692 532.282C221.682 530.818 222.107 529.385 222.913 528.162C223.718 526.94 224.868 525.984 226.216 525.415C227.565 524.846 229.052 524.69 230.49 524.967C231.927 525.243 233.25 525.94 234.292 526.969C235.333 527.997 236.046 529.312 236.341 530.746C236.735 532.667 236.35 534.667 235.271 536.305C234.192 537.943 232.506 539.086 230.585 539.482ZM242.997 490.318C241.708 490.582 240.37 490.458 239.152 489.962C237.934 489.466 236.89 488.619 236.153 487.53C235.416 486.441 235.018 485.158 235.01 483.842C235.002 482.527 235.384 481.239 236.108 480.141C236.832 479.043 237.866 478.184 239.078 477.673C240.29 477.162 241.626 477.022 242.918 477.271C244.209 477.52 245.398 478.146 246.334 479.07C247.27 479.994 247.911 481.175 248.176 482.464C248.351 483.319 248.357 484.201 248.192 485.059C248.027 485.917 247.694 486.734 247.213 487.463C246.732 488.193 246.112 488.82 245.389 489.31C244.665 489.8 243.852 490.142 242.997 490.318ZM262.437 499.178C261.148 499.442 259.81 499.319 258.592 498.824C257.373 498.328 256.329 497.483 255.591 496.394C254.853 495.305 254.455 494.021 254.446 492.706C254.438 491.391 254.819 490.102 255.543 489.004C256.267 487.905 257.3 487.046 258.512 486.535C259.724 486.024 261.06 485.883 262.352 486.131C263.644 486.38 264.833 487.005 265.769 487.929C266.705 488.853 267.347 490.034 267.612 491.323C267.966 493.05 267.62 494.848 266.65 496.32C265.68 497.793 264.164 498.82 262.437 499.176V499.178Z" fill="#FF6288"/>
<path d="M213.335 555.3C213.171 556.52 212.081 558.362 211 558.216C210.571 558.144 210.163 557.981 209.803 557.738C209.443 557.495 209.14 557.177 208.913 556.807C208.687 556.436 208.542 556.021 208.49 555.589C208.439 555.158 208.48 554.721 208.612 554.307C208.918 553.115 209.512 552.536 210.593 552.682C211.674 552.828 213.499 554.076 213.335 555.3Z" fill="#FF6288"/>
<path d="M239.676 556.605C233.038 556.035 222.115 554.718 221.242 557.65C219.834 562.377 230.913 563.077 236.193 561.158C241.473 559.239 242.737 556.868 239.676 556.605Z" fill="#FF6288"/>
</g>
</g>
</g>
</g>
<defs>
<filter id="filter0_d_5100_184041" x="1551.43" y="553" width="55.7363" height="75.7894" filterUnits="userSpaceOnUse" color-interpolation-filters="sRGB">
<feFlood flood-opacity="0" result="BackgroundImageFix"/>
<feColorMatrix in="SourceAlpha" type="matrix" values="0 0 0 0 0 0 0 0 0 0 0 0 0 0 0 0 0 0 127 0" result="hardAlpha"/>
<feOffset dy="0.789472"/>
<feComposite in2="hardAlpha" operator="out"/>
<feColorMatrix type="matrix" values="0 0 0 0 0.720833 0 0 0 0 0.171198 0 0 0 0 0.303869 0 0 0 1 0"/>
<feBlend mode="normal" in2="BackgroundImageFix" result="effect1_dropShadow_5100_184041"/>
<feBlend mode="normal" in="SourceGraphic" in2="effect1_dropShadow_5100_184041" result="shape"/>
</filter>
<filter id="filter1_d_5100_184041" x="199" y="468" width="102.326" height="95.1516" filterUnits="userSpaceOnUse" color-interpolation-filters="sRGB">
<feFlood flood-opacity="0" result="BackgroundImageFix"/>
<feColorMatrix in="SourceAlpha" type="matrix" values="0 0 0 0 0 0 0 0 0 0 0 0 0 0 0 0 0 0 127 0" result="hardAlpha"/>
<feOffset dy="1"/>
<feComposite in2="hardAlpha" operator="out"/>
<feColorMatrix type="matrix" values="0 0 0 0 0.720833 0 0 0 0 0.171198 0 0 0 0 0.303869 0 0 0 1 0"/>
<feBlend mode="normal" in2="BackgroundImageFix" result="effect1_dropShadow_5100_184041"/>
<feBlend mode="normal" in="SourceGraphic" in2="effect1_dropShadow_5100_184041" result="shape"/>
</filter>
<radialGradient id="paint0_radial_5100_184041" cx="0" cy="0" r="1" gradientUnits="userSpaceOnUse" gradientTransform="translate(69 53.9996) rotate(39.1984) scale(797.458 772.704)">
<stop offset="0.260417" stop-color="#4C2193" stop-opacity="0.6"/>
<stop offset="0.51" stop-color="#3D17AD" stop-opacity="0.3"/>
<stop offset="1" stop-color="#1C0958" stop-opacity="0"/>
</radialGradient>
<linearGradient id="paint1_linear_5100_184041" x1="1147.83" y1="862" x2="1147.83" y2="178.632" gradientUnits="userSpaceOnUse">
<stop offset="0.01" stop-color="#612193" stop-opacity="0.6"/>
<stop offset="0.473958" stop-color="#3D17AD" stop-opacity="0.3"/>
<stop offset="1" stop-color="#1C0958" stop-opacity="0"/>
</linearGradient>
<radialGradient id="paint2_radial_5100_184041" cx="0" cy="0" r="1" gradientUnits="userSpaceOnUse" gradientTransform="translate(1792 11.3248) rotate(138.172) scale(834.727 820.786)">
<stop offset="0.243855" stop-color="#4C2193" stop-opacity="0.6"/>
<stop offset="0.51" stop-color="#3D17AD" stop-opacity="0.3"/>
<stop offset="1" stop-color="#1C0958" stop-opacity="0"/>
</radialGradient>
<clipPath id="clip0_5100_184041">
<rect width="1792" height="726" fill="white"/>
</clipPath>
<clipPath id="clip1_5100_184041">
<rect width="2038" height="363.929" fill="white" transform="translate(-246 354.036)"/>
</clipPath>
</defs>
</svg>
