<svg width="1792" height="920" viewBox="0 0 1792 920" fill="none" xmlns="http://www.w3.org/2000/svg">
<path d="M0.0195312 0H1792.02V920H0.0195312V0Z" fill="url(#paint0_linear_7136_162996)"/>
<mask id="mask0_7136_162996" style="mask-type:alpha" maskUnits="userSpaceOnUse" x="0" y="623" width="1792" height="297">
<path d="M1792 623H0V919.771H1792V623Z" fill="#FFC265"/>
</mask>
<g mask="url(#mask0_7136_162996)">
<mask id="mask1_7136_162996" style="mask-type:alpha" maskUnits="userSpaceOnUse" x="-63" y="-213" width="1859" height="1162">
<path d="M-62.0432 -212.337H1795.1V948.378H-62.0432V-212.337Z" fill="#EE5827"/>
</mask>
<g mask="url(#mask1_7136_162996)">
<path opacity="0.4" d="M1476.63 911.382C1476.63 911.382 1451.53 911.237 1420.04 902.097C1392.33 894.117 1385.66 888.748 1372.02 881.204" stroke="#FF9B00" stroke-width="4.35268" stroke-miterlimit="10"/>
<mask id="mask2_7136_162996" style="mask-type:alpha" maskUnits="userSpaceOnUse" x="-4178" y="800" width="10089" height="10089">
<path d="M866.528 800.097C3652.25 800.097 5910.56 3058.27 5910.56 5843.99C5910.56 8629.7 3652.25 10888 866.528 10888C-1919.19 10888 -4177.51 8629.7 -4177.51 5843.99C-4177.51 3058.27 -1919.19 800.097 866.528 800.097ZM866.528 10735.4C3567.95 10735.4 5757.78 8545.41 5757.78 5844.13C5757.78 3142.86 3567.95 952.731 866.528 952.731C-1834.89 952.731 -4024.73 3142.71 -4024.73 5843.99C-4024.73 8545.26 -1834.89 10735.4 866.528 10735.4Z" fill="white"/>
</mask>
<g mask="url(#mask2_7136_162996)">
<path d="M5576.57 2170.47C5538.41 2144.93 5463.4 1786.85 4932.23 1503.06C4434.13 1236.96 4498.84 1223.61 4154.98 1051.68C3811.12 879.752 3249.62 817.509 2702.06 683.882C2154.49 550.109 1284.68 482.643 316.786 578.257C-651.105 673.726 -905.882 654.719 -1440.68 826.65C-1975.63 998.581 -2166.56 1285.28 -2383.18 1387.13C-2599.66 1488.98 -3096.88 1769.73 -3109.65 2164.66L5576.57 2170.47Z" fill="#FFB542"/>
<path opacity="0.4" d="M5576.57 2166.7C5538.41 2141.16 5463.4 1783.08 4932.23 1499.28C4434.13 1233.34 4498.84 1219.99 4154.98 1048.06C3811.12 876.125 3249.62 813.882 2702.06 680.254C2154.49 546.482 1284.68 479.015 316.786 574.629C-651.105 670.098 -905.882 651.091 -1440.68 823.022C-1975.63 994.953 -2166.56 1281.65 -2383.18 1383.5C-2599.66 1485.36 -3096.88 1766.1 -3109.65 2161.04L5576.57 2166.7Z" fill="#FFF6E9"/>
<path d="M3168.66 1203.45C3226.99 1164.42 3919.79 1599.25 4000.17 1587.79C4098.25 1573.71 3836.95 1387.27 3536.18 1256.84C3235.41 1126.55 2847.73 972.754 2687.4 946.058C2526.93 919.361 2353.26 855.812 2045.82 782.252C1738.37 708.691 1297.3 738.87 1036.57 708.691C775.849 678.658 615.525 648.479 341.451 708.691C67.3777 768.903 -213.226 738.725 -473.952 738.725C-734.677 738.725 -1115.54 892.52 -1289.35 1032.82C-1463.17 1173.27 -1605.07 1161.37 -1889.88 1378.86C-2255.36 1658.01 -2312.67 1765.81 -2312.67 1765.81L-1778.45 1585.9C-1405.86 1534.4 -1204.62 1325.61 -1045.6 1235.37C-886.441 1145.12 -414.754 989.294 -87.2876 972.609C28.929 966.66 65.4915 919.941 195.346 916.169C266.44 914.138 345.369 900.354 415.883 869.305C471.452 844.785 532.824 875.254 605.079 850.008C683.863 822.586 700.693 823.022 773.093 831.437C835.191 838.691 900.481 850.008 963.45 843.624C1022.21 837.676 1053.26 851.169 1101.43 865.533C1153.08 880.912 1176.88 860.455 1248.41 889.473C1302.38 911.236 1331.69 889.473 1384.06 926.906C1448.77 973.334 1487.51 942.575 1523.35 972.464C1659.59 1085.63 1848.06 1130.9 2045.09 1093.18C2179.88 1067.35 2272.01 1119 2359.94 1117.84C2429.87 1116.83 2478.91 1129.45 2516.49 1148.17C2560.88 1170.37 2617.03 1200.25 2670.86 1205.33C2775.47 1215.34 2855.27 1272.94 2942.18 1327.93C2999.34 1364.06 3064.05 1420.06 3142.98 1430.08C3264.57 1445.46 3350.03 1493.77 3417.64 1552.1C3606.4 1715.03 3693.89 1518.29 3197.1 1262.93C3165.76 1246.97 3126.3 1231.74 3168.66 1203.45Z" fill="#FFB542"/>
<path opacity="0.4" d="M1092.72 797.775C1145.39 782.105 1201.4 834.773 1253.77 836.804C1351.27 840.577 1352.29 867.998 1375.5 882.072C1345.76 862.92 1315.29 856.536 1278.29 862.34C1242.46 867.998 1209.52 841.882 1172.81 844.349C1098.53 849.282 1038.46 822.295 981.586 814.315C892.646 801.693 824.599 803.434 822.423 803.289C758.148 797.195 686.039 796.469 598.84 822.005C551.831 835.789 446.786 812.864 405.146 836.659C347.98 869.449 283.125 888.311 242.21 882.072C178.516 872.206 130.201 867.853 71.8753 904.851C-17.0645 961.291 -115.145 929.081 -255.737 938.077C-475.112 952.15 -660.101 1007.14 -660.101 1007.14" stroke="#FF9B00" stroke-width="4.35268" stroke-miterlimit="10"/>
<path opacity="0.5" d="M-255.593 935.901C-209.599 932.999 -167.523 934.45 -130.235 935.756C-51.0166 938.513 11.6624 926.18 71.0039 888.457C129.62 851.314 175.468 869.885 241.484 878.446C281.384 883.524 345.948 868.29 404.419 834.774C428.359 820.99 472.031 822.441 514.252 823.747C547.188 824.763 578.237 825.778 598.549 819.83C689.375 793.133 762.936 795.31 822.857 800.968C823.148 800.968 824.453 800.968 825.904 800.968C889.744 800.823 946.183 806.917 982.166 811.995C1001.46 814.752 1020.9 819.539 1041.36 824.763C1081.99 834.919 1123.92 845.365 1172.81 842.173C1190.66 841.013 1207.78 846.381 1224.17 851.749C1242.46 857.553 1259.72 863.066 1278 860.31C1307.17 855.667 1332.7 858.714 1357.08 869.595C1343 856.537 1322.98 841.738 1253.63 838.982C1230.99 838.111 1207.49 827.955 1184.86 818.089C1154.39 804.885 1122.9 791.247 1093.3 799.952L1092 795.745C1123.05 786.459 1155.26 800.533 1186.45 814.026C1208.8 823.747 1231.86 833.758 1253.77 834.629C1329.66 837.531 1348.08 854.941 1363.03 869.015C1366.8 872.642 1370.57 876.124 1374.92 879.026C1375.5 879.461 1376.08 879.752 1376.81 880.187L1376.23 881.057C1377.1 881.638 1377.97 882.073 1378.84 882.653C1389.14 888.602 1397.27 893.39 1420.63 900.064C1451.39 908.915 1476.2 909.205 1476.63 909.35C1485.63 909.35 1493.32 908.769 1500.72 908.189C1526.54 906.158 1547 904.417 1599.09 933.725C1616.21 943.301 1639.86 944.897 1667.13 946.783C1701.52 949.104 1740.69 951.861 1777.55 971.738C1821.8 995.533 1873.6 1016.43 1953.39 1007.58C2053.22 996.549 2090.5 1012.8 2133.74 1031.81C2147.38 1037.75 2153.47 1041.82 2167.11 1048.35C2168.85 1049.22 2177.41 1052.99 2182.35 1055.16C2212.96 1066.19 2261.56 1080.85 2300.59 1078.52C2313.22 1077.8 2325.98 1075.62 2339.48 1073.3C2390.11 1064.6 2447.57 1054.58 2529.11 1114.8C2605.57 1171.24 2638.65 1174.86 2748.19 1186.33C2789.54 1190.68 2830.17 1217.52 2873.41 1246.1C2891.25 1258 2909.82 1270.19 2928.83 1281.07C3039.82 1344.47 3165.76 1390.61 3303.16 1418.03H3303.31C3303.6 1418.18 3339.14 1428.33 3383.54 1457.5C3399.79 1468.23 3413.43 1483.47 3427.94 1499.57C3453.91 1528.45 3480.61 1558.33 3527.76 1569.94L3526.74 1574.15C3478.43 1562.25 3449.85 1530.48 3424.75 1502.48C3410.53 1486.52 3397.03 1471.57 3381.22 1461.12C3338.42 1432.98 3304.03 1422.68 3302.29 1422.24C3164.46 1394.67 3038.08 1348.39 2926.65 1284.7C2907.5 1273.81 2888.93 1261.48 2870.94 1249.58C2828.28 1221.44 2787.95 1194.74 2747.76 1190.53C2637.35 1178.78 2603.98 1175.3 2526.64 1118.13C2446.55 1058.94 2390.11 1068.8 2340.35 1077.36C2326.71 1079.68 2313.8 1082.01 2301.03 1082.73C2245.46 1085.92 2171.46 1055.89 2154.34 1048.64C2122.28 1038.62 2076.72 1027.31 2031.02 1042.54C1988.22 1056.76 1899.42 1097.68 1816.57 1075.91C1816.57 1075.91 1722.41 1053.13 1670.61 1007.58C1666.84 1004.24 1660.31 999.741 1651.75 993.212C1645.22 988.133 1636.95 985.377 1627.23 982.185C1613.01 977.397 1595.17 971.593 1574.71 955.633C1546.13 933.435 1507.53 916.894 1476.49 913.557C1474.45 913.557 1449.79 912.977 1419.47 904.127C1395.67 897.307 1387.26 892.374 1376.66 886.281C1374.78 885.265 1372.89 884.104 1370.86 882.944L1371.44 881.928C1343 864.517 1313.4 858.859 1278.73 864.372C1259.43 867.419 1240.86 861.47 1222.87 855.667C1206.76 850.589 1190.22 845.22 1173.1 846.381C1123.48 849.573 1081.26 839.127 1040.35 828.825C1019.89 823.747 1000.59 818.959 981.585 816.202C946.038 811.124 890.759 805.176 827.936 805.176C827.21 805.176 826.63 805.176 825.904 805.176C823.438 805.176 822.712 805.176 822.422 805.176C762.791 799.517 689.811 797.341 599.71 823.892C578.817 829.986 547.333 829.115 514.107 827.955C472.466 826.649 429.375 825.198 406.595 838.401C347.399 872.352 281.674 887.877 240.904 882.653C175.904 874.238 130.491 855.667 73.3254 892.084C12.8232 930.533 -50.4355 942.72 -130.38 939.964C-167.523 938.658 -209.599 937.207 -255.302 940.109C-471.921 954.037 -657.345 1008.59 -659.231 1009.03L-660.537 1004.82C-658.65 1004.53 -472.791 949.975 -255.593 935.901ZM1577.32 952.151C1597.2 967.676 1614.61 973.479 1628.54 977.977C1638.55 981.314 1647.26 984.216 1654.36 989.729C1662.34 995.823 1667.57 999.886 1671.05 1002.64C1671.05 1002.64 1712.98 1043.85 1807.14 1069.82C1899.71 1095.21 1994.6 1050.09 2029.42 1038.48C2064.97 1026.73 2105.45 1030.93 2137.95 1038.33C2135.92 1037.46 2133.89 1036.59 2131.85 1035.72C2089.2 1017.01 2052.35 1000.9 1953.68 1011.78C1872.72 1020.78 1820.06 999.595 1775.22 975.511C1739.1 956.069 1700.5 953.457 1666.55 951.136C1638.7 949.249 1614.76 947.653 1596.76 937.497C1545.84 908.915 1526.98 910.511 1500.86 912.542C1499.26 912.687 1497.81 912.832 1496.22 912.977C1523.78 919.506 1553.82 933.87 1577.32 952.151Z" fill="#FFE6BE"/>
<path opacity="0.4" fill-rule="evenodd" clip-rule="evenodd" d="M3406.46 1427.75C3390.07 1427.75 3158.07 1373.49 3014.72 1307.91C2947.84 1277.3 2841.92 1176.17 2678.26 1144.39C2603.25 1129.89 2561.32 1101.74 2481.37 1065.32C2432.48 1043.12 2391.71 1048.2 2325.55 1043.85C2169.58 1033.84 2108.64 967.386 1985.75 975.801C1894.92 982.04 1790.6 962.308 1700.94 917.04C1644.79 888.602 1583.27 875.399 1521.9 881.928C1449.93 889.473 1377.53 836.805 1303.68 809.093C1046.88 712.899 612.187 649.35 364.084 819.394C317.656 851.169 305.033 864.082 250.915 848.702C-19.0969 771.805 7.88989 932.709 -110.503 894.696C-366.441 812.575 -618.606 952.151 -912.412 1061.69C-1206.22 1171.24 -1358.27 1395.11 -1520.05 1462C-1681.82 1528.88 -1758.57 1515.97 -1758.57 1515.97L-1252.07 1082.88L386.718 571.582L1597.2 422.865L3073.05 1228.4L3406.46 1427.75Z" fill="#FF9B00"/>
<path d="M2456.86 1044.28L2457.29 1039.93C2455.55 1039.79 2280.57 1021.65 2217.02 987.118C2149.41 950.265 2095.87 931.839 2007.08 939.819C1941.06 945.767 1866.49 938.077 1818.61 928.792C1756.94 916.894 1714.29 896.002 1676.85 877.575C1638.26 858.568 1604.89 842.173 1564.12 844.35L1560.64 844.495C1492.88 847.832 1458.93 849.573 1421.06 817.218L1418.31 820.555C1457.48 854.071 1492.16 852.33 1560.93 848.847L1564.41 848.702C1604.16 846.671 1635.36 862.051 1675.11 881.493C1712.84 900.064 1755.78 921.102 1818.03 932.999C1866.2 942.285 1941.35 949.975 2007.8 944.026C2095.58 936.191 2148.4 954.327 2215.28 990.745C2279.12 1025.86 2455.11 1044.14 2456.86 1044.28Z" fill="#FFB542"/>
<path d="M1094.18 1014.4C1094.18 1014.4 439.387 958.1 181.128 1078.38C-195.234 1253.65 -644.576 1204.9 -887.891 1538.75C-887.891 1538.75 -1906.56 1699.07 -1658.32 1609.84C-1222.03 1453 -1117.71 1251.47 -665.614 1155.71C-232.812 1064.16 -362.667 1165.58 -84.0957 1051.25C12.5339 1011.49 54.3197 952.732 144.13 948.234C271.809 941.85 349.432 923.714 421.686 896.147C478.126 874.529 540.224 897.743 592.892 881.058C687.925 851.024 745.09 857.118 835.626 905.433C899.32 939.384 954.454 928.357 998.852 945.332C1093.3 981.46 1094.18 1014.4 1094.18 1014.4Z" fill="#FFB542"/>
<path opacity="0.4" d="M230.892 975.946C245.691 975.946 325.78 973.915 417.477 932.564C436.484 924.004 461.004 923.714 486.975 923.569C503.37 923.423 520.491 923.278 536.886 920.957C620.022 909.205 634.966 915.734 637.433 919.216C637.868 919.796 638.158 920.522 637.578 922.118C631.194 936.627 564.017 964.049 527.02 967.386L527.455 971.738C563.292 968.546 634.096 940.834 641.64 923.859C643.091 920.522 642.076 918.055 641.06 916.604C634.241 907.609 600 907.754 536.305 916.749C520.055 919.071 503.225 919.216 486.975 919.361C460.569 919.651 435.613 919.796 415.736 928.792C315.479 974.06 229.441 971.883 228.571 971.738L228.425 976.091C228.57 975.946 229.441 975.946 230.892 975.946Z" fill="#FFF6E9"/>
<path fill-rule="evenodd" clip-rule="evenodd" d="M1606.92 1029.92C1604.02 1029.19 1465.03 1030.21 1363.03 947.799C1331.11 922.118 1284.1 937.788 1225.34 911.962C1179.78 892.085 1169.48 915.589 1113.47 900.21C1047.02 882.073 1040.35 868.58 971.722 873.368C911.074 877.721 833.161 872.352 795.293 857.408C820.248 864.082 891.342 903.982 954.601 906.303C990.728 907.609 1053.26 927.341 1090.69 955.489C1131.61 986.393 1209.81 977.832 1270.46 1008.59C1472.43 1111.31 1844.87 1086.36 1606.92 1029.92Z" fill="#FFB542"/>
<g opacity="0.4">
<path d="M463.036 913.268C459.51 913.268 456.652 910.409 456.652 906.884C456.652 903.358 459.51 900.5 463.036 900.5C466.562 900.5 469.42 903.358 469.42 906.884C469.42 910.409 466.562 913.268 463.036 913.268Z" fill="#FFF6E9"/>
<path d="M173.729 906.882C170.203 906.882 167.345 904.024 167.345 900.498C167.345 896.972 170.203 894.114 173.729 894.114C177.255 894.114 180.113 896.972 180.113 900.498C180.113 904.024 177.255 906.882 173.729 906.882Z" fill="#FFF6E9"/>
<path d="M2.52434 900.499C1.00186 900.499 -0.232219 899.265 -0.232219 897.742C-0.232219 896.22 1.00186 894.985 2.52434 894.985C4.04682 894.985 5.28125 896.22 5.28125 897.742C5.28125 899.265 4.04682 900.499 2.52434 900.499Z" fill="#FFF6E9"/>
<path d="M355.382 848.702C353.859 848.702 352.625 847.467 352.625 845.945C352.625 844.422 353.859 843.188 355.382 843.188C356.904 843.188 358.139 844.422 358.139 845.945C358.139 847.467 356.904 848.702 355.382 848.702Z" fill="#FFF6E9"/>
<path d="M143.261 903.255C141.738 903.255 140.504 902.021 140.504 900.498C140.504 898.976 141.738 897.741 143.261 897.741C144.783 897.741 146.018 898.976 146.018 900.498C146.018 902.021 144.783 903.255 143.261 903.255Z" fill="#FFF6E9"/>
<path d="M494.954 847.107C493.432 847.107 492.197 845.872 492.197 844.35C492.197 842.827 493.432 841.593 494.954 841.593C496.477 841.593 497.711 842.827 497.711 844.35C497.711 845.872 496.477 847.107 494.954 847.107Z" fill="#FFF6E9"/>
<path d="M833.161 827.519C831.639 827.519 830.404 826.285 830.404 824.762C830.404 823.24 831.639 822.005 833.161 822.005C834.684 822.005 835.918 823.24 835.918 824.762C835.918 826.285 834.684 827.519 833.161 827.519Z" fill="#FFF6E9"/>
<path d="M1408 878.883C1404.48 878.883 1401.62 876.024 1401.62 872.499C1401.62 868.973 1404.48 866.115 1408 866.115C1411.53 866.115 1414.39 868.973 1414.39 872.499C1414.39 876.024 1411.53 878.883 1408 878.883Z" fill="#FFF6E9"/>
<path d="M693.728 902.386C690.202 902.386 687.344 899.528 687.344 896.002C687.344 892.476 690.202 889.618 693.728 889.618C697.253 889.618 700.111 892.476 700.111 896.002C700.111 899.528 697.253 902.386 693.728 902.386Z" fill="#FFF6E9"/>
<path d="M887.133 833.178C883.608 833.178 880.75 830.32 880.75 826.794C880.75 823.269 883.608 820.41 887.133 820.41C890.659 820.41 893.518 823.269 893.518 826.794C893.518 830.32 890.659 833.178 887.133 833.178Z" fill="#FFF6E9"/>
<path d="M1093.01 826.939C1089.49 826.939 1086.63 824.08 1086.63 820.555C1086.63 817.029 1089.49 814.171 1093.01 814.171C1096.54 814.171 1099.4 817.029 1099.4 820.555C1099.4 824.08 1096.54 826.939 1093.01 826.939Z" fill="#FFF6E9"/>
<path d="M737.255 892.373C735.733 892.373 734.498 891.139 734.498 889.617C734.498 888.094 735.733 886.86 737.255 886.86C738.778 886.86 740.012 888.094 740.012 889.617C740.012 891.139 738.778 892.373 737.255 892.373Z" fill="#FFF6E9"/>
<path d="M1131.46 829.551C1129.94 829.551 1128.71 828.316 1128.71 826.794C1128.71 825.271 1129.94 824.037 1131.46 824.037C1132.98 824.037 1134.22 825.271 1134.22 826.794C1134.22 828.316 1132.98 829.551 1131.46 829.551Z" fill="#FFF6E9"/>
<path d="M1005.09 892.373C1003.57 892.373 1002.34 891.139 1002.34 889.617C1002.34 888.094 1003.57 886.86 1005.09 886.86C1006.62 886.86 1007.85 888.094 1007.85 889.617C1007.85 891.139 1006.62 892.373 1005.09 892.373Z" fill="#FFF6E9"/>
<path d="M1091.42 920.376C1089.9 920.376 1088.66 919.142 1088.66 917.62C1088.66 916.097 1089.9 914.863 1091.42 914.863C1092.94 914.863 1094.18 916.097 1094.18 917.62C1094.18 919.142 1092.94 920.376 1091.42 920.376Z" fill="#FFF6E9"/>
<path d="M1637.68 925.165C1634.16 925.165 1631.3 922.306 1631.3 918.781C1631.3 915.255 1634.16 912.397 1637.68 912.397C1641.21 912.397 1644.07 915.255 1644.07 918.781C1644.07 922.306 1641.21 925.165 1637.68 925.165Z" fill="#FFF6E9"/>
<path d="M1469.96 837.531C1468.43 837.531 1467.2 836.297 1467.2 834.774C1467.2 833.252 1468.43 832.018 1469.96 832.018C1471.48 832.018 1472.71 833.252 1472.71 834.774C1472.71 836.297 1471.48 837.531 1469.96 837.531Z" fill="#FFF6E9"/>
<path d="M1338.07 888.313C1336.55 888.313 1335.32 887.079 1335.32 885.556C1335.32 884.034 1336.55 882.8 1338.07 882.8C1339.6 882.8 1340.83 884.034 1340.83 885.556C1340.83 887.079 1339.6 888.313 1338.07 888.313Z" fill="#FFF6E9"/>
<path d="M1247.39 825.924C1245.87 825.924 1244.63 824.69 1244.63 823.167C1244.63 821.645 1245.87 820.41 1247.39 820.41C1248.91 820.41 1250.15 821.645 1250.15 823.167C1250.15 824.69 1248.91 825.924 1247.39 825.924Z" fill="#FFF6E9"/>
</g>
<path d="M1477.79 868.725C1474.27 868.725 1471.41 865.867 1471.41 862.341C1471.41 858.815 1474.27 855.957 1477.79 855.957C1481.32 855.957 1484.18 858.815 1484.18 862.341C1484.18 865.867 1481.32 868.725 1477.79 868.725Z" fill="#FFB542"/>
<path d="M1767.39 906.884C1763.86 906.884 1761.01 904.025 1761.01 900.5C1761.01 896.974 1763.86 894.116 1767.39 894.116C1770.92 894.116 1773.77 896.974 1773.77 900.5C1773.77 904.025 1770.92 906.884 1767.39 906.884Z" fill="#FFB542"/>
<path d="M1553.96 868.581C1552.44 868.581 1551.21 867.347 1551.21 865.824C1551.21 864.302 1552.44 863.067 1553.96 863.067C1555.49 863.067 1556.72 864.302 1556.72 865.824C1556.72 867.347 1555.49 868.581 1553.96 868.581Z" fill="#FFB542"/>
</g>
<path opacity="0.4" d="M1476.63 911.382C1476.63 911.382 1451.53 911.237 1420.04 902.097C1392.33 894.117 1385.66 888.748 1372.02 881.204" stroke="#FF9B00" stroke-width="4.35268" stroke-miterlimit="10"/>
<mask id="mask3_7136_162996" style="mask-type:alpha" maskUnits="userSpaceOnUse" x="-4178" y="800" width="10089" height="10089">
<path d="M866.528 800.097C3652.25 800.097 5910.56 3058.27 5910.56 5843.99C5910.56 8629.7 3652.25 10888 866.528 10888C-1919.19 10888 -4177.51 8629.7 -4177.51 5843.99C-4177.51 3058.27 -1919.19 800.097 866.528 800.097ZM866.528 10735.4C3567.95 10735.4 5757.78 8545.41 5757.78 5844.13C5757.78 3142.86 3567.95 952.731 866.528 952.731C-1834.89 952.731 -4024.73 3142.71 -4024.73 5843.99C-4024.73 8545.26 -1834.89 10735.4 866.528 10735.4Z" fill="white"/>
</mask>
<g mask="url(#mask3_7136_162996)">
<path d="M5576.57 2170.47C5538.41 2144.93 5463.4 1786.85 4932.23 1503.06C4434.13 1236.96 4498.84 1223.61 4154.98 1051.68C3811.12 879.752 3249.62 817.509 2702.06 683.882C2154.49 550.109 1284.68 482.643 316.786 578.257C-651.105 673.726 -905.882 654.719 -1440.68 826.65C-1975.63 998.581 -2166.56 1285.28 -2383.18 1387.13C-2599.66 1488.98 -3096.88 1769.73 -3109.65 2164.66L5576.57 2170.47Z" fill="#F45A7F"/>
<path d="M3168.66 1203.45C3226.99 1164.42 3919.79 1599.25 4000.17 1587.79C4098.25 1573.71 3836.95 1387.27 3536.18 1256.84C3235.41 1126.55 2847.73 972.754 2687.4 946.058C2526.93 919.361 2353.26 855.812 2045.82 782.252C1738.37 708.691 1297.3 738.87 1036.57 708.691C775.849 678.658 615.525 648.479 341.451 708.691C67.3777 768.903 -213.226 738.725 -473.952 738.725C-734.677 738.725 -1115.54 892.52 -1289.35 1032.82C-1463.17 1173.27 -1605.07 1161.37 -1889.88 1378.86C-2255.36 1658.01 -2312.67 1765.81 -2312.67 1765.81L-1778.45 1585.9C-1405.86 1534.4 -1204.62 1325.61 -1045.6 1235.37C-886.441 1145.12 -414.754 989.294 -87.2876 972.609C28.929 966.66 65.4915 919.941 195.346 916.169C266.44 914.138 345.369 900.354 415.883 869.305C471.452 844.785 532.824 875.254 605.079 850.008C683.863 822.586 700.693 823.022 773.093 831.437C835.191 838.691 900.481 850.008 963.45 843.624C1022.21 837.676 1053.26 851.169 1101.43 865.533C1153.08 880.912 1176.88 860.455 1248.41 889.473C1302.38 911.236 1331.69 889.473 1384.06 926.906C1448.77 973.334 1487.51 942.575 1523.35 972.464C1659.59 1085.63 1848.06 1130.9 2045.09 1093.18C2179.88 1067.35 2272.01 1119 2359.94 1117.84C2429.87 1116.83 2478.91 1129.45 2516.49 1148.17C2560.88 1170.37 2617.03 1200.25 2670.86 1205.33C2775.47 1215.34 2855.27 1272.94 2942.18 1327.93C2999.34 1364.06 3064.05 1420.06 3142.98 1430.08C3264.57 1445.46 3350.03 1493.77 3417.64 1552.1C3606.4 1715.03 3693.89 1518.29 3197.1 1262.93C3165.76 1246.97 3126.3 1231.74 3168.66 1203.45Z" fill="#FF6288"/>
<path d="M1092.72 797.775C1145.39 782.105 1201.4 834.773 1253.77 836.804C1351.27 840.577 1352.29 867.998 1375.5 882.072C1345.76 862.92 1315.29 856.536 1278.29 862.34C1242.46 867.998 1209.52 841.882 1172.81 844.349C1098.53 849.282 1038.46 822.295 981.586 814.315C892.646 801.693 824.599 803.434 822.423 803.289C758.148 797.195 686.039 796.469 598.84 822.005C551.831 835.789 446.786 812.864 405.146 836.659C347.98 869.449 283.125 888.311 242.21 882.072C178.516 872.206 130.201 867.853 71.8753 904.851C-17.0645 961.291 -115.145 929.081 -255.737 938.077C-475.112 952.15 -660.101 1007.14 -660.101 1007.14" stroke="#FF85A2" stroke-width="4.35268" stroke-miterlimit="10"/>
<path d="M-255.593 935.901C-209.599 932.999 -167.523 934.45 -130.235 935.756C-51.0166 938.513 11.6624 926.18 71.0039 888.457C129.62 851.314 175.468 869.885 241.484 878.446C281.384 883.524 345.948 868.29 404.419 834.774C428.359 820.99 472.031 822.441 514.252 823.747C547.188 824.763 578.237 825.778 598.549 819.83C689.375 793.133 762.936 795.31 822.857 800.968C823.148 800.968 824.453 800.968 825.904 800.968C889.744 800.823 946.183 806.917 982.166 811.995C1001.46 814.752 1020.9 819.539 1041.36 824.763C1081.99 834.919 1123.92 845.365 1172.81 842.173C1190.66 841.013 1207.78 846.381 1224.17 851.749C1242.46 857.553 1259.72 863.066 1278 860.31C1307.17 855.667 1332.7 858.714 1357.08 869.595C1343 856.537 1322.98 841.738 1253.63 838.982C1230.99 838.111 1207.49 827.955 1184.86 818.089C1154.39 804.885 1122.9 791.247 1093.3 799.952L1092 795.745C1123.05 786.459 1155.26 800.533 1186.45 814.026C1208.8 823.747 1231.86 833.758 1253.77 834.629C1329.66 837.531 1348.08 854.941 1363.03 869.015C1366.8 872.642 1370.57 876.124 1374.92 879.026C1375.5 879.461 1376.08 879.752 1376.81 880.187L1376.23 881.057C1377.1 881.638 1377.97 882.073 1378.84 882.653C1389.14 888.602 1397.27 893.39 1420.63 900.064C1451.39 908.915 1476.2 909.205 1476.63 909.35C1485.63 909.35 1493.32 908.769 1500.72 908.189C1526.54 906.158 1547 904.417 1599.09 933.725C1616.21 943.301 1639.86 944.897 1667.13 946.783C1701.52 949.104 1740.69 951.861 1777.55 971.738C1821.8 995.533 1873.6 1016.43 1953.39 1007.58C2053.22 996.549 2090.5 1012.8 2133.74 1031.81C2147.38 1037.75 2153.47 1041.82 2167.11 1048.35C2168.85 1049.22 2177.41 1052.99 2182.35 1055.16C2212.96 1066.19 2261.56 1080.85 2300.59 1078.52C2313.22 1077.8 2325.98 1075.62 2339.48 1073.3C2390.11 1064.6 2447.57 1054.58 2529.11 1114.8C2605.57 1171.24 2638.65 1174.86 2748.19 1186.33C2789.54 1190.68 2830.17 1217.52 2873.41 1246.1C2891.25 1258 2909.82 1270.19 2928.83 1281.07C3039.82 1344.47 3165.76 1390.61 3303.16 1418.03H3303.31C3303.6 1418.18 3339.14 1428.33 3383.54 1457.5C3399.79 1468.23 3413.43 1483.47 3427.94 1499.57C3453.91 1528.45 3480.61 1558.33 3527.76 1569.94L3526.74 1574.15C3478.43 1562.25 3449.85 1530.48 3424.75 1502.48C3410.53 1486.52 3397.03 1471.57 3381.22 1461.12C3338.42 1432.98 3304.03 1422.68 3302.29 1422.24C3164.46 1394.67 3038.08 1348.39 2926.65 1284.7C2907.5 1273.81 2888.93 1261.48 2870.94 1249.58C2828.28 1221.44 2787.95 1194.74 2747.76 1190.53C2637.35 1178.78 2603.98 1175.3 2526.64 1118.13C2446.55 1058.94 2390.11 1068.8 2340.35 1077.36C2326.71 1079.68 2313.8 1082.01 2301.03 1082.73C2245.46 1085.92 2171.46 1055.89 2154.34 1048.64C2122.28 1038.62 2076.72 1027.31 2031.02 1042.54C1988.22 1056.76 1899.42 1097.68 1816.57 1075.91C1816.57 1075.91 1722.41 1053.13 1670.61 1007.58C1666.84 1004.24 1660.31 999.741 1651.75 993.212C1645.22 988.133 1636.95 985.377 1627.23 982.185C1613.01 977.397 1595.17 971.593 1574.71 955.633C1546.13 933.435 1507.53 916.894 1476.49 913.557C1474.45 913.557 1449.79 912.977 1419.47 904.127C1395.67 897.307 1387.26 892.374 1376.66 886.281C1374.78 885.265 1372.89 884.104 1370.86 882.944L1371.44 881.928C1343 864.517 1313.4 858.859 1278.73 864.372C1259.43 867.419 1240.86 861.47 1222.87 855.667C1206.76 850.589 1190.22 845.22 1173.1 846.381C1123.48 849.573 1081.26 839.127 1040.35 828.825C1019.89 823.747 1000.59 818.959 981.585 816.202C946.038 811.124 890.759 805.176 827.936 805.176C827.21 805.176 826.63 805.176 825.904 805.176C823.438 805.176 822.712 805.176 822.422 805.176C762.791 799.517 689.811 797.341 599.71 823.892C578.817 829.986 547.333 829.115 514.107 827.955C472.466 826.649 429.375 825.198 406.595 838.401C347.399 872.352 281.674 887.877 240.904 882.653C175.904 874.238 130.491 855.667 73.3254 892.084C12.8232 930.533 -50.4355 942.72 -130.38 939.964C-167.523 938.658 -209.599 937.207 -255.302 940.109C-471.921 954.037 -657.345 1008.59 -659.231 1009.03L-660.537 1004.82C-658.65 1004.53 -472.791 949.975 -255.593 935.901ZM1577.32 952.151C1597.2 967.676 1614.61 973.479 1628.54 977.977C1638.55 981.314 1647.26 984.216 1654.36 989.729C1662.34 995.823 1667.57 999.886 1671.05 1002.64C1671.05 1002.64 1712.98 1043.85 1807.14 1069.82C1899.71 1095.21 1994.6 1050.09 2029.42 1038.48C2064.97 1026.73 2105.45 1030.93 2137.95 1038.33C2135.92 1037.46 2133.89 1036.59 2131.85 1035.72C2089.2 1017.01 2052.35 1000.9 1953.68 1011.78C1872.72 1020.78 1820.06 999.595 1775.22 975.511C1739.1 956.069 1700.5 953.457 1666.55 951.136C1638.7 949.249 1614.76 947.653 1596.76 937.497C1545.84 908.915 1526.98 910.511 1500.86 912.542C1499.26 912.687 1497.81 912.832 1496.22 912.977C1523.78 919.506 1553.82 933.87 1577.32 952.151Z" fill="#FF85A2"/>
<path fill-rule="evenodd" clip-rule="evenodd" d="M3406.46 1427.75C3390.07 1427.75 3158.07 1373.49 3014.72 1307.91C2947.84 1277.3 2841.92 1176.17 2678.26 1144.39C2603.25 1129.89 2561.32 1101.74 2481.37 1065.32C2432.48 1043.12 2391.71 1048.2 2325.55 1043.85C2169.58 1033.84 2108.64 967.386 1985.75 975.801C1894.92 982.04 1790.6 962.308 1700.94 917.04C1644.79 888.602 1583.27 875.399 1521.9 881.928C1449.93 889.473 1377.53 836.805 1303.68 809.093C1046.88 712.899 612.187 649.35 364.084 819.394C317.656 851.169 305.033 864.082 250.915 848.702C-19.0969 771.805 7.88989 932.709 -110.503 894.696C-366.441 812.575 -618.606 952.151 -912.412 1061.69C-1206.22 1171.24 -1358.27 1395.11 -1520.05 1462C-1681.82 1528.88 -1758.57 1515.97 -1758.57 1515.97L-1252.07 1082.88L386.718 571.582L1597.2 422.865L3073.05 1228.4L3406.46 1427.75Z" fill="#FF85A2"/>
<path d="M2456.86 1044.28L2457.29 1039.93C2455.55 1039.79 2280.57 1021.65 2217.02 987.118C2149.41 950.265 2095.87 931.839 2007.08 939.819C1941.06 945.767 1866.49 938.077 1818.61 928.792C1756.94 916.894 1714.29 896.002 1676.85 877.575C1638.26 858.568 1604.89 842.173 1564.12 844.35L1560.64 844.495C1492.88 847.832 1458.93 849.573 1421.06 817.218L1418.31 820.555C1457.48 854.071 1492.16 852.33 1560.93 848.847L1564.41 848.702C1604.16 846.671 1635.36 862.051 1675.11 881.493C1712.84 900.064 1755.78 921.102 1818.03 932.999C1866.2 942.285 1941.35 949.975 2007.8 944.026C2095.58 936.191 2148.4 954.327 2215.28 990.745C2279.12 1025.86 2455.11 1044.14 2456.86 1044.28Z" fill="#FF6288"/>
<path d="M1094.18 1014.4C1094.18 1014.4 439.387 958.1 181.128 1078.38C-195.234 1253.65 -644.576 1204.9 -887.891 1538.75C-887.891 1538.75 -1906.56 1699.07 -1658.32 1609.84C-1222.03 1453 -1117.71 1251.47 -665.614 1155.71C-232.812 1064.16 -362.667 1165.58 -84.0957 1051.25C12.5339 1011.49 54.3197 952.732 144.13 948.234C271.809 941.85 349.432 923.714 421.686 896.147C478.126 874.529 540.224 897.743 592.892 881.058C687.925 851.024 745.09 857.118 835.626 905.433C899.32 939.384 954.454 928.357 998.852 945.332C1093.3 981.46 1094.18 1014.4 1094.18 1014.4Z" fill="#FF6288"/>
<path d="M230.892 975.946C245.691 975.946 325.78 973.915 417.477 932.564C436.484 924.004 461.004 923.714 486.975 923.569C503.37 923.423 520.491 923.278 536.886 920.957C620.022 909.205 634.966 915.734 637.433 919.216C637.868 919.796 638.158 920.522 637.578 922.118C631.194 936.627 564.017 964.049 527.02 967.386L527.455 971.738C563.292 968.546 634.096 940.834 641.64 923.859C643.091 920.522 642.076 918.055 641.06 916.604C634.241 907.609 600 907.754 536.305 916.749C520.055 919.071 503.225 919.216 486.975 919.361C460.569 919.651 435.613 919.796 415.736 928.792C315.479 974.06 229.441 971.883 228.571 971.738L228.425 976.091C228.57 975.946 229.441 975.946 230.892 975.946Z" fill="#FF85A2"/>
<path fill-rule="evenodd" clip-rule="evenodd" d="M1606.92 1029.92C1604.02 1029.19 1465.03 1030.21 1363.03 947.799C1331.11 922.118 1284.1 937.788 1225.34 911.962C1179.78 892.085 1169.48 915.589 1113.47 900.21C1047.02 882.073 1040.35 868.58 971.722 873.368C911.074 877.721 833.161 872.352 795.293 857.408C820.248 864.082 891.342 903.982 954.601 906.303C990.728 907.609 1053.26 927.341 1090.69 955.489C1131.61 986.393 1209.81 977.832 1270.46 1008.59C1472.43 1111.31 1844.87 1086.36 1606.92 1029.92Z" fill="#FF6288"/>
<g opacity="0.4">
<path d="M463.036 913.268C459.51 913.268 456.652 910.409 456.652 906.884C456.652 903.358 459.51 900.5 463.036 900.5C466.562 900.5 469.42 903.358 469.42 906.884C469.42 910.409 466.562 913.268 463.036 913.268Z" fill="#FFF4F0"/>
<path d="M173.729 906.882C170.203 906.882 167.345 904.024 167.345 900.498C167.345 896.972 170.203 894.114 173.729 894.114C177.255 894.114 180.113 896.972 180.113 900.498C180.113 904.024 177.255 906.882 173.729 906.882Z" fill="#FFF4F0"/>
<path d="M2.52434 900.499C1.00186 900.499 -0.232219 899.265 -0.232219 897.742C-0.232219 896.22 1.00186 894.985 2.52434 894.985C4.04682 894.985 5.28125 896.22 5.28125 897.742C5.28125 899.265 4.04682 900.499 2.52434 900.499Z" fill="#FFF4F0"/>
<path d="M355.382 848.702C353.859 848.702 352.625 847.467 352.625 845.945C352.625 844.422 353.859 843.188 355.382 843.188C356.904 843.188 358.139 844.422 358.139 845.945C358.139 847.467 356.904 848.702 355.382 848.702Z" fill="#FFF4F0"/>
<path d="M143.261 903.255C141.738 903.255 140.504 902.021 140.504 900.498C140.504 898.976 141.738 897.741 143.261 897.741C144.783 897.741 146.018 898.976 146.018 900.498C146.018 902.021 144.783 903.255 143.261 903.255Z" fill="#FFF4F0"/>
<path d="M494.954 847.107C493.432 847.107 492.197 845.872 492.197 844.35C492.197 842.827 493.432 841.593 494.954 841.593C496.477 841.593 497.711 842.827 497.711 844.35C497.711 845.872 496.477 847.107 494.954 847.107Z" fill="#FFF4F0"/>
<path d="M833.161 827.519C831.639 827.519 830.404 826.285 830.404 824.762C830.404 823.24 831.639 822.005 833.161 822.005C834.684 822.005 835.918 823.24 835.918 824.762C835.918 826.285 834.684 827.519 833.161 827.519Z" fill="#FFF6E9"/>
<path d="M1408 878.883C1404.48 878.883 1401.62 876.024 1401.62 872.499C1401.62 868.973 1404.48 866.115 1408 866.115C1411.53 866.115 1414.39 868.973 1414.39 872.499C1414.39 876.024 1411.53 878.883 1408 878.883Z" fill="#FFF4F0"/>
<path d="M693.728 902.386C690.202 902.386 687.344 899.528 687.344 896.002C687.344 892.476 690.202 889.618 693.728 889.618C697.253 889.618 700.111 892.476 700.111 896.002C700.111 899.528 697.253 902.386 693.728 902.386Z" fill="#FFF4F0"/>
<path d="M887.133 833.178C883.608 833.178 880.75 830.32 880.75 826.794C880.75 823.269 883.608 820.41 887.133 820.41C890.659 820.41 893.518 823.269 893.518 826.794C893.518 830.32 890.659 833.178 887.133 833.178Z" fill="#FFF6E9"/>
<path d="M1093.01 826.939C1089.49 826.939 1086.63 824.08 1086.63 820.555C1086.63 817.029 1089.49 814.171 1093.01 814.171C1096.54 814.171 1099.4 817.029 1099.4 820.555C1099.4 824.08 1096.54 826.939 1093.01 826.939Z" fill="#FFF6E9"/>
<path d="M737.255 892.373C735.733 892.373 734.498 891.139 734.498 889.617C734.498 888.094 735.733 886.86 737.255 886.86C738.778 886.86 740.012 888.094 740.012 889.617C740.012 891.139 738.778 892.373 737.255 892.373Z" fill="#FFF4F0"/>
<path d="M1131.46 829.551C1129.94 829.551 1128.71 828.316 1128.71 826.794C1128.71 825.271 1129.94 824.037 1131.46 824.037C1132.98 824.037 1134.22 825.271 1134.22 826.794C1134.22 828.316 1132.98 829.551 1131.46 829.551Z" fill="#FFF6E9"/>
<path d="M1005.09 892.373C1003.57 892.373 1002.34 891.139 1002.34 889.617C1002.34 888.094 1003.57 886.86 1005.09 886.86C1006.62 886.86 1007.85 888.094 1007.85 889.617C1007.85 891.139 1006.62 892.373 1005.09 892.373Z" fill="#FFF4F0"/>
<path d="M1091.42 920.376C1089.9 920.376 1088.66 919.142 1088.66 917.62C1088.66 916.097 1089.9 914.863 1091.42 914.863C1092.94 914.863 1094.18 916.097 1094.18 917.62C1094.18 919.142 1092.94 920.376 1091.42 920.376Z" fill="#FFF4F0"/>
<path d="M1637.68 925.165C1634.16 925.165 1631.3 922.306 1631.3 918.781C1631.3 915.255 1634.16 912.397 1637.68 912.397C1641.21 912.397 1644.07 915.255 1644.07 918.781C1644.07 922.306 1641.21 925.165 1637.68 925.165Z" fill="#FFF4F0"/>
<path d="M1469.96 837.531C1468.43 837.531 1467.2 836.297 1467.2 834.774C1467.2 833.252 1468.43 832.018 1469.96 832.018C1471.48 832.018 1472.71 833.252 1472.71 834.774C1472.71 836.297 1471.48 837.531 1469.96 837.531Z" fill="#FFF6E9"/>
<path d="M1338.07 888.313C1336.55 888.313 1335.32 887.079 1335.32 885.556C1335.32 884.034 1336.55 882.8 1338.07 882.8C1339.6 882.8 1340.83 884.034 1340.83 885.556C1340.83 887.079 1339.6 888.313 1338.07 888.313Z" fill="#FFF6E9"/>
<path d="M1247.39 825.924C1245.87 825.924 1244.63 824.69 1244.63 823.167C1244.63 821.645 1245.87 820.41 1247.39 820.41C1248.91 820.41 1250.15 821.645 1250.15 823.167C1250.15 824.69 1248.91 825.924 1247.39 825.924Z" fill="#FFF6E9"/>
</g>
<path d="M1477.79 868.725C1474.27 868.725 1471.41 865.867 1471.41 862.341C1471.41 858.815 1474.27 855.957 1477.79 855.957C1481.32 855.957 1484.18 858.815 1484.18 862.341C1484.18 865.867 1481.32 868.725 1477.79 868.725Z" fill="#FF6288"/>
<path d="M1767.39 906.884C1763.86 906.884 1761.01 904.025 1761.01 900.5C1761.01 896.974 1763.86 894.116 1767.39 894.116C1770.92 894.116 1773.77 896.974 1773.77 900.5C1773.77 904.025 1770.92 906.884 1767.39 906.884Z" fill="#FF6288"/>
<path d="M1553.96 868.581C1552.44 868.581 1551.21 867.347 1551.21 865.824C1551.21 864.302 1552.44 863.067 1553.96 863.067C1555.49 863.067 1556.72 864.302 1556.72 865.824C1556.72 867.347 1555.49 868.581 1553.96 868.581Z" fill="#FF6288"/>
</g>
<path d="M-15.6153 876.573L-11.9973 871.363L-5.91924 858.483L1.60638 830.842C1.7511 830.119 1.89575 829.54 1.89575 829.54C4.64539 828.237 7.82918 828.382 10.5788 829.829L13.039 831.132L12.4602 807.543C12.0261 792.058 47.0478 805.951 55.152 823.751L69.0447 853.418L70.7813 852.261C71.3602 851.826 71.939 851.248 72.2285 850.524C72.5179 849.8 72.6629 849.077 72.5182 848.353L62.8218 769.627C62.6771 768.469 63.5455 767.456 64.7032 767.166L53.56 701.464L53.7048 700.307C53.9943 695.531 70.926 696.11 75.8464 703.056L79.7541 708.556L91.476 711.884C92.7785 712.174 93.9362 712.752 95.094 713.331C102.33 717.239 107.684 724.041 109.855 732C115.21 752.116 123.314 780.48 125.774 789.453C129.681 803.491 134.023 816.949 134.023 816.949C138.22 818.975 141.549 822.449 143.285 826.645L146.179 833.737L157.323 825.054C165.137 819.265 171.216 827.224 171.216 827.224C175.413 819.41 181.925 811.305 189.884 806.53C193.357 804.07 196.686 802.043 201.751 802.767C206.382 803.491 209.421 804.793 211.158 805.806C212.605 806.674 213.618 808.122 213.618 809.858L215.21 826.79C218.249 841.407 225.051 840.394 225.051 840.394L153.415 851.248L153.56 851.682L62.2431 864.417L61.2301 864.706L26.932 876.284L20.4197 882.651L17.3805 881.783L12.1705 882.651L-15.6153 876.573Z" fill="#DD4C6F"/>
<path d="M97.2627 795.018C93.7369 795.018 90.8789 792.16 90.8789 788.634C90.8789 785.108 93.7369 782.25 97.2627 782.25C100.788 782.25 103.646 785.108 103.646 788.634C103.646 792.16 100.788 795.018 97.2627 795.018Z" fill="#FF6288"/>
<path d="M9.63016 863.646C8.10768 863.646 6.87325 862.412 6.87325 860.889C6.87325 859.367 8.10768 858.132 9.63016 858.132C11.1526 858.132 12.3867 859.367 12.3867 860.889C12.3867 862.412 11.1526 863.646 9.63016 863.646Z" fill="#FF6288"/>
<path d="M70.2802 725.086C68.7577 725.086 67.5236 723.851 67.5236 722.329C67.5236 720.807 68.7577 719.572 70.2802 719.572C71.8027 719.572 73.0371 720.807 73.0371 722.329C73.0371 723.851 71.8027 725.086 70.2802 725.086Z" fill="#FF6288"/>
<path fill-rule="evenodd" clip-rule="evenodd" d="M80.724 708.835L91.4604 711.882C92.7662 712.172 93.927 712.752 95.0877 713.333C102.342 717.25 107.71 724.069 109.887 732.049C109.887 732.049 93.782 732.629 88.7039 726.826C83.4807 721.022 81.8844 713.042 81.8844 713.042C81.8844 713.042 60.8466 705.353 57.0743 703.757C53.8823 702.451 53.7372 700.129 53.7372 700.129C54.0274 695.341 71.0029 695.922 75.9359 702.886L79.8533 708.4L80.724 708.835Z" fill="#BB3858"/>
<path fill-rule="evenodd" clip-rule="evenodd" d="M64.7653 767.306C64.7653 767.306 72.4548 772.53 86.2383 770.934C81.8856 776.302 74.7762 777.172 69.553 776.157C62.1534 774.706 62.8791 769.773 62.8791 769.773C62.734 768.032 63.8948 767.451 64.7653 767.306Z" fill="#FF6288"/>
<path opacity="0.3" fill-rule="evenodd" clip-rule="evenodd" d="M10.6466 829.84L17.7559 833.612C15.5795 836.804 7.59974 837.674 2.6667 833.902C0.635447 832.306 1.94125 829.404 1.94125 829.404C4.69795 828.389 7.88992 828.389 10.6466 829.84Z" fill="#FF6288"/>
<path fill-rule="evenodd" clip-rule="evenodd" d="M194.766 804.449L201.44 802.998C210.29 804.884 207.824 806.335 213.772 810.108L215.368 827.083C218.415 841.737 225.234 840.722 225.234 840.722L136.15 854.215L140.212 838.835L157.332 825.487C165.167 819.684 171.261 827.663 171.261 827.663C176.339 818.088 184.754 808.367 194.766 804.449Z" fill="#DD4C6F"/>
<path d="M195.491 817.072C193.969 817.072 192.735 815.838 192.735 814.315C192.735 812.793 193.969 811.559 195.491 811.559C197.014 811.559 198.248 812.793 198.248 814.315C198.248 815.838 197.014 817.072 195.491 817.072Z" fill="#FF85A2"/>
<path fill-rule="evenodd" clip-rule="evenodd" d="M55.334 823.746C47.0639 806.045 12.0973 791.972 12.5326 807.496C12.8228 823.166 55.334 823.746 55.334 823.746Z" fill="#FFB542"/>
<path fill-rule="evenodd" clip-rule="evenodd" d="M12.3881 807.641C12.8233 823.165 55.1895 823.891 55.1895 823.891C47.0644 806.045 11.9528 791.971 12.3881 807.641Z" fill="#BB3858"/>
<path fill-rule="evenodd" clip-rule="evenodd" d="M170.39 828.679C170.39 828.679 167.924 833.612 157.332 825.632C157.332 825.632 157.478 825.632 157.478 825.487C161.83 822.295 167.054 822.73 171.406 827.663L170.39 828.679Z" fill="#BB3858"/>
<path fill-rule="evenodd" clip-rule="evenodd" d="M211.307 806.045C212.758 806.916 213.773 808.367 213.773 810.108C213.773 811.414 213.048 812.72 210.001 812.284C206.664 811.849 203.327 808.512 199.409 806.771C196.508 805.465 193.171 805.03 189.253 807.206C193.025 804.594 196.508 802.128 201.876 802.998C206.519 803.724 209.566 805.03 211.307 806.045Z" fill="#FFB542"/>
<path fill-rule="evenodd" clip-rule="evenodd" d="M211.307 806.045C212.758 806.916 213.773 808.367 213.773 810.108C213.773 811.414 213.048 812.72 210.001 812.284C206.664 811.849 203.327 808.512 199.409 806.771C196.508 805.465 193.171 805.03 189.253 807.206C193.025 804.594 196.508 802.128 201.876 802.998C206.519 803.724 209.566 805.03 211.307 806.045Z" fill="#BB3858"/>
<mask id="mask4_7136_162996" style="mask-type:alpha" maskUnits="userSpaceOnUse" x="59" y="697" width="167" height="128">
<path d="M59.2371 820.771L61.7307 817.181L65.9199 808.304L71.1067 789.252C71.2065 788.754 71.3062 788.355 71.3062 788.355C73.2013 787.457 75.3957 787.557 77.2908 788.554L78.9864 789.452L78.5875 773.194C78.2883 762.521 102.426 772.096 108.012 784.365L117.587 804.812L118.784 804.015C119.183 803.715 119.582 803.316 119.782 802.818C119.981 802.319 120.081 801.82 119.981 801.321L113.298 747.061C113.199 746.263 113.797 745.565 114.595 745.365L106.915 700.081L107.015 699.283C107.214 695.992 118.884 696.391 122.275 701.179L124.968 704.969L133.048 707.263C133.945 707.462 134.743 707.861 135.541 708.26C140.528 710.953 144.219 715.641 145.715 721.127C149.406 734.992 154.991 754.541 156.687 760.726C159.38 770.401 162.372 779.677 162.372 779.677C165.265 781.073 167.559 783.467 168.756 786.36L170.751 791.247L178.431 785.263C183.817 781.273 188.007 786.759 188.007 786.759C190.899 781.373 195.388 775.787 200.873 772.495C203.267 770.8 205.561 769.403 209.052 769.902C212.244 770.401 214.339 771.299 215.536 771.997C216.533 772.595 217.232 773.593 217.232 774.79L218.329 786.46C220.423 796.534 225.111 795.836 225.111 795.836L175.738 803.316L175.838 803.616L112.899 812.393L112.201 812.592L88.5619 820.572L84.0735 824.961L81.9787 824.362L78.3878 824.961L59.2371 820.771Z" fill="white"/>
</mask>
<g mask="url(#mask4_7136_162996)">
<path opacity="0.4" d="M117.58 762.519C117.58 762.519 108.149 763.099 101.62 761.794C95.0912 760.488 86.5308 751.927 84.0643 750.186C71.1513 741.771 60.5599 742.932 60.5599 742.932" stroke="#FFF6E9" stroke-width="4.35268" stroke-miterlimit="10"/>
<path opacity="0.5" d="M214.789 821.715C210.146 823.891 200.57 826.358 195.347 825.632C180.548 823.746 175.905 819.974 175.905 819.974" stroke="#FFE6BE" stroke-width="4.35268" stroke-miterlimit="10"/>
<path d="M140.504 812.865C140.504 812.865 131.073 804.449 95.2361 815.911C78.1838 821.365 56.4971 836.659 46.9212 840.286C24.4324 848.847 7.02141 852.039 -8.79334 842.608C-24.6081 833.177 -15.6125 812.139 -15.6125 812.139" stroke="#FF6288" stroke-width="4.35268" stroke-miterlimit="10"/>
</g>
<path d="M1675.55 805.939L1661.42 800.667C1649.85 796.346 1637.11 796.346 1625.54 800.667L1611.41 805.939V855.536H1675.55V805.939Z" fill="#FFB1C4"/>
<g filter="url(#filter0_d_7136_162996)">
<path d="M1652.06 795.28C1646.26 794.67 1640.46 794.67 1634.66 795.28C1621.08 796.806 1611.16 801.69 1611.16 807.641C1611.16 809.931 1612.68 812.067 1615.43 813.899C1615.43 813.135 1615.58 812.372 1615.58 811.457L1615.73 809.473C1614.97 808.71 1614.67 807.947 1614.67 807.489C1614.67 804.742 1621.84 800.164 1635.12 798.638C1640.61 798.027 1646.26 798.027 1651.75 798.638C1665.03 800.164 1672.2 804.742 1672.2 807.489C1672.2 808.862 1670.37 811.152 1665.03 813.288C1661.21 814.814 1656.33 815.882 1651.14 816.493C1651.14 816.951 1651.29 818.172 1651.29 820.003C1665.33 818.629 1675.86 813.593 1675.86 807.489C1675.56 801.842 1665.64 796.806 1652.06 795.28Z" fill="#FF6288"/>
<path d="M1670.98 822.292C1672.2 822.292 1673.27 823.36 1673.72 824.734C1674.34 825.039 1674.95 825.344 1675.56 825.65V813.441C1673.72 815.577 1670.83 817.409 1667.01 818.935C1662.58 820.766 1656.94 821.987 1650.99 822.445C1650.83 832.364 1648.54 837.706 1643.97 838.469C1640.76 839.079 1638.01 837.095 1636.49 834.348C1636.49 834.501 1636.18 835.874 1636.18 836.485C1634.81 843.2 1632.52 847.32 1629.47 848.541C1628.7 848.846 1627.94 848.999 1627.33 848.999C1626.11 848.999 1625.04 848.694 1623.82 847.931C1621.38 846.404 1619.85 843.505 1618.79 840.758C1617.87 838.621 1617.11 836.332 1616.5 833.28C1615.43 828.244 1614.97 822.75 1615.12 816.493C1613.44 815.425 1612.07 814.356 1611 813.135V865.633C1611 872.653 1625.5 878.453 1643.2 878.453C1660.91 878.453 1675.4 872.653 1675.4 865.633V832.517C1675.25 832.364 1672.35 830.838 1672.2 830.686C1671.74 830.991 1671.28 831.143 1670.83 831.143C1669.15 831.143 1667.77 829.16 1667.77 826.718C1668.08 824.276 1669.3 822.292 1670.98 822.292Z" fill="#FF6288"/>
<path d="M1670.52 828.549C1674.64 830.228 1678.46 832.67 1681.66 835.569C1683.95 837.706 1686.54 840.453 1685.17 841.979C1683.64 843.658 1680.29 842.589 1677.69 841.674V845.642C1679.07 846.099 1680.9 846.71 1682.73 846.71C1684.56 846.71 1686.54 846.099 1687.92 844.421C1690.51 841.368 1689.29 837.401 1683.95 832.822C1680.29 829.618 1676.17 827.023 1671.74 825.039C1670.82 824.581 1669.76 825.039 1669.3 825.955C1669.15 827.023 1669.6 828.244 1670.52 828.549Z" fill="#FF6288"/>
<path d="M1643.51 835.569C1641.22 836.027 1639.39 833.891 1638.78 831.907C1638.47 830.686 1638.17 829.312 1636.95 828.855C1635.72 828.397 1634.81 829.923 1634.5 830.838C1633.89 832.517 1633.74 834.348 1633.44 836.027C1632.83 838.927 1630.54 848.694 1625.65 845.642C1623.82 844.421 1622.6 841.826 1621.84 839.842C1620.92 837.553 1620.16 835.264 1619.7 832.822C1618.48 827.176 1618.17 821.377 1618.33 815.577C1618.33 814.357 1618.48 812.983 1618.48 811.762C1619.4 812.373 1620.62 812.83 1621.84 813.441C1627.48 815.73 1635.11 816.951 1643.36 816.951C1644.88 816.951 1646.41 816.951 1647.93 816.798C1647.93 817.409 1648.09 818.63 1648.09 820.308C1648.09 825.65 1647.63 834.806 1643.51 835.569Z" fill="#FF6288"/>
</g>
<g filter="url(#filter1_d_7136_162996)">
<path d="M1662.04 768.937C1658.54 765.49 1653.03 765.654 1649.7 769.1C1646.08 772.798 1647.98 779.016 1641.94 783.671C1640.86 784.524 1641.26 786.257 1642.55 786.501C1651.97 788.293 1658.69 784.927 1662.2 781.276C1665.61 777.862 1665.48 772.272 1662.04 768.937Z" fill="#FF6288"/>
<path d="M1693.15 736.804C1689.96 733.755 1684.88 734.001 1682.04 737.37L1660.67 762.753C1660.75 762.785 1660.83 762.817 1660.91 762.85C1662.49 763.492 1663.95 764.452 1665.15 765.585C1666.48 766.862 1667.44 768.359 1668.14 770.03L1692.91 747.87C1696.29 744.996 1696.35 739.852 1693.15 736.804Z" fill="#FF6288"/>
</g>
</g>
</g>
<defs>
<filter id="filter0_d_7136_162996" x="1611" y="794.822" width="78.2266" height="85.1565" filterUnits="userSpaceOnUse" color-interpolation-filters="sRGB">
<feFlood flood-opacity="0" result="BackgroundImageFix"/>
<feColorMatrix in="SourceAlpha" type="matrix" values="0 0 0 0 0 0 0 0 0 0 0 0 0 0 0 0 0 0 127 0" result="hardAlpha"/>
<feOffset dy="1.5261"/>
<feComposite in2="hardAlpha" operator="out"/>
<feColorMatrix type="matrix" values="0 0 0 0 0.720833 0 0 0 0 0.171198 0 0 0 0 0.303869 0 0 0 1 0"/>
<feBlend mode="normal" in2="BackgroundImageFix" result="effect1_dropShadow_7136_162996"/>
<feBlend mode="normal" in="SourceGraphic" in2="effect1_dropShadow_7136_162996" result="shape"/>
</filter>
<filter id="filter1_d_7136_162996" x="1641.32" y="733.627" width="54.1816" height="53.3697" filterUnits="userSpaceOnUse" color-interpolation-filters="sRGB">
<feFlood flood-opacity="0" result="BackgroundImageFix"/>
<feColorMatrix in="SourceAlpha" type="matrix" values="0 0 0 0 0 0 0 0 0 0 0 0 0 0 0 0 0 0 127 0" result="hardAlpha"/>
<feOffset dy="-1.04324"/>
<feComposite in2="hardAlpha" operator="out"/>
<feColorMatrix type="matrix" values="0 0 0 0 0.720833 0 0 0 0 0.171198 0 0 0 0 0.303869 0 0 0 1 0"/>
<feBlend mode="normal" in2="BackgroundImageFix" result="effect1_dropShadow_7136_162996"/>
<feBlend mode="normal" in="SourceGraphic" in2="effect1_dropShadow_7136_162996" result="shape"/>
</filter>
<linearGradient id="paint0_linear_7136_162996" x1="896.019" y1="1.16099e-06" x2="896.019" y2="920" gradientUnits="userSpaceOnUse">
<stop stop-color="#1D1A50"/>
<stop offset="1" stop-color="#3A257F"/>
</linearGradient>
</defs>
</svg>
