<svg width="30" height="30" viewBox="0 0 30 30" fill="none" xmlns="http://www.w3.org/2000/svg">
<path d="M30 22.5C30 24.3408 28.5075 25.8333 26.6667 25.8333H3.33333C1.4925 25.8333 0 24.3408 0 22.5V7.50001C0 5.65917 1.4925 4.16667 3.33333 4.16667H26.6667C28.5075 4.16667 30 5.65917 30 7.50001V22.5Z" fill="#009B3A"/>
<path d="M27.2733 15L15 24.27L2.72662 15L15 5.72917L27.2733 15Z" fill="#FEDF01"/>
<path d="M14.98 20.3183C17.9522 20.3183 20.3617 17.9089 20.3617 14.9367C20.3617 11.9645 17.9522 9.55501 14.98 9.55501C12.0078 9.55501 9.59833 11.9645 9.59833 14.9367C9.59833 17.9089 12.0078 20.3183 14.98 20.3183Z" fill="#002776"/>
<path d="M10.2308 12.4058C9.95417 12.9233 9.76584 13.4917 9.67084 14.0917C13 13.85 17.5183 15.6675 19.4575 17.9208C19.7925 17.4175 20.0408 16.8542 20.1933 16.2508C17.8 13.9108 13.5958 12.3925 10.2308 12.4058V12.4058Z" fill="#CBE9D4"/>
<path d="M10 15.1942H10.8333V16.0275H10V15.1942ZM10.8333 16.8608H11.6667V17.6942H10.8333V16.8608Z" fill="#88C9F9"/>
<path d="M12.5 15.1942H13.3333V16.0275H12.5V15.1942ZM14.1667 16.0275H15V16.8608H14.1667V16.0275ZM17.5 17.6942H18.3333V18.5275H17.5V17.6942ZM15 18.5275H15.8333V19.3608H15V18.5275ZM17.5 13.5275H18.3333V14.3608H17.5V13.5275Z" fill="#55ACEE"/>
<path d="M15.8333 16.8608H16.6666V17.6942H15.8333V16.8608Z" fill="#3B88C3"/>
</svg>
