<svg width="30" height="30" viewBox="0 0 30 30" fill="none" xmlns="http://www.w3.org/2000/svg">
<path d="M3.33333 4.1665C1.4925 4.1665 0 5.659 0 7.49984V22.4998C0 24.3407 1.4925 25.8332 3.33333 25.8332H8.33333V4.1665H3.33333ZM26.6667 4.1665H21.6667V25.8332H26.6667C28.5075 25.8332 30 24.3407 30 22.4998V7.49984C30 5.659 28.5075 4.1665 26.6667 4.1665Z" fill="#D52B1E"/>
<path d="M8.33398 4.1665H21.6673V25.8332H8.33398V4.1665Z" fill="#EEEEEE"/>
<path d="M15.5119 18.4276C16.5102 18.5435 17.4052 18.6476 18.4027 18.7618L18.1485 17.9268C18.1077 17.7801 18.166 17.6201 18.281 17.5301L21.1802 15.1685L20.5802 14.886C20.316 14.7918 20.3885 14.6426 20.4844 14.2843L20.9269 12.671L19.2427 13.0268C19.0785 13.0518 18.9694 12.9476 18.9444 12.8476L18.7269 12.0885L17.3952 13.5835C17.206 13.8235 16.8227 13.8235 16.9419 13.2701L17.511 10.2418L16.7469 10.6376C16.5327 10.7576 16.3185 10.7776 16.1994 10.5635L15.1452 8.5918V8.64096V8.5918L14.091 10.5635C13.971 10.7776 13.7569 10.7576 13.5427 10.6376L12.7794 10.2418L13.3485 13.2701C13.4685 13.8235 13.0844 13.8235 12.8952 13.5835L11.5635 12.0893L11.3469 12.8485C11.3219 12.9485 11.2119 13.0526 11.0477 13.0276L9.36354 12.6718L9.80604 14.2851C9.90021 14.6435 9.97354 14.7926 9.70938 14.8868L9.10938 15.1693L12.0085 17.531C12.1235 17.6201 12.1819 17.781 12.1402 17.9276L11.886 18.7626L14.7777 18.4285C14.866 18.4285 14.9244 18.4776 14.9235 18.5793L14.7452 21.666H15.5419L15.3644 18.5793C15.366 18.4768 15.4235 18.4276 15.5119 18.4276V18.4276Z" fill="#D52B1E"/>
</svg>
