<svg width="48" height="48" viewBox="0 0 48 48" fill="none" xmlns="http://www.w3.org/2000/svg">
<path d="M40.5 7.5H7.5C6.70463 7.50091 5.9421 7.81727 5.37968 8.37968C4.81727 8.9421 4.50091 9.70463 4.5 10.5V37.5002C4.5 37.8942 4.57761 38.2843 4.72839 38.6482C4.87917 39.0122 5.10017 39.3429 5.37876 39.6215C5.65736 39.9001 5.9881 40.121 6.3521 40.2718C6.71609 40.4225 7.10622 40.5 7.50019 40.5L10.0107 40.4997C10.2944 40.4997 10.5722 40.4192 10.812 40.2677C11.0518 40.1161 11.2436 39.8996 11.3654 39.6434C12.0958 38.1044 13.2479 36.8042 14.6878 35.8937C16.1278 34.9833 17.7964 34.5 19.5 34.5C21.2036 34.5 22.8722 34.9833 24.3122 35.8937C25.7521 36.8042 26.9042 38.1044 27.6346 39.6434C27.7564 39.8997 27.9483 40.1161 28.1881 40.2677C28.4279 40.4193 28.7058 40.4997 28.9894 40.4997L40.5 40.5C41.2954 40.4991 42.0579 40.1827 42.6203 39.6203C43.1827 39.0579 43.4991 38.2954 43.5 37.5V10.5C43.4991 9.70463 43.1827 8.9421 42.6203 8.37968C42.0579 7.81727 41.2954 7.50091 40.5 7.5ZM19.5 31.5C18.3133 31.5 17.1533 31.1481 16.1666 30.4888C15.1799 29.8295 14.4108 28.8925 13.9567 27.7961C13.5026 26.6997 13.3838 25.4933 13.6153 24.3295C13.8468 23.1656 14.4182 22.0965 15.2574 21.2574C16.0965 20.4182 17.1656 19.8468 18.3295 19.6153C19.4933 19.3838 20.6997 19.5026 21.7961 19.9567C22.8925 20.4108 23.8295 21.1799 24.4888 22.1666C25.1481 23.1533 25.5 24.3133 25.5 25.5C25.4982 27.0907 24.8655 28.6158 23.7406 29.7406C22.6158 30.8655 21.0907 31.4982 19.5 31.5ZM40.5 37.5L29.8938 37.4997C29.2395 36.3721 28.4055 35.3589 27.4248 34.5H36C36.3978 34.5 36.7794 34.342 37.0607 34.0607C37.342 33.7794 37.5 33.3978 37.5 33V15C37.5 14.6022 37.342 14.2206 37.0607 13.9393C36.7794 13.658 36.3978 13.5 36 13.5H12C11.6022 13.5 11.2206 13.658 10.9393 13.9393C10.658 14.2206 10.5 14.6022 10.5 15V33C10.5002 33.3333 10.6115 33.657 10.8162 33.92C11.0209 34.1829 11.3074 34.3702 11.6304 34.4522C10.6259 35.3212 9.7729 36.3512 9.1062 37.4999L7.5 37.5002V10.5H40.5V37.5Z" fill="#EC5928"/>
</svg>
