<svg width="136" height="212" viewBox="0 0 136 212" fill="none" xmlns="http://www.w3.org/2000/svg">
<rect opacity="0.1" width="80" height="80" rx="10" fill="#78F18B"/>
<path d="M40.0001 40L58.0001 22" stroke="#78F18B" stroke-width="5.53604" stroke-linecap="round" stroke-linejoin="round"/>
<path d="M46.364 33.636C44.9462 32.219 43.0959 31.316 41.1065 31.0703C39.1171 30.8246 37.1026 31.2502 35.3827 32.2797C33.6627 33.3092 32.3358 34.8835 31.6124 36.7529C30.889 38.6224 30.8106 40.6798 31.3896 42.5989C31.9686 44.5179 33.1719 46.1887 34.8085 47.3461C36.4451 48.5035 38.4213 49.0812 40.4236 48.9876C42.4259 48.8941 44.3397 48.1345 45.8612 46.8296C47.3827 45.5246 48.4249 43.7489 48.8224 41.7842" stroke="#78F18B" stroke-width="5.53604" stroke-linecap="round" stroke-linejoin="round"/>
<path d="M52.728 27.2719C49.5888 24.1374 45.402 22.2735 40.972 22.0385C36.5421 21.8034 32.1816 23.2137 28.7283 25.9984C25.2751 28.7831 22.9727 32.7457 22.2636 37.1249C21.5546 41.504 22.4888 45.9907 24.8869 49.7228C27.2849 53.455 30.9776 56.1692 35.2554 57.3441C39.5331 58.519 44.0942 58.0716 48.0621 56.0879C52.03 54.1042 55.1249 50.7241 56.752 46.5971C58.3791 42.4701 58.4238 37.8874 56.8773 33.7295" stroke="#78F18B" stroke-width="5.53604" stroke-linecap="round" stroke-linejoin="round"/>
<circle opacity="0.9" cx="124" cy="112" r="12" fill="#B3FFCC"/>
<path fill-rule="evenodd" clip-rule="evenodd" d="M117.97 122.377C115.668 120.191 114.233 117.101 114.233 113.676C114.233 107.048 119.606 101.676 126.233 101.676C128.431 101.676 130.492 102.267 132.263 103.298C130.112 101.254 127.202 100 124 100C117.373 100 112 105.373 112 112C112 116.429 114.4 120.298 117.97 122.377Z" fill="#78F18B"/>
<path d="M128.775 111.373L122.183 107.345C122.072 107.277 121.945 107.24 121.815 107.238C121.685 107.235 121.556 107.267 121.443 107.331C121.329 107.395 121.235 107.487 121.169 107.6C121.103 107.712 121.068 107.84 121.068 107.97V116.027C121.069 116.158 121.103 116.285 121.169 116.397C121.235 116.51 121.329 116.602 121.443 116.666C121.556 116.73 121.685 116.762 121.815 116.76C121.945 116.757 122.072 116.72 122.183 116.652L128.775 112.624C128.882 112.558 128.97 112.467 129.032 112.357C129.093 112.248 129.125 112.124 129.125 111.999C129.125 111.873 129.093 111.75 129.032 111.64C128.97 111.531 128.882 111.439 128.775 111.373V111.373Z" fill="white"/>
<circle opacity="0.9" cx="124" cy="200" r="12" fill="#B3FFCC"/>
<path fill-rule="evenodd" clip-rule="evenodd" d="M117.97 210.377C115.668 208.191 114.233 205.101 114.233 201.676C114.233 195.048 119.606 189.676 126.233 189.676C128.431 189.676 130.492 190.267 132.263 191.298C130.112 189.254 127.202 188 124 188C117.373 188 112 193.373 112 200C112 204.429 114.4 208.298 117.97 210.377Z" fill="#78F18B"/>
<path d="M128.775 199.373L122.183 195.345C122.072 195.277 121.945 195.24 121.815 195.238C121.685 195.235 121.556 195.267 121.443 195.331C121.329 195.395 121.235 195.487 121.169 195.6C121.103 195.712 121.068 195.84 121.068 195.97V204.027C121.069 204.158 121.103 204.285 121.169 204.397C121.235 204.51 121.329 204.602 121.443 204.666C121.556 204.73 121.685 204.762 121.815 204.76C121.945 204.757 122.072 204.72 122.183 204.652L128.775 200.624C128.882 200.558 128.97 200.467 129.032 200.357C129.093 200.248 129.125 200.124 129.125 199.999C129.125 199.873 129.093 199.75 129.032 199.64C128.97 199.531 128.882 199.439 128.775 199.373V199.373Z" fill="white"/>
<circle cx="124" cy="156" r="12" fill="#78F18B"/>
<circle cx="124" cy="156" r="9" fill="#96FEAD"/>
<path d="M121 155.726L123.386 158.017L127.636 154.199" stroke="white" stroke-width="2" stroke-linecap="round"/>
<path d="M36.5 81.0625C36.5 81.6148 36.9477 82.0625 37.5 82.0625C38.0523 82.0625 38.5 81.6148 38.5 81.0625H36.5ZM38.5 87.4375C38.5 86.8852 38.0523 86.4375 37.5 86.4375C36.9477 86.4375 36.5 86.8852 36.5 87.4375H38.5ZM36.5 89.5625C36.5 90.1148 36.9477 90.5625 37.5 90.5625C38.0523 90.5625 38.5 90.1148 38.5 89.5625H36.5ZM38.5 95.9375C38.5 95.3852 38.0523 94.9375 37.5 94.9375C36.9477 94.9375 36.5 95.3852 36.5 95.9375H38.5ZM36.5 98.0625C36.5 98.6148 36.9477 99.0625 37.5 99.0625C38.0523 99.0625 38.5 98.6148 38.5 98.0625H36.5ZM38.5 104.438C38.5 103.885 38.0523 103.438 37.5 103.438C36.9477 103.438 36.5 103.885 36.5 104.438H38.5ZM36.5 106.562C36.5 107.115 36.9477 107.562 37.5 107.562C38.0523 107.562 38.5 107.115 38.5 106.562H36.5ZM38.5 112.938C38.5 112.385 38.0523 111.938 37.5 111.938C36.9477 111.938 36.5 112.385 36.5 112.938H38.5ZM101.977 113C101.424 113 100.977 113.448 100.977 114C100.977 114.552 101.424 115 101.977 115V113ZM95.8359 115C96.3882 115 96.8359 114.552 96.8359 114C96.8359 113.448 96.3882 113 95.8359 113V115ZM93.7891 113C93.2368 113 92.7891 113.448 92.7891 114C92.7891 114.552 93.2368 115 93.7891 115V113ZM87.6484 115C88.2007 115 88.6484 114.552 88.6484 114C88.6484 113.448 88.2007 113 87.6484 113V115ZM85.6016 113C85.0493 113 84.6016 113.448 84.6016 114C84.6016 114.552 85.0493 115 85.6016 115V113ZM79.4609 115C80.0132 115 80.4609 114.552 80.4609 114C80.4609 113.448 80.0132 113 79.4609 113V115ZM77.4141 113C76.8618 113 76.4141 113.448 76.4141 114C76.4141 114.552 76.8618 115 77.4141 115V113ZM71.2734 115C71.8257 115 72.2734 114.552 72.2734 114C72.2734 113.448 71.8257 113 71.2734 113V115ZM69.2266 113C68.6743 113 68.2266 113.448 68.2266 114C68.2266 114.552 68.6743 115 69.2266 115V113ZM63.0859 115C63.6382 115 64.0859 114.552 64.0859 114C64.0859 113.448 63.6382 113 63.0859 113V115ZM61.0391 113C60.4868 113 60.0391 113.448 60.0391 114C60.0391 114.552 60.4868 115 61.0391 115V113ZM54.8984 115C55.4507 115 55.8984 114.552 55.8984 114C55.8984 113.448 55.4507 113 54.8984 113V115ZM52.8516 113C52.2993 113 51.8516 113.448 51.8516 114C51.8516 114.552 52.2993 115 52.8516 115V113ZM46.7109 115C47.2632 115 47.7109 114.552 47.7109 114C47.7109 113.448 47.2632 113 46.7109 113V115ZM44.6641 113C44.1118 113 43.6641 113.448 43.6641 114C43.6641 114.552 44.1118 115 44.6641 115V113ZM38.5234 115C39.0757 115 39.5234 114.552 39.5234 114C39.5234 113.448 39.0757 113 38.5234 113V115ZM36.5 114.927C36.5 115.479 36.9477 115.927 37.5 115.927C38.0523 115.927 38.5 115.479 38.5 114.927H36.5ZM38.5 120.49C38.5 119.937 38.0523 119.49 37.5 119.49C36.9477 119.49 36.5 119.937 36.5 120.49H38.5ZM36.5 122.344C36.5 122.896 36.9477 123.344 37.5 123.344C38.0523 123.344 38.5 122.896 38.5 122.344H36.5ZM38.5 127.906C38.5 127.354 38.0523 126.906 37.5 126.906C36.9477 126.906 36.5 127.354 36.5 127.906H38.5ZM36.5 129.76C36.5 130.313 36.9477 130.76 37.5 130.76C38.0523 130.76 38.5 130.313 38.5 129.76H36.5ZM38.5 135.323C38.5 134.771 38.0523 134.323 37.5 134.323C36.9477 134.323 36.5 134.771 36.5 135.323H38.5ZM36.5 137.177C36.5 137.729 36.9477 138.177 37.5 138.177C38.0523 138.177 38.5 137.729 38.5 137.177H36.5ZM38.5 142.74C38.5 142.187 38.0523 141.74 37.5 141.74C36.9477 141.74 36.5 142.187 36.5 142.74H38.5ZM36.5 144.594C36.5 145.146 36.9477 145.594 37.5 145.594C38.0523 145.594 38.5 145.146 38.5 144.594H36.5ZM38.5 150.156C38.5 149.604 38.0523 149.156 37.5 149.156C36.9477 149.156 36.5 149.604 36.5 150.156H38.5ZM36.5 152.01C36.5 152.563 36.9477 153.01 37.5 153.01C38.0523 153.01 38.5 152.563 38.5 152.01H36.5ZM38.5 157.573C38.5 157.021 38.0523 156.573 37.5 156.573C36.9477 156.573 36.5 157.021 36.5 157.573H38.5ZM101.977 157.5C101.424 157.5 100.977 157.948 100.977 158.5C100.977 159.052 101.424 159.5 101.977 159.5V157.5ZM95.8359 159.5C96.3882 159.5 96.8359 159.052 96.8359 158.5C96.8359 157.948 96.3882 157.5 95.8359 157.5V159.5ZM93.7891 157.5C93.2368 157.5 92.7891 157.948 92.7891 158.5C92.7891 159.052 93.2368 159.5 93.7891 159.5V157.5ZM87.6484 159.5C88.2007 159.5 88.6484 159.052 88.6484 158.5C88.6484 157.948 88.2007 157.5 87.6484 157.5V159.5ZM85.6016 157.5C85.0493 157.5 84.6016 157.948 84.6016 158.5C84.6016 159.052 85.0493 159.5 85.6016 159.5V157.5ZM79.4609 159.5C80.0132 159.5 80.4609 159.052 80.4609 158.5C80.4609 157.948 80.0132 157.5 79.4609 157.5V159.5ZM77.4141 157.5C76.8618 157.5 76.4141 157.948 76.4141 158.5C76.4141 159.052 76.8618 159.5 77.4141 159.5V157.5ZM71.2734 159.5C71.8257 159.5 72.2734 159.052 72.2734 158.5C72.2734 157.948 71.8257 157.5 71.2734 157.5V159.5ZM69.2266 157.5C68.6743 157.5 68.2266 157.948 68.2266 158.5C68.2266 159.052 68.6743 159.5 69.2266 159.5V157.5ZM63.0859 159.5C63.6382 159.5 64.0859 159.052 64.0859 158.5C64.0859 157.948 63.6382 157.5 63.0859 157.5V159.5ZM61.0391 157.5C60.4868 157.5 60.0391 157.948 60.0391 158.5C60.0391 159.052 60.4868 159.5 61.0391 159.5V157.5ZM54.8984 159.5C55.4507 159.5 55.8984 159.052 55.8984 158.5C55.8984 157.948 55.4507 157.5 54.8984 157.5V159.5ZM52.8516 157.5C52.2993 157.5 51.8516 157.948 51.8516 158.5C51.8516 159.052 52.2993 159.5 52.8516 159.5V157.5ZM46.7109 159.5C47.2632 159.5 47.7109 159.052 47.7109 158.5C47.7109 157.948 47.2632 157.5 46.7109 157.5V159.5ZM44.6641 157.5C44.1118 157.5 43.6641 157.948 43.6641 158.5C43.6641 159.052 44.1118 159.5 44.6641 159.5V157.5ZM38.5234 159.5C39.0757 159.5 39.5234 159.052 39.5234 158.5C39.5234 157.948 39.0757 157.5 38.5234 157.5V159.5ZM36.5 159.531C36.5 160.084 36.9477 160.531 37.5 160.531C38.0523 160.531 38.5 160.084 38.5 159.531H36.5ZM38.5 165.719C38.5 165.166 38.0523 164.719 37.5 164.719C36.9477 164.719 36.5 165.166 36.5 165.719H38.5ZM36.5 167.781C36.5 168.334 36.9477 168.781 37.5 168.781C38.0523 168.781 38.5 168.334 38.5 167.781H36.5ZM38.5 173.969C38.5 173.416 38.0523 172.969 37.5 172.969C36.9477 172.969 36.5 173.416 36.5 173.969H38.5ZM36.5 176.031C36.5 176.584 36.9477 177.031 37.5 177.031C38.0523 177.031 38.5 176.584 38.5 176.031H36.5ZM38.5 182.219C38.5 181.666 38.0523 181.219 37.5 181.219C36.9477 181.219 36.5 181.666 36.5 182.219H38.5ZM36.5 184.281C36.5 184.834 36.9477 185.281 37.5 185.281C38.0523 185.281 38.5 184.834 38.5 184.281H36.5ZM38.5 190.469C38.5 189.916 38.0523 189.469 37.5 189.469C36.9477 189.469 36.5 189.916 36.5 190.469H38.5ZM36.5617 192.774C36.6152 193.323 37.1041 193.725 37.6538 193.672C38.2035 193.618 38.6058 193.129 38.5523 192.58L36.5617 192.774ZM40.9962 198.478C40.6456 198.051 40.0154 197.99 39.5887 198.34C39.162 198.691 39.1003 199.321 39.4509 199.748L40.9962 198.478ZM41.2523 201.549C41.6791 201.9 42.3092 201.838 42.6598 201.411C43.0104 200.985 42.9487 200.354 42.522 200.004L41.2523 201.549ZM48.4202 202.448C47.8705 202.394 47.3815 202.796 47.328 203.346C47.2745 203.896 47.6768 204.385 48.2265 204.438L48.4202 202.448ZM50.4554 204.5C51.0076 204.5 51.4554 204.052 51.4554 203.5C51.4554 202.948 51.0076 202.5 50.4554 202.5V204.5ZM56.1875 202.5C55.6352 202.5 55.1875 202.948 55.1875 203.5C55.1875 204.052 55.6352 204.5 56.1875 204.5V202.5ZM58.0982 204.5C58.6505 204.5 59.0982 204.052 59.0982 203.5C59.0982 202.948 58.6505 202.5 58.0982 202.5V204.5ZM63.8304 202.5C63.2781 202.5 62.8304 202.948 62.8304 203.5C62.8304 204.052 63.2781 204.5 63.8304 204.5V202.5ZM65.7411 204.5C66.2934 204.5 66.7411 204.052 66.7411 203.5C66.7411 202.948 66.2934 202.5 65.7411 202.5V204.5ZM71.4732 202.5C70.9209 202.5 70.4732 202.948 70.4732 203.5C70.4732 204.052 70.9209 204.5 71.4732 204.5V202.5ZM73.3839 204.5C73.9362 204.5 74.3839 204.052 74.3839 203.5C74.3839 202.948 73.9362 202.5 73.3839 202.5V204.5ZM79.1161 202.5C78.5638 202.5 78.1161 202.948 78.1161 203.5C78.1161 204.052 78.5638 204.5 79.1161 204.5V202.5ZM81.0268 204.5C81.5791 204.5 82.0268 204.052 82.0268 203.5C82.0268 202.948 81.5791 202.5 81.0268 202.5V204.5ZM86.7589 202.5C86.2066 202.5 85.7589 202.948 85.7589 203.5C85.7589 204.052 86.2066 204.5 86.7589 204.5V202.5ZM88.6696 204.5C89.2219 204.5 89.6696 204.052 89.6696 203.5C89.6696 202.948 89.2219 202.5 88.6696 202.5V204.5ZM94.4018 202.5C93.8495 202.5 93.4018 202.948 93.4018 203.5C93.4018 204.052 93.8495 204.5 94.4018 204.5V202.5ZM96.3125 204.5C96.8648 204.5 97.3125 204.052 97.3125 203.5C97.3125 202.948 96.8648 202.5 96.3125 202.5L96.3125 204.5ZM102.045 202.5C101.492 202.5 101.045 202.948 101.045 203.5C101.045 204.052 101.492 204.5 102.045 204.5V202.5ZM36.5 80V81.0625H38.5V80H36.5ZM36.5 87.4375V89.5625H38.5V87.4375H36.5ZM36.5 95.9375V98.0625H38.5V95.9375H36.5ZM36.5 104.438V106.562H38.5V104.438H36.5ZM36.5 112.938V114H38.5V112.938H36.5ZM103 113H101.977V115H103V113ZM95.8359 113H93.7891V115H95.8359V113ZM87.6484 113H85.6016V115H87.6484V113ZM79.4609 113H77.4141V115H79.4609V113ZM71.2734 113H69.2266V115H71.2734V113ZM63.0859 113H61.0391V115H63.0859V113ZM54.8984 113H52.8516V115H54.8984V113ZM46.7109 113H44.6641V115H46.7109V113ZM38.5234 113H37.5V115H38.5234V113ZM36.5 114V114.927H38.5V114H36.5ZM36.5 120.49V122.344H38.5V120.49H36.5ZM36.5 127.906V129.76H38.5V127.906H36.5ZM36.5 135.323V137.177H38.5V135.323H36.5ZM36.5 142.74V144.594H38.5V142.74H36.5ZM36.5 150.156V152.01H38.5V150.156H36.5ZM36.5 157.573V158.5H38.5V157.573H36.5ZM103 157.5H101.977V159.5H103V157.5ZM95.8359 157.5H93.7891V159.5H95.8359V157.5ZM87.6484 157.5H85.6016V159.5H87.6484V157.5ZM79.4609 157.5H77.4141V159.5H79.4609V157.5ZM71.2734 157.5H69.2266V159.5H71.2734V157.5ZM63.0859 157.5H61.0391V159.5H63.0859V157.5ZM54.8984 157.5H52.8516V159.5H54.8984V157.5ZM46.7109 157.5H44.6641V159.5H46.7109V157.5ZM38.5234 157.5H37.5V159.5H38.5234V157.5ZM36.5 158.5V159.531H38.5V158.5H36.5ZM36.5 165.719V167.781H38.5V165.719H36.5ZM36.5 173.969V176.031H38.5V173.969H36.5ZM36.5 182.219V184.281H38.5V182.219H36.5ZM36.5 190.469V191.5H38.5V190.469H36.5ZM36.5 191.5C36.5 191.929 36.5209 192.354 36.5617 192.774L38.5523 192.58C38.5177 192.225 38.5 191.865 38.5 191.5H36.5ZM39.4509 199.748C39.9912 200.405 40.5947 201.009 41.2523 201.549L42.522 200.004C41.965 199.546 41.4538 199.035 40.9962 198.478L39.4509 199.748ZM48.2265 204.438C48.6457 204.479 49.0706 204.5 49.5 204.5V202.5C49.1354 202.5 48.7752 202.482 48.4202 202.448L48.2265 204.438ZM49.5 204.5H50.4554V202.5H49.5V204.5ZM56.1875 204.5H58.0982V202.5H56.1875V204.5ZM63.8304 204.5H65.7411V202.5H63.8304V204.5ZM71.4732 204.5H73.3839V202.5H71.4732V204.5ZM79.1161 204.5H81.0268V202.5H79.1161V204.5ZM86.7589 204.5H88.6696V202.5H86.7589V204.5ZM94.4018 204.5H96.3125L96.3125 202.5H94.4018V204.5ZM102.045 204.5H103V202.5H102.045V204.5Z" fill="#78F18B"/>
</svg>
