<svg width="30" height="30" viewBox="0 0 30 30" fill="none" xmlns="http://www.w3.org/2000/svg">
<path d="M15 15L26.25 3.75003" stroke="#78F18B" stroke-width="3.46003" stroke-linecap="round" stroke-linejoin="round"/>
<path d="M18.9776 11.0225C18.0915 10.1369 16.935 9.5725 15.6916 9.41894C14.4483 9.26538 13.1892 9.53141 12.1143 10.1748C11.0393 10.8182 10.21 11.8022 9.75786 12.9706C9.30574 14.139 9.25673 15.4249 9.61861 16.6243C9.98048 17.8237 10.7325 18.8679 11.7554 19.5913C12.7783 20.3147 14.0134 20.6758 15.2648 20.6173C16.5163 20.5588 17.7124 20.0841 18.6633 19.2685C19.6143 18.4529 20.2657 17.3431 20.5141 16.1151" stroke="#78F18B" stroke-width="3.46003" stroke-linecap="round" stroke-linejoin="round"/>
<path d="M22.9548 7.04501C20.9928 5.08595 18.376 3.92104 15.6073 3.77413C12.8386 3.62722 10.1133 4.50867 7.95501 6.24911C5.79672 7.98954 4.35775 10.4662 3.91458 13.2031C3.47141 15.9401 4.05532 18.7443 5.55411 21.0769C7.05289 23.4094 9.36082 25.1059 12.0344 25.8402C14.708 26.5745 17.5587 26.2949 20.0386 25.055C22.5186 23.8152 24.4528 21.7026 25.4698 19.1233C26.4868 16.5439 26.5147 13.6797 25.5481 11.0811" stroke="#78F18B" stroke-width="3.46003" stroke-linecap="round" stroke-linejoin="round"/>
</svg>
