<svg width="1792" height="726" viewBox="0 0 1792 726" fill="none" xmlns="http://www.w3.org/2000/svg">
<g clip-path="url(#clip0_6234_168893)">
<mask id="mask0_6234_168893" style="mask-type:alpha" maskUnits="userSpaceOnUse" x="-301" y="-38" width="2395" height="753">
<path fill-rule="evenodd" clip-rule="evenodd" d="M1792 -38H0V361.615C-187.287 399.115 -301 448.451 -301 502.5C-301 619.861 235.139 715 896.5 715C1557.86 715 2094 619.861 2094 502.5C2094 448.355 1979.88 398.94 1792 361.415V-38Z" fill="#C4C4C4"/>
</mask>
<g mask="url(#mask0_6234_168893)">
<path d="M0 0H1792V740H0V0Z" fill="black"/>
<path opacity="0.08" d="M54.6602 59.8955C54.6785 58.4217 56.4922 57.7323 57.4847 58.8219L62.6682 64.5126C62.9712 64.8452 63.3986 65.0373 63.8485 65.0429L71.545 65.1389C73.0186 65.1573 73.7079 66.9712 72.6185 67.9638L66.9285 73.148C66.5959 73.451 66.4039 73.8785 66.3983 74.3285L66.3023 82.0259C66.2839 83.4997 64.4703 84.1891 63.4778 83.0995L58.2943 77.4088C57.9912 77.0762 57.5638 76.8841 57.1139 76.8785L49.4175 76.7825C47.9439 76.7642 47.2546 74.9503 48.344 73.9576L54.034 68.7734C54.3666 68.4704 54.5586 68.0429 54.5642 67.593L54.6602 59.8955Z" fill="white"/>
<path opacity="0.08" d="M442.371 0.282917C442.482 -0.693333 443.732 -1.02816 444.317 -0.238522L447.371 3.88561C447.549 4.12669 447.82 4.2829 448.118 4.31699L453.216 4.90008C454.192 5.01173 454.527 6.26131 453.737 6.84612L449.614 9.9005C449.372 10.079 449.216 10.3496 449.182 10.6477L448.599 15.7464C448.488 16.7227 447.238 17.0575 446.653 16.2679L443.599 12.1438C443.421 11.9027 443.15 11.7465 442.852 11.7124L437.754 11.1293C436.778 11.0176 436.443 9.76806 437.233 9.18324L441.356 6.12887C441.597 5.95032 441.754 5.67977 441.788 5.38171L442.371 0.282917Z" fill="white"/>
<path opacity="0.08" d="M175.995 330.249C176.094 329.271 177.339 328.92 177.934 329.702L181.042 333.786C181.223 334.024 181.496 334.177 181.794 334.207L186.9 334.724C187.877 334.823 188.228 336.068 187.447 336.663L183.363 339.771C183.124 339.953 182.972 340.225 182.942 340.524L182.425 345.63C182.326 346.607 181.081 346.958 180.486 346.176L177.379 342.092C177.197 341.854 176.925 341.701 176.626 341.671L171.521 341.154C170.543 341.056 170.192 339.81 170.974 339.215L175.058 336.107C175.296 335.926 175.449 335.653 175.479 335.355L175.995 330.249Z" fill="white"/>
<path opacity="0.5" d="M929 0.000663757H0V730.645H929V0.000663757Z" fill="url(#paint0_radial_6234_168893)"/>
<path d="M8.64159e-06 1.33081L0 726L1792 726L1792 1.33083L8.64159e-06 1.33081Z" fill="url(#paint1_linear_6234_168893)"/>
<path opacity="0.5" d="M984.999 726L1792 726L1792 -0.000305176L984.999 -0.000375726L984.999 726Z" fill="url(#paint2_radial_6234_168893)"/>
<path d="M1544.51 182.052C1605 332.425 1827.97 446.825 1827.97 242.547L1827.97 -77.2143L1246.22 -145.032C1246.22 -145.032 1159.31 4.46559 1278.33 99.0865C1397.35 193.707 1484.01 31.6782 1544.51 182.052Z" fill="#3D17AD" fill-opacity="0.2"/>
<path opacity="0.08" d="M1590.68 277.604C1591.65 276.492 1593.48 277.139 1593.53 278.612L1593.8 286.306C1593.82 286.755 1594.02 287.178 1594.36 287.474L1600.17 292.526C1601.28 293.493 1600.63 295.322 1599.16 295.374L1591.47 295.647C1591.02 295.663 1590.6 295.865 1590.3 296.205L1585.25 302.013C1584.28 303.125 1582.45 302.478 1582.4 301.005L1582.13 293.312C1582.11 292.862 1581.91 292.439 1581.57 292.144L1575.76 287.092C1574.65 286.124 1575.3 284.295 1576.77 284.243L1584.46 283.97C1584.91 283.954 1585.34 283.752 1585.63 283.412L1590.68 277.604Z" fill="white"/>
<path opacity="0.08" d="M1630.3 257.574C1630.91 256.801 1632.15 257.171 1632.23 258.15L1632.67 263.264C1632.7 263.563 1632.85 263.837 1633.08 264.023L1637.12 267.194C1637.89 267.801 1637.52 269.04 1636.54 269.124L1631.43 269.561C1631.13 269.587 1630.85 269.735 1630.67 269.971L1627.5 274.007C1626.89 274.779 1625.65 274.409 1625.57 273.43L1625.13 268.317C1625.1 268.018 1624.96 267.743 1624.72 267.557L1620.69 264.387C1619.91 263.779 1620.28 262.54 1621.26 262.456L1626.38 262.019C1626.67 261.993 1626.95 261.845 1627.13 261.609L1630.3 257.574Z" fill="white"/>
<path d="M1708.54 202.435C1708.54 202.333 1708.54 202.334 1708.54 202.334C1708.54 202.029 1708.34 201.826 1708.14 201.624C1707.73 201.218 1707.43 201.015 1706.72 200.812C1706.52 200.711 1706.31 200.812 1706.21 200.812C1706.11 200.812 1706.11 200.812 1706.01 200.812C1705.4 200.914 1704.28 201.319 1703.98 202.232C1703.98 202.333 1703.98 202.435 1703.98 202.536C1703.98 203.043 1704.28 203.652 1704.59 204.058C1704.69 204.261 1704.89 204.362 1704.99 204.463C1705.1 204.463 1705.1 204.565 1705.2 204.666C1705.4 204.869 1705.7 205.275 1706.01 205.275C1706.31 205.275 1706.62 205.072 1706.82 204.768C1706.92 204.666 1707.02 204.464 1707.12 204.362C1707.23 204.261 1707.33 204.159 1707.33 204.058C1707.33 203.956 1707.43 203.956 1707.43 203.956C1707.63 203.652 1707.83 203.652 1708.04 203.551C1708.24 203.246 1708.54 203.043 1708.54 202.435Z" fill="white"/>
<path d="M1663.61 317.149C1663.61 316.946 1663.51 316.743 1663.41 316.641C1663.21 316.439 1662.9 316.337 1662.6 316.337C1662.5 316.337 1662.5 316.337 1662.39 316.337H1662.29C1662.09 316.439 1661.68 316.641 1661.68 317.047V317.149C1661.68 317.351 1661.89 317.656 1661.99 317.859C1662.09 317.96 1662.09 318.061 1662.19 318.163L1662.29 318.264C1662.39 318.366 1662.39 318.366 1662.5 318.467C1662.6 318.467 1662.6 318.467 1662.7 318.467H1662.8H1662.9L1663 318.366C1663.1 318.264 1663.21 318.061 1663.31 317.859C1663.41 317.656 1663.61 317.453 1663.61 317.149Z" fill="white"/>
<path d="M1757.74 67.8393C1757.74 67.8393 1757.74 67.7379 1757.74 67.8393C1757.63 67.7379 1757.63 67.7379 1757.63 67.6365C1757.43 67.3322 1757.13 66.9265 1756.82 66.6222C1756.11 65.9122 1755.1 65.2023 1753.88 64.898C1753.58 64.7966 1753.27 64.7966 1752.97 64.6952C1752.87 64.6952 1752.77 64.6952 1752.56 64.6952C1751.55 64.898 1750.74 66.318 1750.33 67.9408C1750.33 68.1437 1750.23 68.2451 1750.23 68.448C1750.03 69.4622 1750.03 70.4765 1750.33 71.1865C1750.43 71.4908 1750.64 71.795 1750.84 71.8964C1750.94 71.9978 1751.04 71.9978 1751.14 72.0992C1751.55 72.3021 1752.06 72.3022 1752.56 72.2007C1753.07 72.0993 1753.58 71.8965 1754.08 71.6936C1754.39 71.5922 1754.69 71.3894 1754.9 71.288C1755.1 71.1866 1755.3 71.0851 1755.4 70.9837C1755.5 70.8822 1755.61 70.8823 1755.71 70.7809C1756.42 70.3751 1756.92 69.868 1757.33 69.4622C1757.94 69.0565 1758.14 68.5493 1757.74 67.8393Z" fill="white"/>
<path d="M1556.66 354.354C1556.66 354.253 1556.66 354.253 1556.66 354.253C1556.66 354.05 1556.45 353.847 1556.25 353.847C1555.85 353.847 1554.93 353.949 1554.12 353.442C1553.92 353.34 1553.72 353.239 1553.51 353.036C1553.41 353.036 1553.31 352.935 1553.31 352.935C1552.6 352.63 1551.99 353.036 1551.89 353.645C1551.89 353.746 1551.89 353.746 1551.89 353.847C1551.89 354.253 1551.99 354.557 1552.09 354.963C1552.19 355.166 1552.19 355.267 1552.3 355.47C1552.3 355.572 1552.4 355.673 1552.5 355.775C1552.7 356.18 1553.11 356.789 1553.41 357.093C1553.72 357.398 1553.92 357.499 1554.22 357.6C1554.32 357.6 1554.53 357.6 1554.63 357.499C1554.73 357.499 1554.83 357.397 1554.93 357.296C1555.03 357.195 1555.03 357.093 1555.14 356.992C1555.54 356.383 1555.95 355.775 1556.15 355.47C1556.45 355.267 1556.66 354.963 1556.66 354.354Z" fill="white"/>
<path d="M1737.86 401.842C1737.86 401.741 1737.86 401.741 1737.86 401.842C1737.86 401.741 1737.86 401.741 1737.86 401.842C1737.86 401.639 1737.76 401.538 1737.65 401.335C1737.35 401.031 1736.94 400.524 1736.54 400.929C1736.44 401.031 1736.34 401.132 1736.23 401.233L1736.13 401.335C1735.83 401.639 1735.52 401.741 1735.32 401.944C1735.32 401.944 1735.32 401.944 1735.32 402.045C1735.22 402.146 1735.22 402.349 1735.32 402.552C1735.32 402.654 1735.42 402.755 1735.42 402.755L1735.52 402.857C1735.63 402.958 1735.83 403.059 1736.03 402.958C1736.23 402.958 1736.44 402.856 1736.54 402.755C1736.64 402.755 1736.74 402.654 1736.84 402.654C1736.94 402.654 1736.94 402.654 1737.05 402.654H1737.15C1737.35 402.654 1737.55 402.654 1737.65 402.552C1737.76 402.451 1737.86 402.146 1737.86 401.842Z" fill="white"/>
<path d="M1408.42 201.623C1408.32 201.623 1408.32 201.623 1408.42 201.623C1408.32 201.623 1408.32 201.623 1408.42 201.623C1408.32 201.421 1408.22 201.319 1408.11 201.218C1407.91 201.015 1407.51 200.711 1407.2 200.609C1407.1 200.609 1407 200.609 1406.9 200.508H1406.8C1406.49 200.609 1406.19 201.015 1406.09 201.522C1406.09 201.623 1406.09 201.623 1406.09 201.725C1405.98 202.029 1405.98 202.435 1406.09 202.638C1406.09 202.739 1406.19 202.84 1406.29 202.84C1406.29 202.84 1406.39 202.84 1406.39 202.942C1406.49 203.043 1406.69 203.043 1406.9 202.942C1407.1 202.942 1407.2 202.84 1407.4 202.739C1407.51 202.739 1407.61 202.638 1407.71 202.638C1407.81 202.638 1407.81 202.536 1407.91 202.536C1407.91 202.536 1408.01 202.536 1408.01 202.435C1408.22 202.333 1408.42 202.13 1408.52 202.029C1408.42 202.029 1408.52 201.928 1408.42 201.623Z" fill="white"/>
<path d="M1687.65 45.4242C1687.65 45.2213 1687.55 45.1198 1687.45 45.0183C1687.24 44.8155 1687.14 44.7141 1686.74 44.6127C1686.64 44.6127 1686.53 44.6127 1686.43 44.6127H1686.33C1686.03 44.6127 1685.42 44.9169 1685.32 45.3227V45.4242C1685.32 45.7285 1685.42 46.0327 1685.62 46.1341C1685.72 46.2356 1685.72 46.2355 1685.82 46.3369L1685.93 46.4385C1686.03 46.5399 1686.13 46.7425 1686.33 46.7425C1686.53 46.7425 1686.64 46.6412 1686.74 46.5397C1686.84 46.4383 1686.84 46.4384 1686.84 46.3369L1686.94 46.2354C1686.94 46.2354 1686.94 46.1341 1687.04 46.1341C1687.14 46.0327 1687.24 46.0328 1687.35 45.9313C1687.45 45.8299 1687.65 45.7285 1687.65 45.4242Z" fill="white"/>
<path d="M247.444 91.4034C247.343 91.4034 247.343 91.4034 247.343 91.4034C247.039 91.4034 246.836 91.6062 246.633 91.8091C246.227 92.2148 246.024 92.5191 245.821 93.2291C245.72 93.432 245.821 93.6348 245.821 93.7362C245.821 93.8377 245.821 93.8377 245.821 93.9391C245.923 94.5477 246.328 95.6634 247.241 95.9676C247.343 95.9676 247.444 95.9676 247.546 95.9676C248.053 95.9676 248.661 95.6634 249.067 95.3591C249.27 95.2576 249.371 95.0548 249.473 94.9534C249.473 94.8519 249.574 94.852 249.676 94.7505C249.879 94.5477 250.284 94.2434 250.284 93.9391C250.284 93.6348 250.081 93.3305 249.777 93.1277C249.676 93.0262 249.473 92.9248 249.371 92.8234C249.27 92.7219 249.169 92.6205 249.067 92.6205C248.966 92.6205 248.966 92.5191 248.966 92.5191C248.661 92.3162 248.661 92.1134 248.56 91.9105C248.256 91.7077 248.053 91.4034 247.444 91.4034Z" fill="white"/>
<path d="M112.848 42.2109C112.848 42.2109 112.747 42.2109 112.848 42.2109C112.747 42.3123 112.747 42.3123 112.645 42.3123C112.341 42.5152 111.935 42.8195 111.631 43.1237C110.921 43.8337 110.211 44.848 109.907 46.0652C109.805 46.3695 109.806 46.6737 109.704 46.978C109.704 47.0794 109.704 47.1809 109.704 47.3837C109.907 48.398 111.327 49.2094 112.95 49.6151C113.153 49.6151 113.254 49.7166 113.457 49.7166C114.471 49.9194 115.485 49.9194 116.195 49.6151C116.5 49.5137 116.804 49.3109 116.905 49.108C117.007 49.0066 117.007 48.9051 117.108 48.8037C117.311 48.398 117.311 47.8909 117.21 47.3837C117.108 46.8766 116.905 46.3694 116.703 45.8623C116.601 45.558 116.398 45.2537 116.297 45.0509C116.195 44.848 116.094 44.6452 115.993 44.5438C115.891 44.4423 115.891 44.3409 115.79 44.2395C115.384 43.5295 114.877 43.0223 114.471 42.6166C114.065 42.008 113.558 41.8052 112.848 42.2109Z" fill="white"/>
<path d="M419.363 353.29C419.262 353.29 419.262 353.29 419.262 353.29C419.059 353.29 418.856 353.493 418.856 353.696C418.856 354.101 418.958 355.014 418.45 355.826C418.349 356.028 418.248 356.231 418.045 356.434C418.045 356.536 417.943 356.637 417.943 356.637C417.639 357.347 418.045 357.956 418.653 358.057C418.755 358.057 418.755 358.057 418.856 358.057C419.262 358.057 419.566 357.956 419.972 357.854C420.175 357.753 420.276 357.753 420.479 357.651C420.58 357.651 420.682 357.55 420.783 357.448C421.189 357.246 421.798 356.84 422.102 356.536C422.406 356.231 422.508 356.028 422.609 355.724C422.609 355.623 422.609 355.42 422.508 355.318C422.508 355.217 422.406 355.116 422.305 355.014C422.203 354.913 422.102 354.913 422 354.811C421.392 354.406 420.783 354 420.479 353.797C420.276 353.493 419.972 353.29 419.363 353.29Z" fill="white"/>
<path d="M40.2261 389.906C40.3275 389.906 40.3275 389.906 40.2261 389.906C40.429 389.804 40.6318 389.804 40.7333 389.703C41.0375 389.5 41.139 389.094 41.2404 388.689C41.2404 388.587 41.2404 388.486 41.2404 388.385V388.283C41.139 387.877 40.7331 387.675 40.3274 387.573H40.2261C40.0233 387.573 39.7188 387.573 39.5159 387.674C39.4145 387.674 39.3131 387.776 39.3131 387.877L39.2118 387.979C39.1104 388.08 39.1102 388.283 39.0088 388.385C39.0088 388.486 39.0088 388.689 39.0088 388.79C39.0088 388.892 39.0088 388.993 39.0088 388.993C39.0088 389.094 39.0088 389.094 39.0088 389.196V389.297C39.1102 389.5 39.2117 389.703 39.3131 389.804C39.6174 389.906 39.9218 390.007 40.2261 389.906Z" fill="white"/>
<path d="M90.4335 112.298C90.2307 112.298 90.1291 112.399 90.0277 112.5C89.8248 112.703 89.7235 112.805 89.6221 113.21C89.6221 113.312 89.6221 113.413 89.6221 113.515V113.616C89.6221 113.92 89.9263 114.529 90.332 114.63H90.4335C90.7378 114.63 91.0421 114.529 91.1435 114.326C91.2449 114.225 91.2449 114.225 91.3463 114.123L91.4478 114.022C91.5492 113.92 91.7519 113.819 91.7519 113.616C91.7519 113.413 91.6505 113.312 91.5491 113.21C91.4477 113.109 91.4477 113.109 91.3463 113.109L91.2448 113.008C91.2448 113.008 91.1435 113.008 91.1435 112.906C91.0421 112.805 91.0421 112.703 90.9407 112.602C90.8393 112.5 90.7378 112.298 90.4335 112.298Z" fill="white"/>
<g style="mix-blend-mode:screen">
<path d="M0 0.000244141H1792V740H0V0.000244141Z" fill="#5B55FF" fill-opacity="0.3"/>
</g>
<g clip-path="url(#clip1_6234_168893)">
<path d="M671.658 583.589C702.363 594.807 717.613 619.964 757.64 657.44L359.368 704.791C359.195 622.135 388.488 624.805 469.696 617.103C523.198 613.019 518.546 559.776 671.658 583.589Z" fill="#37257D"/>
<path d="M1205.71 615.988C1205.71 615.988 1244.27 573.187 1254.39 564.778C1264.5 556.37 1308.27 551.304 1338.58 549.15C1368.88 546.996 1377.31 554.681 1390.77 568.138C1404.22 581.596 1440.44 575.772 1489.78 577.46C1527.22 578.667 1522.1 545.428 1590.18 545.428C1619.76 545.428 1680.85 545.428 1705.62 556.353L1611.08 666.353L1205.71 615.988Z" fill="#7AE8F9"/>
<mask id="mask1_6234_168893" style="mask-type:alpha" maskUnits="userSpaceOnUse" x="-4891" y="609" width="11985" height="11985">
<path d="M-1065.07 1017.12C2019.19 -179.664 5489.66 1350.29 6686.44 4434.55C7883.22 7518.8 6353.09 10989.3 3268.83 12186.1C184.579 13382.9 -3285.96 11852.8 -4482.74 8768.52C-5679.52 5684.26 -4149.32 2213.88 -1065.07 1017.12ZM3203.25 12017.1C6194.17 10856.6 7677.84 7491.13 6517.35 4500.37C5356.84 1509.59 1991.43 25.5375 -999.502 1186.1C-3990.42 2346.66 -5474.09 5712.1 -4313.58 8702.87C-3153.09 11693.6 212.338 13177.7 3203.25 12017.1Z" fill="white"/>
</mask>
<g mask="url(#mask1_6234_168893)">
<path d="M4738.46 505.794C4685.24 493.922 4448.35 129.68 3738.34 43.6817C3072.54 -36.9411 3138.47 -79.5183 2683.88 -122.147C2229.3 -164.776 1580.89 7.53153 917.248 94.8226C253.537 181.959 -738.49 480.947 -1769.01 1002.63C-2799.62 1524.15 -3089.87 1612.56 -3608.1 2032.68C-4126.52 2452.85 -4214.75 2852.3 -4410.83 3058.14C-4606.75 3263.91 -5036.64 3788.34 -4881.11 4231.09L4738.46 505.794Z" fill="#EE5928"/>
<path d="M4736.84 505.639C4683.62 493.767 4446.73 129.526 3736.72 43.5268C3070.99 -36.9409 3136.9 -79.5181 2682.33 -122.147C2227.75 -164.776 1579.34 7.53177 915.696 94.8228C251.984 181.959 -740.026 480.947 -1770.58 1002.63C-2801.17 1524.15 -3091.42 1612.56 -3609.67 2032.68C-4128.08 2452.85 -4216.32 2852.3 -4412.39 3058.14C-4608.3 3263.89 -5038.19 3788.34 -4882.66 4231.09L4736.84 505.639Z" fill="#36C6DA"/>
<g opacity="0.4">
<path d="M1021.74 818.532C853.339 907.529 419.813 852.477 419.813 852.477C419.813 852.477 451.191 819.049 513.015 804.489C584.574 787.431 719.543 766.116 760.362 748.437C798.408 732.189 837.401 721.678 915.939 721.161C998.181 720.661 1039.64 737.479 1102.44 716.44C1165.25 695.401 1243.6 700.105 1317.21 710.737C1381.27 720.076 1592.06 796.494 1735.49 766.53C1927.47 726.417 2003.68 764.669 2081.82 789.791C2147.87 810.916 2231.04 819.497 2282.29 771.51C2332.86 724.159 2411.19 843.655 2411.19 843.655C2411.19 843.655 1762.28 851.305 1649.68 810.71L1021.74 818.532Z" fill="#36C6DA"/>
</g>
<path d="M1657.07 469.609C1704.87 401.341 2658.73 585.141 2742.8 537.912C2845.34 480.189 2475.92 386.04 2086.89 370.842C1697.92 355.8 1202.62 352.078 1013.65 391.399C824.511 430.771 604.939 435.027 232.927 485.668C-139.068 536.309 -614.431 759.207 -916.073 837.813C-1217.65 916.575 -1408.11 952.036 -1685.69 1136.46C-1963.27 1320.86 -2286.9 1408 -2575.57 1520.01C-2864.24 1632.01 -3219.84 1965.91 -3352 2195.93C-3484.11 2426.09 -3646.34 2473.89 -3868.24 2837.05C-4152.94 3303.12 -4170.09 3447.1 -4170.09 3447.1L-3655.9 3018.4C-3265.52 2801.31 -3132.41 2483.7 -2995.12 2315.46C-2857.67 2147.16 -2402.38 1772 -2047 1612.84C-1920.87 1556.32 -1900.47 1488.9 -1758.31 1428.93C-1680.48 1396.14 -1599.01 1346.97 -1534.28 1282.3C-1483.29 1231.28 -1402.26 1238.65 -1333.09 1179.65C-1257.66 1115.45 -1238.82 1108.7 -1155.06 1086.9C-1083.18 1068.26 -1006.03 1052.73 -939.059 1018.62C-876.563 986.791 -836.38 988.393 -776.882 983.586C-713.094 978.417 -695.536 945.557 -603.868 946.953C-534.756 947.866 -511.666 911.182 -437.591 930.119C-346.01 953.725 -316.321 903.032 -263.802 920.728C-64.3556 987.497 163.763 956.654 365.707 830.232C503.846 743.733 628.046 761.343 724.882 722.281C801.87 691.111 861.591 684.029 911.233 688.595C969.921 694.092 1044.93 703.069 1106.72 685.562C1226.83 651.704 1339.93 681.203 1459.77 704.74C1538.59 720.179 1634.29 754.382 1725.97 731.569C1867.2 696.366 1982.57 713.149 2082.48 748.679C2361.46 847.98 2373.82 592.568 1714.08 523.266C1672.54 519.044 1622.31 519.13 1657.07 469.609Z" fill="#4CE6FC"/>
<g opacity="0.5">
<path d="M-2249.1 1644.49C-2199.42 1621.52 -2152.22 1605.05 -2110.37 1590.47C-2021.48 1559.49 -1957.38 1518.91 -1907.89 1451.64C-1858.94 1385.34 -1800.2 1386.2 -1723.44 1367.33C-1677.09 1355.8 -1612.14 1311.19 -1561.8 1248.97C-1541.22 1223.42 -1492.25 1206.28 -1444.94 1189.58C-1408.03 1176.55 -1373.22 1164.34 -1353.29 1149.04C-1264.2 1080.46 -1181.82 1051.25 -1113.04 1031.78C-1112.73 1031.66 -1111.28 1031.09 -1109.68 1030.47C-1039.05 1002.88 -973.95 985.378 -931.925 975.539C-909.387 970.301 -885.798 967.251 -860.899 964.236C-811.568 958.032 -760.651 951.571 -707.89 927.034C-688.626 918.074 -667.363 916.661 -646.91 915.576C-624.166 914.146 -602.679 912.836 -583.622 901.929C-553.33 884.25 -523.762 876.669 -492.092 878.237C-513.286 869.828 -541.803 862.04 -619.772 888.782C-645.205 897.535 -675.6 896.398 -704.892 895.192C-744.299 893.658 -785.015 892.09 -814.049 914.439L-817.306 910.338C-786.91 886.714 -745.212 888.455 -704.875 890.005C-675.962 891.177 -646.118 892.349 -621.495 883.888C-536.22 854.51 -508.341 865.865 -485.751 875.032C-480.013 877.427 -474.344 879.667 -468.279 881.011C-467.452 881.252 -466.694 881.321 -465.695 881.493L-465.97 882.7C-464.747 882.975 -463.592 883.079 -462.386 883.337C-448.429 885.491 -437.367 887.3 -408.644 884.664C-370.788 881.252 -343.184 870.914 -342.65 870.879C-332.69 867.02 -324.42 863.074 -316.476 859.248C-288.752 845.912 -266.851 835.194 -196.602 845.257C-173.53 848.496 -146.667 840.105 -115.652 830.473C-76.5722 818.274 -32.0306 804.489 17.3184 810.675C76.5405 818.015 142.862 818.894 227.413 774.8C333.193 719.714 381.456 721.678 437.491 724.142C455.152 724.866 463.647 726.744 481.549 728.122C483.841 728.346 494.938 728.829 501.348 729.122C539.979 728.174 600.08 723.522 642.295 704.189C655.959 697.968 669.158 690.06 683.098 681.703C735.428 650.308 794.736 614.537 910.871 646.173C1019.77 675.81 1057.95 665.609 1184.17 631.251C1231.83 618.311 1288.33 630.562 1348.48 643.64C1373.35 649.154 1399.16 654.668 1424.87 658.544C1575 681.065 1734.24 678.032 1898.16 649.378L1898.31 649.309C1898.69 649.343 1942.43 645.311 2004.09 658.527C2026.7 663.438 2048.34 674.448 2071.33 686.045C2112.49 706.86 2154.88 728.467 2212.09 721.075L2212.78 726.175C2154.17 733.757 2108.87 710.857 2069.05 690.645C2046.45 679.084 2025.1 668.332 2003.1 663.559C1943.61 650.773 1901.12 654.151 1899 654.409C1734.55 683.098 1574.76 686.148 1424.02 663.507C1398.14 659.682 1372.28 654.013 1347.26 648.568C1287.93 635.731 1231.81 623.497 1185.51 636.11C1058.21 670.537 1019.77 681.013 909.596 650.946C795.494 619.81 737.237 654.978 685.82 685.838C671.726 694.264 658.423 702.38 644.587 708.669C584.434 736.083 489.614 734.618 467.524 733.929C427.738 736.617 372.427 743.664 328.368 780.159C287.1 814.293 206.357 897.742 105.281 909.235C105.281 909.235 -8.75183 924.467 -85.67 896.277C-91.2872 894.21 -100.454 892.021 -112.722 888.472C-122.148 885.663 -132.486 886.163 -144.617 886.8C-162.416 887.61 -184.661 888.851 -214.177 879.96C-255.359 867.657 -305.19 865.934 -340.996 875.566C-343.253 876.445 -370.805 886.387 -408.178 889.626C-437.453 892.297 -448.895 890.453 -463.231 888.248C-465.763 887.938 -468.348 887.455 -471.105 887.042L-470.898 885.663C-509.857 878.599 -545.059 885.06 -581.089 906.064C-601.146 917.73 -624.252 919.125 -646.669 920.418C-666.674 921.71 -687.299 922.882 -705.754 931.514C-759.324 956.361 -810.551 962.943 -860.279 969.112C-885.109 972.282 -908.543 975.263 -930.77 980.381C-972.296 990.03 -1036.07 1007.19 -1105.61 1034.18C-1106.42 1034.49 -1107.06 1034.74 -1107.87 1035.05C-1110.59 1036.11 -1111.4 1036.43 -1111.73 1036.55C-1180.17 1055.9 -1261.91 1084.85 -1350.25 1152.96C-1370.78 1168.68 -1406.01 1181.24 -1443.28 1194.23C-1489.96 1210.67 -1538.29 1227.57 -1557.83 1251.99C-1608.78 1315 -1674.88 1360.44 -1722.27 1372.16C-1797.86 1390.77 -1856.11 1389.71 -1903.76 1454.61C-1954.23 1523.17 -2019.03 1563.83 -2108.72 1595.12C-2150.42 1609.63 -2197.61 1626.1 -2246.98 1648.95C-2480.82 1757.44 -2662.69 1897.49 -2664.58 1898.78L-2667.84 1894.7C-2665.87 1893.63 -2483.54 1753.39 -2249.1 1644.49ZM-212.781 875.049C-184.092 883.699 -162.33 882.648 -144.978 881.631C-132.452 881.028 -121.579 880.494 -111.327 883.544C-99.8854 886.869 -92.3556 889.109 -87.307 890.677C-87.307 890.677 -23.1912 918.281 92.2205 906.581C205.616 894.916 291.288 804.196 324.853 776.386C359.16 748.11 405.786 735.376 444.951 729.604C442.332 729.518 439.713 729.415 437.094 729.328C381.818 726.933 334.089 724.935 229.532 779.367C143.758 824.115 76.3509 823.288 16.3706 815.879C-31.979 809.882 -75.8313 823.564 -114.428 835.573C-146.081 845.447 -173.271 853.976 -197.549 850.461C-266.214 840.691 -286.408 850.564 -314.443 864.039C-316.149 864.883 -317.7 865.676 -319.405 866.52C-286.081 861.902 -246.657 864.9 -212.781 875.049Z" fill="#158696"/>
</g>
<g opacity="0.4">
<path fill-rule="evenodd" clip-rule="evenodd" d="M2016.71 620.843C1998.55 627.891 1718.39 667.47 1531.49 656.459C1444.29 651.307 1283.58 584.831 1088.73 619.964C999.44 636.127 940.924 622.98 836.764 617.001C773.096 613.434 730.14 636.558 655.014 660.164C478.02 716.095 382.01 668.693 249.557 730.81C151.686 776.73 27.7107 799.699 -91.0093 788.102C-165.394 780.745 -239.177 792.548 -304.326 826.148C-380.762 865.417 -483.543 838.209 -577.21 839.26C-902.871 843.086 -1411.44 959.479 -1613.09 1254.32C-1650.84 1309.45 -1659.27 1329.17 -1725.8 1335.39C-2057.78 1366.25 -1958.77 1532.8 -2106.18 1541.59C-2424.83 1560.61 -2644.06 1823.48 -2922.28 2070.98C-3200.51 2318.49 -3272.69 2631.67 -3423.06 2775.24C-3573.43 2918.79 -3663.96 2937.47 -3663.96 2937.47L-3289.23 2240.36L-1694.47 970.231L-418.153 285.532L1561.92 543.356L2016.71 620.843Z" fill="#C5F8FF"/>
</g>
<path opacity="0.4" d="M1368.68 678.841C1366.99 679.496 1365.09 678.651 1364.44 676.98C1363.78 675.291 1364.63 673.396 1366.3 672.741C1367.99 672.087 1369.88 672.931 1370.54 674.602C1371.21 676.291 1370.37 678.186 1368.68 678.841Z" fill="#FFE241"/>
<path opacity="0.4" d="M1086.85 695.778C1085.16 696.433 1083.27 695.589 1082.61 693.917C1081.96 692.229 1082.8 690.333 1084.47 689.679C1086.16 689.024 1088.06 689.868 1088.71 691.54C1089.38 693.228 1088.54 695.124 1086.85 695.778Z" fill="#FFE241"/>
<path opacity="0.4" d="M1033.36 705.583C1031.68 706.237 1029.78 705.393 1029.13 703.722C1028.47 702.033 1029.31 700.138 1030.99 699.483C1032.67 698.828 1034.57 699.672 1035.22 701.344C1035.9 703.015 1035.05 704.928 1033.36 705.583Z" fill="#FFE241"/>
<path opacity="0.4" d="M602.734 692.782C601.046 693.437 599.15 692.592 598.496 690.921C597.841 689.232 598.685 687.337 600.356 686.682C602.045 686.028 603.94 686.855 604.595 688.543C605.25 690.232 604.423 692.127 602.734 692.782Z" fill="#FFE241"/>
<path opacity="0.4" d="M790.033 676.292C786.122 677.808 781.728 675.878 780.229 671.967C778.712 668.056 780.642 663.662 784.554 662.163C788.448 660.646 792.842 662.576 794.358 666.487C795.874 670.382 793.944 674.776 790.033 676.292Z" fill="#FFE241"/>
<path opacity="0.4" d="M1255.37 657.079C1251.45 658.595 1247.08 656.648 1245.56 652.754C1244.05 648.843 1245.98 644.449 1249.89 642.95C1253.8 641.433 1258.19 643.363 1259.69 647.275C1261.21 651.169 1259.26 655.563 1255.37 657.079Z" fill="#FFE241"/>
<path opacity="0.4" d="M1438.43 699.793C1434.52 701.309 1430.12 699.379 1428.62 695.468C1427.11 691.556 1429.04 687.18 1432.95 685.663C1436.86 684.147 1441.25 686.077 1442.75 689.988C1444.27 693.882 1442.34 698.276 1438.43 699.793Z" fill="#FFDF33"/>
<path opacity="0.4" d="M853.578 673.809C851.889 674.464 849.994 673.62 849.339 671.948C848.684 670.26 849.529 668.364 851.2 667.71C852.889 667.055 854.784 667.899 855.439 669.571C856.094 671.259 855.267 673.155 853.578 673.809Z" fill="#FFE13E"/>
<path opacity="0.3" d="M1174.26 714.804C1172.57 715.458 1170.68 714.614 1170.02 712.943C1169.37 711.254 1170.21 709.359 1171.88 708.704C1173.57 708.049 1175.47 708.893 1176.12 710.565C1176.78 712.253 1175.95 714.149 1174.26 714.804Z" fill="#A54130"/>
<path opacity="0.4" d="M1562.32 710.788C1558.4 712.304 1554.03 710.374 1552.51 706.463C1550.99 702.552 1552.92 698.158 1556.84 696.659C1560.75 695.142 1565.14 697.09 1566.64 700.984C1568.16 704.878 1566.21 709.272 1562.32 710.788Z" fill="#A54130"/>
<path opacity="0.4" d="M1763.26 658.509C1761.57 659.164 1759.68 658.32 1759.02 656.648C1758.37 654.96 1759.21 653.064 1760.88 652.409C1762.57 651.755 1764.47 652.582 1765.12 654.27C1765.78 655.959 1764.95 657.854 1763.26 658.509Z" fill="#A54130"/>
<path opacity="0.4" d="M1690.03 715.559C1688.34 716.214 1686.45 715.369 1685.79 713.698C1685.14 712.009 1685.98 710.114 1687.67 709.459C1689.36 708.804 1691.25 709.632 1691.91 711.32C1692.55 713.009 1691.72 714.921 1690.03 715.559Z" fill="#A54130"/>
<path opacity="0.4" d="M1505.94 697.915C1504.25 698.57 1502.35 697.742 1501.7 696.054C1501.04 694.365 1501.89 692.47 1503.56 691.815C1505.25 691.16 1507.14 691.987 1507.8 693.676C1508.45 695.365 1507.62 697.26 1505.94 697.915Z" fill="#A54130"/>
<path d="M147.43 705.895C143.518 707.411 139.124 705.481 137.608 701.57C136.092 697.658 138.039 693.282 141.933 691.765C145.844 690.249 150.238 692.179 151.754 696.09C153.271 699.985 151.324 704.378 147.43 705.895Z" fill="#EE5928"/>
<path d="M64.2896 720.765C62.6182 721.42 60.7228 720.576 60.068 718.904C59.4133 717.216 60.2404 715.32 61.929 714.666C63.6176 714.011 65.513 714.855 66.1678 716.526C66.8226 718.215 65.9782 720.11 64.2896 720.765Z" fill="#EE5928"/>
<path d="M352.113 678.032C350.441 678.687 348.529 677.843 347.874 676.171C347.219 674.483 348.064 672.587 349.752 671.933C351.441 671.278 353.336 672.122 353.991 673.794C354.646 675.482 353.801 677.377 352.113 678.032Z" fill="#EE5928"/>
<path d="M1439.19 601.907L1456.73 591.758L1476.11 603.027L1477.09 603.544C1476.37 604.819 1475.51 606.043 1474.51 607.214C1473.73 608.076 1472.96 608.937 1472.1 609.592C1467.94 613.211 1462.62 615.278 1456.74 615.33C1448.08 615.347 1440.43 610.54 1436.38 603.544L1439.19 601.907Z" fill="#EE5928"/>
<g opacity="0.4">
<path opacity="0.4" d="M1459.17 612.969C1464.39 612.952 1469.3 611.263 1473.16 608.317C1472.78 608.799 1472.42 609.264 1472.11 609.609C1467.96 613.228 1462.64 615.295 1456.76 615.347C1448.09 615.381 1440.44 610.557 1436.39 603.561L1439.31 601.872C1443.32 608.541 1450.73 613.004 1459.17 612.969Z" fill="#A54130"/>
</g>
<path d="M1476.11 603.044C1475.39 604.888 1474.42 606.697 1473.15 608.317C1469.29 611.263 1464.38 612.952 1459.16 612.969C1450.72 613.021 1443.41 608.506 1439.19 601.924L1456.73 591.775L1476.11 603.044Z" fill="#EE5928"/>
</g>
<mask id="mask2_6234_168893" style="mask-type:alpha" maskUnits="userSpaceOnUse" x="1436" y="591" width="42" height="25">
<path d="M1439.27 601.976L1456.69 591.793L1476.19 603.131L1477.12 603.648C1476.4 604.905 1475.57 606.163 1474.54 607.318C1473.82 608.162 1472.99 608.989 1472.16 609.73C1468.01 613.297 1462.62 615.502 1456.81 615.502C1448.09 615.502 1440.53 610.678 1436.37 603.544L1439.27 601.976Z" fill="white"/>
</mask>
<g mask="url(#mask2_6234_168893)">
<g opacity="0.4">
<path opacity="0.4" d="M1478.54 610.109L1479.64 609.144C1479.58 609.075 1473.1 601.769 1462.19 604.974C1446.15 609.592 1433.98 601.717 1433.86 601.648L1433.05 602.872C1433.57 603.216 1445.87 611.194 1462.59 606.387C1472.58 603.458 1478.3 609.85 1478.54 610.109Z" fill="#FFE241"/>
</g>
<g opacity="0.4">
<path opacity="0.4" d="M1453.8 598.668C1461.52 598.668 1464.81 594.015 1464.98 593.757L1463.78 592.93C1463.59 593.223 1458.8 599.874 1446.67 595.962L1446.22 597.358C1449.11 598.306 1451.63 598.668 1453.8 598.668Z" fill="#FFE241"/>
</g>
<path d="M1480.25 583.315C1480.26 587.657 1479.14 591.637 1477.04 595.118L1476.06 594.601L1456.68 583.332L1456.64 562.328V559.76C1469.79 559.778 1480.32 570.271 1480.25 583.315Z" fill="#EE5928"/>
<path d="M1438.93 567.979C1435.38 572.029 1433.24 577.422 1433.21 583.332C1433.19 587.433 1434.22 591.31 1436.12 594.98L1436.2 595.083C1436.76 594.79 1438.81 593.584 1439.12 593.377L1456.73 583.315V562.517V559.95C1450.85 560.001 1445.53 562.069 1441.37 565.688C1441.06 566.032 1440.63 566.342 1440.25 566.808C1439.82 567.101 1439.34 567.6 1438.93 567.979Z" fill="#EE5928"/>
<g opacity="0.4">
<path opacity="0.4" d="M1456.74 562.293L1456.62 583.47L1439.17 593.343C1436.94 589.638 1435.5 585.21 1435.6 580.61C1435.67 575.354 1437.19 570.633 1440.25 566.773C1444.28 563.758 1449.37 562.069 1454.62 562.138C1455.42 562.173 1455.92 562.155 1456.74 562.293Z" fill="#FFE241"/>
</g>
<path d="M1480.25 583.315C1480.26 587.657 1479.14 591.637 1477.04 595.118L1476.06 594.601L1456.68 583.332L1456.64 562.328V559.76C1469.79 559.778 1480.32 570.271 1480.25 583.315Z" fill="#EE5928"/>
<g opacity="0.4">
<path opacity="0.4" d="M1480.25 583.315C1480.26 587.657 1479.14 591.637 1477.04 595.118L1476.06 594.601L1456.68 583.332L1456.64 562.328V559.76C1469.79 559.778 1480.32 570.271 1480.25 583.315Z" fill="#FFE241"/>
</g>
</g>
<mask id="mask3_6234_168893" style="mask-type:alpha" maskUnits="userSpaceOnUse" x="1433" y="559" width="48" height="37">
<path d="M1438.89 567.876C1439.67 567.015 1440.45 566.153 1441.31 565.498C1445.46 561.88 1450.78 559.812 1456.66 559.76C1469.65 559.726 1480.21 570.306 1480.27 583.315C1480.28 587.657 1479.16 591.637 1477.06 595.118L1476.08 594.601L1456.69 583.332L1439.15 593.481L1436.24 595.17C1434.24 591.724 1433.12 587.709 1433.1 583.367C1433.16 577.439 1435.29 572.063 1438.89 567.876Z" fill="white"/>
</mask>
<g mask="url(#mask3_6234_168893)">
</g>
<path d="M1794.53 753.908V442.903C1700.7 442.903 1684.12 512.868 1675.63 525.411C1667.13 537.954 1637.22 583.611 1578.97 599.425C1465.73 630.16 1453.2 704.98 1465.73 753.922H1794.53V753.908Z" fill="#24A6B8"/>
<path opacity="0.5" d="M1527.71 763.913C1502.8 770.058 1498.73 800.58 1491.31 820.938C1538.5 834.02 1638.6 852.325 1661.58 820.938C1690.29 781.709 1638.72 714.59 1606.98 739.252C1565.31 771.601 1558.84 756.226 1527.71 763.913Z" fill="#EE5928"/>
<path d="M1792 752V506C1744.53 524.436 1758.56 552.515 1744.53 602.799C1738.72 623.579 1722.24 649.738 1679.6 670.263C1639.99 689.349 1687.84 738.857 1691.72 751.986H1792V752Z" fill="#36C6DA"/>
<path d="M1712.06 650.233C1708.94 650.233 1706.4 647.697 1706.4 644.57C1706.4 641.442 1708.94 638.907 1712.06 638.907C1715.19 638.907 1717.73 641.442 1717.73 644.57C1717.73 647.697 1715.19 650.233 1712.06 650.233Z" fill="#F8D829"/>
<path d="M1708.43 664.787C1706.42 664.787 1704.79 663.158 1704.79 661.149C1704.79 659.139 1706.42 657.51 1708.43 657.51C1710.44 657.51 1712.07 659.139 1712.07 661.149C1712.07 663.158 1710.44 664.787 1708.43 664.787Z" fill="#EFCF23"/>
<path d="M1694.68 657.509C1692.67 657.509 1691.04 655.88 1691.04 653.871C1691.04 651.862 1692.67 650.233 1694.68 650.233C1696.69 650.233 1698.32 651.862 1698.32 653.871C1698.32 655.88 1696.69 657.509 1694.68 657.509Z" fill="#F8D829"/>
<path d="M352.249 590.707C322.251 521.56 182.13 484.307 -11.4231 495.645V859.921H532.724C549.921 748.214 498.452 695.074 458.753 676.826C388.4 644.484 376.562 646.724 352.249 590.707Z" fill="#EE5928"/>
<path d="M352.249 590.707C322.251 521.56 182.13 484.307 -11.4231 495.645V859.921H532.724C549.921 748.214 498.452 695.074 458.753 676.826C388.4 644.484 376.562 646.724 352.249 590.707Z" fill="#36C6DA"/>
<path opacity="0.4" fill-rule="evenodd" clip-rule="evenodd" d="M292.208 654.91C321.727 641.73 357.462 633.26 378.215 634.658L374.769 630.351C352.807 628.872 319.963 636.857 290.1 650.19C275.124 656.877 261.057 664.857 249.972 673.565C238.947 682.227 230.581 691.835 227.491 701.859C226.414 705.353 225.383 708.751 224.38 712.056C213.893 746.619 206.463 771.108 181.487 789.91C153.942 810.647 104.761 824.625 5.73026 835.52L6.29554 840.658C105.229 829.774 155.78 815.734 184.596 794.04C210.983 774.175 218.898 748.027 229.263 713.783C230.288 710.396 231.338 706.929 232.431 703.382C235.061 694.849 242.447 686.05 253.165 677.63C263.824 669.257 277.493 661.48 292.208 654.91Z" fill="#24A6B8"/>
<path opacity="0.4" fill-rule="evenodd" clip-rule="evenodd" d="M265.593 616.233C298.392 607.7 335.961 605.462 360.125 607.093L357.54 601.923C332.924 600.262 297.719 602.534 264.292 611.231C231.06 619.877 200.433 635.654 190.173 662.8C173.861 705.99 136.202 738.606 80.8082 759.634C25.3983 780.668 -47.543 790.01 -133.886 786.727L-134.083 791.892C-47.3256 795.191 26.3671 785.829 82.6428 764.467C138.934 743.098 178.013 709.625 195.008 664.627C204.305 640.03 232.599 624.818 265.593 616.233Z" fill="#24A6B8"/>
<path opacity="0.4" fill-rule="evenodd" clip-rule="evenodd" d="M249.048 566.682C278.892 560.034 315.215 562.069 338.586 568.323L331.694 561.636C307.473 555.155 278.534 554.818 247.924 561.636C217.326 568.452 188.041 583.197 170.26 608.61C128.464 668.35 93.4857 699.009 63.8118 715.71C37.2372 730.668 14.7887 734.524 -5.0626 737.935C-7.36881 738.331 -9.63997 738.721 -11.8785 739.122L-10.9673 744.21C-8.75214 743.813 -6.49239 743.426 -4.18692 743.03C15.688 739.621 38.9602 735.63 66.3472 720.215C96.8992 703.019 132.412 671.725 174.495 611.573C191.279 587.586 219.192 573.332 249.048 566.682Z" fill="#24A6B8"/>
<path d="M58.6015 581.851C84.9129 548.354 25.4494 522.025 -7.56477 513.048H-40.0448V702.587C16.3861 703.948 40.7848 677.568 45.6612 657.993C52.8981 628.891 24.8636 624.807 58.6015 581.851Z" fill="#2FB9CC"/>
<path d="M425.396 711.546C444.574 703.603 488.254 714.855 507.708 721.471C522.716 738.116 531.675 770.234 534.277 784.208C520.045 775.455 484.153 755.209 454.568 744.199C417.573 730.431 401.428 721.471 425.396 711.546Z" fill="#EE5928"/>
<path d="M168.329 566.29C165.379 566.29 162.988 563.999 162.988 561.172C162.988 558.346 165.379 556.055 168.329 556.055C171.279 556.055 173.671 558.346 173.671 561.172C173.671 563.999 171.279 566.29 168.329 566.29Z" fill="#158696"/>
<path d="M164.9 579.437C163.006 579.437 161.471 577.964 161.471 576.146C161.471 574.328 163.006 572.855 164.9 572.855C166.794 572.855 168.329 574.328 168.329 576.146C168.329 577.964 166.794 579.437 164.9 579.437Z" fill="#158696"/>
<path d="M151.923 572.858C150.029 572.858 148.494 571.384 148.494 569.567C148.494 567.749 150.029 566.276 151.923 566.276C153.816 566.276 155.352 567.749 155.352 569.567C155.352 571.384 153.816 572.858 151.923 572.858Z" fill="#158696"/>
</g>
<path fill-rule="evenodd" clip-rule="evenodd" d="M109.403 423.594L92.1268 411.857L111.1 403.207C111.689 402.938 112.196 402.515 112.567 401.984C112.938 401.453 113.161 400.833 113.211 400.187L113.765 393.728C113.829 393.076 113.716 392.42 113.438 391.828C113.16 391.235 112.728 390.729 112.186 390.362C111.644 389.995 111.013 389.781 110.36 389.743C109.707 389.705 109.055 389.845 108.474 390.146L81.5838 403.485C81.0198 403.762 80.5373 404.181 80.1833 404.7C79.8294 405.219 79.6162 405.821 79.5644 406.447L79.4372 407.999L79.3507 408.92L78.8387 414.974C78.7875 415.602 78.8979 416.232 79.1595 416.804C79.4212 417.376 79.8253 417.872 80.3331 418.243L104.638 435.889C105.16 436.284 105.779 436.53 106.43 436.602C107.081 436.674 107.739 436.568 108.335 436.297C108.93 436.025 109.442 435.598 109.815 435.06C110.188 434.522 110.408 433.893 110.453 433.24L110.988 426.908C111.043 426.265 110.924 425.619 110.645 425.036C110.367 424.454 109.938 423.956 109.403 423.594Z" fill="#4CE7FC"/>
<path fill-rule="evenodd" clip-rule="evenodd" d="M180.551 416.365L180.664 415.027C180.72 414.399 180.611 413.768 180.349 413.195C180.087 412.622 179.681 412.127 179.17 411.758L154.901 394.085C154.379 393.69 153.76 393.444 153.109 393.372C152.458 393.301 151.8 393.406 151.204 393.677C150.609 393.949 150.097 394.376 149.724 394.914C149.351 395.452 149.131 396.081 149.086 396.734L148.533 403.193C148.482 403.834 148.603 404.477 148.883 405.056C149.162 405.635 149.59 406.13 150.123 406.49L167.385 418.213L148.39 426.904C147.798 427.173 147.289 427.595 146.915 428.127C146.542 428.66 146.318 429.283 146.267 429.931V429.931L145.985 433.263L145.733 436.225C145.668 436.877 145.779 437.534 146.056 438.127C146.333 438.721 146.766 439.228 147.307 439.596C147.849 439.964 148.48 440.178 149.134 440.217C149.788 440.256 150.44 440.117 151.021 439.815L177.939 426.512C178.505 426.235 178.988 425.815 179.343 425.295C179.697 424.774 179.91 424.17 179.961 423.542L180.571 416.362L180.551 416.365Z" fill="#4CE7FC"/>
<path fill-rule="evenodd" clip-rule="evenodd" d="M142.357 382.98L142.023 382.959L136.291 382.474C135.469 382.399 134.645 382.607 133.957 383.063C133.268 383.518 132.755 384.195 132.503 384.981L122.838 414.45L114.066 441.225C113.889 441.751 113.834 442.309 113.906 442.858C113.978 443.408 114.174 443.934 114.481 444.395C114.787 444.857 115.195 445.243 115.673 445.523C116.151 445.803 116.687 445.969 117.24 446.01L117.572 446.04L123.303 446.525C124.127 446.6 124.952 446.391 125.642 445.934C126.331 445.476 126.843 444.797 127.094 444.009L136.394 415.608L145.508 387.749C145.682 387.226 145.734 386.672 145.662 386.126C145.59 385.58 145.395 385.058 145.092 384.598C144.788 384.139 144.385 383.755 143.911 383.475C143.437 383.194 142.906 383.025 142.357 382.98Z" fill="#4CE7FC"/>
<path fill-rule="evenodd" clip-rule="evenodd" d="M108.251 420.065L90.9745 408.329L109.947 399.678C110.537 399.409 111.043 398.987 111.415 398.456C111.786 397.924 112.008 397.304 112.059 396.658L112.612 390.199C112.677 389.548 112.564 388.891 112.286 388.299C112.008 387.706 111.575 387.2 111.033 386.833C110.492 386.466 109.861 386.253 109.207 386.215C108.554 386.177 107.903 386.316 107.322 386.617L80.4315 399.957C79.8675 400.234 79.3849 400.652 79.031 401.171C78.6771 401.69 78.4638 402.292 78.4121 402.919L78.2848 404.47L78.1983 405.391L77.6864 411.446C77.6351 412.073 77.7456 412.703 78.0072 413.275C78.2688 413.847 78.6729 414.343 79.1808 414.714L103.486 432.361C104.008 432.755 104.627 433.001 105.278 433.073C105.929 433.145 106.587 433.039 107.182 432.768C107.778 432.497 108.289 432.069 108.662 431.531C109.035 430.993 109.256 430.364 109.301 429.711L109.836 423.379C109.89 422.736 109.772 422.09 109.493 421.507C109.214 420.925 108.786 420.427 108.251 420.065Z" fill="#36C6DA"/>
<path fill-rule="evenodd" clip-rule="evenodd" d="M179.4 412.837L179.513 411.498C179.568 410.871 179.46 410.239 179.198 409.666C178.936 409.093 178.529 408.598 178.018 408.229L153.75 390.556C153.227 390.161 152.608 389.915 151.958 389.844C151.307 389.772 150.649 389.877 150.053 390.149C149.457 390.42 148.946 390.847 148.573 391.385C148.2 391.923 147.98 392.552 147.935 393.205L147.381 399.664C147.331 400.305 147.452 400.948 147.731 401.527C148.011 402.107 148.439 402.601 148.972 402.961L166.233 414.684L147.239 423.375C146.647 423.644 146.137 424.066 145.764 424.599C145.39 425.131 145.167 425.754 145.116 426.402V426.402L144.833 429.734L144.582 432.696C144.516 433.348 144.628 434.005 144.905 434.598C145.182 435.192 145.614 435.699 146.156 436.067C146.698 436.435 147.329 436.649 147.983 436.688C148.636 436.727 149.288 436.588 149.87 436.287L176.788 422.984C177.353 422.706 177.837 422.286 178.192 421.766C178.546 421.245 178.759 420.641 178.81 420.013L179.42 412.833L179.4 412.837Z" fill="#36C6DA"/>
<path fill-rule="evenodd" clip-rule="evenodd" d="M141.206 379.451L140.872 379.43L135.14 378.945C134.317 378.871 133.494 379.078 132.805 379.534C132.117 379.99 131.604 380.666 131.351 381.453L121.687 410.921L112.914 437.697C112.737 438.222 112.683 438.78 112.755 439.33C112.826 439.879 113.023 440.405 113.329 440.867C113.636 441.328 114.044 441.714 114.522 441.994C115 442.274 115.536 442.441 116.089 442.482L116.42 442.511L122.152 442.996C122.976 443.071 123.801 442.862 124.49 442.405C125.18 441.947 125.692 441.269 125.943 440.48L135.242 412.079L144.356 384.22C144.53 383.698 144.583 383.143 144.511 382.597C144.439 382.051 144.244 381.529 143.941 381.07C143.637 380.61 143.233 380.226 142.759 379.946C142.286 379.665 141.755 379.496 141.206 379.451Z" fill="#36C6DA"/>
<path d="M116.076 442.496L122.139 443.011C122.963 443.086 123.788 442.877 124.477 442.42C125.167 441.962 125.679 441.283 125.93 440.495L135.237 412.068L121.679 410.918L112.906 437.694C112.726 438.22 112.669 438.78 112.739 439.331C112.809 439.882 113.005 440.41 113.311 440.874C113.617 441.338 114.025 441.725 114.504 442.007C114.984 442.288 115.521 442.455 116.076 442.496V442.496Z" fill="#36C6DA"/>
<path fill-rule="evenodd" clip-rule="evenodd" d="M188.915 457.193L182.285 451.314L190.735 448.708C191 448.629 191.239 448.479 191.426 448.275C191.613 448.072 191.742 447.821 191.798 447.55L192.372 444.879C192.428 444.609 192.412 444.329 192.325 444.068C192.238 443.806 192.084 443.572 191.877 443.39C191.671 443.207 191.42 443.082 191.149 443.028C190.879 442.974 190.599 442.992 190.339 443.081L178.294 447.229C178.042 447.316 177.817 447.466 177.641 447.665C177.464 447.864 177.341 448.105 177.284 448.365L177.144 449.015L177.038 449.381L176.487 451.907C176.432 452.168 176.444 452.438 176.523 452.693C176.602 452.947 176.744 453.177 176.937 453.361L186.207 462.112C186.408 462.301 186.656 462.433 186.924 462.495C187.193 462.558 187.474 462.548 187.737 462.466C188.001 462.385 188.239 462.235 188.426 462.033C188.613 461.83 188.743 461.581 188.802 461.311L189.385 458.643C189.434 458.381 189.417 458.112 189.335 457.858C189.253 457.605 189.109 457.376 188.915 457.193Z" fill="#C5F8FF"/>
<path fill-rule="evenodd" clip-rule="evenodd" d="M213.138 460.018L213.033 460.574C212.978 460.836 212.857 461.08 212.681 461.282C212.505 461.485 212.28 461.639 212.028 461.73L200.02 466.077C199.76 466.171 199.48 466.194 199.208 466.144C198.937 466.093 198.684 465.972 198.475 465.791C198.266 465.61 198.109 465.377 198.021 465.115C197.932 464.854 197.915 464.573 197.97 464.303L198.509 461.622C198.565 461.351 198.691 461.101 198.875 460.895C199.059 460.689 199.295 460.535 199.557 460.45L207.983 457.733L201.29 451.94C201.077 451.763 200.916 451.532 200.825 451.27C200.733 451.009 200.716 450.728 200.773 450.457V450.457L201.051 449.072L201.305 447.831C201.362 447.561 201.489 447.311 201.673 447.105C201.858 446.9 202.093 446.748 202.356 446.663C202.619 446.579 202.899 446.566 203.169 446.625C203.438 446.684 203.687 446.813 203.891 446.999L213.271 455.631C213.466 455.814 213.612 456.045 213.693 456.3C213.775 456.555 213.79 456.827 213.738 457.09L213.129 460.081L213.138 460.018Z" fill="#C5F8FF"/>
<path d="M1511.21 201.199C1512.27 199.297 1514.72 197.234 1520.31 198.161C1520.77 198.284 1521.3 198.363 1521.87 198.513C1526.1 199.794 1530.2 201.448 1534.13 203.454C1539.17 197.629 1546.11 193.78 1553.72 192.591C1561.33 191.401 1569.12 192.948 1575.7 196.957C1582.28 200.966 1587.22 207.176 1589.65 214.486C1592.09 221.795 1591.85 229.731 1588.98 236.882C1597.05 244.037 1600.98 249.935 1600.69 254.449C1600.62 255.542 1600.29 256.602 1599.73 257.541C1599.17 258.48 1598.39 259.271 1597.46 259.846C1594.59 261.67 1589.95 261.678 1582.86 259.813C1578.45 258.603 1574.13 257.124 1569.91 255.384C1565.26 257.079 1560.28 257.693 1555.36 257.179C1550.44 256.666 1545.7 255.038 1541.5 252.42C1537.31 249.802 1533.76 246.262 1531.13 242.069C1528.51 237.876 1526.87 233.14 1526.35 228.22C1523.62 225.669 1521.03 222.979 1518.59 220.163C1516.6 217.818 1514.81 215.318 1513.23 212.687C1511.37 209.552 1509.14 204.883 1511.21 201.199Z" fill="white"/>
<path d="M1551.25 253.33C1535.49 249.185 1526.08 233.051 1530.22 217.293C1534.36 201.535 1550.5 192.12 1566.26 196.264C1582.02 200.409 1591.43 216.543 1587.29 232.301C1583.14 248.059 1567.01 257.474 1551.25 253.33Z" fill="#36C6DA"/>
<path d="M1532.91 210.404C1529.69 208.784 1523.75 206.002 1524.31 207.894C1525.58 212.249 1542.99 227.415 1552.4 233.67C1561.8 239.925 1583.97 250.163 1587.54 248.927C1590.51 247.878 1585.3 243.035 1583.49 241.451L1584.96 238.574C1587.92 241.07 1601.17 252.864 1595.35 256.601C1588.82 260.787 1559.09 246.826 1550.15 241.568C1535.79 233.127 1526.08 222.349 1521.57 217.665C1518.66 214.648 1507.82 200.051 1519.67 202.024C1523.39 202.642 1530.85 206.089 1534.36 207.992L1532.91 210.404Z" fill="white"/>
<path d="M1583.61 256.909C1589.02 258.33 1593.54 258.754 1595.77 257.322C1596.3 257.004 1596.74 256.563 1597.06 256.037C1597.38 255.51 1597.57 254.913 1597.6 254.298C1597.95 249.182 1589.24 241.168 1585.48 237.961L1584.41 239.226C1589.88 243.897 1596.19 250.618 1595.94 254.179C1595.92 254.536 1595.82 254.882 1595.63 255.186C1595.44 255.49 1595.18 255.741 1594.87 255.916C1589.12 259.611 1560.57 246.983 1550.55 240.876C1539.96 234.428 1530.39 226.428 1522.17 217.144C1518.53 212.905 1513.96 205.877 1515.31 203.559C1515.91 202.504 1517.93 202.597 1519.52 202.868C1523.03 203.449 1530.21 206.72 1533.95 208.743L1534.74 207.285C1530.9 205.2 1523.48 201.832 1519.79 201.22C1516.71 200.713 1514.72 201.221 1513.87 202.741C1512.89 204.476 1513.55 207.236 1515.87 211.191C1517.36 213.665 1519.04 216.018 1520.9 218.227C1529.24 227.638 1538.94 235.75 1549.67 242.294C1555.42 245.739 1571.68 253.77 1583.61 256.909Z" fill="#131313"/>
<path d="M1583.46 249.272C1585.46 249.798 1586.99 249.986 1587.81 249.696C1588.17 249.6 1588.49 249.408 1588.74 249.142C1588.98 248.875 1589.15 248.543 1589.23 248.185C1589.54 246.55 1587.79 244.086 1584.02 240.8L1582.92 242.051C1586.34 245.027 1587.74 247.149 1587.6 247.869C1587.6 247.869 1587.56 248.014 1587.26 248.125C1584.36 249.14 1562.85 239.667 1552.86 232.976C1537.53 222.669 1526.77 212.991 1525.23 208.092C1525.94 208.202 1527.8 208.767 1532.53 211.147L1533.29 209.628C1526.63 206.261 1524.8 205.993 1523.93 206.686C1523.74 206.844 1523.59 207.057 1523.52 207.297C1523.44 207.537 1523.44 207.794 1523.51 208.035C1524.71 213.275 1535.59 223.337 1551.94 234.315C1558.84 238.999 1575.16 247.09 1583.46 249.272Z" fill="#131313"/>
</g>
</g>
<defs>
<radialGradient id="paint0_radial_6234_168893" cx="0" cy="0" r="1" gradientUnits="userSpaceOnUse" gradientTransform="translate(69 53.9997) rotate(39.1984) scale(797.458 772.704)">
<stop offset="0.260417" stop-color="#4C2193" stop-opacity="0.6"/>
<stop offset="0.51" stop-color="#3D17AD" stop-opacity="0.3"/>
<stop offset="1" stop-color="#1C0958" stop-opacity="0"/>
</radialGradient>
<linearGradient id="paint1_linear_6234_168893" x1="1147.83" y1="862" x2="1147.83" y2="178.632" gradientUnits="userSpaceOnUse">
<stop offset="0.01" stop-color="#612193" stop-opacity="0.6"/>
<stop offset="0.473958" stop-color="#3D17AD" stop-opacity="0.3"/>
<stop offset="1" stop-color="#1C0958" stop-opacity="0"/>
</linearGradient>
<radialGradient id="paint2_radial_6234_168893" cx="0" cy="0" r="1" gradientUnits="userSpaceOnUse" gradientTransform="translate(1792 11.3248) rotate(138.172) scale(834.727 820.786)">
<stop offset="0.243855" stop-color="#4C2193" stop-opacity="0.6"/>
<stop offset="0.51" stop-color="#3D17AD" stop-opacity="0.3"/>
<stop offset="1" stop-color="#1C0958" stop-opacity="0"/>
</radialGradient>
<clipPath id="clip0_6234_168893">
<rect width="1792" height="726" fill="white"/>
</clipPath>
<clipPath id="clip1_6234_168893">
<rect width="1792" height="303" fill="white" transform="matrix(-1 0 0 1 1792 434)"/>
</clipPath>
</defs>
</svg>
