<svg width="48" height="48" viewBox="0 0 48 48" fill="none" xmlns="http://www.w3.org/2000/svg">
<path d="M33 3H15C13.8069 3.00136 12.6631 3.47591 11.8195 4.31953C10.9759 5.16314 10.5014 6.30694 10.5 7.5V40.5C10.5014 41.6931 10.9759 42.8369 11.8195 43.6805C12.6631 44.5241 13.8069 44.9986 15 45H33C34.1931 44.9986 35.3369 44.5241 36.1805 43.6805C37.0241 42.8369 37.4986 41.6931 37.5 40.5V7.5C37.4986 6.30694 37.0241 5.16314 36.1805 4.31953C35.3369 3.47591 34.1931 3.00136 33 3ZM15 6H33C33.3977 6.00046 33.779 6.15864 34.0602 6.43984C34.3414 6.72105 34.4995 7.10231 34.5 7.5V9H13.5V7.5C13.5005 7.10231 13.6586 6.72105 13.9398 6.43984C14.221 6.15864 14.6023 6.00046 15 6ZM33 42H15C14.6023 41.9995 14.221 41.8414 13.9398 41.5602C13.6586 41.279 13.5005 40.8977 13.5 40.5V39H34.5V40.5C34.4995 40.8977 34.3414 41.279 34.0602 41.5602C33.779 41.8414 33.3977 41.9995 33 42Z" fill="#F8D829"/>
<path d="M31.9627 19.5323C31.9607 19.5288 31.9593 19.5251 31.9573 19.5216C31.9564 19.5201 31.9554 19.5187 31.9545 19.5172C31.8426 19.3252 31.6815 19.1664 31.4878 19.0574L24.6128 15.1902C24.4255 15.0857 24.2145 15.0308 24 15.0308C23.7855 15.0308 23.5745 15.0857 23.3872 15.1902L16.5122 19.0574C16.3178 19.1669 16.1563 19.3264 16.0444 19.5193C16.0432 19.5214 16.0417 19.5233 16.0406 19.5255C16.0387 19.5289 16.0373 19.5324 16.0354 19.5358C15.9305 19.7224 15.8752 19.9328 15.875 20.1469V27.8534C15.8752 28.0751 15.9342 28.2929 16.0462 28.4843C16.1582 28.6757 16.319 28.834 16.5122 28.9428L23.3872 32.81C23.5606 32.907 23.7546 32.9611 23.9532 32.968C23.9672 32.9691 23.9811 32.9704 23.9953 32.9705C23.9972 32.9705 23.999 32.9705 24.0009 32.9705C24.0206 32.9705 24.0399 32.9694 24.0591 32.9676C24.2534 32.959 24.4431 32.905 24.6128 32.81L31.4878 28.9428C31.681 28.834 31.8418 28.6757 31.9538 28.4843C32.0658 28.2929 32.1248 28.0751 32.125 27.8534V20.1469C32.1248 19.9315 32.0689 19.7198 31.9627 19.5323ZM24.0711 23.283L17.7796 19.7787L24 16.2797L30.23 19.7841L24.0711 23.283ZM30.875 27.8534L24.6345 31.3637L24.696 24.3657L30.875 20.8553V27.8534Z" fill="white"/>
</svg>
