<svg width="38" height="28" viewBox="0 0 38 28" fill="none" xmlns="http://www.w3.org/2000/svg">
<path d="M0.192 27.0725V24.0005C3.328 24.0645 5.856 22.7525 7.776 20.0645C9.12 18.2085 9.44 16.8965 8.736 16.1285C8.544 15.9365 8.256 15.8405 7.872 15.8405C5.696 15.8405 3.84 15.0725 2.304 13.5365C0.768 11.9365 0 10.0485 0 7.87249C0 5.69649 0.768 3.84049 2.304 2.30449C3.904 0.76849 5.824 0.000488281 8.064 0.000488281C10.496 0.000488281 12.576 0.92849 14.304 2.78449C16.096 4.64049 16.992 7.29649 16.992 10.7525C16.992 15.8085 15.168 19.8405 11.52 22.8485C7.936 25.8565 4.16 27.2645 0.192 27.0725ZM20.64 27.0725V24.0005C23.776 24.0645 26.304 22.7525 28.224 20.0645C29.568 18.2085 29.888 16.8965 29.184 16.1285C28.992 15.9365 28.704 15.8405 28.32 15.8405C26.144 15.8405 24.256 15.0725 22.656 13.5365C21.12 11.9365 20.352 10.0485 20.352 7.87249C20.352 5.69649 21.152 3.84049 22.752 2.30449C24.352 0.76849 26.272 0.000488281 28.512 0.000488281C30.944 0.000488281 33.024 0.92849 34.752 2.78449C36.544 4.64049 37.44 7.29649 37.44 10.7525C37.44 15.8085 35.616 19.8405 31.968 22.8485C28.384 25.8565 24.608 27.2645 20.64 27.0725Z" fill="#D7CCFF"/>
</svg>
