<svg width="32" height="33" viewBox="0 0 32 33" fill="none" xmlns="http://www.w3.org/2000/svg">
<path d="M22.0912 16.4693C24.1191 16.4693 25.4857 17.9253 25.4857 20.0826C25.4857 22.0239 23.915 23.6413 21.7876 23.6413C19.4575 23.6413 17.7357 21.6999 17.7357 18.7346C17.7357 11.9946 22.4968 9.29861 25.4857 8.97461V11.9399C23.4591 12.3173 21.1806 14.4199 21.0785 16.7399C21.1806 16.6866 21.5848 16.4693 22.0912 16.4693ZM11.7591 16.4693C13.7845 16.4693 15.1523 17.9253 15.1523 20.0826C15.1523 22.0239 13.5817 23.6413 11.4543 23.6413C9.12414 23.6413 7.40234 21.6999 7.40234 18.7346C7.40234 11.9946 12.1634 9.29861 15.1523 8.97461V11.9399C13.1257 12.3173 10.8472 14.4199 10.7452 16.7399C10.8472 16.6866 11.2515 16.4693 11.7591 16.4693Z" fill="#949494"/>
</svg>
