<svg width="36" height="36" viewBox="0 0 36 36" fill="none" xmlns="http://www.w3.org/2000/svg">
<rect width="36" height="36" rx="6" fill="#E3F8E7"/>
<path d="M9.25 14.875V22.0625C9.25 22.4769 9.41462 22.8743 9.70765 23.1674C10.0007 23.4604 10.3981 23.625 10.8125 23.625" stroke="#44CB6C" stroke-width="1.7543" stroke-linecap="round" stroke-linejoin="round"/>
<path d="M16.125 16.4375H21.75" stroke="#44CB6C" stroke-width="1.7543" stroke-linecap="round" stroke-linejoin="round"/>
<path d="M16.125 19.5625H21.75" stroke="#44CB6C" stroke-width="1.7543" stroke-linecap="round" stroke-linejoin="round"/>
<path d="M12.375 22.0625V13C12.375 12.8342 12.4408 12.6753 12.5581 12.5581C12.6753 12.4408 12.8342 12.375 13 12.375H24.875C25.0408 12.375 25.1997 12.4408 25.3169 12.5581C25.4342 12.6753 25.5 12.8342 25.5 13V22.375C25.5 22.7065 25.3683 23.0245 25.1339 23.2589C24.8995 23.4933 24.5815 23.625 24.25 23.625H10.8125C11.0177 23.625 11.2209 23.5846 11.4104 23.5061C11.6 23.4275 11.7723 23.3124 11.9174 23.1674C12.0624 23.0223 12.1775 22.85 12.2561 22.6604C12.3346 22.4709 12.375 22.2677 12.375 22.0625V22.0625Z" stroke="#44CB6C" stroke-width="1.7543" stroke-linecap="round" stroke-linejoin="round"/>
</svg>
