<svg width="137" height="46" viewBox="0 0 137 46" fill="none" xmlns="http://www.w3.org/2000/svg">
<g clip-path="url(#clip0_4301_155527)">
<path fill-rule="evenodd" clip-rule="evenodd" d="M136.927 17.6364H132.441C132.456 17.456 132.48 17.2765 132.513 17.0987C132.612 16.4086 132.719 15.7634 132.827 15.1719C132.994 14.1921 133.075 13.1995 133.069 12.2056C133.137 10.8953 132.906 9.58656 132.393 8.3786C131.881 7.17065 131.099 6.09512 130.108 5.23347C128.276 3.76729 125.977 3.00722 123.631 3.09165H118.526C118.215 3.09164 117.907 3.15319 117.619 3.27276C117.332 3.39232 117.071 3.56753 116.852 3.78829C116.632 4.00905 116.459 4.271 116.341 4.55902C116.224 4.84704 116.164 5.15546 116.167 5.46648V13.057H110.273C107.398 12.3008 104.343 12.6694 101.732 14.0876C100.989 14.5183 100.305 15.0423 99.6953 15.6469H97.0039C96.0523 14.6654 94.9027 13.8973 93.6313 13.3936C92.3598 12.8899 90.9957 12.6621 89.6293 12.7254C88.6412 12.7265 87.6577 12.8591 86.7047 13.1197H83.1161V2.10587C83.1161 1.82031 83.0596 1.53757 82.95 1.27386C82.8403 1.01015 82.6796 0.770682 82.477 0.569181C82.2745 0.36768 82.034 0.208118 81.7696 0.0996583C81.5052 -0.00880131 81.2219 -0.0640277 80.936 -0.0628477L56.8746 0.00884691C56.5887 0.00884447 56.3057 0.0652372 56.0417 0.174785C55.7777 0.284333 55.5379 0.44488 55.3362 0.647213C55.1345 0.849547 54.9748 1.08969 54.8662 1.35384C54.7576 1.618 54.7023 1.90097 54.7035 2.18652V6.12067H50.5318V12.8329C48.327 12.7474 46.1449 13.3048 44.2518 14.4371C43.6649 14.8305 43.1207 15.284 42.6279 15.7903H39.4969C38.9922 15.306 38.4425 14.8709 37.8551 14.4908C35.9673 13.4226 33.8345 12.8612 31.6648 12.8612C29.4951 12.8612 27.3624 13.4226 25.4746 14.4908C25.2144 14.6521 25.017 14.8851 24.7658 15.0644C24.1814 12.8934 22.9746 10.9404 21.2939 9.44543C18.9482 7.40697 15.9138 6.33678 12.8069 6.45225C10.2054 6.41143 7.66122 7.21663 5.55794 8.74643C3.52619 10.2668 1.9702 12.334 1.07222 14.7059C0.153387 17.1542 -0.294064 19.7539 -0.246581 22.3681C-0.284864 24.9923 0.181104 27.5994 1.12606 30.0482C2.02736 32.4011 3.58387 34.4472 5.61178 35.945C7.95003 37.534 10.7417 38.3215 13.5666 38.1889C16.3916 38.0564 19.097 37.011 21.2759 35.2101C21.726 34.792 22.143 34.3395 22.5229 33.8569C23.3519 34.9257 24.3669 35.8364 25.5194 36.5454C27.4051 37.6103 29.5345 38.1699 31.7007 38.1699C33.8669 38.1699 35.9963 37.6103 37.8821 36.5454C39.1373 35.7616 40.2256 34.7384 41.0849 33.5343C41.9272 34.761 43.0222 35.7937 44.2966 36.5633C46.9606 38.1069 50.1276 38.5354 53.1066 37.7552H54.7932V43.7774C54.7956 44.3534 55.0263 44.905 55.4349 45.3115C55.8435 45.7179 56.3967 45.9461 56.9733 45.9461L81.0347 45.8744C81.3206 45.8744 81.6036 45.818 81.8676 45.7085C82.1316 45.5989 82.3714 45.4384 82.5731 45.2361C82.7748 45.0337 82.9345 44.7936 83.0431 44.5294C83.1517 44.2653 83.207 43.9823 83.2058 43.6967V37.6745H95.9363C96.1732 38.7952 96.6389 39.855 97.3042 40.7878C97.9695 41.7206 98.8201 42.5065 99.803 43.0963C102.119 44.421 104.761 45.0699 107.429 44.9693C109.5 45.0272 111.558 44.6167 113.449 43.7684C114.516 43.2506 115.482 42.5465 116.301 41.6893V43.4817H123.775C126.125 43.5496 128.421 42.7774 130.252 41.304C131.233 40.4318 132.005 39.3492 132.508 38.1371C133.011 36.9251 133.234 35.615 133.159 34.305C133.163 33.3197 133.079 32.3359 132.908 31.3656C132.791 30.7651 132.683 30.1109 132.567 29.3761C132.567 29.2237 132.522 29.0535 132.504 28.8832H136.99L136.927 17.6364Z" fill="white"/>
<path d="M78.686 4.4332L59.1553 4.49109L59.2654 41.5562L78.7961 41.4983L78.686 4.4332Z" fill="#36C6DA"/>
<path fill-rule="evenodd" clip-rule="evenodd" d="M69.4899 14.8763C69.1957 14.8843 68.903 14.8319 68.6299 14.7225C68.3568 14.613 68.109 14.4488 67.9019 14.24C67.6992 14.0434 67.5382 13.8079 67.4288 13.5477C67.3193 13.2874 67.2636 13.0078 67.2649 12.7255C67.2573 12.4405 67.3092 12.157 67.4174 11.8932C67.5255 11.6294 67.6875 11.3909 67.8929 11.1931C68.1025 10.9887 68.3511 10.8287 68.6239 10.7224C68.8967 10.6162 69.1882 10.566 69.4809 10.5747C69.7687 10.5664 70.0553 10.616 70.3235 10.7207C70.5917 10.8254 70.836 10.983 71.0419 11.1841C71.2471 11.3814 71.4102 11.618 71.5217 11.8798C71.6332 12.1416 71.6906 12.4231 71.6906 12.7076C71.6906 12.992 71.6332 13.2736 71.5217 13.5353C71.4102 13.7971 71.2471 14.0337 71.0419 14.231C70.8372 14.4361 70.5939 14.5987 70.3259 14.7095C70.058 14.8202 69.7708 14.8769 69.4809 14.8763H69.4899ZM63.4072 33.3551V31.0699H68.4043V20.7282C68.4195 20.6203 68.4093 20.5103 68.3744 20.4071C68.3396 20.3038 68.281 20.2102 68.2034 20.1336C68.1258 20.0569 68.0314 19.9995 67.9276 19.9658C67.8239 19.9321 67.7137 19.9232 67.6059 19.9396H63.9365V17.6633H68.2428C70.1149 17.6633 71.0569 18.5983 71.0688 20.4683V31.061H76.0749V33.3372L63.4072 33.3551Z" fill="#000003"/>
<path fill-rule="evenodd" clip-rule="evenodd" d="M12.8797 33.9108C11.2208 33.9537 9.59293 33.4567 8.24143 32.4949C6.8889 31.4851 5.85258 30.1111 5.25394 28.5339C3.89061 24.6284 3.89061 20.377 5.25394 16.4715C5.83843 14.8793 6.8693 13.4886 8.22349 12.4657C9.56771 11.4932 11.1934 10.9865 12.8528 11.0229C14.8605 10.9248 16.8303 11.5945 18.3612 12.8958C19.7851 14.1905 20.661 15.9789 20.8104 17.8964H17.8768C17.6889 16.7114 17.1299 15.6164 16.2798 14.7688C15.8246 14.3397 15.287 14.0073 14.6995 13.7917C14.112 13.576 13.4868 13.4816 12.8617 13.5142C11.9919 13.4991 11.1334 13.7131 10.3727 14.1347C9.61205 14.5563 8.97597 15.1707 8.52852 15.9159C7.37869 17.9036 6.83606 20.1839 6.96748 22.4758C6.84915 24.7768 7.40403 27.0624 8.5644 29.0536C9.02098 29.7914 9.66275 30.397 10.426 30.8104C11.1893 31.2239 12.0475 31.4308 12.9156 31.4106C13.5428 31.4473 14.1711 31.3593 14.764 31.1516C15.3569 30.944 15.9027 30.6207 16.3696 30.2007C17.2057 29.3583 17.7442 28.2666 17.9037 27.0911H20.8373C20.6178 28.9956 19.735 30.7625 18.3433 32.0827C16.8203 33.3626 14.8671 34.0162 12.8797 33.9108Z" fill="#000003"/>
<path fill-rule="evenodd" clip-rule="evenodd" d="M31.7008 31.294C32.5617 31.3043 33.411 31.0945 34.168 30.6846C34.9462 30.2656 35.5736 29.6138 35.9622 28.8206C36.4199 27.8052 36.6378 26.6984 36.5992 25.5855C36.6345 24.4758 36.407 23.3735 35.9353 22.3683C35.5467 21.5751 34.9193 20.9232 34.141 20.5042C33.381 20.1043 32.5328 19.9009 31.6739 19.9128C30.8218 19.9047 29.9817 20.1145 29.2337 20.5222C28.4595 20.9505 27.8337 21.6037 27.4394 22.3951C26.9657 23.4027 26.7411 24.5091 26.7844 25.6213C26.7221 26.4 26.8179 27.1831 27.0661 27.9239C27.3143 28.6646 27.7098 29.3476 28.2288 29.9319C28.6835 30.3764 29.2224 30.7259 29.8139 30.9598C30.4055 31.1937 31.0378 31.3073 31.6739 31.294H31.7008ZM31.7008 33.8212C30.3251 33.8503 28.9671 33.5065 27.7713 32.8265C26.6224 32.1459 25.6894 31.1549 25.0799 29.9677C24.4332 28.6098 24.0977 27.125 24.0977 25.6213C24.0977 24.1176 24.4332 22.6328 25.0799 21.2749C25.688 20.0844 26.6212 19.0902 27.7713 18.4072C28.9717 17.7402 30.3227 17.3901 31.6963 17.3901C33.07 17.3901 34.4209 17.7402 35.6213 18.4072C36.7699 19.0842 37.703 20.0722 38.3128 21.257C38.9594 22.6149 39.295 24.0997 39.295 25.6034C39.295 27.1071 38.9594 28.5919 38.3128 29.9498C37.707 31.142 36.7733 32.1369 35.6213 32.8175C34.4332 33.5013 33.0808 33.8484 31.7098 33.8212H31.7008Z" fill="#000003"/>
<path fill-rule="evenodd" clip-rule="evenodd" d="M50.5052 31.2223C51.1223 31.2362 51.7351 31.1169 52.3018 30.8726C52.8685 30.6282 53.3757 30.2645 53.7888 29.8064C54.634 28.5373 55.0849 27.047 55.0849 25.5227C55.0849 23.9984 54.634 22.5082 53.7888 21.2391C53.3655 20.7944 52.8562 20.4403 52.2918 20.1983C51.7273 19.9564 51.1195 19.8316 50.5052 19.8316C49.891 19.8316 49.2831 19.9564 48.7187 20.1983C48.1542 20.4403 47.6449 20.7944 47.2217 21.2391C46.3876 22.5124 45.9433 24.001 45.9433 25.5227C45.9433 27.0444 46.3876 28.533 47.2217 29.8064C47.6352 30.2627 48.143 30.624 48.7099 30.8653C49.2767 31.1067 49.8893 31.2224 50.5052 31.2044V31.2223ZM50.1643 33.7495C48.9071 33.7979 47.6622 33.487 46.5757 32.8533C45.4919 32.1927 44.6323 31.2216 44.1086 30.0662C43.4823 28.6571 43.1759 27.1269 43.2114 25.5854C43.1717 24.0436 43.4782 22.5125 44.1086 21.1046C44.6335 19.9556 45.4852 18.9863 46.5578 18.3176C47.639 17.6652 48.8834 17.3327 50.1464 17.3587C51.2211 17.3136 52.2879 17.5614 53.2325 18.0756C53.9975 18.5238 54.6196 19.1795 55.0268 19.9665V10.6375H57.7183L57.79 33.391H55.601L55.3139 30.9534H55.1255C54.7174 31.8095 54.0691 32.5287 53.2594 33.0236C52.3195 33.5603 51.2458 33.8183 50.1643 33.7674V33.7495Z" fill="#000003"/>
<path fill-rule="evenodd" clip-rule="evenodd" d="M81.9668 33.2923V17.6185H84.1827L84.4698 19.9933H84.6313C85.1074 19.1805 85.7918 18.5093 86.614 18.0486C87.5638 17.4969 88.6465 17.2149 89.745 17.2331C90.5472 17.1691 91.3535 17.2884 92.1027 17.5818C92.8519 17.8753 93.5244 18.3353 94.0693 18.9269C95.1245 20.3452 95.6397 22.0925 95.5226 23.8558V33.2744H92.8312V24.1694C92.9039 23.0098 92.5883 21.8591 91.9341 20.8984C91.5863 20.4902 91.146 20.1707 90.6499 19.9665C90.1537 19.7623 89.6159 19.6793 89.0811 19.7244C88.4944 19.7122 87.9114 19.8205 87.3682 20.0425C86.825 20.2644 86.3332 20.5954 85.9232 21.0149C85.4677 21.5084 85.1182 22.0897 84.896 22.7231C84.6738 23.3565 84.5838 24.0287 84.6313 24.6982V33.3013L81.9668 33.2923Z" fill="#000003"/>
<path fill-rule="evenodd" clip-rule="evenodd" d="M107.358 26.3295C108.29 26.3653 109.201 26.0449 109.906 25.4334C110.242 25.1058 110.505 24.7099 110.675 24.2723C110.845 23.8348 110.919 23.3659 110.892 22.8972C110.917 22.4312 110.84 21.9654 110.667 21.5321C110.493 21.0988 110.227 20.7084 109.888 20.388C109.182 19.7789 108.272 19.4587 107.34 19.4918C106.394 19.4571 105.469 19.7767 104.747 20.388C104.404 20.7075 104.136 21.0991 103.962 21.5345C103.788 21.9699 103.713 22.4384 103.742 22.9062C103.718 23.3743 103.796 23.8421 103.971 24.277C104.146 24.7119 104.414 25.1034 104.756 25.4244C105.476 26.0457 106.408 26.3666 107.358 26.3206V26.3295ZM102.764 35.4794C102.754 35.9149 102.872 36.3439 103.103 36.7134C103.334 37.0828 103.669 37.3766 104.065 37.5585C105.11 38.0601 106.262 38.2971 107.421 38.2485C108.556 38.2886 109.681 38.0124 110.668 37.4509C111.046 37.2403 111.361 36.9321 111.579 36.5584C111.796 36.1847 111.91 35.7594 111.906 35.327C111.914 34.9778 111.837 34.632 111.68 34.3196C111.524 34.0072 111.294 33.7377 111.009 33.5347C110.026 32.9605 108.886 32.7126 107.752 32.8267H104.164C103.731 33.1087 103.374 33.4939 103.127 33.9475C102.879 34.4011 102.749 34.909 102.746 35.4256L102.764 35.4794ZM107.367 28.6058C106.355 28.6233 105.351 28.4215 104.424 28.0143L103.348 29.3138C103.241 29.4342 103.17 29.5809 103.14 29.7386C103.11 29.8962 103.123 30.059 103.177 30.2099C103.294 30.5146 103.599 30.667 104.074 30.667H108.219C109.809 30.588 111.39 30.9608 112.777 31.7424C113.361 32.1006 113.837 32.611 114.153 33.2188C114.469 33.8266 114.613 34.509 114.571 35.1926C114.581 36.1175 114.333 37.027 113.853 37.8183C113.301 38.6812 112.505 39.361 111.565 39.772C110.271 40.3218 108.871 40.5789 107.465 40.5247C105.625 40.6194 103.794 40.1972 102.181 39.306C101.536 38.9242 101.008 38.3733 100.653 37.713C100.299 37.0527 100.132 36.3081 100.172 35.56C100.166 34.9642 100.324 34.3782 100.629 33.8663C100.936 33.3479 101.323 32.882 101.778 32.4862C101.478 32.2996 101.222 32.0511 101.027 31.7573C100.832 31.4636 100.703 31.1315 100.647 30.7835C100.587 30.3815 100.617 29.9711 100.735 29.5821C100.852 29.1931 101.056 28.8351 101.329 28.5341L102.746 26.7418C102.244 26.2286 101.849 25.6201 101.585 24.9521C101.322 24.2841 101.195 23.5702 101.212 22.8524C101.204 21.8654 101.451 20.893 101.93 20.0295C102.423 19.1457 103.149 18.4141 104.029 17.9146C105.051 17.3579 106.203 17.0827 107.367 17.117C108.163 17.1093 108.955 17.2366 109.708 17.4934H115.594V19.4829L112.651 19.5904V19.8055C113.175 20.6907 113.462 21.6958 113.484 22.724C113.506 23.7521 113.262 24.7685 112.777 25.6753C112.294 26.558 111.572 27.2876 110.695 27.7813C109.68 28.349 108.53 28.6338 107.367 28.6058Z" fill="#000003"/>
<path fill-rule="evenodd" clip-rule="evenodd" d="M120.716 39.0277V36.6887H123.461C124.179 36.7384 124.889 36.5178 125.453 36.0704C125.709 35.8001 125.903 35.4773 126.023 35.1246C126.142 34.7718 126.183 34.3974 126.143 34.0271C126.151 33.2913 126.091 32.5564 125.964 31.8315C125.847 31.2132 125.731 30.5769 125.614 29.9317C125.486 29.1648 125.426 28.3881 125.435 27.6106C125.389 26.6392 125.639 25.6769 126.152 24.8504C126.596 24.1482 127.262 23.6149 128.045 23.3359V23.2104C127.261 22.9384 126.592 22.4114 126.143 21.7139C125.624 20.8894 125.368 19.9269 125.408 18.9537C125.394 18.1738 125.448 17.3942 125.569 16.6237C125.686 15.9874 125.802 15.3511 125.919 14.7328C126.039 14.0042 126.093 13.2664 126.081 12.5282C126.116 12.1589 126.072 11.7862 125.951 11.4353C125.831 11.0845 125.636 10.7634 125.381 10.4939C124.815 10.052 124.106 9.8349 123.389 9.88452H120.626V7.54554H123.667C124.957 7.47977 126.229 7.87356 127.256 8.65678C127.736 9.11477 128.107 9.67467 128.342 10.2951C128.576 10.9156 128.668 11.5807 128.611 12.2414C128.618 12.965 128.561 13.6878 128.44 14.4012C128.332 15.0464 128.216 15.7365 128.099 16.4623C127.973 17.3527 127.916 18.2516 127.929 19.1508C127.897 19.9382 128.155 20.7099 128.655 21.3195C128.964 21.6094 129.331 21.8305 129.731 21.968C130.132 22.1055 130.557 22.1563 130.979 22.1171H132.468V24.4561H130.979C130.556 24.4157 130.13 24.4669 129.729 24.6061C129.328 24.7453 128.962 24.9692 128.655 25.2627C128.158 25.8728 127.906 26.6457 127.947 27.4314C127.934 28.3312 127.997 29.2306 128.135 30.1199C128.255 30.8607 128.371 31.5507 128.485 32.19C128.609 32.9062 128.669 33.6319 128.664 34.3587C128.725 35.0181 128.637 35.6828 128.405 36.3034C128.174 36.924 127.806 37.4845 127.328 37.9434C126.306 38.7387 125.032 39.1396 123.739 39.0725L120.716 39.0277Z" fill="#000003"/>
</g>
<defs>
<clipPath id="clip0_4301_155527">
<rect width="137" height="46" fill="white"/>
</clipPath>
</defs>
</svg>
