<svg width="90" height="90" viewBox="0 0 90 90" fill="none" xmlns="http://www.w3.org/2000/svg">
<path opacity="0.4" d="M45 90C69.8528 90 90 69.8528 90 45C90 20.1472 69.8528 0 45 0C20.1472 0 0 20.1472 0 45C0 69.8528 20.1472 90 45 90Z" fill="#50CCFB"/>
<mask id="mask0_4301_155544" style="mask-type:alpha" maskUnits="userSpaceOnUse" x="0" y="0" width="90" height="90">
<path d="M45 90C69.8528 90 90 69.8528 90 45C90 20.1472 69.8528 0 45 0C20.1472 0 0 20.1472 0 45C0 69.8528 20.1472 90 45 90Z" fill="#50CCFB"/>
</mask>
<g mask="url(#mask0_4301_155544)">
<path d="M64.2312 74.3196V65.509L67.4523 60.8037C68.5871 59.1453 69.1936 57.1861 69.1931 55.1809V30.4783H29.2852V60.192H41.7075V75.5077H64.3852" fill="#F9A58B"/>
<path d="M31.9619 46.3939L69.1935 45.0764V43.9707H31.9619V46.3939Z" fill="#E2847D"/>
<path d="M79.0339 43.9706H15.7971L2.36816 35.8422L15.7971 27.7139H79.0339C79.7186 27.7139 80.3753 27.9841 80.8594 28.465C81.3435 28.9459 81.6155 29.5981 81.6155 30.2782V41.4062C81.6155 41.743 81.5487 42.0764 81.419 42.3875C81.2892 42.6987 81.0991 42.9814 80.8594 43.2195C80.6197 43.4576 80.3351 43.6465 80.0218 43.7754C79.7086 43.9042 79.373 43.9706 79.0339 43.9706Z" fill="#EEEAE7"/>
<path d="M79.0337 43.9706H15.7969V27.7139H79.0337C79.7184 27.7139 80.3751 27.9841 80.8592 28.465C81.3433 28.9459 81.6153 29.5981 81.6153 30.2782V41.4062C81.6153 41.743 81.5485 42.0764 81.4188 42.3875C81.289 42.6987 81.0989 42.9814 80.8592 43.2195C80.6195 43.4576 80.3349 43.6465 80.0216 43.7754C79.7084 43.9042 79.3728 43.9706 79.0337 43.9706Z" fill="#FFDE43"/>
<path d="M8.81099 39.736V31.937L3.29253 35.2895C3.19695 35.3472 3.11795 35.4284 3.06312 35.5252C3.00829 35.6221 2.97949 35.7313 2.97949 35.8424C2.97949 35.9535 3.00829 36.0627 3.06312 36.1596C3.11795 36.2564 3.19695 36.3376 3.29253 36.3953L8.81099 39.736Z" fill="#00347B"/>
<path d="M75.8484 27.7139H71.6562V43.9706H75.8484V27.7139Z" fill="#EEEAE7"/>
<path d="M75.7891 27.7139H78.9864C79.6711 27.7139 80.3277 27.984 80.8119 28.465C81.296 28.9459 81.568 29.5981 81.568 30.2782V41.4062C81.568 42.0863 81.296 42.7386 80.8119 43.2195C80.3277 43.7004 79.6711 43.9706 78.9864 43.9706H75.7891V27.7139Z" fill="#56ED78"/>
<path d="M75.8486 35.8425V43.9709H79.0342C79.7188 43.9709 80.3755 43.7007 80.8596 43.2198C81.3438 42.7389 81.6157 42.0866 81.6157 41.4065V35.8425H75.8486Z" fill="#00CB76"/>
<path d="M71.6561 35.8425H15.7969V43.9709H71.6561V35.8425Z" fill="#FF9E22"/>
<path opacity="0.18" d="M3.36315 35.8424H15.7974V43.9707L3.22105 36.3482C3.16814 36.3184 3.1268 36.2719 3.1036 36.2161C3.08039 36.1602 3.0767 36.0983 3.09304 36.0401C3.10939 35.9819 3.14484 35.9309 3.1938 35.895C3.24276 35.8592 3.30236 35.8407 3.36315 35.8424Z" fill="#726863"/>
<g opacity="0.18">
<path opacity="0.18" d="M43.4368 13.469C42.7634 13.469 42.0966 13.6007 41.4745 13.8567C40.8524 14.1127 40.2872 14.4879 39.811 14.9608C39.3349 15.4338 38.9571 15.9953 38.6994 16.6133C38.4418 17.2312 38.3091 17.8935 38.3091 18.5624V23.0913C38.2458 21.7812 37.6773 20.5456 36.7215 19.6407C35.7657 18.7358 34.496 18.231 33.1756 18.231C31.8553 18.231 30.5855 18.7358 29.6297 19.6407C28.6739 20.5456 28.1054 21.7812 28.0421 23.0913V38.7598C28.0087 39.4501 28.1167 40.1399 28.3596 40.7874C28.6026 41.435 28.9753 42.0268 29.4552 42.527C29.9352 43.0273 30.5125 43.4255 31.152 43.6976C31.7915 43.9697 32.4799 44.11 33.1756 44.11C33.8713 44.11 34.5597 43.9697 35.1992 43.6976C35.8387 43.4255 36.416 43.0273 36.896 42.527C37.3759 42.0268 37.7486 41.435 37.9915 40.7874C38.2345 40.1399 38.3425 39.4501 38.3091 38.7598V34.231C38.3725 35.541 38.941 36.7766 39.8968 37.6815C40.8526 38.5864 42.1223 39.0912 43.4427 39.0912C44.7631 39.0912 46.0328 38.5864 46.9886 37.6815C47.9444 36.7766 48.5129 35.541 48.5763 34.231V18.5624C48.5732 17.2105 48.0303 15.915 47.0668 14.9601C46.1033 14.0052 44.7978 13.469 43.4368 13.469Z" fill="#726863"/>
<path opacity="0.18" d="M63.8647 21.4915C63.1903 21.4899 62.5222 21.6205 61.8988 21.8758C61.2753 22.1311 60.7086 22.506 60.2312 22.9792C59.7538 23.4523 59.375 24.0143 59.1166 24.633C58.8582 25.2518 58.7252 25.9151 58.7252 26.5849V21.5856C58.6618 20.2755 58.0933 19.0399 57.1375 18.135C56.1817 17.2301 54.912 16.7253 53.5916 16.7253C52.2713 16.7253 51.0015 17.2301 50.0457 18.135C49.09 19.0399 48.5214 20.2755 48.4581 21.5856V37.2776C48.4247 37.9679 48.5327 38.6577 48.7757 39.3053C49.0186 39.9528 49.3914 40.5446 49.8713 41.0449C50.3513 41.5451 50.9285 41.9434 51.568 42.2155C52.2075 42.4876 52.896 42.6279 53.5916 42.6279C54.2873 42.6279 54.9758 42.4876 55.6153 42.2155C56.2548 41.9434 56.832 41.5451 57.312 41.0449C57.7919 40.5446 58.1647 39.9528 58.4076 39.3053C58.6506 38.6577 58.7585 37.9679 58.7252 37.2776V36.1013C58.7252 36.7712 58.8582 37.4345 59.1166 38.0532C59.375 38.672 59.7538 39.234 60.2312 39.7071C60.7086 40.1802 61.2753 40.5552 61.8988 40.8105C62.5222 41.0657 63.1903 41.1963 63.8647 41.1948C65.2246 41.1948 66.5288 40.6581 67.4904 39.7029C68.4521 38.7477 68.9923 37.4522 68.9923 36.1013V26.6084C68.9954 25.9376 68.8651 25.2727 68.6088 24.6521C68.3525 24.0314 67.9753 23.4671 67.4988 22.9916C67.0224 22.5161 66.4561 22.1389 65.8324 21.8814C65.2088 21.624 64.54 21.4914 63.8647 21.4915Z" fill="#726863"/>
</g>
<path d="M33.241 16.5388H33.2292C30.3973 16.5388 28.1016 18.8192 28.1016 21.6323V37.3126C28.1016 40.1256 30.3973 42.406 33.2292 42.406H33.241C36.0729 42.406 38.3687 40.1256 38.3687 37.3126V21.6323C38.3687 18.8192 36.0729 16.5388 33.241 16.5388Z" fill="#FFCBBC"/>
<path d="M43.5076 11.9983H43.4958C40.6639 11.9983 38.3682 14.2787 38.3682 17.0917V32.772C38.3682 35.5851 40.6639 37.8655 43.4958 37.8655H43.5076C46.3395 37.8655 48.6353 35.5851 48.6353 32.772V17.0917C48.6353 14.2787 46.3395 11.9983 43.5076 11.9983Z" fill="#FFCBBC"/>
<path d="M53.7987 14.7861H53.7868C50.9549 14.7861 48.6592 17.0665 48.6592 19.8796V35.5599C48.6592 38.3729 50.9549 40.6533 53.7868 40.6533H53.7987C56.6306 40.6533 58.9263 38.3729 58.9263 35.5599V19.8796C58.9263 17.0665 56.6306 14.7861 53.7987 14.7861Z" fill="#FFCBBC"/>
<path d="M64.0662 19.7856H64.0544C61.2225 19.7856 58.9268 22.0661 58.9268 24.8791V34.372C58.9268 37.185 61.2225 39.4654 64.0544 39.4654H64.0662C66.8981 39.4654 69.1939 37.185 69.1939 34.372V24.8791C69.1939 22.0661 66.8981 19.7856 64.0662 19.7856Z" fill="#FFCBBC"/>
<path d="M29.1429 72.4492V65.603L26.218 62.6975C23.5725 60.0605 22.0828 56.4921 22.0732 52.7693V35.9833C22.0732 33.9991 22.8667 32.0962 24.2792 30.6932C25.6916 29.2902 27.6073 28.502 29.6048 28.502H43.2824C44.6455 28.502 45.9527 29.0398 46.9166 29.9972C47.8804 30.9546 48.4219 32.2532 48.4219 33.6072C48.4219 34.277 48.2889 34.9403 48.0305 35.5591C47.772 36.1778 47.3933 36.7398 46.9159 37.2129C46.4385 37.6861 45.8718 38.061 45.2483 38.3163C44.6248 38.5715 43.9568 38.7021 43.2824 38.7006H31.9732V46.3819C35.7652 46.3851 39.4007 47.8836 42.0809 50.5481C44.7611 53.2126 46.2667 56.8252 46.2667 60.5919V73.5314H29.1429V72.4492Z" fill="#FFDDCE"/>
<path d="M65.6406 72.4492H26.8814C25.5602 72.4492 24.4893 73.5131 24.4893 74.8254V87.6237C24.4893 88.936 25.5602 89.9999 26.8814 89.9999H65.6406C66.9617 89.9999 68.0327 88.936 68.0327 87.6237V74.8254C68.0327 73.5131 66.9617 72.4492 65.6406 72.4492Z" fill="#5322FF"/>
<path opacity="0.05" d="M79.0342 27.714H69.1934V24.8791C69.13 23.569 68.5615 22.3334 67.6057 21.4285C66.65 20.5236 65.3802 20.0189 64.0598 20.0189C62.7395 20.0189 61.4698 20.5236 60.514 21.4285C59.5582 22.3334 58.9897 23.569 58.9263 24.8791V19.8797C58.863 18.5697 58.2944 17.3341 57.3387 16.4292C56.3829 15.5243 55.1131 15.0195 53.7927 15.0195C52.4724 15.0195 51.2026 15.5243 50.2468 16.4292C49.2911 17.3341 48.7225 18.5697 48.6592 19.8797V20.1621C48.6659 20.1931 48.6659 20.2252 48.6592 20.2562L48.4697 89.9882H65.6408C66.2689 89.9882 66.8713 89.7404 67.3155 89.2992C67.7596 88.858 68.0092 88.2596 68.0092 87.6356V74.8255C68.0092 74.2015 67.7596 73.6032 67.3155 73.162C66.8713 72.7208 66.2689 72.4729 65.6408 72.4729H64.2316V65.5091L67.4527 60.8038C68.5874 59.1453 69.1939 57.1862 69.1934 55.181V44.0177H79.0342C79.7189 44.0177 80.3755 43.7476 80.8597 43.2667C81.3438 42.7858 81.6158 42.1335 81.6158 41.4534V30.3254C81.6221 29.9847 81.56 29.6462 81.433 29.3297C81.3061 29.0131 81.1169 28.7248 80.8766 28.4817C80.6362 28.2385 80.3495 28.0454 80.0332 27.9136C79.7168 27.7818 79.3772 27.714 79.0342 27.714Z" fill="#333232"/>
</g>
</svg>
