<svg width="90" height="90" viewBox="0 0 90 90" fill="none" xmlns="http://www.w3.org/2000/svg">
<path opacity="0.4" d="M45 90C69.8528 90 90 69.8528 90 45C90 20.1472 69.8528 0 45 0C20.1472 0 0 20.1472 0 45C0 69.8528 20.1472 90 45 90Z" fill="#50CCFB"/>
<path d="M25.4841 26.3486C27.1893 28.0421 28.8117 29.6171 30.3749 31.2513C31.0617 31.9618 31.5592 32.0684 32.3763 31.3223C33.2384 30.4681 34.4046 29.9912 35.6182 29.9968C36.8319 30.0023 37.9937 30.4898 38.8479 31.3519C39.7022 32.2141 40.1791 33.3802 40.1735 34.5939C40.168 35.8076 39.6804 36.9694 38.8183 37.8236C38.1078 38.5697 38.1907 39.0789 38.8183 39.7421C40.4644 41.3407 42.0631 42.975 43.721 44.6328L38.9841 49.3697C35.4315 47.3921 32.7079 47.4987 30.4697 49.6894C28.2316 51.8802 28.0302 54.6394 30.0078 58.3815L25.3538 63.0354L24.5487 62.242L10.3381 48.0315C8.18286 45.8763 8.18286 43.5197 10.3381 41.3644L24.5487 27.1539L25.4841 26.3486Z" fill="#5433FA"/>
<path d="M45.0832 43.4486L40.4175 38.7828C42.4188 35.0999 42.2648 32.3407 39.9556 30.1026C37.6464 27.8644 34.9582 27.8052 31.4292 29.7828L26.6924 25.117L27.474 24.3354L41.6845 10.1249C43.8516 7.95778 46.2082 7.94594 48.3516 10.1249L62.5622 24.3354L63.3319 25.0933L59.9214 28.492C59.4122 29.0131 58.9148 29.5578 58.37 30.0433C57.6358 30.6946 57.6476 31.2275 58.37 31.9617C59.1753 32.7747 59.6445 33.8613 59.684 35.0049C59.7235 36.1485 59.3305 37.2649 58.5832 38.1315C58.1787 38.6011 57.6837 38.9844 57.1278 39.2586C56.572 39.5329 55.9666 39.6924 55.3478 39.7278C54.729 39.7632 54.1094 39.6736 53.5259 39.4645C52.9424 39.2553 52.4071 38.9308 51.9517 38.5104C50.9806 37.6341 50.7674 37.6341 49.9147 38.5104L45.0832 43.4486Z" fill="#5433FA"/>
<path d="M63.2965 64.2198L62.5386 64.9658L48.3281 79.1764C46.1254 81.3671 43.7926 81.3671 41.59 79.1764L26.6807 64.2672C26.8938 64.0067 27.0833 63.7698 27.2846 63.5685C28.7412 62.1119 30.1742 60.6435 31.6544 59.2106C31.7961 59.1112 31.9118 58.9791 31.9917 58.8255C32.0715 58.672 32.1133 58.5014 32.1133 58.3283C32.1133 58.1553 32.0715 57.9847 31.9917 57.8311C31.9118 57.6776 31.7961 57.5455 31.6544 57.4461C31.2268 57.0223 30.8867 56.5185 30.6538 55.9633C30.4209 55.4081 30.2995 54.8125 30.2968 54.2105C30.294 53.6084 30.4099 53.0117 30.6378 52.4544C30.8656 51.8971 31.201 51.3902 31.6248 50.9625C32.0486 50.5349 32.5523 50.1949 33.1075 49.962C33.6627 49.729 34.2584 49.6077 34.8604 49.605C35.4625 49.6022 36.0592 49.7181 36.6165 49.9459C37.1738 50.1738 37.6807 50.5092 38.1083 50.933C38.8189 51.608 39.2926 51.5014 39.9439 50.8619C41.5426 49.2159 43.1768 47.6053 44.8584 45.9355L49.5953 50.6724C49.0055 51.3934 48.5784 52.2333 48.3434 53.1347C48.1083 54.0361 48.0708 54.9776 48.2334 55.8948C48.4586 57.2625 49.1387 58.5142 50.1637 59.4474C52.4018 61.5198 55.1728 61.579 58.536 59.625L63.2965 64.2198Z" fill="#5433FA"/>
<path d="M46.2676 44.704L51.0044 39.9672C51.7581 40.573 52.6351 41.0068 53.5741 41.2379C54.513 41.4691 55.4911 41.4921 56.4399 41.3054C57.7786 41.0239 58.9887 40.3129 59.886 39.2804C61.8518 37.0304 61.8873 34.2475 59.886 30.9909L64.5517 26.3369C64.8122 26.5738 65.0728 26.7869 65.3096 27.0238L79.5202 41.2343C81.6399 43.3422 81.6517 45.7225 79.5202 47.8185L65.2149 62.2777L64.4807 63.0001L59.7439 58.2633C58.5597 57.079 58.5597 57.079 57.3755 58.1566C56.4869 58.751 55.4192 59.0179 54.3554 58.9114C53.2916 58.8049 52.2981 58.3317 51.5449 57.5729C50.7918 56.8142 50.326 55.8171 50.2274 54.7526C50.1288 53.6881 50.4035 52.6224 51.0044 51.7382C52.0465 50.554 52.0466 50.554 50.9097 49.3698L46.2676 44.704Z" fill="#EF5181"/>
<path d="M50.2341 59.3527C49.2092 58.4195 48.5291 57.1678 48.3039 55.8001C48.1413 54.8829 48.1788 53.9414 48.4139 53.0401C48.6489 52.1387 49.0759 51.2988 49.6657 50.5778L45.0117 45.9238V80.7396C45.6507 80.7027 46.2762 80.5393 46.8515 80.2588C47.4268 79.9782 47.9406 79.5862 48.3631 79.1054L62.5737 64.8948L63.3316 64.1488C61.7092 62.5382 60.1697 60.9988 58.5947 59.4119C55.2434 61.4843 52.4723 61.4251 50.2341 59.3527Z" fill="#3725BE"/>
<path d="M62.5614 24.4066L48.3509 10.1961C47.9342 9.72323 47.4274 9.33823 46.8601 9.06372C46.2927 8.7892 45.6763 8.63069 45.0469 8.59741V43.4487L49.9021 38.5934C50.814 37.6816 50.968 37.6816 51.9391 38.5934C52.3945 39.0139 52.9298 39.3383 53.5133 39.5475C54.0968 39.7566 54.7163 39.8462 55.3351 39.8108C55.9539 39.7755 56.5594 39.6159 57.1152 39.3417C57.6711 39.0674 58.166 38.6841 58.5706 38.2145C59.3178 37.3479 59.7109 36.2315 59.6714 35.0879C59.6319 33.9444 59.1626 32.8577 58.3574 32.0448C57.6705 31.3224 57.6587 30.7777 58.3574 30.1264C58.9021 29.6408 59.3996 29.0961 59.9088 28.575L63.3193 25.1764L62.5614 24.4066Z" fill="#3725BE"/>
</svg>
