<svg width="90" height="90" viewBox="0 0 90 90" fill="none" xmlns="http://www.w3.org/2000/svg">
<path opacity="0.4" d="M45 90C69.8528 90 90 69.8528 90 45C90 20.1472 69.8528 0 45 0C20.1472 0 0 20.1472 0 45C0 69.8528 20.1472 90 45 90Z" fill="#50CCFB"/>
<mask id="mask0_4301_155573" style="mask-type:alpha" maskUnits="userSpaceOnUse" x="0" y="0" width="90" height="90">
<path d="M45 90C69.8528 90 90 69.8528 90 45C90 20.1472 69.8528 0 45 0C20.1472 0 0 20.1472 0 45C0 69.8528 20.1472 90 45 90Z" fill="#50CCFB"/>
</mask>
<g mask="url(#mask0_4301_155573)">
<path d="M48.4338 93.1856H61.9102C63.8523 93.1856 64.5036 92.5225 64.5273 90.5567C64.5273 85.7488 64.3733 69.2409 65.1549 64.5041C65.8546 59.7739 67.2598 55.1754 69.3233 50.8619C71.75 46.3655 73.0465 41.3462 73.101 36.2369C72.9753 29.396 70.2684 22.8555 65.5229 17.9266C60.7775 12.9977 54.3443 10.0447 47.5131 9.6597C40.6819 9.27469 33.9577 11.4861 28.6884 15.8506C23.4192 20.2151 19.9946 26.4101 19.101 33.1935C18.6747 36.1896 19.101 39.3277 17.751 42.1579C16.401 44.9882 14.8141 47.8777 13.3338 50.7435C12.9075 51.5724 12.422 52.3777 12.0668 53.2304C11.8917 53.5662 11.8024 53.9402 11.8068 54.3189C11.8112 54.6977 11.9092 55.0695 12.0921 55.4012C12.2749 55.733 12.5369 56.0143 12.8548 56.2202C13.1727 56.4262 13.5367 56.5504 13.9141 56.5817C15.1672 56.7339 16.4305 56.7853 17.6918 56.7356C18.5918 56.7356 18.876 56.9606 18.876 57.9198C18.8049 60.7264 18.876 63.533 18.876 66.3396C18.8164 67.1615 18.934 67.9866 19.2208 68.7592C19.5077 69.5317 19.9572 70.2336 20.5388 70.8174C21.1203 71.4013 21.8205 71.8534 22.5919 72.1432C23.3633 72.4331 24.1881 72.5539 25.0102 72.4975C27.1181 72.4975 29.2259 72.4975 31.322 72.4975C32.1628 72.4975 32.5063 72.6514 32.4234 73.5514C32.3523 75.233 32.4234 88.6146 32.4234 90.308C32.4234 92.6764 33.0155 93.2329 35.301 93.2329L48.4338 93.1856Z" fill="#4C28ED"/>
<path d="M49.807 9.91201C48.7381 9.77938 47.6629 9.70426 46.5859 9.68701V90.6633H64.586V90.5804C64.586 85.7725 64.432 69.2646 65.2136 64.5278C65.8923 59.7927 67.2774 55.1862 69.3228 50.862C71.7495 46.3656 73.046 41.3463 73.1004 36.237C72.9667 29.8006 70.5515 23.6207 66.2853 18.7993C62.0191 13.9779 56.1794 10.8283 49.807 9.91201Z" fill="#3725BE"/>
<path d="M44.6447 20.0842C41.0521 20.4843 37.6758 22.0028 34.9927 24.4251C32.3095 26.8474 30.455 30.0513 29.6908 33.5844C28.9266 37.1176 29.2913 40.8016 30.7336 44.1162C32.1759 47.4309 34.6228 50.2088 37.7289 52.0579C38.1404 52.3022 38.482 52.6485 38.7205 53.0634C38.9591 53.4783 39.0865 53.9477 39.0907 54.4263C39.0907 54.464 39.1057 54.5001 39.1324 54.5268C39.159 54.5534 39.1952 54.5684 39.2329 54.5684H54C54.0186 54.5684 54.0371 54.5647 54.0543 54.5576C54.0716 54.5504 54.0872 54.54 54.1004 54.5268C54.1136 54.5136 54.1241 54.4979 54.1312 54.4807C54.1384 54.4634 54.1421 54.445 54.1421 54.4263C54.1486 53.9468 54.2784 53.4771 54.519 53.0623C54.7596 52.6476 55.1029 52.3017 55.5158 52.0579C58.9107 50.0322 61.5076 46.9027 62.8727 43.1925C64.2377 39.4823 64.2882 35.416 63.0156 31.673C61.743 27.9301 59.2244 24.7372 55.8807 22.6279C52.5371 20.5187 48.5708 19.6207 44.6447 20.0842Z" fill="#FFCE00"/>
<path d="M48.9081 65.9487H44.1713C43.8702 65.9487 43.572 65.8892 43.2939 65.7736C43.0158 65.658 42.7633 65.4887 42.551 65.2752C42.3386 65.0617 42.1705 64.8083 42.0564 64.5296C41.9422 64.251 41.8842 63.9525 41.8858 63.6514V63.4856C41.8858 63.4416 41.9033 63.3994 41.9343 63.3683C41.9654 63.3372 42.0075 63.3198 42.0515 63.3198H51.2174C51.2613 63.3198 51.3035 63.3372 51.3346 63.3683C51.3657 63.3994 51.3831 63.4416 51.3831 63.4856C51.3831 63.81 51.319 64.1313 51.1945 64.431C51.07 64.7306 50.8875 65.0026 50.6575 65.2315C50.4275 65.4604 50.1546 65.6416 49.8544 65.7646C49.5542 65.8877 49.2326 65.9503 48.9081 65.9487Z" fill="#B0B7BF"/>
<path d="M39.0908 54.6514V60.5724C39.0908 60.9363 39.1625 61.2966 39.3018 61.6328C39.4411 61.969 39.6452 62.2745 39.9025 62.5318C40.1598 62.7891 40.4653 62.9933 40.8015 63.1325C41.1377 63.2718 41.498 63.3434 41.8619 63.3434H51.3356C52.0705 63.3434 52.7753 63.0515 53.295 62.5318C53.8147 62.0121 54.1067 61.3074 54.1067 60.5724V54.6514C54.1067 54.6137 54.0917 54.5775 54.065 54.5508C54.0384 54.5242 54.0023 54.5093 53.9646 54.5093H39.233C39.1953 54.5093 39.1591 54.5242 39.1325 54.5508C39.1058 54.5775 39.0908 54.6137 39.0908 54.6514Z" fill="#D3DDEC"/>
<path d="M39.0908 54.6514V60.5724C39.0908 60.9363 39.1625 61.2966 39.3018 61.6328C39.4411 61.969 39.6452 62.2745 39.9025 62.5318C40.1598 62.7891 40.4653 62.9933 40.8015 63.1325C41.1377 63.2718 41.498 63.3434 41.8619 63.3434H51.3356C52.0705 63.3434 52.7753 63.0515 53.295 62.5318C53.8147 62.0121 54.1067 61.3074 54.1067 60.5724V54.6514C54.1067 54.6137 54.0917 54.5775 54.065 54.5508C54.0384 54.5242 54.0023 54.5093 53.9646 54.5093H39.233C39.1953 54.5093 39.1591 54.5242 39.1325 54.5508C39.1058 54.5775 39.0908 54.6137 39.0908 54.6514Z" fill="#D3DDEC"/>
<path d="M46.6221 19.9775V54.5802H53.9997C54.0374 54.5802 54.0735 54.5652 54.1001 54.5386C54.1268 54.5119 54.1418 54.4758 54.1418 54.4381C54.1483 53.9586 54.2781 53.4889 54.5187 53.0741C54.7593 52.6594 55.1026 52.3135 55.5155 52.0697C58.7471 50.1236 61.2524 47.1726 62.6483 43.668C64.0443 40.1635 64.254 36.2982 63.2455 32.6632C62.2371 29.0281 60.0659 25.8234 57.0639 23.539C54.0619 21.2545 50.3944 20.0161 46.6221 20.0131V19.9775Z" fill="#FFBB00"/>
<path d="M54.1422 60.5961V54.6751C54.1422 54.6564 54.1385 54.6379 54.1313 54.6207C54.1242 54.6035 54.1137 54.5878 54.1006 54.5746C54.0874 54.5614 54.0717 54.5509 54.0544 54.5438C54.0372 54.5367 54.0187 54.533 54.0001 54.533H46.5869V63.3909H51.3238C51.6936 63.3972 52.0611 63.3294 52.4043 63.1915C52.7476 63.0536 53.0597 62.8484 53.3224 62.5879C53.5851 62.3274 53.7929 62.017 53.9337 61.6749C54.0745 61.3329 54.1454 60.966 54.1422 60.5961Z" fill="#B0B7BF"/>
<path d="M61.3895 21.0908L62.6329 23.6014C62.6769 23.6913 62.7419 23.7694 62.8222 23.8292C62.9025 23.8889 62.996 23.9285 63.0948 23.9448L65.8777 24.3474C65.9923 24.3631 66.1002 24.4108 66.189 24.4849C66.2778 24.5591 66.3439 24.6567 66.3798 24.7667C66.4156 24.8767 66.4197 24.9947 66.3917 25.1069C66.3636 25.2191 66.3045 25.3212 66.2211 25.4014L64.2079 27.3672C64.1364 27.4368 64.0828 27.5227 64.0519 27.6176C64.0209 27.7125 64.0136 27.8135 64.0303 27.9119L64.504 30.683C64.5248 30.7973 64.5129 30.9151 64.4696 31.0229C64.4263 31.1307 64.3533 31.224 64.2592 31.2922C64.1651 31.3603 64.0536 31.4004 63.9377 31.4078C63.8217 31.4153 63.706 31.3898 63.604 31.3343L61.1172 30.0317C61.0276 29.985 60.9281 29.9606 60.827 29.9606C60.726 29.9606 60.6265 29.985 60.5369 30.0317L58.0619 31.3343C57.9598 31.3898 57.8442 31.4153 57.7282 31.4078C57.6123 31.4004 57.5008 31.3603 57.4067 31.2922C57.3126 31.224 57.2397 31.1307 57.1963 31.0229C57.153 30.9151 57.141 30.7973 57.1619 30.683L57.6356 27.9119C57.6498 27.8126 57.6401 27.7113 57.6071 27.6165C57.5741 27.5217 57.5189 27.4362 57.4461 27.3672L55.4448 25.4014C55.3614 25.3212 55.3023 25.2191 55.2742 25.1069C55.2462 24.9947 55.2503 24.8767 55.2862 24.7667C55.322 24.6567 55.3881 24.5591 55.4769 24.4849C55.5657 24.4108 55.6736 24.3631 55.7882 24.3474L58.5592 23.9448C58.6598 23.9294 58.7553 23.8902 58.8376 23.8305C58.92 23.7707 58.987 23.6922 59.0329 23.6014L60.2763 21.0908C60.3262 20.9854 60.4051 20.8964 60.5036 20.834C60.6021 20.7716 60.7163 20.7385 60.833 20.7385C60.9496 20.7385 61.0638 20.7716 61.1623 20.834C61.2609 20.8964 61.3396 20.9854 61.3895 21.0908Z" fill="white"/>
<path d="M39.6357 58.0026L53.8463 56.4631" stroke="#E4EFE8" stroke-miterlimit="10" stroke-linecap="round"/>
<path d="M39.6357 60.2881L53.8463 58.7368" stroke="#E4EFE8" stroke-miterlimit="10" stroke-linecap="round"/>
</g>
</svg>
