<svg width="1792" height="1149" viewBox="0 0 1792 1149" fill="none" xmlns="http://www.w3.org/2000/svg">
<path opacity="0.8" d="M0 136.158C0 136.158 285.5 -6.28152 897.5 0.215702C1509.5 6.71293 1792 136.158 1792 136.158V1149H0V136.158Z" fill="url(#paint0_linear_4638_182902)"/>
<path d="M1339.58 183.952C1340.3 187.623 1338.45 190.723 1335.04 191.554C1331.68 192.371 1328.82 190.416 1328.1 186.745C1327.38 183.136 1329.23 180.036 1332.59 179.219C1336.01 178.388 1338.86 180.343 1339.58 183.952ZM1324.63 137.536C1327.99 136.719 1331.29 138.695 1332.05 142.064C1333.12 146.77 1334.48 153.359 1335.05 158.439C1335.47 162.187 1335.69 167.235 1335.8 170.679C1335.88 172.931 1334.32 174.95 1332.15 175.479C1329.97 176.008 1327.8 174.896 1327.01 172.818C1325.81 169.64 1324.11 164.952 1323.07 161.353C1321.67 156.477 1320.42 149.859 1319.61 145.09C1319.03 141.677 1321.27 138.353 1324.63 137.536Z" fill="#F8D829"/>
<path d="M1384.73 223.606C1382.47 226.65 1378.27 227.143 1375.36 224.708L1374.42 223.922C1371.51 221.487 1370.99 217.045 1373.25 214.001C1375.52 210.957 1379.72 210.463 1382.63 212.899L1383.57 213.684C1386.48 216.12 1387 220.562 1384.73 223.606ZM1411.69 207.136C1405.65 215.237 1393.96 209.325 1391.61 212.483C1391.09 213.174 1390.14 213.286 1389.48 212.733L1383.61 207.82C1382.03 206.504 1381.75 204.103 1382.98 202.458C1386.22 198.108 1395.62 201.914 1399.21 197.088C1400.86 194.884 1400.92 191.75 1398.49 189.716C1395.36 187.094 1392.86 189.065 1390.99 191.565C1390.35 192.426 1389.13 192.622 1388.31 191.934L1381.36 186.117C1380.13 185.09 1379.74 183.171 1380.7 181.887C1386.46 174.142 1396.79 174.947 1405.89 182.563C1414.76 189.984 1417.19 199.749 1411.69 207.136Z" fill="#F8D829"/>
<defs>
<linearGradient id="paint0_linear_4638_182902" x1="969.279" y1="932.5" x2="967.827" y2="0.00231282" gradientUnits="userSpaceOnUse">
<stop stop-color="#99A9FF" stop-opacity="0"/>
<stop offset="1" stop-color="#5322FF" stop-opacity="0.06"/>
</linearGradient>
</defs>
</svg>
