<svg width="1792" height="1023" viewBox="0 0 1792 1023" fill="none" xmlns="http://www.w3.org/2000/svg">
<path d="M0 166.216C0 166.216 285.465 69.0518 897.5 69.0518C1503 69.0517 1792 166.216 1792 166.216V1024H0V166.216Z" fill="url(#paint0_linear_3537_157383)"/>
<mask id="mask0_3537_157383" style="mask-type:alpha" maskUnits="userSpaceOnUse" x="-303" y="271" width="2396" height="753">
<path fill-rule="evenodd" clip-rule="evenodd" d="M-0.5 1024L1791.5 1024L1791.5 624.385C1978.79 586.885 2092.5 537.549 2092.5 483.5C2092.5 366.139 1556.36 271 895 271C233.639 271 -302.5 366.139 -302.5 483.5C-302.5 537.645 -188.383 587.06 -0.499965 624.585L-0.5 1024Z" fill="#C4C4C4"/>
</mask>
<g mask="url(#mask0_3537_157383)">
<path d="M1791.5 1025L-0.5 1025L-0.499935 285L1791.5 285L1791.5 1025Z" fill="black"/>
<path d="M1452.51 833.08C1416.67 1073.88 1188.22 1075 1188.22 1075L1891.49 1075L1891.49 618.04C1891.49 618.04 1488.34 592.28 1452.51 833.08Z" fill="#3D17AD" fill-opacity="0.2"/>
<path opacity="0.5" d="M1891.49 1075L1891.49 808.441C1891.49 808.441 1731.35 731.502 1657.44 788.281C1583.53 845.06 1627.2 896.921 1575.69 980.921C1524.18 1064.92 1387.56 1075 1387.56 1075L1891.49 1075Z" fill="#612193"/>
<path opacity="0.08" d="M1736.84 965.104C1736.82 966.578 1735.01 967.267 1734.02 966.177L1728.83 960.487C1728.53 960.154 1728.1 959.962 1727.65 959.956L1719.96 959.86C1718.48 959.842 1717.79 958.028 1718.88 957.036L1724.57 951.851C1724.91 951.548 1725.1 951.121 1725.1 950.671L1725.2 942.973C1725.22 941.5 1727.03 940.81 1728.02 941.9L1733.21 947.59C1733.51 947.923 1733.94 948.115 1734.39 948.121L1742.08 948.217C1743.56 948.235 1744.25 950.049 1743.16 951.042L1737.47 956.226C1737.13 956.529 1736.94 956.956 1736.94 957.406L1736.84 965.104Z" fill="white"/>
<path opacity="0.08" d="M1349.13 1024.72C1349.02 1025.69 1347.77 1026.03 1347.18 1025.24L1344.13 1021.11C1343.95 1020.87 1343.68 1020.72 1343.38 1020.68L1338.28 1020.1C1337.31 1019.99 1336.97 1018.74 1337.76 1018.15L1341.89 1015.1C1342.13 1014.92 1342.28 1014.65 1342.32 1014.35L1342.9 1009.25C1343.01 1008.28 1344.26 1007.94 1344.85 1008.73L1347.9 1012.86C1348.08 1013.1 1348.35 1013.25 1348.65 1013.29L1353.75 1013.87C1354.72 1013.98 1355.06 1015.23 1354.27 1015.82L1350.14 1018.87C1349.9 1019.05 1349.75 1019.32 1349.71 1019.62L1349.13 1024.72Z" fill="white"/>
<path opacity="0.08" d="M1615.5 694.751C1615.41 695.728 1614.16 696.079 1613.57 695.297L1610.46 691.214C1610.28 690.975 1610 690.822 1609.71 690.792L1604.6 690.276C1603.62 690.177 1603.27 688.932 1604.05 688.336L1608.14 685.228C1608.38 685.047 1608.53 684.774 1608.56 684.476L1609.07 679.37C1609.17 678.392 1610.42 678.041 1611.01 678.823L1614.12 682.907C1614.3 683.146 1614.58 683.298 1614.87 683.328L1619.98 683.845C1620.96 683.944 1621.31 685.189 1620.53 685.784L1616.44 688.892C1616.2 689.074 1616.05 689.346 1616.02 689.645L1615.5 694.751Z" fill="white"/>
<path opacity="0.5" d="M862.501 1025L1791.5 1025L1791.5 294.355L862.501 294.354L862.501 1025Z" fill="url(#paint1_radial_3537_157383)"/>
<path d="M1791.5 1023.67L1791.5 299L-0.5 299L-0.500072 1023.67L1791.5 1023.67Z" fill="url(#paint2_linear_3537_157383)"/>
<path opacity="0.5" d="M806.501 298.999L-0.498047 298.999L-0.498174 1025L806.501 1025L806.501 298.999Z" fill="url(#paint3_radial_3537_157383)"/>
<path d="M240.499 781C170.499 607 -87.5005 474.627 -87.5006 711L-87.5005 1081L585.656 1159.47C585.656 1159.47 686.217 986.487 548.499 877C410.781 767.513 310.499 954.999 240.499 781Z" fill="#3D17AD" fill-opacity="0.2"/>
<path opacity="0.5" d="M128.499 893.001C94.4991 643.001 -138.302 682.869 -138.302 861.392L-138.302 1140.84L258.966 1189.18C258.966 1189.18 552.499 1227 492.499 1035C432.499 843.002 162.499 1143 128.499 893.001Z" fill="#612193"/>
<path d="M1010.51 389.27C1278.88 283.14 1027.98 -329.165 515.663 -393.832L-219.944 259.964C-219.944 259.964 100.776 487.073 329.467 350.014C558.159 212.955 742.138 495.4 1010.51 389.27Z" fill="#3D17AD" fill-opacity="0.3"/>
<path opacity="0.08" d="M200.817 747.395C199.85 748.507 198.021 747.86 197.969 746.387L197.696 738.693C197.68 738.244 197.478 737.821 197.139 737.525L191.331 732.473C190.219 731.506 190.867 729.677 192.339 729.625L200.032 729.352C200.481 729.336 200.904 729.134 201.2 728.794L206.251 722.986C207.218 721.874 209.047 722.521 209.099 723.994L209.372 731.687C209.388 732.137 209.59 732.56 209.929 732.855L215.737 737.907C216.849 738.875 216.202 740.704 214.729 740.756L207.037 741.029C206.587 741.045 206.164 741.247 205.869 741.587L200.817 747.395Z" fill="white"/>
<path opacity="0.08" d="M161.195 767.426C160.588 768.199 159.349 767.828 159.265 766.849L158.828 761.736C158.802 761.437 158.654 761.162 158.418 760.977L154.383 757.806C153.61 757.199 153.981 755.959 154.96 755.876L160.072 755.438C160.371 755.413 160.646 755.264 160.831 755.028L164.002 750.993C164.609 750.22 165.848 750.591 165.932 751.57L166.369 756.683C166.395 756.982 166.543 757.257 166.779 757.442L170.814 760.613C171.586 761.22 171.216 762.46 170.237 762.543L165.124 762.981C164.826 763.006 164.551 763.155 164.365 763.391L161.195 767.426Z" fill="white"/>
<path d="M82.958 822.565C82.958 822.666 82.958 822.666 82.958 822.666C82.958 822.97 83.1609 823.173 83.3637 823.376C83.7694 823.782 84.0737 823.984 84.7837 824.187C84.9866 824.289 85.1894 824.187 85.2909 824.187C85.3923 824.187 85.3923 824.187 85.4937 824.187C86.1023 824.086 87.218 823.68 87.5223 822.767C87.5223 822.666 87.5223 822.565 87.5223 822.463C87.5223 821.956 87.218 821.347 86.9137 820.942C86.8123 820.739 86.6094 820.638 86.508 820.536C86.4066 820.536 86.4066 820.434 86.3051 820.333C86.1023 820.13 85.798 819.725 85.4937 819.725C85.1894 819.725 84.8852 819.927 84.6823 820.232C84.5809 820.333 84.4794 820.536 84.378 820.637C84.2766 820.739 84.1752 820.84 84.1752 820.942C84.1752 821.043 84.0737 821.043 84.0737 821.043C83.8709 821.348 83.668 821.347 83.4651 821.449C83.2623 821.753 82.958 821.956 82.958 822.565Z" fill="white"/>
<path d="M127.891 707.852C127.891 708.054 127.992 708.257 128.093 708.359C128.296 708.562 128.601 708.663 128.905 708.663C129.006 708.663 129.006 708.663 129.108 708.663L129.209 708.663C129.412 708.562 129.818 708.359 129.818 707.953L129.818 707.852C129.818 707.649 129.615 707.345 129.513 707.142C129.412 707.04 129.412 706.939 129.311 706.837L129.209 706.736C129.108 706.634 129.108 706.634 129.006 706.533C128.905 706.533 128.905 706.533 128.803 706.533L128.702 706.533L128.601 706.533L128.499 706.635C128.398 706.736 128.296 706.939 128.195 707.142C128.093 707.345 127.891 707.547 127.891 707.852Z" fill="white"/>
<path d="M33.7653 957.161C33.7653 957.161 33.7653 957.262 33.7653 957.161C33.8667 957.262 33.8667 957.262 33.8667 957.363C34.0696 957.668 34.3738 958.073 34.6781 958.378C35.3881 959.088 36.4024 959.798 37.6196 960.102C37.9238 960.203 38.2281 960.203 38.5324 960.305C38.6338 960.305 38.7352 960.305 38.9381 960.305C39.9524 960.102 40.7638 958.682 41.1695 957.059C41.1695 956.856 41.2709 956.755 41.2709 956.552C41.4738 955.538 41.4738 954.523 41.1695 953.813C41.0681 953.509 40.8652 953.205 40.6624 953.103C40.561 953.002 40.4595 953.002 40.3581 952.901C39.9524 952.698 39.4452 952.698 38.9381 952.799C38.431 952.901 37.9238 953.103 37.4167 953.306C37.1124 953.408 36.8081 953.61 36.6053 953.712C36.4024 953.813 36.1996 953.915 36.0981 954.016C35.9967 954.118 35.8953 954.118 35.7938 954.219C35.0838 954.625 34.5767 955.132 34.171 955.538C33.5624 955.943 33.3596 956.451 33.7653 957.161Z" fill="white"/>
<path d="M234.844 670.646C234.844 670.747 234.844 670.747 234.844 670.747C234.844 670.95 235.047 671.153 235.25 671.153C235.656 671.153 236.569 671.051 237.38 671.558C237.583 671.66 237.786 671.761 237.989 671.964C238.09 671.964 238.191 672.065 238.191 672.065C238.901 672.37 239.51 671.964 239.611 671.356C239.611 671.254 239.611 671.254 239.611 671.153C239.611 670.747 239.51 670.443 239.408 670.037C239.307 669.834 239.307 669.733 239.206 669.53C239.206 669.428 239.104 669.327 239.003 669.225C238.8 668.82 238.394 668.211 238.09 667.907C237.786 667.603 237.583 667.501 237.279 667.4C237.177 667.4 236.974 667.4 236.873 667.501C236.771 667.501 236.67 667.603 236.569 667.704C236.467 667.805 236.467 667.907 236.366 668.008C235.96 668.617 235.554 669.225 235.351 669.53C235.047 669.733 234.844 670.037 234.844 670.646Z" fill="white"/>
<path d="M53.6455 623.158C53.6455 623.259 53.6455 623.259 53.6455 623.158C53.6455 623.259 53.6455 623.259 53.6455 623.158C53.6455 623.361 53.7469 623.462 53.8484 623.665C54.1527 623.969 54.5584 624.476 54.9641 624.071C55.0655 623.969 55.1669 623.868 55.2684 623.767L55.3698 623.665C55.6741 623.361 55.9784 623.259 56.1812 623.056C56.1812 623.056 56.1812 623.056 56.1812 622.955C56.2826 622.854 56.2826 622.651 56.1812 622.448C56.1812 622.346 56.0798 622.245 56.0798 622.245L55.9783 622.144C55.8769 622.042 55.6741 621.941 55.4712 622.042C55.2683 622.042 55.0655 622.144 54.9641 622.245C54.8626 622.245 54.7612 622.346 54.6598 622.346C54.5584 622.346 54.5584 622.346 54.4569 622.346L54.3555 622.346C54.1527 622.346 53.9498 622.346 53.8484 622.448C53.7469 622.549 53.6455 622.854 53.6455 623.158Z" fill="white"/>
<path d="M383.083 823.376C383.185 823.376 383.185 823.376 383.083 823.376C383.185 823.376 383.185 823.376 383.083 823.376C383.185 823.579 383.286 823.681 383.388 823.782C383.59 823.985 383.996 824.289 384.3 824.391C384.402 824.391 384.503 824.391 384.605 824.492L384.706 824.492C385.011 824.391 385.315 823.985 385.416 823.478C385.416 823.376 385.416 823.377 385.416 823.275C385.518 822.971 385.518 822.565 385.416 822.362C385.416 822.261 385.315 822.159 385.213 822.159C385.213 822.159 385.112 822.159 385.112 822.058C385.01 821.957 384.808 821.957 384.605 822.058C384.402 822.058 384.3 822.159 384.098 822.261C383.996 822.261 383.895 822.362 383.793 822.362C383.692 822.362 383.692 822.464 383.59 822.464C383.59 822.464 383.489 822.464 383.489 822.565C383.286 822.667 383.083 822.869 382.982 822.971C383.083 822.971 382.982 823.072 383.083 823.376Z" fill="white"/>
<path d="M103.852 979.575C103.852 979.778 103.953 979.88 104.055 979.981C104.258 980.184 104.359 980.285 104.765 980.387C104.866 980.387 104.968 980.387 105.069 980.387L105.171 980.387C105.475 980.387 106.083 980.082 106.185 979.677L106.185 979.575C106.185 979.271 106.083 978.967 105.881 978.865C105.779 978.764 105.779 978.764 105.678 978.662L105.576 978.561C105.475 978.46 105.373 978.257 105.171 978.257C104.968 978.257 104.866 978.358 104.765 978.46C104.663 978.561 104.663 978.561 104.663 978.662L104.562 978.764C104.562 978.764 104.562 978.865 104.461 978.865C104.359 978.967 104.258 978.967 104.156 979.068C104.055 979.17 103.852 979.271 103.852 979.575Z" fill="white"/>
<path d="M1544.06 933.597C1544.16 933.597 1544.16 933.597 1544.16 933.597C1544.46 933.597 1544.67 933.394 1544.87 933.191C1545.27 932.785 1545.48 932.481 1545.68 931.771C1545.78 931.568 1545.68 931.365 1545.68 931.264C1545.68 931.162 1545.68 931.162 1545.68 931.061C1545.58 930.452 1545.17 929.337 1544.26 929.032C1544.16 929.032 1544.06 929.032 1543.96 929.032C1543.45 929.032 1542.84 929.337 1542.43 929.641C1542.23 929.742 1542.13 929.945 1542.03 930.047C1542.03 930.148 1541.93 930.148 1541.83 930.25C1541.62 930.452 1541.22 930.757 1541.22 931.061C1541.22 931.365 1541.42 931.67 1541.72 931.872C1541.83 931.974 1542.03 932.075 1542.13 932.177C1542.23 932.278 1542.33 932.38 1542.43 932.38C1542.54 932.38 1542.54 932.481 1542.54 932.481C1542.84 932.684 1542.84 932.887 1542.94 933.09C1543.25 933.292 1543.45 933.597 1544.06 933.597Z" fill="white"/>
<path d="M1678.65 982.789C1678.65 982.789 1678.75 982.789 1678.65 982.789C1678.75 982.687 1678.75 982.687 1678.86 982.687C1679.16 982.485 1679.57 982.18 1679.87 981.876C1680.58 981.166 1681.29 980.152 1681.59 978.935C1681.7 978.63 1681.7 978.326 1681.8 978.022C1681.8 977.92 1681.8 977.819 1681.8 977.616C1681.59 976.602 1680.17 975.79 1678.55 975.385C1678.35 975.385 1678.25 975.283 1678.04 975.283C1677.03 975.08 1676.02 975.08 1675.31 975.385C1675 975.486 1674.7 975.689 1674.6 975.892C1674.49 975.993 1674.49 976.095 1674.39 976.196C1674.19 976.602 1674.19 977.109 1674.29 977.616C1674.39 978.123 1674.6 978.63 1674.8 979.138C1674.9 979.442 1675.1 979.746 1675.2 979.949C1675.31 980.152 1675.41 980.355 1675.51 980.456C1675.61 980.557 1675.61 980.659 1675.71 980.76C1676.12 981.47 1676.62 981.978 1677.03 982.383C1677.44 982.992 1677.94 983.195 1678.65 982.789Z" fill="white"/>
<path d="M1372.14 671.71C1372.24 671.71 1372.24 671.71 1372.24 671.71C1372.44 671.71 1372.64 671.507 1372.64 671.304C1372.64 670.899 1372.54 669.986 1373.05 669.174C1373.15 668.971 1373.25 668.769 1373.46 668.566C1373.46 668.464 1373.56 668.363 1373.56 668.363C1373.86 667.653 1373.46 667.044 1372.85 666.943C1372.75 666.943 1372.75 666.943 1372.64 666.943C1372.24 666.943 1371.93 667.044 1371.53 667.146C1371.33 667.247 1371.22 667.247 1371.02 667.349C1370.92 667.349 1370.82 667.45 1370.72 667.551C1370.31 667.754 1369.7 668.16 1369.4 668.464C1369.09 668.769 1368.99 668.971 1368.89 669.276C1368.89 669.377 1368.89 669.58 1368.99 669.681C1368.99 669.783 1369.09 669.884 1369.2 669.986C1369.3 670.087 1369.4 670.087 1369.5 670.189C1370.11 670.594 1370.72 671 1371.02 671.203C1371.22 671.507 1371.53 671.71 1372.14 671.71Z" fill="white"/>
<path d="M1751.27 635.094C1751.17 635.094 1751.17 635.094 1751.27 635.094C1751.07 635.195 1750.87 635.195 1750.77 635.297C1750.46 635.5 1750.36 635.905 1750.26 636.311C1750.26 636.413 1750.26 636.514 1750.26 636.615L1750.26 636.717C1750.36 637.123 1750.77 637.325 1751.17 637.427L1751.27 637.427C1751.48 637.427 1751.78 637.427 1751.99 637.325C1752.09 637.325 1752.19 637.224 1752.19 637.122L1752.29 637.021C1752.39 636.92 1752.39 636.717 1752.49 636.615C1752.49 636.514 1752.49 636.311 1752.49 636.21C1752.49 636.108 1752.49 636.007 1752.49 636.007C1752.49 635.905 1752.49 635.905 1752.49 635.804L1752.49 635.703C1752.39 635.5 1752.29 635.297 1752.19 635.195C1751.88 635.094 1751.58 634.993 1751.27 635.094Z" fill="white"/>
<path d="M1701.07 912.702C1701.27 912.702 1701.37 912.601 1701.47 912.499C1701.68 912.296 1701.78 912.195 1701.88 911.789C1701.88 911.688 1701.88 911.586 1701.88 911.485L1701.88 911.384C1701.88 911.079 1701.57 910.471 1701.17 910.369L1701.07 910.369C1700.76 910.369 1700.46 910.471 1700.36 910.674C1700.26 910.775 1700.26 910.775 1700.15 910.876L1700.05 910.978C1699.95 911.079 1699.75 911.181 1699.75 911.384C1699.75 911.586 1699.85 911.688 1699.95 911.789C1700.05 911.891 1700.05 911.891 1700.15 911.891L1700.26 911.992C1700.26 911.992 1700.36 911.992 1700.36 912.094C1700.46 912.195 1700.46 912.296 1700.56 912.398C1700.66 912.499 1700.76 912.702 1701.07 912.702Z" fill="white"/>
<g style="mix-blend-mode:screen">
<path d="M1791.5 1025L-0.5 1025L-0.499935 285L1791.5 285L1791.5 1025Z" fill="#5B55FF" fill-opacity="0.3"/>
</g>
</g>
<rect x="-1" y="290" width="1792" height="750.857" fill="url(#paint4_linear_3537_157383)"/>
<path d="M225.943 446.199C226.303 445.838 226.7 445.478 227.132 445.081C226.556 445.514 226.231 445.874 225.943 446.199Z" fill="#30207D"/>
<path d="M91.6833 485.539C89.6649 485.611 88.7278 485.719 90.4939 485.791C91.5752 485.719 90.9624 485.647 91.6833 485.539Z" fill="#30207D"/>
<path d="M24.7515 483.699C24.7515 483.699 26.1932 483.807 27.6349 483.88C28.3558 483.916 29.0766 483.988 29.6173 484.024C30.1579 484.06 30.4823 484.06 30.4823 484.06C29.3289 484.024 25.6886 483.735 24.7515 483.699Z" fill="#30207D"/>
<path d="M225.871 446.306C225.69 446.487 225.907 446.27 225.943 446.198C225.582 446.523 225.258 446.883 224.934 447.172C225.294 446.956 226.123 446.054 225.871 446.306Z" fill="#30207D"/>
<path d="M225.943 446.199C226.303 445.838 226.736 445.478 227.132 445.081C226.592 445.55 226.267 445.91 225.943 446.199Z" fill="#30207D"/>
<path d="M37.9791 485.178C37.4384 485.142 36.9338 485.142 36.1409 485.069C35.9246 485.178 37.6907 485.178 37.9791 485.178Z" fill="#30207D"/>
<path d="M34.5552 20.0974C36.4654 20.6744 37.4025 20.8547 35.7446 20.2056C34.6993 19.9532 35.276 20.2056 34.5552 20.0974Z" fill="#30207D"/>
<path d="M99.2882 37.8734C99.2882 37.8734 97.8825 37.585 96.4769 37.2604C95.756 37.1162 95.0712 36.972 94.5305 36.8278C93.9899 36.7196 93.6655 36.6475 93.6655 36.6475C94.7829 36.9359 98.3511 37.7292 99.2882 37.8734Z" fill="#30207D"/>
<path d="M227.24 48.2587L231.421 47.7539L228.718 47.9342C228.754 48.0424 227.745 48.1866 227.24 48.2587Z" fill="#30207D"/>
<path d="M252.254 45.8071C254.308 45.6629 254.669 45.735 254.02 45.5547L252.254 45.8071Z" fill="#30207D"/>
<path d="M337.171 199.199L333.783 200.497C334.144 200.786 334.937 200.029 337.171 199.199Z" fill="#30207D"/>
<path d="M271.537 243.154C271.069 243.659 268.906 246.075 269.05 246.003C269.807 245.21 271.069 243.803 271.537 243.154Z" fill="#30207D"/>
<path d="M244.469 410.321C244.289 412.196 244.289 411.944 244.541 411.511C244.541 411.475 244.469 410.213 244.469 410.321Z" fill="#30207D"/>
<path d="M306.931 216.65C307.399 216.327 307.255 216.435 306.823 216.686C306.859 216.686 306.931 216.65 306.931 216.65Z" fill="#30207D"/>
<path d="M86.457 34.2686C86.9977 34.3767 87.4662 34.521 88.2231 34.7013C88.4754 34.6652 86.7093 34.3407 86.457 34.2686Z" fill="#30207D"/>
<path d="M337.207 199.344L334.252 200.57C334.288 200.534 334.288 200.534 334.288 200.534C334.252 200.498 334.144 200.534 333.783 200.714C333.459 200.894 331.801 201.796 332.63 201.363C333.711 200.822 333.928 200.642 334.216 200.678C335.225 200.245 336.27 199.74 337.207 199.344Z" fill="#30207D"/>
<path d="M271.609 243.263C271.393 243.479 269.05 246.111 269.158 246.111C269.915 245.282 271.141 243.876 271.609 243.263Z" fill="#30207D"/>
<path d="M268.87 246.544C269.014 246.399 270.096 245.209 270.096 245.209C270.456 244.669 269.951 245.426 270.204 244.957C270.204 244.957 268.474 246.904 268.834 246.471C269.086 246.183 270.096 245.137 269.771 245.498C269.555 245.786 269.014 246.363 268.87 246.544Z" fill="#30207D"/>
<path d="M234.629 434.66C233.656 436.03 236.107 432.785 235.963 432.893C235.963 432.893 236.359 431.991 236.323 432.1C235.927 432.821 236.287 431.991 236.251 432.028C236.251 432.028 236.143 432.208 235.963 432.532C235.783 432.821 235.566 433.217 235.314 433.614C234.809 434.371 234.413 434.948 234.377 435.056C234.449 434.876 234.882 434.299 234.629 434.66Z" fill="#30207D"/>
<path d="M239.207 352.699C239.171 353.204 239.134 353.889 239.279 355.62C239.171 353.601 239.171 352.88 239.207 352.699Z" fill="#30207D"/>
<path d="M307.038 216.038C307.002 216.038 306.858 216.146 306.643 216.254C306.679 216.29 307.074 216.038 307.038 216.038Z" fill="#30207D"/>
<path d="M382.117 176.879C382.117 176.879 380.206 178.177 379.99 178.321C380.098 178.249 380.747 177.925 380.747 177.925L382.117 176.879Z" fill="#30207D"/>
<path d="M134.142 43.6429C133.385 43.5348 132.664 43.4266 132.015 43.3545C132.664 43.4627 134.358 43.7511 134.142 43.6429Z" fill="#30207D"/>
<path d="M243.676 416.09L243.82 415.153C243.893 415.261 243.748 416.306 243.82 416.126C243.857 415.838 243.893 415.225 243.965 414.54C244.001 413.854 244.037 413.169 244.073 412.737C244.073 412.773 243.965 413.422 244.001 413.241C244.001 412.989 244.037 412.556 244.001 412.809C243.965 413.169 243.857 414.035 243.748 414.792C243.604 415.549 243.496 416.198 243.496 416.234C243.532 416.09 243.784 415.153 243.82 415.153C243.784 415.261 243.604 416.27 243.676 416.09Z" fill="#30207D"/>
<path d="M244.793 404.227C244.793 404.731 244.793 405.272 244.793 405.813C244.865 405.128 244.829 404.659 244.793 404.227Z" fill="#30207D"/>
<path d="M277.088 239.657C277.448 239.297 277.953 238.864 278.529 238.287C277.736 238.972 276.619 239.91 275.394 241.028C275.718 240.847 275.97 240.703 277.088 239.657Z" fill="#30207D"/>
<path d="M257.373 265.475C258.382 263.744 258.778 262.914 257.769 264.357C257.3 265.294 257.661 264.825 257.373 265.475Z" fill="#30207D"/>
<path d="M303.832 218.635C303.832 218.635 302.642 219.428 301.453 220.221C300.263 221.051 299.146 221.844 299.11 221.844C299.578 221.519 300.552 220.834 301.525 220.185C302.498 219.572 303.471 218.923 303.832 218.635Z" fill="#30207D"/>
<path d="M408.464 147.419C408.464 147.419 408.824 146.41 409.149 145.4C409.329 144.895 409.473 144.39 409.581 143.994C409.689 143.597 409.761 143.345 409.761 143.345L409.329 144.643C409.185 145.076 409.005 145.508 408.824 145.905C408.932 145.941 408.608 146.914 408.464 147.419Z" fill="#30207D"/>
<path d="M302.894 46.1313C302.318 46.0592 301.597 45.9871 300.624 45.8789C299.867 45.8789 301.092 45.951 302.894 46.1313Z" fill="#30207D"/>
<path d="M411.456 122.467C411.131 120.411 411.167 120.015 411.059 120.7L411.456 122.467Z" fill="#30207D"/>
<path d="M137.386 44.0402C137.386 44.0402 136.521 43.8239 135.62 43.6075C134.755 43.3912 133.854 43.1748 133.854 43.1748C134.034 43.6075 135.079 43.4633 137.386 44.0402Z" fill="#30207D"/>
<path d="M60.362 25.9026C59.7132 25.6862 56.6495 24.7487 56.7577 24.8929C57.839 25.2175 59.6051 25.7583 60.362 25.9026Z" fill="#30207D"/>
<path d="M102.893 38.6668C103.433 38.775 103.289 38.7029 102.785 38.5947C102.821 38.6308 102.893 38.6668 102.893 38.6668Z" fill="#30207D"/>
<path d="M66.0926 29.1839C66.5972 29.3642 67.21 29.5445 68.0029 29.7969C67.0298 29.4363 65.6241 28.9315 64.0742 28.3906C64.3626 28.5349 64.6149 28.7151 66.0926 29.1839Z" fill="#30207D"/>
<path d="M386.117 79.666C386.55 80.0627 387.09 80.5314 387.811 81.1805C388.424 81.6492 387.487 80.8559 386.117 79.666Z" fill="#30207D"/>
<path d="M243.784 419.335L244.397 417.568C244.721 415.982 244.649 416.09 244.505 416.775C244.469 416.955 244.433 417.136 244.361 417.388C244.289 417.604 244.217 417.857 244.181 418.073C244 418.542 243.892 419.011 243.784 419.335Z" fill="#30207D"/>
<path d="M244.757 404.119C244.721 403.866 244.757 404.155 244.793 404.263C244.757 403.794 244.721 403.325 244.685 402.893C244.613 403.253 244.793 404.443 244.757 404.119Z" fill="#30207D"/>
<path d="M244.757 404.227C244.757 404.731 244.757 405.272 244.757 405.813C244.793 405.128 244.793 404.659 244.757 404.227Z" fill="#30207D"/>
<path d="M292.658 225.774C293.091 225.449 293.487 225.125 294.136 224.656C294.208 224.439 292.874 225.593 292.658 225.774Z" fill="#30207D"/>
<path d="M134.142 43.6439C135.223 43.8242 136.376 44.0045 137.349 44.1848C137.349 44.1848 136.557 44.0405 135.8 43.8602C135.007 43.68 134.25 43.5357 134.25 43.5357C134.286 43.5357 134.322 43.5357 134.286 43.5357C134.286 43.4636 134.142 43.4636 133.781 43.3915C133.421 43.3554 131.547 43.103 132.484 43.2473C133.637 43.4636 133.925 43.4275 134.142 43.6439Z" fill="#30207D"/>
<path d="M60.3258 26.0104C60.0374 25.9383 56.6854 24.9286 56.7215 25.0008C57.8028 25.3253 59.5689 25.8662 60.3258 26.0104Z" fill="#30207D"/>
<path d="M56.2172 24.929C56.4335 25.0012 57.9473 25.4699 57.9473 25.4699C58.5961 25.5781 57.695 25.3978 58.2357 25.4699C58.2357 25.4699 55.7487 24.7127 56.2893 24.893C56.6497 25.0012 58.0194 25.4699 57.5508 25.3257C57.1904 25.2175 56.4335 25.0012 56.2172 24.929Z" fill="#30207D"/>
<path d="M103.397 38.3064C103.361 38.3064 103.217 38.2703 102.964 38.1982C102.964 38.2343 103.433 38.3425 103.397 38.3064Z" fill="#30207D"/>
<path d="M187.269 49.2686C187.269 49.2686 186.584 49.2686 185.899 49.2686C185.214 49.2686 184.602 49.2686 184.71 49.2686C184.854 49.2686 185.575 49.3767 185.575 49.3767C186.151 49.3767 186.728 49.3046 187.269 49.2686Z" fill="#30207D"/>
<path d="M334.252 200.713C333.567 201.037 332.919 201.398 332.342 201.686C332.955 201.398 334.504 200.713 334.252 200.713Z" fill="#30207D"/>
<path d="M243.352 419.119L243.892 417.352C244.217 415.801 244.181 415.982 244 416.667C243.964 416.847 243.928 417.063 243.856 417.28C243.784 417.496 243.712 417.713 243.676 417.965C243.568 418.398 243.424 418.83 243.352 419.119Z" fill="#30207D"/>
<path d="M65.2642 487.521C65.949 487.557 69.1567 487.629 69.0125 487.557C67.8952 487.485 66.021 487.449 65.2642 487.521Z" fill="#30207D"/>
<path d="M235.278 434.227L234.125 435.633C232.251 438.193 234.557 435.308 235.278 434.227Z" fill="#30207D"/>
<path d="M234.161 437.293L233.62 438.086C233.62 437.942 234.197 437.04 234.052 437.185C233.908 437.437 233.584 437.978 233.223 438.591C232.863 439.168 232.431 439.745 232.178 440.105C232.178 440.105 232.611 439.564 232.503 439.709C232.358 439.925 232.106 440.322 232.25 440.105C232.503 439.781 233.043 439.132 233.512 438.483C233.98 437.87 234.377 437.293 234.413 437.257C234.305 437.365 233.692 438.122 233.656 438.122C233.656 438.086 234.269 437.221 234.161 437.293Z" fill="#30207D"/>
<path d="M230.412 441.871C231.674 440.429 231.565 440.645 231.061 440.861C231.061 440.897 230.376 441.979 230.412 441.871Z" fill="#30207D"/>
<path d="M21.0753 483.375C20.4986 483.338 20.6788 483.375 21.1834 483.447C21.1474 483.411 21.0753 483.411 21.0753 483.375Z" fill="#30207D"/>
<path d="M58.9203 485.755C58.4157 485.719 57.7669 485.683 56.9019 485.646C57.9471 485.755 59.4249 485.899 61.0468 486.043C60.7224 485.971 60.4341 485.863 58.9203 485.755Z" fill="#30207D"/>
<path d="M241.369 308.745C241.369 308.853 241.369 308.817 241.369 308.889C241.441 308.456 241.513 308.024 241.585 307.627C241.477 308.096 241.405 308.456 241.369 308.745Z" fill="#30207D"/>
<path d="M138.071 481.933C137.602 482.005 137.133 482.113 136.773 482.149C137.422 482.041 137.782 481.969 138.071 481.933Z" fill="#30207D"/>
<path d="M240.215 46.4922C240 46.5282 240.036 46.5282 240.215 46.4922V46.4922Z" fill="#30207D"/>
<path d="M411.167 134.005C411.059 134.726 411.131 134.438 411.167 134.005V134.005Z" fill="#30207D"/>
<path d="M65.2642 487.378C65.5525 487.414 69.0486 487.45 69.0126 487.414C67.8953 487.378 66.0571 487.342 65.2642 487.378Z" fill="#30207D"/>
<path d="M69.5529 487.305C69.3367 487.305 67.7507 487.233 67.7507 487.233C67.102 487.305 68.0031 487.233 67.4624 487.305C67.4624 487.305 70.0576 487.341 69.4809 487.341C69.1204 487.305 67.6787 487.233 68.1472 487.269C68.5077 487.305 69.3006 487.305 69.5529 487.305Z" fill="#30207D"/>
<path d="M235.638 434.552L234.521 435.994C233.548 437.256 233.692 437.112 234.125 436.571C234.593 436.066 235.314 435.021 235.638 434.552Z" fill="#30207D"/>
<path d="M244.289 418.65C244.505 417.821 244.325 418.398 244.109 419.155C243.892 419.949 243.532 420.886 243.568 420.814C243.568 420.778 243.388 421.824 243.424 421.679C243.64 420.886 243.496 421.788 243.532 421.751C243.532 421.751 243.82 420.85 244.073 419.912C244.289 419.011 244.469 418.29 244.469 418.182C244.361 418.434 244.145 419.119 244.289 418.65Z" fill="#30207D"/>
<path d="M180.565 471.078C181.07 470.97 181.718 470.79 183.304 470.141C181.43 470.826 180.745 471.042 180.565 471.078Z" fill="#30207D"/>
<path d="M20.6063 483.807C20.6424 483.807 20.7865 483.843 21.0749 483.879C21.0749 483.843 20.5703 483.807 20.6063 483.807Z" fill="#30207D"/>
<defs>
<linearGradient id="paint0_linear_3537_157383" x1="896" y1="76.9492" x2="896" y2="828.448" gradientUnits="userSpaceOnUse">
<stop stop-color="#130C30"/>
<stop offset="1" stop-color="#271571"/>
</linearGradient>
<radialGradient id="paint1_radial_3537_157383" cx="0" cy="0" r="1" gradientUnits="userSpaceOnUse" gradientTransform="translate(1722.5 971) rotate(-140.802) scale(797.458 772.704)">
<stop offset="0.260417" stop-color="#4C2193" stop-opacity="0.6"/>
<stop offset="0.51" stop-color="#3D17AD" stop-opacity="0.3"/>
<stop offset="1" stop-color="#1C0958" stop-opacity="0"/>
</radialGradient>
<linearGradient id="paint2_linear_3537_157383" x1="643.67" y1="163" x2="643.669" y2="846.367" gradientUnits="userSpaceOnUse">
<stop offset="0.01" stop-color="#612193" stop-opacity="0.6"/>
<stop offset="0.473958" stop-color="#3D17AD" stop-opacity="0.3"/>
<stop offset="1" stop-color="#1C0958" stop-opacity="0"/>
</linearGradient>
<radialGradient id="paint3_radial_3537_157383" cx="0" cy="0" r="1" gradientUnits="userSpaceOnUse" gradientTransform="translate(-0.498129 1013.67) rotate(-41.8278) scale(834.727 820.786)">
<stop offset="0.243855" stop-color="#4C2193" stop-opacity="0.6"/>
<stop offset="0.51" stop-color="#3D17AD" stop-opacity="0.3"/>
<stop offset="1" stop-color="#1C0958" stop-opacity="0"/>
</radialGradient>
<linearGradient id="paint4_linear_3537_157383" x1="895" y1="290" x2="904.109" y2="740.369" gradientUnits="userSpaceOnUse">
<stop stop-color="#180F3F"/>
<stop offset="1" stop-color="#170E3D" stop-opacity="0"/>
</linearGradient>
</defs>
</svg>
