<svg width="495" height="341" viewBox="0 0 495 341" fill="none" xmlns="http://www.w3.org/2000/svg">
<g clip-path="url(#clip0_4490_58494)">
<g opacity="0.28">
<path opacity="0.025641" d="M-118.874 230.102C-114.723 220.458 -104.92 213.311 -90.543 208.717C-76.172 204.125 -57.3314 202.119 -35.3029 202.694C8.74745 203.845 65.3958 215.312 124.185 236.842C182.975 258.372 232.723 285.869 265.633 312.903C282.09 326.422 294.308 339.801 301.35 352.236C308.396 364.675 310.214 376.078 306.063 385.722C301.911 395.366 292.109 402.513 277.731 407.108C263.36 411.7 244.52 413.706 222.491 413.13C178.441 411.979 121.792 400.512 63.003 378.982C4.21349 357.453 -45.535 329.955 -78.4444 302.922C-94.9017 289.403 -107.12 276.023 -114.162 263.589C-121.207 251.149 -123.026 239.746 -118.874 230.102Z" stroke="#AF99FF" stroke-width="1.28191"/>
<path opacity="0.0512821" d="M-102.837 204.272C-97.9618 194.932 -87.7326 188.649 -73.2161 185.374C-58.7056 182.1 -40.0114 181.858 -18.3934 184.522C24.8362 189.849 79.6101 206.775 135.665 234.055C191.719 261.335 238.392 293.78 268.542 324.165C283.619 339.359 294.538 354.013 300.444 367.223C306.353 380.438 307.207 392.115 302.332 401.455C297.457 410.795 287.228 417.078 272.711 420.353C258.201 423.627 239.506 423.868 217.888 421.205C174.659 415.878 119.885 398.952 63.8302 371.672C7.77554 344.392 -38.8975 311.947 -69.047 281.562C-84.124 266.367 -95.0431 251.714 -100.949 238.504C-106.858 225.288 -107.712 213.611 -102.837 204.272Z" stroke="#AF99FF" stroke-width="1.28191"/>
<path opacity="0.0769231" d="M-85.2609 179.189C-79.6995 170.227 -69.123 164.855 -54.5772 162.924C-40.0373 160.993 -21.6314 162.517 -0.588158 167.249C41.4921 176.711 93.9754 198.967 146.869 231.79C199.763 264.612 243.006 301.759 270.166 335.264C283.749 352.019 293.286 367.835 298.011 381.72C302.739 395.611 302.621 407.473 297.06 416.435C291.498 425.397 280.922 430.769 266.376 432.7C251.836 434.63 233.43 433.106 212.387 428.375C170.307 418.913 117.824 396.657 64.9299 363.834C12.0362 331.011 -31.2067 293.865 -58.3674 260.36C-71.9497 243.605 -81.487 227.789 -86.2124 213.904C-90.9396 200.012 -90.8222 188.151 -85.2609 179.189Z" stroke="#AF99FF" stroke-width="1.28191"/>
<path opacity="0.102564" d="M-66.2446 155.016C-60.0404 146.502 -49.198 142.083 -34.7332 141.51C-20.2743 140.937 -2.29639 144.215 18.0123 150.979C58.6237 164.505 108.417 191.921 157.748 230.037C207.078 268.153 246.563 309.719 270.528 346.089C282.512 364.277 290.595 381.135 294.104 395.591C297.614 410.052 296.526 422.008 290.321 430.522C284.117 439.037 273.275 443.456 258.81 444.029C244.351 444.602 226.373 441.323 206.065 434.56C165.453 421.034 115.66 393.618 66.329 355.502C16.9985 317.386 -22.4857 275.82 -46.451 239.45C-58.4355 221.261 -66.5186 204.403 -70.0273 189.948C-73.5375 175.486 -72.4488 163.531 -66.2446 155.016Z" stroke="#AF99FF" stroke-width="1.28191"/>
<path opacity="0.128205" d="M-45.8559 131.884C-39.0573 123.882 -28.0327 120.449 -13.7582 121.239C0.50986 122.029 17.9233 127.037 37.3431 135.781C76.177 153.268 122.902 185.637 168.295 228.756C213.687 271.875 249.112 317.544 269.7 356.504C279.995 375.987 286.563 393.759 288.828 408.675C291.095 423.598 289.043 435.554 282.244 443.556C275.446 451.557 264.421 454.99 250.147 454.2C235.878 453.41 218.465 448.403 199.045 439.658C160.211 422.172 113.486 389.803 68.0937 346.683C22.7015 303.564 -12.7236 257.896 -33.3116 218.936C-43.6071 199.453 -50.1746 181.68 -52.4399 166.764C-54.7063 151.842 -52.6544 139.885 -45.8559 131.884Z" stroke="#AF99FF" stroke-width="1.28191"/>
<path opacity="0.153846" d="M-24.2215 109.931C-16.8819 102.505 -5.75991 100.083 8.21622 102.23C22.1851 104.376 38.9018 111.075 57.2852 121.734C94.0464 143.049 137.348 180.124 178.457 227.919C219.565 275.714 250.662 325.139 267.716 366.392C276.244 387.023 281.246 405.574 282.251 420.837C283.256 436.108 280.257 447.974 272.917 455.4C265.578 462.826 254.456 465.248 240.479 463.1C226.51 460.954 209.794 454.255 191.41 443.596C154.649 422.282 111.347 385.206 70.2388 337.411C29.1302 289.616 -1.96654 240.192 -19.0205 198.938C-27.5487 178.308 -32.5506 159.756 -33.5553 144.493C-34.5605 129.222 -31.561 117.357 -24.2215 109.931Z" stroke="#AF99FF" stroke-width="1.28191"/>
<path opacity="0.179487" d="M-1.46342 89.3015C6.35944 82.5081 17.4936 81.1146 31.0655 84.6032C44.6292 88.0897 60.5219 96.4296 77.7292 108.922C112.138 133.903 151.687 175.404 188.199 227.511C224.711 279.618 251.243 332.423 264.633 375.657C271.329 397.277 274.727 416.468 274.463 431.962C274.2 447.465 270.275 459.149 262.453 465.942C254.63 472.735 243.496 474.129 229.924 470.64C216.36 467.154 200.467 458.814 183.26 446.321C148.851 421.34 109.302 379.84 72.7901 327.733C36.2779 275.625 9.74622 222.821 -3.64379 179.587C-10.3399 157.966 -13.7379 138.776 -13.4743 123.282C-13.2104 107.778 -9.28629 96.0949 -1.46342 89.3015Z" stroke="#AF99FF" stroke-width="1.28191"/>
<path opacity="0.205128" d="M22.3087 70.0954C30.5534 63.9864 41.6146 63.6308 54.6795 68.4348C67.7348 73.2352 82.6829 83.1529 98.583 97.3842C130.378 125.842 165.873 171.452 197.51 227.476C229.148 283.499 250.913 339.283 260.537 384.168C265.349 406.615 267.118 426.298 265.587 441.906C264.056 457.525 259.238 468.936 250.993 475.045C242.748 481.154 231.687 481.509 218.622 476.705C205.567 471.905 190.619 461.987 174.719 447.756C142.924 419.298 107.429 373.688 75.7914 317.664C44.1536 261.641 22.389 205.857 12.7651 160.972C7.9523 138.525 6.18401 118.842 7.71429 103.234C9.24569 87.6149 14.064 76.2044 22.3087 70.0954Z" stroke="#AF99FF" stroke-width="1.28191"/>
<path opacity="0.230769" d="M46.9388 52.4363C55.5407 47.0579 66.4448 47.7415 78.9034 53.825C91.3511 59.9032 105.241 71.3235 119.713 87.1856C148.651 118.904 179.822 168.277 206.344 227.791C232.866 287.304 249.698 345.643 255.482 391.839C258.375 414.941 258.5 434.968 255.714 450.571C252.926 466.187 247.251 477.237 238.649 482.615C230.048 487.994 219.143 487.31 206.685 481.226C194.237 475.148 180.348 463.728 165.876 447.866C136.937 416.147 105.767 366.774 79.2441 307.261C52.7217 247.747 35.8902 189.409 30.1059 143.213C27.2133 120.11 27.0884 100.084 29.8739 84.4809C32.6618 68.8644 38.3369 57.8147 46.9388 52.4363Z" stroke="#AF99FF" stroke-width="1.28191"/>
<path opacity="0.25641" d="M72.3109 36.4015C81.2028 31.7939 91.867 33.51 103.625 40.8278C115.37 48.1378 128.095 60.974 141.029 78.3465C166.891 113.085 193.499 165.846 214.704 228.397C235.909 290.948 247.679 351.397 249.579 398.553C250.53 422.135 249.01 442.353 244.99 457.832C240.966 473.328 234.479 483.932 225.587 488.539C216.695 493.147 206.031 491.431 194.273 484.113C182.528 476.803 169.802 463.967 156.869 446.594C131.007 411.855 104.398 359.095 83.1933 296.544C61.9883 233.993 50.2183 173.543 48.3181 126.388C47.3678 102.806 48.8877 82.588 52.9075 67.1087C56.9314 51.6131 63.4191 41.0092 72.3109 36.4015Z" stroke="#AF99FF" stroke-width="1.28191"/>
<path opacity="0.282051" d="M98.2609 22.0971C107.373 18.294 117.717 21.0282 128.685 29.5254C139.638 38.0119 151.102 52.1669 162.398 70.9176C184.987 108.412 206.83 164.159 222.556 229.272C238.282 294.384 244.9 356.485 242.902 404.241C241.902 428.124 238.749 448.379 233.525 463.617C228.295 478.874 221.045 488.951 211.932 492.754C202.82 496.557 192.476 493.823 181.509 485.326C170.555 476.839 159.091 462.684 147.795 443.934C125.207 406.439 103.363 350.692 87.6371 285.579C71.9114 220.467 65.2928 158.366 67.2917 110.61C68.2913 86.7275 71.4447 66.472 76.6684 51.234C81.8986 35.9769 89.1484 25.9001 98.2609 22.0971Z" stroke="#AF99FF" stroke-width="1.28191"/>
<path opacity="0.307692" d="M124.65 9.5749C133.912 6.6037 143.858 10.3339 153.951 19.9469C164.03 29.5456 174.145 44.9117 183.718 64.8983C202.86 104.864 219.772 163.173 229.899 230.352C240.025 297.53 241.441 360.81 235.558 408.803C232.616 432.804 227.853 452.943 221.465 467.824C215.067 482.727 207.112 492.199 197.849 495.17C188.586 498.142 178.641 494.411 168.548 484.799C158.469 475.2 148.354 459.834 138.781 439.847C119.639 399.881 102.727 341.572 92.6003 274.394C82.4737 207.215 81.0574 143.935 86.9406 95.942C89.8827 71.9409 94.6459 51.8021 101.034 36.9213C107.432 22.0185 115.387 12.5461 124.65 9.5749Z" stroke="#AF99FF" stroke-width="1.28191"/>
<path opacity="0.333333" d="M151.321 -1.0963C160.663 -3.21505 170.136 1.48171 179.277 12.1382C188.403 22.7764 197.093 39.237 204.869 60.3073C220.419 102.44 232.27 162.868 236.72 231.601C241.17 300.335 237.373 364.312 227.65 412.177C222.787 436.114 216.45 455.982 208.946 470.393C201.429 484.828 192.829 493.624 183.488 495.742C174.147 497.861 164.674 493.164 155.532 482.508C146.406 471.87 137.717 455.409 129.94 434.339C114.39 392.206 102.539 331.778 98.0888 263.045C93.6388 194.312 97.436 130.334 107.159 82.4694C112.022 58.5324 118.359 38.6636 125.863 24.2534C133.381 9.81832 141.98 1.02244 151.321 -1.0963Z" stroke="#AF99FF" stroke-width="1.28191"/>
<path opacity="0.358974" d="M178.109 -9.87114C187.457 -11.1236 196.387 -5.49671 204.507 6.12308C212.611 17.7199 219.808 35.1499 225.728 57.1436C237.567 101.123 244.267 163.209 243.007 232.974C241.746 302.739 232.764 366.926 219.274 414.299C212.528 437.989 204.665 457.437 196.101 471.267C187.521 485.124 178.344 493.176 168.995 494.429C159.646 495.681 150.717 490.054 142.597 478.435C134.492 466.838 127.296 449.408 121.375 427.414C109.537 383.435 102.837 321.349 104.097 251.584C105.358 181.819 114.34 117.631 127.83 70.259C134.576 46.5683 142.439 27.1208 151.003 13.291C159.583 -0.566149 168.76 -8.61871 178.109 -9.87114Z" stroke="#AF99FF" stroke-width="1.28191"/>
<path opacity="0.384615" d="M204.858 -16.73C214.143 -17.1089 222.463 -10.5951 229.499 1.90011C236.519 14.3675 242.168 32.6342 246.187 55.384C254.224 100.874 255.722 164.147 248.76 234.412C241.797 304.678 227.698 368.587 210.544 415.105C201.966 438.369 192.637 457.247 183.079 470.391C173.499 483.564 163.816 490.813 154.531 491.192C145.246 491.571 136.926 485.057 129.89 472.562C122.87 460.094 117.221 441.828 113.202 419.078C105.165 373.587 103.667 310.315 110.629 240.049C117.592 169.784 131.691 105.875 148.844 59.3565C157.423 36.0926 166.752 17.2146 176.31 4.07071C185.89 -9.10256 195.573 -16.3511 204.858 -16.73Z" stroke="#AF99FF" stroke-width="1.28191"/>
<path opacity="0.410256" d="M231.428 -21.6549C240.58 -21.1597 248.228 -13.8083 254.125 -0.532512C260.008 12.7106 264.066 31.6749 266.153 55.0075C270.327 101.663 266.61 165.64 253.999 235.871C241.388 306.102 222.279 369.246 201.592 414.556C191.246 437.216 180.521 455.381 170.042 467.738C159.536 480.127 149.421 486.517 140.269 486.022C131.117 485.526 123.469 478.175 117.572 464.899C111.689 451.656 107.631 432.692 105.544 409.359C101.37 362.703 105.087 298.727 117.698 228.496C130.309 158.265 149.418 95.1209 170.105 49.8104C180.451 27.1506 191.176 8.98614 201.656 -3.37162C212.161 -15.7599 222.277 -22.1501 231.428 -21.6549Z" stroke="#AF99FF" stroke-width="1.28191"/>
<path opacity="0.435897" d="M257.653 -24.6525C266.604 -23.2889 273.523 -15.1554 278.235 -1.19994C282.935 12.718 285.371 32.2355 285.51 55.9732C285.789 103.439 276.885 167.632 258.722 237.294C240.558 306.956 216.584 368.854 192.52 412.611C180.486 434.494 168.447 451.806 157.125 463.284C145.773 474.792 135.304 480.276 126.353 478.913C117.402 477.549 110.483 469.415 105.771 455.46C101.071 441.542 98.6349 422.025 98.4957 398.287C98.2173 350.821 107.121 286.628 125.284 216.966C143.448 147.304 167.422 85.4063 191.486 41.649C203.52 19.766 215.559 2.45358 226.88 -9.02359C238.232 -20.5317 248.702 -26.0161 257.653 -24.6525Z" stroke="#AF99FF" stroke-width="1.28191"/>
<path opacity="0.461538" d="M283.372 -25.7272C292.055 -23.5071 298.193 -14.6524 301.685 -0.123851C305.166 14.363 305.961 34.2848 304.151 58.2467C300.531 106.161 286.509 170.082 262.931 238.645C239.352 307.207 210.696 367.387 183.439 409.257C169.808 430.197 156.547 446.525 144.469 457.034C132.357 467.573 121.613 472.112 112.93 469.891C104.246 467.671 98.1077 458.817 94.6164 444.288C91.1351 429.801 90.3404 409.879 92.1504 385.918C95.7698 338.004 109.792 274.082 133.37 205.52C156.949 136.957 185.605 76.7773 212.862 34.9068C226.494 13.9674 239.755 -2.36088 251.832 -12.8698C263.944 -23.409 274.688 -27.9472 283.372 -25.7272Z" stroke="#AF99FF" stroke-width="1.28191"/>
<path opacity="0.487179" d="M308.444 -24.9169C316.797 -21.8581 322.109 -12.3483 324.351 2.6421C326.587 17.5873 325.735 37.7617 321.989 61.7653C314.499 109.763 295.465 172.925 266.652 239.866C237.838 306.807 204.717 364.811 174.474 404.475C159.35 424.312 144.967 439.531 132.226 448.992C119.447 458.481 108.51 462.04 100.157 458.981C91.8048 455.922 86.4929 446.412 84.2503 431.422C82.0144 416.477 82.8668 396.302 86.6125 372.299C94.1022 324.301 113.136 261.139 141.95 194.198C170.764 127.257 203.884 69.2532 234.127 29.5886C249.252 9.75225 263.634 -5.46721 276.375 -14.9276C289.155 -24.4166 300.092 -27.9756 308.444 -24.9169Z" stroke="#AF99FF" stroke-width="1.28191"/>
<path opacity="0.512821" d="M332.729 -22.2613C340.689 -18.3872 345.134 -8.29321 346.111 7.04394C347.084 22.3335 344.591 42.6066 338.938 66.4689C327.635 114.184 303.733 176.107 269.904 240.916C236.074 305.725 198.741 361.112 165.743 398.268C149.24 416.85 133.846 430.845 120.538 439.184C107.19 447.55 96.1422 450.104 88.1818 446.23C80.2214 442.356 75.7763 432.262 74.8 416.925C73.8267 401.635 76.3198 381.362 81.9726 357.5C93.2758 309.785 117.177 247.862 151.007 183.053C184.837 118.243 222.169 62.857 255.168 25.7006C271.671 7.11854 287.065 -6.876 300.372 -15.2156C313.721 -23.5811 324.768 -26.1354 332.729 -22.2613Z" stroke="#AF99FF" stroke-width="1.28191"/>
<path opacity="0.538462" d="M356.074 -17.822C363.584 -13.1615 367.128 -2.55842 366.831 13.0076C366.534 28.5249 362.419 48.742 354.902 72.2813C339.871 119.35 311.285 179.562 272.697 241.746C234.109 303.93 192.848 356.277 157.345 390.642C139.59 407.828 123.302 420.491 109.529 427.646C95.7137 434.824 84.6394 436.355 77.129 431.695C69.6186 427.034 66.0743 416.431 66.372 400.865C66.6687 385.348 70.7836 365.131 78.3005 341.592C93.3311 294.523 121.918 234.311 160.506 172.127C199.094 109.942 240.354 57.5957 275.857 23.2305C293.612 6.04446 309.901 -6.61839 323.673 -13.7734C337.489 -20.951 348.563 -22.4826 356.074 -17.822Z" stroke="#AF99FF" stroke-width="1.28191"/>
<path opacity="0.564103" d="M378.364 -11.6736C385.37 -6.26068 387.985 4.77228 386.416 20.4474C384.851 36.074 379.146 56.0809 369.823 79.1178C351.179 125.182 318.125 183.224 275.072 242.31C232.02 301.396 187.145 350.304 149.409 381.616C130.537 397.275 113.478 408.51 99.346 414.426C85.1698 420.36 74.1516 420.858 67.1461 415.445C60.1406 410.033 57.5247 399 59.0941 383.324C60.6587 367.698 66.3639 347.691 75.6876 324.654C94.3311 278.59 127.385 220.548 170.438 161.462C213.491 102.376 258.365 53.4679 296.101 22.1559C314.973 6.4967 332.032 -4.73782 346.164 -10.6538C360.34 -16.5881 371.359 -17.0865 378.364 -11.6736Z" stroke="#AF99FF" stroke-width="1.28191"/>
<path opacity="0.589744" d="M399.462 -3.89751C405.911 2.22855 407.578 13.6088 404.749 29.2726C401.928 44.8892 394.676 64.5333 383.617 86.8923C361.503 131.601 324.233 187.03 277.043 242.568C229.854 298.106 181.708 343.204 142.025 371.224C122.18 385.237 104.481 394.957 90.0972 399.589C75.6695 404.235 64.79 403.697 58.341 397.571C51.8921 391.445 50.2254 380.065 53.0543 364.401C55.8746 348.784 63.1266 329.14 74.186 306.781C96.3003 262.072 133.57 206.643 180.76 151.105C227.949 95.5676 276.095 50.4701 315.778 22.4498C335.623 8.43674 353.322 -1.28382 367.706 -5.91554C382.133 -10.5613 393.013 -10.0236 399.462 -3.89751Z" stroke="#AF99FF" stroke-width="1.28191"/>
<path opacity="0.615385" d="M419.269 5.40529C425.113 12.2003 425.817 23.8425 421.751 39.3745C417.696 54.8619 408.953 73.9935 396.242 95.5043C370.825 138.517 329.624 190.912 278.657 242.479C227.69 294.046 176.639 334.989 135.313 359.504C114.646 371.764 96.442 379.897 81.9156 383.209C67.3473 386.531 56.6878 384.962 50.8435 378.167C44.9991 371.372 44.2954 359.73 48.3616 344.198C52.4162 328.71 61.1596 309.579 73.8704 288.068C99.2868 245.055 140.488 192.66 191.455 141.093C242.422 89.5265 293.473 48.5832 334.799 24.0679C355.467 11.8077 373.67 3.67516 388.197 0.362918C402.765 -2.9589 413.424 -1.38969 419.269 5.40529Z" stroke="#AF99FF" stroke-width="1.28191"/>
<path opacity="0.641026" d="M437.664 16.1345C442.86 23.5493 442.594 35.3656 437.322 50.6467C432.064 65.8868 421.897 84.3602 407.631 104.859C379.106 145.848 334.287 194.81 279.931 242.013C225.575 289.216 172.008 325.694 129.353 346.517C108.021 356.931 89.451 363.414 74.8933 365.382C60.2963 367.355 49.9365 364.766 44.7409 357.351C39.5453 349.936 39.8113 338.12 45.0831 322.839C50.3408 307.599 60.5087 289.125 74.774 268.627C103.299 227.638 148.118 178.676 202.474 131.473C256.83 84.2695 310.398 47.792 353.053 26.9683C374.384 16.5544 392.954 10.0717 407.512 8.10401C422.109 6.13103 432.469 8.71977 437.664 16.1345Z" stroke="#AF99FF" stroke-width="1.28191"/>
<path opacity="0.666667" d="M454.569 28.1546C459.076 36.1353 457.841 48.0361 451.405 62.9495C444.984 77.8262 433.47 95.5004 417.759 114.831C386.343 153.484 338.247 198.64 280.916 241.121C223.585 283.601 167.909 315.335 124.251 332.308C102.417 340.797 83.6225 345.58 69.1444 346.189C54.6305 346.799 44.648 343.21 40.1411 335.229C35.6342 327.248 36.8692 315.347 43.3056 300.434C49.726 285.557 61.2408 267.883 76.9517 248.553C108.367 209.899 156.463 164.743 213.794 122.263C271.126 79.7828 326.801 48.0488 370.46 31.0752C392.294 22.5866 411.088 17.8031 425.566 17.1947C440.08 16.5849 450.063 20.1739 454.569 28.1546Z" stroke="#AF99FF" stroke-width="1.28191"/>
<path opacity="0.692308" d="M469.885 41.3475C473.668 49.8356 471.472 61.7304 463.921 76.1623C456.387 90.5621 443.614 107.303 426.577 125.318C392.51 161.341 341.504 202.348 281.634 239.782C221.764 277.216 164.405 303.965 120.075 316.96C97.9057 323.458 79.0301 326.506 64.742 325.751C50.422 324.994 40.8917 320.431 37.1089 311.943C33.3262 303.455 35.5221 291.56 43.073 277.128C50.6071 262.728 63.3807 245.988 80.4176 227.972C114.485 191.949 165.49 150.942 225.36 113.508C285.23 76.0745 342.59 49.3255 386.919 36.3308C409.089 29.8322 427.964 26.784 442.252 27.5394C456.572 28.2964 466.103 32.8594 469.885 41.3475Z" stroke="#AF99FF" stroke-width="1.28191"/>
<path opacity="0.717949" d="M483.566 55.5639C486.594 64.4967 483.453 76.2946 474.846 90.1354C466.256 103.949 452.321 119.628 434.088 136.191C397.629 169.31 344.102 205.855 282.15 237.958C220.197 270.062 161.59 291.622 116.927 300.539C94.5911 304.999 75.7781 306.289 61.7888 304.176C47.7719 302.058 38.7655 296.555 35.7373 287.622C32.7091 278.69 35.8503 266.892 44.4574 253.051C53.0476 239.238 66.9825 223.558 85.2153 206.995C121.674 173.876 175.201 137.331 237.154 105.228C299.106 73.1247 357.713 51.5641 402.376 42.6469C424.712 38.1875 443.525 36.8976 457.514 39.0107C471.531 41.1279 480.538 46.6311 483.566 55.5639Z" stroke="#AF99FF" stroke-width="1.28191"/>
<path opacity="0.74359" d="M495.541 70.6657C497.79 79.9765 493.727 91.5871 484.13 104.732C474.549 117.854 459.559 132.353 440.269 147.337C401.697 177.3 346.057 209.106 282.493 235.634C218.929 262.162 159.522 278.371 114.865 283.143C92.5329 285.529 73.9257 285.051 60.3418 281.597C46.7345 278.137 38.3203 271.733 36.0715 262.423C33.8228 253.112 37.8864 241.501 47.4834 228.357C57.0639 215.235 72.0538 200.735 91.3436 185.751C129.916 155.788 185.556 123.982 249.12 97.4542C312.684 70.9263 372.091 54.7178 416.748 49.9458C439.08 47.5593 457.687 48.0371 471.271 51.4915C484.878 54.9518 493.293 61.3549 495.541 70.6657Z" stroke="#AF99FF" stroke-width="1.28191"/>
<path opacity="0.769231" d="M505.769 86.4938C507.219 96.1126 502.264 107.446 491.75 119.795C481.253 132.126 465.322 145.335 445.122 158.627C404.73 185.206 347.4 212.031 282.709 232.782C218.018 253.533 158.262 264.267 113.953 264.858C91.7941 265.154 73.5345 262.912 60.4592 258.143C47.3646 253.367 39.6066 246.111 38.1566 236.492C36.7067 226.874 41.6625 215.54 52.1757 203.191C62.6733 190.86 78.6039 177.651 98.8037 164.359C139.196 137.78 196.526 110.955 261.217 90.2039C325.908 69.4527 385.664 58.7194 429.973 58.1282C452.132 57.8326 470.392 60.0742 483.467 64.8433C496.561 69.6194 504.319 76.8751 505.769 86.4938Z" stroke="#AF99FF" stroke-width="1.28191"/>
<path opacity="0.794872" d="M514.2 102.897C514.838 112.751 509.027 123.721 497.678 135.181C486.344 146.627 469.594 158.445 448.638 169.944C406.734 192.937 348.15 214.577 282.825 229.394C217.5 244.211 157.85 249.388 114.225 245.794C92.4081 243.997 74.635 240.009 62.1677 233.961C49.6847 227.907 42.6424 219.852 42.0045 209.998C41.3665 200.145 47.1771 189.175 58.5261 177.715C69.8609 166.269 86.6107 154.451 107.567 142.952C149.471 119.959 208.054 98.3187 273.38 83.5019C338.705 68.6851 398.354 63.5082 441.98 67.1019C463.796 68.8991 481.57 72.8871 494.037 78.9342C506.52 84.9889 513.562 93.0436 514.2 102.897Z" stroke="#AF99FF" stroke-width="1.28191"/>
<path opacity="0.820513" d="M520.85 119.703C520.669 129.716 514.047 140.237 501.949 150.722C489.864 161.196 472.422 171.534 450.87 181.152C407.773 200.385 348.382 216.676 282.919 225.446C217.457 234.216 158.368 233.798 115.758 226.047C94.45 222.171 77.2985 216.467 65.5338 209.188C53.7568 201.902 47.4845 193.108 47.6655 183.095C47.8464 173.082 54.4678 162.561 66.566 152.075C78.6514 141.601 96.0928 131.263 117.645 121.645C160.742 102.412 220.133 86.1213 285.596 77.3514C351.058 68.5814 410.147 68.9998 452.757 76.7506C474.065 80.6267 491.217 86.3303 502.981 93.6092C514.758 100.896 521.031 109.689 520.85 119.703Z" stroke="#AF99FF" stroke-width="1.28191"/>
<path opacity="0.846154" d="M525.692 136.746C524.692 146.842 517.311 156.833 504.555 166.264C491.811 175.687 473.811 184.466 451.826 192.131C407.864 207.457 348.118 218.276 283.016 220.933C217.914 223.589 159.835 217.579 118.566 205.731C97.9281 199.806 81.5285 192.43 70.5558 183.975C59.5735 175.513 54.1199 166.046 55.1202 155.95C56.1205 145.855 63.5021 135.864 76.2574 126.433C89.0015 117.009 107.002 108.23 128.986 100.566C172.948 85.2389 232.695 74.4204 297.796 71.7637C362.898 69.1069 420.977 75.1169 462.246 86.9653C482.885 92.8905 499.284 100.266 510.257 108.721C521.239 117.184 526.693 126.651 525.692 136.746Z" stroke="#AF99FF" stroke-width="1.28191"/>
<path opacity="0.871795" d="M528.752 153.865C526.938 163.964 518.853 173.348 505.538 181.654C492.232 189.955 473.81 197.109 451.56 202.762C407.068 214.066 347.42 219.33 283.175 215.854C218.929 212.378 162.302 200.822 122.687 184.967C102.876 177.038 87.3528 168.047 77.2553 158.48C67.1504 148.906 62.5582 138.837 64.3718 128.737C66.1853 118.637 74.2704 109.254 87.586 100.948C100.892 92.647 119.314 85.4928 141.564 79.8397C186.056 68.5354 245.703 63.2714 309.949 66.7477C374.194 70.224 430.821 81.7795 470.437 97.6348C490.248 105.564 505.771 114.555 515.868 124.122C525.973 133.696 530.565 143.765 528.752 153.865Z" stroke="#AF99FF" stroke-width="1.28191"/>
<path opacity="0.897436" d="M530.034 170.883C527.42 180.909 518.694 189.612 504.919 196.732C491.152 203.847 472.448 209.322 450.103 212.921C405.418 220.117 346.324 219.787 283.424 210.204C220.523 200.622 165.778 183.609 128.118 163.868C109.285 153.996 94.7558 143.458 85.61 132.852C76.4586 122.24 72.7641 111.644 75.3782 101.619C77.9923 91.5931 86.7187 82.89 100.493 75.7705C114.26 68.6553 132.964 63.1802 155.31 59.5815C199.994 52.3851 259.088 52.7152 321.989 62.2977C384.889 71.8803 439.634 88.893 477.294 108.634C496.128 118.506 510.657 129.044 519.802 139.65C528.954 150.262 532.648 160.858 530.034 170.883Z" stroke="#AF99FF" stroke-width="1.28191"/>
<path opacity="0.923077" d="M529.595 187.641C526.2 197.514 516.899 205.47 502.769 211.349C488.647 217.225 469.803 220.979 447.532 222.496C402.995 225.531 344.903 219.609 283.826 203.994C222.748 188.378 170.303 166.038 134.883 142.561C117.171 130.821 103.746 118.816 95.6214 107.253C87.4924 95.6826 84.7248 84.6415 88.1203 74.7681C91.5157 64.8947 100.816 56.939 114.946 51.06C129.068 45.184 147.912 41.4295 170.184 39.9122C214.72 36.8779 272.812 42.7993 333.89 58.415C394.967 74.0307 447.413 96.3707 482.832 119.847C500.545 131.588 513.969 143.592 522.094 155.156C530.223 166.726 532.99 177.767 529.595 187.641Z" stroke="#AF99FF" stroke-width="1.28191"/>
<path opacity="0.948718" d="M527.478 203.964C523.327 213.608 513.524 220.755 499.147 225.35C484.776 229.942 465.935 231.947 443.907 231.372C399.856 230.221 343.208 218.754 284.418 197.224C225.629 175.694 175.881 148.197 142.971 121.164C126.514 107.645 114.296 94.2649 107.254 81.8307C100.208 69.3909 98.3899 57.9882 102.541 48.3441C106.692 38.6999 116.495 31.5531 130.872 26.9587C145.243 22.3664 164.084 20.3608 186.113 20.9362C230.163 22.0869 286.811 33.5542 345.601 55.0841C404.39 76.6139 454.139 104.111 487.048 131.145C503.505 144.663 515.723 158.043 522.766 170.478C529.811 182.917 531.629 194.32 527.478 203.964Z" stroke="#AF99FF" stroke-width="1.28191"/>
<path opacity="0.974359" d="M523.743 219.696C518.868 229.035 508.639 235.319 494.122 238.594C479.612 241.868 460.918 242.109 439.3 239.446C396.07 234.119 341.296 217.193 285.241 189.913C229.187 162.633 182.514 130.188 152.364 99.8029C137.287 84.6083 126.368 69.9548 120.462 56.7448C114.553 43.5294 113.699 31.8523 118.574 22.5128C123.449 13.1732 133.679 6.89001 148.195 3.61486C162.706 0.341066 181.4 0.0994088 203.018 2.76313C246.247 8.08979 301.021 25.0157 357.076 52.2958C413.131 79.5758 459.804 112.021 489.953 142.406C505.03 157.6 515.949 172.254 521.856 185.464C527.764 198.679 528.618 210.356 523.743 219.696Z" stroke="#AF99FF" stroke-width="1.28191"/>
<path d="M518.47 234.68C512.909 243.642 502.332 249.013 487.786 250.944C473.247 252.875 454.841 251.351 433.797 246.619C391.717 237.157 339.234 214.901 286.34 182.078C233.446 149.256 190.203 112.109 163.043 78.6043C149.461 61.8493 139.923 46.0335 135.198 32.148C130.471 18.257 130.588 6.39515 136.149 -2.56693C141.711 -11.529 152.287 -16.9005 166.833 -18.8317C181.373 -20.7623 199.779 -19.2382 220.822 -14.5064C262.902 -5.04441 315.386 17.2113 368.279 50.0341C421.173 82.857 464.416 120.003 491.577 153.508C505.159 170.263 514.696 186.079 519.422 199.965C524.149 213.856 524.031 225.717 518.47 234.68Z" stroke="#AF99FF" stroke-width="1.28191"/>
</g>
</g>
<defs>
<clipPath id="clip0_4490_58494">
<rect width="495" height="341" fill="white"/>
</clipPath>
</defs>
</svg>
