<svg width="36" height="36" viewBox="0 0 36 36" fill="none" xmlns="http://www.w3.org/2000/svg">
<rect width="36" height="36" rx="6" fill="#EBF7FD"/>
<path d="M16.1304 18.588C16.1304 18.804 16.0544 18.984 15.9024 19.128C15.7584 19.272 15.5784 19.344 15.3624 19.344H15.0144V20.232C15.0144 20.464 14.9304 20.664 14.7624 20.832C14.6024 21 14.4064 21.084 14.1744 21.084C13.9344 21.084 13.7304 21 13.5624 20.832C13.3944 20.664 13.3104 20.464 13.3104 20.232V19.344H10.3344C10.0784 19.344 9.85842 19.252 9.67442 19.068C9.49042 18.884 9.39842 18.664 9.39842 18.408C9.39842 18.24 9.44642 18.072 9.54242 17.904L12.2784 13.608C12.5824 13.144 13.0024 12.912 13.5384 12.912C13.9464 12.912 14.2944 13.06 14.5824 13.356C14.8704 13.644 15.0144 13.992 15.0144 14.4V17.844H15.3504C15.5664 17.844 15.7504 17.916 15.9024 18.06C16.0544 18.204 16.1304 18.38 16.1304 18.588ZM11.1504 17.844H13.3104V14.508L11.1504 17.844ZM17.0986 18.552C16.9706 18.424 16.9066 18.272 16.9066 18.096C16.9066 17.92 16.9706 17.768 17.0986 17.64C17.2266 17.512 17.3786 17.448 17.5546 17.448H19.3306C19.5066 17.448 19.6586 17.512 19.7866 17.64C19.9146 17.768 19.9786 17.92 19.9786 18.096C19.9786 18.272 19.9146 18.424 19.7866 18.552C19.6586 18.68 19.5066 18.744 19.3306 18.744H17.5546C17.3786 18.744 17.2266 18.68 17.0986 18.552ZM22.6762 16.872C21.6202 16.504 21.0922 15.876 21.0922 14.988C21.0922 14.316 21.3922 13.796 21.9922 13.428C22.6002 13.06 23.3282 12.876 24.1762 12.876C25.0242 12.876 25.7482 13.06 26.3482 13.428C26.9562 13.796 27.2602 14.316 27.2602 14.988C27.2602 15.876 26.7282 16.504 25.6642 16.872C26.1762 17.048 26.5922 17.32 26.9122 17.688C27.2322 18.056 27.3922 18.468 27.3922 18.924C27.3922 19.62 27.0842 20.164 26.4682 20.556C25.8522 20.948 25.0882 21.144 24.1762 21.144C23.2642 21.144 22.5002 20.948 21.8842 20.556C21.2682 20.164 20.9602 19.62 20.9602 18.924C20.9602 18.468 21.1162 18.056 21.4282 17.688C21.7482 17.32 22.1642 17.048 22.6762 16.872ZM25.1482 14.592C24.9082 14.424 24.5842 14.34 24.1762 14.34C23.7682 14.34 23.4402 14.424 23.1922 14.592C22.9442 14.752 22.8202 14.972 22.8202 15.252C22.8202 15.532 22.9642 15.752 23.2522 15.912C23.5482 16.072 23.8562 16.176 24.1762 16.224C24.5042 16.176 24.8082 16.072 25.0882 15.912C25.3762 15.752 25.5202 15.532 25.5202 15.252C25.5202 14.972 25.3962 14.752 25.1482 14.592ZM24.1762 17.628C23.8402 17.66 23.5082 17.776 23.1802 17.976C22.8522 18.16 22.6882 18.408 22.6882 18.72C22.6882 19.008 22.8282 19.24 23.1082 19.416C23.3882 19.592 23.7442 19.68 24.1762 19.68C24.6002 19.68 24.9522 19.592 25.2322 19.416C25.5202 19.232 25.6642 19 25.6642 18.72C25.6642 18.408 25.5002 18.16 25.1722 17.976C24.8442 17.776 24.5122 17.66 24.1762 17.628Z" fill="#25A5E6"/>
</svg>
