<svg width="36" height="36" viewBox="0 0 36 36" fill="none" xmlns="http://www.w3.org/2000/svg">
<rect width="36" height="36" rx="6" fill="#F8F0F9"/>
<path d="M7.0845 19.028C7.0845 18.828 7.1565 18.656 7.3005 18.512C7.4445 18.368 7.6165 18.296 7.8165 18.296C7.9605 18.296 8.0725 18.324 8.1525 18.38C8.4725 18.556 8.8445 18.644 9.2685 18.644C9.8685 18.644 10.3525 18.42 10.7205 17.972C11.0885 17.524 11.2725 16.98 11.2725 16.34V16.172C11.0565 16.468 10.7565 16.716 10.3725 16.916C9.9965 17.108 9.6085 17.204 9.2085 17.204C8.4325 17.204 7.7805 16.972 7.2525 16.508C6.7325 16.044 6.4725 15.412 6.4725 14.612C6.4725 13.828 6.7605 13.176 7.3365 12.656C7.9125 12.128 8.6485 11.864 9.5445 11.864C10.6725 11.864 11.5285 12.248 12.1125 13.016C12.6965 13.776 12.9885 14.772 12.9885 16.004C12.9885 17.244 12.6565 18.244 11.9925 19.004C11.3285 19.756 10.4205 20.132 9.2685 20.132C8.6285 20.132 8.0365 19.98 7.4925 19.676C7.2205 19.524 7.0845 19.308 7.0845 19.028ZM9.6165 13.34C9.2005 13.34 8.8605 13.464 8.5965 13.712C8.3405 13.952 8.2125 14.228 8.2125 14.54C8.2125 14.932 8.3485 15.236 8.6205 15.452C8.9005 15.66 9.2565 15.764 9.6885 15.764C10.3285 15.764 10.8525 15.516 11.2605 15.02C11.2125 14.532 11.0485 14.132 10.7685 13.82C10.4965 13.5 10.1125 13.34 9.6165 13.34ZM14.1693 17.552C14.0413 17.424 13.9773 17.272 13.9773 17.096C13.9773 16.92 14.0413 16.768 14.1693 16.64C14.2973 16.512 14.4493 16.448 14.6253 16.448H16.4013C16.5773 16.448 16.7293 16.512 16.8573 16.64C16.9853 16.768 17.0493 16.92 17.0493 17.096C17.0493 17.272 16.9853 17.424 16.8573 17.552C16.7293 17.68 16.5773 17.744 16.4013 17.744H14.6253C14.4493 17.744 14.2973 17.68 14.1693 17.552ZM20.0109 19.232V14.192L19.1349 15.092C18.9909 15.236 18.8229 15.308 18.6309 15.308C18.4309 15.308 18.2629 15.24 18.1269 15.104C17.9909 14.96 17.9229 14.792 17.9229 14.6C17.9229 14.424 17.9909 14.256 18.1269 14.096L20.0229 12.2C20.2149 12.008 20.4509 11.912 20.7309 11.912C21.0029 11.912 21.2349 12.008 21.4269 12.2C21.6189 12.392 21.7149 12.624 21.7149 12.896V19.232C21.7149 19.464 21.6309 19.664 21.4629 19.832C21.2949 20 21.0949 20.084 20.8629 20.084C20.6229 20.084 20.4189 20 20.2509 19.832C20.0909 19.664 20.0109 19.464 20.0109 19.232ZM23.1694 19.112C23.1694 18.808 23.2934 18.572 23.5414 18.404C24.6054 17.628 25.4174 17.012 25.9774 16.556C26.5214 16.108 26.9094 15.724 27.1414 15.404C27.3734 15.076 27.4894 14.752 27.4894 14.432C27.4894 14.112 27.3654 13.86 27.1174 13.676C26.8694 13.484 26.5574 13.388 26.1814 13.388C25.5654 13.388 25.0014 13.568 24.4894 13.928C24.3534 14.016 24.2134 14.06 24.0694 14.06C23.8614 14.06 23.6814 13.988 23.5294 13.844C23.3854 13.692 23.3134 13.512 23.3134 13.304C23.3134 13.048 23.4174 12.844 23.6254 12.692C24.3534 12.148 25.1974 11.876 26.1574 11.876C27.0374 11.876 27.7654 12.112 28.3414 12.584C28.9254 13.048 29.2174 13.664 29.2174 14.432C29.2174 15.072 28.9574 15.708 28.4374 16.34C27.9254 16.972 27.0934 17.692 25.9414 18.5H28.6054C28.8134 18.5 28.9894 18.576 29.1334 18.728C29.2854 18.872 29.3614 19.044 29.3614 19.244C29.3614 19.452 29.2854 19.632 29.1334 19.784C28.9894 19.928 28.8134 20 28.6054 20H24.0574C23.8174 20 23.6094 19.916 23.4334 19.748C23.2574 19.572 23.1694 19.36 23.1694 19.112Z" fill="#813589"/>
</svg>
