<svg width="36" height="36" viewBox="0 0 36 36" fill="none" xmlns="http://www.w3.org/2000/svg">
<rect width="36" height="36" rx="6" fill="#E3F8E7"/>
<path d="M16.6408 20.256C16.6408 20.48 16.5648 20.676 16.4128 20.844C16.2608 21.004 16.0688 21.084 15.8368 21.084C15.5728 21.084 15.3688 20.996 15.2248 20.82L12.5608 17.82L11.9128 18.54V20.232C11.9128 20.464 11.8288 20.664 11.6608 20.832C11.5008 21 11.3008 21.084 11.0608 21.084C10.8288 21.084 10.6288 21 10.4608 20.832C10.2928 20.664 10.2088 20.464 10.2088 20.232V13.764C10.2088 13.532 10.2928 13.332 10.4608 13.164C10.6288 12.996 10.8288 12.912 11.0608 12.912C11.3008 12.912 11.5008 12.996 11.6608 13.164C11.8288 13.332 11.9128 13.532 11.9128 13.764V16.584L14.9968 13.176C15.1648 13 15.3648 12.912 15.5968 12.912C15.8128 12.912 15.9968 12.992 16.1488 13.152C16.3088 13.304 16.3888 13.488 16.3888 13.704C16.3888 13.92 16.3208 14.096 16.1848 14.232L13.7608 16.8L16.4368 19.728C16.5728 19.888 16.6408 20.064 16.6408 20.256ZM17.204 18.552C17.076 18.424 17.012 18.272 17.012 18.096C17.012 17.92 17.076 17.768 17.204 17.64C17.332 17.512 17.484 17.448 17.66 17.448H19.436C19.612 17.448 19.764 17.512 19.892 17.64C20.02 17.768 20.084 17.92 20.084 18.096C20.084 18.272 20.02 18.424 19.892 18.552C19.764 18.68 19.612 18.744 19.436 18.744H17.66C17.484 18.744 17.332 18.68 17.204 18.552ZM21.2817 20.328C21.0737 20.184 20.9697 19.984 20.9697 19.728C20.9697 19.52 21.0417 19.344 21.1857 19.2C21.3377 19.056 21.5177 18.984 21.7257 18.984C21.8537 18.984 21.9857 19.028 22.1217 19.116C22.6657 19.476 23.2497 19.656 23.8737 19.656C24.3457 19.656 24.7137 19.564 24.9777 19.38C25.2497 19.188 25.3857 18.936 25.3857 18.624C25.3857 18.296 25.2537 18.056 24.9897 17.904C24.7337 17.752 24.3297 17.676 23.7777 17.676H23.4417C23.2337 17.676 23.0577 17.604 22.9137 17.46C22.7697 17.316 22.6977 17.14 22.6977 16.932C22.6977 16.732 22.7697 16.564 22.9137 16.428C23.0577 16.284 23.2297 16.212 23.4297 16.212H23.7777C24.2417 16.212 24.6017 16.136 24.8577 15.984C25.1217 15.832 25.2537 15.612 25.2537 15.324C25.2537 15.02 25.1177 14.784 24.8457 14.616C24.5737 14.448 24.2137 14.364 23.7657 14.364C23.1897 14.364 22.6537 14.532 22.1577 14.868C22.0457 14.948 21.9177 14.988 21.7737 14.988C21.5817 14.988 21.4137 14.92 21.2697 14.784C21.1337 14.64 21.0657 14.472 21.0657 14.28C21.0657 14.056 21.1617 13.868 21.3537 13.716C22.0657 13.156 22.9297 12.876 23.9457 12.876C24.8817 12.876 25.6177 13.072 26.1537 13.464C26.6977 13.856 26.9697 14.384 26.9697 15.048C26.9697 15.536 26.7977 15.94 26.4537 16.26C26.1017 16.588 25.6897 16.792 25.2177 16.872C25.7057 16.928 26.1377 17.128 26.5137 17.472C26.8977 17.816 27.0897 18.256 27.0897 18.792C27.0897 19.48 26.7977 20.044 26.2137 20.484C25.6377 20.924 24.8777 21.144 23.9337 21.144C22.8777 21.144 21.9937 20.872 21.2817 20.328Z" fill="#1AC737"/>
</svg>
