<svg width="48" height="48" viewBox="0 0 48 48" fill="none" xmlns="http://www.w3.org/2000/svg">
<path d="M33.75 39.2985C34.7891 38.8467 35.792 38.316 36.75 37.711V45C36.75 45.3978 36.592 45.7793 36.3107 46.0606C36.0294 46.3419 35.6478 46.5 35.25 46.5C34.8522 46.5 34.4706 46.3419 34.1893 46.0606C33.908 45.7793 33.75 45.3978 33.75 45V39.2985ZM22.6765 17.2941C22.5838 17.4679 22.5263 17.6582 22.5071 17.8543C22.488 18.0503 22.5077 18.2482 22.565 18.4367C22.6224 18.6251 22.7163 18.8004 22.8414 18.9526C22.9665 19.1047 23.1203 19.2307 23.2941 19.3234L32.0626 24L35.25 22.3L24.7059 16.6765C24.5321 16.5837 24.3417 16.5261 24.1457 16.507C23.9496 16.4878 23.7517 16.5075 23.5632 16.5648C23.3748 16.6222 23.1995 16.7161 23.0473 16.8412C22.8952 16.9664 22.7692 17.1202 22.6765 17.2941ZM47.2059 16.6765L24.7059 4.67647C24.4886 4.56061 24.2462 4.5 24 4.5C23.7538 4.5 23.5114 4.56061 23.2941 4.67647L0.794128 16.6765C0.554245 16.8044 0.353641 16.9951 0.213765 17.2282C0.0738884 17.4613 0 17.7281 0 18C0 18.2718 0.0738884 18.5386 0.213765 18.7717C0.353641 19.0048 0.554245 19.1955 0.794128 19.3234L5.25 21.6999V31.0226C5.25077 31.671 5.46083 32.3019 5.84894 32.8213C7.33484 34.7986 13.0349 41.25 24 41.25C27.3509 41.2806 30.6714 40.6129 33.75 39.2895V24.8999L32.0626 24L24 28.3L7.46933 19.4836L7.45862 19.4779L4.6875 18L24 7.69991L43.3125 18L40.5414 19.4779L40.5307 19.4836L35.25 22.3L35.9559 22.6765C36.1944 22.806 36.3939 22.9971 36.5335 23.2299C36.6732 23.4626 36.7479 23.7285 36.75 24V37.7C38.8242 36.4055 40.6528 34.7538 42.1509 32.8215C42.5391 32.302 42.7492 31.6711 42.75 31.0226V21.6999L47.2059 19.3234C47.4458 19.1955 47.6464 19.0048 47.7862 18.7717C47.9261 18.5386 48 18.2718 48 17.9999C48 17.7281 47.9261 17.4613 47.7862 17.2282C47.6464 16.9951 47.4458 16.8044 47.2059 16.6765V16.6765Z" fill="#F8D829"/>
</svg>
