<svg width="90" height="90" viewBox="0 0 90 90" fill="none" xmlns="http://www.w3.org/2000/svg">
<g clip-path="url(#clip0_7146_163023)">
<path d="M88.9747 45.0584C88.9842 51.8784 87.4539 58.6106 84.5003 64.7414C83.6634 66.4905 82.7096 68.1799 81.6456 69.7978C81.2494 70.4106 80.8416 70.9764 80.4105 71.6011C76.2776 77.3164 70.8713 81.966 64.6299 85.1729C58.3885 88.3797 51.4878 90.0534 44.4874 90.0583C43.229 90.0583 41.9822 90.0583 40.7587 89.8933C32.6684 89.2189 24.917 86.3077 18.3519 81.4779C17.8859 81.1244 17.4198 80.7708 16.9654 80.4054C16.511 80.04 15.8002 79.4625 15.2525 78.9675C14.7049 78.4725 14.3786 78.1896 13.9592 77.7888C13.5397 77.3881 12.9687 76.8224 12.491 76.3156C12.0133 75.8088 11.6987 75.4669 11.3258 75.0308C10.9529 74.5947 10.347 73.8522 9.88096 73.3101C9.41488 72.7679 9.15856 72.3907 8.809 71.9193C3.95233 65.3392 0.97753 57.5352 0.209818 49.3603C0.0816464 47.946 0.0117188 46.5081 0.0117188 45.0584C0.0117187 33.1236 4.69878 21.6777 13.0418 13.2385C21.3848 4.79941 32.7003 0.0583496 44.499 0.0583496C56.2978 0.0583496 67.6133 4.79941 75.9563 13.2385C84.2993 21.6777 88.9864 33.1236 88.9864 45.0584H88.9747Z" fill="#FFEFF3"/>
<path d="M5.02135 14.9097C3.74897 14.919 2.53147 15.4352 1.63282 16.3464C0.734183 17.2576 0.226802 18.4903 0.220703 19.7774V71.637C0.22683 72.923 0.734605 74.1545 1.63357 75.0638C2.53254 75.9732 3.75004 76.4868 5.02135 76.493H85.1871C86.4605 76.4868 87.6805 75.974 88.5832 75.0653C89.4858 74.1566 89.9987 72.9251 90.011 71.637V19.7774C89.9988 18.4882 89.4863 17.2554 88.5839 16.3449C87.6815 15.4343 86.4616 14.9189 85.1871 14.9097H5.02135Z" fill="#1FBAF5"/>
<path d="M0.220703 71.6841C0.22683 72.9701 0.734605 74.2016 1.63357 75.111C2.53254 76.0203 3.75004 76.5339 5.02135 76.5401H85.1871C86.4605 76.534 87.6805 76.0211 88.5832 75.1124C89.4858 74.2038 89.9987 72.9723 90.011 71.6841V19.8245C89.9988 18.5353 89.4863 17.3026 88.5839 16.392C87.6815 15.4814 86.4616 14.966 85.1871 14.9568" fill="#0084CC"/>
<path d="M8.22517 21.3921C8.01456 21.3906 7.80569 21.4312 7.61067 21.5116C7.41565 21.5921 7.23831 21.7108 7.08884 21.8609C6.93937 22.011 6.82075 22.1895 6.7398 22.3862C6.65884 22.5829 6.61718 22.7938 6.61719 23.0069V68.4429C6.61718 68.656 6.65884 68.8669 6.7398 69.0636C6.82075 69.2603 6.93937 69.4388 7.08884 69.5889C7.23831 69.739 7.41565 69.8577 7.61067 69.9381C7.80569 70.0186 8.01456 70.0592 8.22517 70.0577H81.9823C82.1929 70.0592 82.4017 70.0186 82.5967 69.9381C82.7918 69.8577 82.9691 69.739 83.1186 69.5889C83.2681 69.4388 83.3867 69.2603 83.4676 69.0636C83.5486 68.8669 83.5903 68.656 83.5903 68.4429V23.0304C83.5903 22.6 83.4229 22.1868 83.1241 21.8802C82.8254 21.5737 82.4194 21.3983 81.9939 21.3921H8.22517Z" fill="#6438FF"/>
<path d="M6.60742 67.3821V68.4429C6.60742 68.6559 6.64908 68.8669 6.73003 69.0636C6.81098 69.2602 6.92961 69.4388 7.07908 69.5889C7.22855 69.739 7.40592 69.8577 7.60094 69.9381C7.79596 70.0186 8.00479 70.0592 8.2154 70.0576H81.9725C82.1831 70.0592 82.392 70.0186 82.587 69.9381C82.782 69.8577 82.9594 69.739 83.1088 69.5889C83.2583 69.4388 83.3769 69.2602 83.4579 69.0636C83.5388 68.8669 83.5805 68.6559 83.5805 68.4429V23.0304C83.5805 22.5999 83.4131 22.1868 83.1144 21.8802C82.8157 21.5736 82.4097 21.3983 81.9842 21.3921H75.494" fill="#452DDC"/>
<path d="M26.7306 62.4438C23.5712 62.4407 20.5423 61.1689 18.3094 58.9081C16.0765 56.6472 14.8223 53.5822 14.8223 50.3864V24.0559C14.8223 19.7171 16.5262 15.556 19.5592 12.4881C22.5923 9.4201 26.7059 7.69653 30.9952 7.69653C35.2846 7.69653 39.3982 9.4201 42.4312 12.4881C45.4643 15.556 47.1682 19.7171 47.1682 24.0559V50.3864C47.1697 51.9693 46.8628 53.5369 46.2651 54.9997C45.6673 56.4625 44.7904 57.7918 43.6845 58.9115C42.5785 60.0313 41.2652 60.9197 39.8197 61.5257C38.3741 62.1318 36.8247 62.4438 35.2599 62.4438H26.7306Z" fill="#58595B"/>
<path d="M30.9941 7.69653V64.5535H35.2704C41.8538 64.5535 47.1788 68.6434 47.1788 61.9841V24.0559C47.1788 19.7171 45.4748 15.556 42.4418 12.4881C39.4088 9.4201 35.2951 7.69653 31.0058 7.69653H30.9941Z" fill="#414042"/>
<path d="M27.0785 39.3662L25.7734 43.3971C25.3608 44.6694 24.4806 45.7327 23.3149 46.3673C23.0352 46.5205 24.0955 47.758 23.7926 47.8523L22.8371 48.1941L20.2154 47.4398L16.7781 48.5242C15.9133 48.7979 15.135 49.2971 14.5214 49.9716C13.9077 50.646 13.4805 51.472 13.2825 52.3665L12.1173 69.0441C12.089 69.166 12.0885 69.2928 12.1159 69.415C12.1432 69.5371 12.1977 69.6513 12.2752 69.749C12.3526 69.8467 12.4511 69.9252 12.563 69.9787C12.675 70.0322 12.7975 70.0592 12.9213 70.0577H49.0192C49.1437 70.056 49.2663 70.0259 49.3778 69.9696C49.4893 69.9133 49.5867 69.8323 49.6629 69.7326C49.7391 69.6329 49.792 69.517 49.8177 69.3937C49.8435 69.2704 49.8413 69.1428 49.8115 69.0205L48.4482 51.9422C48.2287 51.0388 47.775 50.2109 47.134 49.5438C46.4929 48.8767 45.6877 48.3946 44.8011 48.147L39.3247 46.6501C38.5233 46.431 37.7866 46.0184 37.1777 45.4476C36.5688 44.8769 36.106 44.1652 35.8291 43.3736L34.4775 39.5548L27.0785 39.3662Z" fill="#FA6C6C"/>
<path d="M48.4504 51.9423C48.2309 51.0388 47.7772 50.211 47.1362 49.5439C46.4951 48.8768 45.6899 48.3947 44.8034 48.1471L41.4709 47.2395L39.0706 48.1942L38.2083 47.6167C37.8355 47.5106 38.5929 46.4381 38.2666 46.2259C37.6145 45.8699 37.043 45.3802 36.5887 44.788C36.1819 44.2444 35.8886 43.6229 35.7265 42.9611L34.4331 35.9836L30.9375 39.4606V70.1049H49.0214C49.146 70.1033 49.2686 70.0732 49.38 70.0169C49.4915 69.9606 49.589 69.8795 49.6651 69.7798C49.7413 69.6801 49.7942 69.5643 49.82 69.441C49.8457 69.3177 49.8435 69.1901 49.8137 69.0677L48.4504 51.9423Z" fill="#E65655"/>
<path d="M41.1665 24.209V29.2536C41.2609 30.6634 41.0679 32.0777 40.5994 33.4089C40.1309 34.7402 39.397 35.9598 38.4432 36.9921C37.4894 38.0245 36.336 38.8476 35.0547 39.4103C33.7733 39.9731 32.3912 40.2634 30.9943 40.2634C29.5974 40.2634 28.2154 39.9731 26.934 39.4103C25.6526 38.8476 24.4992 38.0245 23.5454 36.9921C22.5916 35.9598 21.8577 34.7402 21.3892 33.4089C20.9207 32.0777 20.7277 30.6634 20.8221 29.2536V22.9479C20.8214 22.6293 20.8953 22.315 21.0378 22.0308C21.1804 21.7467 21.3875 21.5008 21.6422 21.3133C21.8969 21.1258 22.192 21.0021 22.5032 20.9523C22.8143 20.9025 23.1327 20.928 23.4322 21.0267C29.153 22.9789 35.131 24.0516 41.1665 24.209Z" fill="#FFE3C7"/>
<path d="M21.4966 49.0781C24.2348 51.8832 28.0684 52.4725 30.8182 52.4725C34.1741 52.5773 37.4383 51.3555 39.9184 49.0663C40.495 48.5089 41.0179 47.8972 41.4798 47.2395L39.3475 46.6501C38.9769 46.5457 38.6177 46.4036 38.2755 46.2258C37.3268 47.2534 36.1683 48.0597 34.8806 48.5889C33.5928 49.1181 32.2066 49.3574 30.8182 49.2903C26.5652 49.2903 24.398 47.6991 23.326 46.3673C23.0514 46.518 22.7625 46.6404 22.4637 46.7326L20.2266 47.4398C20.5919 48.0327 21.0218 48.5822 21.5083 49.0781H21.4966Z" fill="#F6F6F6"/>
<path d="M30.9824 40.2149C32.3627 40.1738 33.7215 39.8573 34.9806 39.2836C36.2398 38.7099 37.3745 37.8903 38.3196 36.8718C39.2648 35.8534 40.0017 34.6561 40.4882 33.3488C40.9747 32.0414 41.2012 30.6498 41.1545 29.2537V24.2091C37.7295 24.1614 34.3179 23.7665 30.9707 23.0305L30.9824 40.2149Z" fill="#FFCC99"/>
<path d="M38.2649 46.2375C37.3376 47.2445 36.2079 48.0389 34.9517 48.5675C33.6956 49.0961 32.3422 49.3465 30.9824 49.302V52.4843C32.6202 52.5535 34.2549 52.2874 35.7886 51.7021C37.3223 51.1168 38.7234 50.2243 39.9078 49.078C40.475 48.5116 40.9971 47.9007 41.4692 47.2512L39.3369 46.6619C38.9663 46.5575 38.6071 46.4153 38.2649 46.2375Z" fill="#DADADA"/>
<path d="M76.6003 51.7065H64.7619C63.6486 51.7065 62.7461 52.6194 62.7461 53.7456V64.7068C62.7461 65.8329 63.6486 66.7458 64.7619 66.7458H76.6003C77.7136 66.7458 78.6161 65.8329 78.6161 64.7068V53.7456C78.6161 52.6194 77.7136 51.7065 76.6003 51.7065Z" fill="#785CFB"/>
<path d="M70.6936 59.7329C72.3667 59.7329 73.7231 58.3609 73.7231 56.6684C73.7231 54.976 72.3667 53.604 70.6936 53.604C69.0204 53.604 67.6641 54.976 67.6641 56.6684C67.6641 58.3609 69.0204 59.7329 70.6936 59.7329Z" fill="#FFE3C7"/>
<path d="M70.6934 53.604V59.7447C71.1078 59.7707 71.5231 59.7105 71.9136 59.568C72.3042 59.4254 72.6618 59.2035 72.9644 58.9159C73.2669 58.6282 73.508 58.2809 73.6729 57.8954C73.8377 57.5099 73.9227 57.0944 73.9227 56.6744C73.9227 56.2544 73.8377 55.8388 73.6729 55.4533C73.508 55.0678 73.2669 54.7205 72.9644 54.4329C72.6618 54.1452 72.3042 53.9233 71.9136 53.7807C71.5231 53.6382 71.1078 53.5781 70.6934 53.604Z" fill="#FFCC99"/>
<path d="M72.661 60.2163H68.6877C68.2868 60.2179 67.8901 60.2993 67.5203 60.4559C67.1505 60.6125 66.8148 60.8412 66.5324 61.1291C66.25 61.4169 66.0264 61.7582 65.8744 62.1335C65.7224 62.5087 65.645 62.9106 65.6465 63.3161V64.0115C65.6465 64.2272 65.7312 64.434 65.882 64.5865C66.0328 64.7391 66.2372 64.8247 66.4505 64.8247H74.9215C75.1347 64.8247 75.3392 64.7391 75.49 64.5865C75.6407 64.434 75.7255 64.2272 75.7255 64.0115V63.3161C75.7255 62.494 75.4026 61.7055 74.8279 61.1242C74.2532 60.5429 73.4737 60.2163 72.661 60.2163Z" fill="#0EEBF5"/>
<path d="M72.6625 60.2163H70.6934V64.8247H74.923C75.1363 64.8247 75.3407 64.7391 75.4915 64.5865C75.6423 64.434 75.727 64.2272 75.727 64.0115V63.3161C75.727 62.494 75.4041 61.7055 74.8294 61.1242C74.2547 60.5429 73.4753 60.2163 72.6625 60.2163Z" fill="#0DD8E1"/>
<path d="M69.8533 24.5744C69.3812 24.5251 68.9064 24.5055 68.4318 24.5155C65.0281 24.7769 61.8594 26.371 59.5996 28.9589V39.1658L60.2405 39.2365C60.9846 39.2479 61.7182 39.4163 62.3944 39.7309C63.0705 40.0454 63.6743 40.4993 64.1672 41.0634C64.4302 41.4651 64.6093 41.917 64.6935 42.3913C64.7776 42.8655 64.7651 43.3522 64.6566 43.8214C64.5843 44.1103 64.5703 44.411 64.6155 44.7054C64.6608 44.9999 64.7643 45.2821 64.9198 45.5352C65.0754 45.7883 65.2798 46.007 65.5209 46.1783C65.7619 46.3496 66.0347 46.47 66.3228 46.5322C67.0105 46.6631 67.7087 46.7302 68.4085 46.7326C68.8918 46.7266 69.3743 46.6912 69.8533 46.6265C72.4994 46.2762 74.928 44.9608 76.683 42.9273C78.438 40.8938 79.3987 38.2821 79.3847 35.5828C79.3431 32.9067 78.3613 30.333 76.6149 28.3224C74.8685 26.3119 72.4716 24.9958 69.8533 24.6098V24.5744Z" fill="#FABE2C"/>
<path d="M79.3848 35.5475C79.3433 32.8714 78.3614 30.2977 76.615 28.2871C74.8686 26.2766 72.4717 24.9605 69.8535 24.5745V46.5912C72.4996 46.2409 74.9281 44.9255 76.6832 42.892C78.4382 40.8585 79.3989 38.2468 79.3848 35.5475Z" fill="#FF9100"/>
<path d="M70.9709 33.0253C70.6648 32.7153 70.4564 32.3205 70.372 31.8907C70.2877 31.4609 70.3312 31.0155 70.497 30.6108C70.6629 30.206 70.9437 29.8601 71.3039 29.6167C71.6641 29.3733 72.0875 29.2434 72.5207 29.2434C72.9538 29.2434 73.3773 29.3733 73.7375 29.6167C74.0977 29.8601 74.3784 30.206 74.5443 30.6108C74.7102 31.0155 74.7536 31.4609 74.6693 31.8907C74.5849 32.3205 74.3765 32.7153 74.0704 33.0253C73.658 33.4384 73.1011 33.6702 72.5207 33.6702C71.9403 33.6702 71.3833 33.4384 70.9709 33.0253Z" fill="#00ECCE"/>
<path d="M72.5232 33.6736C71.9428 33.6702 71.3867 33.4376 70.9735 33.0253C70.565 32.6082 70.3359 32.0449 70.3359 31.4578C70.3359 30.8707 70.565 30.3073 70.9735 29.8902C71.1767 29.684 71.4182 29.5205 71.6842 29.4092C71.9502 29.298 72.2354 29.2411 72.5232 29.242" fill="#00FFDF"/>
<path d="M64.6922 29.8547C64.7063 29.4168 64.8483 28.9929 65.1005 28.6366C65.3526 28.2804 65.7035 28.0077 66.1089 27.8532C66.5142 27.6986 66.9557 27.669 67.3776 27.7682C67.7995 27.8674 68.1829 28.0909 68.4792 28.4105C68.7756 28.73 68.9717 29.1313 69.0426 29.5635C69.1136 29.9957 69.0563 30.4395 68.8779 30.8388C68.6996 31.2381 68.4082 31.575 68.0406 31.8068C67.6731 32.0386 67.2458 32.155 66.8129 32.1412C66.2329 32.1197 65.6847 31.8674 65.2875 31.4392C64.8904 31.0111 64.6765 30.4416 64.6922 29.8547Z" fill="#474F54"/>
<path d="M62.1871 36.2429C61.7683 36.1301 61.392 35.8941 61.1059 35.5648C60.8198 35.2356 60.6366 34.8279 60.5796 34.3933C60.5226 33.9587 60.5943 33.5168 60.7856 33.1235C60.977 32.7302 61.2794 32.4031 61.6545 32.1836C62.0297 31.9642 62.4608 31.8622 62.8933 31.8907C63.3257 31.9191 63.7402 32.0767 64.0841 32.3434C64.428 32.6102 64.686 32.9741 64.8253 33.3892C64.9647 33.8043 64.9792 34.2519 64.8671 34.6753C64.7168 35.2425 64.3502 35.7261 63.8477 36.02C63.3452 36.3139 62.748 36.3941 62.1871 36.2429Z" fill="#FF435B"/>
<path d="M73.4664 39.2954C73.0476 39.1825 72.6714 38.9465 72.3852 38.6173C72.0991 38.2881 71.9159 37.8803 71.8589 37.4458C71.8019 37.0112 71.8736 36.5693 72.0649 36.176C72.2563 35.7826 72.5587 35.4555 72.9338 35.2361C73.309 35.0166 73.7401 34.9147 74.1726 34.9431C74.6051 34.9716 75.0195 35.1292 75.3634 35.3959C75.7073 35.6627 75.9653 36.0266 76.1046 36.4417C76.244 36.8568 76.2585 37.3044 76.1463 37.7278C75.9961 38.2949 75.6295 38.7786 75.127 39.0725C74.6245 39.3664 74.0273 39.4466 73.4664 39.2954Z" fill="#99341F"/>
<path d="M58.9015 23.0305C57.0955 23.0305 56.7109 29.9019 56.7109 35.63C56.7109 35.8893 56.7109 36.1251 56.7109 36.3726L58.249 37.1033H59.9269L61.0921 36.3726V35.63C61.0921 29.9019 60.7076 23.0305 58.9015 23.0305Z" fill="#CC5F29"/>
<path d="M61.0929 36.3726V35.63C61.0929 29.9019 60.7084 23.0305 58.9023 23.0305V37.1033H59.9394L61.0929 36.3726Z" fill="#BA3F26"/>
<path d="M58.9015 36.3726H56.7109C56.7109 39.6374 56.9207 41.7825 56.9323 41.971H60.859C60.859 41.6175 61.0571 39.7788 61.0804 36.3726H58.9015Z" fill="#FFF7E6"/>
<path d="M61.0929 36.3726H58.9023V41.971H60.8715C60.8832 41.6175 61.0696 39.7788 61.0929 36.3726Z" fill="#FFCCB3"/>
<path d="M58.9004 40.8042C58.1279 40.8042 57.3869 41.1146 56.8406 41.6672C56.2943 42.2198 55.9874 42.9693 55.9874 43.7508V45.2241C55.9757 45.6267 55.8124 46.0095 55.5308 46.2944C55.2492 46.5792 54.8707 46.7444 54.4727 46.7563V48.2296H57.4439C57.9413 48.2248 58.434 48.1331 58.9004 47.9585C59.7553 47.6446 60.4943 47.0727 61.0173 46.3201C61.5404 45.5676 61.8224 44.6707 61.8251 43.7508C61.822 42.9682 61.5125 42.2188 60.9644 41.6665C60.4162 41.1143 59.6741 40.8042 58.9004 40.8042Z" fill="#DADADA"/>
<path d="M61.827 43.7508C61.8239 42.9682 61.5144 42.2188 60.9663 41.6665C60.4181 41.1143 59.676 40.8042 58.9023 40.8042V47.9585C59.7572 47.6446 60.4962 47.0727 61.0192 46.3201C61.5423 45.5676 61.8243 44.6707 61.827 43.7508Z" fill="#B2B2B2"/>
<path d="M69.8546 43.7507C71.0645 43.7507 72.0452 42.7587 72.0452 41.5349C72.0452 40.3111 71.0645 39.3191 69.8546 39.3191C68.6448 39.3191 67.6641 40.3111 67.6641 41.5349C67.6641 42.7587 68.6448 43.7507 69.8546 43.7507Z" fill="white"/>
<path d="M72.0441 41.5232C72.0441 40.9355 71.8133 40.3719 71.4025 39.9564C70.9917 39.5408 70.4345 39.3074 69.8535 39.3074V43.739C70.4345 43.739 70.9917 43.5056 71.4025 43.09C71.8133 42.6745 72.0441 42.1109 72.0441 41.5232Z" fill="#FFE6CC"/>
<path d="M66.8132 32.0941C66.5255 32.0849 66.2424 32.0185 65.98 31.8986C65.7177 31.7788 65.4813 31.6078 65.2844 31.3954C65.0874 31.183 64.9338 30.9335 64.8322 30.661C64.7307 30.3886 64.6832 30.0986 64.6926 29.8075C64.7138 29.2208 64.9633 28.6663 65.3866 28.2646C65.8099 27.8629 66.3728 27.6465 66.953 27.6624" fill="#575756"/>
</g>
<defs>
<clipPath id="clip0_7146_163023">
<rect width="90" height="90" fill="white"/>
</clipPath>
</defs>
</svg>
