<svg width="95" height="90" viewBox="0 0 95 90" fill="none" xmlns="http://www.w3.org/2000/svg">
<path d="M47.5 90C72.3528 90 92.5 69.8528 92.5 45C92.5 20.1472 72.3528 0 47.5 0C22.6472 0 2.5 20.1472 2.5 45C2.5 69.8528 22.6472 90 47.5 90Z" fill="#FFEFF3"/>
<path d="M92.9906 22.313H49.0426V39.3662C49.0395 39.6091 48.9409 39.841 48.768 40.0116C48.5952 40.1823 48.3621 40.2779 48.1192 40.2779H42.1465V56.7818C42.1495 57.1095 42.2811 57.4228 42.5127 57.6545C42.7444 57.8862 43.0578 58.0177 43.3854 58.0208H92.9906C93.3183 58.0177 93.6316 57.8862 93.8633 57.6545C94.095 57.4228 94.2266 57.1095 94.2296 56.7818V23.5519C94.2266 23.2243 94.095 22.9109 93.8633 22.6792C93.6316 22.4475 93.3183 22.316 92.9906 22.313Z" fill="#91E0E8"/>
<path d="M45.7932 56.7816V40.231H42.1465V56.7816C42.1495 57.1092 42.2811 57.4226 42.5127 57.6543C42.7444 57.886 43.0578 58.0175 43.3854 58.0206H47.0322C46.7045 58.0175 46.3912 57.886 46.1595 57.6543C45.9278 57.4226 45.7963 57.1092 45.7932 56.7816Z" fill="#5DC1D8"/>
<path d="M82.3309 41.7041C82.2371 41.5805 82.1161 41.4804 81.9772 41.4115C81.8383 41.3425 81.6853 41.3066 81.5303 41.3066C81.3752 41.3066 81.2222 41.3425 81.0833 41.4115C80.9444 41.4804 80.8234 41.5805 80.7296 41.7041L74.2893 49.3482C74.1956 49.4717 74.0745 49.5719 73.9356 49.6408C73.7967 49.7098 73.6438 49.7456 73.4887 49.7456C73.3336 49.7456 73.1807 49.7098 73.0418 49.6408C72.9029 49.5719 72.7818 49.4717 72.688 49.3482L60.5205 34.9132C60.4241 34.7936 60.3022 34.6972 60.1636 34.6309C60.0251 34.5647 59.8734 34.5303 59.7198 34.5303C59.5663 34.5303 59.4146 34.5647 59.2761 34.6309C59.1376 34.6972 59.0156 34.7936 58.9192 34.9132L42.1465 54.7833V56.7235C42.1495 57.0512 42.2811 57.3646 42.5127 57.5962C42.7444 57.8279 43.0578 57.9595 43.3854 57.9625H92.9906C93.3183 57.9595 93.6316 57.8279 93.8633 57.5962C94.095 57.3646 94.2266 57.0512 94.2296 56.7235V55.7768L82.3309 41.7041Z" fill="#0F9390"/>
<path d="M85.5348 36.1987C88.104 36.1987 90.1867 34.1159 90.1867 31.5467C90.1867 28.9775 88.104 26.8948 85.5348 26.8948C82.9656 26.8948 80.8828 28.9775 80.8828 31.5467C80.8828 34.1159 82.9656 36.1987 85.5348 36.1987Z" fill="white"/>
<path d="M83.4542 31.5352C83.4593 30.5276 83.7897 29.5486 84.3963 28.744C85.0029 27.9395 85.8531 27.3524 86.8204 27.0703C86.1214 26.8564 85.382 26.8095 84.6615 26.9331C83.9411 27.0568 83.2597 27.3477 82.6721 27.7825C82.0844 28.2173 81.6068 28.7837 81.2778 29.4365C80.9487 30.0892 80.7773 30.81 80.7773 31.541C80.7773 32.272 80.9487 32.9928 81.2778 33.6456C81.6068 34.2983 82.0844 34.8648 82.6721 35.2996C83.2597 35.7343 83.9411 36.0253 84.6615 36.1489C85.382 36.2726 86.1214 36.2257 86.8204 36.0118C85.8512 35.7291 84.9995 35.1403 84.3928 34.3334C83.786 33.5265 83.4568 32.5448 83.4542 31.5352Z" fill="#EBF5FF"/>
<path d="M49.2179 39.4947C49.2195 39.6154 49.1971 39.7352 49.1519 39.8471C49.1068 39.9591 49.0399 40.061 48.9551 40.1469C48.8703 40.2328 48.7692 40.301 48.6578 40.3476C48.5464 40.3941 48.427 40.418 48.3063 40.418H1.08546C0.840566 40.418 0.605725 40.3208 0.432559 40.1476C0.259392 39.9744 0.162109 39.7396 0.162109 39.4947V3.48298C0.165184 3.24012 0.26379 3.00825 0.436625 2.8376C0.609459 2.66695 0.842577 2.57127 1.08546 2.57129H48.3063C48.5481 2.57129 48.7799 2.66735 48.9509 2.83832C49.1219 3.0093 49.2179 3.24119 49.2179 3.48298V39.4947Z" fill="#AF31AD"/>
<path d="M15.3223 12.4831C15.3223 11.4779 16.0352 11.0571 16.9119 11.5714L32.4807 20.548C32.6719 20.6137 32.8377 20.7374 32.9552 20.9019C33.0726 21.0664 33.1357 21.2634 33.1357 21.4655C33.1357 21.6677 33.0726 21.8647 32.9552 22.0292C32.8377 22.1937 32.6719 22.3174 32.4807 22.3831L16.9119 31.3714C16.0352 31.874 15.3223 31.4649 15.3223 30.4597V12.4831Z" fill="white"/>
<path d="M18.969 12.7754L16.9119 11.6065C16.0352 11.0923 15.3223 11.513 15.3223 12.5182V30.4832C15.3223 31.4884 16.0352 31.8974 16.9119 31.3948L18.969 30.226V12.7754Z" fill="#EBF5FF"/>
<path d="M46.366 9.64282C46.366 9.78851 46.3081 9.92825 46.2051 10.0313C46.1021 10.1343 45.9624 10.1922 45.8167 10.1922H41.9595C41.8138 10.1922 41.6741 10.1343 41.571 10.0313C41.468 9.92825 41.4102 9.78851 41.4102 9.64282V5.78567C41.4102 5.63997 41.468 5.50025 41.571 5.39723C41.6741 5.2942 41.8138 5.23633 41.9595 5.23633H45.8167C45.9624 5.23633 46.1021 5.2942 46.2051 5.39723C46.3081 5.50025 46.366 5.63997 46.366 5.78567V9.64282Z" fill="#852583"/>
<path d="M46.366 16.5273C46.366 16.6741 46.3085 16.8151 46.2058 16.92C46.1031 17.0249 45.9634 17.0853 45.8167 17.0884H41.9595C41.8128 17.0853 41.673 17.0249 41.5703 16.92C41.4676 16.8151 41.4101 16.6741 41.4102 16.5273V12.6702C41.4131 12.5254 41.472 12.3874 41.5744 12.2851C41.6768 12.1827 41.8148 12.1238 41.9595 12.1208H45.8167C45.9614 12.1238 46.0995 12.1827 46.2018 12.2851C46.3042 12.3874 46.363 12.5254 46.366 12.6702V16.5273Z" fill="#852583"/>
<path d="M46.366 23.4233C46.366 23.569 46.3081 23.7088 46.2051 23.8118C46.1021 23.9148 45.9624 23.9727 45.8167 23.9727H41.9595C41.8138 23.9727 41.6741 23.9148 41.571 23.8118C41.468 23.7088 41.4102 23.569 41.4102 23.4233V19.5662C41.4102 19.4205 41.468 19.2808 41.571 19.1778C41.6741 19.0747 41.8138 19.0168 41.9595 19.0168H45.8167C45.9624 19.0168 46.1021 19.0747 46.2051 19.1778C46.3081 19.2808 46.366 19.4205 46.366 19.5662V23.4233Z" fill="#852583"/>
<path d="M46.366 30.3078C46.366 30.4535 46.3081 30.5932 46.2051 30.6962C46.1021 30.7992 45.9624 30.8571 45.8167 30.8571H41.9595C41.8138 30.8571 41.6741 30.7992 41.571 30.6962C41.468 30.5932 41.4102 30.4535 41.4102 30.3078V26.5091C41.4102 26.3634 41.468 26.2236 41.571 26.1206C41.6741 26.0176 41.8138 25.9597 41.9595 25.9597H45.8167C45.9624 25.9597 46.1021 26.0176 46.2051 26.1206C46.3081 26.2236 46.366 26.3634 46.366 26.5091V30.3662V30.3078Z" fill="#852583"/>
<path d="M46.366 37.2041C46.366 37.3498 46.3081 37.4895 46.2051 37.5925C46.1021 37.6956 45.9624 37.7534 45.8167 37.7534H41.9595C41.8138 37.7534 41.6741 37.6956 41.571 37.5925C41.468 37.4895 41.4102 37.3498 41.4102 37.2041V33.3469C41.4101 33.2001 41.4676 33.0592 41.5703 32.9543C41.673 32.8494 41.8128 32.7889 41.9595 32.7859H45.8167C45.9634 32.7889 46.1031 32.8494 46.2058 32.9543C46.3085 33.0592 46.366 33.2001 46.366 33.3469V37.2041Z" fill="#852583"/>
<path d="M7.98122 9.64282C7.97817 9.78958 7.91768 9.92929 7.81279 10.032C7.7079 10.1347 7.56693 10.1922 7.42014 10.1922H3.57471C3.42995 10.1892 3.29193 10.1303 3.18954 10.028C3.08716 9.92558 3.02838 9.78758 3.02539 9.64282V5.78567C3.02838 5.64091 3.08716 5.50291 3.18954 5.40053C3.29193 5.29814 3.42995 5.23931 3.57471 5.23633H7.43184C7.57863 5.2363 7.7196 5.29379 7.82449 5.39649C7.92938 5.4992 7.98987 5.63891 7.99292 5.78567L7.98122 9.64282Z" fill="#852583"/>
<path d="M7.98122 16.5273C7.97824 16.6752 7.91815 16.8162 7.81358 16.9208C7.709 17.0253 7.568 17.0854 7.42014 17.0884H3.57471C3.42795 17.0853 3.28825 17.0249 3.18555 16.92C3.08285 16.8151 3.02536 16.6741 3.02539 16.5273V12.6702C3.02838 12.5254 3.08716 12.3874 3.18954 12.2851C3.29193 12.1827 3.42995 12.1238 3.57471 12.1208H7.43184C7.57863 12.1208 7.7196 12.1783 7.82449 12.281C7.92938 12.3837 7.98987 12.5234 7.99292 12.6702L7.98122 16.5273Z" fill="#852583"/>
<path d="M7.98122 23.4233C7.97817 23.5701 7.91768 23.7098 7.81279 23.8125C7.7079 23.9152 7.56693 23.9727 7.42014 23.9727H3.57471C3.42995 23.9697 3.29193 23.9109 3.18954 23.8085C3.08716 23.7061 3.02838 23.5681 3.02539 23.4233V19.5662C3.02838 19.4214 3.08716 19.2834 3.18954 19.1811C3.29193 19.0787 3.42995 19.0198 3.57471 19.0168H7.43184C7.57863 19.0168 7.7196 19.0743 7.82449 19.177C7.92938 19.2797 7.98987 19.4194 7.99292 19.5662L7.98122 23.4233Z" fill="#852583"/>
<path d="M7.98122 30.3078C7.97817 30.4545 7.91768 30.5942 7.81279 30.6969C7.7079 30.7996 7.56693 30.8572 7.42014 30.8571H3.57471C3.42995 30.8541 3.29193 30.7953 3.18954 30.6929C3.08716 30.5905 3.02838 30.4525 3.02539 30.3078V26.5091C3.02838 26.3643 3.08716 26.2263 3.18954 26.1239C3.29193 26.0215 3.42995 25.9627 3.57471 25.9597H7.43184C7.57863 25.9597 7.7196 26.0172 7.82449 26.1199C7.92938 26.2226 7.98987 26.3623 7.99292 26.5091L7.98122 30.3078Z" fill="#852583"/>
<path d="M7.98122 37.2041C7.97817 37.3508 7.91768 37.4906 7.81279 37.5933C7.7079 37.696 7.56693 37.7535 7.42014 37.7534H3.57471C3.42995 37.7504 3.29193 37.6916 3.18954 37.5892C3.08716 37.4868 3.02838 37.3488 3.02539 37.2041V33.3469C3.02536 33.2001 3.08285 33.0592 3.18555 32.9543C3.28825 32.8494 3.42795 32.7889 3.57471 32.7859H7.43184C7.5797 32.7889 7.7207 32.8489 7.82527 32.9535C7.92985 33.0581 7.98994 33.1991 7.99292 33.3469L7.98122 37.2041Z" fill="#852583"/>
<path d="M37.2484 44.813H5.30421C5.06026 44.816 4.82718 44.9143 4.65466 45.0868C4.48215 45.2593 4.38389 45.4924 4.38086 45.7364V57.9039C5.64957 62.1039 7.52383 66.0966 9.94451 69.7558H21.5276L29.0198 77.2481C29.3821 77.5987 29.6743 77.4818 29.6743 76.9792V69.7558H37.2484C37.4933 69.7558 37.7281 69.6586 37.9013 69.4854C38.0745 69.3122 38.1717 69.0774 38.1717 68.8325V45.7364C38.1717 45.4915 38.0745 45.2566 37.9013 45.0834C37.7281 44.9103 37.4933 44.813 37.2484 44.813Z" fill="#7A54FF"/>
<path d="M8.02761 45.7364C8.03064 45.4924 8.12889 45.2593 8.30141 45.0868C8.47392 44.9143 8.707 44.816 8.95096 44.813H5.30421C5.06026 44.816 4.82718 44.9143 4.65466 45.0868C4.48215 45.2593 4.38389 45.4924 4.38086 45.7364V57.9039C5.28314 60.928 6.50564 63.8471 8.02761 66.6117V45.7364Z" fill="#3D28C2"/>
<path d="M30.3981 53.9416H12.176C11.985 53.9592 11.7924 53.9368 11.6105 53.8758C11.4287 53.8148 11.2615 53.7165 11.1198 53.5873C10.9781 53.458 10.8649 53.3007 10.7874 53.1252C10.71 52.9497 10.6699 52.76 10.6699 52.5682C10.6699 52.3764 10.71 52.1867 10.7874 52.0112C10.8649 51.8357 10.9781 51.6783 11.1198 51.5491C11.2615 51.4198 11.4287 51.3216 11.6105 51.2606C11.7924 51.1996 11.985 51.1772 12.176 51.1948H30.4097C30.6007 51.1772 30.7933 51.1996 30.9752 51.2606C31.157 51.3216 31.3242 51.4198 31.4659 51.5491C31.6076 51.6783 31.7209 51.8357 31.7983 52.0112C31.8758 52.1867 31.9158 52.3764 31.9158 52.5682C31.9158 52.76 31.8758 52.9497 31.7983 53.1252C31.7209 53.3007 31.6076 53.458 31.4659 53.5873C31.3242 53.7165 31.157 53.8148 30.9752 53.8758C30.7933 53.9368 30.6007 53.9592 30.4097 53.9416H30.3981Z" fill="white"/>
<path d="M30.4001 58.7453H12.178C11.8122 58.7453 11.4614 58.6 11.2028 58.3413C10.9441 58.0826 10.7988 57.7318 10.7988 57.366C10.7988 57.0002 10.9441 56.6494 11.2028 56.3908C11.4614 56.1321 11.8122 55.9868 12.178 55.9868H30.4118C30.7776 55.9868 31.1284 56.1321 31.3871 56.3908C31.6457 56.6494 31.7911 57.0002 31.7911 57.366C31.7911 57.7318 31.6457 58.0826 31.3871 58.3413C31.1284 58.6 30.7776 58.7453 30.4118 58.7453H30.4001Z" fill="white"/>
<path d="M21.3162 63.5375H12.176C11.985 63.5551 11.7924 63.5328 11.6105 63.4718C11.4287 63.4108 11.2615 63.3125 11.1198 63.1832C10.9781 63.054 10.8649 62.8966 10.7874 62.7211C10.71 62.5456 10.6699 62.356 10.6699 62.1641C10.6699 61.9723 10.71 61.7826 10.7874 61.6071C10.8649 61.4317 10.9781 61.2743 11.1198 61.145C11.2615 61.0158 11.4287 60.9175 11.6105 60.8565C11.7924 60.7955 11.985 60.7731 12.176 60.7908H21.3279C21.5189 60.7731 21.7115 60.7955 21.8934 60.8565C22.0752 60.9175 22.2423 61.0158 22.3841 61.145C22.5258 61.2743 22.639 61.4317 22.7165 61.6071C22.794 61.7826 22.834 61.9723 22.834 62.1641C22.834 62.356 22.794 62.5456 22.7165 62.7211C22.639 62.8966 22.5258 63.054 22.3841 63.1832C22.2423 63.3125 22.0752 63.4108 21.8934 63.4718C21.7115 63.5328 21.5189 63.5551 21.3279 63.5375H21.3162Z" fill="white"/>
<path d="M71.3675 62.7427H42.4038C42.161 62.7458 41.9291 62.8444 41.7585 63.0172C41.5879 63.1901 41.4922 63.4232 41.4922 63.666V85.5816C41.4922 85.8245 41.5879 86.0576 41.7585 86.2305C41.9291 86.4033 42.161 86.5019 42.4038 86.505H64.9857C67.5319 85.4264 69.9733 84.1157 72.2792 82.5894V63.666C72.2792 63.4232 72.1835 63.1901 72.0128 63.0172C71.8422 62.8444 71.6104 62.7458 71.3675 62.7427Z" fill="#FBAA17"/>
<path d="M45.1371 85.5817V63.6661C45.1371 63.5439 45.1613 63.4228 45.2084 63.31C45.2556 63.1972 45.3247 63.0949 45.4117 63.009C45.4987 62.9231 45.6018 62.8554 45.7152 62.8096C45.8285 62.7639 45.9499 62.7412 46.0721 62.7427H42.4254C42.1825 62.7458 41.9506 62.8445 41.78 63.0173C41.6093 63.1901 41.5137 63.4232 41.5137 63.6661V85.5817C41.5137 85.8246 41.6093 86.0577 41.78 86.2305C41.9506 86.4034 42.1825 86.502 42.4254 86.5051H46.0721C45.9499 86.5066 45.8285 86.4839 45.7152 86.4382C45.6018 86.3925 45.4987 86.3247 45.4117 86.2388C45.3247 86.1529 45.2556 86.0506 45.2084 85.9378C45.1613 85.825 45.1371 85.704 45.1371 85.5817Z" fill="#F68624"/>
<path d="M64.6577 64.9519V76.7688C64.5581 77.6003 64.1333 78.3585 63.4762 78.8776C62.8191 79.3967 61.9832 79.6345 61.1512 79.5389C60.314 79.5451 59.4961 79.2875 58.8136 78.8026C58.4734 78.5834 58.1936 78.2823 57.9998 77.927C57.8061 77.5717 57.7046 77.1735 57.7046 76.7688C57.7046 76.3641 57.8061 75.9659 57.9998 75.6106C58.1936 75.2553 58.4734 74.9543 58.8136 74.7351C59.4961 74.2502 60.314 73.9925 61.1512 73.9987C61.8838 73.9976 62.6029 74.1956 63.2317 74.5714V68.8208L58.8019 70.7143L54.933 72.3857V80.9182C55.0844 81.6239 55.0143 82.3591 54.7323 83.0236C54.4504 83.688 53.9703 84.2492 53.3575 84.6306C52.7447 85.012 52.0291 85.195 51.3085 85.1547C50.5878 85.1143 49.8972 84.8526 49.3309 84.4052C48.7645 83.9577 48.35 83.3464 48.144 82.6547C47.9379 81.9629 47.9503 81.2245 48.1796 80.5401C48.4088 79.8556 48.8436 79.2586 49.4247 78.8305C50.0058 78.4024 50.7049 78.1641 51.4265 78.148C52.1555 78.1467 52.8708 78.3448 53.4953 78.7208V69.1597C53.4953 69.0233 53.5351 68.8897 53.6099 68.7756C53.6846 68.6614 53.7911 68.5715 53.9161 68.5169L63.6057 64.3675C63.7063 64.3133 63.8188 64.2849 63.933 64.2849C64.0473 64.2849 64.1597 64.3133 64.2603 64.3675C64.3542 64.4333 64.4309 64.5208 64.4838 64.6225C64.5367 64.7243 64.5643 64.8373 64.5642 64.9519H64.6577Z" fill="#EBF5FF"/>
<path d="M64.3544 64.3675C64.2538 64.3133 64.1413 64.2849 64.0271 64.2849C63.9128 64.2849 63.8004 64.3133 63.6998 64.3675L58.8492 66.448V70.7143L63.279 68.8208V74.5714C62.6502 74.1956 61.9311 73.9976 61.1985 73.9987C60.3613 73.9925 59.5434 74.2502 58.8609 74.7351C58.5207 74.9543 58.241 75.2553 58.0472 75.6106C57.8535 75.9659 57.752 76.3641 57.752 76.7688C57.752 77.1735 57.8535 77.5717 58.0472 77.927C58.241 78.2823 58.5207 78.5834 58.8609 78.8026C59.5434 79.2875 60.3613 79.5451 61.1985 79.5389C62.0305 79.6345 62.8664 79.3967 63.5235 78.8776C64.1806 78.3585 64.6054 77.6003 64.705 76.7688V64.9519C64.7051 64.8373 64.6775 64.7243 64.6246 64.6225C64.5717 64.5208 64.495 64.4333 64.4011 64.3675H64.3544Z" fill="white"/>
</svg>
