<svg width="90" height="90" viewBox="0 0 90 90" fill="none" xmlns="http://www.w3.org/2000/svg">
<g clip-path="url(#clip0_7146_163159)">
<path d="M89.7641 45.2089C89.7641 54.1504 87.1417 62.891 82.2287 70.3256C77.3157 77.7602 70.3326 83.5547 62.1626 86.9765C53.9925 90.3982 45.0024 91.2935 36.3291 89.5491C27.6558 87.8047 19.6889 83.499 13.4358 77.1764C7.18269 70.8538 2.92422 62.7984 1.19899 54.0287C-0.526234 45.259 0.359225 36.169 3.74338 27.9082C7.12753 19.6474 12.8584 12.5867 20.2113 7.61908C27.5642 2.65146 36.2087 1.52198e-06 45.0519 1.52198e-06C50.924 -0.00153925 56.7389 1.16677 62.1644 3.43819C67.5898 5.7096 72.5194 9.03961 76.6716 13.2379C80.8238 17.4363 84.1172 22.4207 86.3637 27.9064C88.6101 33.3921 89.7656 39.2716 89.7641 45.2089Z" fill="#FFEFF3"/>
<path d="M34.9569 72.7883L35.0218 65.276H21.0923C20.6698 65.2757 20.2522 65.1852 19.8668 65.0102C19.4814 64.8352 19.1369 64.5798 18.8561 64.2607C18.5752 63.9416 18.3643 63.566 18.2371 63.1587C18.11 62.7513 18.0694 62.3214 18.1182 61.8971L18.8428 48.4033H15.328C15.0382 48.4038 14.7529 48.332 14.4971 48.1944C14.2413 48.0567 14.023 47.8574 13.8616 47.6142C13.7001 47.3709 13.6004 47.0912 13.5714 46.7997C13.5423 46.5082 13.5847 46.2139 13.695 45.943L18.7887 33.3787C18.8104 33.2778 18.8104 33.1734 18.7887 33.0725C18.7887 32.9851 18.7887 32.8866 18.7887 32.7992C18.7916 26.009 21.4614 19.4978 26.211 14.6975C30.9607 9.89708 37.4014 7.20044 44.117 7.20044C50.8326 7.20044 57.2733 9.89708 62.0229 14.6975C66.7726 19.4978 69.4424 26.009 69.4452 32.7992C69.4504 37.4937 68.1742 42.0986 65.7574 46.107C63.3256 50.1111 62.2865 54.8219 62.8049 59.4914L64.8922 72.7883" fill="#3D28C2"/>
<path d="M34.9569 72.7883L35.0218 65.276H21.0923C20.6698 65.2757 20.2522 65.1852 19.8668 65.0102C19.4814 64.8352 19.1369 64.5798 18.8561 64.2607C18.5752 63.9416 18.3643 63.566 18.2371 63.1587C18.11 62.7513 18.0694 62.3214 18.1182 61.8971L18.8428 48.4033H15.328C15.0382 48.4038 14.7529 48.332 14.4971 48.1944C14.2413 48.0567 14.023 47.8574 13.8616 47.6142C13.7001 47.3709 13.6004 47.0912 13.5714 46.7997C13.5423 46.5082 13.5847 46.2139 13.695 45.943L18.7887 33.3787C18.8104 33.2778 18.8104 33.1734 18.7887 33.0725C18.7887 32.9851 18.7887 32.8866 18.7887 32.7992C18.7916 26.009 21.4614 19.4978 26.211 14.6975C30.9607 9.89708 37.4014 7.20044 44.117 7.20044V72.8102L34.9569 72.7883Z" fill="#7A54FF"/>
<path d="M50.552 53.6303V47.9879C50.5329 45.8013 51.346 43.6911 52.8232 42.094C54.4311 40.3714 55.505 38.2104 55.9121 35.8778C56.3193 33.5452 56.0419 31.1431 55.1143 28.9681C54.1866 26.7931 52.6493 24.9404 50.6921 23.6387C48.735 22.337 46.4437 21.6433 44.1011 21.6433C41.7584 21.6433 39.4671 22.337 37.5099 23.6387C35.5528 24.9404 34.0155 26.7931 33.0879 28.9681C32.1602 31.1431 31.8828 33.5452 32.29 35.8778C32.6971 38.2104 33.771 40.3714 35.3789 42.094C36.8726 43.7189 37.6998 45.857 37.6933 48.0754V53.6741C37.6933 54.2541 37.9212 54.8104 38.3268 55.2205C38.7324 55.6306 39.2826 55.8611 39.8562 55.8611H48.3783C48.6669 55.8626 48.9529 55.8057 49.2195 55.6937C49.486 55.5817 49.7277 55.4169 49.9303 55.209C50.1328 55.0011 50.2922 54.7544 50.399 54.4832C50.5058 54.2121 50.5578 53.9221 50.552 53.6303Z" fill="#F8D923"/>
<path d="M43.9445 21.6345C41.6199 21.6694 39.3555 22.3867 37.4267 23.699C35.4979 25.0113 33.9879 26.8622 33.0804 29.0264C32.1729 31.1905 31.907 33.5747 32.3152 35.8889C32.7233 38.203 33.7878 40.3474 35.3792 42.061C36.8728 43.686 37.7 45.824 37.6935 48.0424V53.6411C37.6935 54.2212 37.9214 54.7774 38.3271 55.1876C38.7327 55.5977 39.2828 55.8281 39.8565 55.8281H44.0959" fill="#FFFB27"/>
<path d="M46.472 55.8283H41.7676V35.3799H46.472V55.8283Z" fill="#01C0F4"/>
<path d="M44.1144 55.8283H41.7676V35.3799H44.1252" fill="#0EEBF5"/>
<path d="M41.7578 60.4317V55.8281H46.4623V60.4317C46.466 60.6922 46.3777 60.9455 46.2131 61.146C46.0485 61.3465 45.8186 61.481 45.5646 61.5252H42.7203C42.4644 61.4833 42.232 61.3498 42.0652 61.1491C41.8985 60.9484 41.8085 60.6938 41.8119 60.4317H41.7578Z" fill="#F80847"/>
<path d="M44.1181 61.5692H42.723C42.4671 61.5273 42.2346 61.3938 42.0679 61.1931C41.9011 60.9924 41.8112 60.7378 41.8145 60.4757V55.8721H44.1506" fill="#F8638A"/>
<path d="M46.4612 40.1804H41.7676V38.2012H46.4612V40.1804Z" fill="#F80847"/>
<path d="M44.1144 40.1804H41.7676V38.2012H44.1036" fill="#F8638A"/>
<path d="M41.7578 35.38L43.9208 28.8847C43.931 28.8417 43.9552 28.8034 43.9895 28.7761C44.0239 28.7488 44.0663 28.7339 44.11 28.7339C44.1537 28.7339 44.1961 28.7488 44.2305 28.7761C44.2648 28.8034 44.2891 28.8417 44.2993 28.8847L46.4623 35.38H41.7578Z" fill="#F68624"/>
<path d="M41.7578 35.3798L43.9208 28.8844C43.9259 28.8379 43.9471 28.7948 43.9808 28.7627C44.0145 28.7307 44.0585 28.7118 44.1047 28.7095V35.3798H41.7578Z" fill="#F69F54"/>
<path d="M44.1062 18.1465C43.9775 18.1466 43.85 18.1207 43.7312 18.0706C43.6124 18.0205 43.5046 17.947 43.4141 17.8544C43.3235 17.7619 43.2521 17.6521 43.2038 17.5314C43.1556 17.4108 43.1314 17.2816 43.1329 17.1515V15.9158C43.1583 15.6713 43.2724 15.4449 43.4531 15.2804C43.6339 15.1159 43.8684 15.0249 44.1116 15.0249C44.3547 15.0249 44.5893 15.1159 44.7701 15.2804C44.9508 15.4449 45.0649 15.6713 45.0903 15.9158V17.1405C45.0918 17.2721 45.0673 17.4027 45.0185 17.5247C44.9697 17.6467 44.8974 17.7577 44.8059 17.8512C44.7144 17.9448 44.6054 18.0191 44.4853 18.0698C44.3652 18.1205 44.2364 18.1466 44.1062 18.1465Z" fill="white"/>
<path d="M61.4965 35.0407H60.3069C60.0651 35.015 59.8412 34.8997 59.6785 34.7169C59.5158 34.5342 59.4258 34.297 59.4258 34.0511C59.4258 33.8053 59.5158 33.5681 59.6785 33.3854C59.8412 33.2026 60.0651 33.0873 60.3069 33.0615H61.4965C61.7384 33.0873 61.9622 33.2026 62.1249 33.3854C62.2876 33.5681 62.3777 33.8053 62.3777 34.0511C62.3777 34.297 62.2876 34.5342 62.1249 34.7169C61.9622 34.8997 61.7384 35.015 61.4965 35.0407Z" fill="white"/>
<path d="M27.9262 35.0407H26.7365C26.4947 35.015 26.2709 34.8997 26.1082 34.7169C25.9455 34.5342 25.8555 34.297 25.8555 34.0511C25.8555 33.8053 25.9455 33.5681 26.1082 33.3854C26.2709 33.2026 26.4947 33.0873 26.7365 33.0615H27.9262C28.1681 33.0873 28.3919 33.2026 28.5546 33.3854C28.7173 33.5681 28.8074 33.8053 28.8074 34.0511C28.8074 34.297 28.7173 34.5342 28.5546 34.7169C28.3919 34.8997 28.1681 35.015 27.9262 35.0407Z" fill="white"/>
<path d="M55.568 23.0889C55.4422 23.0911 55.3172 23.0681 55.2002 23.0212C55.0833 22.9743 54.9767 22.9044 54.8866 22.8155C54.7951 22.724 54.7224 22.615 54.6728 22.4949C54.6232 22.3747 54.5977 22.2459 54.5977 22.1157C54.5977 21.9855 54.6232 21.8566 54.6728 21.7365C54.7224 21.6163 54.7951 21.5074 54.8866 21.4158L55.7194 20.541C55.9059 20.3827 56.1439 20.2999 56.3873 20.3087C56.6307 20.3175 56.8622 20.4173 57.0371 20.5886C57.2119 20.76 57.3178 20.9909 57.3341 21.2366C57.3504 21.4823 57.276 21.7254 57.1253 21.9188L56.2925 22.7936C56.1977 22.8897 56.0847 22.9654 55.9601 23.0162C55.8356 23.0669 55.7022 23.0917 55.568 23.0889Z" fill="white"/>
<path d="M31.8316 47.8675C31.7058 47.8697 31.5809 47.8467 31.4639 47.7998C31.347 47.7528 31.2404 47.6829 31.1503 47.5941C31.0588 47.5026 30.9861 47.3936 30.9364 47.2734C30.8868 47.1533 30.8613 47.0244 30.8613 46.8943C30.8613 46.7641 30.8868 46.6352 30.9364 46.515C30.9861 46.3949 31.0588 46.2859 31.1503 46.1944L31.9831 45.3196C32.1696 45.1613 32.4076 45.0785 32.6509 45.0873C32.8943 45.0961 33.1258 45.1958 33.3007 45.3672C33.4756 45.5386 33.5815 45.7695 33.5978 46.0152C33.6141 46.2609 33.5397 46.504 33.389 46.6974L32.5562 47.5722C32.4614 47.6683 32.3483 47.744 32.2238 47.7947C32.0993 47.8455 31.9659 47.8702 31.8316 47.8675Z" fill="white"/>
<path d="M56.403 47.8675C56.1392 47.8672 55.8864 47.761 55.7 47.5722L54.8672 46.6974C54.7166 46.504 54.6422 46.2609 54.6585 46.0152C54.6748 45.7695 54.7806 45.5386 54.9555 45.3672C55.1304 45.1958 55.3619 45.0961 55.6053 45.0873C55.8487 45.0785 56.0867 45.1613 56.2732 45.3196L57.1059 46.1944C57.1975 46.2859 57.2702 46.3949 57.3198 46.515C57.3694 46.6352 57.3949 46.7641 57.3949 46.8943C57.3949 47.0244 57.3694 47.1533 57.3198 47.2734C57.2702 47.3936 57.1975 47.5026 57.1059 47.5941C57.0159 47.6829 56.9093 47.7528 56.7923 47.7998C56.6754 47.8467 56.5504 47.8697 56.4246 47.8675H56.403Z" fill="white"/>
<path d="M32.6627 23.0889C32.3989 23.0886 32.1461 22.9824 31.9597 22.7936L31.127 21.9188C30.9763 21.7254 30.9019 21.4823 30.9182 21.2366C30.9345 20.9909 31.0403 20.76 31.2152 20.5886C31.3901 20.4173 31.6216 20.3175 31.865 20.3087C32.1084 20.2999 32.3464 20.3827 32.5329 20.541L33.3656 21.4158C33.4572 21.5074 33.5299 21.6163 33.5795 21.7365C33.6291 21.8566 33.6547 21.9855 33.6547 22.1157C33.6547 22.2459 33.6291 22.3747 33.5795 22.4949C33.5299 22.615 33.4572 22.724 33.3656 22.8155C33.2756 22.9044 33.169 22.9743 33.0521 23.0212C32.9351 23.0681 32.8101 23.0911 32.6843 23.0889H32.6627Z" fill="white"/>
<path d="M35.0219 65.2542H47.1994L34.957 72.7665L35.0219 65.2542Z" fill="#3D28C2"/>
<path d="M70.0727 72.6243H22.4444C17.7019 72.6243 13.8574 76.5115 13.8574 81.3066V81.3176C13.8574 86.1127 17.7019 89.9999 22.4444 89.9999H70.0727C74.8151 89.9999 78.6596 86.1127 78.6596 81.3176V81.3066C78.6596 76.5115 74.8151 72.6243 70.0727 72.6243Z" fill="#3D28C2"/>
<path d="M44.3329 89.9999H22.4546C20.1693 90 17.9768 89.0858 16.3558 87.4571C14.7348 85.8283 13.817 83.6172 13.8027 81.3066C13.8199 78.9979 14.7389 76.7896 16.3596 75.1632C17.9803 73.5368 20.1712 72.6242 22.4546 72.6243H44.1923" fill="#7A54FF"/>
</g>
<defs>
<clipPath id="clip0_7146_163159">
<rect width="90" height="90" fill="white"/>
</clipPath>
</defs>
</svg>
