<svg width="90" height="90" viewBox="0 0 90 90" fill="none" xmlns="http://www.w3.org/2000/svg">
<g clip-path="url(#clip0_7146_163096)">
<path d="M90.0001 45.0059C90.0001 53.9077 87.4211 62.6095 82.5894 70.011C77.7576 77.4124 70.8901 83.1809 62.8554 86.5869C54.8207 89.993 45.9796 90.8836 37.4504 89.146C28.9212 87.4085 21.0869 83.121 14.9383 76.8256C8.78975 70.5303 4.60314 62.5099 2.90792 53.7789C1.2127 45.0478 2.08501 35.9983 5.41458 27.7748C8.74415 19.5512 14.3814 12.5231 21.6134 7.57918C28.8453 2.63528 37.3472 -0.00230764 46.0437 1.51492e-06C51.8171 1.31599e-06 57.5339 1.1642 62.8677 3.42609C68.2015 5.68799 73.0477 9.00328 77.1296 13.1826C81.2115 17.3619 84.4491 22.3235 86.6574 27.7837C88.8657 33.244 90.0016 39.0961 90.0001 45.0059Z" fill="#FFEFF3"/>
<path d="M79.416 14.5116V74.2976C75.2872 79.2234 70.1668 83.1771 64.4056 85.8878C58.6444 88.5984 52.3787 90.0018 46.0381 90.0018C39.6974 90.0018 33.4317 88.5984 27.6705 85.8878C21.9093 83.1771 16.7889 79.2234 12.6602 74.2976V14.5116C12.6602 13.5463 12.8461 12.5904 13.2073 11.6987C13.5686 10.807 14.098 9.99695 14.7654 9.3149C15.4328 8.63286 16.225 8.0922 17.0967 7.72384C17.9684 7.35549 18.9025 7.16669 19.8455 7.16822H72.2419C74.1446 7.16822 75.9693 7.94189 77.3147 9.31904C78.6601 10.6962 79.416 12.564 79.416 14.5116Z" fill="#7A54FF"/>
<path d="M18.0103 62.0392C16.469 61.6304 15.1039 60.7092 14.1295 59.4202C13.1551 58.1312 12.6266 56.5474 12.627 54.9176V14.5116C12.627 13.5463 12.8129 12.5904 13.1741 11.6987C13.5354 10.807 14.0648 9.99695 14.7322 9.3149C15.3996 8.63286 16.1918 8.0922 17.0635 7.72384C17.9352 7.35549 18.8693 7.16669 19.8123 7.16822H25.1957C24.2526 7.16669 23.3185 7.35549 22.4468 7.72384C21.5751 8.0922 20.7829 8.63286 20.1155 9.3149C19.4482 9.99695 18.9187 10.807 18.5575 11.6987C18.1963 12.5904 18.0103 13.5463 18.0103 14.5116V62.0392ZM51.4738 83.287V82.4698C51.4738 81.9837 51.2851 81.5175 50.9493 81.1737C50.6135 80.83 50.158 80.6369 49.6831 80.6369H42.3266C42.0915 80.6369 41.8586 80.6843 41.6413 80.7764C41.4241 80.8685 41.2267 81.0035 41.0604 81.1737C40.8941 81.3439 40.7623 81.546 40.6723 81.7684C40.5823 81.9908 40.536 82.2291 40.536 82.4698V83.287C40.536 83.5277 40.5823 83.7661 40.6723 83.9885C40.7623 84.2109 40.8941 84.4129 41.0604 84.5831C41.2267 84.7533 41.4241 84.8883 41.6413 84.9804C41.8586 85.0725 42.0915 85.12 42.3266 85.12H49.6831C49.9211 85.1246 50.1576 85.0807 50.3788 84.9906C50.6 84.9006 50.8015 84.7663 50.9714 84.5956C51.1414 84.425 51.2763 84.2213 51.3684 83.9967C51.4606 83.772 51.508 83.5307 51.5079 83.287H51.4738Z" fill="#3D28C2"/>
<path d="M68.6495 75.1264H23.427C22.9558 75.1264 22.4891 75.0312 22.0539 74.8462C21.6186 74.6613 21.2234 74.3902 20.8906 74.0485C20.5579 73.7069 20.2944 73.3014 20.1151 72.8553C19.9357 72.4092 19.8442 71.9312 19.8457 71.4488V18.189C19.8442 17.7066 19.9357 17.2287 20.1151 16.7826C20.2944 16.3364 20.5579 15.9309 20.8906 15.5893C21.2234 15.2477 21.6186 14.9766 22.0539 14.7916C22.4891 14.6067 22.9558 14.5115 23.427 14.5115H68.6495C69.6023 14.5115 70.5161 14.8989 71.1899 15.5886C71.8636 16.2783 72.2421 17.2137 72.2421 18.189V71.4839C72.2331 72.4531 71.8506 73.3795 71.1778 74.0617C70.505 74.7438 69.5964 75.1264 68.6495 75.1264Z" fill="#FD4FB6"/>
<path d="M55.726 42.9862V48.4966C55.726 49.2274 55.4424 49.9282 54.9376 50.4449C54.4328 50.9616 53.7482 51.2518 53.0343 51.2518H47.6624C47.3089 51.2518 46.9589 51.1806 46.6323 51.0421C46.3057 50.9037 46.009 50.7007 45.7591 50.4449C45.5091 50.189 45.3108 49.8853 45.1756 49.551C45.0403 49.2167 44.9707 48.8584 44.9707 48.4966V42.9862C44.9707 42.6244 45.0403 42.2661 45.1756 41.9318C45.3108 41.5975 45.5091 41.2938 45.7591 41.038C46.009 40.7821 46.3057 40.5791 46.6323 40.4407C46.9589 40.3022 47.3089 40.231 47.6624 40.231H53.0457C53.3986 40.231 53.7481 40.3023 54.0741 40.4409C54.4 40.5795 54.696 40.7826 54.945 41.0386C55.194 41.2946 55.3912 41.5985 55.5252 41.9327C55.6592 42.2669 55.7275 42.6249 55.726 42.9862Z" fill="#FD92D2"/>
<path d="M68.2958 57.6729V66.8142C68.2927 68.0321 67.818 69.1991 66.9756 70.0592C66.1331 70.9193 64.9919 71.4023 63.802 71.4023H54.8373C54.2478 71.4039 53.6637 71.2863 53.1185 71.0565C52.5734 70.8266 52.0779 70.4888 51.6605 70.0626C51.2431 69.6364 50.9119 69.1301 50.6859 68.5727C50.4599 68.0153 50.3436 67.4177 50.3436 66.8142V57.6262C50.3436 57.0227 50.4599 56.4251 50.6859 55.8677C50.9119 55.3103 51.2431 54.804 51.6605 54.3778C52.0779 53.9516 52.5734 53.6139 53.1185 53.384C53.6637 53.1541 54.2478 53.0366 54.8373 53.0381H63.802C64.3951 53.0381 64.9822 53.1582 65.5296 53.3916C66.0771 53.6249 66.574 53.9668 66.9917 54.3977C67.4094 54.8285 67.7398 55.3398 67.9636 55.9019C68.1874 56.464 68.3003 57.0659 68.2958 57.6729ZM46.7624 20.9444V30.1207C46.7624 30.8515 46.4788 31.5522 45.974 32.069C45.4692 32.5857 44.7845 32.8759 44.0706 32.8759H35.1174C34.4036 32.8759 33.7189 32.5857 33.2141 32.069C32.7094 31.5522 32.4258 30.8515 32.4258 30.1207V20.9444C32.4258 20.2137 32.7094 19.5129 33.2141 18.9962C33.7189 18.4795 34.4036 18.1892 35.1174 18.1892H44.0935C44.8034 18.1954 45.4822 18.4884 45.9821 19.0044C46.4819 19.5204 46.7624 20.2177 46.7624 20.9444Z" fill="#D80D80"/>
<path d="M68.2965 20.9444V33.7866C68.2965 34.1484 68.2268 34.5067 68.0916 34.8409C67.9563 35.1752 67.758 35.4789 67.5081 35.7348C67.2581 35.9906 66.9614 36.1936 66.6348 36.3321C66.3083 36.4705 65.9583 36.5418 65.6048 36.5418H53.0588C52.7054 36.5418 52.3553 36.4705 52.0288 36.3321C51.7022 36.1936 51.4055 35.9906 51.1556 35.7348C50.9056 35.4789 50.7073 35.1752 50.5721 34.8409C50.4368 34.5067 50.3672 34.1484 50.3672 33.7866V20.9444C50.3672 20.2137 50.6508 19.5129 51.1556 18.9962C51.6603 18.4795 52.345 18.1892 53.0588 18.1892H65.6048C65.9583 18.1892 66.3083 18.2605 66.6348 18.3989C66.9614 18.5374 67.2581 18.7404 67.5081 18.9962C67.758 19.252 67.9563 19.5558 68.0916 19.8901C68.2268 20.2243 68.2965 20.5826 68.2965 20.9444Z" fill="#FD92D2"/>
<path d="M23.7106 19.8936C23.7084 19.5532 23.8051 19.2198 23.9884 18.9358C24.1718 18.6518 24.4335 18.43 24.7403 18.2986C25.0472 18.1673 25.3852 18.1323 25.7115 18.1982C26.0378 18.264 26.3375 18.4277 26.5727 18.6684C26.8079 18.9091 26.9678 19.216 27.0321 19.55C27.0964 19.884 27.0623 20.23 26.9339 20.5441C26.8056 20.8581 26.589 21.126 26.3115 21.3137C26.0341 21.5014 25.7084 21.6004 25.3758 21.5981C24.9342 21.5981 24.5106 21.4185 24.1983 21.0988C23.886 20.7792 23.7106 20.3456 23.7106 19.8936ZM25.3758 23.8746C25.0442 23.8746 24.7201 23.9753 24.4443 24.1639C24.1686 24.3525 23.9537 24.6205 23.8268 24.9341C23.6999 25.2477 23.6667 25.5927 23.7314 25.9256C23.7961 26.2585 23.9558 26.5643 24.1903 26.8043C24.4248 27.0444 24.7235 27.2078 25.0487 27.274C25.374 27.3402 25.7111 27.3062 26.0174 27.1764C26.3238 27.0465 26.5856 26.8265 26.7698 26.5443C26.9541 26.262 27.0524 25.9303 27.0524 25.5908C27.0524 25.3625 27.008 25.1364 26.9216 24.9259C26.8352 24.7153 26.7086 24.5246 26.5493 24.3647C26.39 24.2049 26.2011 24.0792 25.9937 23.9951C25.7863 23.9109 25.5646 23.87 25.3416 23.8746H25.3758ZM25.3758 29.5719C25.0442 29.5719 24.7201 29.6725 24.4443 29.8611C24.1686 30.0497 23.9537 30.3177 23.8268 30.6313C23.6999 30.9449 23.6667 31.29 23.7314 31.6229C23.7961 31.9558 23.9558 32.2616 24.1903 32.5016C24.4248 32.7416 24.7235 32.905 25.0487 32.9713C25.374 33.0375 25.7111 33.0035 26.0174 32.8736C26.3238 32.7437 26.5856 32.5237 26.7698 32.2415C26.9541 31.9593 27.0524 31.6275 27.0524 31.2881C27.0524 31.0597 27.008 30.8337 26.9216 30.6231C26.8352 30.4126 26.7086 30.2218 26.5493 30.062C26.39 29.9022 26.2011 29.7765 25.9937 29.6923C25.7863 29.6082 25.5646 29.5672 25.3416 29.5719H25.3758Z" fill="#FFF5F5"/>
<path d="M39.4729 29.9222C41.9421 29.9222 43.9438 27.8733 43.9438 25.3458C43.9438 22.8182 41.9421 20.7693 39.4729 20.7693C37.0037 20.7693 35.002 22.8182 35.002 25.3458C35.002 27.8733 37.0037 29.9222 39.4729 29.9222Z" fill="#C10C72"/>
<path d="M38.1172 22.9872L41.8125 25.182C41.844 25.1971 41.8706 25.221 41.8893 25.251C41.9079 25.281 41.9178 25.3158 41.9178 25.3513C41.9178 25.3869 41.9079 25.4217 41.8893 25.4517C41.8706 25.4817 41.844 25.5056 41.8125 25.5206L38.1172 27.7038C38.0885 27.7195 38.0564 27.7276 38.0238 27.7273C37.9913 27.727 37.9593 27.7183 37.9309 27.702C37.9025 27.6857 37.8785 27.6624 37.8612 27.6341C37.8439 27.6059 37.8339 27.5736 37.832 27.5403V23.1623C37.832 23.1281 37.8407 23.0944 37.8572 23.0645C37.8737 23.0347 37.8974 23.0098 37.9261 22.9921C37.9549 22.9745 37.9876 22.9648 38.021 22.9639C38.0545 22.9631 38.0876 22.9711 38.1172 22.9872Z" fill="white"/>
<path d="M38.5378 70.9121H1.17374C0.871253 70.9121 0.581169 70.789 0.367276 70.5701C0.153383 70.3512 0.0332031 70.0542 0.0332031 69.7446V46.4653C0.0332031 46.1557 0.153383 45.8587 0.367276 45.6398C0.581169 45.4209 0.871253 45.2979 1.17374 45.2979H38.5378C38.8403 45.2979 39.1304 45.4209 39.3443 45.6398C39.5582 45.8587 39.6784 46.1557 39.6784 46.4653V69.7212C39.6814 69.8765 39.6541 70.0308 39.5982 70.1752C39.5422 70.3195 39.4587 70.451 39.3525 70.5619C39.2463 70.6728 39.1196 70.7609 38.9797 70.821C38.8398 70.8811 38.6895 70.9121 38.5378 70.9121Z" fill="#75CCD4"/>
<path d="M38.5392 45.2744H19.8457V70.9587H38.5392C38.8417 70.9587 39.1317 70.8357 39.3456 70.6167C39.5595 70.3978 39.6797 70.1008 39.6797 69.7912V46.4652C39.6827 46.31 39.6555 46.1556 39.5995 46.0113C39.5436 45.8669 39.4601 45.7355 39.3538 45.6246C39.2476 45.5137 39.1209 45.4256 38.981 45.3655C38.8411 45.3053 38.6909 45.2744 38.5392 45.2744Z" fill="#6BBCC3"/>
<path d="M38.5378 37.7092H1.17374C0.871253 37.7092 0.581169 37.8322 0.367276 38.0512C0.153383 38.2701 0.0332031 38.5671 0.0332031 38.8767V46.4419H39.6784V38.8767C39.6784 38.5671 39.5582 38.2701 39.3443 38.0512C39.1304 37.8322 38.8403 37.7092 38.5378 37.7092Z" fill="#F7E6B0"/>
<path d="M39.6797 38.9001C39.6797 38.5905 39.5595 38.2936 39.3456 38.0746C39.1317 37.8557 38.8417 37.7327 38.5392 37.7327H19.8457V46.4887H39.6797V38.9001Z" fill="#F7EDCD"/>
<path d="M2.33984 40.1025H6.22909V44.0836H2.33984V40.1025Z" fill="#015081"/>
<path d="M8.56445 40.1025H12.4537V44.0836H8.56445V40.1025Z" fill="#015081"/>
<path d="M14.7832 40.1025H18.6724V44.0836H14.7832V40.1025Z" fill="#015081"/>
<path d="M21.0105 40.1025H24.8541V44.0836H20.9648L21.0105 40.1025Z" fill="#015081"/>
<path d="M27.2246 40.1025H31.1139V44.0836H27.2246V40.1025Z" fill="#015081"/>
<path d="M33.4531 40.1025H37.3994V44.0836H33.5102L33.4531 40.1025Z" fill="#015081"/>
<path d="M32.0955 54.9877C31.518 54.9877 30.9536 54.8124 30.4734 54.484C29.9932 54.1556 29.619 53.6888 29.398 53.1427C29.177 52.5966 29.1192 51.9956 29.2319 51.4159C29.3446 50.8361 29.6226 50.3036 30.0309 49.8856C30.4393 49.4676 30.9596 49.183 31.526 49.0677C32.0923 48.9524 32.6794 49.0115 33.2129 49.2378C33.7464 49.464 34.2024 49.847 34.5233 50.3385C34.8441 50.83 35.0153 51.4079 35.0153 51.999C35.0153 52.7916 34.7077 53.5518 34.1602 54.1123C33.6126 54.6728 32.8699 54.9877 32.0955 54.9877Z" fill="#F8D923"/>
<path d="M32.0955 54.9877C31.3212 54.9877 30.5785 54.6728 30.0309 54.1123C29.4834 53.5518 29.1758 52.7916 29.1758 51.999C29.1758 51.2063 29.4834 50.4461 30.0309 49.8856C30.5785 49.3251 31.3212 49.0103 32.0955 49.0103" fill="#FFFB27"/>
<path d="M27.475 57.3928L17.0391 69.7213C17.0391 70.0309 17.1592 70.3278 17.3731 70.5468C17.587 70.7657 17.8771 70.8887 18.1796 70.8887H38.5382C38.8407 70.8887 39.1308 70.7657 39.3447 70.5468C39.5586 70.3278 39.6788 70.0309 39.6788 69.7213L29.2429 57.3928C29.1359 57.2585 29.0011 57.1503 28.8482 57.076C28.6953 57.0017 28.5282 56.9631 28.3589 56.9631C28.1897 56.9631 28.0225 57.0017 27.8697 57.076C27.7168 57.1503 27.582 57.2585 27.475 57.3928Z" fill="#5F69E3"/>
<path d="M12.6372 50.3527L0 69.721C0 70.0307 0.12018 70.3276 0.334073 70.5466C0.547966 70.7655 0.83805 70.8885 1.14054 70.8885H25.9929C26.2954 70.8885 26.5855 70.7655 26.7994 70.5466C27.0133 70.3276 27.1335 70.0307 27.1335 69.721L14.5875 50.3527C14.4852 50.1838 14.3425 50.0444 14.1728 49.9477C14.0032 49.851 13.8122 49.8003 13.618 49.8003C13.4239 49.8003 13.2329 49.851 13.0633 49.9477C12.8936 50.0444 12.7509 50.1838 12.6486 50.3527H12.6372Z" fill="#C4DDFF"/>
<path d="M19.8458 70.9119H25.9933C26.2958 70.9119 26.5859 70.7889 26.7998 70.57C27.0137 70.3511 27.1338 70.0541 27.1338 69.7445L19.7773 58.4551L19.8458 70.9119Z" fill="#8CBDFF"/>
<path d="M39.6794 69.7212H0V77.3214C0 77.631 0.12018 77.928 0.334073 78.1469C0.547966 78.3659 0.83805 78.4889 1.14054 78.4889H38.5388C38.8413 78.4889 39.1314 78.3659 39.3453 78.1469C39.5592 77.928 39.6794 77.631 39.6794 77.3214V69.7212Z" fill="#F7E6B0"/>
<path d="M19.8457 69.7212V78.4889H38.5392C38.8417 78.4889 39.1317 78.3659 39.3456 78.1469C39.5595 77.928 39.6797 77.631 39.6797 77.3214V69.7562L19.8457 69.7212Z" fill="#F7EDCD"/>
<path d="M2.33984 72.1028H6.22909V76.0838H2.33984V72.1028Z" fill="#015081"/>
<path d="M8.56445 72.1028H12.4537V76.0838H8.56445V72.1028Z" fill="#015081"/>
<path d="M14.7832 72.1028H18.6724V76.0838H14.7832V72.1028Z" fill="#015081"/>
<path d="M21.0105 72.1028H24.8541V76.0838H20.9648L21.0105 72.1028Z" fill="#015081"/>
<path d="M27.2246 72.1028H31.1139V76.0838H27.2246V72.1028Z" fill="#015081"/>
<path d="M33.4531 72.1028H37.3994V76.0838H33.5102L33.4531 72.1028Z" fill="#015081"/>
<path d="M65.0922 20.7693H53.5842C53.1558 20.7693 52.8086 21.1247 52.8086 21.5632C52.8086 22.0016 53.1558 22.357 53.5842 22.357H65.0922C65.5205 22.357 65.8678 22.0016 65.8678 21.5632C65.8678 21.1247 65.5205 20.7693 65.0922 20.7693Z" fill="#FDB1DE"/>
<path d="M65.0922 24.3882H53.5842C53.1558 24.3882 52.8086 24.7436 52.8086 25.1821C52.8086 25.6205 53.1558 25.9759 53.5842 25.9759H65.0922C65.5205 25.9759 65.8678 25.6205 65.8678 25.1821C65.8678 24.7436 65.5205 24.3882 65.0922 24.3882Z" fill="#FDB1DE"/>
<path d="M65.0922 27.7273H53.5842C53.1558 27.7273 52.8086 28.0827 52.8086 28.5212C52.8086 28.9596 53.1558 29.315 53.5842 29.315H65.0922C65.5205 29.315 65.8678 28.9596 65.8678 28.5212C65.8678 28.0827 65.5205 27.7273 65.0922 27.7273Z" fill="#FDB1DE"/>
<path d="M58.249 31.2998H53.5842C53.1558 31.2998 52.8086 31.6552 52.8086 32.0937C52.8086 32.5321 53.1558 32.8876 53.5842 32.8876H58.249C58.6773 32.8876 59.0245 32.5321 59.0245 32.0937C59.0245 31.6552 58.6773 31.2998 58.249 31.2998Z" fill="#FDB1DE"/>
</g>
<defs>
<clipPath id="clip0_7146_163096">
<rect width="90" height="90" fill="white"/>
</clipPath>
</defs>
</svg>
