<svg width="56" height="56" viewBox="0 0 56 56" fill="none" xmlns="http://www.w3.org/2000/svg">
<path d="M45.5 7H10.5C9.57211 7.00121 8.68257 7.37034 8.02646 8.02646C7.37034 8.68258 7.00121 9.57211 7 10.5V23.3328C7 42.9023 23.5857 49.3914 26.9131 50.4937C27.6179 50.7329 28.3821 50.7329 29.0869 50.4937C32.4126 49.3914 49 42.9041 49 23.3328V10.5C48.9988 9.57211 48.6297 8.68257 47.9735 8.02646C47.3174 7.37034 46.4279 7.00121 45.5 7ZM38.8333 22.2664L25.9988 34.5164C25.6731 34.8268 25.2405 35 24.7905 35C24.3406 35 23.9079 34.8268 23.5823 34.5164L17.1667 28.3914C17.0002 28.2327 16.8666 28.0429 16.7734 27.8326C16.6803 27.6223 16.6296 27.3957 16.6241 27.1658C16.6186 26.9359 16.6584 26.7071 16.7414 26.4926C16.8243 26.2781 16.9487 26.0821 17.1075 25.9157C17.2663 25.7493 17.4563 25.6158 17.6666 25.5229C17.877 25.4299 18.1036 25.3794 18.3336 25.3741C18.5635 25.3688 18.7922 25.4089 19.0066 25.492C19.2211 25.5751 19.417 25.6997 19.5833 25.8586L24.7905 30.8301L36.4167 19.7336C36.583 19.5747 36.7789 19.4501 36.9934 19.367C37.2078 19.2839 37.4365 19.2438 37.6664 19.2491C37.8964 19.2544 38.123 19.3049 38.3334 19.3979C38.5437 19.4908 38.7337 19.6243 38.8925 19.7907C39.0513 19.9571 39.1757 20.1531 39.2586 20.3676C39.3416 20.5821 39.3814 20.8109 39.3759 21.0408C39.3704 21.2707 39.3197 21.4973 39.2265 21.7076C39.1334 21.9179 38.9998 22.1077 38.8332 22.2664H38.8333Z" fill="#69E585"/>
</svg>
