<svg width="64" height="64" viewBox="0 0 64 64" fill="none" xmlns="http://www.w3.org/2000/svg">
<path d="M12.3333 14.1333C9.39993 14.1333 6.99993 16.5333 6.99993 19.4667V49.8667C6.99993 52.8 9.39993 55.2 12.3333 55.2H30.9999L35.2666 36.6667L30.8666 14.1333H12.3333Z" fill="#67CFF0"/>
<path d="M50.5999 18.1333H30.8666V55.2H50.5999C53.5332 55.2 55.9332 52.8 55.9332 49.8667V23.4667C55.9332 20.5333 53.5332 18.1333 50.5999 18.1333Z" fill="#67CFF0"/>
<path d="M30.8666 14.1333H50.5999C53.5332 14.1333 55.9332 16.5333 55.9332 19.4667V36.6667H30.8666V14.1333Z" fill="#67CFF0"/>
<path d="M33.5332 50.4H38.1999H50.5999C50.9999 50.4 51.3999 50 51.3999 49.6V19.3333C51.3999 18.9333 50.9999 18.5333 50.5999 18.5333H30.8666H22.7332L21.2666 14.1334H30.8666H50.5999C53.8332 14.1334 55.9332 16.9667 55.9332 19.2V49.6C55.9332 52.5333 53.5332 54.9333 50.5999 54.9333H38.1999H33.5332L32.0666 50.2667H33.5332V50.4Z" fill="#84D9F4"/>
<path d="M35.2664 34H42.733C43.7997 34 44.733 33.0667 44.733 32V21.2C44.733 14.1333 38.9997 8.53333 32.0664 8.53333C25.133 8.53333 19.3997 14.2667 19.3997 21.2V32C19.3997 33.0667 20.333 34 21.3997 34H29.133H35.2664Z" fill="#84D9F4"/>
<path d="M31.9331 8.66667V34.1333H21.1331C20.0664 34.1333 19.1331 33.2 19.1331 32.1333V21.3333C19.2664 14.2667 24.9998 8.66667 31.9331 8.66667Z" fill="#50BBDE"/>
<path d="M34.7196 33.1925L35.7862 36.6C36.1862 37.8 37.1196 38.8667 38.4529 39.1333L38.5862 41.6667C39.9196 42.0667 40.9862 43.2667 41.2529 44.6L44.1862 47C44.3196 47.4 43.9196 47.8 43.5196 47.8L22.1862 46.3333C21.7862 46.3333 19.3862 47.9333 19.3862 47.5333L21.5196 44.3333C21.9196 42.8667 22.1862 43.1333 23.6529 42.7333L27.1196 39.9333C28.4529 39.5333 27.6773 37.6667 28.0773 36.4667L29.144 33.1925H34.7196Z" fill="#84D9F4"/>
<path d="M23.6664 41.7259C24.0664 40.2592 25.1331 39.1926 26.4664 38.7926H25.7859C27.1192 38.3926 27.5331 37.3259 28.0664 36.1259L29.1331 33.1926H31.9331V48.1259L23.2664 47.1926C22.8664 47.1926 22.5998 46.7926 22.5998 46.3926L23.6664 41.7259Z" fill="#50BCDE"/>
<path d="M25.2664 19.8667C24.5998 19.8667 23.9331 20.4 23.9331 21.2V25.4667C23.9331 30.1333 27.5331 34 31.9331 34C36.3331 34 39.9331 30.1333 39.9331 25.4667V21.2C39.9331 20.5333 39.3998 19.8667 38.5998 19.8667H25.2664Z" fill="#B6EDFF"/>
<path d="M31.9331 34C27.5331 34 23.9331 30.1333 23.9331 25.4666V21.2C23.9331 20.5333 24.4664 19.8666 25.2664 19.8666H31.9331V34Z" fill="#84D9F4"/>
<path d="M16.8665 49.7333L18.1998 43.0667C18.5998 41.6 19.6665 40.5333 20.9998 40.1333L25.2665 38.9333C25.3998 38.9333 25.6665 38.8 25.7998 38.8C26.5998 38.4 27.2665 37.8667 27.6665 37.2C27.7998 37.3333 27.9331 37.4667 28.0665 37.4667C29.1331 38.1333 30.3331 38.5333 31.6665 38.5333C33.1331 38.5333 34.4665 38.2667 35.3998 37.6C35.6665 37.4667 35.7998 37.3333 36.0665 37.2C36.4665 38 37.1331 38.5333 37.9331 38.9333C38.0665 39.0667 38.3331 39.0667 38.4665 39.2L42.8665 40.5333C44.1998 40.9333 45.2665 42.1333 45.5331 43.4667L46.7331 49.8667C46.8665 50.2667 46.4665 50.6667 46.0665 50.6667H17.1331C17.1331 50.5333 16.7331 50.1333 16.8665 49.7333Z" fill="#B6EDFF"/>
<path d="M16.8664 49.7333L18.1998 43.0667C18.5998 41.6 19.6664 40.5333 20.9998 40.1333L25.2664 38.9333C25.3998 38.9333 25.6664 38.8 25.7998 38.8C26.5998 38.4 27.2664 37.8667 27.6664 37.2C27.7998 37.3333 27.9331 37.4667 28.0664 37.4667C29.1331 38.1333 30.3331 38.5333 31.6664 38.5333V40.8L31.6665 50.4H17.2664C17.1331 50.5333 16.7331 50.1333 16.8664 49.7333Z" fill="#84D9F4"/>
<path d="M62.8666 49.3333V51.8667C62.8666 53.8667 61.2666 55.4667 59.2666 55.4667L31.6145 55.4667V49.3333L62.8666 49.3333Z" fill="#84D9F4"/>
<path d="M31.6144 49.3333V55.4667H4.73315C2.73315 55.4667 1.13315 53.8667 1.13315 51.8667V49.3333H31.6144Z" fill="#50BCDE"/>
</svg>
