<svg width="30" height="30" viewBox="0 0 30 30" fill="none" xmlns="http://www.w3.org/2000/svg">
<path d="M0 22.5023C0 24.3431 1.4925 25.8356 3.33333 25.8356H26.6667C28.5075 25.8356 30 24.3431 30 22.5023V19.1689H0V22.5023Z" fill="#138808"/>
<path d="M0 10.8311H30V19.1644H0V10.8311Z" fill="#EEEEEE"/>
<path d="M30 10.8356V7.50228C30 5.66145 28.5075 4.16895 26.6667 4.16895H3.33333C1.4925 4.16895 0 5.66145 0 7.50228V10.8356H30Z" fill="#FF9933"/>
<path d="M15.0008 18.3356C16.8418 18.3356 18.3341 16.8432 18.3341 15.0023C18.3341 13.1613 16.8418 11.6689 15.0008 11.6689C13.1599 11.6689 11.6675 13.1613 11.6675 15.0023C11.6675 16.8432 13.1599 18.3356 15.0008 18.3356Z" fill="#000080"/>
<path d="M15.001 17.5C16.3817 17.5 17.501 16.3807 17.501 15C17.501 13.6193 16.3817 12.5 15.001 12.5C13.6203 12.5 12.501 13.6193 12.501 15C12.501 16.3807 13.6203 17.5 15.001 17.5Z" fill="#EEEEEE"/>
<path d="M15.001 12.5L15.1226 14.3867L15.9568 12.6908L15.3485 14.48L16.7685 13.2317L15.521 14.6525L17.3101 14.0433L15.6143 14.8783L17.501 15L15.6143 15.1217L17.3101 15.9558L15.521 15.3475L16.7685 16.7675L15.3485 15.52L15.9568 17.3092L15.1226 15.6133L15.001 17.5L14.8793 15.6133L14.0443 17.3092L14.6535 15.52L13.2326 16.7675L14.481 15.3475L12.6918 15.9558L14.3876 15.1217L12.501 15L14.3876 14.8783L12.6918 14.0433L14.481 14.6525L13.2326 13.2317L14.6535 14.48L14.0443 12.6908L14.8793 14.3867L15.001 12.5Z" fill="#6666B3"/>
<path d="M14.9998 15.8317C15.4601 15.8317 15.8332 15.4586 15.8332 14.9984C15.8332 14.5381 15.4601 14.165 14.9998 14.165C14.5396 14.165 14.1665 14.5381 14.1665 14.9984C14.1665 15.4586 14.5396 15.8317 14.9998 15.8317Z" fill="#000080"/>
</svg>
