<svg width="31" height="31" viewBox="0 0 31 31" fill="none" xmlns="http://www.w3.org/2000/svg">
<path fill-rule="evenodd" clip-rule="evenodd" d="M15.0018 30.0039C23.287 30.0039 30.0035 23.2882 30.0035 15.0039C30.0035 6.71965 23.287 0.00390625 15.0018 0.00390625C6.71653 0.00390625 0 6.71965 0 15.0039C0 23.2882 6.71653 30.0039 15.0018 30.0039ZM18.2326 8.78541C17.3889 8.74566 17.1361 8.73712 14.9999 8.73712C12.8637 8.73712 12.6109 8.74566 11.7672 8.78541C10.9872 8.8222 10.5636 8.95688 10.2816 9.07021C9.90819 9.22001 9.64176 9.39936 9.36167 9.68909C9.0819 9.97882 8.90852 10.2544 8.76339 10.6407C8.65384 10.9324 8.52364 11.3706 8.48807 12.1774C8.44965 13.0502 8.44139 13.3117 8.44139 15.5215C8.44139 17.7313 8.44965 17.9931 8.48807 18.8655C8.52364 19.6723 8.65384 20.1105 8.76339 20.4022C8.9082 20.7885 9.08159 21.0641 9.36167 21.3539C9.64176 21.6433 9.90819 21.8226 10.2816 21.9727C10.5636 22.0861 10.9872 22.2208 11.7672 22.2576C12.6106 22.2973 12.8637 22.3058 14.9999 22.3058C17.1361 22.3058 17.3892 22.2973 18.2326 22.2576C19.0125 22.2208 19.4362 22.0861 19.7182 21.9727C20.0916 21.823 20.358 21.6436 20.6381 21.3539C20.9179 21.0641 21.0913 20.7885 21.2364 20.4022C21.346 20.1105 21.4762 19.6723 21.5117 18.8655C21.5501 17.9927 21.5584 17.7313 21.5584 15.5215C21.5584 13.3117 21.5501 13.0499 21.5117 12.1774C21.4762 11.3706 21.346 10.9324 21.2364 10.6407C21.0916 10.2544 20.9182 9.97882 20.6381 9.68909C20.358 9.39969 20.0916 9.22034 19.7182 9.07021C19.4362 8.95688 19.0125 8.8222 18.2326 8.78541ZM11.7014 7.29602C12.5547 7.25562 12.8272 7.24609 14.9999 7.24609C17.1726 7.24609 17.4451 7.25562 18.2984 7.29602C19.1497 7.3361 19.7312 7.47604 20.2405 7.68036C20.7667 7.89191 21.2126 8.17474 21.6575 8.63496C22.1024 9.09485 22.3758 9.55638 22.5803 10.1007C22.7781 10.6269 22.9134 11.2287 22.9522 12.1094C22.9912 12.9921 23.0004 13.2739 23.0004 15.5215C23.0004 17.769 22.9912 18.0509 22.9522 18.9335C22.9134 19.8142 22.7781 20.416 22.5803 20.9423C22.3758 21.4866 22.1024 21.9478 21.6575 22.408C21.2129 22.8682 20.7667 23.1511 20.2405 23.3626C19.7318 23.5673 19.15 23.7072 18.2987 23.7473C17.4454 23.7877 17.1729 23.7972 15.0002 23.7972C12.8275 23.7972 12.555 23.7877 11.7017 23.7473C10.8504 23.7072 10.2686 23.5673 9.75989 23.3626C9.2337 23.1511 8.78785 22.8682 8.34295 22.408C7.89805 21.9481 7.62463 21.4866 7.42013 20.9423C7.22229 20.4157 7.08701 19.8142 7.04827 18.9335C7.00921 18.0509 7 17.769 7 15.5215C7 13.2739 7.00921 12.9921 7.04827 12.1094C7.08701 11.2287 7.22229 10.6273 7.42013 10.1007C7.62432 9.55671 7.89805 9.09518 8.34263 8.63529C8.78721 8.17507 9.23338 7.89224 9.75957 7.68069C10.2686 7.47604 10.8501 7.3361 11.7014 7.29602ZM10.8906 15.5189C10.8906 13.1722 12.7296 11.2695 14.9985 11.2695C17.2675 11.2695 19.1065 13.1722 19.1065 15.5189C19.1065 17.8657 17.2672 19.7683 14.9985 19.7683C12.7299 19.7683 10.8906 17.8657 10.8906 15.5189ZM12.332 15.5189C12.332 17.0421 13.5257 18.2773 14.9985 18.2773C16.4714 18.2773 17.6651 17.0425 17.6651 15.5189C17.6651 13.9957 16.4711 12.7606 14.9985 12.7606C13.526 12.7606 12.332 13.9954 12.332 15.5189ZM19.2725 12.0954C19.8027 12.0954 20.2324 11.6508 20.2324 11.1024C20.2324 10.554 19.8027 10.1094 19.2725 10.1094C18.7423 10.1094 18.3125 10.554 18.3125 11.1024C18.3125 11.6508 18.7423 12.0954 19.2725 12.0954Z" fill="white"/>
</svg>
