<svg width="120" height="120" viewBox="0 0 120 120" fill="none" xmlns="http://www.w3.org/2000/svg">
<path d="M87.3316 69.5723C92.6595 54.61 84.8694 38.1688 69.9321 32.8499C54.9947 27.5309 38.5665 35.3484 33.2387 50.3107C27.9109 65.273 35.7009 81.7142 50.6383 87.0332C65.5756 92.3521 82.0038 84.5346 87.3316 69.5723Z" fill="#3EC8F0"/>
<path d="M76.8864 47.6089C77.5839 45.6501 76.5639 43.4974 74.6082 42.801C72.6524 42.1046 70.5015 43.1281 69.804 45.087C69.1064 47.0459 70.1265 49.1983 72.0822 49.8948C74.038 50.5912 76.1889 49.5678 76.8864 47.6089Z" fill="#23B6E1"/>
<path d="M69.963 32.8799C62.7826 30.3304 54.8837 30.7372 48.0032 34.0109C41.1227 37.2846 35.8242 43.1571 33.273 50.3369C31.9135 54.1389 31.3718 58.1851 31.6831 62.2109C32.2742 62.0758 32.8142 61.7743 33.2395 61.3421C33.6648 60.9099 33.9575 60.365 34.0831 59.7719L35.055 55.2059C35.1492 54.7633 35.3367 54.3459 35.6049 53.9815C35.8732 53.6171 36.2161 53.314 36.6107 53.0925C37.0053 52.8711 37.4426 52.7363 37.8934 52.6973C38.3443 52.6582 38.7981 52.7157 39.225 52.8659L41.625 53.7119C42.4008 53.9852 43.2525 53.9473 44.001 53.6061C44.7494 53.2649 45.3366 52.6469 45.6391 51.8819L46.0711 50.7959C46.2467 50.3509 46.5204 49.9512 46.8719 49.6267C47.2234 49.3022 47.6437 49.0612 48.1013 48.9216C48.559 48.7821 49.0421 48.7476 49.5149 48.8207C49.9877 48.8938 50.4379 49.0726 50.832 49.3439L55.497 52.5659C55.9571 52.8825 56.4923 53.0724 57.0489 53.1166C57.6056 53.1609 58.164 53.0579 58.6683 52.8181C59.1726 52.5783 59.605 52.21 59.9219 51.7503C60.2388 51.2906 60.4292 50.7555 60.474 50.1989L60.9781 43.9619C61.017 43.4761 61.1669 43.0057 61.4163 42.587C61.6658 42.1684 62.0081 41.8125 62.4168 41.547C62.8255 41.2815 63.2898 41.1134 63.7737 41.0556C64.2576 40.9979 64.7484 41.052 65.2081 41.2139L66.744 41.7569C67.5202 42.0304 68.3723 41.9926 69.1213 41.6514C69.8702 41.3102 70.4579 40.6921 70.761 39.9269C70.9365 39.4817 71.2102 39.082 71.5618 38.7575C71.9135 38.433 72.3338 38.192 72.7916 38.0527C73.2493 37.9134 73.7327 37.8793 74.2054 37.9529C74.6782 38.0266 75.1283 38.206 75.522 38.4779L79.422 41.1779C79.8464 41.4753 80.3379 41.6629 80.8526 41.7236C81.3673 41.7843 81.8891 41.7164 82.3711 41.5259C79.088 37.5803 74.8013 34.5934 69.963 32.8799Z" fill="#58D3F7"/>
<path d="M46.4728 85.1761C46.2618 84.6887 46.1398 84.1674 46.1127 83.637L46.8028 75.096C46.8476 74.5394 47.0379 74.0044 47.3549 73.5447C47.6718 73.0849 48.1042 72.7166 48.6085 72.4768C49.1128 72.237 49.6712 72.134 50.2279 72.1783C50.7845 72.2226 51.3197 72.4125 51.7797 72.7291L55.6797 75.4291C56.0736 75.7004 56.5237 75.8794 56.9963 75.9527C57.469 76.026 57.952 75.9917 58.4096 75.8525C58.8672 75.7132 59.2874 75.4725 59.6391 75.1483C59.9907 74.8241 60.2648 74.4248 60.4408 73.98C60.7438 73.2148 61.3315 72.5968 62.0805 72.2556C62.8295 71.9144 63.6815 71.8765 64.4578 72.15L65.9937 72.693C66.4536 72.8543 66.9445 72.908 67.4284 72.8498C67.9123 72.7916 68.3764 72.6231 68.785 72.3574C69.1935 72.0916 69.5357 71.7357 69.7852 71.3169C70.0346 70.8982 70.1846 70.4279 70.2237 69.942L70.7278 63.708C70.7726 63.1514 70.9629 62.6164 71.2799 62.1566C71.5968 61.6969 72.0292 61.3287 72.5335 61.0888C73.0378 60.849 73.5962 60.746 74.1529 60.7903C74.7095 60.8346 75.2447 61.0245 75.7047 61.3411L80.3698 64.5601C80.7635 64.832 81.2135 65.0114 81.6863 65.085C82.1591 65.1586 82.6424 65.1246 83.1001 64.9852C83.5579 64.8459 83.9783 64.605 84.3299 64.2804C84.6815 63.9559 84.9552 63.5562 85.1307 63.111L85.5627 62.025C85.8289 61.3513 86.3173 60.7887 86.9468 60.4302C87.5764 60.0718 88.3094 59.9391 89.0247 60.0541C89.0364 56.3282 88.3232 52.6356 86.9247 49.1821L83.3757 47.358C82.9406 47.1355 82.4602 47.0161 81.9716 47.0091C81.483 47.0021 80.9994 47.1078 80.5582 47.3178C80.117 47.5279 79.73 47.8366 79.4273 48.2202C79.1247 48.6039 78.9143 49.0521 78.8127 49.53L77.8408 54.096C77.7466 54.5386 77.5591 54.9561 77.2909 55.3205C77.0226 55.6849 76.6797 55.9879 76.2851 56.2094C75.8905 56.4308 75.4532 56.5656 75.0023 56.6046C74.5515 56.6437 74.0976 56.5863 73.6708 56.436L71.2708 55.59C70.4946 55.3158 69.6422 55.3532 68.8931 55.6945C68.1439 56.0358 67.5562 56.6544 67.2538 57.4201L66.8218 58.509C66.6458 58.9538 66.3717 59.3531 66.0201 59.6773C65.6684 60.0015 65.2482 60.2422 64.7906 60.3815C64.333 60.5207 63.85 60.555 63.3773 60.4816C62.9047 60.4083 62.4546 60.2294 62.0607 59.958L57.3958 56.736C56.9356 56.4194 56.4001 56.2295 55.8432 56.1854C55.2863 56.1413 54.7276 56.2444 54.2232 56.4846C53.7189 56.7248 53.2867 57.0935 52.9699 57.5536C52.6532 58.0138 52.463 58.5491 52.4187 59.106L51.9148 65.34C51.8759 65.8258 51.7258 66.2962 51.4764 66.7149C51.2269 67.1336 50.8847 67.4894 50.476 67.7549C50.0673 68.0204 49.6031 68.1885 49.1191 68.2463C48.6352 68.304 48.1445 68.2499 47.6848 68.0881L46.1487 67.545C45.3729 67.2717 44.5214 67.3096 43.7729 67.6508C43.0244 67.992 42.4372 68.61 42.1348 69.375C41.9588 69.8201 41.6847 70.2198 41.3329 70.5443C40.9811 70.8688 40.5606 71.1098 40.1027 71.2493C39.6449 71.3889 39.1616 71.4234 38.6886 71.3503C38.2156 71.2772 37.7651 71.0983 37.3708 70.827L33.4708 68.127C33.2139 67.9483 32.9318 67.8088 32.6338 67.7131C33.6588 71.3963 35.4093 74.8376 37.7827 77.8349C40.1561 80.8322 43.1045 83.3251 46.4547 85.167L46.4728 85.1761Z" fill="#23B6E1"/>
<path d="M78.7859 69.8281C79.3055 68.3687 78.5463 66.7653 77.09 66.2467C75.6338 65.7282 74.0319 66.4909 73.5122 67.9503C72.9926 69.4097 73.7519 71.0132 75.2081 71.5317C76.6644 72.0503 78.2662 71.2875 78.7859 69.8281Z" fill="#23B6E1"/>
<path d="M66.3958 81.6756C66.9383 80.1522 66.1456 78.4785 64.6253 77.9371C63.105 77.3958 61.4329 78.1918 60.8904 79.7152C60.348 81.2386 61.1406 82.9125 62.6609 83.4538C64.1812 83.9952 65.8534 83.199 66.3958 81.6756Z" fill="#00ADDF"/>
<path d="M93.075 34.4676C93.25 34.4676 93.4179 34.3981 93.5417 34.2743C93.6654 34.1505 93.735 33.9826 93.735 33.8076C93.7354 33.7207 93.7186 33.6345 93.6857 33.5541C93.6527 33.4737 93.6042 33.4005 93.5428 33.3389C93.4815 33.2773 93.4085 33.2284 93.3282 33.1951C93.248 33.1617 93.1619 33.1445 93.075 33.1445C92.9883 33.1449 92.9026 33.1624 92.8227 33.1959C92.7428 33.2295 92.6701 33.2784 92.6091 33.34C92.5481 33.4016 92.4999 33.4745 92.467 33.5548C92.4342 33.635 92.4176 33.7209 92.418 33.8076C92.418 33.9821 92.4872 34.1495 92.6103 34.2732C92.7334 34.3969 92.9004 34.4668 93.075 34.4676Z" fill="#9E97F7"/>
<path d="M78.573 96.7808C78.6264 96.7808 78.6794 96.7702 78.7287 96.7497C78.778 96.7292 78.8228 96.6991 78.8604 96.6612C78.898 96.6232 78.9278 96.5782 78.948 96.5287C78.9682 96.4793 78.9784 96.4262 78.978 96.3728C78.9784 96.3194 78.9682 96.2664 78.948 96.2169C78.9278 96.1675 78.898 96.1224 78.8604 96.0845C78.8228 96.0466 78.778 96.0165 78.7287 95.996C78.6794 95.9754 78.6264 95.9648 78.573 95.9648C78.4648 95.9648 78.3611 96.0078 78.2846 96.0843C78.2081 96.1608 78.165 96.2646 78.165 96.3728C78.165 96.481 78.2081 96.5848 78.2846 96.6613C78.3611 96.7378 78.4648 96.7808 78.573 96.7808Z" fill="#9E97F7"/>
<path d="M23.4304 45.3179C23.5386 45.3179 23.6425 45.275 23.719 45.1985C23.7955 45.122 23.8384 45.0182 23.8384 44.91C23.8384 44.8018 23.7955 44.698 23.719 44.6215C23.6425 44.545 23.5386 44.502 23.4304 44.502C23.3222 44.502 23.2185 44.545 23.142 44.6215C23.0655 44.698 23.0225 44.8018 23.0225 44.91C23.0225 45.0182 23.0655 45.122 23.142 45.1985C23.2185 45.275 23.3222 45.3179 23.4304 45.3179Z" fill="#9E97F7"/>
<path opacity="0.1" d="M65.8786 31.696C64.2781 31.3787 62.6531 31.2017 61.022 31.167C65.2334 33.0371 68.9131 35.9298 71.7282 39.5833C76.2658 45.448 78.2988 52.8757 77.3817 60.2393C76.4647 67.603 72.6723 74.3023 66.8355 78.8697C63.9107 81.1571 58.7092 84.2982 52.3467 87.5866C53.1596 87.8271 53.9996 88.0315 54.8515 88.1878C58.5489 88.9123 62.3524 88.8993 66.0447 88.1493C69.737 87.3993 73.2456 85.9271 76.3695 83.817C79.4934 81.7069 82.1714 79.0003 84.2503 75.8521C86.3292 72.7039 87.7681 69.1758 88.4849 65.4697C89.9497 57.9879 88.3921 50.2294 84.1538 43.8973C79.9154 37.5652 73.3427 33.177 65.8786 31.696Z" fill="#0035BE"/>
<g style="mix-blend-mode:color">
<path d="M86.2408 71.8616C84.6804 75.2937 82.4562 78.3853 79.6955 80.9592C76.9349 83.5331 73.692 85.5388 70.1527 86.8614C66.6133 88.1839 62.8469 88.7974 59.0694 88.6667C55.2918 88.536 51.5773 87.6636 48.1384 86.0996C41.1909 82.9259 35.7893 77.135 33.1182 69.9966C30.4472 62.8583 30.7248 54.9552 33.8901 48.0206C35.4508 44.5887 37.6752 41.4974 40.4359 38.9237C43.1967 36.35 46.4394 34.3445 49.9786 33.022C53.5179 31.6994 57.2841 31.0859 61.0615 31.2164C64.8389 31.3469 68.5534 32.219 71.9923 33.7826C78.9399 36.9563 84.3414 42.7472 87.0125 49.8856C89.6835 57.0239 89.406 64.9269 86.2408 71.8616Z" fill="#48C8D8"/>
</g>
<path opacity="0.5" d="M86.5406 71.8616C84.9802 75.2937 82.756 78.3853 79.9953 80.9592C77.2347 83.5331 73.9918 85.5388 70.4525 86.8614C66.9131 88.1839 63.1467 88.7974 59.3692 88.6667C55.5917 88.536 51.8771 87.6636 48.4383 86.0996C41.4907 82.9259 36.0891 77.135 33.418 69.9966C30.747 62.8583 31.0246 54.9552 34.1899 48.0206C35.7506 44.5887 37.975 41.4974 40.7357 38.9237C43.4965 36.35 46.7392 34.3445 50.2784 33.022C53.8177 31.6994 57.5839 31.0859 61.3613 31.2164C65.1387 31.3469 68.8532 32.219 72.2921 33.7826C79.2397 36.9563 84.6413 42.7472 87.3123 49.8856C89.9833 57.0239 89.7058 64.9269 86.5406 71.8616Z" fill="url(#paint0_radial_3888_146877)"/>
<path d="M92.8543 34.3504C93.0293 34.3504 93.1972 34.2809 93.321 34.1571C93.4447 34.0333 93.5143 33.8654 93.5143 33.6904C93.5147 33.6035 93.4979 33.5173 93.4649 33.4369C93.432 33.3565 93.3835 33.2833 93.3221 33.2217C93.2608 33.1601 93.1878 33.1112 93.1075 33.0779C93.0273 33.0445 92.9412 33.0273 92.8543 33.0273C92.7676 33.0277 92.6819 33.0452 92.602 33.0788C92.5221 33.1123 92.4494 33.1613 92.3884 33.2228C92.3274 33.2844 92.2791 33.3573 92.2463 33.4376C92.2135 33.5178 92.1969 33.6037 92.1973 33.6904C92.1973 33.8649 92.2665 34.0323 92.3896 34.156C92.5127 34.2797 92.6797 34.3496 92.8543 34.3504Z" fill="#9E97F7"/>
<path d="M78.3523 96.6636C78.4057 96.6636 78.4587 96.6531 78.508 96.6325C78.5573 96.612 78.6021 96.5819 78.6397 96.544C78.6773 96.506 78.7071 96.461 78.7273 96.4115C78.7475 96.3621 78.7577 96.3091 78.7573 96.2556C78.7577 96.2022 78.7475 96.1492 78.7273 96.0998C78.7071 96.0503 78.6773 96.0053 78.6397 95.9673C78.6021 95.9294 78.5573 95.8993 78.508 95.8788C78.4587 95.8582 78.4057 95.8477 78.3523 95.8477C78.2441 95.8477 78.1404 95.8906 78.0639 95.9671C77.9874 96.0436 77.9443 96.1474 77.9443 96.2556C77.9443 96.3638 77.9874 96.4676 78.0639 96.5441C78.1404 96.6206 78.2441 96.6636 78.3523 96.6636Z" fill="#9E97F7"/>
<path d="M23.2087 45.2017C23.3169 45.2017 23.4208 45.1588 23.4973 45.0823C23.5738 45.0058 23.6167 44.902 23.6167 44.7938C23.6167 44.6856 23.5738 44.5818 23.4973 44.5053C23.4208 44.4288 23.3169 44.3857 23.2087 44.3857C23.1005 44.3857 22.9968 44.4288 22.9203 44.5053C22.8438 44.5818 22.8008 44.6856 22.8008 44.7938C22.8008 44.902 22.8438 45.0058 22.9203 45.0823C22.9968 45.1588 23.1005 45.2017 23.2087 45.2017Z" fill="#9E97F7"/>
<g opacity="0.3">
<path opacity="0.3" d="M30.1839 72.16C29.8618 72.1974 29.5354 72.1604 29.2299 72.0519C28.9633 71.9617 28.7177 71.8188 28.5074 71.6318C28.2971 71.4447 28.1266 71.2173 28.006 70.963C27.8821 70.7093 27.8094 70.4337 27.7921 70.1519C27.7748 69.8701 27.8133 69.5877 27.9052 69.3207C27.9972 69.0538 28.1408 68.8076 28.328 68.5962C28.5151 68.3849 28.7421 68.2125 28.9959 68.089C29.2489 67.9634 29.5248 67.8902 29.8067 67.8737C30.0887 67.8572 30.3711 67.8978 30.637 67.9929C30.9041 68.0828 31.1504 68.2256 31.3612 68.4127C31.572 68.5998 31.743 68.8274 31.8639 69.082C32.1135 69.5949 32.1493 70.1858 31.9637 70.7252C31.7781 71.2645 31.3863 71.7082 30.874 71.9589C30.6547 72.0584 30.4223 72.1262 30.1839 72.16ZM29.7099 68.113C29.4949 68.1382 29.2859 68.2001 29.0919 68.2959C28.6356 68.5183 28.2864 68.9129 28.121 69.3928C27.9556 69.8727 27.9875 70.3986 28.2099 70.855C28.4328 71.3093 28.8248 71.6582 29.3019 71.8269C29.7812 71.9926 30.3067 71.9613 30.763 71.7399C31.2187 71.5169 31.5674 71.1224 31.7327 70.6427C31.898 70.163 31.8665 69.6374 31.645 69.1809C31.5371 68.9547 31.3851 68.7523 31.1982 68.5854C31.0112 68.4185 30.793 68.2905 30.556 68.2089C30.2856 68.1104 29.9955 68.0776 29.7099 68.113Z" fill="#9E97F7"/>
<path opacity="0.3" d="M31.7824 76.8368L31.0324 75.2888L30.9034 75.3158C30.4767 75.3905 30.043 75.4176 29.6104 75.3968H29.4754L28.9175 77.0228H28.8185C28.0162 76.8867 27.2423 76.617 26.5293 76.2248L26.4394 76.1768L26.9974 74.5508L26.8925 74.4758C26.5338 74.2294 26.2071 73.9391 25.9204 73.6118L25.8365 73.5128L24.2974 74.2598L24.2375 74.1818C24.0044 73.8521 23.7987 73.504 23.6224 73.1408C23.4428 72.777 23.2973 72.3974 23.1875 72.0068L23.1634 71.9138L24.7055 71.1638L24.6784 71.0348C24.6032 70.6062 24.5771 70.1703 24.6004 69.7358V69.6038L22.9805 69.0428V68.9438C23.1144 68.14 23.382 67.3642 23.7724 66.6488L23.8235 66.5588L25.4464 67.1198L25.5185 67.0148C25.7624 66.6541 26.0529 66.3273 26.3824 66.0428L26.4814 65.9588L25.7314 64.4108L25.8094 64.3538C26.14 64.1231 26.4869 63.9165 26.8474 63.7358C27.2115 63.5593 27.5898 63.4138 27.9784 63.3008L28.0745 63.2798L28.8214 64.8248L28.9504 64.7978C29.3781 64.7231 29.8127 64.6959 30.2464 64.7168H30.3784L30.9365 63.0908H31.0354C31.8379 63.224 32.6121 63.4928 33.3245 63.8858L33.4144 63.9368L32.8564 65.5628L32.9615 65.6348C33.3215 65.8807 33.6481 66.1721 33.9334 66.5018L34.0175 66.6008L35.5594 65.8508L35.6164 65.9288C35.8462 66.2605 36.0518 66.6084 36.2314 66.9698C36.413 67.3327 36.5586 67.7126 36.6664 68.1038L36.6904 68.1998L35.1485 68.9468L35.1754 69.0758C35.2501 69.5045 35.2773 69.9402 35.2564 70.3748V70.5098L36.8793 71.0678L36.8644 71.1668C36.7328 71.9713 36.4649 72.7473 36.0724 73.4618L36.0214 73.5518L34.4014 72.9908L34.3293 73.0988C34.0821 73.4568 33.792 73.7832 33.4654 74.0708L33.3664 74.1548L34.1134 75.6998L34.0354 75.7568C33.7068 75.9908 33.3596 76.1975 32.9974 76.3748C32.6346 76.5544 32.256 76.7 31.8664 76.8098L31.7824 76.8368ZM31.1824 75.0188L31.9293 76.5548C32.2732 76.4492 32.6083 76.3167 32.9314 76.1588C33.2537 76.0003 33.5635 75.8178 33.8584 75.6128L33.1115 74.0798L33.3543 73.8698C33.6614 73.5916 33.9363 73.2796 34.1735 72.9398L34.3474 72.6758L35.9584 73.2398C36.2948 72.6023 36.5325 71.9175 36.6634 71.2088L35.0524 70.6478L35.0735 70.3298C35.0977 69.9154 35.0734 69.4996 35.0014 69.0908L34.9414 68.7908L36.4714 68.0438C36.3697 67.701 36.2381 67.3677 36.0784 67.0478C35.9198 66.7262 35.7383 66.4164 35.5354 66.1208L34.0055 66.8678L33.7954 66.6248C33.5172 66.3168 33.2052 66.041 32.8654 65.8028L32.6043 65.6288L33.1654 64.0148C32.5297 63.6762 31.8458 63.4374 31.1375 63.3068L30.5793 64.9208L30.2615 64.8968C29.8491 64.8741 29.4353 64.8983 29.0284 64.9688L28.7284 65.0318L27.9844 63.4958C27.6395 63.6013 27.3035 63.7337 26.9793 63.8918C26.6581 64.0511 26.3484 64.2325 26.0524 64.4348L26.7995 65.9708L26.5594 66.1808C26.2513 66.4589 25.9757 66.7709 25.7375 67.1108L25.5634 67.3718L23.9524 66.8108C23.6157 67.4478 23.379 68.1328 23.2504 68.8418L24.8615 69.4028L24.8375 69.7208C24.8132 70.1342 24.8373 70.549 24.9094 70.9568L24.9694 71.2568L23.4394 72.0038C23.5435 72.3462 23.6759 72.6794 23.8354 72.9998C23.9923 73.3223 24.1739 73.6322 24.3784 73.9268L25.9084 73.1798L26.1154 73.4198C26.3934 73.7289 26.7054 74.0056 27.0454 74.2448L27.3064 74.4188L26.7485 76.0328C27.3831 76.3714 28.0661 76.6102 28.7735 76.7408L29.3344 75.1268L29.6495 75.1478C30.0629 75.1721 30.4776 75.1479 30.8854 75.0758L31.1824 75.0188Z" fill="#9E97F7"/>
</g>
<path opacity="0.3" d="M83.5389 42.3993C83.4951 42.4052 83.4507 42.4052 83.4069 42.3993C83.0341 42.3636 82.6903 42.1825 82.4499 41.8953C82.3304 41.7526 82.2402 41.5877 82.1846 41.4101C82.129 41.2325 82.1091 41.0456 82.1259 40.8603C82.1615 40.4866 82.3424 40.1418 82.6298 39.9003C82.881 39.6875 83.2006 39.5724 83.5298 39.5763C83.7388 39.5752 83.9455 39.621 84.1345 39.7103C84.3235 39.7996 84.49 39.9301 84.6218 40.0923C84.7413 40.2344 84.8314 40.3988 84.887 40.5759C84.9426 40.753 84.9626 40.9394 84.9459 41.1243C84.9111 41.4991 84.7299 41.8451 84.4418 42.0873C84.1857 42.2921 83.8668 42.4023 83.5389 42.3993ZM83.5389 39.8643C83.2811 39.8651 83.0313 39.954 82.8309 40.1163C82.7186 40.21 82.6259 40.325 82.5585 40.4548C82.491 40.5846 82.4501 40.7265 82.4379 40.8723C82.4241 41.0187 82.4392 41.1663 82.4824 41.3068C82.5257 41.4474 82.5961 41.578 82.6899 41.6913C82.7821 41.8047 82.8965 41.8982 83.0259 41.9663C83.1553 42.0344 83.2972 42.0755 83.4429 42.0873C83.5889 42.1013 83.736 42.0862 83.8761 42.0429C84.0161 41.9997 84.1462 41.9291 84.2589 41.8353C84.3722 41.7416 84.4657 41.6262 84.5337 41.4959C84.6017 41.3655 84.6428 41.2228 84.6548 41.0763C84.6688 40.9303 84.6538 40.7831 84.6106 40.643C84.5673 40.503 84.4967 40.3729 84.4029 40.2603C84.2962 40.1355 84.1637 40.0355 84.0145 39.9671C83.8653 39.8987 83.703 39.8636 83.5389 39.8643Z" fill="#9E97F7"/>
<path opacity="0.3" d="M83.4513 45.7257C83.0717 45.7261 82.6936 45.6777 82.3263 45.5817L82.2303 45.5577L82.3383 44.4178L82.2183 44.3697C81.9511 44.2692 81.6972 44.1362 81.4623 43.9738L81.3542 43.9017L80.4782 44.6338L80.4063 44.5618C80.2264 44.4018 80.0579 44.2294 79.9023 44.0458C79.7497 43.8555 79.6104 43.6551 79.4852 43.4458L79.4373 43.3618L80.3102 42.6297L80.2503 42.5097C80.1321 42.2495 80.0475 41.9753 79.9984 41.6937L79.9743 41.5618L78.8373 41.4537V41.3428C78.8031 40.8628 78.8477 40.3804 78.9693 39.9148L78.9933 39.8187L80.1303 39.9267L80.1782 39.7947C80.2794 39.5268 80.4125 39.272 80.5743 39.0357L80.6463 38.9278L79.9143 38.0517L79.9864 37.9797C80.1463 37.7998 80.3186 37.6314 80.5023 37.4757C80.6922 37.3218 80.8927 37.1815 81.1023 37.0558L81.1864 37.0047L81.9183 37.8838L82.0383 37.8238C82.2977 37.706 82.5708 37.6213 82.8513 37.5717L82.9833 37.5477L83.0912 36.4047H83.1993C83.6794 36.3705 84.1617 36.4151 84.6273 36.5368L84.7234 36.5607L84.6153 37.7037L84.7352 37.7517C85.0007 37.8542 85.2534 37.9871 85.4883 38.1477L85.5963 38.2197L86.4722 37.4877L86.5443 37.5597C86.7242 37.7197 86.8927 37.8921 87.0484 38.0757C87.2023 38.2656 87.3426 38.4661 87.4683 38.6757L87.5162 38.7597L86.6403 39.4947L86.7003 39.6148C86.8185 39.875 86.9032 40.1492 86.9523 40.4308L86.9763 40.5627L88.1162 40.6708V40.7787C88.1504 41.2597 88.1058 41.7431 87.9843 42.2097L87.9602 42.3058L86.8203 42.1977L86.7722 42.3297C86.6691 42.5958 86.5363 42.8494 86.3763 43.0857L86.3042 43.1937L87.0364 44.0727L86.9643 44.1447C86.8044 44.3247 86.632 44.4931 86.4484 44.6488C86.2585 44.8027 86.058 44.943 85.8484 45.0687L85.7643 45.1167L85.0352 44.2407L84.9153 44.3007C84.655 44.4189 84.3809 44.5036 84.0993 44.5528L83.9674 44.5767L83.8593 45.7167H83.7513C83.6516 45.7255 83.5514 45.7285 83.4513 45.7257ZM82.4823 45.3778C82.8592 45.4625 83.2453 45.4987 83.6313 45.4857L83.7393 44.3697L84.0393 44.3097C84.3001 44.2607 84.554 44.1801 84.7953 44.0697L85.0953 43.9377L85.8123 44.8017C85.9751 44.6995 86.1314 44.5873 86.2803 44.4657C86.429 44.3432 86.5693 44.2109 86.7003 44.0697L85.9803 43.2028L86.1602 42.9387C86.3146 42.72 86.4397 42.482 86.5323 42.2308L86.6403 41.9308L87.7563 42.0387C87.8409 41.6598 87.8771 41.2718 87.8643 40.8838L86.7484 40.7757L86.6883 40.4757C86.6393 40.2149 86.5588 39.961 86.4484 39.7197L86.3162 39.4197L87.1803 38.6967C87.0781 38.534 86.9659 38.3777 86.8443 38.2287C86.7218 38.0801 86.5896 37.9398 86.4484 37.8088L85.5843 38.5287L85.3234 38.3488C85.1046 38.1944 84.8665 38.0693 84.6153 37.9767L84.3153 37.8687L84.4234 36.7497C84.0454 36.6657 83.6583 36.6294 83.2713 36.6417L83.1633 37.7607L82.8633 37.8327C82.6036 37.8823 82.3507 37.9628 82.1102 38.0727L81.8102 38.2047L81.0903 37.3407C80.9275 37.443 80.7712 37.5552 80.6222 37.6767C80.4736 37.7992 80.3333 37.9315 80.2023 38.0727L80.9222 38.9368L80.7424 39.2007C80.5885 39.4209 80.4634 39.6599 80.3703 39.9118L80.2623 40.2118L79.1493 40.1037C79.0648 40.4816 79.0284 40.8687 79.0412 41.2558L80.1542 41.3637L80.2143 41.6637C80.2633 41.9245 80.3438 42.1784 80.4542 42.4197L80.5864 42.7197L79.7253 43.4398C79.8248 43.6046 79.9361 43.7619 80.0583 43.9107C80.1808 44.0594 80.313 44.1997 80.4542 44.3308L81.3183 43.6107L81.5823 43.7907C81.801 43.9451 82.039 44.0702 82.2903 44.1627L82.5903 44.2708L82.4823 45.3778Z" fill="#9E97F7"/>
<path d="M66.4443 27.3634L66.6723 26.4273L70.6413 24.9844L70.4013 25.9684L67.2723 27.0634L69.5734 29.4634L69.3333 30.4474L66.4443 27.3634Z" fill="#9E97F7"/>
<path d="M36.6333 83.5144C36.8751 83.4647 37.125 83.4713 37.3638 83.5338C37.6026 83.5962 37.8237 83.7128 38.0102 83.8744C38.4735 84.2874 38.7684 84.8567 38.8383 85.4734C38.9926 86.0781 38.92 86.7185 38.6343 87.2734C38.5178 87.493 38.3527 87.6832 38.1515 87.8293C37.9502 87.9754 37.7183 88.0736 37.4734 88.1164C37.2311 88.1652 36.9808 88.1581 36.7417 88.0957C36.5026 88.0333 36.2809 87.9173 36.0934 87.7564C35.6318 87.3405 35.3338 86.7734 35.2533 86.1574C35.0987 85.5526 35.1713 84.9122 35.4573 84.3574C35.5795 84.1392 35.7482 83.9505 35.9514 83.8048C36.1546 83.6591 36.3874 83.56 36.6333 83.5144ZM36.7773 84.2944C36.6284 84.3211 36.4896 84.3876 36.3755 84.4869C36.2614 84.5862 36.1762 84.7146 36.1292 84.8584C36.0087 85.2277 35.9922 85.6232 36.0813 86.0014C36.1444 86.3818 36.3011 86.7406 36.5373 87.0454C36.6326 87.1623 36.7573 87.2517 36.8986 87.3044C37.0399 87.3571 37.1927 87.3713 37.3413 87.3454C37.491 87.3217 37.6311 87.2563 37.7453 87.1565C37.8594 87.0567 37.943 86.9267 37.9864 86.7814C38.1007 86.4161 38.1171 86.0271 38.0343 85.6534C37.9768 85.271 37.8207 84.9101 37.5813 84.6064C37.4937 84.4802 37.3703 84.383 37.227 84.3274C37.0837 84.2718 36.9271 84.2603 36.7773 84.2944Z" fill="#9E97F7"/>
<path d="M93.7893 61.8632C93.8047 61.8644 93.8196 61.869 93.833 61.8766C93.8464 61.8843 93.8579 61.8947 93.8668 61.9073C93.8757 61.9199 93.8817 61.9343 93.8844 61.9495C93.8871 61.9647 93.8863 61.9803 93.8823 61.9951L93.0333 66.9481C93.0325 66.9638 93.0282 66.979 93.0207 66.9927C93.0133 67.0065 93.0029 67.0184 92.9902 67.0276C92.9776 67.0368 92.963 67.0431 92.9476 67.046C92.9322 67.0489 92.9164 67.0482 92.9013 67.0442L92.1453 66.9122C92.1297 66.9121 92.1144 66.9081 92.1008 66.9006C92.0872 66.8931 92.0756 66.8823 92.0672 66.8691C92.0589 66.856 92.0539 66.8409 92.0529 66.8254C92.0518 66.8099 92.0549 66.7943 92.0614 66.7801L92.7934 62.5141L91.9413 62.3701C91.9255 62.3689 91.9103 62.3642 91.8966 62.3564C91.8828 62.3487 91.8709 62.338 91.8617 62.3251C91.8526 62.3122 91.8464 62.2975 91.8436 62.282C91.8407 62.2664 91.8413 62.2504 91.8453 62.2352L91.9413 61.6592C91.9421 61.6436 91.9464 61.6283 91.9539 61.6146C91.9613 61.6008 91.9718 61.5888 91.9845 61.5796C91.9971 61.5704 92.0116 61.5642 92.027 61.5613C92.0423 61.5585 92.0583 61.5591 92.0734 61.5632L93.7893 61.8632Z" fill="#9E97F7"/>
<path opacity="0.3" d="M83.0705 75.168H77.8926V75.6479H83.0705V75.168Z" fill="#9E97F7"/>
<path opacity="0.3" d="M80.6736 77.5234H77.8926V78.0035H80.6736V77.5234Z" fill="#9E97F7"/>
<path opacity="0.3" d="M83.0705 79.8779H77.8926V80.3579H83.0705V79.8779Z" fill="#9E97F7"/>
<path opacity="0.3" d="M81.8736 82.2217H77.8926V82.7016H81.8736V82.2217Z" fill="#9E97F7"/>
<path opacity="0.3" d="M80.6736 84.5762H77.8926V85.0562H80.6736V84.5762Z" fill="#9E97F7"/>
<path opacity="0.3" d="M84.2705 86.9316H77.8926V87.4116H84.2705V86.9316Z" fill="#9E97F7"/>
<path opacity="0.3" d="M80.6736 89.2861H77.8926V89.7632H80.6736V89.2861Z" fill="#9E97F7"/>
<path opacity="0.3" d="M89.9045 75.168H84.7266V75.6479H89.9045V75.168Z" fill="#9E97F7"/>
<path opacity="0.3" d="M87.5072 77.5234H82.3291V78.0035H87.5072V77.5234Z" fill="#9E97F7"/>
<path opacity="0.3" d="M91.1016 79.8779H84.7266V80.3579H91.1016V79.8779Z" fill="#9E97F7"/>
<path opacity="0.3" d="M89.9043 82.2217H83.5264V82.7016H89.9043V82.2217Z" fill="#9E97F7"/>
<path opacity="0.3" d="M87.5072 84.5762H82.3291V85.0562H87.5072V84.5762Z" fill="#9E97F7"/>
<path opacity="0.3" d="M91.1047 86.9316H85.9238V87.4116H91.1047V86.9316Z" fill="#9E97F7"/>
<path opacity="0.3" d="M89.9041 89.2861H82.3291V89.7632H89.9041V89.2861Z" fill="#9E97F7"/>
<path opacity="0.3" d="M76.5875 75.5166H76.1074V90.3216H76.5875V75.5166Z" fill="#9E97F7"/>
<path opacity="0.3" d="M37.0295 28.6475H31.8516V29.1274H37.0295V28.6475Z" fill="#9E97F7"/>
<path opacity="0.3" d="M34.6326 31.002H31.8516V31.482H34.6326V31.002Z" fill="#9E97F7"/>
<path opacity="0.3" d="M37.0295 33.3457H31.8516V33.8257H37.0295V33.3457Z" fill="#9E97F7"/>
<path opacity="0.3" d="M35.8293 35.7002H33.6514V36.1802H35.8324L35.8293 35.7002Z" fill="#9E97F7"/>
<path opacity="0.3" d="M38.2264 38.0547H33.6514V38.5347H38.2293L38.2264 38.0547Z" fill="#9E97F7"/>
<path opacity="0.3" d="M35.8293 40.4102H33.6514V40.8932H35.8324L35.8293 40.4102Z" fill="#9E97F7"/>
<path opacity="0.3" d="M39.5463 42.7656H33.6514V43.2636H39.5494L39.5463 42.7656Z" fill="#9E97F7"/>
<path opacity="0.3" d="M43.8518 28.6475H38.6738V29.1274H43.8518V28.6475Z" fill="#9E97F7"/>
<path opacity="0.3" d="M41.4514 31.002H36.2734V31.482H41.4514V31.002Z" fill="#9E97F7"/>
<path opacity="0.3" d="M45.0518 33.3457H38.6738V33.8257H45.0518V33.3457Z" fill="#9E97F7"/>
<path opacity="0.3" d="M43.8516 35.7002H37.4766V36.1802H43.8516V35.7002Z" fill="#9E97F7"/>
<path opacity="0.3" d="M41.4511 38.0547H39.8701V38.5347H41.4511V38.0547Z" fill="#9E97F7"/>
<path opacity="0.3" d="M45.0516 40.4102H37.4766V40.8932H45.0516V40.4102Z" fill="#9E97F7"/>
<path opacity="0.3" d="M43.8515 42.7656H41.1904V43.2636H43.8515V42.7656Z" fill="#9E97F7"/>
<path opacity="0.3" d="M37.0293 44.9521H33.6514V45.4352H37.0324L37.0293 44.9521Z" fill="#9E97F7"/>
<path opacity="0.3" d="M38.2264 47.3076H33.6514V47.7906H38.2293L38.2264 47.3076Z" fill="#9E97F7"/>
<path opacity="0.3" d="M35.8293 49.665H33.6514V50.145H35.8324L35.8293 49.665Z" fill="#9E97F7"/>
<path opacity="0.3" d="M41.4509 44.9521H38.6699V45.4352H41.4509V44.9521Z" fill="#9E97F7"/>
<path opacity="0.3" d="M45.052 47.3076H39.874V47.7906H45.052V47.3076Z" fill="#9E97F7"/>
<path opacity="0.3" d="M43.8516 49.665H37.4766V50.145H43.8516V49.665Z" fill="#9E97F7"/>
<path opacity="0.3" d="M32.271 35.9404H31.791V50.1454H32.271V35.9404Z" fill="#9E97F7"/>
<path opacity="0.3" d="M30.5074 28.959H30.0273V50.1449H30.5074V28.959Z" fill="#9E97F7"/>
<path opacity="0.1" fill-rule="evenodd" clip-rule="evenodd" d="M66.0906 48.9509L66.0897 48.9534L63.2654 61.0962L59.6406 61.0994L59.6405 61.0996L63.2657 61.0964L60.5219 72.8476L56.9896 72.8449L56.9877 72.8532L55.5201 72.8438L55.4841 72.8438L55.4842 72.8436L55.4841 72.8436L55.5035 72.7604L58.2143 61.1009L58.2206 61.1009L58.2206 61.1007L58.2144 61.1007L58.2141 61.1007L61.05 48.9579L61.0503 48.9579L66.0903 48.9509L66.0906 48.9509ZM79.5601 60.3974L79.5646 60.4L79.5603 58.746L67.2964 51.4045L67.3242 56.9439L67.3249 56.9443L68.7886 57.7594L68.7886 57.7583L74.7701 61.0847L67.3629 65.2408L67.3874 70.745L67.396 70.7399L67.3961 70.7584L79.577 63.3987L79.5649 61.0886L79.5646 61.0886L79.5601 60.3974ZM42.0008 58.7756L54.1817 51.4159L54.1916 53.2434L54.1909 53.2438L54.2095 56.9553L46.8023 61.1114L46.8024 61.1114L54.2568 65.2657L54.2813 70.7699L42.0284 63.431L42.0163 61.1209L42.0162 61.1209L42.0008 58.7756Z" fill="#191234"/>
<path d="M41.7582 61.9312L51.257 67.6701C52.1574 68.2204 53.3166 67.569 53.3166 66.5134V64.1661C53.3166 63.6832 53.0577 63.234 52.6301 62.9869L45.8999 59.2022L41.1055 58.1914V60.7745C41.1055 61.2462 41.3531 61.6842 41.7582 61.9312Z" fill="#191234"/>
<path d="M73.822 59.2027L67.0918 62.9874C66.6641 63.2232 66.4053 63.6725 66.4053 64.1666V66.5138C66.4053 67.5695 67.5532 68.2097 68.4648 67.6706L77.9636 61.9317C78.3688 61.6846 78.6164 61.2466 78.6164 60.775V58.1133L73.822 59.2027Z" fill="#191234"/>
<path d="M56.2094 71.0056H58.4603C59.0905 71.0056 59.6307 70.5788 59.777 69.9612L62.3206 59.2021H57.2898L54.8926 69.3435C54.69 70.197 55.3428 71.0056 56.2094 71.0056Z" fill="#191234"/>
<path d="M59.9343 48.0503L57.3008 59.2136H62.3315L64.8188 48.668C65.0214 47.8145 64.3686 47.0059 63.502 47.0059H61.2511C60.6209 47.0059 60.0694 47.4326 59.9343 48.0503Z" fill="#4B27F8"/>
<path d="M53.3053 64.1773C53.3053 63.6944 53.0465 63.2452 52.6188 62.9981L45.8886 59.2134L52.6188 55.4286C53.0465 55.1928 53.3053 54.7436 53.3053 54.2494V51.8685C53.3053 50.8128 52.1574 50.1727 51.2458 50.7117L41.7582 56.4619C41.3531 56.7089 41.1055 57.1469 41.1055 57.6186V58.5283L53.3053 65.4015V64.1773Z" fill="#4B27F8"/>
<path d="M78.6052 57.6185C78.6052 57.1468 78.3576 56.7088 77.9524 56.4617L68.4648 50.7116C67.5645 50.1613 66.4053 50.8127 66.4053 51.8684V54.2493C66.4053 54.7322 66.6641 55.1814 67.0918 55.4285L73.822 59.2132L67.0918 62.998C66.6641 63.2338 66.4053 63.683 66.4053 64.1772V65.4126L78.6052 58.4608V57.6185Z" fill="#4B27F8"/>
<path fill-rule="evenodd" clip-rule="evenodd" d="M63.5018 47.7471H63.9069C63.8282 48.1065 63.5018 48.3648 63.1304 48.3535L62.1625 48.3423C61.7911 48.3423 61.4647 48.6006 61.3859 48.96L56.3327 71.0059H56.2089C55.331 71.0059 54.6895 70.1972 54.8921 69.3437L59.9341 48.0503C60.0692 47.4326 60.6206 47.0059 61.2509 47.0059H63.378C63.7606 47.0059 63.6256 47.3877 63.5018 47.7471Z" fill="#4B27F8"/>
<defs>
<radialGradient id="paint0_radial_3888_146877" cx="0" cy="0" r="1" gradientUnits="userSpaceOnUse" gradientTransform="translate(50.9224 48.4165) rotate(45.6923) scale(40.7386 40.8094)">
<stop offset="0.09" stop-color="#ACECFF" stop-opacity="0"/>
<stop offset="0.35" stop-color="#3EC8F0" stop-opacity="0.3"/>
<stop offset="0.69" stop-color="#29A9CE" stop-opacity="0.3"/>
<stop offset="0.98" stop-color="#005E93" stop-opacity="0.5"/>
</radialGradient>
</defs>
</svg>
