<svg width="120" height="120" viewBox="0 0 120 120" fill="none" xmlns="http://www.w3.org/2000/svg">
<path d="M93.1827 33.8277C93.5469 33.8277 93.842 33.5318 93.842 33.1668C93.842 32.8018 93.5469 32.5059 93.1827 32.5059C92.8186 32.5059 92.5234 32.8018 92.5234 33.1668C92.5234 33.5318 92.8186 33.8277 93.1827 33.8277Z" fill="#9E97F7"/>
<path d="M78.6908 96.1452C78.9159 96.1452 79.0983 95.9623 79.0983 95.7367C79.0983 95.511 78.9159 95.3281 78.6908 95.3281C78.4657 95.3281 78.2832 95.511 78.2832 95.7367C78.2832 95.9623 78.4657 96.1452 78.6908 96.1452Z" fill="#9E97F7"/>
<path d="M23.5374 44.6784C23.7625 44.6784 23.945 44.4955 23.945 44.2699C23.945 44.0442 23.7625 43.8613 23.5374 43.8613C23.3124 43.8613 23.1299 44.0442 23.1299 44.2699C23.1299 44.4955 23.3124 44.6784 23.5374 44.6784Z" fill="#9E97F7"/>
<mask id="mask0_3888_146883" style="mask-type:alpha" maskUnits="userSpaceOnUse" x="31" y="31" width="58" height="58">
<path d="M80.3584 80.3649C91.6061 69.1171 91.6061 50.8809 80.3584 39.6332C69.1106 28.3854 50.8744 28.3854 39.6266 39.6332C28.3789 50.8809 28.3789 69.1171 39.6266 80.3649C50.8744 91.6127 69.1106 91.6127 80.3584 80.3649Z" fill="white"/>
</mask>
<g mask="url(#mask0_3888_146883)">
<path d="M80.3584 80.3649C91.6061 69.1171 91.6061 50.8809 80.3584 39.6332C69.1106 28.3854 50.8744 28.3854 39.6266 39.6332C28.3789 50.8809 28.3789 69.1171 39.6266 80.3649C50.8744 91.6127 69.1106 91.6127 80.3584 80.3649Z" fill="#C1402C"/>
<path d="M77.5772 43.8821C83.1541 58.7781 75.5854 75.376 60.6895 80.9529C45.7936 86.5298 -12.7036 94.6296 -18.2805 79.7216C-23.8574 64.8137 25.5984 32.5593 40.5064 26.9945C55.4144 21.4297 72.0003 28.9862 77.5772 43.8821Z" fill="#EE5827"/>
<path opacity="0.5" d="M73.4491 92.0948C70.6366 92.0948 67.8119 91.5637 65.1441 90.4894C59.6397 88.2924 55.2457 83.995 52.916 78.5509C50.5862 73.1068 50.5138 66.9625 52.7108 61.458C54.9077 55.9536 59.2051 51.5596 64.6492 49.2299C66.6289 48.3849 68.5965 47.4916 70.4796 46.5984C78.1086 42.9649 84.6875 39.0538 89.528 35.2876C94.1996 31.6421 100.127 30.0125 106.005 30.7368C111.884 31.461 117.232 34.4909 120.877 39.1625C124.523 43.834 126.152 49.761 125.428 55.6397C124.704 61.5184 121.674 66.866 117.002 70.5115C109.542 76.3298 100.356 81.8584 89.697 86.9283C87.2707 88.0751 84.772 89.2098 82.237 90.2962C79.4365 91.4913 76.4428 92.0948 73.4491 92.0948Z" fill="#D8491A"/>
<path opacity="0.5" d="M41.955 92.951C41.6532 93.0596 41.3394 93.1683 41.0255 93.2528C30.427 96.1982 20.6734 97.9243 12.0425 98.3831C5.88615 98.709 0.623086 93.9891 0.297163 87.8328C-0.0287603 81.6765 4.69109 76.4134 10.8474 76.0875C17.7642 75.7133 26.1417 74.2164 35.0382 71.7418C40.9772 70.0881 47.1336 73.5646 48.7873 79.5036C50.3566 85.1288 47.3146 90.9351 41.955 92.951Z" fill="#D8491A"/>
<path opacity="0.6" d="M23.2199 97.2485C18.7898 97.2485 15.1442 96.7777 12.3558 95.8483C10.9555 95.3775 10.195 93.8686 10.6658 92.4562C11.1366 91.0439 12.6455 90.2955 14.0578 90.7663C16.0617 91.4302 19.9124 92.1545 26.8171 91.7923C37.9589 91.2008 51.9857 88.014 66.3263 82.8113C67.7145 82.3043 69.2596 83.0286 69.7545 84.4168C70.2615 85.805 69.5372 87.3501 68.149 87.845C53.3256 93.2167 38.7435 96.5122 27.0948 97.1278C25.7428 97.2123 24.4512 97.2485 23.2199 97.2485Z" fill="#EE5827"/>
<path d="M10.7626 60.1294C6.04272 60.1294 2.1075 56.4356 1.854 51.6674C1.58844 46.7424 5.36673 42.5295 10.3039 42.276C21.3732 41.6845 35.4362 38.377 49.9096 32.9691C54.5329 31.2429 59.6752 33.5847 61.4014 38.208C63.1276 42.8313 60.7858 47.9736 56.1625 49.6998C40.0474 55.7234 24.0892 59.4293 11.2575 60.1052C11.0764 60.1294 10.9195 60.1294 10.7626 60.1294Z" fill="#FF8666" fill-opacity="0.3"/>
<path opacity="0.2" d="M11.5832 70.6197C6.62197 70.6197 2.48154 70.0764 -0.765625 68.99L3.82144 55.2168C5.16135 55.6634 8.3723 56.3515 14.8908 56.0135C26.1291 55.4099 40.3731 52.0782 54.9914 46.61C69.6097 41.1417 82.55 34.3094 91.4224 27.3926C96.5648 23.3849 98.5324 20.7413 99.2446 19.5342L111.738 26.9218C109.541 30.6518 105.703 34.6594 100.331 38.8482C90.3239 46.6462 76.0195 54.239 60.0613 60.2022C44.0911 66.1774 28.3261 69.835 15.6513 70.511C14.251 70.5834 12.8869 70.6197 11.5832 70.6197Z" fill="#FF8666"/>
<path opacity="0.5" d="M17.4621 65.0068C16.8706 65.0068 16.3757 64.5481 16.3516 63.9445C16.3154 63.3289 16.7861 62.7978 17.4018 62.7736C25.0429 62.3632 34.1566 60.7336 43.7533 58.0659C46.0347 57.4261 48.3766 56.7259 50.6942 55.9775C51.2857 55.7844 51.9134 56.1103 52.0945 56.7018C52.2756 57.2933 51.9617 57.921 51.3702 58.1021C49.0163 58.8626 46.6504 59.5627 44.3448 60.2145C34.5912 62.9306 25.3205 64.5843 17.5104 64.9947C17.4983 65.0068 17.4863 65.0068 17.4621 65.0068Z" fill="#FF8666"/>
<path opacity="0.3" d="M67.6427 57.015C66.5563 57.015 65.5302 56.3752 65.0715 55.3251C64.468 53.9127 65.1198 52.271 66.5442 51.6554C68.7653 50.7018 70.9744 49.7119 73.0868 48.6979C81.9713 44.4609 89.8055 39.7773 95.7445 35.154C96.9637 34.2004 98.7141 34.4177 99.6677 35.6369C100.621 36.8561 100.404 38.6064 99.1848 39.56C92.9319 44.4368 84.7356 49.3377 75.489 53.7437C73.3041 54.7818 71.0347 55.8079 68.7412 56.7857C68.3791 56.9426 68.0048 57.015 67.6427 57.015Z" fill="#FF8666"/>
<path d="M84.8926 64.0292C90.4333 61.9651 96.5413 64.4034 99.209 69.5096C99.1004 69.0509 98.9676 68.5922 98.7866 68.1335C96.5413 62.1461 89.8659 59.1042 83.8786 61.3373C77.8912 63.5826 74.8493 70.258 77.0825 76.2453C77.2515 76.704 77.4567 77.1386 77.674 77.5611C76.3461 71.948 79.3519 66.0934 84.8926 64.0292Z" fill="#D8491A"/>
<path d="M91.9962 83.0282C97.9412 80.8055 101.171 74.7514 99.2096 69.5058C97.2485 64.2602 90.8393 61.8096 84.8943 64.0322C78.9493 66.2548 75.7197 72.309 77.6809 77.5546C79.642 82.8002 86.0512 85.2508 91.9962 83.0282Z" fill="#D8491A"/>
<path opacity="0.5" d="M41.3879 48.0586C40.6033 48.0586 39.8911 47.5395 39.6738 46.7549C39.4082 45.8013 39.9635 44.8235 40.9171 44.5579C44.1884 43.6405 47.5442 42.6024 50.8879 41.4556C51.8174 41.1418 52.8314 41.6367 53.1573 42.5662C53.4712 43.4956 52.9763 44.5096 52.0468 44.8356C48.6427 45.9944 45.2265 47.0687 41.8828 47.9982C41.7138 48.0344 41.5448 48.0586 41.3879 48.0586Z" fill="#FF8666"/>
<path d="M52.4085 37.9542C53.35 38.7268 53.8932 39.8011 54.0381 40.9237C54.1829 42.1188 53.857 43.3742 53.0362 44.3761C51.4307 46.3196 48.5577 46.5972 46.6143 45.0038C46.1556 44.6175 45.7813 44.1709 45.5158 43.6639C44.6466 42.0705 44.7794 40.0546 45.9986 38.5699C47.58 36.6264 50.4529 36.3487 52.4085 37.9542Z" fill="#D8491A"/>
<path opacity="0.7" d="M52.9279 39.584C53.3866 39.9702 53.7608 40.4169 54.0263 40.9239C54.1712 42.1189 53.8453 43.3743 53.0244 44.3762C51.4189 46.3197 48.546 46.5973 46.6025 45.0039C46.1438 44.6177 45.7696 44.171 45.504 43.664C45.3592 42.469 45.6851 41.2136 46.506 40.2117C48.1114 38.2682 50.9844 37.9905 52.9279 39.584Z" fill="#EE5827"/>
<path opacity="0.5" d="M71.0587 38.9206C71.795 39.1016 72.3986 39.5603 72.7849 40.1518C73.1953 40.7916 73.3522 41.5762 73.1591 42.3729C72.7849 43.906 71.2398 44.8475 69.7067 44.4733C69.3446 44.3888 69.0066 44.2319 68.7169 44.0267C67.7995 43.3628 67.3166 42.1919 67.6063 41.033C67.9805 39.4758 69.5257 38.5464 71.0587 38.9206Z" fill="#C1402C"/>
<path d="M71.7952 39.6934C72.1573 39.7779 72.4953 39.9348 72.785 40.14C73.1955 40.7798 73.3524 41.5644 73.1592 42.3611C72.785 43.8942 71.2399 44.8357 69.7069 44.4615C69.3447 44.377 69.0067 44.2201 68.717 44.0149C68.3066 43.3751 68.1497 42.5905 68.3428 41.7938C68.717 40.2607 70.2621 39.3192 71.7952 39.6934Z" fill="#EE5827" fill-opacity="0.5"/>
<path d="M62.8024 56.7977C63.2128 57.353 63.3577 58.0049 63.2732 58.6446C63.1887 59.3206 62.8386 59.9604 62.2471 60.395C61.1004 61.2279 59.4949 60.9864 58.662 59.8397C58.4568 59.562 58.324 59.2723 58.2515 58.9585C57.9981 57.9686 58.3481 56.8943 59.2172 56.2545C60.3519 55.4095 61.9574 55.663 62.8024 56.7977Z" fill="#C1402C"/>
<path d="M62.8622 57.7628C63.0674 58.0404 63.2002 58.3301 63.2726 58.644C63.1881 59.32 62.8381 59.9598 62.2466 60.3943C61.0998 61.2272 59.4943 60.9858 58.6614 59.839C58.4562 59.5614 58.3234 59.2717 58.251 58.9579C58.3355 58.2819 58.6855 57.6421 59.277 57.2075C60.4117 56.3746 62.0172 56.616 62.8622 57.7628Z" fill="#D8491A"/>
<path opacity="0.5" d="M66.5922 34.816C66.7612 35.0453 66.8216 35.323 66.7854 35.5764C66.7492 35.8541 66.6043 36.1197 66.3629 36.3007C65.8921 36.6508 65.2282 36.5421 64.8781 36.0714C64.7936 35.9627 64.7333 35.8299 64.7091 35.7092C64.6005 35.2988 64.7453 34.8522 65.1075 34.5866C65.5782 34.2486 66.2542 34.3452 66.5922 34.816Z" fill="#C1402C"/>
<path d="M66.6172 35.2144C66.7017 35.323 66.7621 35.4558 66.7862 35.5765C66.75 35.8542 66.6051 36.1197 66.3637 36.3008C65.8929 36.6509 65.229 36.5422 64.879 36.0715C64.7945 35.9628 64.7341 35.83 64.71 35.7093C64.7462 35.4317 64.891 35.1661 65.1325 34.985C65.6153 34.6471 66.2792 34.7436 66.6172 35.2144Z" fill="#EE5827" fill-opacity="0.5"/>
<path d="M82.4301 55.6147C82.5991 55.8441 82.6595 56.1217 82.6233 56.3752C82.587 56.6528 82.4422 56.9184 82.2008 57.0995C81.73 57.4495 81.0661 57.3409 80.716 56.8701C80.6315 56.7615 80.5711 56.6287 80.547 56.508C80.4384 56.0975 80.5832 55.6509 80.9454 55.3853C81.4161 55.0353 82.0801 55.1319 82.4301 55.6147Z" fill="#AE3421"/>
<path d="M82.4541 56.0131C82.5386 56.1218 82.599 56.2546 82.6231 56.3753C82.5869 56.6529 82.4421 56.9185 82.2006 57.0996C81.7299 57.4496 81.0659 57.341 80.7159 56.8702C80.6314 56.7616 80.571 56.6288 80.5469 56.5081C80.5831 56.2304 80.7279 55.9649 80.9694 55.7838C81.4401 55.4337 82.1041 55.5303 82.4541 56.0131Z" fill="#C1402C"/>
<path d="M39.3839 53.7439C39.6615 53.6836 39.9392 53.7439 40.1564 53.8888C40.3979 54.0336 40.5789 54.2751 40.6393 54.5769C40.76 55.1563 40.3858 55.7116 39.8064 55.8323C39.6736 55.8564 39.5287 55.8564 39.408 55.8323C38.9976 55.7598 38.6475 55.4339 38.551 54.9993C38.4302 54.4199 38.8045 53.8526 39.3839 53.7439Z" fill="#C1402C"/>
<path d="M39.7462 53.8882C39.879 53.8641 40.0239 53.8641 40.1446 53.8882C40.386 54.0331 40.5671 54.2745 40.6274 54.5763C40.7481 55.1557 40.3739 55.711 39.7945 55.8317C39.6617 55.8558 39.5169 55.8558 39.3961 55.8317C39.1547 55.6868 38.9737 55.4454 38.9133 55.1436C38.8047 54.5642 39.1789 53.9969 39.7462 53.8882Z" fill="#EE5827"/>
<path opacity="0.3" d="M86.2289 71.9539C79.6207 86.4389 62.5262 92.8296 48.0412 86.2335C33.5562 79.6373 27.1534 62.5308 33.7616 48.0458C40.3699 33.5608 57.4643 27.17 71.9493 33.7662C86.4343 40.3623 92.8251 57.4689 86.2289 71.9539Z" fill="url(#paint0_radial_3888_146883)"/>
</g>
<mask id="mask1_3888_146883" style="mask-type:alpha" maskUnits="userSpaceOnUse" x="0" y="0" width="120" height="120">
<path d="M59.0794 0.227539C0.00195312 0.227539 0.00195312 0.227539 0.00195312 60.0326C0.00195312 119.838 0.00195312 119.772 59.0794 119.772C119.312 119.772 119.085 119.282 119.867 60.0326C120.65 0.782788 119.085 0.227539 59.0794 0.227539ZM34.8517 74.0747C34.2063 72.9179 33.634 71.7125 33.147 70.4461C27.3754 55.6154 34.6893 38.9287 49.5201 33.1572C64.3508 27.3856 81.0567 34.7279 86.8282 49.5586C87.3153 50.8128 87.7171 52.0913 88.0215 53.3576L34.8517 74.0747Z" fill="white"/>
</mask>
<g mask="url(#mask1_3888_146883)">
<path opacity="0.3" d="M61.5648 66.1077C81.6186 58.2237 96.9084 49.3728 95.7155 46.3387C94.5227 43.3045 77.2989 47.2362 57.2451 55.1202C37.1914 63.0042 21.9016 71.8552 23.0944 74.8893C24.2873 77.9234 41.511 73.9918 61.5648 66.1077Z" stroke="#9E97F7" stroke-width="0.6" stroke-miterlimit="10"/>
<path opacity="0.3" d="M62.1987 67.6982C84.9517 58.7188 102.22 48.4584 100.769 44.781C99.3175 41.1036 79.6961 45.4016 56.9431 54.381C34.1901 63.3604 16.9216 73.6208 18.3729 77.2982C19.8242 80.9757 39.4457 76.6776 62.1987 67.6982Z" stroke="#9E97F7" stroke-width="0.6" stroke-miterlimit="10"/>
<path opacity="0.3" d="M62.8358 69.2842C88.2879 59.2079 107.534 47.537 105.824 43.2164C104.113 38.8959 82.0938 43.5619 56.6417 53.6381C31.1896 63.7144 11.9432 75.3853 13.6537 79.7058C15.3642 84.0264 37.3838 79.3604 62.8358 69.2842Z" stroke="#9E97F7" stroke-width="0.6" stroke-miterlimit="10"/>
<path opacity="0.3" d="M63.4789 70.8827C91.6245 59.7122 112.844 46.633 110.874 41.6694C108.904 36.7058 84.4907 41.7375 56.345 52.9079C28.1994 64.0784 6.97978 77.1576 8.94973 82.1212C10.9197 87.0848 35.3332 82.0531 63.4789 70.8827Z" stroke="#9E97F7" stroke-width="0.6" stroke-miterlimit="10"/>
<path opacity="0.3" d="M64.111 72.472C94.9547 60.2069 118.151 45.7193 115.922 40.1131C113.692 34.5068 86.8815 39.9049 56.0378 52.17C25.1942 64.4351 1.99767 78.9227 4.22702 84.5289C6.45637 90.1352 33.2674 84.7371 64.111 72.472Z" stroke="#9E97F7" stroke-width="0.6" stroke-miterlimit="10"/>
<path d="M13.9889 74.51V74.4858V71.7336V71.6129L13.494 71.7336L13.9889 71.6129V71.3594L11.3694 71.9991V72.6631V74.6548C11.2004 74.5945 10.9952 74.5945 10.79 74.679C10.452 74.8117 10.2468 75.1135 10.2951 75.3912C10.2951 75.4153 10.3072 75.4515 10.3192 75.4757C10.4399 75.7654 10.8262 75.8861 11.2125 75.7412C11.5384 75.6205 11.7316 75.3308 11.7195 75.0652V72.8441L13.6509 72.3734V73.9185V74.0995C13.4819 74.0392 13.2767 74.0392 13.0715 74.1237C12.7335 74.2565 12.5283 74.5583 12.5766 74.8359C12.5766 74.86 12.5886 74.8962 12.6007 74.9204C12.7214 75.2101 13.1077 75.3308 13.494 75.186C13.8199 75.0532 14.013 74.7755 13.9889 74.51Z" fill="#9E97F7"/>
<path d="M106.926 44.4769V44.4407V40.9884V40.8435L106.31 41.0004L106.926 40.8435V40.5176L103.655 41.3264V42.1593V44.658C103.449 44.5856 103.184 44.5856 102.93 44.6822C102.508 44.8512 102.242 45.2374 102.315 45.5754C102.327 45.6116 102.327 45.6479 102.339 45.6841C102.484 46.0583 102.979 46.2031 103.449 46.0221C103.848 45.8651 104.101 45.5151 104.077 45.1771V42.3886L106.503 41.7971V43.7406V43.97C106.298 43.8975 106.033 43.8975 105.779 43.9941C105.357 44.1631 105.091 44.5494 105.163 44.8874C105.175 44.9236 105.175 44.9598 105.188 44.996C105.332 45.3702 105.827 45.5151 106.298 45.334C106.696 45.1529 106.95 44.8029 106.926 44.4769Z" fill="#9E97F7"/>
<path d="M35.8018 85.3502V85.2898V79.725V79.4836L34.812 79.725L35.8018 79.4836V78.9766L30.5267 80.2682V81.6081V85.6399C30.1887 85.5192 29.7662 85.5192 29.3558 85.6761C28.6677 85.9417 28.2573 86.5573 28.3538 87.1246C28.3659 87.185 28.378 87.2333 28.4021 87.2936C28.6315 87.8851 29.4403 88.1266 30.2007 87.8369C30.8526 87.5834 31.263 87.016 31.2147 86.4849V81.9944L35.1137 81.0407V84.1672V84.5293C34.7757 84.4086 34.3532 84.4086 33.9428 84.5655C33.2548 84.8311 32.8443 85.4467 32.9409 86.002C32.953 86.0624 32.9651 86.1227 32.9892 86.171C33.2186 86.7625 34.0273 87.0039 34.7878 86.7142C35.4517 86.4487 35.8501 85.8813 35.8018 85.3502Z" fill="#9E97F7"/>
<path d="M3.9947 85.7121C4.6147 85.7121 5.11732 85.2094 5.11732 84.5894C5.11732 83.9694 4.6147 83.4668 3.9947 83.4668C3.37469 83.4668 2.87207 83.9694 2.87207 84.5894C2.87207 85.2094 3.37469 85.7121 3.9947 85.7121Z" fill="#9E97F7"/>
<path d="M104.608 53.337C105.228 53.337 105.731 52.8344 105.731 52.2144C105.731 51.5944 105.228 51.0918 104.608 51.0918C103.988 51.0918 103.485 51.5944 103.485 52.2144C103.485 52.8344 103.988 53.337 104.608 53.337Z" fill="#9E97F7"/>
<path d="M91.5711 46.0944C91.9378 46.0944 92.2351 45.7972 92.2351 45.4305C92.2351 45.0638 91.9378 44.7666 91.5711 44.7666C91.2045 44.7666 90.9072 45.0638 90.9072 45.4305C90.9072 45.7972 91.2045 46.0944 91.5711 46.0944Z" fill="#9E97F7"/>
<path d="M50.6131 76.4655C50.9798 76.4655 51.2771 76.1683 51.2771 75.8016C51.2771 75.4349 50.9798 75.1377 50.6131 75.1377C50.2465 75.1377 49.9492 75.4349 49.9492 75.8016C49.9492 76.1683 50.2465 76.4655 50.6131 76.4655Z" fill="#9E97F7"/>
<path d="M110.703 38.2476C110.93 38.2476 111.114 38.0639 111.114 37.8372C111.114 37.6105 110.93 37.4268 110.703 37.4268C110.477 37.4268 110.293 37.6105 110.293 37.8372C110.293 38.0639 110.477 38.2476 110.703 38.2476Z" fill="#9E97F7"/>
<path d="M23.1634 70.4419C23.39 70.4419 23.5738 70.2582 23.5738 70.0315C23.5738 69.8048 23.39 69.6211 23.1634 69.6211C22.9367 69.6211 22.7529 69.8048 22.7529 70.0315C22.7529 70.2582 22.9367 70.4419 23.1634 70.4419Z" fill="#9E97F7"/>
</g>
<path opacity="0.1" d="M71.5408 66.9917V48.2933V45.8066L62.7771 47.9674L54.0134 50.1281V56.381V67.9574C52.8908 67.5469 51.4905 67.559 50.1386 68.0901C47.6157 69.0679 46.2033 71.4701 46.9759 73.4498C47.7484 75.4294 50.4162 76.2262 52.9391 75.2484C55.0998 74.4034 56.4518 72.5203 56.3069 70.7458V55.8137L62.7892 54.2203L69.2715 52.6269V64.2153C68.1488 63.8048 66.7486 63.8169 65.3966 64.3481C62.8737 65.3258 61.4614 67.728 62.2339 69.7077C63.0065 71.6874 65.6742 72.4841 68.1971 71.5063C70.3458 70.6492 71.6978 68.7661 71.5408 66.9917Z" fill="#191234"/>
<path d="M52.9629 50.5629L55.2444 50.0801V69.2613H52.9629V50.5629Z" fill="#4B27F8"/>
<path d="M54.3331 48.3065C53.5285 48.5043 52.9629 49.2259 52.9629 50.0545V53.0856L55.2444 50.0799V50.3178L61.7266 48.7847L70.4903 46.624C70.4903 45.459 69.3979 44.6026 68.2666 44.8807L54.3331 48.3065Z" fill="#4B27F8"/>
<path d="M70.4909 65.5197V65.3145L61.0029 67.6442C61.0391 67.8373 61.0874 68.0305 61.1599 68.2115C61.9324 70.1912 64.6002 70.9879 67.123 70.0102C69.2959 69.1772 70.6478 67.2941 70.4909 65.5197Z" fill="#191234"/>
<path d="M45.9138 71.9651C46.6863 73.9448 49.3541 74.7415 51.877 73.7637C54.1222 72.8946 55.4863 70.9028 55.2207 69.0801L45.7568 71.4098C45.793 71.5909 45.8534 71.784 45.9138 71.9651Z" fill="#191234"/>
<path d="M49.0882 66.6063C46.8067 67.4995 45.4185 69.5517 45.7565 71.4106L55.2204 69.0809C55.1841 68.8515 55.1359 68.6222 55.0393 68.4049C54.2788 66.4252 51.6111 65.6164 49.0882 66.6063Z" fill="#4B27F8"/>
<path d="M61.7264 48.7848L55.2441 50.3178V54.329L68.2086 51.1422V61.5235V62.7306V65.8812L70.4901 65.3259V46.8328V46.624L61.7264 48.7848Z" fill="#191234"/>
<path d="M64.3333 62.863C62.0518 63.7562 60.6757 65.8084 61.0016 67.6553L68.2082 65.8808V62.7302C67.0855 62.3198 65.6853 62.3318 64.3333 62.863Z" fill="#4B27F8"/>
<defs>
<radialGradient id="paint0_radial_3888_146883" cx="0" cy="0" r="1" gradientUnits="userSpaceOnUse" gradientTransform="translate(50.5802 49.3252) rotate(45.929) scale(39.2496)">
<stop offset="0.2034" stop-color="#FFB884" stop-opacity="0.5"/>
<stop offset="0.7836" stop-color="#CF592E" stop-opacity="0.5"/>
<stop offset="0.9982" stop-color="#4B27F8" stop-opacity="0.5"/>
</radialGradient>
</defs>
</svg>
