<svg width="120" height="120" viewBox="0 0 120 120" fill="none" xmlns="http://www.w3.org/2000/svg">
<path d="M93.1837 33.8277C93.5478 33.8277 93.843 33.5318 93.843 33.1668C93.843 32.8018 93.5478 32.5059 93.1837 32.5059C92.8196 32.5059 92.5244 32.8018 92.5244 33.1668C92.5244 33.5318 92.8196 33.8277 93.1837 33.8277Z" fill="#9E97F7"/>
<path d="M78.6908 96.1452C78.9159 96.1452 79.0983 95.9623 79.0983 95.7367C79.0983 95.511 78.9159 95.3281 78.6908 95.3281C78.4657 95.3281 78.2832 95.511 78.2832 95.7367C78.2832 95.9623 78.4657 96.1452 78.6908 96.1452Z" fill="#9E97F7"/>
<path d="M23.5374 44.6784C23.7625 44.6784 23.945 44.4955 23.945 44.2699C23.945 44.0442 23.7625 43.8613 23.5374 43.8613C23.3124 43.8613 23.1299 44.0442 23.1299 44.2699C23.1299 44.4955 23.3124 44.6784 23.5374 44.6784Z" fill="#9E97F7"/>
<mask id="mask0_3888_146871" style="mask-type:alpha" maskUnits="userSpaceOnUse" x="31" y="31" width="58" height="58">
<path d="M87.6697 51.7804C85.8455 45.6192 82.1367 40.5331 77.3647 36.9451C73.6559 34.1544 69.2947 32.2698 64.6798 31.5087C60.4998 30.8201 56.1144 31.0375 51.7774 32.3302C47.3316 33.647 43.4416 35.9424 40.2764 38.9143C37.8481 41.1855 35.8548 43.8433 34.3447 46.7669C31.0466 53.1576 30.1164 60.7807 32.3272 68.2225C34.2843 74.8066 38.3676 80.1584 43.6228 83.7706C50.5572 88.5426 59.5213 90.2581 68.2316 87.6728C76.9781 85.0754 83.5622 78.7087 86.7516 70.8682C89.1315 65.009 89.6147 58.3162 87.6697 51.7804Z" fill="white"/>
</mask>
<g mask="url(#mask0_3888_146871)">
<path opacity="0.6" fill-rule="evenodd" clip-rule="evenodd" d="M51.7725 32.3302C47.3268 33.647 43.4367 35.9424 40.2715 38.9143C37.8433 41.1855 35.8499 43.8433 34.3398 46.7669C31.0417 53.1576 30.1115 60.7807 32.3223 68.2225C34.2794 74.8066 38.3627 80.1584 43.6179 83.7706C50.5524 88.5426 59.5164 90.2581 68.2267 87.6728C76.9733 85.0754 83.5573 78.7087 86.7467 70.8682C89.1387 65.009 89.622 58.3162 87.6769 51.7804C85.8527 45.6192 82.1439 40.5331 77.3719 36.9451C73.6631 34.1544 69.3019 32.2698 64.687 31.5087C60.4949 30.8201 56.0975 31.0375 51.7725 32.3302Z" fill="#A44030"/>
<path d="M87.6707 51.7804C85.8465 45.6192 82.1377 40.5331 77.3657 36.9451C73.6569 34.1544 69.2957 32.2698 64.6808 31.5087C60.5008 30.8201 56.1154 31.0375 51.7784 32.3302C47.3326 33.647 43.4426 35.9424 40.2774 38.9143C37.8491 41.1855 35.8558 43.8433 34.3457 46.7669C31.0476 53.1576 30.1173 60.7807 32.3281 68.2225C34.2853 74.8066 38.3686 80.1584 43.6238 83.7706C50.5582 88.5426 59.5222 90.2581 68.2326 87.6728C76.9791 85.0754 83.5632 78.7087 86.7526 70.8682C89.1325 65.009 89.6157 58.3162 87.6707 51.7804Z" fill="#A44030"/>
<path d="M87.6707 51.7804C85.8465 45.6192 82.1377 40.5331 77.3657 36.9451C73.6569 34.1544 69.2957 32.2698 64.6808 31.5087C60.5008 30.8201 56.1154 31.0375 51.7784 32.3302C47.3326 33.647 43.4426 35.9424 40.2774 38.9143C37.8491 41.1855 35.8558 43.8433 34.3457 46.7669C31.0476 53.1576 30.1173 60.7807 32.3281 68.2225C34.2853 74.8066 38.3686 80.1584 43.6238 83.7706C50.5582 88.5426 59.5222 90.2581 68.2326 87.6728C76.9791 85.0754 83.5632 78.7087 86.7526 70.8682C89.1325 65.009 89.6157 58.3162 87.6707 51.7804Z" fill="#D8491A"/>
<path d="M78.8261 43.2598C84.4075 58.1677 76.8327 74.7789 61.9249 80.3603C47.0171 85.9416 -11.5269 94.0358 -17.1083 79.128C-22.6896 64.2202 26.8058 31.928 41.7136 26.3587C56.6214 20.7894 73.2447 28.3399 78.8261 43.2598Z" fill="#EE5827"/>
<path opacity="0.3" d="M11.6447 58.5539C6.92108 58.5539 2.98271 54.8572 2.72902 50.0852C2.46324 45.1562 6.24455 40.94 11.1856 40.6863C22.2638 40.0943 36.3381 36.7841 50.823 31.3719C55.45 29.6443 60.5965 31.988 62.324 36.615C64.0516 41.242 61.7079 46.3884 57.0809 48.116C40.953 54.1444 24.982 57.8532 12.14 58.5297C11.9588 58.5539 11.8018 58.5539 11.6447 58.5539Z" fill="#FF8666"/>
<path opacity="0.3" d="M94.0842 53.5164C94.0842 53.5164 96.307 52.2117 94.0842 53.5164C92.1271 54.6641 86.7148 55.7151 80.8797 64.7154C77.775 69.5115 69.0767 75.3466 60.004 74.0781C52.6105 73.0391 46.3888 71.7102 43.127 73.2203C35.8059 76.603 28.3037 73.1962 28.3037 73.1962C28.3037 73.1962 48.1043 97.8774 78.2944 86.4127C92.1512 81.1575 94.0842 53.5164 94.0842 53.5164Z" fill="#B22F0B"/>
<path opacity="0.6" d="M24.2806 67.3621C23.3624 67.3621 22.5167 67.2775 21.7677 67.1084C20.4388 66.7943 19.5328 66.2023 19.0858 65.3446C18.7354 64.6922 18.675 64.1728 18.6871 63.8345C18.373 64.0399 17.8535 64.3419 17.0199 64.7768L16.7783 64.3056C17.781 63.7862 18.3126 63.4479 18.5905 63.2667C18.8442 63.1096 18.9891 63.013 19.1462 63.1338C19.3032 63.2425 19.267 63.4237 19.2428 63.5325C19.1945 63.762 19.0858 64.2815 19.5328 65.103C19.9194 65.8158 20.7046 66.3232 21.8765 66.601C26.2014 67.6158 34.0661 65.3325 37.6783 62.7593C42.414 59.3887 46.5336 56.7551 52.6102 56.1027C54.3861 55.9094 58.9406 55.3054 62.9515 53.8436C65.4885 52.9254 67.6993 51.2945 70.0309 49.567C72.8578 47.477 75.7935 45.3145 79.5265 44.2876C86.4367 42.3788 94.241 39.2136 99.7861 30.2254C102.347 26.0817 103.29 25.7918 103.821 25.9971C104.824 26.3837 104.377 29.1986 104.22 30.0442L103.7 29.9476C103.99 28.4012 104.039 26.6495 103.628 26.4925C103.507 26.4441 102.746 26.4079 100.221 30.5033C94.5793 39.6485 86.6542 42.8621 79.6594 44.795C76.0109 45.8098 73.1236 47.936 70.3329 50.0019C67.9651 51.7536 65.7301 53.3966 63.1206 54.351C59.0494 55.8369 54.4465 56.441 52.6465 56.6343C46.6906 57.2746 42.6435 59.872 37.9682 63.1942C34.9238 65.3688 28.8109 67.3621 24.2806 67.3621Z" fill="#FF8666"/>
<path opacity="0.3" d="M80.3482 33.0279C85.096 36.7609 78.1374 41.11 74.6823 42.5355C71.2272 43.9611 65.3559 50.968 59.6899 52.8043C54.024 54.6406 47.0533 54.4594 41.3028 56.8151C35.5523 59.1588 24.1842 60.9831 20.729 56.791C16.7544 51.9707 46.5701 26.5404 46.5701 26.5404L95.7514 25.5498L80.3482 33.0279Z" fill="#FF8666"/>
<path opacity="0.7" d="M58.0709 30.0553C58.0709 30.0553 62.5288 29.8258 62.4563 30.9976C62.3838 32.1695 55.2923 36.7723 51.6197 38.1012C47.9592 39.4301 40.8798 41.6892 40.2879 40.4811C39.6959 39.273 44.0571 35.5159 47.1377 33.7762C50.2304 32.0245 58.0709 30.0553 58.0709 30.0553Z" fill="#FF8666"/>
<path opacity="0.6" d="M34.5497 81.7618C33.6919 81.7618 32.8584 81.6409 32.0127 81.3752L32.1697 80.8919C35.0329 81.8342 38.0169 80.8074 41.4599 79.6114C45.1205 78.3429 49.2763 76.9173 54.169 77.6663L54.2174 77.6784C54.2415 77.6905 57.2376 78.7174 61.333 79.0315C65.1023 79.3214 70.587 79.0315 75.3952 76.0717C79.2731 73.6676 81.6772 69.5721 83.7914 65.9599C85.0961 63.7371 86.2196 61.8041 87.5123 60.5598C89.2157 58.9289 90.9191 57.9141 92.4171 57.0201C94.6521 55.6912 96.5971 54.5435 97.6844 51.7891L98.1556 51.9703C96.9958 54.8818 94.9904 56.0657 92.6708 57.4429C91.197 58.3248 89.5177 59.3155 87.8506 60.9101C86.6062 62.1061 85.4948 64.0028 84.2142 66.2016C82.0638 69.8742 79.6356 74.03 75.6489 76.4945C72.9307 78.1737 68.2312 80.0704 61.2726 79.5389C57.3101 79.2368 54.3623 78.2583 54.0724 78.1616C49.3246 77.4368 45.2413 78.8503 41.6291 80.0946C39.08 80.9765 36.7726 81.7618 34.5497 81.7618Z" fill="#FF8666"/>
<path opacity="0.5" d="M3.07871 57.7329L2.99414 57.2255C7.29494 56.549 11.0279 54.0241 15.3408 51.0885C20.0886 47.8749 25.4646 44.2265 32.7252 42.4869L32.8219 42.4627L32.9064 42.4989C32.9306 42.511 35.1172 43.5379 39.9013 43.0909C47.9109 42.3298 56.8749 38.0532 62.9878 34.598C68.1464 31.6865 70.2122 27.7482 72.0364 24.281C73.0633 22.3238 74.0419 20.4634 75.4553 19.1224C77.3641 17.3103 79.4662 15.8968 81.3146 14.6525C84.0932 12.7799 86.4973 11.1611 87.21 8.91406L87.7053 9.07111C86.9443 11.4873 84.4677 13.1545 81.6045 15.0753C79.7682 16.3076 77.6903 17.709 75.8057 19.4969C74.4526 20.7775 73.5465 22.5051 72.4834 24.5105C70.623 28.0381 68.5209 32.049 63.2295 35.0329C57.0561 38.5243 47.9834 42.8493 39.8771 43.5983C35.4555 44.009 33.2326 43.1875 32.7615 42.9943C25.6337 44.7218 20.3302 48.3219 15.6308 51.4992C11.2696 54.4711 7.50031 57.0322 3.07871 57.7329Z" fill="#FF8666"/>
<path opacity="0.3" d="M15.9207 75.4803C15.9086 75.4803 15.8844 75.4803 15.8724 75.4803C9.37284 75.4803 4.17806 74.7312 0.420898 73.2453L3.97268 64.2209C5.44655 64.8007 8.95001 65.7793 15.8724 65.7793C15.8844 65.7793 15.8965 65.7793 15.9207 65.7793C27.4217 65.7793 42.0637 63.1698 57.1769 58.4341C72.3143 53.6863 85.8449 47.4526 95.2921 40.8806C100.97 36.9181 103.29 34.1274 104.172 32.8105L112.242 38.1865C110.007 41.545 106.165 45.121 100.837 48.8419C90.6168 55.9696 76.1439 62.6624 60.0884 67.6881C44.0571 72.7016 28.3761 75.4803 15.9207 75.4803Z" fill="#FF8666"/>
<path d="M27.7604 91.6436C20.7173 91.6436 16.6943 90.6651 14.5439 89.8315L14.6285 89.602C16.8152 90.4476 20.9468 91.4383 28.2678 91.3899C40.24 91.3054 55.3894 88.5147 70.9375 83.5132C86.4857 78.5117 100.427 71.9518 110.2 65.0415C116.18 60.8132 118.959 57.5997 120.24 55.6426L120.445 55.7755C119.152 57.7447 116.35 60.9944 110.333 65.2469C100.548 72.1813 86.5823 78.7533 71.01 83.7548C55.4498 88.7563 40.2642 91.5591 28.2678 91.6436C28.0987 91.6436 27.9296 91.6436 27.7604 91.6436Z" fill="#EE5827"/>
<path opacity="0.3" d="M86.2367 71.9539C79.6285 86.4389 62.534 92.8296 48.049 86.2335C33.564 79.6373 27.1612 62.5308 33.7694 48.0458C40.3777 33.5608 57.4721 27.17 71.9571 33.7662C86.4421 40.3623 92.8329 57.4689 86.2367 71.9539Z" fill="url(#paint0_radial_3888_146871)"/>
</g>
<mask id="mask1_3888_146871" style="mask-type:alpha" maskUnits="userSpaceOnUse" x="31" y="31" width="58" height="58">
<path d="M87.6707 51.7804C85.8465 45.6192 82.1377 40.5331 77.3657 36.9451C73.6569 34.1544 69.2957 32.2698 64.6808 31.5087C60.5008 30.8201 56.1154 31.0375 51.7784 32.3302C47.3326 33.647 43.4426 35.9424 40.2774 38.9143C37.8491 41.1855 35.8558 43.8433 34.3457 46.7669C31.0476 53.1576 30.1173 60.7807 32.3281 68.2225C34.2853 74.8066 38.3686 80.1584 43.6238 83.7706C50.5582 88.5426 59.5222 90.2581 68.2326 87.6728C76.9791 85.0754 83.5632 78.7087 86.7526 70.8682C89.1325 65.009 89.6157 58.3162 87.6707 51.7804Z" fill="white"/>
</mask>
<g mask="url(#mask1_3888_146871)">
<path opacity="0.6" fill-rule="evenodd" clip-rule="evenodd" d="M51.7715 32.3302C47.3258 33.647 43.4357 35.9424 40.2705 38.9143C37.8423 41.1855 35.8489 43.8433 34.3388 46.7669C31.0407 53.1576 30.1105 60.7807 32.3213 68.2225C34.2784 74.8066 38.3618 80.1584 43.6169 83.7706C50.5514 88.5426 59.5154 90.2581 68.2257 87.6728C76.9723 85.0754 83.5564 78.7087 86.7457 70.8682C89.1377 65.009 89.621 58.3162 87.676 51.7804C85.8517 45.6192 82.1429 40.5331 77.3709 36.9451C73.6621 34.1544 69.3009 32.2698 64.686 31.5087C60.4939 30.8201 56.0965 31.0375 51.7715 32.3302Z" fill="#A44030"/>
<path d="M87.6697 51.7804C85.8455 45.6192 82.1367 40.5331 77.3647 36.9451C73.6559 34.1544 69.2947 32.2698 64.6798 31.5087C60.4998 30.8201 56.1144 31.0375 51.7774 32.3302C47.3316 33.647 43.4416 35.9424 40.2764 38.9143C37.8481 41.1855 35.8548 43.8433 34.3447 46.7669C31.0466 53.1576 30.1164 60.7807 32.3272 68.2225C34.2843 74.8066 38.3676 80.1584 43.6228 83.7706C50.5572 88.5426 59.5213 90.2581 68.2316 87.6728C76.9781 85.0754 83.5622 78.7087 86.7516 70.8682C89.1315 65.009 89.6147 58.3162 87.6697 51.7804Z" fill="#A44030"/>
<path d="M87.6697 51.7804C85.8455 45.6192 82.1367 40.5331 77.3647 36.9451C73.6559 34.1544 69.2947 32.2698 64.6798 31.5087C60.4998 30.8201 56.1144 31.0375 51.7774 32.3302C47.3316 33.647 43.4416 35.9424 40.2764 38.9143C37.8481 41.1855 35.8548 43.8433 34.3447 46.7669C31.0466 53.1576 30.1164 60.7807 32.3272 68.2225C34.2843 74.8066 38.3676 80.1584 43.6228 83.7706C50.5572 88.5426 59.5213 90.2581 68.2316 87.6728C76.9781 85.0754 83.5622 78.7087 86.7516 70.8682C89.1315 65.009 89.6147 58.3162 87.6697 51.7804Z" fill="#E7AE57"/>
<path d="M78.8251 43.2598C84.4065 58.1677 76.8318 74.7789 61.9239 80.3603C47.0161 85.9416 -11.5279 94.0358 -17.1092 79.128C-22.6906 64.2202 26.8048 31.928 41.7126 26.3587C56.6204 20.7894 73.2437 28.3399 78.8251 43.2598Z" fill="#FFE968"/>
<path d="M78.8251 43.2598C84.4065 58.1677 76.8318 74.7789 61.9239 80.3603C47.0161 85.9416 -11.5279 94.0358 -17.1092 79.128C-22.6906 64.2202 26.8048 31.928 41.7126 26.3587C56.6204 20.7894 73.2437 28.3399 78.8251 43.2598Z" fill="#F2C469"/>
<path opacity="0.3" d="M94.0832 53.5174C94.0832 53.5174 96.3061 52.2126 94.0832 53.5174C92.1261 54.6651 86.7138 55.7161 80.8788 64.7164C77.774 69.5125 69.0757 75.3476 60.003 74.0791C52.6095 73.0401 46.3878 71.7112 43.126 73.2213C35.805 76.604 28.3027 73.1971 28.3027 73.1971C28.3027 73.1971 48.1033 97.8784 78.2935 86.4136C92.1502 81.1585 94.0832 53.5174 94.0832 53.5174Z" fill="#FCB25A"/>
<path opacity="0.6" d="M24.2796 67.3621C23.3614 67.3621 22.5158 67.2775 21.7668 67.1084C20.4379 66.7943 19.5318 66.2023 19.0848 65.3446C18.7344 64.6922 18.674 64.1728 18.6861 63.8345C18.372 64.0399 17.8525 64.3419 17.019 64.7768L16.7773 64.3056C17.7801 63.7862 18.3116 63.4479 18.5895 63.2667C18.8432 63.1096 18.9881 63.013 19.1452 63.1338C19.3023 63.2425 19.266 63.4237 19.2418 63.5325C19.1935 63.762 19.0848 64.2815 19.5318 65.103C19.9184 65.8158 20.7036 66.3232 21.8755 66.601C26.2004 67.6158 34.0651 65.3325 37.6773 62.7593C42.413 59.3887 46.5326 56.7551 52.6093 56.1027C54.3852 55.9094 58.9397 55.3054 62.9505 53.8436C65.4875 52.9254 67.6983 51.2945 70.0299 49.567C72.8568 47.477 75.7925 45.3145 79.5255 44.2876C86.4358 42.3788 94.24 39.2136 99.7851 30.2254C102.346 26.0817 103.289 25.7918 103.82 25.9971C104.823 26.3837 104.376 29.1986 104.219 30.0442L103.699 29.9476C103.989 28.4012 104.038 26.6495 103.627 26.4925C103.506 26.4441 102.745 26.4079 100.22 30.5033C94.5783 39.6485 86.6532 42.8621 79.6584 44.795C76.01 45.8098 73.1226 47.936 70.3319 50.0019C67.9641 51.7536 65.7291 53.3966 63.1196 54.351C59.0484 55.8369 54.4456 56.441 52.6455 56.6343C46.6896 57.2746 42.6425 59.872 37.9672 63.1942C34.9228 65.3688 28.8099 67.3621 24.2796 67.3621Z" fill="#FFE968"/>
<path opacity="0.5" d="M80.3473 33.0279C85.0951 36.7609 78.1365 41.11 74.6813 42.5355C71.2262 43.9611 65.3549 50.968 59.6889 52.8043C54.023 54.6406 47.0523 54.4594 41.3018 56.8151C35.5513 59.1588 24.1832 60.9831 20.7281 56.791C16.7535 51.9707 46.5691 26.5404 46.5691 26.5404L95.7504 25.5498L80.3473 33.0279Z" fill="#FFE968"/>
<path opacity="0.6" d="M34.5487 81.7627C33.691 81.7627 32.8574 81.6419 32.0117 81.3761L32.1688 80.8929C35.0319 81.8352 38.0159 80.8083 41.459 79.6123C45.1195 78.3438 49.2753 76.9183 54.1681 77.6673L54.2164 77.6794C54.2406 77.6915 57.2366 78.7183 61.332 79.0324C65.1013 79.3224 70.586 79.0324 75.3942 76.0726C79.2722 73.6685 81.6763 69.5731 83.7904 65.9609C85.0951 63.738 86.2187 61.8051 87.5113 60.5608C89.2147 58.9298 90.9181 57.9151 92.4162 57.0211C94.6511 55.6922 96.5962 54.5445 97.6834 51.79L98.1546 51.9713C96.9948 54.8827 94.9894 56.0667 92.6699 57.4439C91.196 58.3258 89.5168 59.3164 87.8496 60.9111C86.6053 62.1071 85.4938 64.0038 84.2132 66.2025C82.0628 69.8751 79.6346 74.031 75.6479 76.4955C72.9297 78.1747 68.2302 80.0714 61.2716 79.5398C57.3091 79.2378 54.3614 78.2593 54.0714 78.1626C49.3236 77.4378 45.2403 78.8512 41.6281 80.0956C39.079 80.9775 36.7716 81.7627 34.5487 81.7627Z" fill="#FFE968"/>
<path opacity="0.5" d="M15.9197 75.4803C15.9076 75.4803 15.8835 75.4803 15.8714 75.4803C9.37186 75.4803 4.17708 74.7312 0.419922 73.2453L3.9717 64.2209C5.44557 64.8007 8.94903 65.7793 15.8714 65.7793C15.8835 65.7793 15.8955 65.7793 15.9197 65.7793C27.4207 65.7793 42.0627 63.1698 57.1759 58.4341C72.3133 53.6863 85.8439 47.4526 95.2911 40.8806C100.969 36.9181 103.289 34.1274 104.171 32.8105L112.241 38.1865C110.006 41.545 106.164 45.121 100.836 48.8419C90.6158 55.9696 76.1429 62.6624 60.0874 67.6881C44.0561 72.7016 28.3751 75.4803 15.9197 75.4803Z" fill="#FFE968"/>
<path opacity="0.5" d="M27.7585 91.6446C20.7153 91.6446 16.6924 90.6661 14.542 89.8325L14.6266 89.6029C16.8132 90.4486 20.9449 91.4392 28.2659 91.3909C40.238 91.3063 55.3875 88.5157 70.9356 83.5142C86.4837 78.5127 100.425 71.9528 110.198 65.0425C116.179 60.8142 118.957 57.6007 120.238 55.6436L120.443 55.7764C119.15 57.7456 116.348 60.9954 110.331 65.2479C100.546 72.1823 86.5803 78.7543 71.0081 83.7558C55.4479 88.7573 40.2622 91.56 28.2659 91.6446C28.0968 91.6446 27.9276 91.6446 27.7585 91.6446Z" fill="#FFE968"/>
<path opacity="0.3" d="M86.2777 71.8793C79.6747 86.3648 62.5939 92.7505 48.1205 86.1475C33.6471 79.5445 27.2493 62.4637 33.8523 47.9903C40.4553 33.5169 57.5361 27.1312 72.0095 33.7221C86.4829 40.313 92.8686 57.4059 86.2777 71.8793Z" fill="url(#paint1_radial_3888_146871)"/>
<g style="mix-blend-mode:darken" opacity="0.4">
<path d="M87.6697 51.7804C85.8455 45.6192 82.1367 40.5331 77.3647 36.9451C73.6559 34.1544 69.2947 32.2698 64.6798 31.5087C60.4998 30.8201 56.1144 31.0375 51.7774 32.3302C47.3316 33.647 43.4416 35.9424 40.2764 38.9143C37.8481 41.1855 35.8548 43.8433 34.3447 46.7669C31.0466 53.1576 30.1164 60.7807 32.3272 68.2225C34.2843 74.8066 38.3676 80.1584 43.6228 83.7706C50.5572 88.5426 59.5213 90.2581 68.2316 87.6728C76.9781 85.0754 83.5622 78.7087 86.7516 70.8682C89.1315 65.009 89.6148 58.3162 87.6697 51.7804Z" fill="#F8D829"/>
</g>
<path opacity="0.4" d="M11.6437 58.5549C6.92011 58.5549 2.98174 54.8581 2.72804 50.0862C2.46226 45.1572 6.24358 40.9409 11.1847 40.6872C22.2628 40.0953 36.3371 36.7851 50.8221 31.3729C55.449 29.6453 60.5955 31.989 62.3231 36.616C64.0506 41.243 61.7069 46.3894 57.08 48.117C40.952 54.1454 24.981 57.8542 12.1391 58.5307C11.9578 58.5549 11.8008 58.5549 11.6437 58.5549Z" fill="#FFFC6D"/>
<path opacity="0.6" d="M58.07 30.0553C58.07 30.0553 62.5278 29.8258 62.4553 30.9976C62.3828 32.1695 55.2914 36.7723 51.6188 38.1012C47.9583 39.4301 40.8789 41.6892 40.2869 40.4811C39.6949 39.273 44.0561 35.5159 47.1368 33.7762C50.2295 32.0245 58.07 30.0553 58.07 30.0553Z" fill="#FFFDA0"/>
<path opacity="0.6" d="M3.07773 57.7329L2.99316 57.2255C7.29396 56.549 11.027 54.0241 15.3398 51.0885C20.0876 47.8749 25.4636 44.2265 32.7242 42.4869L32.8209 42.4627L32.9055 42.4989C32.9296 42.511 35.1163 43.5379 39.9003 43.0909C47.9099 42.3298 56.8739 38.0532 62.9869 34.598C68.1454 31.6865 70.2112 27.7482 72.0355 24.281C73.0623 22.3238 74.0409 20.4634 75.4543 19.1224C77.3631 17.3103 79.4652 15.8968 81.3136 14.6525C84.0922 12.7799 86.4963 11.1611 87.2091 8.91406L87.7044 9.07111C86.9433 11.4873 84.4667 13.1545 81.6035 15.0753C79.7672 16.3076 77.6893 17.709 75.8047 19.4969C74.4516 20.7775 73.5456 22.5051 72.4824 24.5105C70.622 28.0381 68.5199 32.049 63.2285 35.0329C57.0551 38.5243 47.9824 42.8493 39.8761 43.5983C35.4545 44.009 33.2316 43.1875 32.7605 42.9943C25.6328 44.7218 20.3292 48.3219 15.6298 51.4992C11.2686 54.4711 7.49934 57.0322 3.07773 57.7329Z" fill="#FFFDA0"/>
</g>
<path opacity="0.3" d="M41.9088 37.7527L31.0723 34.5996L57.614 97.5048L101.274 55.415L87.5625 51.3437" stroke="#9E97F7" stroke-width="0.6" stroke-miterlimit="10"/>
<path d="M31.1876 36.0371C31.9494 35.9454 32.4927 35.2536 32.401 34.4919C32.3094 33.7301 31.6176 33.1868 30.8559 33.2785C30.0941 33.3701 29.5508 34.0619 29.6424 34.8236C29.7341 35.5854 30.4259 36.1287 31.1876 36.0371Z" fill="#9E97F7"/>
<path d="M58.4997 97.7384C58.6084 97.1817 58.2453 96.6424 57.6887 96.5336C57.1321 96.4249 56.5927 96.788 56.484 97.3447C56.3752 97.9013 56.7384 98.4407 57.295 98.5494C57.8516 98.6581 58.391 98.295 58.4997 97.7384Z" fill="#9E97F7"/>
<path d="M76.7017 29.3562L74.8171 29.5374L74.9983 31.4221L73.8748 31.5308L73.6935 29.6462L71.8089 29.8274L71.7002 28.7039L73.5848 28.5226L73.4036 26.638L74.5271 26.5293L74.7083 28.4139L76.593 28.2327L76.7017 29.3562Z" fill="#9E97F7" stroke="#9E97F7" stroke-width="0.24792" stroke-miterlimit="10"/>
<path d="M89.2665 81.9077L85.2314 81.1828L85.4006 80.2646L89.4356 80.9895L89.2665 81.9077Z" fill="#9E97F7" stroke="#9E97F7" stroke-width="0.20667" stroke-miterlimit="10"/>
<path d="M28.0884 69.7789H28.1246C28.4629 69.7306 28.777 69.9601 28.8374 70.2984C28.8857 70.6366 28.6562 70.9507 28.3179 71.0111H28.2817C27.9434 71.0595 27.6293 70.8299 27.5689 70.4917C27.5085 70.1534 27.738 69.8272 28.0884 69.7789ZM28.922 75.0824H28.8857C28.5475 75.1307 28.2334 74.9012 28.173 74.5629C28.1246 74.2247 28.3542 73.9105 28.6924 73.8501H28.7287C29.0669 73.8018 29.381 74.0314 29.4414 74.3696C29.5019 74.72 29.2602 75.0341 28.922 75.0824ZM30.7099 72.6179L26.4575 73.2582L26.3125 72.2796L30.565 71.6393L30.7099 72.6179Z" fill="#9E97F7" stroke="#9E97F7" stroke-width="0.21675" stroke-miterlimit="10"/>
<path d="M102.148 55.4229C102.257 54.8663 101.894 54.3269 101.337 54.2182C100.78 54.1095 100.241 54.4726 100.132 55.0292C100.024 55.5859 100.387 56.1252 100.943 56.234C101.5 56.3427 102.039 55.9796 102.148 55.4229Z" fill="#9E97F7"/>
<path opacity="0.1" d="M70.1601 45.0297L70.9939 42.439C71.247 41.5755 70.7407 40.6821 69.8772 40.4588L69.7432 40.429C68.9243 40.2057 68.0756 40.6821 67.8225 41.501L67.0185 44.0172C64.0259 43.7939 61.197 45.5657 60.259 48.4541C59.6039 50.479 60.0208 52.5932 61.2119 54.2161L61.1076 54.3948L53.9759 66.5441C53.9461 66.4697 53.8865 66.4101 53.8121 66.3654L52.2637 65.487L54.6459 61.4521C54.8692 61.065 54.7352 60.5588 54.3481 60.3354L52.5763 59.3081L50.7897 58.2808C50.4026 58.0574 49.9112 58.1914 49.6879 58.5786L47.2908 62.6432L46.8143 62.3752C46.6059 62.2561 46.3379 62.3157 46.2188 62.5241L44.0152 66.2463C43.8961 66.4548 43.9557 66.7228 44.1641 66.8419L44.6555 67.1248L42.839 70.2068L42.705 72.9761L43.9855 73.7205L42.705 72.9761L42.5859 74.9712C42.571 75.2839 42.7348 75.5519 42.973 75.6859C43.2112 75.8199 43.5239 75.8348 43.7919 75.671L44.9086 74.9414L45.4594 74.5841L47.797 73.0803L49.6134 70.0132L51.147 70.8916C51.2363 70.9363 51.3257 70.9661 51.4299 70.9512H55.3457C56.0752 70.9214 56.7452 70.5343 57.1174 69.909L64.7405 56.8514V75.7008C64.7405 76.073 65.0383 76.3559 65.3956 76.3559H65.9019L66.4974 80.9714C66.5421 81.3139 67.0483 81.3287 67.1079 80.9863L67.897 76.3708H68.4181C68.7903 76.3708 69.0732 76.073 69.0732 75.7156V56.6579C69.2965 56.5686 69.5347 56.4792 69.7432 56.375C71.3363 55.6008 72.4976 54.2608 73.0336 52.6081C73.9865 49.7048 72.721 46.6079 70.1601 45.0297ZM44.0748 73.795L44.3279 73.9439L44.0748 73.795ZM68.7456 54.3501C68.3585 54.5437 67.9565 54.6628 67.5396 54.7372H66.9143H66.0507C65.8274 54.6926 65.6041 54.6479 65.3807 54.5735C65.3659 54.5735 65.351 54.5586 65.3361 54.5586C65.2765 54.5437 65.217 54.5139 65.1574 54.499C62.9688 53.6652 61.7776 51.3277 62.4774 49.1688C63.073 47.3077 64.8894 46.1761 66.8101 46.2655C67.1972 46.2804 67.5992 46.3548 67.9863 46.4888C70.309 47.2332 71.6043 49.6601 70.8896 51.8935C70.5472 52.9655 69.773 53.8439 68.7456 54.3501Z" fill="#191234"/>
<path d="M66.9013 74.7031L66.0825 79.4973C66.0229 79.8398 65.5167 79.8398 65.472 79.4825L64.8467 74.7031H66.544H66.9013Z" fill="#191234"/>
<path d="M46.0573 68.9855L41.799 68.7324L41.665 71.5018L43.0497 72.3057L46.0573 68.9855Z" fill="#9E97F7"/>
<path d="M43.0352 72.3054L44.4198 73.1094L46.7574 71.5908L45.2238 68.5088L43.0352 72.3054Z" fill="#F2D953"/>
<path d="M46.3401 62.747L44.2705 70.1617L46.7569 71.591L53.6058 59.9628C53.8292 59.5757 53.6952 59.0694 53.308 58.8461L51.0598 57.5508L46.3401 62.747Z" fill="#F2D953"/>
<path d="M43.0352 72.3054L44.4198 73.1094L46.7574 71.5908L45.2238 68.5088L43.0352 72.3054Z" fill="#9E97F7"/>
<path d="M46.3401 62.747L44.2705 70.1617L46.7569 71.591L53.6058 59.9628C53.8292 59.5757 53.6952 59.0694 53.308 58.8461L51.0598 57.5508L46.3401 62.747Z" fill="#191234"/>
<path d="M48.6479 57.1041L41.7842 68.7323L44.2706 70.1617L51.5364 57.8337L49.7497 56.8063C49.3626 56.583 48.8713 56.717 48.6479 57.1041Z" fill="#701919"/>
<path d="M48.6479 57.1041L41.7842 68.7323L44.2706 70.1617L51.5364 57.8337L49.7497 56.8063C49.3626 56.583 48.8713 56.717 48.6479 57.1041Z" fill="#5322FF"/>
<path d="M52.7725 64.8761L48.7227 62.5684L46.0576 67.0797L50.0925 69.3726C50.3009 69.4917 50.5689 69.4321 50.6881 69.2237L52.9214 65.4717C53.0554 65.2781 52.9809 65.0101 52.7725 64.8761Z" fill="#4B27F8"/>
<path d="M52.7725 64.8761L48.7227 62.5684L46.0576 67.0797L50.0925 69.3726C50.3009 69.4917 50.5689 69.4321 50.6881 69.2237L52.9214 65.4717C53.0554 65.2781 52.9809 65.0101 52.7725 64.8761Z" fill="#191234"/>
<path d="M68.8517 38.9688L67.4521 43.3312L69.0601 43.7481L69.9535 40.949C70.2215 40.1003 69.7153 39.1921 68.8517 38.9688Z" fill="#191234"/>
<path d="M66.7971 40.0118L65.874 42.9151L67.4522 43.332L68.8518 38.9695L68.7178 38.9398C67.884 38.7164 67.0354 39.1929 66.7971 40.0118Z" fill="#5322FF"/>
<path d="M65.8593 53.5479H63.6855V74.2114C63.6855 74.5836 63.9833 74.8665 64.3407 74.8665H65.8444H67.3631C67.7353 74.8665 68.0182 74.5687 68.0182 74.2114V53.5479H65.8593Z" fill="#191234"/>
<path d="M64.0283 54.7811L60.2912 52.5329L60.4699 52.25L60.0679 52.9051L50.3604 69.4466H54.291C55.0206 69.4169 55.6906 69.0298 56.0628 68.4044L64.0283 54.7811Z" fill="#191234"/>
<path d="M64.0283 54.7821L60.2912 52.5339L60.4699 52.251L60.0679 52.9061L50.3604 69.4476H54.291C55.0206 69.4178 55.6906 69.0307 56.0628 68.4054L64.0283 54.7821Z" fill="#5322FF"/>
<path d="M63.7385 55.2701L62.4213 57.5248C60.7713 56.9061 59.2369 55.4045 58.9619 54.792L60.4713 52.2373L63.7385 55.2701Z" fill="#191234"/>
<path d="M65.4428 54.707C64.9217 54.6772 64.4006 54.5879 63.8944 54.4241C60.8422 53.4414 59.13 50.2255 60.0977 47.2626C61.0506 44.2997 64.3113 42.6917 67.3784 43.6744C70.4306 44.657 72.1428 47.873 71.175 50.8359C70.7135 52.2801 69.6862 53.4414 68.3164 54.1114C67.4231 54.5581 66.4404 54.7517 65.4428 54.707ZM65.7704 44.7761C63.8497 44.6719 62.0333 45.8183 61.4377 47.6795C60.7231 49.9128 62.0184 52.3397 64.3411 53.0841C65.4726 53.4563 66.6637 53.367 67.7059 52.8608C68.7482 52.3546 69.5075 51.4761 69.8499 50.4041C70.5646 48.1708 69.2693 45.7439 66.9466 44.9995C66.5595 44.8804 66.1724 44.8059 65.7704 44.7761Z" fill="#191234"/>
<path d="M65.4279 55.5556C64.8324 55.5258 64.2368 55.4216 63.6561 55.228C60.1424 54.0965 58.177 50.3891 59.2937 46.9796C60.3955 43.57 64.1475 41.7238 67.6612 42.8554C71.175 43.9869 73.1404 47.6943 72.0237 51.1038C71.4877 52.7565 70.3264 54.0965 68.7332 54.8707C67.691 55.3918 66.5595 55.6151 65.4279 55.5556ZM65.8001 44.1507C63.5817 44.0316 61.4973 45.3567 60.8124 47.4858C59.9786 50.0467 61.4824 52.8458 64.1475 53.6945C65.4428 54.1114 66.8275 54.022 68.0186 53.4265C69.2097 52.8458 70.0881 51.8334 70.4901 50.5976C71.3239 48.0367 69.8201 45.2376 67.155 44.3889C66.7084 44.2549 66.2468 44.1656 65.8001 44.1507Z" fill="#191234"/>
<path d="M43.0347 72.306L41.6501 71.502L41.5459 73.4822C41.531 73.7948 41.6947 74.0628 41.933 74.1968C42.1712 74.3308 42.4839 74.3457 42.7519 74.1819L43.8685 73.4524L44.4194 73.0951L43.0347 72.306Z" fill="#5322FF"/>
<path d="M59.234 46.9648C58.1322 50.3744 60.0976 54.0817 63.6113 55.2133L64.1027 53.6797C61.4376 52.8162 59.9338 50.0319 60.7676 47.4711L59.234 46.9648Z" fill="#5322FF"/>
<path d="M59.2344 46.9646L60.7679 47.4708C60.7679 47.4708 60.7679 47.4708 60.7679 47.456C61.6017 44.8951 64.3561 43.4657 67.0213 44.3293L67.6168 42.8255C64.0881 41.694 60.3362 43.5551 59.2344 46.9646Z" fill="#5322FF"/>
<path d="M60.0678 47.2334C59.1149 50.1963 60.8122 53.4123 63.8644 54.4098L64.2962 53.0847C61.9735 52.3403 60.6782 49.9134 61.3929 47.6801L60.0678 47.2334Z" fill="#5322FF"/>
<path d="M60.0684 47.2333L61.3935 47.6799C61.3935 47.6799 61.3935 47.6799 61.3935 47.665C62.1081 45.4317 64.5052 44.1959 66.8279 44.9553L67.349 43.6451C64.2819 42.6624 61.0212 44.2704 60.0684 47.2333Z" fill="#5322FF"/>
<defs>
<radialGradient id="paint0_radial_3888_146871" cx="0" cy="0" r="1" gradientUnits="userSpaceOnUse" gradientTransform="translate(50.588 49.3252) rotate(45.929) scale(39.2496)">
<stop offset="0.2034" stop-color="#FFB884" stop-opacity="0.5"/>
<stop offset="0.7836" stop-color="#CF592E" stop-opacity="0.5"/>
<stop offset="0.9982" stop-color="#4B27F8" stop-opacity="0.5"/>
</radialGradient>
<radialGradient id="paint1_radial_3888_146871" cx="0" cy="0" r="1" gradientUnits="userSpaceOnUse" gradientTransform="translate(48.5725 50.3258) rotate(40.9144) scale(41.6838)">
<stop offset="0.1579" stop-color="#FFF2AB" stop-opacity="0.5"/>
<stop offset="0.4729" stop-color="#FFE968" stop-opacity="0.5"/>
<stop offset="0.7641" stop-color="#FCC55A" stop-opacity="0.5"/>
<stop offset="0.9986" stop-color="#A07300" stop-opacity="0.3"/>
</radialGradient>
</defs>
</svg>
