<svg width="30" height="30" viewBox="0 0 30 30" fill="none" xmlns="http://www.w3.org/2000/svg">
<path fill-rule="evenodd" clip-rule="evenodd" d="M10.3866 2.30159C9.0426 2.1116 7.72746 2.97947 7.44918 4.24004L3.51866 22.0445C3.24038 23.3051 4.10433 24.481 5.44834 24.671L19.8268 26.7035C21.1708 26.8935 22.4859 26.0256 22.7642 24.765L26.6947 6.96055C26.973 5.69999 26.1091 4.52408 24.765 4.33409L10.3866 2.30159ZM20.6562 12.2578C21.2584 12.3419 21.8661 11.8821 22.0137 11.231C22.1612 10.5798 21.7926 9.98377 21.1904 9.89969L11.3769 8.52952C10.7747 8.44544 10.1669 8.90516 10.0194 9.55633C9.87185 10.2075 10.2405 10.8035 10.8427 10.8876L20.6562 12.2578ZM14.7739 17.2526C15.3761 17.3367 15.9838 16.877 16.1313 16.2258C16.2789 15.5746 15.9103 14.9786 15.3081 14.8945L10.4013 14.2094C9.79911 14.1253 9.19134 14.585 9.04382 15.2362C8.8963 15.8874 9.2649 16.4834 9.8671 16.5675L14.7739 17.2526Z" fill="#D7CCFF"/>
</svg>
