<svg width="140" height="215" viewBox="0 0 140 215" fill="none" xmlns="http://www.w3.org/2000/svg">
<rect opacity="0.1" width="80" height="80" rx="10" fill="#D7CCFF"/>
<path fill-rule="evenodd" clip-rule="evenodd" d="M29.1018 17.5354C26.6531 17.0698 24.2905 18.6774 23.8248 21.1261L17.9388 52.0782C17.4731 54.5269 19.0807 56.8895 21.5294 57.3552L50.3857 62.8427C52.8345 63.3083 55.197 61.7007 55.6627 59.252L61.5488 28.2999C62.0145 25.8512 60.4069 23.4886 57.9581 23.0229L29.1018 17.5354ZM50.2645 36.6832C51.422 36.9033 52.5387 36.1435 52.7588 34.986C52.9789 33.8285 52.2191 32.7118 51.0616 32.4917L32.1996 28.9047C31.0422 28.6846 29.9254 29.4445 29.7053 30.602C29.4852 31.7594 30.2451 32.8762 31.4025 33.0963L50.2645 36.6832ZM39.5076 45.0212C40.6651 45.2414 41.7818 44.4815 42.0019 43.324C42.222 42.1666 41.4622 41.0498 40.3047 40.8297L30.8737 39.0362C29.7162 38.8161 28.5995 39.576 28.3794 40.7335C28.1593 41.8909 28.9192 43.0077 30.0766 43.2278L39.5076 45.0212Z" fill="#D7CCFF"/>
<g clip-path="url(#clip0_4336_79355)">
<g clip-path="url(#clip1_4336_79355)">
<path d="M121.724 195.734L132.686 193.801C133.272 193.697 133.796 194.27 133.655 194.839L132.682 200.632L135.371 204.57C135.698 205.056 135.402 205.774 134.815 205.877L125.143 207.583C124.439 207.707 123.75 207.224 123.626 206.52L121.724 195.734Z" fill="#D7CCFF"/>
<path d="M127.938 194.638L132.687 193.801C133.273 193.697 133.797 194.27 133.656 194.839L133.224 199.932L135.372 204.57C135.699 205.056 135.403 205.774 134.816 205.877L130.068 206.714L127.938 194.638Z" fill="#EFEBFF"/>
<path d="M126.854 205.286L117.767 206.888L115.638 194.812L122.555 193.592C123.786 193.375 124.9 194.207 125.107 195.379L126.854 205.286Z" fill="#EFEBFF"/>
<path d="M122.555 193.592L115.638 194.812L115.979 196.747L125.065 195.144C124.752 194.051 123.669 193.396 122.555 193.592Z" fill="#D7CCFF"/>
<path opacity="0.7" d="M133.556 195.642L133.656 194.839C133.797 194.27 133.273 193.697 132.687 193.801L127.938 194.638L128.28 196.572L133.556 195.642Z" fill="#D7CCFF"/>
<path d="M127.94 194.638L125.067 195.144L125.408 197.079L128.281 196.572L127.94 194.638Z" fill="#D7CCFF"/>
<path fill-rule="evenodd" clip-rule="evenodd" d="M113.869 192.668C114.563 192.486 115.311 192.958 115.435 193.662L118.193 209.306L118.193 209.307L118.821 212.868C118.935 213.513 118.569 214.182 117.945 214.413C117.252 214.595 116.504 214.123 116.38 213.419L114.002 199.936L114.002 199.936L112.993 194.213C112.88 193.568 113.245 192.899 113.869 192.668Z" fill="#E7E0FF"/>
</g>
</g>
<g clip-path="url(#clip2_4336_79355)">
<path d="M120.733 161.275L122.554 155.468C122.612 155.368 122.62 155.239 122.548 155.132C122.527 155.053 122.456 154.945 122.385 154.838C122.285 154.78 122.186 154.722 122.086 154.665C121.957 154.657 121.878 154.678 121.749 154.67C121.749 154.67 117.96 155.812 116.327 156.334C115.855 156.461 115.474 156.774 115.215 157.224L113.138 160.819C112.677 161.619 113.367 162.616 114.254 162.462L120.145 161.602L120.224 161.581C120.302 161.559 120.41 161.488 120.489 161.467C120.696 161.454 120.754 161.354 120.733 161.275Z" fill="#D7CCFF"/>
<path d="M124.878 163.668L128.997 159.188C129.054 159.088 129.162 159.017 129.291 159.024C129.37 159.003 129.498 159.011 129.627 159.019C129.727 159.076 129.827 159.134 129.927 159.192C129.998 159.299 130.019 159.378 130.09 159.486C130.09 159.486 130.995 163.338 131.36 165.013C131.487 165.486 131.406 165.972 131.146 166.422L129.07 170.018C128.609 170.817 127.4 170.718 127.089 169.873L124.889 164.341L124.868 164.262C124.847 164.183 124.855 164.055 124.834 163.976C124.792 163.818 124.849 163.718 124.878 163.668Z" fill="#E7E0FF"/>
<path d="M123.231 167.246C123.381 167.332 123.56 167.369 123.738 167.405C123.917 167.442 124.074 167.4 124.261 167.307C128.963 165.161 131.746 160.109 132.433 156.843C133.243 153.249 132.385 149.89 131.884 148.336C131.8 148.021 131.658 147.806 131.408 147.661C131.159 147.517 130.901 147.502 130.615 147.536C129.018 147.88 125.681 148.816 122.973 151.315C120.538 153.572 117.476 158.529 117.997 163.624C118.039 163.782 118.081 163.94 118.173 164.126C118.294 164.262 118.415 164.399 118.565 164.485L123.26 167.196L123.231 167.246Z" fill="white"/>
<path d="M131.394 147.653C131.144 147.509 130.887 147.494 130.601 147.528C129.004 147.872 125.667 148.808 122.959 151.307C120.524 153.563 117.462 158.521 117.983 163.616C118.025 163.774 118.067 163.931 118.159 164.118C118.28 164.254 118.401 164.391 118.551 164.477L120.899 165.832L131.394 147.653Z" fill="#EAE4FF"/>
<path d="M117.969 163.675C118.011 163.832 118.052 163.989 118.144 164.175C118.263 164.311 118.383 164.447 118.532 164.533L123.243 167.253C123.392 167.339 123.569 167.375 123.747 167.41C123.925 167.446 124.082 167.404 124.267 167.311C125.274 166.827 126.211 166.236 127.077 165.537L118.101 160.355C117.929 161.454 117.885 162.561 117.969 163.675Z" fill="#DFD7FF"/>
<path d="M120.87 165.882L123.217 167.238C123.367 167.324 123.545 167.361 123.724 167.397C123.903 167.434 124.06 167.392 124.247 167.299C125.257 166.818 126.197 166.228 127.066 165.531L122.571 162.936L120.87 165.882Z" fill="#E7E0FF"/>
<path d="M132.69 152.33C132.567 150.928 132.287 149.567 131.849 148.249C131.786 148.013 131.644 147.798 131.394 147.653L129.693 150.6L132.69 152.33Z" fill="#E7E0FF"/>
<path d="M126.697 148.87C127.972 148.275 129.245 147.821 130.605 147.541C130.841 147.478 131.145 147.509 131.394 147.653L129.693 150.6L126.697 148.87Z" fill="#D7CCFF"/>
<path d="M129.295 154.803C129.451 155.392 129.394 155.988 129.158 156.534C128.921 157.08 128.477 157.532 127.944 157.776C127.4 158.039 126.807 158.117 126.206 157.98C125.626 157.854 125.119 157.51 124.743 157.03C124.386 156.562 124.179 155.97 124.206 155.381C124.232 154.793 124.46 154.216 124.854 153.761C125.247 153.305 125.783 153.011 126.368 152.903C126.953 152.794 127.565 152.911 128.074 153.206C128.368 153.375 128.628 153.604 128.834 153.881C129.06 154.168 129.224 154.473 129.295 154.803Z" fill="#D8CDFF"/>
<path d="M122.657 164.584C121.377 166.801 120.419 167.688 119.95 167.417C119.549 167.185 119.771 165.873 121.051 163.656C122.331 161.439 124.11 159.131 124.578 159.401C125.047 159.672 123.97 162.31 122.657 164.584Z" fill="#E7E0FF"/>
</g>
<circle opacity="0.9" cx="124" cy="115" r="12" fill="#E7E0FF"/>
<path fill-rule="evenodd" clip-rule="evenodd" d="M117.97 125.377C115.668 123.191 114.233 120.101 114.233 116.676C114.233 110.048 119.606 104.676 126.233 104.676C128.431 104.676 130.492 105.267 132.263 106.298C130.112 104.254 127.202 103 124 103C117.373 103 112 108.373 112 115C112 119.429 114.4 123.298 117.97 125.377Z" fill="#D7CCFF"/>
<path d="M128.775 114.373L122.183 110.345C122.072 110.277 121.945 110.24 121.815 110.238C121.685 110.235 121.556 110.267 121.443 110.331C121.329 110.395 121.235 110.487 121.169 110.6C121.103 110.712 121.068 110.84 121.068 110.97V119.027C121.069 119.158 121.103 119.285 121.169 119.397C121.235 119.51 121.329 119.602 121.443 119.666C121.556 119.73 121.685 119.762 121.815 119.76C121.945 119.757 122.072 119.72 122.183 119.652L128.775 115.624C128.882 115.558 128.97 115.467 129.032 115.357C129.093 115.248 129.125 115.124 129.125 114.999C129.125 114.873 129.093 114.75 129.032 114.64C128.97 114.531 128.882 114.439 128.775 114.373Z" fill="white"/>
<path d="M35.5 81.0625C35.5 81.6148 35.9477 82.0625 36.5 82.0625C37.0523 82.0625 37.5 81.6148 37.5 81.0625H35.5ZM37.5 87.4375C37.5 86.8852 37.0523 86.4375 36.5 86.4375C35.9477 86.4375 35.5 86.8852 35.5 87.4375H37.5ZM35.5 89.5625C35.5 90.1148 35.9477 90.5625 36.5 90.5625C37.0523 90.5625 37.5 90.1148 37.5 89.5625H35.5ZM37.5 95.9375C37.5 95.3852 37.0523 94.9375 36.5 94.9375C35.9477 94.9375 35.5 95.3852 35.5 95.9375H37.5ZM35.5 98.0625C35.5 98.6148 35.9477 99.0625 36.5 99.0625C37.0523 99.0625 37.5 98.6148 37.5 98.0625H35.5ZM37.5 104.438C37.5 103.885 37.0523 103.438 36.5 103.438C35.9477 103.438 35.5 103.885 35.5 104.438H37.5ZM35.5 106.562C35.5 107.115 35.9477 107.562 36.5 107.562C37.0523 107.562 37.5 107.115 37.5 106.562H35.5ZM37.5 112.938C37.5 112.385 37.0523 111.938 36.5 111.938C35.9477 111.938 35.5 112.385 35.5 112.938H37.5ZM100.977 113C100.424 113 99.9766 113.448 99.9766 114C99.9766 114.552 100.424 115 100.977 115V113ZM94.8359 115C95.3882 115 95.8359 114.552 95.8359 114C95.8359 113.448 95.3882 113 94.8359 113V115ZM92.7891 113C92.2368 113 91.7891 113.448 91.7891 114C91.7891 114.552 92.2368 115 92.7891 115V113ZM86.6484 115C87.2007 115 87.6484 114.552 87.6484 114C87.6484 113.448 87.2007 113 86.6484 113V115ZM84.6016 113C84.0493 113 83.6016 113.448 83.6016 114C83.6016 114.552 84.0493 115 84.6016 115V113ZM78.4609 115C79.0132 115 79.4609 114.552 79.4609 114C79.4609 113.448 79.0132 113 78.4609 113V115ZM76.4141 113C75.8618 113 75.4141 113.448 75.4141 114C75.4141 114.552 75.8618 115 76.4141 115V113ZM70.2734 115C70.8257 115 71.2734 114.552 71.2734 114C71.2734 113.448 70.8257 113 70.2734 113V115ZM68.2266 113C67.6743 113 67.2266 113.448 67.2266 114C67.2266 114.552 67.6743 115 68.2266 115V113ZM62.0859 115C62.6382 115 63.0859 114.552 63.0859 114C63.0859 113.448 62.6382 113 62.0859 113V115ZM60.0391 113C59.4868 113 59.0391 113.448 59.0391 114C59.0391 114.552 59.4868 115 60.0391 115V113ZM53.8984 115C54.4507 115 54.8984 114.552 54.8984 114C54.8984 113.448 54.4507 113 53.8984 113V115ZM51.8516 113C51.2993 113 50.8516 113.448 50.8516 114C50.8516 114.552 51.2993 115 51.8516 115V113ZM45.7109 115C46.2632 115 46.7109 114.552 46.7109 114C46.7109 113.448 46.2632 113 45.7109 113V115ZM43.6641 113C43.1118 113 42.6641 113.448 42.6641 114C42.6641 114.552 43.1118 115 43.6641 115V113ZM37.5234 115C38.0757 115 38.5234 114.552 38.5234 114C38.5234 113.448 38.0757 113 37.5234 113V115ZM35.5 114.927C35.5 115.479 35.9477 115.927 36.5 115.927C37.0523 115.927 37.5 115.479 37.5 114.927H35.5ZM37.5 120.49C37.5 119.937 37.0523 119.49 36.5 119.49C35.9477 119.49 35.5 119.937 35.5 120.49H37.5ZM35.5 122.344C35.5 122.896 35.9477 123.344 36.5 123.344C37.0523 123.344 37.5 122.896 37.5 122.344H35.5ZM37.5 127.906C37.5 127.354 37.0523 126.906 36.5 126.906C35.9477 126.906 35.5 127.354 35.5 127.906H37.5ZM35.5 129.76C35.5 130.313 35.9477 130.76 36.5 130.76C37.0523 130.76 37.5 130.313 37.5 129.76H35.5ZM37.5 135.323C37.5 134.771 37.0523 134.323 36.5 134.323C35.9477 134.323 35.5 134.771 35.5 135.323H37.5ZM35.5 137.177C35.5 137.729 35.9477 138.177 36.5 138.177C37.0523 138.177 37.5 137.729 37.5 137.177H35.5ZM37.5 142.74C37.5 142.187 37.0523 141.74 36.5 141.74C35.9477 141.74 35.5 142.187 35.5 142.74H37.5ZM35.5 144.594C35.5 145.146 35.9477 145.594 36.5 145.594C37.0523 145.594 37.5 145.146 37.5 144.594H35.5ZM37.5 150.156C37.5 149.604 37.0523 149.156 36.5 149.156C35.9477 149.156 35.5 149.604 35.5 150.156H37.5ZM35.5 152.01C35.5 152.563 35.9477 153.01 36.5 153.01C37.0523 153.01 37.5 152.563 37.5 152.01H35.5ZM37.5 157.573C37.5 157.021 37.0523 156.573 36.5 156.573C35.9477 156.573 35.5 157.021 35.5 157.573H37.5ZM100.977 157.5C100.424 157.5 99.9766 157.948 99.9766 158.5C99.9766 159.052 100.424 159.5 100.977 159.5V157.5ZM94.8359 159.5C95.3882 159.5 95.8359 159.052 95.8359 158.5C95.8359 157.948 95.3882 157.5 94.8359 157.5V159.5ZM92.7891 157.5C92.2368 157.5 91.7891 157.948 91.7891 158.5C91.7891 159.052 92.2368 159.5 92.7891 159.5V157.5ZM86.6484 159.5C87.2007 159.5 87.6484 159.052 87.6484 158.5C87.6484 157.948 87.2007 157.5 86.6484 157.5V159.5ZM84.6016 157.5C84.0493 157.5 83.6016 157.948 83.6016 158.5C83.6016 159.052 84.0493 159.5 84.6016 159.5V157.5ZM78.4609 159.5C79.0132 159.5 79.4609 159.052 79.4609 158.5C79.4609 157.948 79.0132 157.5 78.4609 157.5V159.5ZM76.4141 157.5C75.8618 157.5 75.4141 157.948 75.4141 158.5C75.4141 159.052 75.8618 159.5 76.4141 159.5V157.5ZM70.2734 159.5C70.8257 159.5 71.2734 159.052 71.2734 158.5C71.2734 157.948 70.8257 157.5 70.2734 157.5V159.5ZM68.2266 157.5C67.6743 157.5 67.2266 157.948 67.2266 158.5C67.2266 159.052 67.6743 159.5 68.2266 159.5V157.5ZM62.0859 159.5C62.6382 159.5 63.0859 159.052 63.0859 158.5C63.0859 157.948 62.6382 157.5 62.0859 157.5V159.5ZM60.0391 157.5C59.4868 157.5 59.0391 157.948 59.0391 158.5C59.0391 159.052 59.4868 159.5 60.0391 159.5V157.5ZM53.8984 159.5C54.4507 159.5 54.8984 159.052 54.8984 158.5C54.8984 157.948 54.4507 157.5 53.8984 157.5V159.5ZM51.8516 157.5C51.2993 157.5 50.8516 157.948 50.8516 158.5C50.8516 159.052 51.2993 159.5 51.8516 159.5V157.5ZM45.7109 159.5C46.2632 159.5 46.7109 159.052 46.7109 158.5C46.7109 157.948 46.2632 157.5 45.7109 157.5V159.5ZM43.6641 157.5C43.1118 157.5 42.6641 157.948 42.6641 158.5C42.6641 159.052 43.1118 159.5 43.6641 159.5V157.5ZM37.5234 159.5C38.0757 159.5 38.5234 159.052 38.5234 158.5C38.5234 157.948 38.0757 157.5 37.5234 157.5V159.5ZM35.5 159.531C35.5 160.084 35.9477 160.531 36.5 160.531C37.0523 160.531 37.5 160.084 37.5 159.531H35.5ZM37.5 165.719C37.5 165.166 37.0523 164.719 36.5 164.719C35.9477 164.719 35.5 165.166 35.5 165.719H37.5ZM35.5 167.781C35.5 168.334 35.9477 168.781 36.5 168.781C37.0523 168.781 37.5 168.334 37.5 167.781H35.5ZM37.5 173.969C37.5 173.416 37.0523 172.969 36.5 172.969C35.9477 172.969 35.5 173.416 35.5 173.969H37.5ZM35.5 176.031C35.5 176.584 35.9477 177.031 36.5 177.031C37.0523 177.031 37.5 176.584 37.5 176.031H35.5ZM37.5 182.219C37.5 181.666 37.0523 181.219 36.5 181.219C35.9477 181.219 35.5 181.666 35.5 182.219H37.5ZM35.5 184.281C35.5 184.834 35.9477 185.281 36.5 185.281C37.0523 185.281 37.5 184.834 37.5 184.281H35.5ZM37.5 190.469C37.5 189.916 37.0523 189.469 36.5 189.469C35.9477 189.469 35.5 189.916 35.5 190.469H37.5ZM35.5617 192.774C35.6152 193.323 36.1041 193.725 36.6538 193.672C37.2035 193.618 37.6058 193.129 37.5523 192.58L35.5617 192.774ZM39.9962 198.478C39.6456 198.051 39.0154 197.99 38.5887 198.34C38.162 198.691 38.1003 199.321 38.4509 199.748L39.9962 198.478ZM40.2523 201.549C40.6791 201.9 41.3092 201.838 41.6598 201.411C42.0104 200.985 41.9487 200.354 41.522 200.004L40.2523 201.549ZM47.4202 202.448C46.8705 202.394 46.3815 202.796 46.328 203.346C46.2745 203.896 46.6768 204.385 47.2265 204.438L47.4202 202.448ZM49.4554 204.5C50.0076 204.5 50.4554 204.052 50.4554 203.5C50.4554 202.948 50.0076 202.5 49.4554 202.5V204.5ZM55.1875 202.5C54.6352 202.5 54.1875 202.948 54.1875 203.5C54.1875 204.052 54.6352 204.5 55.1875 204.5V202.5ZM57.0982 204.5C57.6505 204.5 58.0982 204.052 58.0982 203.5C58.0982 202.948 57.6505 202.5 57.0982 202.5V204.5ZM62.8304 202.5C62.2781 202.5 61.8304 202.948 61.8304 203.5C61.8304 204.052 62.2781 204.5 62.8304 204.5V202.5ZM64.7411 204.5C65.2934 204.5 65.7411 204.052 65.7411 203.5C65.7411 202.948 65.2934 202.5 64.7411 202.5V204.5ZM70.4732 202.5C69.9209 202.5 69.4732 202.948 69.4732 203.5C69.4732 204.052 69.9209 204.5 70.4732 204.5V202.5ZM72.3839 204.5C72.9362 204.5 73.3839 204.052 73.3839 203.5C73.3839 202.948 72.9362 202.5 72.3839 202.5V204.5ZM78.1161 202.5C77.5638 202.5 77.1161 202.948 77.1161 203.5C77.1161 204.052 77.5638 204.5 78.1161 204.5V202.5ZM80.0268 204.5C80.5791 204.5 81.0268 204.052 81.0268 203.5C81.0268 202.948 80.5791 202.5 80.0268 202.5V204.5ZM85.7589 202.5C85.2066 202.5 84.7589 202.948 84.7589 203.5C84.7589 204.052 85.2066 204.5 85.7589 204.5V202.5ZM87.6696 204.5C88.2219 204.5 88.6696 204.052 88.6696 203.5C88.6696 202.948 88.2219 202.5 87.6696 202.5V204.5ZM93.4018 202.5C92.8495 202.5 92.4018 202.948 92.4018 203.5C92.4018 204.052 92.8495 204.5 93.4018 204.5V202.5ZM95.3125 204.5C95.8648 204.5 96.3125 204.052 96.3125 203.5C96.3125 202.948 95.8648 202.5 95.3125 202.5L95.3125 204.5ZM101.045 202.5C100.492 202.5 100.045 202.948 100.045 203.5C100.045 204.052 100.492 204.5 101.045 204.5V202.5ZM35.5 80V81.0625H37.5V80H35.5ZM35.5 87.4375V89.5625H37.5V87.4375H35.5ZM35.5 95.9375V98.0625H37.5V95.9375H35.5ZM35.5 104.438V106.562H37.5V104.438H35.5ZM35.5 112.938V114H37.5V112.938H35.5ZM102 113H100.977V115H102V113ZM94.8359 113H92.7891V115H94.8359V113ZM86.6484 113H84.6016V115H86.6484V113ZM78.4609 113H76.4141V115H78.4609V113ZM70.2734 113H68.2266V115H70.2734V113ZM62.0859 113H60.0391V115H62.0859V113ZM53.8984 113H51.8516V115H53.8984V113ZM45.7109 113H43.6641V115H45.7109V113ZM37.5234 113H36.5V115H37.5234V113ZM35.5 114V114.927H37.5V114H35.5ZM35.5 120.49V122.344H37.5V120.49H35.5ZM35.5 127.906V129.76H37.5V127.906H35.5ZM35.5 135.323V137.177H37.5V135.323H35.5ZM35.5 142.74V144.594H37.5V142.74H35.5ZM35.5 150.156V152.01H37.5V150.156H35.5ZM35.5 157.573V158.5H37.5V157.573H35.5ZM102 157.5H100.977V159.5H102V157.5ZM94.8359 157.5H92.7891V159.5H94.8359V157.5ZM86.6484 157.5H84.6016V159.5H86.6484V157.5ZM78.4609 157.5H76.4141V159.5H78.4609V157.5ZM70.2734 157.5H68.2266V159.5H70.2734V157.5ZM62.0859 157.5H60.0391V159.5H62.0859V157.5ZM53.8984 157.5H51.8516V159.5H53.8984V157.5ZM45.7109 157.5H43.6641V159.5H45.7109V157.5ZM37.5234 157.5H36.5V159.5H37.5234V157.5ZM35.5 158.5V159.531H37.5V158.5H35.5ZM35.5 165.719V167.781H37.5V165.719H35.5ZM35.5 173.969V176.031H37.5V173.969H35.5ZM35.5 182.219V184.281H37.5V182.219H35.5ZM35.5 190.469V191.5H37.5V190.469H35.5ZM35.5 191.5C35.5 191.929 35.5209 192.354 35.5617 192.774L37.5523 192.58C37.5177 192.225 37.5 191.865 37.5 191.5H35.5ZM38.4509 199.748C38.9912 200.405 39.5947 201.009 40.2523 201.549L41.522 200.004C40.965 199.546 40.4538 199.035 39.9962 198.478L38.4509 199.748ZM47.2265 204.438C47.6457 204.479 48.0706 204.5 48.5 204.5V202.5C48.1354 202.5 47.7752 202.482 47.4202 202.448L47.2265 204.438ZM48.5 204.5H49.4554V202.5H48.5V204.5ZM55.1875 204.5H57.0982V202.5H55.1875V204.5ZM62.8304 204.5H64.7411V202.5H62.8304V204.5ZM70.4732 204.5H72.3839V202.5H70.4732V204.5ZM78.1161 204.5H80.0268V202.5H78.1161V204.5ZM85.7589 204.5H87.6696V202.5H85.7589V204.5ZM93.4018 204.5H95.3125L95.3125 202.5H93.4018V204.5ZM101.045 204.5H102V202.5H101.045V204.5Z" fill="#D7CCFF"/>
<defs>
<clipPath id="clip0_4336_79355">
<rect width="24" height="24" fill="white" transform="translate(112 191)"/>
</clipPath>
<clipPath id="clip1_4336_79355">
<rect width="26.3448" height="26.3448" fill="white" transform="translate(109.349 190.921) rotate(-10)"/>
</clipPath>
<clipPath id="clip2_4336_79355">
<rect width="18.3962" height="24.0388" fill="white" transform="translate(124.004 142) rotate(30)"/>
</clipPath>
</defs>
</svg>
