<svg width="30" height="31" viewBox="0 0 30 31" fill="none" xmlns="http://www.w3.org/2000/svg">
<path fill-rule="evenodd" clip-rule="evenodd" d="M15 0.00390625C6.71573 0.00390625 0 6.71964 0 15.0039C0 23.2882 6.71573 30.0039 15 30.0039C23.2843 30.0039 30 23.2882 30 15.0039C30 6.71964 23.2843 0.00390625 15 0.00390625ZM7.19922 12.4258H10.5985V22.6394H7.19922V12.4258ZM10.8242 9.26809C10.8022 8.26666 10.086 7.50391 8.92315 7.50391C7.76026 7.50391 7 8.26666 7 9.26809C7 10.2488 7.73779 11.0335 8.87902 11.0335H8.90074C10.086 11.0335 10.8242 10.2488 10.8242 9.26809ZM18.9442 12.1875C21.1812 12.1875 22.8581 13.6476 22.8581 16.7848L22.858 22.6409H19.4588V17.1766C19.4588 15.8041 18.9669 14.8676 17.7363 14.8676C16.7972 14.8676 16.2378 15.499 15.9921 16.1088C15.9023 16.3273 15.8802 16.6318 15.8802 16.9371V22.6412H12.4805C12.4805 22.6412 12.5253 13.386 12.4805 12.4276H15.8802V13.8743C16.3314 13.1788 17.1394 12.1875 18.9442 12.1875Z" fill="white"/>
</svg>
