<svg width="30" height="31" viewBox="0 0 30 31" fill="none" xmlns="http://www.w3.org/2000/svg">
<path fill-rule="evenodd" clip-rule="evenodd" d="M15 0.00292969C6.71573 0.00292969 0 6.71866 0 15.0029C0 23.2872 6.71573 30.0029 15 30.0029C23.2843 30.0029 30 23.2872 30 15.0029C30 6.71866 23.2843 0.00292969 15 0.00292969ZM7.19922 12.4248H10.5985V22.6384H7.19922V12.4248ZM10.8242 9.26712C10.8022 8.26568 10.086 7.50293 8.92315 7.50293C7.76026 7.50293 7 8.26568 7 9.26712C7 10.2478 7.73779 11.0325 8.87902 11.0325H8.90074C10.086 11.0325 10.8242 10.2478 10.8242 9.26712ZM18.9442 12.1865C21.1812 12.1865 22.8581 13.6466 22.8581 16.7838L22.858 22.6399H19.4588V17.1757C19.4588 15.8032 18.9669 14.8666 17.7363 14.8666C16.7972 14.8666 16.2378 15.498 15.9921 16.1078C15.9023 16.3263 15.8802 16.6308 15.8802 16.9361V22.6402H12.4805C12.4805 22.6402 12.5253 13.385 12.4805 12.4266H15.8802V13.8733C16.3314 13.1779 17.1394 12.1865 18.9442 12.1865Z" fill="#4B205A"/>
</svg>
