<?xml version="1.0" encoding="utf-8"?>
<!-- Generator: Adobe Illustrator 26.0.1, SVG Export Plug-In . SVG Version: 6.00 Build 0)  -->
<svg version="1.1" id="Layer_1" xmlns="http://www.w3.org/2000/svg" xmlns:xlink="http://www.w3.org/1999/xlink" x="0px" y="0px"
	 viewBox="0 0 80 80" style="enable-background:new 0 0 80 80;" xml:space="preserve">
<style type="text/css">
	.st0{clip-path:url(#SVGID_00000118375738590048544060000000340241102473470597_);fill:#FFFFFF;}
	.st1{opacity:0.4;clip-path:url(#SVGID_00000118375738590048544060000000340241102473470597_);fill:#50CCFB;}
	.st2{clip-path:url(#SVGID_00000161608453526640534950000017371955339657571494_);}
	.st3{fill:#FEE97D;}
	.st4{fill:#FED402;}
	.st5{fill:#405480;}
	.st6{clip-path:url(#SVGID_00000161608453526640534950000017371955339657571494_);fill:#566F9B;}
	.st7{clip-path:url(#SVGID_00000161608453526640534950000017371955339657571494_);fill:#405480;}
	.st8{fill:#566F9B;}
	.st9{fill:#E73E4F;}
	.st10{fill:#D33E4F;}
	.st11{fill:#BD3E4F;}
	.st12{opacity:0.46;fill:#903E4F;}
	.st13{fill:#8077F7;}
	.st14{fill:#6444FB;}
	.st15{fill:#FFFFFF;}
	.st16{fill:#D0F6FF;}
	.st17{fill:#474F6F;}
	.st18{fill:#313B5A;}
	.st19{fill:#20273A;}
	.st20{fill:#9E97F7;}
	.st21{fill:#785CFB;}
	.st22{fill:#8FC9F7;}
	.st23{fill:#FFD112;}
	.st24{fill:#FF9F00;}
</style>
<g>
	<g>
		<defs>
			<circle id="SVGID_1_" cx="40.1" cy="39.9" r="38"/>
		</defs>
		<clipPath id="SVGID_00000139273599709955488440000013441903619271808649_">
			<use xlink:href="#SVGID_1_"  style="overflow:visible;"/>
		</clipPath>
		
			<rect x="2.1" y="1.9" style="clip-path:url(#SVGID_00000139273599709955488440000013441903619271808649_);fill:#FFFFFF;" width="76" height="76"/>
		
			<circle style="opacity:0.4;clip-path:url(#SVGID_00000139273599709955488440000013441903619271808649_);fill:#50CCFB;" cx="40.1" cy="39.9" r="38"/>
	</g>
	<g>
		<defs>
			<circle id="SVGID_00000093885023241072862730000011001537916906923923_" cx="40.1" cy="39.9" r="38"/>
		</defs>
		<clipPath id="SVGID_00000146497191821938464650000000302619851058812333_">
			<use xlink:href="#SVGID_00000093885023241072862730000011001537916906923923_"  style="overflow:visible;"/>
		</clipPath>
		<g style="clip-path:url(#SVGID_00000146497191821938464650000000302619851058812333_);">
			<polygon class="st3" points="56.4,-2.1 39.5,23.3 61.1,57.4 69.5,4.9 			"/>
			<polygon class="st3" points="23.5,-2.2 10.4,5 18,55.7 39.5,23.3 			"/>
			<polygon class="st4" points="18,55.7 61.1,57.4 39.5,23.3 			"/>
		</g>
		<g style="clip-path:url(#SVGID_00000146497191821938464650000000302619851058812333_);">
			<path class="st5" d="M20.8-3.6L10.7,1.9l-2.2-4C7-4.9,8-8.4,10.8-9.9l0,0c2.8-1.5,6.3-0.5,7.8,2.3L20.8-3.6z"/>
		</g>
		<path style="clip-path:url(#SVGID_00000146497191821938464650000000302619851058812333_);fill:#566F9B;" d="M23.1-2.1L10.8,4.6
			c-0.2,0.1-0.5,0-0.6-0.2L9.3,2.8c-0.1-0.2,0-0.5,0.2-0.6l12.3-6.7c0.2-0.1,0.5,0,0.6,0.2l0.9,1.7C23.4-2.5,23.3-2.2,23.1-2.1z"/>
		<path style="clip-path:url(#SVGID_00000146497191821938464650000000302619851058812333_);fill:#405480;" d="M69.2,1.9L59-3.6
			l2.1-4c1.5-2.8,5-3.9,7.8-2.4l0,0c2.8,1.5,3.9,5,2.4,7.8L69.2,1.9z"/>
		<g style="clip-path:url(#SVGID_00000146497191821938464650000000302619851058812333_);">
			<g>
				<g>
					<path class="st8" d="M69.1,4.6L56.8-2c-0.2-0.1-0.3-0.4-0.2-0.6l0.9-1.7c0.1-0.2,0.4-0.3,0.6-0.2l12.3,6.6
						c0.2,0.1,0.3,0.4,0.2,0.6l-0.9,1.7C69.6,4.6,69.3,4.7,69.1,4.6z"/>
				</g>
			</g>
		</g>
		<g style="clip-path:url(#SVGID_00000146497191821938464650000000302619851058812333_);">
			<path class="st9" d="M65.2,65.5H14.1l2.4-8.5c0.3-1,1.2-1.7,2.3-1.7h41.7c1.1,0,2,0.7,2.3,1.7L65.2,65.5z"/>
			<path class="st10" d="M71.4,73.2H7.9l2.3-9.1c0.4-1.3,1.6-2.2,3-2.2h53.1c1.4,0,2.6,0.9,3,2.2L71.4,73.2z"/>
			<path class="st11" d="M76.7,82.4H2.6l2.7-10.6c0.4-1.5,1.9-2.6,3.5-2.6h61.8c1.6,0,3,1.1,3.5,2.6L76.7,82.4z"/>
			<path class="st12" d="M70.6,69.2h-0.1l-1.3-5.1c-0.4-1.3-1.6-2.2-3-2.2h-2L62.8,57c-0.3-1-1.2-1.7-2.3-1.7H39.1v27.1h37.5
				L74,71.8C73.6,70.3,72.2,69.2,70.6,69.2z"/>
		</g>
		<g style="clip-path:url(#SVGID_00000146497191821938464650000000302619851058812333_);">
			<ellipse class="st13" cx="39.4" cy="43.7" rx="11.7" ry="10.4"/>
			<path class="st14" d="M39.3,33.3c6.5,0,11.8,4.7,11.8,10.4s-5.3,10.4-11.8,10.4"/>
			<path class="st13" d="M51.1,42.9c0,1.3-0.3,2.5-0.8,3.6c-3.3,1.8-7,2.8-11,2.8s-7.7-1-11-2.8c-0.5-1.1-0.8-2.3-0.8-3.6
				c0-2.2,0.9-4.3,2.5-6.1c1.3-1.4,1.7-3.5,1-5.3c-0.4-1-0.6-2.1-0.6-3.3v0c0,0,0,0,0-0.1c0-1.5,1-2.8,2.3-3.4
				c0.3-0.1,0.7,0.1,0.7,0.5v0c0,2.5,1.5,4.6,3.7,5.5c0.7,0.3,1.4,0.4,2.2,0.4c0.8,0,1.5-0.2,2.2-0.4c2.2-0.9,3.7-3,3.7-5.5v0
				c0-0.4,0.4-0.6,0.7-0.5c1.3,0.5,2.3,1.8,2.3,3.4c0,0.1,0,0.1,0,0.2c0,1.1-0.2,2.1-0.6,3.1c-0.7,1.9-0.3,3.9,1,5.4
				C50.3,38.6,51.1,40.7,51.1,42.9z"/>
			<path class="st14" d="M48.7,36.8c-1.3-1.5-1.7-3.5-1-5.4c0.4-1,0.6-2,0.6-3.1c0-0.1,0-0.1,0-0.2c0-1.5-1-2.8-2.3-3.4
				c-0.3-0.1-0.7,0.1-0.7,0.5v0c0,3.3-2.6,5.9-5.9,5.9v18.1c4,0,7.7-1,11-2.8c0.5-1.1,0.8-2.3,0.8-3.6
				C51.1,40.7,50.3,38.6,48.7,36.8z"/>
			<path class="st15" d="M49,42.9L49,42.9c0,0.5-0.4,0.9-0.9,0.9H37.4c-2,0-3.5-1.6-3.5-3.5V35c0-1.5,1.5-2.6,3-2.1
				c0.8,0.3,1.6,0.4,2.5,0.4c2.4,0,4.6-1.1,6.1-2.8c0.1-0.1,0.3,0,0.3,0.2c0,0,0,0,0,0c-1,2.6-0.4,5.6,1.5,7.6h0
				C48.3,39.6,49,41.2,49,42.9z"/>
			<path class="st16" d="M47.1,38.3L47.1,38.3c-1.9-2.1-2.5-5-1.5-7.6c0,0,0,0,0,0c0.1-0.2-0.2-0.3-0.3-0.2
				c-1.5,1.7-3.7,2.8-6.1,2.8v10.5H48c0.5,0,0.9-0.4,0.9-0.9v0C49,41.2,48.3,39.6,47.1,38.3z"/>
			<path class="st17" d="M42.8,41.2v0.3c0,0.5-0.4,0.9-0.9,0.9h-5.3c-0.5,0-0.9-0.4-0.9-0.9v-0.3c0-0.5,0.4-0.9,0.9-0.9h5.3
				C42.4,40.3,42.8,40.7,42.8,41.2z"/>
			<path class="st17" d="M41.6,36.1H37l0.1-5.4l0.3-13.5h3.8l0.3,13.5L41.6,36.1z"/>
			<path class="st18" d="M41.6,36.1H37l0.1-5.4c0.7,0.3,1.4,0.4,2.2,0.4c0.8,0,1.5-0.1,2.2-0.4L41.6,36.1z"/>
			<path class="st18" d="M41.6,36.1h-2.3V17.2h1.9l0.3,13.5L41.6,36.1z"/>
			<path class="st19" d="M41.6,36.1h-2.3v-5c0.8,0,1.5-0.1,2.2-0.4L41.6,36.1z"/>
			<path class="st18" d="M41.1,13.4l0.1,6.7h-3.9l0.1-6.7H41.1z"/>
			<path class="st19" d="M41.1,13.4l0.1,6.7h-1.9v-6.7H41.1z"/>
			<path class="st20" d="M42.8,9.4l-1.5,7.8h-3.9l-1.5-7.8c0-0.2,0-0.4,0-0.7l0.7-2.2c0.2-0.6,0.7-0.9,1.3-0.9h2.9
				c0.6,0,1.1,0.4,1.3,0.9l0.7,2.2C42.8,8.9,42.8,9.1,42.8,9.4z"/>
			<path class="st21" d="M42.8,9.4l-1.5,7.8h-2V5.5h1.5c0.6,0,1.1,0.4,1.3,0.9l0.7,2.2C42.8,8.9,42.8,9.1,42.8,9.4z"/>
			<path class="st18" d="M41.9,40.3h-2.7v2h2.7c0.5,0,0.9-0.4,0.9-0.9v-0.3C42.8,40.7,42.4,40.3,41.9,40.3z"/>
			<path class="st17" d="M42.8,36.9v0.3c0,0.5-0.4,0.9-0.9,0.9h-5.3c-0.5,0-0.9-0.4-0.9-0.9v-0.3c0-0.5,0.4-0.9,0.9-0.9h5.3
				C42.4,36,42.8,36.4,42.8,36.9z"/>
			<path class="st18" d="M41.9,36h-2.7v2h2.7c0.5,0,0.9-0.4,0.9-0.9v-0.3C42.8,36.4,42.4,36,41.9,36z"/>
			<path class="st16" d="M42.8,45.9c0,0.5-0.4,0.9-0.9,0.9h-5.1c-0.5,0-0.9-0.4-0.9-0.9c0-0.5,0.4-0.9,0.9-0.9h5.1
				C42.3,44.9,42.8,45.4,42.8,45.9z"/>
			<path class="st22" d="M39.3,44.9v1.9h2.6c0.5,0,0.9-0.4,0.9-0.9c0-0.5-0.4-0.9-0.9-0.9H39.3z"/>
			<path class="st17" d="M45.6,40.7l-0.4,1.9l-0.4,2.3c-0.2,0.8-0.9,1.4-1.7,1.4h-1.2c-0.2,0-0.4-0.2-0.4-0.4c0-0.2,0.2-0.4,0.4-0.4
				h1.2c0.5,0,0.9-0.4,1-0.9l0.4-2.2l0.4-1.9c0-0.2,0.2-0.3,0.4-0.3C45.5,40.3,45.6,40.5,45.6,40.7z"/>
			<path class="st18" d="M45.6,40.7l-0.8,4.1c-0.2,0.8-0.9,1.4-1.7,1.4h-1.2c-0.2,0-0.4-0.2-0.4-0.4h1.6c0.7,0,1.3-0.5,1.4-1.1
				l0.9-4.5C45.5,40.3,45.6,40.5,45.6,40.7z"/>
			<path class="st23" d="M45.6,40.7l-0.4,1.9l-0.3-0.1l-0.3-0.1l0.4-1.9c0-0.2,0.2-0.3,0.4-0.3C45.5,40.3,45.6,40.5,45.6,40.7z"/>
			<path class="st24" d="M45.6,40.7l-0.4,1.9l-0.3-0.1l0.4-2.2C45.5,40.3,45.6,40.5,45.6,40.7z"/>
			<g>
				<path class="st18" d="M38.2,8.1c0,0.3-0.2,0.5-0.5,0.5c-0.3,0-0.5-0.2-0.5-0.5c0-0.3,0.2-0.5,0.5-0.5
					C37.9,7.5,38.2,7.8,38.2,8.1z"/>
				<path class="st18" d="M38.2,10.2c0,0.3-0.2,0.5-0.5,0.5c-0.3,0-0.5-0.2-0.5-0.5c0-0.3,0.2-0.5,0.5-0.5
					C37.9,9.7,38.2,9.9,38.2,10.2z"/>
				<path class="st18" d="M38.2,12.4c0,0.3-0.2,0.5-0.5,0.5c-0.3,0-0.5-0.2-0.5-0.5c0-0.3,0.2-0.5,0.5-0.5
					C37.9,11.8,38.2,12.1,38.2,12.4z"/>
			</g>
			<path class="st19" d="M41.5,8.1c0,0.3-0.2,0.5-0.5,0.5c-0.3,0-0.5-0.2-0.5-0.5c0-0.3,0.2-0.5,0.5-0.5C41.2,7.5,41.5,7.8,41.5,8.1
				z"/>
			<path class="st19" d="M41.5,10.2c0,0.3-0.2,0.5-0.5,0.5c-0.3,0-0.5-0.2-0.5-0.5c0-0.3,0.2-0.5,0.5-0.5
				C41.2,9.7,41.5,9.9,41.5,10.2z"/>
			<path class="st19" d="M41.5,12.4c0,0.3-0.2,0.5-0.5,0.5c-0.3,0-0.5-0.2-0.5-0.5c0-0.3,0.2-0.5,0.5-0.5
				C41.2,11.8,41.5,12.1,41.5,12.4z"/>
		</g>
	</g>
	<g>
		<path class="st15" d="M64.7,32.7l0.7,1.5c0.1,0.1,0.2,0.2,0.3,0.2l1.6,0.2c0.3,0,0.4,0.4,0.2,0.6l-1.2,1.2
			c-0.1,0.1-0.1,0.2-0.1,0.3l0.3,1.6c0.1,0.3-0.3,0.5-0.5,0.4L64.6,38c-0.1-0.1-0.2-0.1-0.3,0l-1.5,0.8c-0.3,0.1-0.6-0.1-0.5-0.4
			l0.3-1.6c0-0.1,0-0.2-0.1-0.3l-1.2-1.2c-0.2-0.2-0.1-0.6,0.2-0.6l1.6-0.2c0.1,0,0.2-0.1,0.3-0.2l0.7-1.5
			C64.2,32.4,64.6,32.4,64.7,32.7L64.7,32.7z"/>
	</g>
	<g>
		<path class="st15" d="M49,17.7l0.5,1c0,0.1,0.1,0.1,0.2,0.1l1.1,0.2c0.2,0,0.3,0.3,0.1,0.4l-0.8,0.8c-0.1,0.1-0.1,0.1-0.1,0.2
			l0.2,1.1c0,0.2-0.2,0.4-0.4,0.3l-1-0.5c-0.1,0-0.2,0-0.2,0l-1,0.5c-0.2,0.1-0.4-0.1-0.4-0.3l0.2-1.1c0-0.1,0-0.2-0.1-0.2l-0.8-0.8
			c-0.2-0.1-0.1-0.4,0.1-0.4l1.1-0.2c0.1,0,0.2-0.1,0.2-0.1l0.5-1C48.6,17.5,48.9,17.5,49,17.7L49,17.7z"/>
	</g>
	<g>
		<path class="st15" d="M29.4,17.6l0.3,0.7c0,0.1,0.1,0.1,0.1,0.1l0.8,0.1c0.1,0,0.2,0.2,0.1,0.3l-0.6,0.5c0,0-0.1,0.1,0,0.2
			l0.1,0.8c0,0.1-0.1,0.2-0.3,0.2l-0.7-0.4c-0.1,0-0.1,0-0.2,0l-0.7,0.4c-0.1,0.1-0.3,0-0.3-0.2l0.1-0.8c0-0.1,0-0.1,0-0.2l-0.6-0.5
			c-0.1-0.1,0-0.3,0.1-0.3l0.8-0.1c0.1,0,0.1,0,0.1-0.1l0.3-0.7C29.2,17.5,29.4,17.5,29.4,17.6L29.4,17.6z"/>
	</g>
	<g>
		<path class="st15" d="M13.5,24.7l0.7,1.5c0.1,0.1,0.2,0.2,0.3,0.2l1.6,0.2c0.3,0,0.4,0.4,0.2,0.6l-1.2,1.2
			c-0.1,0.1-0.1,0.2-0.1,0.3l0.3,1.6c0.1,0.3-0.3,0.5-0.5,0.4L13.4,30c-0.1-0.1-0.2-0.1-0.3,0l-1.5,0.8c-0.3,0.1-0.6-0.1-0.5-0.4
			l0.3-1.6c0-0.1,0-0.2-0.1-0.3L10,27.3c-0.2-0.2-0.1-0.6,0.2-0.6l1.6-0.2c0.1,0,0.2-0.1,0.3-0.2l0.7-1.5
			C13,24.4,13.4,24.4,13.5,24.7L13.5,24.7z"/>
	</g>
</g>
</svg>
