<?xml version="1.0" encoding="utf-8"?>
<!-- Generator: Adobe Illustrator 17.0.0, SVG Export Plug-In . SVG Version: 6.00 Build 0)  -->
<!DOCTYPE svg PUBLIC "-//W3C//DTD SVG 1.1//EN" "http://www.w3.org/Graphics/SVG/1.1/DTD/svg11.dtd">
<svg version="1.1" id="Layer_1" xmlns="http://www.w3.org/2000/svg" xmlns:xlink="http://www.w3.org/1999/xlink" x="0px" y="0px"
	 width="99px" height="99px" viewBox="0 0 99 99" enable-background="new 0 0 99 99" xml:space="preserve">
<circle fill="#005AA3" cx="49.5" cy="49.5" r="49.5"/>
<path fill="#0783A0" d="M89.077,49.539c0,21.836-17.702,39.539-39.539,39.539C27.702,89.077,10,71.375,10,49.539
	C10,27.702,27.702,10,49.539,10C71.375,10,89.077,27.702,89.077,49.539z"/>
<path fill="#F3F3F3" d="M49.811,30L49.811,30c10.941,0,19.811,8.87,19.811,19.811l0,0c0,10.941-8.87,19.811-19.811,19.811l0,0
	C38.87,69.622,30,60.752,30,49.811l0,0C30,38.87,38.87,30,49.811,30z"/>
<path fill="#075F9B" d="M55.275,46.146c1.05,0.432,1.957,1.035,2.71,1.857c1.039,1.118,1.701,2.533,1.893,4.047
	c0.185,1.375,0.089,2.715-0.547,3.97c-0.975,1.922-2.409,3.349-4.509,3.997c-1.452,0.448-2.918,0.849-4.381,1.269
	c-0.946,0.273-1.892,0.545-2.838,0.818c-1.278,0.367-2.444-0.255-2.817-1.531c-0.899-3.079-1.79-6.16-2.674-9.244
	c-0.877-3.036-1.753-6.07-2.63-9.105c-0.361-1.246,0.288-2.437,1.534-2.799c2.37-0.688,4.739-1.374,7.109-2.059
	c1.521-0.441,2.99-0.241,4.399,0.417c2.019,0.944,3.049,2.618,3.372,4.766c0.182,1.211-0.041,2.37-0.569,3.472
	C55.307,46.053,55.296,46.091,55.275,46.146z M53.051,59.128c0.417-0.118,0.835-0.233,1.25-0.354
	c2.847-0.829,4.704-3.753,4.235-6.669c-0.406-2.534-2.249-4.468-4.766-4.999c-0.265-0.056-0.534-0.089-0.822-0.135
	c0.06-0.064,0.101-0.111,0.146-0.154c0.962-0.925,1.473-2.057,1.513-3.387c0.037-1.224-0.377-2.308-1.131-3.263
	c-0.98-1.243-2.269-1.842-3.847-1.717c-0.581,0.046-1.158,0.221-1.724,0.381c-2.122,0.601-4.241,1.214-6.358,1.838
	c-0.629,0.184-0.923,0.831-0.681,1.451c0.014,0.107,0.034,0.213,0.06,0.318c1.688,5.85,3.377,11.7,5.069,17.549
	c0.188,0.651,0.763,0.974,1.415,0.79c0.568-0.16,1.136-0.323,1.703-0.488C50.426,59.903,51.739,59.516,53.051,59.128z"/>
<path fill="#075F9B" d="M53.049,59.128c-1.314,0.389-2.628,0.776-3.942,1.161c-0.566,0.166-1.133,0.328-1.703,0.488
	c-0.652,0.184-1.227-0.139-1.415-0.79c-1.689-5.849-3.378-11.698-5.066-17.547c-0.025-0.105-0.045-0.211-0.06-0.318
	c0.07-0.053,0.134-0.128,0.212-0.153c0.644-0.199,1.29-0.392,1.937-0.579c1.071-0.309,2.142-0.618,3.216-0.913
	c0.46-0.126,0.926-0.27,1.397-0.313c0.996-0.099,1.994,0.164,2.812,0.743c0.754,0.521,1.279,1.22,1.658,2.055
	c0.384,0.845,0.487,1.722,0.369,2.62c-0.128,0.966-0.567,1.804-1.22,2.525c-0.096,0.106-0.221,0.183-0.364,0.299
	c0.443,0.057,0.807,0.073,1.156,0.157c0.734,0.176,1.421,0.466,2.035,0.922c0.601,0.445,1.114,0.966,1.5,1.606
	c0.43,0.708,0.719,1.47,0.788,2.298c0.106,1.263-0.122,2.458-0.804,3.546c-0.439,0.701-0.994,1.288-1.698,1.726
	C53.592,58.822,53.32,58.972,53.049,59.128z"/>
<path fill="#004F82" d="M53.051,59.129c0.269-0.156,0.542-0.306,0.806-0.47c0.705-0.438,1.26-1.025,1.698-1.726
	c0.682-1.088,0.908-2.281,0.804-3.546C56.29,52.559,56,51.796,55.57,51.089c-0.388-0.64-0.899-1.161-1.5-1.606
	c-0.615-0.456-1.301-0.746-2.035-0.922c-0.349-0.083-0.713-0.099-1.156-0.157c0.143-0.116,0.268-0.194,0.364-0.299
	c0.655-0.721,1.093-1.559,1.22-2.525c0.118-0.898,0.015-1.775-0.369-2.62c-0.379-0.835-0.902-1.534-1.658-2.055
	c-0.817-0.578-1.816-0.842-2.812-0.743c-0.471,0.044-0.936,0.187-1.397,0.313c-1.075,0.295-2.145,0.604-3.216,0.913
	c-0.648,0.187-1.293,0.38-1.937,0.579c-0.08,0.025-0.143,0.101-0.212,0.153c-0.241-0.62,0.053-1.267,0.681-1.451
	c2.12-0.621,4.24-1.235,6.362-1.841c0.566-0.159,1.143-0.335,1.724-0.381c1.578-0.125,2.865,0.474,3.847,1.717
	c0.754,0.955,1.167,2.039,1.131,3.263c-0.039,1.33-0.551,2.462-1.513,3.387c-0.044,0.043-0.086,0.09-0.146,0.154
	c0.288,0.047,0.558,0.079,0.822,0.135c2.516,0.53,4.36,2.465,4.767,4.999c0.469,2.918-1.387,5.84-4.234,6.669
	C53.887,58.896,53.47,59.011,53.051,59.129z"/>
</svg>
