<svg width="90" height="90" viewBox="0 0 90 90" fill="none" xmlns="http://www.w3.org/2000/svg">
<path opacity="0.4" d="M45 90C69.8528 90 90 69.8528 90 45C90 20.1472 69.8528 0 45 0C20.1472 0 0 20.1472 0 45C0 69.8528 20.1472 90 45 90Z" fill="#FFC979"/>
<path d="M59.4237 18.8762C56.42 18.8762 53.459 19.5876 50.7831 20.9523C48.1073 22.317 45.7927 24.2961 44.029 26.7275C41.6642 23.4705 38.3288 21.046 34.501 19.8017C30.6732 18.5575 26.5496 18.5573 22.7217 19.8013C18.8938 21.0452 15.558 23.4695 13.193 26.7263C10.8279 29.9831 9.555 33.9052 9.55664 37.9301C9.55664 50.613 31.1685 69.442 40.1685 76.7367C41.2607 77.6212 42.6235 78.1039 44.029 78.1039C45.4345 78.1039 46.7973 77.6212 47.8895 76.7367C56.9014 69.442 78.5013 50.613 78.5013 37.9301C78.5013 35.4259 78.0077 32.9463 77.0487 30.633C76.0897 28.3198 74.684 26.2182 72.9122 24.4486C71.1404 22.6789 69.0372 21.2759 66.7227 20.3198C64.4082 19.3636 61.9279 18.8731 59.4237 18.8762Z" fill="#FF7D9D"/>
<path d="M47.8664 76.7367C56.8782 69.442 78.4782 50.613 78.4782 37.9301C78.4799 33.9052 77.207 29.9831 74.8419 26.7263C72.4768 23.4695 69.141 21.0452 65.3131 19.8013C61.4852 18.5573 57.3617 18.5575 53.5339 19.8017C49.7061 21.046 46.3707 23.4705 44.0059 26.7275V78.1104C45.4125 78.1105 46.776 77.6253 47.8664 76.7367Z" fill="#FF6288"/>
<path d="M38.2969 57.884V38.1077C38.2981 37.7479 38.3957 37.3949 38.5796 37.0857C38.7636 36.7764 39.027 36.5221 39.3426 36.3492C39.6582 36.1763 40.0144 36.0911 40.374 36.1026C40.7337 36.114 41.0837 36.2217 41.3876 36.4143L56.7824 46.3024C57.066 46.4833 57.2995 46.7327 57.4612 47.0277C57.623 47.3226 57.7077 47.6535 57.7077 47.9899C57.7077 48.3263 57.623 48.6573 57.4612 48.9522C57.2995 49.2472 57.066 49.4966 56.7824 49.6775L41.3876 59.5656C41.0846 59.7577 40.7355 59.8653 40.3769 59.8772C40.0183 59.8892 39.663 59.8051 39.3478 59.6336C39.0326 59.4621 38.7689 59.2095 38.5841 58.9018C38.3993 58.5942 38.3002 58.2428 38.2969 57.884Z" fill="#D34588"/>
<path d="M38.2598 56.9841V37.9065C38.2606 37.5589 38.3547 37.2179 38.5323 36.9191C38.7098 36.6203 38.9642 36.3746 39.2691 36.2077C39.5739 36.0407 39.918 35.9587 40.2653 35.97C40.6127 35.9814 40.9507 36.0858 41.244 36.2723L56.1058 45.817C56.377 45.9933 56.5999 46.2346 56.7542 46.519C56.9085 46.8034 56.9894 47.1218 56.9894 47.4453C56.9894 47.7688 56.9085 48.0872 56.7542 48.3716C56.5999 48.6559 56.377 48.8972 56.1058 49.0736L41.244 58.6183C40.9507 58.8048 40.6127 58.9092 40.2653 58.9205C39.918 58.9319 39.5739 58.8498 39.2691 58.6829C38.9642 58.5159 38.7098 58.2703 38.5323 57.9715C38.3547 57.6726 38.2606 57.3317 38.2598 56.9841Z" fill="white"/>
</svg>
