<svg width="90" height="90" viewBox="0 0 90 90" fill="none" xmlns="http://www.w3.org/2000/svg">
<path opacity="0.4" d="M45 90C69.8528 90 90 69.8528 90 45C90 20.1472 69.8528 0 45 0C20.1472 0 0 20.1472 0 45C0 69.8528 20.1472 90 45 90Z" fill="#FFC979"/>
<path d="M56.8164 28.2437H23.1257C21.641 28.2437 20.4375 29.4472 20.4375 30.9318V71.195C20.4375 72.6796 21.641 73.8831 23.1257 73.8831H56.8164C58.3011 73.8831 59.5046 72.6796 59.5046 71.195V30.9318C59.5046 29.4472 58.3011 28.2437 56.8164 28.2437Z" fill="#FF9A44"/>
<path d="M56.8188 28.2788H40.0859V73.8709H56.8188C57.5318 73.8709 58.2156 73.5877 58.7197 73.0836C59.2238 72.5795 59.507 71.8957 59.507 71.1828V30.9196C59.4916 30.2159 59.2019 29.546 58.6998 29.0527C58.1977 28.5594 57.5227 28.2817 56.8188 28.2788Z" fill="#F88644"/>
<path d="M20.3488 18.3648L58.6047 26.343C59.0598 26.4379 59.4585 26.7096 59.7132 27.0985C59.9678 27.4874 60.0576 27.9614 59.9627 28.4165L51.1867 70.498C51.0739 71.0391 50.7507 71.5132 50.2883 71.8161C49.8258 72.1189 49.262 72.2257 48.7209 72.1128L10.7896 64.2024C10.3899 64.119 10.0397 63.8803 9.81604 63.5387C9.59235 63.1971 9.51348 62.7807 9.59683 62.381L18.5275 19.5576C18.6109 19.1579 18.8496 18.8077 19.1912 18.584C19.5328 18.3603 19.9491 18.2815 20.3488 18.3648Z" fill="#FFDA8F"/>
<path opacity="0.43" d="M38.4865 22.1921L28.7168 67.9737L48.8484 72.1658C49.3524 72.2709 49.8776 72.1715 50.3084 71.8895C50.7392 71.6075 51.0404 71.1659 51.1457 70.6619L59.9444 28.4921C60.0389 28.0259 59.945 27.5412 59.6831 27.144C59.4213 26.7468 59.0128 26.4694 58.5471 26.3724L38.4865 22.1921Z" fill="#FFB244"/>
<path d="M44.3379 45.4736L52.7932 47.2026" stroke="white" stroke-width="2.40395" stroke-miterlimit="10" stroke-linecap="round"/>
<path d="M18.582 31.9736L53.836 39.2921" stroke="white" stroke-width="2.40395" stroke-miterlimit="10" stroke-linecap="round"/>
<path d="M16.9922 39.7537L26.5725 41.7431" stroke="white" stroke-width="2.40395" stroke-miterlimit="10" stroke-linecap="round"/>
<path opacity="0.53" d="M29.8187 49.7722L29.9135 49.1564L32.6845 31.9261C32.6845 31.7603 32.6845 31.5827 32.7792 31.4051C32.8422 31.1748 32.9799 30.9719 33.1706 30.8283C33.3614 30.6846 33.5944 30.6085 33.8332 30.6117C34.074 30.6209 34.3036 30.7152 34.4814 30.8778C34.6592 31.0404 34.7736 31.2608 34.8043 31.4998C35.0487 32.9702 35.7584 34.3234 36.8292 35.3604C37.4687 36.0354 38.1792 36.6511 38.8424 37.3143C40.14 38.4174 41.0137 39.9373 41.314 41.6137C41.6143 43.2902 41.3225 45.0189 40.4885 46.5038C39.9214 47.7314 39.1164 48.8343 38.12 49.7485C38.0252 49.8646 37.9069 49.9593 37.7729 50.0266C37.6389 50.0938 37.4922 50.132 37.3425 50.1387C37.1927 50.1455 37.0433 50.1205 36.9038 50.0655C36.7643 50.0105 36.638 49.9267 36.5332 49.8196C36.4253 49.7142 36.3426 49.5859 36.291 49.4442C36.2393 49.3025 36.2202 49.1511 36.235 49.001C36.2498 48.851 36.2981 48.7062 36.3763 48.5773C36.4546 48.4484 36.5608 48.3387 36.6871 48.2564C36.8438 48.1367 36.9681 47.9798 37.0487 47.7999C37.1294 47.6199 37.1638 47.4227 37.149 47.2261C37.0155 46.0347 36.6 44.8922 35.9369 43.8933C35.2737 42.8945 34.3821 42.0681 33.3358 41.4827L33.2292 42.0985C32.6608 45.6512 32.045 49.2038 31.5121 52.7564C31.4229 53.8507 30.925 54.8712 30.1175 55.615C29.31 56.3589 28.2521 56.7715 27.1542 56.7709C26.195 56.8869 25.222 56.7626 24.3227 56.4092C23.4235 56.0557 22.6263 55.4841 22.0029 54.7459C21.6446 54.354 21.3787 53.8867 21.2248 53.3785C21.0709 52.8702 21.0328 52.3339 21.1135 51.8091C21.1941 51.2842 21.3914 50.7841 21.6908 50.3455C21.9903 49.9069 22.3842 49.5411 22.8437 49.2748C23.824 48.6675 24.9604 48.3597 26.1132 48.3891C27.266 48.4186 28.3852 48.784 29.3332 49.4406C29.4516 49.5235 29.6055 49.5946 29.8187 49.7722Z" fill="#FF9A44"/>
<path d="M29.6516 48.4815L29.7464 47.8539L32.5174 30.6473C32.5174 30.4697 32.5174 30.2921 32.6121 30.1263C32.6693 29.8927 32.8055 29.6862 32.9976 29.5416C33.1897 29.397 33.4259 29.3232 33.6661 29.3329C33.9065 29.3369 34.1374 29.4278 34.3159 29.589C34.4944 29.7501 34.6086 29.9704 34.6372 30.2092C34.8816 31.6796 35.5914 33.0328 36.6622 34.0697C37.3017 34.7566 38.0121 35.3723 38.6753 36.0237C39.9719 37.13 40.8447 38.6519 41.1449 40.3297C41.4451 42.0076 41.154 43.7377 40.3214 45.225C39.7498 46.4464 38.9453 47.5446 37.9529 48.4579C37.8601 48.5764 37.7429 48.6736 37.6093 48.743C37.4756 48.8124 37.3288 48.8524 37.1784 48.8602C37.028 48.8681 36.8778 48.8436 36.7376 48.7885C36.5975 48.7334 36.4708 48.6489 36.3661 48.5407C36.2582 48.4342 36.1753 48.305 36.1236 48.1624C36.072 48.0198 36.0529 47.8675 36.0676 47.7165C36.0824 47.5656 36.1307 47.4199 36.2089 47.29C36.2872 47.1601 36.3935 47.0493 36.52 46.9657C36.6689 46.8326 36.7818 46.6641 36.848 46.4757C36.9143 46.2872 36.9318 46.0851 36.899 45.8881C36.7643 44.6955 36.347 43.5523 35.6817 42.5534C35.0165 41.5545 34.1225 40.7287 33.074 40.1447L32.9792 40.7605C32.4108 44.3131 31.7951 47.8658 31.2622 51.4184C31.1699 52.5126 30.6691 53.5319 29.8594 54.2736C29.0497 55.0152 27.9905 55.4249 26.8924 55.421C25.935 55.5361 24.964 55.4113 24.0669 55.0578C23.1697 54.7043 22.3745 54.1332 21.7529 53.396C21.3946 53.0041 21.1287 52.5368 20.9748 52.0286C20.8209 51.5204 20.7828 50.9841 20.8635 50.4592C20.9441 49.9343 21.1415 49.4342 21.4409 48.9956C21.7403 48.557 22.1343 48.1912 22.5938 47.925C23.5741 47.3176 24.7104 47.0098 25.8632 47.0393C27.016 47.0687 28.1352 47.4342 29.0832 48.0908C29.2845 48.221 29.4384 48.3394 29.6516 48.4815Z" fill="#4C28ED"/>
<path d="M80.965 29.8539L70.0703 66.7539L62.965 73.1723L60.5137 63.9354L71.3966 27.0947C71.5171 26.6966 71.7902 26.3623 72.1563 26.1649C72.5224 25.9674 72.9517 25.9228 73.3505 26.0407L79.8874 27.971C80.2741 28.0869 80.6016 28.3469 80.8021 28.6973C81.0026 29.0477 81.0609 29.4617 80.965 29.8539Z" fill="#EEEAE7"/>
<path d="M80.9649 29.8539L70.0701 66.7539L60.5254 63.9354L71.3964 27.0947C71.517 26.6966 71.7901 26.3623 72.1562 26.1649C72.5222 25.9674 72.9516 25.9228 73.3504 26.0407L79.8873 27.971C80.274 28.0869 80.6014 28.3469 80.802 28.6973C81.0025 29.0477 81.0608 29.4617 80.9649 29.8539Z" fill="#FF5D7D"/>
<path d="M70.8382 28.9004L70.1172 31.3423L79.6687 34.1625L80.3897 31.7207L70.8382 28.9004Z" fill="#EEEAE7"/>
<path d="M70.8551 28.9018L71.4051 27.0392C71.5225 26.6416 71.793 26.3069 72.1572 26.1088C72.5213 25.9106 72.9493 25.8652 73.3469 25.9826L79.8888 27.9142C80.2864 28.0316 80.6211 28.3022 80.8192 28.6664C81.0173 29.0305 81.0627 29.4584 80.9453 29.856L80.3953 31.7187L70.8438 28.8984L70.8551 28.9018Z" fill="#56ED78"/>
<path d="M75.625 30.3038L80.3618 31.713L80.9185 29.8538C81.0323 29.455 80.9842 29.0273 80.7847 28.6637C80.5851 28.3001 80.2502 28.0299 79.8526 27.9117L76.5842 26.9407L75.625 30.3038Z" fill="#00CB76"/>
<path d="M74.8944 32.7607L65.2734 65.345L70.0435 66.7534L79.6645 34.1691L74.8944 32.7607Z" fill="#E54B7D"/>
<path opacity="0.18" d="M63.2018 72.5921L65.3452 65.3447L70.0821 66.7539L63.4387 72.7697C63.4112 72.7834 63.3804 72.7891 63.3498 72.7863C63.3193 72.7835 63.2901 72.7722 63.2655 72.7538C63.241 72.7354 63.222 72.7106 63.2108 72.682C63.1995 72.6535 63.1964 72.6223 63.2018 72.5921Z" fill="#726863"/>
</svg>
