<svg width="1792" height="753" viewBox="0 0 1792 753" fill="none" xmlns="http://www.w3.org/2000/svg">
<mask id="mask0_3537_141454" style="mask-type:alpha" maskUnits="userSpaceOnUse" x="-301" y="0" width="2395" height="753">
<path fill-rule="evenodd" clip-rule="evenodd" d="M1792 0H0V399.615C-187.287 437.115 -301 486.451 -301 540.5C-301 657.861 235.139 753 896.5 753C1557.86 753 2094 657.861 2094 540.5C2094 486.355 1979.88 436.94 1792 399.415V0Z" fill="#C4C4C4"/>
</mask>
<g mask="url(#mask0_3537_141454)">
<path d="M0 -63H1792V817H0V-63Z" fill="#221C5E"/>
<path d="M403.983 163.735C439.818 -77.0652 668.268 -78.1852 668.268 -78.1852H-35L-35 378.775C-35 378.775 368.148 404.535 403.983 163.735Z" fill="#3D17AD" fill-opacity="0.2"/>
<path opacity="0.5" d="M-34.999 -78.1862L-34.999 188.374C-34.999 188.374 125.14 265.313 199.051 208.534C272.961 151.755 229.287 99.8938 280.8 15.8938C332.313 -68.1062 468.936 -78.1862 468.936 -78.1862L-34.999 -78.1862Z" fill="#612193"/>
<path d="M1515.99 215.815C1585.99 389.815 1843.99 522.188 1843.99 285.815L1843.99 -84.1854L1170.84 -162.658C1170.84 -162.658 1070.28 10.3276 1207.99 119.815C1345.71 229.302 1445.99 41.8158 1515.99 215.815Z" fill="#3D17AD" fill-opacity="0.2"/>
<path opacity="0.5" d="M1627.99 103.813C1661.99 353.814 1894.79 313.945 1894.79 135.422L1894.79 -144.025L1497.53 -192.361C1497.53 -192.361 1203.99 -230.186 1263.99 -38.1865C1323.99 153.813 1593.99 -146.187 1627.99 103.813Z" fill="#612193"/>
<path d="M-301 -0.00012207L-301 701.119L1491 701.119L1491 -0.000101395L-301 -0.00012207Z" fill="url(#paint0_linear_3537_141454)"/>
<mask id="mask1_3537_141454" style="mask-type:alpha" maskUnits="userSpaceOnUse" x="-301" y="-2" width="2396" height="755">
<path fill-rule="evenodd" clip-rule="evenodd" d="M1792.62 -2H0.625V399.615C-186.662 437.115 -300.375 486.451 -300.375 540.5C-300.375 657.861 235.764 753 897.125 753C1558.49 753 2094.62 657.861 2094.62 540.5C2094.62 486.355 1980.51 436.94 1792.62 399.415V-2Z" fill="#C4C4C4"/>
</mask>
<g mask="url(#mask1_3537_141454)">
<path d="M0.625 -2H1792.62V776H0.625V-2Z" fill="black"/>
<path opacity="0.08" d="M53.2861 95.8962C53.3045 94.4224 55.1182 93.733 56.1107 94.8226L61.2942 100.513C61.5972 100.846 62.0246 101.038 62.4745 101.044L70.171 101.14C71.6446 101.158 72.3339 102.972 71.2444 103.964L65.5545 109.149C65.2219 109.452 65.0299 109.879 65.0243 110.329L64.9283 118.027C64.9099 119.5 63.0962 120.19 62.1038 119.1L56.9202 113.41C56.6172 113.077 56.1898 112.885 55.7399 112.879L48.0435 112.783C46.5699 112.765 45.8806 110.951 46.97 109.958L52.6599 104.774C52.9925 104.471 53.1845 104.044 53.1902 103.594L53.2861 95.8962Z" fill="white"/>
<path opacity="0.08" d="M440.997 36.2831C441.108 35.3069 442.358 34.972 442.943 35.7617L445.997 39.8858C446.175 40.1269 446.446 40.2831 446.744 40.3172L451.842 40.9003C452.818 41.0119 453.153 42.2615 452.363 42.8463L448.239 45.9007C447.998 46.0792 447.842 46.3498 447.808 46.6478L447.225 51.7466C447.114 52.7229 445.864 53.0577 445.279 52.2681L442.225 48.1439C442.047 47.9029 441.776 47.7467 441.478 47.7126L436.38 47.1295C435.404 47.0178 435.069 45.7682 435.859 45.1834L439.982 42.1291C440.223 41.9505 440.38 41.68 440.414 41.3819L440.997 36.2831Z" fill="white"/>
<path opacity="0.08" d="M174.622 366.248C174.721 365.271 175.966 364.92 176.561 365.701L179.669 369.785C179.85 370.024 180.123 370.177 180.421 370.207L185.527 370.723C186.504 370.822 186.855 372.067 186.073 372.662L181.99 375.77C181.751 375.952 181.599 376.225 181.569 376.523L181.052 381.629C180.953 382.607 179.708 382.958 179.113 382.176L176.006 378.092C175.824 377.853 175.552 377.701 175.253 377.671L170.148 377.154C169.17 377.055 168.819 375.81 169.601 375.215L173.684 372.107C173.923 371.925 174.076 371.653 174.106 371.354L174.622 366.248Z" fill="white"/>
<path opacity="0.5" d="M927.625 -1.99951H-1.375V766.645H927.625V-1.99951Z" fill="url(#paint1_radial_3537_141454)"/>
<path d="M-1.37499 -1.99854L-1.375 762.001L1790.62 762.001L1790.63 -1.99851L-1.37499 -1.99854Z" fill="url(#paint2_linear_3537_141454)"/>
<path opacity="0.5" d="M983.626 712.001L1790.62 712.001L1790.63 -13.9993L983.626 -13.9994L983.626 712.001Z" fill="url(#paint3_radial_3537_141454)"/>
<path d="M1608.17 216.643C1678.17 390.643 1936.17 523.016 1936.17 286.643L1936.17 -83.3571L1263.01 -161.83C1263.01 -161.83 1162.45 11.1559 1300.17 120.643C1437.88 230.131 1538.17 42.644 1608.17 216.643Z" fill="#3D17AD" fill-opacity="0.2"/>
<path d="M779.615 691.731C511.243 797.861 762.142 1410.17 1274.46 1474.83L2010.07 821.038C2010.07 821.038 1689.35 593.928 1460.66 730.987C1231.97 868.047 1047.99 585.601 779.615 691.731Z" fill="#3D17AD" fill-opacity="0.3"/>
<path opacity="0.08" d="M1589.31 313.606C1590.27 312.493 1592.1 313.141 1592.16 314.614L1592.43 322.307C1592.44 322.757 1592.65 323.18 1592.99 323.475L1598.79 328.527C1599.91 329.494 1599.26 331.324 1597.79 331.376L1590.09 331.649C1589.64 331.665 1589.22 331.867 1588.93 332.206L1583.87 338.015C1582.91 339.127 1581.08 338.479 1581.03 337.006L1580.75 329.313C1580.74 328.863 1580.53 328.44 1580.2 328.145L1574.39 323.093C1573.28 322.126 1573.92 320.296 1575.4 320.244L1583.09 319.971C1583.54 319.955 1583.96 319.753 1584.26 319.414L1589.31 313.606Z" fill="white"/>
<path opacity="0.08" d="M1628.93 293.575C1629.54 292.802 1630.78 293.173 1630.86 294.152L1631.3 299.265C1631.32 299.564 1631.47 299.839 1631.71 300.024L1635.74 303.195C1636.52 303.802 1636.14 305.042 1635.17 305.125L1630.05 305.563C1629.75 305.588 1629.48 305.737 1629.29 305.973L1626.12 310.008C1625.52 310.781 1624.28 310.41 1624.19 309.431L1623.76 304.318C1623.73 304.019 1623.58 303.744 1623.35 303.559L1619.31 300.388C1618.54 299.781 1618.91 298.541 1619.89 298.458L1625 298.02C1625.3 297.995 1625.57 297.846 1625.76 297.61L1628.93 293.575Z" fill="white"/>
<path d="M1707.17 198.434C1707.17 198.333 1707.17 198.333 1707.17 198.333C1707.17 198.029 1706.97 197.826 1706.76 197.623C1706.36 197.217 1706.05 197.015 1705.34 196.812C1705.14 196.71 1704.94 196.812 1704.84 196.812C1704.73 196.812 1704.73 196.812 1704.63 196.812C1704.02 196.913 1702.91 197.319 1702.6 198.232C1702.6 198.333 1702.6 198.434 1702.6 198.536C1702.6 199.043 1702.91 199.652 1703.21 200.057C1703.31 200.26 1703.52 200.362 1703.62 200.463C1703.72 200.463 1703.72 200.565 1703.82 200.666C1704.02 200.869 1704.33 201.274 1704.63 201.274C1704.94 201.274 1705.24 201.072 1705.44 200.767C1705.55 200.666 1705.65 200.463 1705.75 200.362C1705.85 200.26 1705.95 200.159 1705.95 200.057C1705.95 199.956 1706.05 199.956 1706.05 199.956C1706.26 199.652 1706.46 199.652 1706.66 199.55C1706.86 199.246 1707.17 199.043 1707.17 198.434Z" fill="white"/>
<path d="M1662.24 313.148C1662.24 312.945 1662.13 312.742 1662.03 312.641C1661.83 312.438 1661.53 312.337 1661.22 312.337C1661.12 312.337 1661.12 312.337 1661.02 312.337H1660.92C1660.71 312.438 1660.31 312.641 1660.31 313.047V313.148C1660.31 313.351 1660.51 313.655 1660.61 313.858C1660.71 313.96 1660.71 314.061 1660.82 314.162L1660.92 314.264C1661.02 314.365 1661.02 314.365 1661.12 314.467C1661.22 314.467 1661.22 314.467 1661.32 314.467H1661.42H1661.53L1661.63 314.365C1661.73 314.264 1661.83 314.061 1661.93 313.858C1662.03 313.655 1662.24 313.452 1662.24 313.148Z" fill="white"/>
<path d="M1756.36 63.8388C1756.36 63.8388 1756.36 63.7374 1756.36 63.8388C1756.26 63.7374 1756.26 63.7374 1756.26 63.636C1756.06 63.3317 1755.75 62.926 1755.45 62.6217C1754.74 61.9117 1753.72 61.2018 1752.51 60.8975C1752.2 60.7961 1751.9 60.7961 1751.59 60.6947C1751.49 60.6947 1751.39 60.6947 1751.19 60.6947C1750.17 60.8976 1749.36 62.3175 1748.96 63.9403C1748.96 64.1432 1748.86 64.2446 1748.86 64.4475C1748.65 65.4618 1748.65 66.476 1748.96 67.186C1749.06 67.4903 1749.26 67.7945 1749.46 67.8959C1749.57 67.9974 1749.67 67.9973 1749.77 68.0987C1750.17 68.3016 1750.68 68.3017 1751.19 68.2003C1751.7 68.0988 1752.2 67.896 1752.71 67.6931C1753.01 67.5917 1753.32 67.3889 1753.52 67.2875C1753.72 67.1861 1753.93 67.0846 1754.03 66.9832C1754.13 66.8818 1754.23 66.8818 1754.33 66.7804C1755.04 66.3747 1755.55 65.8675 1755.96 65.4618C1756.56 65.0561 1756.77 64.5488 1756.36 63.8388Z" fill="white"/>
<path d="M1555.28 350.354C1555.28 350.253 1555.28 350.253 1555.28 350.253C1555.28 350.05 1555.08 349.847 1554.88 349.847C1554.47 349.847 1553.56 349.948 1552.75 349.441C1552.54 349.34 1552.34 349.239 1552.14 349.036C1552.04 349.036 1551.93 348.934 1551.93 348.934C1551.22 348.63 1550.62 349.036 1550.51 349.644C1550.51 349.746 1550.51 349.745 1550.51 349.847C1550.51 350.253 1550.62 350.557 1550.72 350.963C1550.82 351.166 1550.82 351.267 1550.92 351.47C1550.92 351.571 1551.02 351.673 1551.12 351.774C1551.33 352.18 1551.73 352.789 1552.04 353.093C1552.34 353.397 1552.54 353.499 1552.85 353.6C1552.95 353.6 1553.15 353.6 1553.25 353.498C1553.35 353.498 1553.46 353.397 1553.56 353.296C1553.66 353.194 1553.66 353.093 1553.76 352.991C1554.17 352.383 1554.57 351.774 1554.77 351.47C1555.08 351.267 1555.28 350.963 1555.28 350.354Z" fill="white"/>
<path d="M1736.48 397.842C1736.48 397.74 1736.48 397.74 1736.48 397.842C1736.48 397.74 1736.48 397.74 1736.48 397.842C1736.48 397.639 1736.38 397.537 1736.28 397.335C1735.97 397.03 1735.57 396.523 1735.16 396.929C1735.06 397.03 1734.96 397.132 1734.86 397.233L1734.76 397.335C1734.45 397.639 1734.15 397.74 1733.94 397.943C1733.94 397.943 1733.94 397.943 1733.94 398.045C1733.84 398.146 1733.84 398.349 1733.94 398.552C1733.94 398.653 1734.05 398.755 1734.05 398.755L1734.15 398.856C1734.25 398.958 1734.45 399.059 1734.65 398.958C1734.86 398.958 1735.06 398.856 1735.16 398.755C1735.26 398.755 1735.36 398.653 1735.47 398.653C1735.57 398.653 1735.57 398.653 1735.67 398.653H1735.77C1735.97 398.653 1736.18 398.653 1736.28 398.552C1736.38 398.45 1736.48 398.146 1736.48 397.842Z" fill="white"/>
<path d="M1407.04 197.623C1406.94 197.623 1406.94 197.623 1407.04 197.623C1406.94 197.623 1406.94 197.623 1407.04 197.623C1406.94 197.42 1406.84 197.318 1406.74 197.217C1406.54 197.014 1406.13 196.71 1405.83 196.609C1405.72 196.609 1405.62 196.609 1405.52 196.507H1405.42C1405.12 196.609 1404.81 197.014 1404.71 197.521C1404.71 197.623 1404.71 197.623 1404.71 197.724C1404.61 198.028 1404.61 198.434 1404.71 198.637C1404.71 198.739 1404.81 198.84 1404.91 198.84C1404.91 198.84 1405.01 198.84 1405.01 198.941C1405.12 199.043 1405.32 199.043 1405.52 198.941C1405.72 198.941 1405.83 198.84 1406.03 198.738C1406.13 198.738 1406.23 198.637 1406.33 198.637C1406.43 198.637 1406.43 198.536 1406.54 198.536C1406.54 198.536 1406.64 198.536 1406.64 198.434C1406.84 198.333 1407.04 198.13 1407.14 198.028C1407.04 198.028 1407.14 197.927 1407.04 197.623Z" fill="white"/>
<path d="M1686.28 41.4238C1686.28 41.2209 1686.17 41.1193 1686.07 41.0179C1685.87 40.8151 1685.77 40.7137 1685.36 40.6123C1685.26 40.6123 1685.16 40.6123 1685.06 40.6123H1684.96C1684.65 40.6123 1684.04 40.9165 1683.94 41.3223V41.4238C1683.94 41.7281 1684.04 42.0323 1684.25 42.1337C1684.35 42.2352 1684.35 42.2351 1684.45 42.3365L1684.55 42.4381C1684.65 42.5395 1684.75 42.7421 1684.96 42.7421C1685.16 42.7421 1685.26 42.6408 1685.36 42.5393C1685.46 42.4379 1685.46 42.438 1685.46 42.3365L1685.57 42.235C1685.57 42.235 1685.57 42.1337 1685.67 42.1337C1685.77 42.0323 1685.87 42.0323 1685.97 41.9309C1686.07 41.8295 1686.28 41.7281 1686.28 41.4238Z" fill="white"/>
<path d="M246.07 87.403C245.969 87.403 245.969 87.403 245.969 87.403C245.665 87.403 245.462 87.6058 245.259 87.8087C244.853 88.2144 244.65 88.5187 244.447 89.2287C244.346 89.4315 244.447 89.6344 244.447 89.7358C244.447 89.8372 244.447 89.8372 244.447 89.9387C244.549 90.5472 244.954 91.6629 245.867 91.9672C245.969 91.9672 246.07 91.9672 246.172 91.9672C246.679 91.9672 247.287 91.6629 247.693 91.3586C247.896 91.2572 247.997 91.0544 248.099 90.9529C248.099 90.8515 248.2 90.8515 248.302 90.7501C248.505 90.5472 248.91 90.2429 248.91 89.9387C248.91 89.6344 248.707 89.3301 248.403 89.1272C248.302 89.0258 248.099 88.9244 247.997 88.8229C247.896 88.7215 247.794 88.6201 247.693 88.6201C247.592 88.6201 247.592 88.5187 247.592 88.5187C247.287 88.3158 247.287 88.1129 247.186 87.9101C246.882 87.7072 246.679 87.403 246.07 87.403Z" fill="white"/>
<path d="M111.474 38.2105C111.474 38.2105 111.373 38.2105 111.474 38.2105C111.373 38.3119 111.373 38.3119 111.271 38.3119C110.967 38.5148 110.561 38.819 110.257 39.1233C109.547 39.8333 108.837 40.8476 108.533 42.0647C108.431 42.369 108.432 42.6733 108.33 42.9776C108.33 43.079 108.33 43.1804 108.33 43.3833C108.533 44.3976 109.953 45.209 111.576 45.6147C111.779 45.6147 111.88 45.7161 112.083 45.7161C113.097 45.919 114.111 45.919 114.821 45.6147C115.126 45.5133 115.43 45.3104 115.531 45.1076C115.633 45.0062 115.633 44.9047 115.734 44.8033C115.937 44.3976 115.937 43.8904 115.836 43.3833C115.734 42.8762 115.531 42.369 115.329 41.8619C115.227 41.5576 115.024 41.2533 114.923 41.0505C114.821 40.8476 114.72 40.6448 114.619 40.5433C114.517 40.4419 114.517 40.3405 114.416 40.239C114.01 39.529 113.503 39.0219 113.097 38.6162C112.691 38.0076 112.184 37.8048 111.474 38.2105Z" fill="white"/>
<path d="M417.99 349.289C417.889 349.289 417.889 349.289 417.889 349.289C417.686 349.289 417.483 349.492 417.483 349.695C417.483 350.101 417.585 351.014 417.077 351.825C416.976 352.028 416.875 352.231 416.672 352.434C416.672 352.535 416.57 352.637 416.57 352.637C416.266 353.347 416.672 353.955 417.28 354.057C417.382 354.057 417.382 354.057 417.483 354.057C417.889 354.057 418.193 353.955 418.599 353.854C418.802 353.752 418.903 353.752 419.106 353.651C419.207 353.651 419.309 353.549 419.41 353.448C419.816 353.245 420.425 352.839 420.729 352.535C421.033 352.231 421.135 352.028 421.236 351.724C421.236 351.622 421.236 351.419 421.135 351.318C421.135 351.217 421.033 351.115 420.932 351.014C420.83 350.912 420.729 350.912 420.627 350.811C420.019 350.405 419.41 349.999 419.106 349.797C418.903 349.492 418.599 349.289 417.99 349.289Z" fill="white"/>
<path d="M38.8521 385.905C38.9535 385.905 38.9535 385.905 38.8521 385.905C39.055 385.804 39.2578 385.804 39.3592 385.703C39.6635 385.5 39.7649 385.094 39.8664 384.688C39.8664 384.587 39.8664 384.485 39.8664 384.384V384.283C39.7649 383.877 39.3591 383.674 38.9534 383.573H38.8521C38.6492 383.573 38.3448 383.573 38.1419 383.674C38.0405 383.674 37.9391 383.775 37.9391 383.877L37.8378 383.978C37.7364 384.08 37.7362 384.283 37.6348 384.384C37.6348 384.485 37.6348 384.688 37.6348 384.79C37.6348 384.891 37.6348 384.993 37.6348 384.993C37.6348 385.094 37.6348 385.094 37.6348 385.195V385.297C37.7362 385.5 37.8377 385.703 37.9391 385.804C38.2434 385.905 38.5478 386.007 38.8521 385.905Z" fill="white"/>
<path d="M89.0595 108.297C88.8567 108.297 88.7551 108.399 88.6537 108.5C88.4508 108.703 88.3495 108.804 88.248 109.21C88.248 109.311 88.248 109.413 88.248 109.514V109.616C88.248 109.92 88.5523 110.529 88.958 110.63H89.0595C89.3638 110.63 89.668 110.529 89.7695 110.326C89.8709 110.224 89.8708 110.224 89.9723 110.123L90.0738 110.021C90.1752 109.92 90.3779 109.819 90.3779 109.616C90.3779 109.413 90.2765 109.311 90.1751 109.21C90.0736 109.109 90.0737 109.109 89.9723 109.109L89.8707 109.007C89.8707 109.007 89.7695 109.007 89.7695 108.906C89.668 108.804 89.6681 108.703 89.5667 108.601C89.4652 108.5 89.3638 108.297 89.0595 108.297Z" fill="white"/>
<g style="mix-blend-mode:screen">
<path d="M0 -0.00012207H1793.37V776H0V-0.00012207Z" fill="#5B55FF" fill-opacity="0.3"/>
</g>
<rect x="-112" y="688" width="2665.27" height="101" fill="#EC5928"/>
<rect x="-112" y="688" width="709.508" height="101" fill="#C04B2C"/>
<mask id="mask2_3537_141454" style="mask-type:alpha" maskUnits="userSpaceOnUse" x="0" y="432" width="2086" height="345">
<path d="M0.00195312 448.046C0.00195312 439.181 7.1826 432 16.0481 432H2069.95C2078.82 432 2086 439.181 2086 448.046V776.992H0.00195312V448.046Z" fill="#F69374"/>
</mask>
<g mask="url(#mask2_3537_141454)">
<path opacity="0.3" d="M1304.15 556.076C1268.41 569.134 1250.66 598.418 1204.06 642.044L1667.68 697.162C1667.88 600.945 1633.78 604.054 1539.25 595.089C1476.97 590.335 1482.38 528.357 1304.15 556.076Z" fill="#EE5928"/>
<path opacity="0.3" d="M682.484 617.073C682.484 617.073 637.595 567.249 625.821 557.461C614.047 547.673 563.101 541.776 527.819 539.269C492.538 536.762 482.73 545.707 467.065 561.373C451.4 577.038 409.238 570.258 351.813 572.224C308.228 573.628 314.185 534.937 234.937 534.937C200.498 534.937 129.394 534.937 100.551 547.653L210.607 675.701L682.484 617.073Z" fill="#EE5928"/>
<mask id="mask3_3537_141454" style="mask-type:alpha" maskUnits="userSpaceOnUse" x="-6172" y="586" width="13951" height="13951">
<path d="M3325.8 1060.73C-264.459 -332.396 -4304.29 1448.56 -5697.42 5038.83C-7090.55 8629.09 -5309.38 12669 -1719.12 14062.1C1871.14 15455.3 5911.06 13674.1 7304.18 10083.8C8697.31 6493.57 6916.07 2453.83 3325.8 1060.73ZM-1642.78 13865.4C-5124.39 12514.5 -6851.48 8596.88 -5500.59 5115.45C-4149.69 1634 -232.146 -93.5296 3249.49 1257.43C6731.1 2608.4 8458.18 6525.98 7107.28 10007.4C5756.39 13488.8 1838.83 15216.4 -1642.78 13865.4Z" fill="white"/>
</mask>
<g mask="url(#mask3_3537_141454)">
<path d="M-3429.86 465.519C-3367.9 451.699 -3092.15 27.7001 -2265.65 -72.4077C-1490.62 -166.258 -1567.36 -215.82 -1038.2 -265.443C-509.042 -315.065 245.748 -114.489 1018.27 -12.8766C1790.87 88.5551 2945.65 436.596 4145.24 1043.86C5344.93 1650.95 5682.8 1753.86 6286.06 2242.91C6889.53 2732.02 6992.23 3196.99 7220.48 3436.6C7448.54 3676.13 7948.96 4286.61 7767.92 4801.99L-3429.86 465.519Z" fill="#EE5928"/>
<path d="M-3427.97 465.337C-3366.02 451.518 -3090.26 27.5185 -2263.77 -72.5894C-1488.82 -166.259 -1565.54 -215.821 -1036.4 -265.444C-507.236 -315.067 247.554 -114.49 1020.08 -12.8777C1792.68 88.554 2947.44 436.595 4147.07 1043.86C5346.74 1650.95 5684.61 1753.86 6287.88 2242.91C6891.34 2732.01 6994.05 3196.99 7222.29 3436.6C7450.35 3676.11 7950.76 4286.6 7769.72 4801.99L-3427.97 465.337Z" fill="#EE5928"/>
<g opacity="0.4">
<path opacity="0.4" d="M896.64 829.565C1092.66 933.163 1597.32 869.079 1597.32 869.079C1597.32 869.079 1560.79 830.167 1488.82 813.218C1405.52 793.361 1248.41 768.549 1200.9 747.97C1156.61 729.056 1111.22 716.821 1019.79 716.219C924.059 715.637 875.801 735.214 802.69 710.723C729.58 686.233 638.378 691.709 552.691 704.084C478.117 714.955 232.751 803.911 65.7913 769.031C-157.691 722.337 -246.406 766.865 -337.368 796.109C-414.249 820.699 -511.068 830.688 -570.719 774.828C-629.588 719.709 -720.771 858.809 -720.771 858.809C-720.771 858.809 34.6016 867.715 165.679 820.459L896.64 829.565Z" fill="#A54130"/>
</g>
<path d="M-291.317 838.63L-296.15 835.02C-295.669 834.338 -283.554 818.613 -257.64 801.765C-233.972 786.22 -193.636 766.563 -136.852 762.151C-76.6794 757.317 -19.7155 769.091 35.3027 780.343C80.5728 789.509 123.396 798.395 165.778 797.833C221.578 797.111 265.725 799.177 301.027 800.822C365.833 804.031 404.925 805.856 444.66 786.621C586.207 718.485 685.552 716.379 732.126 721.113C771.881 725.124 837.128 741.632 854.077 770.575C858.469 778.096 859.493 786.019 856.925 794.283C893.29 802.587 961.325 815.203 978.735 808.624C983.329 806.759 983.63 802.126 983.609 793.3C983.69 783.652 983.65 771.578 994.019 762.05C1008.3 749.093 1039.05 744.68 1088.53 748.592C1126.04 751.741 1154.84 763.996 1182.52 775.81C1212.39 788.687 1240.63 800.721 1277.23 800.08L1277.25 806.117C1239.3 806.879 1210.58 794.443 1180.15 781.346C1152.84 769.672 1124.68 757.457 1088.17 754.469C1040.59 750.637 1011.15 754.489 998.191 766.242C989.807 773.965 989.767 784.054 989.707 793.08C989.607 801.644 989.546 810.67 980.942 814C956.872 823.367 856.564 800.16 852.252 799.137L848.661 798.395L850.146 795.105C853.495 787.584 853.014 780.503 849.022 773.583C833.357 746.847 768.732 731.021 731.685 727.19C685.753 722.497 587.651 724.663 447.408 792.237C406.37 812.034 366.655 810.169 300.946 807.06C265.645 805.415 221.939 803.289 166.159 804.031C123.135 804.552 80.0714 795.807 34.4201 786.481C-20.237 775.389 -76.6192 763.835 -136.11 768.509C-191.57 772.801 -230.582 791.876 -253.869 806.939C-279.001 822.965 -291.236 838.45 -291.317 838.63Z" fill="#EE5928"/>
<path d="M157.074 423.397C101.434 343.928 -1008.92 557.884 -1106.78 502.905C-1226.14 435.712 -796.127 326.117 -343.265 308.426C109.517 290.916 686.075 286.583 906.047 332.355C1126.22 378.187 1381.82 383.141 1814.86 442.091C2247.89 501.04 2801.24 760.506 3152.37 852.009C3503.42 943.693 3725.13 984.972 4048.24 1199.65C4371.37 1414.31 4748.09 1515.74 5084.12 1646.13C5420.15 1776.51 5834.1 2165.19 5987.94 2432.94C6141.72 2700.87 6330.56 2756.51 6588.87 3179.24C6920.28 3721.78 6940.24 3889.38 6940.24 3889.38L6341.7 3390.35C5887.27 3137.64 5732.32 2767.92 5572.51 2572.08C5412.51 2376.17 4882.52 1939.46 4468.83 1754.18C4322.01 1688.39 4298.26 1609.91 4132.79 1540.11C4042.19 1501.94 3947.35 1444.69 3872 1369.42C3812.65 1310.03 3718.31 1318.61 3637.8 1249.93C3549.99 1175.2 3528.07 1167.34 3430.57 1141.96C3346.89 1120.26 3257.09 1102.19 3179.12 1062.47C3106.37 1025.43 3059.6 1027.29 2990.34 1021.7C2916.09 1015.68 2895.65 977.43 2788.94 979.055C2708.49 980.118 2681.61 937.415 2595.38 959.458C2488.78 986.937 2454.22 927.928 2393.08 948.527C2160.92 1026.25 1895.37 990.347 1660.3 843.184C1499.49 742.494 1354.92 762.993 1242.19 717.523C1152.58 681.238 1083.06 672.995 1025.27 678.31C956.954 684.708 869.643 695.158 797.716 674.78C657.894 635.366 526.235 669.705 386.734 697.104C294.99 715.076 183.59 754.89 76.863 728.334C-87.5297 687.356 -221.836 706.892 -338.13 748.251C-662.884 863.843 -677.265 566.528 90.7028 485.856C139.062 480.942 197.53 481.043 157.074 423.397Z" fill="#EE5928"/>
<g opacity="0.5">
<path d="M4704.09 1791.03C4646.26 1764.29 4591.32 1745.12 4542.6 1728.15C4439.13 1692.08 4364.51 1644.85 4306.91 1566.54C4249.92 1489.36 4181.54 1490.36 4092.19 1468.4C4038.23 1454.98 3962.64 1403.05 3904.03 1330.63C3880.08 1300.88 3823.07 1280.92 3768 1261.49C3725.03 1246.32 3684.52 1232.1 3661.31 1214.29C3557.61 1134.46 3461.72 1100.46 3381.65 1077.8C3381.28 1077.66 3379.6 1077 3377.73 1076.27C3295.52 1044.16 3219.74 1023.78 3170.82 1012.33C3144.58 1006.23 3117.12 1002.68 3088.14 999.172C3030.72 991.951 2971.45 984.43 2910.03 955.868C2887.6 945.438 2862.85 943.793 2839.04 942.529C2812.57 940.865 2787.56 939.34 2765.37 926.644C2730.11 906.065 2695.69 897.239 2658.83 899.064C2683.5 889.276 2716.69 880.21 2807.45 911.34C2837.06 921.529 2872.44 920.205 2906.54 918.801C2952.41 917.016 2999.81 915.191 3033.6 941.206L3037.4 936.432C3002.01 908.933 2953.47 910.959 2906.52 912.764C2872.86 914.128 2838.12 915.492 2809.46 905.643C2710.19 871.445 2677.74 884.663 2651.45 895.334C2644.77 898.122 2638.17 900.729 2631.11 902.294C2630.14 902.575 2629.26 902.655 2628.1 902.855L2628.42 904.259C2627 904.58 2625.65 904.701 2624.25 905.002C2608 907.509 2595.12 909.615 2561.69 906.546C2517.62 902.575 2485.49 890.54 2484.87 890.5C2473.27 886.007 2463.65 881.414 2454.4 876.961C2422.13 861.436 2396.63 848.96 2314.86 860.674C2288 864.445 2256.73 854.677 2220.63 843.465C2175.14 829.264 2123.29 813.218 2065.84 820.418C1996.9 828.963 1919.7 829.986 1821.28 778.658C1698.14 714.534 1641.96 716.82 1576.74 719.689C1556.18 720.531 1546.29 722.717 1525.45 724.322C1522.78 724.583 1509.86 725.144 1502.4 725.485C1457.43 724.382 1387.47 718.967 1338.33 696.462C1322.42 689.221 1307.06 680.015 1290.83 670.287C1229.92 633.742 1160.88 592.102 1025.69 628.928C898.927 663.427 854.479 651.553 707.556 611.558C652.077 596.494 586.307 610.755 516.286 625.979C487.343 632.398 457.297 638.816 427.371 643.329C252.608 669.545 67.235 666.014 -123.574 632.658L-123.754 632.578C-124.195 632.618 -175.102 627.925 -246.888 643.309C-273.204 649.026 -298.396 661.842 -325.153 675.341C-373.071 699.571 -422.413 724.723 -489.004 716.118L-489.807 722.055C-421.59 730.881 -368.859 704.224 -322.506 680.697C-296.19 667.238 -271.338 654.722 -245.725 649.166C-176.486 634.283 -127.023 638.214 -124.556 638.515C66.874 671.911 252.889 675.462 428.353 649.106C458.48 644.653 488.587 638.054 517.71 631.716C586.769 616.773 652.097 602.532 705.992 617.214C854.178 657.289 898.927 669.484 1027.18 634.484C1160 598.239 1227.81 639.177 1287.66 675.1C1304.07 684.909 1319.56 694.356 1335.66 701.677C1405.68 733.589 1516.06 731.884 1541.77 731.081C1588.09 734.21 1652.47 742.414 1703.76 784.896C1751.8 824.63 1845.79 921.77 1963.45 935.148C1963.45 935.148 2096.19 952.879 2185.73 920.065C2192.27 917.658 2202.94 915.111 2217.22 910.979C2228.19 907.709 2240.22 908.291 2254.34 909.033C2275.06 909.976 2300.96 911.42 2335.32 901.07C2383.25 886.749 2441.26 884.743 2482.94 895.955C2485.57 896.978 2517.64 908.552 2561.15 912.323C2595.22 915.431 2608.54 913.285 2625.23 910.718C2628.18 910.357 2631.19 909.795 2634.4 909.314L2634.16 907.709C2679.51 899.486 2720.48 907.007 2762.42 931.458C2785.77 945.037 2812.67 946.661 2838.76 948.166C2862.05 949.67 2886.06 951.034 2907.54 961.083C2969.9 990.006 3029.53 997.668 3087.42 1004.85C3116.32 1008.54 3143.6 1012.01 3169.48 1017.97C3217.81 1029.2 3292.05 1049.18 3373 1080.59C3373.94 1080.95 3374.69 1081.25 3375.63 1081.61C3378.8 1082.83 3379.74 1083.21 3380.12 1083.35C3459.79 1105.88 3554.94 1139.58 3657.78 1218.86C3681.67 1237.16 3722.69 1251.78 3766.07 1266.9C3820.41 1286.04 3876.67 1305.71 3899.41 1334.14C3958.72 1407.49 4035.67 1460.38 4090.82 1474.02C4178.82 1495.68 4246.63 1494.46 4302.09 1569.99C4360.84 1649.8 4436.28 1697.14 4540.68 1733.56C4589.22 1750.45 4644.16 1769.63 4701.62 1796.22C4973.82 1922.51 5185.53 2085.54 5187.74 2087.04L5191.53 2082.29C5189.24 2081.04 4976.99 1917.79 4704.09 1791.03ZM2333.69 895.354C2300.3 905.423 2274.96 904.199 2254.76 903.016C2240.18 902.314 2227.53 901.692 2215.59 905.242C2202.27 909.113 2193.51 911.721 2187.63 913.546C2187.63 913.546 2113 945.678 1978.65 932.059C1846.65 918.48 1746.92 812.877 1707.85 780.504C1667.92 747.589 1613.64 732.766 1568.05 726.047C1571.1 725.947 1574.15 725.826 1577.2 725.726C1641.54 722.938 1697.1 720.611 1818.81 783.974C1918.66 836.063 1997.12 835.101 2066.94 826.476C2123.23 819.496 2174.27 835.421 2219.2 849.402C2256.05 860.895 2287.7 870.823 2315.96 866.731C2395.89 855.359 2419.4 866.852 2452.03 882.537C2454.02 883.52 2455.82 884.442 2457.81 885.425C2419.02 880.05 2373.13 883.54 2333.69 895.354Z" fill="#F58669"/>
</g>
<g opacity="0.4">
<path fill-rule="evenodd" clip-rule="evenodd" d="M-261.75 595.53C-240.609 603.734 85.5085 649.806 303.074 636.989C404.586 630.992 591.664 553.61 818.476 594.507C922.415 613.321 990.531 598.017 1111.78 591.057C1185.89 586.905 1235.9 613.823 1323.35 641.302C1529.38 706.409 1641.14 651.23 1795.32 723.538C1909.25 776.992 2053.57 803.729 2191.76 790.23C2278.35 781.665 2364.24 795.405 2440.08 834.517C2529.05 880.229 2648.7 848.558 2757.73 849.781C3136.82 854.234 3728.82 989.724 3963.56 1332.93C4007.51 1397.11 4017.31 1420.06 4094.76 1427.3C4481.21 1463.23 4365.96 1657.1 4537.55 1667.33C4908.48 1689.48 5163.67 1995.48 5487.54 2283.58C5811.41 2571.69 5895.43 2936.26 6070.48 3103.38C6245.52 3270.48 6350.9 3292.22 6350.9 3292.22L5914.69 2480.75L4058.29 1002.24L2572.58 205.208L267.652 505.331L-261.75 595.53Z" fill="#F69374"/>
</g>
<path opacity="0.4" d="M1309.05 740.207C1313.6 741.972 1318.71 739.726 1320.46 735.173C1322.22 730.62 1319.98 725.505 1315.42 723.76C1310.87 721.995 1305.78 724.241 1304.01 728.794C1302.25 733.327 1304.51 738.442 1309.05 740.207Z" fill="#F69374"/>
<path opacity="0.4" d="M1701.41 757.156C1703.38 757.918 1705.59 756.935 1706.35 754.99C1707.11 753.024 1706.15 750.818 1704.18 750.056C1702.22 749.293 1700.01 750.276 1699.25 752.222C1698.49 754.187 1699.45 756.394 1701.41 757.156Z" fill="#A54130"/>
<path opacity="0.4" d="M492.779 666.955C494.745 667.717 496.951 666.734 497.713 664.789C498.476 662.823 497.493 660.617 495.547 659.855C493.581 659.092 491.375 660.075 490.613 662.021C489.831 663.987 490.814 666.193 492.779 666.955Z" fill="#F69374"/>
<path opacity="0.4" d="M820.842 686.672C822.807 687.434 825.014 686.451 825.776 684.506C826.538 682.54 825.555 680.334 823.61 679.572C821.644 678.809 819.438 679.792 818.675 681.738C817.893 683.703 818.876 685.91 820.842 686.672Z" fill="#F69374"/>
<path opacity="0.4" d="M883.101 698.084C885.067 698.846 887.273 697.863 888.036 695.918C888.798 693.952 887.815 691.746 885.869 690.983C883.904 690.221 881.697 691.204 880.935 693.15C880.153 695.095 881.136 697.322 883.101 698.084Z" fill="#F69374"/>
<path opacity="0.4" d="M1384.38 683.184C1386.35 683.946 1388.56 682.963 1389.32 681.018C1390.08 679.052 1389.1 676.846 1387.15 676.084C1385.19 675.321 1382.98 676.284 1382.22 678.25C1381.46 680.215 1382.42 682.422 1384.38 683.184Z" fill="#F69374"/>
<path opacity="0.4" d="M1380.91 748.771C1382.88 749.533 1385.08 748.55 1385.85 746.605C1386.61 744.639 1385.63 742.433 1383.68 741.671C1381.71 740.908 1379.51 741.871 1378.75 743.837C1377.98 745.803 1378.95 748.009 1380.91 748.771Z" fill="#F69374"/>
<path opacity="0.3" d="M496.309 756.191C500.863 757.956 505.957 755.709 507.722 751.156C509.487 746.603 507.221 741.509 502.688 739.744C498.135 737.978 493.02 740.225 491.275 744.778C489.53 749.311 491.776 754.426 496.309 756.191Z" fill="#A54130"/>
<path opacity="0.4" d="M1166.36 663.988C1170.91 665.753 1176.02 663.507 1177.77 658.954C1179.53 654.401 1177.29 649.286 1172.73 647.541C1168.2 645.776 1163.09 648.022 1161.32 652.575C1159.56 657.109 1161.8 662.223 1166.36 663.988Z" fill="#F69374"/>
<path opacity="0.4" d="M624.679 641.623C629.232 643.388 634.327 641.122 636.092 636.589C637.857 632.035 635.61 626.921 631.057 625.176C626.504 623.411 621.39 625.657 619.644 630.21C617.879 634.743 620.146 639.858 624.679 641.623Z" fill="#F69374"/>
<path opacity="0.4" d="M411.586 691.344C416.139 693.109 421.254 690.863 422.999 686.31C424.764 681.757 422.517 676.662 417.964 674.897C413.411 673.132 408.296 675.378 406.551 679.931C404.786 684.464 407.033 689.579 411.586 691.344Z" fill="#F69374"/>
<path opacity="0.4" d="M1092.38 661.099C1094.35 661.861 1096.56 660.878 1097.32 658.932C1098.08 656.967 1097.1 654.76 1095.15 653.998C1093.19 653.236 1090.98 654.219 1090.22 656.164C1089.46 658.13 1090.42 660.336 1092.38 661.099Z" fill="#F69374"/>
<path opacity="0.3" d="M1020.76 735.532C1022.72 736.294 1024.93 735.311 1025.69 733.346C1026.45 731.38 1025.47 729.174 1023.53 728.411C1021.56 727.649 1019.35 728.632 1018.59 730.578C1017.83 732.563 1018.79 734.77 1020.76 735.532Z" fill="#A54130"/>
<path opacity="0.3" d="M719.089 708.818C721.055 709.58 723.261 708.597 724.024 706.652C724.786 704.686 723.803 702.48 721.857 701.717C719.892 700.955 717.685 701.938 716.923 703.884C716.161 705.849 717.124 708.056 719.089 708.818Z" fill="#A54130"/>
<path opacity="0.4" d="M267.37 704.144C271.923 705.909 277.018 703.663 278.783 699.11C280.548 694.557 278.302 689.442 273.749 687.697C269.196 685.932 264.081 688.198 262.336 692.731C260.571 697.264 262.837 702.379 267.37 704.144Z" fill="#A54130"/>
<path opacity="0.4" d="M33.4584 643.288C35.4241 644.05 37.6304 643.068 38.3926 641.122C39.1548 639.156 38.172 636.95 36.2264 636.188C34.2608 635.426 32.0544 636.388 31.2922 638.354C30.53 640.32 31.4928 642.526 33.4584 643.288Z" fill="#A54130"/>
<path opacity="0.4" d="M118.702 709.698C120.668 710.46 122.874 709.477 123.636 707.531C124.398 705.566 123.416 703.359 121.45 702.597C119.484 701.835 117.278 702.798 116.516 704.764C115.774 706.729 116.736 708.956 118.702 709.698Z" fill="#A54130"/>
<path opacity="0.4" d="M332.999 689.158C334.965 689.92 337.171 688.958 337.934 686.992C338.696 685.026 337.713 682.82 335.767 682.058C333.802 681.296 331.595 682.258 330.833 684.224C330.071 686.19 331.034 688.396 332.999 689.158Z" fill="#A54130"/>
<path d="M1676.12 666.015C1678.07 666.777 1680.29 665.794 1681.05 663.848C1681.82 661.883 1680.83 659.676 1678.87 658.914C1676.9 658.152 1674.7 659.135 1673.93 661.08C1673.17 663.046 1674.15 665.252 1676.12 666.015Z" fill="#EE5928"/>
<path d="M410.703 577.4L390.284 565.586L367.719 578.704L366.576 579.305C367.419 580.79 368.421 582.214 369.585 583.578C370.487 584.58 371.39 585.583 372.393 586.346C377.227 590.558 383.425 592.965 390.264 593.025C400.353 593.045 409.259 587.449 413.972 579.305L410.703 577.4Z" fill="#EE5928"/>
<g opacity="0.4">
<path opacity="0.4" d="M387.435 590.276C381.358 590.256 375.641 588.291 371.148 584.861C371.59 585.422 372.011 585.964 372.372 586.365C377.206 590.577 383.404 592.984 390.243 593.044C400.332 593.084 409.238 587.468 413.952 579.325L410.562 577.359C405.888 585.122 397.264 590.317 387.435 590.276Z" fill="#A54130"/>
</g>
<path d="M367.719 578.724C368.561 580.87 369.684 582.976 371.169 584.861C375.662 588.291 381.378 590.257 387.455 590.277C397.284 590.337 405.788 585.082 410.702 577.42L390.284 565.606L367.719 578.724Z" fill="#EE5928"/>
</g>
<mask id="mask4_3537_141454" style="mask-type:alpha" maskUnits="userSpaceOnUse" x="366" y="565" width="48" height="29">
<path d="M410.602 577.48L390.324 565.626L367.618 578.824L366.535 579.426C367.378 580.89 368.34 582.354 369.544 583.698C370.386 584.681 371.349 585.644 372.312 586.506C377.146 590.658 383.424 593.225 390.183 593.225C400.332 593.225 409.138 587.609 413.972 579.305L410.602 577.48Z" fill="white"/>
</mask>
<g mask="url(#mask4_3537_141454)">
<g opacity="0.4">
<path opacity="0.4" d="M364.891 586.947L363.607 585.824C363.688 585.744 371.229 577.239 383.926 580.97C402.6 586.345 416.76 577.179 416.901 577.099L417.843 578.523C417.242 578.924 402.92 588.211 383.465 582.615C371.831 579.205 365.172 586.646 364.891 586.947Z" fill="#F69374"/>
</g>
<g opacity="0.4">
<path opacity="0.4" d="M393.693 573.629C384.707 573.629 380.876 568.213 380.676 567.912L382.08 566.949C382.3 567.29 387.876 575.033 401.997 570.479L402.519 572.104C399.149 573.207 396.22 573.629 393.693 573.629Z" fill="#F69374"/>
</g>
<path d="M362.905 555.757C362.885 560.812 364.188 565.445 366.635 569.497L367.779 568.895L390.344 555.777L390.384 531.327V528.339C375.08 528.359 362.824 540.574 362.905 555.757Z" fill="#EE5928"/>
<path d="M411.003 537.906C415.135 542.62 417.622 548.898 417.662 555.778C417.682 560.551 416.479 565.064 414.272 569.337L414.172 569.457C413.53 569.116 411.143 567.712 410.782 567.471L390.283 555.758V531.548V528.559C397.123 528.619 403.321 531.026 408.155 535.239C408.516 535.64 409.017 536.001 409.458 536.542C409.96 536.883 410.521 537.465 411.003 537.906Z" fill="#EE5928"/>
<g opacity="0.4">
<path opacity="0.4" d="M390.264 531.287L390.404 555.938L410.722 567.431C413.31 563.119 414.995 557.964 414.874 552.608C414.794 546.491 413.029 540.995 409.459 536.502C404.765 532.992 398.848 531.026 392.731 531.107C391.808 531.147 391.226 531.127 390.264 531.287Z" fill="#F69374"/>
</g>
<path d="M362.905 555.757C362.885 560.812 364.188 565.445 366.635 569.497L367.779 568.895L390.344 555.777L390.384 531.327V528.339C375.08 528.359 362.824 540.574 362.905 555.757Z" fill="#EE5928"/>
<g opacity="0.4">
<path opacity="0.4" d="M362.905 555.757C362.885 560.812 364.188 565.445 366.635 569.497L367.779 568.895L390.344 555.777L390.384 531.327V528.339C375.08 528.359 362.824 540.574 362.905 555.757Z" fill="#F69374"/>
</g>
</g>
<mask id="mask5_3537_141454" style="mask-type:alpha" maskUnits="userSpaceOnUse" x="362" y="528" width="56" height="42">
<path d="M411.043 537.786C410.141 536.783 409.238 535.78 408.235 535.018C403.401 530.806 397.204 528.399 390.364 528.339C375.241 528.298 362.945 540.614 362.885 555.757C362.865 560.812 364.169 565.445 366.616 569.497L367.759 568.895L390.324 555.777L410.743 567.591L414.132 569.557C416.459 565.546 417.763 560.872 417.783 555.818C417.723 548.918 415.236 542.66 411.043 537.786Z" fill="white"/>
</mask>
<g mask="url(#mask5_3537_141454)">
</g>
<path d="M-2.94531 812.541V450.512C106.283 450.512 125.581 531.955 135.469 546.557C145.356 561.158 180.178 614.305 247.976 632.713C379.798 668.491 394.383 755.586 379.798 812.557H-2.94531V812.541Z" fill="#EE5928"/>
<path opacity="0.6" d="M-2.94531 812.541V450.512C106.283 450.512 125.581 531.955 135.469 546.557C145.356 561.158 180.178 614.305 247.976 632.713C379.798 668.491 394.383 755.586 379.798 812.557H-2.94531V812.541Z" fill="#A54130"/>
<path opacity="0.5" d="M141.105 600.216C79.4378 461.818 1.75195 472.646 1.75195 450.052C97.7963 450.052 125.103 525.381 141.105 550.331C152.394 567.915 184.414 617.651 253.613 634.593C357.188 659.955 390.132 732.038 383.078 797.018C362.841 665.196 193.363 682.615 141.105 600.216Z" fill="#EE5928"/>
<path opacity="0.5" d="M307.649 765.985C336.654 773.138 341.384 808.668 350.019 832.366C295.092 847.593 178.563 868.902 151.816 832.366C118.395 786.701 178.431 708.57 215.379 737.278C263.879 774.934 271.41 757.037 307.649 765.985Z" fill="#EE5928"/>
<path opacity="0.6" d="M283.26 795.188C305.178 802.341 308.771 837.871 315.297 861.585C273.767 876.813 185.666 898.121 165.446 861.585C140.182 815.903 185.567 737.756 213.501 766.464C250.168 804.12 255.854 786.24 283.26 795.188Z" fill="#A54130"/>
<path opacity="0.6" d="M0 810.663V523.486C46.094 545.008 32.4652 577.787 46.094 636.488C51.7301 660.746 67.732 691.283 109.129 715.245C147.593 737.525 101.137 795.32 97.3627 810.646H0V810.663Z" fill="#A54130"/>
<path d="M93.049 633.653C96.6896 633.653 99.6409 630.702 99.6409 627.062C99.6409 623.421 96.6896 620.47 93.049 620.47C89.4083 620.47 86.457 623.421 86.457 627.062C86.457 630.702 89.4083 633.653 93.049 633.653Z" fill="#B54026"/>
<path d="M97.2841 650.596C99.6232 650.596 101.519 648.7 101.519 646.361C101.519 644.021 99.6232 642.125 97.2841 642.125C94.945 642.125 93.0488 644.021 93.0488 646.361C93.0488 648.7 94.945 650.596 97.2841 650.596Z" fill="#B54026"/>
<path d="M113.286 642.124C115.625 642.124 117.521 640.228 117.521 637.889C117.521 635.55 115.625 633.654 113.286 633.654C110.947 633.654 109.051 635.55 109.051 637.889C109.051 640.228 110.947 642.124 113.286 642.124Z" fill="#B54026"/>
<path opacity="0.5" d="M316.714 728.743C319.053 728.743 320.949 726.847 320.949 724.508C320.949 722.168 319.053 720.272 316.714 720.272C314.375 720.272 312.479 722.168 312.479 724.508C312.479 726.847 314.375 728.743 316.714 728.743Z" fill="#EE5928"/>
<path opacity="0.5" d="M325.185 742.864C327.524 742.864 329.42 740.967 329.42 738.628C329.42 736.289 327.524 734.393 325.185 734.393C322.845 734.393 320.949 736.289 320.949 738.628C320.949 740.967 322.845 742.864 325.185 742.864Z" fill="#EE5928"/>
<path opacity="0.5" d="M303.531 742.881C307.435 742.881 310.601 739.715 310.601 735.811C310.601 731.906 307.435 728.741 303.531 728.741C299.626 728.741 296.461 731.906 296.461 735.811C296.461 739.715 299.626 742.881 303.531 742.881Z" fill="#EE5928"/>
<path d="M1675.96 564.362C1710.88 483.871 1873.99 440.506 2099.3 453.704V877.743H1465.88C1445.86 747.709 1505.77 685.851 1551.98 664.61C1633.88 626.962 1647.66 629.569 1675.96 564.362Z" fill="#EE5928"/>
<path opacity="0.6" d="M1675.96 564.362C1710.88 483.871 1873.99 440.506 2099.3 453.704V877.743H1465.88C1445.86 747.709 1505.77 685.851 1551.98 664.61C1633.88 626.962 1647.66 629.569 1675.96 564.362Z" fill="#A54130"/>
<path opacity="0.5" d="M1676.32 562.115C1711.5 508.822 1752.8 489.085 1846.13 468.225C1939.46 447.365 2099.32 453.684 2099.32 453.684L2094.82 473.962C1949.27 480.782 1753.96 481.263 1647.24 654.16C1471.37 719.749 1483.49 789.991 1464.43 883.319C1444.41 753.285 1500.56 694.275 1542.34 669.805C1619.94 624.354 1638.13 653.037 1676.32 562.115Z" fill="#EE5928"/>
<path fill-rule="evenodd" clip-rule="evenodd" d="M1745.85 639.099C1711.49 623.756 1669.89 613.897 1645.73 615.524L1649.74 610.51C1675.31 608.788 1713.54 618.083 1748.3 633.604C1765.74 641.388 1782.11 650.677 1795.01 660.814C1807.85 670.897 1817.59 682.081 1821.18 693.75C1822.44 697.817 1823.64 701.772 1824.81 705.62C1837.01 745.854 1845.66 774.36 1874.74 796.247C1906.8 820.386 1964.05 836.657 2079.33 849.34L2078.67 855.321C1963.5 842.651 1904.66 826.307 1871.12 801.054C1840.4 777.93 1831.19 747.492 1819.12 707.63C1817.93 703.687 1816.71 699.652 1815.43 695.523C1812.37 685.59 1803.77 675.348 1791.3 665.546C1778.89 655.799 1762.98 646.747 1745.85 639.099Z" fill="#EE5928"/>
<path fill-rule="evenodd" clip-rule="evenodd" d="M1776.84 594.076C1738.66 584.142 1694.92 581.538 1666.79 583.435L1669.8 577.418C1698.46 575.485 1739.44 578.128 1778.35 588.252C1817.03 598.317 1852.69 616.683 1864.63 648.283C1883.62 698.558 1927.45 736.525 1991.94 761.003C2056.44 785.487 2141.35 796.362 2241.85 792.54L2242.08 798.553C2141.09 802.393 2055.31 791.496 1989.8 766.628C1924.27 741.754 1878.78 702.79 1859 650.409C1848.18 621.777 1815.24 604.069 1776.84 594.076Z" fill="#EE5928"/>
<path fill-rule="evenodd" clip-rule="evenodd" d="M1796.09 536.395C1761.35 528.657 1719.07 531.026 1691.87 538.305L1699.89 530.521C1728.08 522.978 1761.77 522.585 1797.4 530.522C1833.02 538.455 1867.11 555.62 1887.81 585.202C1936.46 654.743 1977.18 690.432 2011.72 709.874C2042.65 727.285 2068.79 731.774 2091.89 735.744C2094.58 736.205 2097.22 736.659 2099.83 737.126L2098.77 743.049C2096.19 742.587 2093.56 742.136 2090.87 741.676C2067.74 737.707 2040.65 733.061 2008.77 715.117C1973.2 695.1 1931.86 658.672 1882.88 588.652C1863.34 560.729 1830.85 544.136 1796.09 536.395Z" fill="#EE5928"/>
<path d="M1590.81 705.026C1568.49 695.78 1517.64 708.877 1495 716.58C1477.53 735.955 1467.1 773.343 1464.07 789.61C1480.64 779.42 1522.42 755.852 1556.86 743.036C1599.92 727.01 1618.71 716.58 1590.81 705.026Z" fill="#EE5928"/>
<path opacity="0.6" d="M1531.79 726.287C1521.16 721.895 1496.91 728.113 1486.12 731.783C1477.79 740.99 1472.82 758.781 1471.37 766.503C1479.28 761.669 1499.19 750.457 1515.6 744.359C1536.12 736.737 1545.08 731.783 1531.79 726.287Z" fill="#A54130"/>
</g>
</g>
<g filter="url(#filter0_d_3537_141454)">
<path d="M114.63 390.651C116.961 393.774 115.455 398.826 111.291 401.939C107.102 405.058 101.85 405.037 99.5193 401.914C97.2145 398.785 98.6947 393.739 102.858 390.626C107.027 387.538 112.3 387.528 114.63 390.651Z" fill="#E6663C"/>
<path d="M104.804 345.669L101.328 346.46L112.229 394.527L115.704 393.737L104.804 345.669Z" fill="#E6663C"/>
<path d="M150.613 373.182C152.943 376.305 151.463 381.351 147.3 384.464C143.136 387.577 137.864 387.587 135.553 384.432C133.223 381.31 134.729 376.257 138.892 373.144C143.03 370.037 148.282 370.059 150.613 373.182Z" fill="#E6663C"/>
<path d="M140.554 326.843L137.078 327.634L147.979 375.702L151.454 374.911L140.554 326.843Z" fill="#E6663C"/>
<path d="M102.715 352.829L142.07 333.397L139.714 323.001L100.26 341.996L102.715 352.829Z" fill="#E6663C"/>
<path d="M105.63 357.823L104.063 354.608L140.577 336.854L142.144 340.068L105.63 357.823Z" fill="#E6663C"/>
</g>
<g filter="url(#filter1_d_3537_141454)">
<path d="M253.215 286.312C253.912 287.754 252.899 289.704 250.95 290.681C249 291.651 246.86 291.276 246.155 289.836C245.468 288.399 246.479 286.442 248.422 285.474C250.378 284.495 252.518 284.87 253.215 286.312Z" fill="#E6663C"/>
<path d="M253.075 287.734C253.037 287.745 252.996 287.749 252.956 287.752C252.669 287.767 252.435 287.543 252.424 287.255L251.693 262.569C251.682 262.281 251.909 262.042 252.196 262.026C252.482 262.011 252.716 262.235 252.727 262.523L253.46 287.217C253.466 287.456 253.299 287.67 253.075 287.734Z" fill="#E6663C"/>
<path d="M259.188 271.306C259.094 271.333 258.985 271.331 258.885 271.301C258.609 271.213 258.465 270.922 258.559 270.645C259.286 268.519 257.328 267.214 255.257 266.058L254.853 265.833C252.652 264.564 252.086 263.793 251.773 262.741C251.691 262.465 251.848 262.17 252.126 262.082C252.134 262.079 252.134 262.079 252.142 262.077C252.415 261.999 252.699 262.151 252.779 262.42C252.985 263.102 253.308 263.717 255.393 264.928L255.78 265.15C257.465 266.092 260.61 267.848 259.544 270.97C259.487 271.137 259.352 271.259 259.188 271.306Z" fill="#E6663C"/>
<path d="M259.511 279.585C259.417 279.612 259.307 279.61 259.207 279.581C258.932 279.493 258.787 279.201 258.881 278.924C259.609 276.799 257.65 275.494 255.58 274.338L255.176 274.112C252.975 272.844 252.409 272.073 252.096 271.021C252.014 270.745 252.17 270.45 252.449 270.361C252.737 270.212 253.019 270.423 253.101 270.699C253.308 271.382 253.631 271.997 255.714 273.2L256.108 273.42C257.794 274.361 260.931 276.12 259.87 279.232C259.81 279.416 259.674 279.539 259.511 279.585Z" fill="#E6663C"/>
<path d="M259.614 283.637C259.521 283.664 259.411 283.662 259.311 283.632C259.036 283.544 258.891 283.253 258.985 282.976C259.713 280.85 257.752 279.538 255.674 278.384L255.28 278.164C253.077 276.887 252.521 276.122 252.199 275.072C252.118 274.796 252.274 274.501 252.553 274.413C252.849 274.294 253.123 274.474 253.205 274.751C253.412 275.433 253.735 276.049 255.82 277.259L256.194 277.468C257.888 278.407 261.04 280.161 259.968 283.294C259.914 283.468 259.778 283.59 259.614 283.637Z" fill="#E6663C"/>
<path d="M259.354 275.316C259.261 275.343 259.151 275.341 259.051 275.312C258.776 275.224 258.631 274.932 258.725 274.655C259.453 272.53 257.494 271.225 255.424 270.069L255.027 269.841C252.826 268.573 252.26 267.802 251.947 266.75C251.865 266.473 252.022 266.178 252.301 266.09C252.58 265.943 252.871 266.151 252.953 266.428C253.159 267.11 253.483 267.726 255.565 268.928L255.952 269.151C257.638 270.092 260.782 271.848 259.716 274.971C259.654 275.147 259.518 275.269 259.354 275.316Z" fill="#E6663C"/>
</g>
</g>
<defs>
<filter id="filter0_d_3537_141454" x="97.4336" y="323.001" width="54.2832" height="81.2664" filterUnits="userSpaceOnUse" color-interpolation-filters="sRGB">
<feFlood flood-opacity="0" result="BackgroundImageFix"/>
<feColorMatrix in="SourceAlpha" type="matrix" values="0 0 0 0 0 0 0 0 0 0 0 0 0 0 0 0 0 0 127 0" result="hardAlpha"/>
<feOffset dx="-1"/>
<feComposite in2="hardAlpha" operator="out"/>
<feColorMatrix type="matrix" values="0 0 0 0 0.835294 0 0 0 0 0.258824 0 0 0 0 0.141176 0 0 0 1 0"/>
<feBlend mode="normal" in2="BackgroundImageFix" result="effect1_dropShadow_3537_141454"/>
<feBlend mode="normal" in="SourceGraphic" in2="effect1_dropShadow_3537_141454" result="shape"/>
</filter>
<filter id="filter1_d_3537_141454" x="245.939" y="262.026" width="14.2461" height="30.1937" filterUnits="userSpaceOnUse" color-interpolation-filters="sRGB">
<feFlood flood-opacity="0" result="BackgroundImageFix"/>
<feColorMatrix in="SourceAlpha" type="matrix" values="0 0 0 0 0 0 0 0 0 0 0 0 0 0 0 0 0 0 127 0" result="hardAlpha"/>
<feOffset dy="1"/>
<feComposite in2="hardAlpha" operator="out"/>
<feColorMatrix type="matrix" values="0 0 0 0 0.835294 0 0 0 0 0.258824 0 0 0 0 0.141176 0 0 0 1 0"/>
<feBlend mode="normal" in2="BackgroundImageFix" result="effect1_dropShadow_3537_141454"/>
<feBlend mode="normal" in="SourceGraphic" in2="effect1_dropShadow_3537_141454" result="shape"/>
</filter>
<linearGradient id="paint0_linear_3537_141454" x1="846.83" y1="832.7" x2="846.83" y2="171.54" gradientUnits="userSpaceOnUse">
<stop offset="0.01" stop-color="#612193" stop-opacity="0.6"/>
<stop offset="0.473958" stop-color="#3D17AD" stop-opacity="0.3"/>
<stop offset="1" stop-color="#1C0958" stop-opacity="0"/>
</linearGradient>
<radialGradient id="paint1_radial_3537_141454" cx="0" cy="0" r="1" gradientUnits="userSpaceOnUse" gradientTransform="translate(67.625 54.808) rotate(40.6279) scale(814.279 796.1)">
<stop offset="0.260417" stop-color="#4C2193" stop-opacity="0.6"/>
<stop offset="0.51" stop-color="#3D17AD" stop-opacity="0.3"/>
<stop offset="1" stop-color="#1C0958" stop-opacity="0"/>
</radialGradient>
<linearGradient id="paint2_linear_3537_141454" x1="1146.46" y1="905.382" x2="1146.46" y2="184.926" gradientUnits="userSpaceOnUse">
<stop offset="0.01" stop-color="#612193" stop-opacity="0.6"/>
<stop offset="0.473958" stop-color="#3D17AD" stop-opacity="0.3"/>
<stop offset="1" stop-color="#1C0958" stop-opacity="0"/>
</linearGradient>
<radialGradient id="paint3_radial_3537_141454" cx="0" cy="0" r="1" gradientUnits="userSpaceOnUse" gradientTransform="translate(1790.63 -2.6742) rotate(138.172) scale(834.727 820.786)">
<stop offset="0.243855" stop-color="#4C2193" stop-opacity="0.6"/>
<stop offset="0.51" stop-color="#3D17AD" stop-opacity="0.3"/>
<stop offset="1" stop-color="#1C0958" stop-opacity="0"/>
</radialGradient>
</defs>
</svg>
