<svg width="1794" height="922" viewBox="0 0 1794 922" fill="none" xmlns="http://www.w3.org/2000/svg">
<path d="M0.429688 2H1792.43V922H0.429688V2Z" fill="url(#paint0_linear_6278_168053)"/>
<mask id="mask0_6278_168053" style="mask-type:alpha" maskUnits="userSpaceOnUse" x="0" y="-200" width="1794" height="1122">
<path d="M1793.43 -199.794H0V921.1H1793.43V-199.794Z" fill="url(#paint1_linear_6278_168053)"/>
</mask>
<g mask="url(#mask0_6278_168053)">
<mask id="mask1_6278_168053" style="mask-type:alpha" maskUnits="userSpaceOnUse" x="0" y="-200" width="1794" height="1122">
<path d="M1793.43 -199.794H0V921.1H1793.43V-199.794Z" fill="#C4C4C4"/>
</mask>
<g mask="url(#mask1_6278_168053)">
<mask id="mask2_6278_168053" style="mask-type:alpha" maskUnits="userSpaceOnUse" x="-3974" y="775" width="9743" height="9745">
<path d="M897.569 775.5C-1792.58 775.5 -3973.41 2958.32 -3973.41 5648.47C-3973.41 8338.61 -1792.58 10519.5 897.569 10519.5C3587.71 10519.5 5768.55 8338.61 5768.55 5648.47C5768.55 2958.32 3587.71 775.5 897.569 775.5ZM897.569 10372.1C-1711.17 10372.1 -3825.88 8257.21 -3825.88 5648.61C-3825.88 3040.01 -1711.17 925.023 897.569 925.023C3506.31 925.023 5621.01 3039.87 5621.01 5648.47C5621.01 8257.07 3506.31 10372.1 897.569 10372.1Z" fill="white"/>
</mask>
<g mask="url(#mask2_6278_168053)">
<path d="M-3645.41 2099.15C-3608.56 2074.49 -3536.12 1728.7 -3023.17 1454.64C-2542.17 1197.69 -2604.66 1184.8 -2272.59 1018.76C-1940.53 852.731 -1398.3 792.623 -869.516 663.58C-340.735 534.537 499.235 469.245 1433.92 561.579C2368.61 653.912 2614.64 635.418 3131.09 801.45C3647.54 967.482 3832.07 1244.33 4041.26 1342.69C4250.44 1441.05 4730.47 1712.16 4742.8 2093.55L-3645.41 2099.15Z" fill="#EF6F45"/>
<path opacity="0.7" d="M326.294 798.984C326.294 798.984 393.758 812.617 508.677 849.523C623.597 886.428 706.697 925.519 706.697 925.519" stroke="#D6522A" stroke-width="4.20335" stroke-miterlimit="10"/>
<path opacity="0.7" d="M903.416 755.465C903.416 755.465 1170.16 814.592 1373.06 875.513C1591.34 941.057 1750.38 1006.27 1750.38 1006.27" stroke="#EF6F45" stroke-width="4.20335" stroke-miterlimit="10"/>
<path opacity="0.6" d="M51.1299 810.585C51.1299 810.585 170.631 831.07 312.746 870.091C472.978 914.086 572.654 958.361 572.654 958.361" stroke="#C04B2C" stroke-width="4.20335" stroke-miterlimit="10"/>
<path opacity="0.7" d="M1750.24 1056.29C1750.24 1056.29 1479.67 962.55 788.864 797.457C132.777 640.658 5.48535 631.06 5.48535 631.06" stroke="#C04B2C" stroke-width="112.089" stroke-miterlimit="10"/>
<path d="M461.899 774.815C461.899 774.815 844.138 805.443 1097.28 858.406C1350.42 911.368 1691.53 1020 1691.53 1020" stroke="#B34026" stroke-width="4.20335" stroke-miterlimit="10"/>
<path opacity="0.6" d="M773.984 636.551C773.984 636.551 1474.61 792.453 1880.4 963.978C2286.2 1135.5 2499.05 1292.39 2499.05 1292.39" stroke="#D6522A" stroke-width="56.0447" stroke-miterlimit="10"/>
<path opacity="0.6" d="M-443.296 841.942C-443.296 841.942 -235.931 796.322 332.923 923.207C901.776 1050.09 1240.85 1131.62 1240.85 1131.62" stroke="#D6522A" stroke-width="56.0447" stroke-miterlimit="10"/>
<path d="M-202.299 864.767C-202.299 864.767 66.4774 873.173 250.752 905.399C435.027 937.625 634 990.867 634 990.867" stroke="#B34026" stroke-width="4.20335" stroke-miterlimit="10"/>
<path opacity="0.6" d="M943.697 756.881C943.697 756.881 1170.68 776.174 1510.3 869.853C1830.93 958.305 2047.16 1070.58 2047.16 1070.58" stroke="#EF6F45" stroke-width="4.20335" stroke-miterlimit="10"/>
<g opacity="0.5">
<path opacity="0.5" d="M1316.37 848.249C1317.18 848.249 1317.98 848.089 1318.73 847.78C1319.48 847.47 1320.16 847.016 1320.73 846.443C1321.3 845.871 1321.76 845.191 1322.07 844.443C1322.38 843.695 1322.53 842.893 1322.53 842.084C1322.53 841.274 1322.38 840.473 1322.07 839.725C1321.76 838.977 1321.3 838.297 1320.73 837.725C1320.16 837.152 1319.48 836.698 1318.73 836.388C1317.98 836.078 1317.18 835.919 1316.37 835.919C1314.73 835.919 1313.17 836.569 1312.01 837.725C1310.85 838.881 1310.21 840.449 1310.21 842.084C1310.21 843.719 1310.85 845.287 1312.01 846.443C1313.17 847.599 1314.73 848.249 1316.37 848.249Z" fill="#C04B2C"/>
<path opacity="0.5" d="M956.413 793.03C958.048 793.03 959.616 792.38 960.772 791.224C961.928 790.068 962.578 788.5 962.578 786.865C962.578 785.23 961.928 783.662 960.772 782.506C959.616 781.35 958.048 780.7 956.413 780.7C954.778 780.7 953.21 781.35 952.054 782.506C950.898 783.662 950.248 785.23 950.248 786.865C950.248 788.5 950.898 790.068 952.054 791.224C953.21 792.38 954.778 793.03 956.413 793.03V793.03Z" fill="#ED8730"/>
<path opacity="0.5" d="M1433.19 882.421C1434.83 882.421 1436.4 881.772 1437.55 880.616C1438.71 879.459 1439.36 877.891 1439.36 876.256C1439.36 875.447 1439.2 874.645 1438.89 873.897C1438.58 873.149 1438.13 872.47 1437.55 871.897C1436.98 871.325 1436.3 870.87 1435.55 870.561C1434.81 870.251 1434 870.091 1433.19 870.091C1432.38 870.091 1431.58 870.251 1430.83 870.561C1430.09 870.87 1429.41 871.325 1428.83 871.897C1428.26 872.47 1427.81 873.149 1427.5 873.897C1427.19 874.645 1427.03 875.447 1427.03 876.256C1427.03 877.891 1427.68 879.459 1428.83 880.616C1429.99 881.772 1431.56 882.421 1433.19 882.421Z" fill="#C04B2C"/>
<path opacity="0.5" d="M1511.05 906.52C1511.4 906.52 1511.75 906.452 1512.07 906.318C1512.39 906.184 1512.69 905.988 1512.93 905.741C1513.18 905.493 1513.38 905.2 1513.51 904.877C1513.64 904.554 1513.71 904.208 1513.71 903.858C1513.71 903.153 1513.43 902.478 1512.93 901.98C1512.43 901.482 1511.76 901.2 1511.05 901.196C1510.35 901.2 1509.67 901.482 1509.17 901.98C1508.67 902.478 1508.39 903.153 1508.39 903.858C1508.39 904.208 1508.46 904.554 1508.59 904.877C1508.73 905.2 1508.92 905.493 1509.17 905.741C1509.42 905.988 1509.71 906.184 1510.03 906.318C1510.36 906.452 1510.7 906.52 1511.05 906.52V906.52Z" fill="#C04B2C"/>
<path opacity="0.5" d="M1425.94 826.054C1426.58 826.051 1427.2 825.792 1427.65 825.335C1428.11 824.879 1428.36 824.261 1428.36 823.616C1428.36 822.975 1428.1 822.36 1427.65 821.906C1427.2 821.453 1426.58 821.196 1425.94 821.192C1425.29 821.192 1424.68 821.447 1424.22 821.901C1423.76 822.356 1423.5 822.972 1423.5 823.616C1423.5 824.263 1423.76 824.883 1424.22 825.34C1424.67 825.798 1425.29 826.054 1425.94 826.054V826.054Z" fill="#C04B2C"/>
<path opacity="0.5" d="M1189.93 817.283C1190.64 817.283 1191.32 817.003 1191.82 816.504C1192.32 816.004 1192.6 815.327 1192.6 814.621C1192.6 813.915 1192.32 813.238 1191.82 812.739C1191.32 812.239 1190.64 811.959 1189.93 811.959C1189.58 811.959 1189.24 812.028 1188.91 812.162C1188.59 812.295 1188.3 812.492 1188.05 812.739C1187.8 812.986 1187.61 813.279 1187.47 813.602C1187.34 813.925 1187.27 814.272 1187.27 814.621C1187.27 814.971 1187.34 815.317 1187.47 815.64C1187.61 815.963 1187.8 816.256 1188.05 816.504C1188.3 816.751 1188.59 816.947 1188.91 817.081C1189.24 817.214 1189.58 817.283 1189.93 817.283Z" fill="#C04B2C"/>
<path opacity="0.5" d="M1121.59 798.158C1122.3 798.158 1122.97 797.878 1123.47 797.379C1123.97 796.879 1124.25 796.202 1124.25 795.496C1124.25 794.79 1123.97 794.113 1123.47 793.614C1122.97 793.114 1122.3 792.834 1121.59 792.834C1120.88 792.834 1120.21 793.114 1119.71 793.614C1119.21 794.113 1118.93 794.79 1118.93 795.496C1118.93 796.202 1119.21 796.879 1119.71 797.379C1120.21 797.878 1120.88 798.158 1121.59 798.158Z" fill="#ED8730"/>
<path opacity="0.5" d="M621.538 902.738C623.173 902.738 624.741 902.088 625.897 900.932C627.053 899.776 627.703 898.208 627.703 896.573C627.703 894.938 627.053 893.37 625.897 892.214C624.741 891.057 623.173 890.408 621.538 890.408C619.903 890.408 618.335 891.057 617.179 892.214C616.023 893.37 615.373 894.938 615.373 896.573C615.373 898.208 616.023 899.776 617.179 900.932C618.335 902.088 619.903 902.738 621.538 902.738Z" fill="#C04B2C"/>
<path opacity="0.5" d="M479.835 861.838C480.644 861.838 481.446 861.679 482.194 861.369C482.942 861.059 483.622 860.605 484.194 860.032C484.766 859.46 485.221 858.78 485.53 858.032C485.84 857.284 486 856.483 486 855.673C486 854.038 485.35 852.47 484.194 851.314C483.038 850.158 481.47 849.508 479.835 849.508C478.2 849.508 476.632 850.158 475.476 851.314C474.319 852.47 473.67 854.038 473.67 855.673C473.67 856.483 473.829 857.284 474.139 858.032C474.449 858.78 474.903 859.46 475.476 860.032C476.048 860.605 476.728 861.059 477.476 861.369C478.224 861.679 479.025 861.838 479.835 861.838Z" fill="#C04B2C"/>
<path opacity="0.5" d="M1047.8 814.622C1048.51 814.618 1049.18 814.336 1049.68 813.838C1050.18 813.339 1050.46 812.664 1050.46 811.96C1050.46 811.253 1050.18 810.576 1049.68 810.077C1049.18 809.578 1048.51 809.297 1047.8 809.297C1047.09 809.297 1046.42 809.578 1045.92 810.077C1045.42 810.576 1045.14 811.253 1045.14 811.96C1045.14 812.664 1045.42 813.339 1045.92 813.838C1046.42 814.336 1047.1 814.618 1047.8 814.622V814.622Z" fill="#ED8730"/>
<path opacity="0.5" d="M700.937 864.907C701.287 864.907 701.633 864.838 701.956 864.705C702.279 864.571 702.573 864.375 702.82 864.128C703.067 863.88 703.263 863.587 703.397 863.264C703.531 862.941 703.6 862.595 703.6 862.245C703.596 861.54 703.314 860.865 702.816 860.367C702.317 859.868 701.642 859.587 700.937 859.583C700.233 859.587 699.558 859.868 699.059 860.367C698.561 860.865 698.279 861.54 698.275 862.245C698.275 862.595 698.344 862.941 698.478 863.264C698.612 863.587 698.808 863.88 699.055 864.128C699.302 864.375 699.596 864.571 699.919 864.705C700.242 864.838 700.588 864.907 700.937 864.907V864.907Z" fill="#C04B2C"/>
<path opacity="0.5" d="M373.32 858.406C374.025 858.403 374.7 858.121 375.199 857.622C375.697 857.124 375.979 856.449 375.982 855.744C375.982 855.038 375.702 854.361 375.203 853.862C374.703 853.363 374.026 853.082 373.32 853.082C372.614 853.082 371.937 853.363 371.438 853.862C370.939 854.361 370.658 855.038 370.658 855.744C370.662 856.449 370.944 857.124 371.442 857.622C371.94 858.121 372.615 858.403 373.32 858.406V858.406Z" fill="#C04B2C"/>
<path opacity="0.5" d="M413.073 826.25C413.778 826.246 414.453 825.965 414.952 825.466C415.45 824.968 415.732 824.293 415.735 823.588C415.735 822.882 415.455 822.205 414.956 821.706C414.456 821.206 413.779 820.926 413.073 820.926C412.367 820.926 411.69 821.206 411.191 821.706C410.692 822.205 410.411 822.882 410.411 823.588C410.415 824.293 410.696 824.968 411.195 825.466C411.693 825.965 412.368 826.246 413.073 826.25V826.25Z" fill="#C04B2C"/>
<path opacity="0.5" d="M494.821 903.858C495.527 903.858 496.205 903.578 496.704 903.078C497.203 902.579 497.483 901.902 497.483 901.196C497.483 900.49 497.203 899.813 496.704 899.313C496.205 898.814 495.527 898.534 494.821 898.534C494.115 898.534 493.438 898.814 492.939 899.313C492.44 899.813 492.159 900.49 492.159 901.196C492.159 901.902 492.44 902.579 492.939 903.078C493.438 903.578 494.115 903.858 494.821 903.858Z" fill="#C04B2C"/>
<path opacity="0.5" d="M812.638 897.637C813.344 897.637 814.021 897.357 814.52 896.858C815.019 896.358 815.3 895.681 815.3 894.975C815.3 894.626 815.231 894.279 815.097 893.956C814.963 893.633 814.767 893.34 814.52 893.093C814.273 892.846 813.979 892.649 813.657 892.516C813.334 892.382 812.987 892.313 812.638 892.313C812.288 892.313 811.942 892.382 811.619 892.516C811.296 892.649 811.003 892.846 810.755 893.093C810.508 893.34 810.312 893.633 810.178 893.956C810.044 894.279 809.976 894.626 809.976 894.975C809.976 895.681 810.256 896.358 810.755 896.858C811.255 897.357 811.932 897.637 812.638 897.637Z" fill="#C04B2C"/>
</g>
<path opacity="0.5" d="M312.74 842.083C313.55 842.083 314.351 841.923 315.099 841.613C315.847 841.304 316.527 840.85 317.099 840.277C317.672 839.705 318.126 839.025 318.436 838.277C318.746 837.529 318.905 836.727 318.905 835.918C318.905 834.283 318.255 832.715 317.099 831.559C315.943 830.402 314.375 829.753 312.74 829.753C311.105 829.753 309.537 830.402 308.381 831.559C307.225 832.715 306.575 834.283 306.575 835.918C306.575 836.727 306.735 837.529 307.044 838.277C307.354 839.025 307.808 839.705 308.381 840.277C308.953 840.85 309.633 841.304 310.381 841.613C311.129 841.923 311.931 842.083 312.74 842.083V842.083Z" fill="#C04B2C"/>
<path opacity="0.5" d="M239.18 841.943C239.886 841.943 240.563 841.663 241.062 841.164C241.561 840.664 241.842 839.987 241.842 839.281C241.842 838.932 241.773 838.586 241.639 838.263C241.505 837.94 241.309 837.646 241.062 837.399C240.815 837.152 240.521 836.956 240.198 836.822C239.875 836.688 239.529 836.619 239.18 836.619C238.83 836.619 238.484 836.688 238.161 836.822C237.838 836.956 237.544 837.152 237.297 837.399C237.05 837.646 236.854 837.94 236.72 838.263C236.586 838.586 236.518 838.932 236.518 839.281C236.518 839.987 236.798 840.664 237.297 841.164C237.797 841.663 238.474 841.943 239.18 841.943Z" fill="#C04B2C"/>
<path opacity="0.5" d="M168.102 851.12C168.806 851.117 169.481 850.835 169.98 850.336C170.478 849.838 170.76 849.163 170.764 848.458C170.76 847.753 170.478 847.078 169.98 846.58C169.481 846.081 168.806 845.8 168.102 845.796C167.396 845.796 166.718 846.076 166.219 846.576C165.72 847.075 165.439 847.752 165.439 848.458C165.439 849.164 165.72 849.841 166.219 850.34C166.718 850.84 167.396 851.12 168.102 851.12Z" fill="#C04B2C"/>
<path d="M1187.27 905.4C1187.98 905.4 1188.65 905.119 1189.15 904.62C1189.65 904.121 1189.93 903.443 1189.93 902.737C1189.93 902.031 1189.65 901.354 1189.15 900.855C1188.65 900.356 1187.98 900.075 1187.27 900.075C1186.56 900.075 1185.89 900.356 1185.39 900.855C1184.89 901.354 1184.61 902.031 1184.61 902.737C1184.61 903.443 1184.89 904.121 1185.39 904.62C1185.89 905.119 1186.56 905.4 1187.27 905.4Z" fill="#FDA756"/>
<path d="M1060.09 890.632C1061.73 890.632 1063.3 889.982 1064.45 888.826C1065.61 887.67 1066.26 886.102 1066.26 884.467C1066.26 882.832 1065.61 881.264 1064.45 880.108C1063.3 878.951 1061.73 878.302 1060.09 878.302C1058.46 878.302 1056.89 878.951 1055.73 880.108C1054.58 881.264 1053.93 882.832 1053.93 884.467C1053.93 886.102 1054.58 887.67 1055.73 888.826C1056.89 889.982 1058.46 890.632 1060.09 890.632V890.632Z" fill="#FDA756"/>
<path d="M968.733 815.461C970.368 815.461 971.936 814.812 973.092 813.655C974.249 812.499 974.898 810.931 974.898 809.296C974.898 807.661 974.249 806.093 973.092 804.937C971.936 803.781 970.368 803.131 968.733 803.131C967.098 803.131 965.53 803.781 964.374 804.937C963.218 806.093 962.568 807.661 962.568 809.296C962.568 810.931 963.218 812.499 964.374 813.655C965.53 814.812 967.098 815.461 968.733 815.461V815.461Z" fill="#FDA756"/>
<path d="M555.437 810.235C557.072 810.235 558.641 809.586 559.797 808.43C560.953 807.273 561.602 805.705 561.602 804.07C561.602 803.261 561.443 802.459 561.133 801.711C560.823 800.963 560.369 800.284 559.797 799.711C559.224 799.139 558.545 798.684 557.797 798.375C557.049 798.065 556.247 797.905 555.437 797.905C554.628 797.905 553.826 798.065 553.078 798.375C552.33 798.684 551.651 799.139 551.078 799.711C550.506 800.284 550.052 800.963 549.742 801.711C549.432 802.459 549.272 803.261 549.272 804.07C549.272 805.705 549.922 807.273 551.078 808.43C552.234 809.586 553.802 810.235 555.437 810.235V810.235Z" fill="#FDA756"/>
<path d="M738.78 835.988C740.415 835.988 741.983 835.339 743.139 834.182C744.295 833.026 744.945 831.458 744.945 829.823C744.945 828.188 744.295 826.62 743.139 825.464C741.983 824.308 740.415 823.658 738.78 823.658C737.145 823.658 735.577 824.308 734.421 825.464C733.265 826.62 732.615 828.188 732.615 829.823C732.615 831.458 733.265 833.026 734.421 834.182C735.577 835.339 737.145 835.988 738.78 835.988V835.988Z" fill="#FDA756"/>
<path d="M1273.06 888.587C1273.87 888.587 1274.67 888.427 1275.42 888.117C1276.17 887.808 1276.85 887.353 1277.42 886.781C1277.99 886.208 1278.45 885.529 1278.76 884.781C1279.07 884.033 1279.23 883.231 1279.23 882.422C1279.23 881.612 1279.07 880.81 1278.76 880.063C1278.45 879.315 1277.99 878.635 1277.42 878.062C1276.85 877.49 1276.17 877.036 1275.42 876.726C1274.67 876.416 1273.87 876.257 1273.06 876.257C1272.25 876.257 1271.45 876.416 1270.7 876.726C1269.95 877.036 1269.27 877.49 1268.7 878.062C1268.13 878.635 1267.68 879.315 1267.37 880.063C1267.06 880.81 1266.9 881.612 1266.9 882.422C1266.9 883.231 1267.06 884.033 1267.37 884.781C1267.68 885.529 1268.13 886.208 1268.7 886.781C1269.27 887.353 1269.95 887.808 1270.7 888.117C1271.45 888.427 1272.25 888.587 1273.06 888.587V888.587Z" fill="#FDA756"/>
<path d="M633.984 814.622C634.689 814.618 635.364 814.336 635.863 813.838C636.361 813.339 636.643 812.664 636.647 811.96C636.647 811.253 636.366 810.576 635.867 810.077C635.368 809.578 634.69 809.297 633.984 809.297C633.278 809.297 632.601 809.578 632.102 810.077C631.603 810.576 631.322 811.253 631.322 811.96C631.326 812.664 631.608 813.339 632.106 813.838C632.605 814.336 633.28 814.618 633.984 814.622V814.622Z" fill="#FDA756"/>
<path d="M893.707 860.788C894.057 860.788 894.403 860.719 894.726 860.586C895.049 860.452 895.342 860.256 895.589 860.008C895.837 859.761 896.033 859.468 896.167 859.145C896.3 858.822 896.369 858.476 896.369 858.126C896.369 857.42 896.089 856.743 895.589 856.244C895.09 855.744 894.413 855.464 893.707 855.464C893.002 855.468 892.327 855.749 891.829 856.248C891.33 856.746 891.049 857.421 891.045 858.126C891.049 858.831 891.33 859.506 891.829 860.004C892.327 860.503 893.002 860.784 893.707 860.788V860.788Z" fill="#FDA756"/>
<path d="M852.734 881.581C853.44 881.581 854.118 881.301 854.617 880.801C855.116 880.302 855.397 879.625 855.397 878.919C855.397 878.213 855.116 877.536 854.617 877.037C854.118 876.537 853.44 876.257 852.734 876.257C852.028 876.257 851.351 876.537 850.852 877.037C850.353 877.536 850.072 878.213 850.072 878.919C850.072 879.625 850.353 880.302 850.852 880.801C851.351 881.301 852.028 881.581 852.734 881.581V881.581Z" fill="#FDA756"/>
<path d="M814.477 797.583C815.183 797.583 815.86 797.302 816.359 796.803C816.858 796.304 817.139 795.627 817.139 794.921C817.139 794.215 816.858 793.538 816.359 793.039C815.86 792.539 815.183 792.259 814.477 792.259C813.771 792.259 813.093 792.539 812.594 793.039C812.095 793.538 811.814 794.215 811.814 794.921C811.814 795.627 812.095 796.304 812.594 796.803C813.093 797.302 813.771 797.583 814.477 797.583Z" fill="#FDA756"/>
<path d="M204.908 887.745C206.543 887.745 208.111 887.096 209.267 885.94C210.424 884.783 211.073 883.216 211.073 881.58C211.073 879.945 210.424 878.377 209.267 877.221C208.111 876.065 206.543 875.416 204.908 875.416C203.273 875.416 201.705 876.065 200.549 877.221C199.393 878.377 198.743 879.945 198.743 881.58C198.743 883.216 199.393 884.783 200.549 885.94C201.705 887.096 203.273 887.745 204.908 887.745V887.745Z" fill="#FDA756"/>
<path d="M127.625 902.737C128.331 902.737 129.008 902.456 129.507 901.957C130.007 901.458 130.287 900.781 130.287 900.075C130.283 899.37 130.002 898.695 129.503 898.196C129.005 897.698 128.33 897.416 127.625 897.413C126.92 897.416 126.245 897.698 125.747 898.196C125.248 898.695 124.967 899.37 124.963 900.075C124.963 900.781 125.243 901.458 125.743 901.957C126.242 902.456 126.919 902.737 127.625 902.737Z" fill="#FDA756"/>
<path d="M303.913 902.737C304.619 902.737 305.296 902.456 305.795 901.957C306.295 901.458 306.575 900.781 306.575 900.075C306.572 899.37 306.29 898.695 305.791 898.196C305.293 897.698 304.618 897.416 303.913 897.413C303.208 897.416 302.533 897.698 302.035 898.196C301.536 898.695 301.255 899.37 301.251 900.075C301.251 900.781 301.531 901.458 302.031 901.957C302.53 902.456 303.207 902.737 303.913 902.737V902.737Z" fill="#FDA756"/>
<path d="M57.288 873.594C58.0975 873.594 58.8992 873.435 59.6472 873.125C60.3951 872.815 61.0747 872.361 61.6472 871.789C62.2197 871.216 62.6738 870.537 62.9836 869.789C63.2934 869.041 63.4529 868.239 63.4529 867.429C63.4529 865.794 62.8033 864.226 61.6472 863.07C60.4911 861.914 58.923 861.265 57.288 861.265C55.6529 861.265 54.0848 861.914 52.9287 863.07C51.7726 864.226 51.123 865.794 51.123 867.429C51.123 868.239 51.2825 869.041 51.5923 869.789C51.9021 870.537 52.3562 871.216 52.9287 871.789C53.5012 872.361 54.1808 872.815 54.9287 873.125C55.6767 873.435 56.4784 873.594 57.288 873.594V873.594Z" fill="#FDA756"/>
<path d="M1589.72 860.788C1591.2 860.788 1592.63 860.197 1593.68 859.146C1594.73 858.095 1595.32 856.669 1595.32 855.183C1595.32 853.697 1594.73 852.271 1593.68 851.22C1592.63 850.169 1591.2 849.579 1589.72 849.579C1588.23 849.579 1586.8 850.169 1585.75 851.22C1584.7 852.271 1584.11 853.697 1584.11 855.183C1584.11 856.669 1584.7 858.095 1585.75 859.146C1586.8 860.197 1588.23 860.788 1589.72 860.788Z" fill="#FDA756"/>
<path d="M1723.82 910.023C1725.45 910.023 1727.02 909.373 1728.17 908.217C1729.33 907.061 1729.98 905.493 1729.98 903.858C1729.98 902.223 1729.33 900.655 1728.17 899.498C1727.02 898.342 1725.45 897.693 1723.82 897.693C1723.01 897.693 1722.2 897.852 1721.46 898.162C1720.71 898.472 1720.03 898.926 1719.46 899.498C1718.88 900.071 1718.43 900.751 1718.12 901.499C1717.81 902.247 1717.65 903.048 1717.65 903.858C1717.65 904.667 1717.81 905.469 1718.12 906.217C1718.43 906.965 1718.88 907.645 1719.46 908.217C1720.03 908.789 1720.71 909.244 1721.46 909.553C1722.2 909.863 1723.01 910.023 1723.82 910.023V910.023Z" fill="#FDA756"/>
<path opacity="0.5" d="M1777.34 870.091C1778.05 870.091 1778.73 869.811 1779.23 869.311C1779.73 868.812 1780.01 868.135 1780.01 867.429C1780 866.724 1779.72 866.049 1779.22 865.551C1778.72 865.052 1778.05 864.771 1777.34 864.767C1776.64 864.771 1775.96 865.052 1775.47 865.551C1774.97 866.049 1774.69 866.724 1774.68 867.429C1774.68 868.135 1774.96 868.812 1775.46 869.311C1775.96 869.811 1776.64 870.091 1777.34 870.091Z" fill="#C04B2C"/>
<path d="M1527.97 833.592C1528.61 833.592 1529.23 833.337 1529.69 832.882C1530.14 832.428 1530.4 831.811 1530.4 831.168C1530.4 830.525 1530.14 829.909 1529.69 829.454C1529.23 829 1528.61 828.744 1527.97 828.744C1527.65 828.742 1527.34 828.804 1527.04 828.925C1526.74 829.046 1526.47 829.224 1526.25 829.449C1526.02 829.674 1525.84 829.942 1525.72 830.237C1525.6 830.532 1525.53 830.849 1525.53 831.168C1525.53 831.488 1525.6 831.804 1525.72 832.099C1525.84 832.394 1526.02 832.662 1526.25 832.887C1526.47 833.112 1526.74 833.291 1527.04 833.412C1527.34 833.533 1527.65 833.594 1527.97 833.592V833.592Z" fill="#FDA756"/>
<path d="M1651.8 863.45C1652.15 863.452 1652.5 863.384 1652.82 863.251C1653.15 863.118 1653.44 862.922 1653.69 862.674C1653.94 862.427 1654.13 862.132 1654.27 861.809C1654.4 861.485 1654.47 861.138 1654.46 860.788C1654.47 860.437 1654.4 860.09 1654.27 859.767C1654.13 859.443 1653.94 859.149 1653.69 858.901C1653.44 858.653 1653.15 858.457 1652.82 858.324C1652.5 858.191 1652.15 858.124 1651.8 858.126C1651.1 858.129 1650.43 858.411 1649.93 858.91C1649.43 859.409 1649.15 860.084 1649.15 860.788C1649.15 861.491 1649.43 862.166 1649.93 862.665C1650.43 863.164 1651.1 863.446 1651.8 863.45V863.45Z" fill="#FDA756"/>
</g>
<path d="M89.2215 655.489L99.1669 648.647C100.209 647.93 101.716 648.311 102.532 649.498L110.6 661.224C111.416 662.41 111.234 663.954 110.192 664.671L100.252 671.51C99.2101 672.227 97.7029 671.846 96.8864 670.659L88.8189 658.933C87.9969 657.75 88.1796 656.206 89.2215 655.489ZM104.495 663.635C104.713 663.952 105.048 664.169 105.427 664.239C105.805 664.309 106.195 664.226 106.512 664.008C106.829 663.79 107.047 663.455 107.117 663.076C107.186 662.698 107.103 662.307 106.885 661.991L100.62 652.885C100.402 652.568 100.067 652.35 99.6887 652.28C99.3104 652.211 98.9199 652.294 98.6029 652.512C98.286 652.73 98.0687 653.065 97.9988 653.443C97.9289 653.821 98.0121 654.212 98.2301 654.529L104.495 663.635ZM98.8348 667.529C98.9382 667.696 99.0744 667.84 99.2352 667.953C99.3959 668.066 99.5779 668.145 99.77 668.185C99.9622 668.225 100.161 668.226 100.353 668.187C100.545 668.149 100.728 668.072 100.89 667.96C101.052 667.849 101.189 667.706 101.294 667.54C101.399 667.374 101.469 667.189 101.5 666.995C101.531 666.801 101.522 666.603 101.475 666.412C101.427 666.222 101.341 666.043 101.222 665.887L94.9569 656.781C94.8535 656.614 94.7173 656.47 94.5565 656.357C94.3958 656.245 94.2138 656.166 94.0216 656.125C93.8295 656.085 93.6312 656.084 93.4387 656.123C93.2462 656.162 93.0635 656.239 92.9018 656.35C92.7401 656.461 92.6026 656.604 92.4977 656.77C92.3929 656.936 92.3228 657.122 92.2917 657.316C92.2607 657.51 92.2693 657.708 92.3171 657.898C92.3649 658.089 92.4508 658.267 92.5697 658.423L98.8348 667.529Z" fill="#E6663C"/>
<path d="M137.429 761.121C137.26 754.867 134.006 751.461 131.858 749.869C128.69 748.426 125.971 746.152 123.991 743.288C116.975 733.091 121.24 717.981 133.518 709.533C145.796 701.086 161.433 702.503 168.448 712.7C169.986 714.94 171.026 717.483 171.497 720.159V720.159L171.509 720.175C171.59 720.639 171.656 721.109 171.707 721.582C172.255 724.194 174.314 729.699 181.987 732.132C188.716 734.327 194.533 738.679 198.54 744.514C208.839 759.482 204.744 780.176 189.398 790.734C174.052 801.293 153.262 797.72 142.964 782.751C138.604 776.429 136.641 768.76 137.429 761.121V761.121Z" fill="#E6663C"/>
<path d="M161.06 727.178C159.636 725.109 157.631 723.507 155.298 722.577C152.965 721.647 150.408 721.43 147.951 721.953C145.494 722.476 143.248 723.716 141.496 725.515C139.744 727.315 138.565 729.594 138.108 732.064C137.651 734.534 137.937 737.084 138.929 739.392C139.922 741.699 141.576 743.66 143.683 745.027C145.791 746.395 148.256 747.106 150.768 747.072C153.279 747.038 155.724 746.26 157.794 744.836C159.168 743.891 160.342 742.685 161.25 741.286C162.158 739.887 162.781 738.323 163.084 736.684C163.388 735.044 163.365 733.361 163.017 731.73C162.67 730.099 162.005 728.552 161.06 727.178V727.178Z" fill="#ED7C59"/>
<path d="M158.414 728.998C157.351 727.452 155.853 726.257 154.11 725.562C152.367 724.868 150.457 724.706 148.622 725.097C146.787 725.488 145.109 726.414 143.801 727.759C142.492 729.103 141.612 730.806 141.271 732.651C140.93 734.496 141.143 736.4 141.885 738.124C142.626 739.847 143.862 741.312 145.436 742.333C147.01 743.354 148.852 743.886 150.728 743.86C152.604 743.835 154.43 743.254 155.976 742.19C158.049 740.764 159.47 738.573 159.927 736.099C160.385 733.625 159.84 731.071 158.414 728.998V728.998Z" fill="#E6663C"/>
<path d="M162.562 776.7L185.931 760.622L189.244 765.437L165.875 781.516L162.562 776.7Z" fill="#E6663C"/>
<path d="M166.537 777.515L185.194 764.678L186.073 765.955L167.415 778.792L166.537 777.515Z" fill="#E6663C"/>
<path d="M143.401 723.917L103.975 666.612L107.915 663.901L148.283 721.871C148.283 721.871 146.239 722.202 143.401 723.917Z" fill="#E6663C"/>
<path d="M143.402 723.917L103.976 666.612L100.035 669.323L139.78 727.722C139.78 727.722 140.787 725.954 143.402 723.917Z" fill="#E6663C"/>
<path d="M104.868 648.778C105.079 648.633 105.214 648.467 105.175 648.41L104.785 647.843C104.744 647.783 104.542 647.853 104.332 647.998L102.259 649.424C102.048 649.569 101.908 649.734 101.95 649.794L102.339 650.361C102.379 650.418 102.585 650.349 102.795 650.204L104.868 648.778Z" fill="#E6663C"/>
<path d="M107.133 652.071C107.343 651.926 107.479 651.76 107.438 651.7L107.05 651.137C107.009 651.077 106.807 651.147 106.596 651.292L104.524 652.718C104.313 652.863 104.173 653.028 104.214 653.088L104.602 653.651C104.643 653.711 104.849 653.642 105.06 653.497L107.133 652.071Z" fill="#E6663C"/>
<path d="M109.396 655.361C109.607 655.216 109.744 655.053 109.703 654.993L109.315 654.429C109.274 654.369 109.071 654.436 108.86 654.581L106.787 656.007C106.577 656.152 106.438 656.32 106.48 656.38L106.867 656.944C106.909 657.004 107.113 656.932 107.324 656.787L109.396 655.361Z" fill="#E6663C"/>
<path d="M111.66 658.654C111.871 658.509 112.008 658.346 111.967 658.286L111.577 657.72C111.538 657.663 111.334 657.73 111.124 657.875L109.051 659.301C108.84 659.446 108.702 659.614 108.742 659.671L109.131 660.237C109.172 660.297 109.377 660.225 109.587 660.08L111.66 658.654Z" fill="#E6663C"/>
<path d="M102.251 672.658C102.323 672.764 102.434 672.836 102.56 672.859C102.685 672.882 102.815 672.854 102.92 672.782L110.106 667.838C110.159 667.802 110.204 667.756 110.239 667.703C110.274 667.65 110.297 667.591 110.309 667.528C110.321 667.466 110.32 667.402 110.307 667.34C110.294 667.278 110.269 667.219 110.233 667.167V667.167C110.197 667.114 110.151 667.07 110.097 667.035C110.044 667.001 109.985 666.977 109.922 666.966C109.86 666.954 109.796 666.956 109.734 666.969C109.672 666.983 109.613 667.008 109.561 667.045L102.374 671.989C102.269 672.061 102.197 672.173 102.174 672.298C102.151 672.424 102.178 672.553 102.251 672.658V672.658Z" fill="#E6663C"/>
<path d="M104.886 676.485C104.922 676.537 104.968 676.582 105.021 676.617C105.074 676.652 105.133 676.676 105.196 676.687C105.258 676.699 105.322 676.698 105.384 676.685C105.446 676.672 105.505 676.647 105.558 676.611L112.744 671.667C112.85 671.594 112.922 671.482 112.946 671.355C112.969 671.229 112.941 671.099 112.869 670.993V670.993C112.833 670.94 112.787 670.896 112.733 670.861C112.68 670.827 112.62 670.803 112.558 670.792C112.495 670.781 112.431 670.782 112.369 670.795C112.307 670.809 112.249 670.835 112.196 670.871L105.01 675.815C104.905 675.888 104.833 675.999 104.81 676.124C104.787 676.25 104.814 676.379 104.886 676.485V676.485Z" fill="#E6663C"/>
<path d="M107.503 680.289C107.575 680.394 107.686 680.466 107.812 680.49C107.937 680.513 108.067 680.485 108.172 680.413L115.358 675.469C115.411 675.433 115.456 675.387 115.491 675.334C115.525 675.281 115.549 675.222 115.561 675.159C115.573 675.097 115.572 675.033 115.559 674.971C115.546 674.909 115.521 674.85 115.485 674.797V674.797C115.449 674.745 115.403 674.7 115.349 674.666C115.296 674.632 115.237 674.608 115.174 674.597C115.112 674.585 115.048 674.586 114.985 674.6C114.923 674.614 114.865 674.639 114.813 674.676L107.626 679.62C107.521 679.692 107.449 679.803 107.426 679.929C107.403 680.054 107.43 680.184 107.503 680.289V680.289Z" fill="#E6663C"/>
<path d="M110.126 684.101C110.198 684.206 110.309 684.278 110.435 684.301C110.56 684.325 110.69 684.297 110.795 684.225L117.981 679.28C118.034 679.245 118.079 679.199 118.114 679.146C118.148 679.093 118.172 679.033 118.184 678.971C118.196 678.909 118.195 678.845 118.182 678.783C118.169 678.72 118.144 678.661 118.108 678.609V678.609C118.035 678.503 117.923 678.431 117.797 678.407C117.67 678.384 117.54 678.412 117.434 678.485L110.247 683.429C110.195 683.465 110.151 683.511 110.116 683.564C110.082 683.618 110.058 683.677 110.047 683.74C110.035 683.802 110.037 683.866 110.05 683.928C110.064 683.99 110.089 684.049 110.126 684.101V684.101Z" fill="#E6663C"/>
<path d="M112.746 687.911C112.818 688.017 112.93 688.089 113.055 688.113C113.181 688.137 113.311 688.11 113.417 688.038L120.603 683.093C120.709 683.021 120.782 682.909 120.805 682.782C120.829 682.656 120.801 682.525 120.728 682.419V682.419C120.692 682.367 120.646 682.322 120.593 682.288C120.539 682.254 120.48 682.23 120.417 682.219C120.355 682.207 120.291 682.209 120.229 682.222C120.167 682.236 120.108 682.261 120.056 682.298L112.87 687.242C112.764 687.314 112.692 687.425 112.669 687.551C112.646 687.677 112.673 687.806 112.746 687.911V687.911Z" fill="#E6663C"/>
<path d="M115.37 691.721C115.442 691.826 115.553 691.898 115.679 691.921C115.804 691.945 115.934 691.917 116.039 691.845L123.225 686.9C123.278 686.865 123.323 686.819 123.358 686.766C123.393 686.713 123.417 686.653 123.428 686.591C123.44 686.529 123.439 686.464 123.426 686.402C123.413 686.34 123.388 686.281 123.352 686.229V686.229C123.316 686.177 123.27 686.132 123.217 686.098C123.163 686.063 123.104 686.04 123.041 686.028C122.979 686.017 122.915 686.018 122.853 686.032C122.791 686.045 122.732 686.071 122.68 686.107L115.494 691.052C115.388 691.124 115.316 691.235 115.293 691.361C115.27 691.486 115.298 691.616 115.37 691.721V691.721Z" fill="#E6663C"/>
<path d="M117.989 695.533C118.025 695.585 118.07 695.63 118.123 695.665C118.176 695.7 118.236 695.724 118.298 695.736C118.361 695.748 118.425 695.747 118.487 695.734C118.549 695.721 118.608 695.695 118.66 695.659L125.847 690.715C125.952 690.642 126.025 690.53 126.048 690.404C126.072 690.277 126.044 690.147 125.971 690.041C125.935 689.989 125.889 689.944 125.836 689.91C125.782 689.875 125.723 689.852 125.66 689.84C125.598 689.829 125.534 689.83 125.472 689.844C125.41 689.857 125.351 689.883 125.299 689.919L118.113 694.864C118.008 694.936 117.935 695.047 117.912 695.173C117.889 695.298 117.917 695.428 117.989 695.533V695.533Z" fill="#E6663C"/>
<path d="M120.612 699.343C120.684 699.448 120.796 699.52 120.921 699.543C121.047 699.567 121.176 699.539 121.281 699.467L128.468 694.522C128.52 694.487 128.565 694.441 128.6 694.388C128.635 694.335 128.659 694.275 128.671 694.213C128.682 694.151 128.682 694.087 128.668 694.024C128.655 693.962 128.63 693.903 128.594 693.851V693.851C128.558 693.799 128.512 693.754 128.459 693.72C128.405 693.685 128.346 693.662 128.283 693.65C128.221 693.639 128.157 693.64 128.095 693.654C128.033 693.667 127.974 693.693 127.922 693.729L120.736 698.674C120.631 698.746 120.558 698.857 120.535 698.983C120.512 699.108 120.54 699.238 120.612 699.343V699.343Z" fill="#E6663C"/>
<path d="M123.236 703.154C123.308 703.259 123.42 703.331 123.545 703.354C123.671 703.377 123.8 703.35 123.905 703.277L131.092 698.333C131.144 698.297 131.189 698.252 131.224 698.199C131.259 698.146 131.283 698.086 131.295 698.024C131.306 697.961 131.306 697.897 131.292 697.835C131.279 697.773 131.254 697.714 131.218 697.662V697.662C131.145 697.556 131.033 697.483 130.907 697.46C130.78 697.437 130.65 697.465 130.544 697.537L123.358 702.482C123.306 702.518 123.261 702.564 123.226 702.617C123.192 702.67 123.168 702.73 123.157 702.792C123.146 702.855 123.147 702.919 123.16 702.981C123.174 703.043 123.2 703.102 123.236 703.154V703.154Z" fill="#E6663C"/>
<path d="M125.856 706.964C125.929 707.069 126.04 707.142 126.166 707.166C126.291 707.189 126.421 707.162 126.527 707.09L133.714 702.146C133.82 702.073 133.892 701.961 133.916 701.835C133.939 701.709 133.911 701.578 133.838 701.472V701.472C133.802 701.42 133.756 701.375 133.703 701.341C133.65 701.306 133.59 701.283 133.528 701.271C133.465 701.26 133.401 701.261 133.339 701.275C133.277 701.288 133.218 701.314 133.166 701.35L125.98 706.295C125.875 706.367 125.803 706.478 125.779 706.604C125.756 706.729 125.784 706.859 125.856 706.964V706.964Z" fill="#E6663C"/>
<path d="M128.478 710.777C128.551 710.883 128.662 710.955 128.787 710.978C128.913 711.001 129.042 710.974 129.148 710.901L136.334 705.957C136.386 705.921 136.431 705.876 136.466 705.822C136.501 705.769 136.525 705.71 136.537 705.648C136.549 705.585 136.548 705.521 136.535 705.459C136.522 705.397 136.496 705.338 136.46 705.286V705.286C136.424 705.233 136.378 705.189 136.325 705.154C136.272 705.12 136.212 705.096 136.15 705.085C136.087 705.074 136.023 705.075 135.961 705.088C135.899 705.102 135.84 705.128 135.788 705.164L128.602 710.108C128.497 710.181 128.425 710.292 128.402 710.417C128.378 710.543 128.406 710.672 128.478 710.777V710.777Z" fill="#E6663C"/>
<path d="M131.099 714.585C131.135 714.638 131.181 714.683 131.234 714.717C131.287 714.752 131.346 714.776 131.409 714.788C131.471 714.8 131.535 714.799 131.597 714.786C131.659 714.773 131.718 714.748 131.771 714.712L138.957 709.767C139.063 709.694 139.135 709.582 139.159 709.456C139.182 709.33 139.154 709.199 139.081 709.093C139.045 709.041 138.999 708.996 138.946 708.962C138.893 708.927 138.833 708.904 138.771 708.893C138.708 708.881 138.644 708.882 138.582 708.896C138.52 708.909 138.461 708.935 138.409 708.971L131.223 713.916C131.118 713.988 131.046 714.099 131.023 714.225C130.999 714.35 131.027 714.48 131.099 714.585V714.585Z" fill="#E6663C"/>
<path d="M133.723 718.396C133.796 718.501 133.907 718.573 134.032 718.596C134.158 718.619 134.288 718.592 134.393 718.519L141.579 713.575C141.632 713.539 141.677 713.494 141.711 713.441C141.746 713.388 141.77 713.328 141.782 713.266C141.794 713.203 141.793 713.139 141.78 713.077C141.767 713.015 141.741 712.956 141.705 712.904V712.904C141.669 712.852 141.623 712.807 141.57 712.772C141.517 712.738 141.457 712.714 141.395 712.703C141.332 712.692 141.268 712.693 141.206 712.706C141.144 712.72 141.085 712.746 141.033 712.782L133.847 717.726C133.742 717.799 133.67 717.91 133.647 718.035C133.623 718.161 133.651 718.29 133.723 718.396V718.396Z" fill="#E6663C"/>
<path d="M136.344 722.209C136.417 722.314 136.528 722.386 136.653 722.409C136.779 722.433 136.909 722.405 137.014 722.333L144.2 717.388C144.253 717.353 144.298 717.307 144.332 717.254C144.367 717.201 144.391 717.141 144.403 717.079C144.415 717.017 144.414 716.953 144.401 716.89C144.388 716.828 144.362 716.769 144.326 716.717V716.717C144.254 716.611 144.142 716.539 144.015 716.515C143.889 716.492 143.758 716.52 143.653 716.593L136.466 721.537C136.414 721.573 136.369 721.619 136.335 721.672C136.3 721.725 136.277 721.785 136.265 721.848C136.254 721.91 136.255 721.974 136.269 722.036C136.282 722.098 136.308 722.157 136.344 722.209V722.209Z" fill="#E6663C"/>
<path d="M107.446 648.217C107.544 648.157 107.615 648.062 107.643 647.95C107.672 647.839 107.655 647.721 107.597 647.622L106.387 645.864C106.315 645.774 106.211 645.716 106.097 645.703C105.983 645.689 105.868 645.721 105.778 645.792L103.702 647.22C103.603 647.279 103.532 647.374 103.504 647.486C103.476 647.598 103.493 647.716 103.552 647.815L104.763 649.576C104.835 649.666 104.939 649.724 105.053 649.738C105.167 649.751 105.282 649.719 105.373 649.648L107.446 648.217Z" fill="#E6663C"/>
<path d="M109.711 651.51C109.809 651.45 109.88 651.354 109.908 651.243C109.936 651.131 109.92 651.014 109.862 650.914L108.652 649.156C108.581 649.066 108.476 649.008 108.362 648.994C108.248 648.981 108.133 649.013 108.042 649.084L105.967 650.512C105.868 650.571 105.797 650.667 105.769 650.778C105.74 650.89 105.757 651.008 105.816 651.107L107.02 652.857C107.092 652.947 107.196 653.006 107.31 653.019C107.424 653.033 107.539 653 107.63 652.929L109.711 651.51Z" fill="#E6663C"/>
<path d="M111.976 654.798C112.074 654.739 112.146 654.643 112.174 654.531C112.202 654.42 112.185 654.301 112.126 654.202L110.917 652.444C110.845 652.355 110.74 652.297 110.626 652.284C110.512 652.27 110.398 652.302 110.307 652.372L108.231 653.8C108.133 653.859 108.061 653.955 108.033 654.067C108.005 654.178 108.022 654.296 108.081 654.395L109.291 656.153C109.362 656.244 109.466 656.302 109.581 656.316C109.695 656.329 109.81 656.297 109.9 656.226L111.976 654.798Z" fill="#E6663C"/>
<path d="M114.24 658.091C114.338 658.031 114.409 657.935 114.437 657.824C114.465 657.712 114.449 657.595 114.391 657.495L113.181 655.737C113.109 655.648 113.005 655.59 112.891 655.576C112.777 655.563 112.662 655.595 112.572 655.665L110.496 657.093C110.397 657.152 110.326 657.248 110.298 657.36C110.27 657.471 110.287 657.589 110.346 657.688L111.555 659.446C111.627 659.537 111.731 659.595 111.845 659.608C111.959 659.622 112.074 659.59 112.165 659.519L114.24 658.091Z" fill="#E6663C"/>
<path d="M87.2708 660.885C87.0603 661.03 86.8569 661.098 86.8174 661.04L86.4279 660.474C86.3865 660.414 86.5241 660.251 86.7347 660.106L88.8074 658.68C89.018 658.535 89.2195 658.465 89.2609 658.525L89.6503 659.091C89.6898 659.149 89.5542 659.314 89.3436 659.459L87.2708 660.885Z" fill="#E6663C"/>
<path d="M89.5355 664.179C89.3249 664.324 89.1215 664.391 89.0801 664.331L88.6926 663.768C88.6512 663.708 88.7887 663.544 88.9993 663.4L91.072 661.973C91.2826 661.829 91.4841 661.758 91.5255 661.819L91.9131 662.382C91.9545 662.442 91.8188 662.608 91.6082 662.753L89.5355 664.179Z" fill="#E6663C"/>
<path d="M91.7992 667.467C91.5886 667.612 91.3871 667.682 91.3457 667.622L90.9581 667.059C90.9167 666.999 91.0524 666.833 91.263 666.688L93.3357 665.262C93.5463 665.117 93.7497 665.05 93.7911 665.11L94.1786 665.673C94.22 665.733 94.0825 665.896 93.8719 666.041L91.7992 667.467Z" fill="#E6663C"/>
<path d="M94.0648 670.759C93.8542 670.904 93.6527 670.974 93.6113 670.914L93.2219 670.348C93.1824 670.291 93.318 670.125 93.5286 669.98L95.6013 668.554C95.8119 668.409 96.0153 668.342 96.0548 668.399L96.4443 668.965C96.4857 669.025 96.3481 669.188 96.1375 669.333L94.0648 670.759Z" fill="#E6663C"/>
<path d="M85.827 663.091C85.7365 663.162 85.6216 663.195 85.5073 663.181C85.393 663.168 85.2888 663.109 85.2174 663.019L84.0076 661.261C83.9489 661.162 83.9317 661.044 83.9599 660.932C83.9882 660.821 84.0594 660.725 84.1582 660.666L86.2309 659.24C86.3217 659.168 86.4369 659.136 86.5516 659.149C86.6662 659.162 86.7711 659.22 86.8433 659.31L88.0549 661.071C88.1132 661.171 88.1297 661.289 88.101 661.401C88.0723 661.513 88.0007 661.609 87.9016 661.668L85.827 663.091Z" fill="#E6663C"/>
<path d="M88.0907 666.384C88.0002 666.455 87.8852 666.487 87.771 666.474C87.6567 666.46 87.5524 666.402 87.481 666.312L86.2713 664.553C86.2125 664.454 86.1954 664.336 86.2236 664.225C86.2518 664.113 86.3231 664.017 86.4218 663.958L88.4946 662.532C88.5854 662.461 88.7006 662.428 88.8152 662.441C88.9299 662.455 89.0347 662.512 89.107 662.602L90.3111 664.352C90.3693 664.452 90.3859 664.571 90.3572 664.683C90.3285 664.794 90.2568 664.89 90.1578 664.95L88.0907 666.384Z" fill="#E6663C"/>
<path d="M90.3533 669.675C90.2629 669.746 90.1479 669.778 90.0336 669.765C89.9194 669.751 89.8151 669.693 89.7437 669.603L88.534 667.844C88.4752 667.745 88.4581 667.627 88.4863 667.516C88.5145 667.404 88.5858 667.308 88.6845 667.249L90.7573 665.823C90.8481 665.752 90.9633 665.719 91.0779 665.732C91.1926 665.746 91.2974 665.803 91.3697 665.893L92.5794 667.652C92.6376 667.751 92.6542 667.87 92.6255 667.982C92.5968 668.094 92.5251 668.189 92.4261 668.249L90.3533 669.675Z" fill="#E6663C"/>
<path d="M92.619 672.967C92.5285 673.038 92.4135 673.071 92.2993 673.057C92.185 673.044 92.0808 672.985 92.0094 672.895L90.7996 671.137C90.7409 671.038 90.7237 670.92 90.7519 670.808C90.7802 670.697 90.8514 670.601 90.9502 670.542L93.0229 669.116C93.1137 669.044 93.2289 669.012 93.3435 669.025C93.4582 669.038 93.5631 669.096 93.6353 669.186L94.845 670.944C94.9033 671.044 94.9198 671.162 94.8911 671.274C94.8624 671.386 94.7908 671.482 94.6917 671.541L92.619 672.967Z" fill="#E6663C"/>
<path d="M108 666.184L108.404 665.906L179.64 769.443L179.235 769.721L108 666.184Z" fill="#ED7C59"/>
<path d="M107.101 666.802L107.506 666.523L178.741 770.06L178.337 770.339L107.101 666.802Z" fill="#ED7C59"/>
<path d="M106.201 667.422L106.605 667.144L177.841 770.68L177.436 770.959L106.201 667.422Z" fill="#ED7C59"/>
<path d="M105.299 668.042L105.704 667.764L176.94 771.301L176.535 771.579L105.299 668.042Z" fill="#ED7C59"/>
<path d="M104.431 668.64L104.836 668.361L176.072 771.898L175.667 772.177L104.431 668.64Z" fill="#ED7C59"/>
<path d="M103.532 669.257L103.937 668.979L175.172 772.516L174.767 772.794L103.532 669.257Z" fill="#ED7C59"/>
<path d="M102.632 669.877L103.037 669.599L174.273 773.135L173.868 773.414L102.632 669.877Z" fill="#ED7C59"/>
<path d="M101.733 670.496L102.138 670.218L173.373 773.755L172.969 774.033L101.733 670.496Z" fill="#ED7C59"/>
<g style="mix-blend-mode:multiply" opacity="0.3">
<path d="M142.94 782.752C138.588 776.426 136.634 768.757 137.429 761.121C137.26 754.867 134.006 751.461 131.859 749.869C128.69 748.426 125.971 746.151 123.991 743.288C117.782 734.264 120.407 721.419 129.58 712.722L104.955 676.539C104.932 676.517 104.91 676.495 104.889 676.471C104.874 676.444 104.861 676.414 104.853 676.383L102.41 672.798C102.354 672.763 102.305 672.717 102.268 672.662C102.23 672.606 102.205 672.543 102.193 672.476L101.118 670.915L100.246 671.515C99.2043 672.232 97.6971 671.851 96.8805 670.664L96.0207 669.414L94.5086 670.455L94.8453 670.944C94.9036 671.044 94.9201 671.162 94.8914 671.274C94.8627 671.386 94.7911 671.482 94.692 671.541L92.6193 672.967C92.5288 673.038 92.4138 673.071 92.2996 673.057C92.1853 673.044 92.081 672.985 92.0096 672.895L90.7999 671.137C90.7411 671.038 90.724 670.92 90.7522 670.808C90.7804 670.697 90.8517 670.601 90.9505 670.542L93.0232 669.116C93.114 669.044 93.2292 669.012 93.3438 669.025C93.4585 669.038 93.5633 669.096 93.6356 669.186L93.9724 669.675L95.4845 668.635L93.7555 666.122L92.2433 667.162L92.5801 667.652C92.6383 667.751 92.6549 667.87 92.6262 667.982C92.5975 668.094 92.5258 668.19 92.4268 668.249L90.354 669.675C90.2636 669.746 90.1486 669.778 90.0343 669.765C89.9201 669.751 89.8158 669.693 89.7444 669.603L88.5347 667.845C88.4759 667.746 88.4588 667.627 88.487 667.516C88.5152 667.404 88.5865 667.309 88.6852 667.249L90.758 665.823C90.8488 665.752 90.964 665.719 91.0786 665.733C91.1933 665.746 91.2981 665.804 91.3704 665.894L91.7071 666.383L93.2193 665.343L91.4922 662.832L89.98 663.873L90.3111 664.354C90.3694 664.454 90.3859 664.572 90.3572 664.684C90.3285 664.796 90.2569 664.892 90.1578 664.951L88.0851 666.377C87.9946 666.448 87.8796 666.481 87.7654 666.467C87.6511 666.454 87.5469 666.395 87.4755 666.305L86.2714 664.555C86.2126 664.456 86.1955 664.338 86.2237 664.226C86.2519 664.115 86.3232 664.019 86.4219 663.96L88.4947 662.534C88.5854 662.462 88.7006 662.43 88.8153 662.443C88.93 662.456 89.0348 662.514 89.107 662.604L89.4438 663.093L90.956 662.053L89.227 659.54L87.7148 660.58L88.0535 661.073C88.1117 661.172 88.1282 661.291 88.0995 661.403C88.0708 661.514 87.9992 661.61 87.9002 661.67L85.8274 663.096C85.7369 663.167 85.622 663.199 85.5077 663.186C85.3934 663.172 85.2892 663.114 85.2178 663.024L84.008 661.265C83.9493 661.166 83.9321 661.048 83.9604 660.937C83.9886 660.825 84.0599 660.729 84.1586 660.67L86.2314 659.244C86.3221 659.173 86.4373 659.14 86.552 659.153C86.6666 659.166 86.7715 659.224 86.8437 659.314L87.1805 659.804L88.7009 658.758C88.0276 657.609 88.2331 656.175 89.223 655.494L94.1943 652.073L189.525 790.631L189.375 790.734C174.029 801.293 153.239 797.72 142.94 782.752ZM94.9511 656.786C94.8477 656.619 94.7115 656.475 94.5507 656.362C94.3899 656.25 94.208 656.171 94.0158 656.131C93.8237 656.09 93.6253 656.09 93.4329 656.128C93.2404 656.167 93.0577 656.244 92.896 656.355C92.7342 656.467 92.5968 656.61 92.4919 656.776C92.387 656.941 92.317 657.127 92.2859 657.321C92.2549 657.515 92.2635 657.713 92.3113 657.903C92.359 658.094 92.445 658.272 92.5638 658.429L98.8289 667.535C98.9323 667.701 99.0686 667.846 99.2293 667.958C99.3901 668.071 99.5721 668.15 99.7642 668.19C99.9564 668.23 100.155 668.231 100.347 668.193C100.54 668.154 100.722 668.077 100.884 667.965C101.046 667.854 101.183 667.711 101.288 667.545C101.393 667.379 101.463 667.194 101.494 667C101.525 666.806 101.517 666.608 101.469 666.418C101.421 666.227 101.335 666.048 101.216 665.892L94.9511 656.786Z" fill="#DA4B34"/>
</g>
<path d="M89.2215 655.489L99.1669 648.647C100.209 647.93 101.716 648.311 102.532 649.498L110.6 661.224C111.416 662.41 111.234 663.954 110.192 664.671L100.252 671.51C99.2101 672.227 97.7029 671.846 96.8864 670.659L88.8189 658.933C87.9969 657.75 88.1796 656.206 89.2215 655.489ZM104.495 663.635C104.713 663.952 105.048 664.169 105.427 664.239C105.805 664.309 106.195 664.226 106.512 664.008C106.829 663.79 107.047 663.455 107.117 663.076C107.186 662.698 107.103 662.307 106.885 661.991L100.62 652.885C100.402 652.568 100.067 652.35 99.6887 652.28C99.3104 652.211 98.9199 652.294 98.6029 652.512C98.286 652.73 98.0687 653.065 97.9988 653.443C97.9289 653.821 98.0121 654.212 98.2301 654.529L104.495 663.635ZM98.8348 667.529C98.9382 667.696 99.0744 667.84 99.2352 667.953C99.3959 668.066 99.5779 668.145 99.77 668.185C99.9622 668.225 100.161 668.226 100.353 668.187C100.545 668.149 100.728 668.072 100.89 667.96C101.052 667.849 101.189 667.706 101.294 667.54C101.399 667.374 101.469 667.189 101.5 666.995C101.531 666.801 101.522 666.603 101.475 666.412C101.427 666.222 101.341 666.043 101.222 665.887L94.9569 656.781C94.8535 656.614 94.7173 656.47 94.5565 656.357C94.3958 656.245 94.2138 656.166 94.0216 656.125C93.8295 656.085 93.6312 656.084 93.4387 656.123C93.2462 656.162 93.0635 656.239 92.9018 656.35C92.7401 656.461 92.6026 656.604 92.4977 656.77C92.3929 656.936 92.3228 657.122 92.2917 657.316C92.2607 657.51 92.2693 657.708 92.3171 657.898C92.3649 658.089 92.4508 658.267 92.5697 658.423L98.8348 667.529Z" fill="#E6663C"/>
<path d="M137.429 761.121C137.26 754.867 134.006 751.461 131.858 749.869C128.69 748.426 125.971 746.152 123.991 743.288C116.975 733.091 121.24 717.981 133.518 709.533C145.796 701.086 161.433 702.503 168.448 712.7C169.986 714.94 171.026 717.483 171.497 720.159V720.159L171.509 720.175C171.59 720.639 171.656 721.109 171.707 721.582C172.255 724.194 174.314 729.699 181.987 732.132C188.716 734.327 194.533 738.679 198.54 744.514C208.839 759.482 204.744 780.176 189.398 790.734C174.052 801.293 153.262 797.72 142.964 782.751C138.604 776.429 136.641 768.76 137.429 761.121V761.121Z" fill="#E6663C"/>
<g style="mix-blend-mode:multiply" opacity="0.5">
<path d="M143.001 783.316C138.649 776.991 136.695 769.322 137.489 761.686C137.32 755.432 134.067 752.026 131.919 750.433C128.75 748.991 126.032 746.716 124.051 743.853C117.843 734.829 120.467 721.983 129.641 713.287L105.016 677.103C104.993 677.082 104.97 677.06 104.95 677.036C104.934 677.008 104.922 676.979 104.913 676.948L102.471 673.363C102.414 673.328 102.366 673.282 102.329 673.227C102.291 673.171 102.265 673.108 102.253 673.041L101.179 671.48L100.307 672.08C99.2648 672.797 97.7576 672.416 96.9411 671.229L96.0813 669.979L94.5691 671.02L94.9059 671.509C94.9641 671.609 94.9807 671.727 94.9519 671.839C94.9232 671.951 94.8516 672.047 94.7526 672.106L92.6798 673.532C92.5893 673.603 92.4744 673.636 92.3601 673.622C92.2458 673.609 92.1416 673.55 92.0702 673.46L90.8604 671.702C90.8017 671.603 90.7845 671.485 90.8128 671.373C90.841 671.262 90.9123 671.166 91.011 671.107L93.0838 669.681C93.1745 669.609 93.2897 669.577 93.4044 669.59C93.519 669.603 93.6239 669.661 93.6961 669.751L94.0329 670.24L95.5451 669.2L93.8161 666.687L92.3039 667.727L92.6407 668.217C92.6989 668.316 92.7154 668.435 92.6867 668.547C92.658 668.659 92.5864 668.755 92.4874 668.814L90.4146 670.24C90.3241 670.311 90.2092 670.343 90.0949 670.33C89.9806 670.316 89.8764 670.258 89.805 670.168L88.5952 668.41C88.5365 668.311 88.5193 668.192 88.5476 668.081C88.5758 667.969 88.6471 667.873 88.7458 667.814L90.8186 666.388C90.9093 666.317 91.0245 666.284 91.1392 666.298C91.2538 666.311 91.3587 666.369 91.4309 666.459L91.7677 666.948L93.2799 665.908L91.5527 663.397L90.0406 664.438L90.3717 664.919C90.4299 665.019 90.4465 665.137 90.4178 665.249C90.3891 665.361 90.3174 665.457 90.2184 665.516L88.1456 666.942C88.0551 667.013 87.9402 667.046 87.8259 667.032C87.7117 667.018 87.6074 666.96 87.536 666.87L86.3319 665.12C86.2732 665.021 86.256 664.903 86.2842 664.791C86.3125 664.68 86.3837 664.584 86.4825 664.525L88.5552 663.099C88.646 663.027 88.7612 662.995 88.8758 663.008C88.9905 663.021 89.0953 663.079 89.1676 663.169L89.5044 663.658L91.0165 662.618L89.2875 660.105L87.7754 661.145L88.114 661.638C88.1722 661.737 88.1888 661.856 88.1601 661.968C88.1314 662.079 88.0597 662.175 87.9607 662.235L85.8879 663.661C85.7975 663.732 85.6825 663.764 85.5682 663.751C85.454 663.737 85.3497 663.679 85.2783 663.589L84.0686 661.83C84.0098 661.731 83.9927 661.613 84.0209 661.502C84.0491 661.39 84.1204 661.294 84.2191 661.235L86.2919 659.809C86.3826 659.738 86.4979 659.705 86.6125 659.718C86.7272 659.731 86.832 659.789 86.9043 659.879L87.241 660.369L88.7614 659.323C88.0882 658.174 88.2936 656.74 89.2835 656.059L94.2549 652.638L189.586 791.196L189.435 791.299C174.089 801.858 153.299 798.285 143.001 783.316ZM95.0116 657.351C94.9082 657.184 94.772 657.04 94.6112 656.927C94.4505 656.815 94.2685 656.736 94.0764 656.696C93.8842 656.655 93.6859 656.654 93.4934 656.693C93.3009 656.732 93.1183 656.809 92.9565 656.92C92.7948 657.032 92.6573 657.174 92.5525 657.34C92.4476 657.506 92.3775 657.692 92.3465 657.886C92.3154 658.08 92.324 658.278 92.3718 658.468C92.4196 658.659 92.5055 658.837 92.6244 658.994L98.8895 668.1C98.9929 668.266 99.1291 668.411 99.2899 668.523C99.4506 668.636 99.6326 668.715 99.8248 668.755C100.017 668.795 100.215 668.796 100.408 668.758C100.6 668.719 100.783 668.642 100.945 668.53C101.106 668.419 101.244 668.276 101.349 668.11C101.454 667.944 101.524 667.759 101.555 667.565C101.586 667.371 101.577 667.173 101.529 666.982C101.482 666.792 101.396 666.613 101.277 666.457L95.0116 657.351Z" fill="#DA4B34"/>
</g>
<path d="M161.06 727.178C159.636 725.109 157.631 723.507 155.298 722.577C152.965 721.647 150.408 721.43 147.951 721.953C145.494 722.476 143.248 723.716 141.496 725.515C139.744 727.315 138.565 729.594 138.108 732.064C137.651 734.534 137.937 737.084 138.929 739.392C139.922 741.699 141.576 743.66 143.683 745.027C145.791 746.395 148.256 747.106 150.768 747.072C153.279 747.038 155.724 746.26 157.794 744.836C159.168 743.891 160.342 742.685 161.25 741.286C162.158 739.887 162.781 738.323 163.084 736.684C163.388 735.044 163.365 733.361 163.017 731.73C162.67 730.099 162.005 728.552 161.06 727.178V727.178Z" fill="#ED7C59"/>
<path d="M158.414 728.998C157.351 727.452 155.853 726.257 154.11 725.562C152.367 724.868 150.457 724.706 148.622 725.097C146.787 725.488 145.109 726.414 143.801 727.759C142.492 729.103 141.612 730.806 141.271 732.651C140.93 734.496 141.143 736.4 141.885 738.124C142.626 739.847 143.862 741.312 145.436 742.333C147.01 743.354 148.852 743.886 150.728 743.86C152.604 743.835 154.43 743.254 155.976 742.19C158.049 740.764 159.47 738.573 159.927 736.099C160.385 733.625 159.84 731.071 158.414 728.998V728.998Z" fill="#E6663C"/>
<path d="M162.562 776.7L185.931 760.622L189.244 765.437L165.875 781.516L162.562 776.7Z" fill="#E6663C"/>
<path d="M166.537 777.515L185.194 764.678L186.073 765.955L167.415 778.792L166.537 777.515Z" fill="#E6663C"/>
<path d="M143.401 723.917L103.975 666.612L107.915 663.901L148.283 721.871C148.283 721.871 146.239 722.202 143.401 723.917Z" fill="#E6663C"/>
<path d="M143.402 723.917L103.976 666.612L100.035 669.323L139.78 727.722C139.78 727.722 140.787 725.954 143.402 723.917Z" fill="#E6663C"/>
<path d="M104.868 648.778C105.079 648.633 105.214 648.467 105.175 648.41L104.785 647.843C104.744 647.783 104.542 647.853 104.332 647.998L102.259 649.424C102.048 649.569 101.908 649.734 101.95 649.794L102.339 650.361C102.379 650.418 102.585 650.349 102.795 650.204L104.868 648.778Z" fill="#E6663C"/>
<path d="M107.133 652.071C107.343 651.926 107.479 651.76 107.438 651.7L107.05 651.137C107.009 651.077 106.807 651.147 106.596 651.292L104.524 652.718C104.313 652.863 104.173 653.028 104.214 653.088L104.602 653.651C104.643 653.711 104.849 653.642 105.06 653.497L107.133 652.071Z" fill="#E6663C"/>
<path d="M109.396 655.361C109.607 655.216 109.744 655.053 109.703 654.993L109.315 654.429C109.274 654.369 109.071 654.436 108.86 654.581L106.787 656.007C106.577 656.152 106.438 656.32 106.48 656.38L106.867 656.944C106.909 657.004 107.113 656.932 107.324 656.787L109.396 655.361Z" fill="#E6663C"/>
<path d="M111.66 658.654C111.871 658.509 112.008 658.346 111.967 658.286L111.577 657.72C111.538 657.663 111.334 657.73 111.124 657.875L109.051 659.301C108.84 659.446 108.702 659.614 108.742 659.671L109.131 660.237C109.172 660.297 109.377 660.225 109.587 660.08L111.66 658.654Z" fill="#E6663C"/>
<path d="M102.251 672.658C102.323 672.764 102.434 672.836 102.56 672.859C102.685 672.882 102.815 672.854 102.92 672.782L110.106 667.838C110.159 667.802 110.204 667.756 110.239 667.703C110.274 667.65 110.297 667.591 110.309 667.528C110.321 667.466 110.32 667.402 110.307 667.34C110.294 667.278 110.269 667.219 110.233 667.167V667.167C110.197 667.114 110.151 667.07 110.097 667.035C110.044 667.001 109.985 666.977 109.922 666.966C109.86 666.954 109.796 666.956 109.734 666.969C109.672 666.983 109.613 667.008 109.561 667.045L102.374 671.989C102.269 672.061 102.197 672.173 102.174 672.298C102.151 672.424 102.178 672.553 102.251 672.658V672.658Z" fill="#E6663C"/>
<path d="M104.886 676.485C104.922 676.537 104.968 676.582 105.021 676.617C105.074 676.652 105.133 676.676 105.196 676.687C105.258 676.699 105.322 676.698 105.384 676.685C105.446 676.672 105.505 676.647 105.558 676.611L112.744 671.667C112.85 671.594 112.922 671.482 112.946 671.355C112.969 671.229 112.941 671.099 112.869 670.993V670.993C112.833 670.94 112.787 670.896 112.733 670.861C112.68 670.827 112.62 670.803 112.558 670.792C112.495 670.781 112.431 670.782 112.369 670.795C112.307 670.809 112.249 670.835 112.196 670.871L105.01 675.815C104.905 675.888 104.833 675.999 104.81 676.124C104.787 676.25 104.814 676.379 104.886 676.485V676.485Z" fill="#E6663C"/>
<path d="M107.503 680.289C107.575 680.394 107.686 680.466 107.812 680.49C107.937 680.513 108.067 680.485 108.172 680.413L115.358 675.469C115.411 675.433 115.456 675.387 115.491 675.334C115.525 675.281 115.549 675.222 115.561 675.159C115.573 675.097 115.572 675.033 115.559 674.971C115.546 674.909 115.521 674.85 115.485 674.797V674.797C115.449 674.745 115.403 674.7 115.349 674.666C115.296 674.632 115.237 674.608 115.174 674.597C115.112 674.585 115.048 674.586 114.985 674.6C114.923 674.614 114.865 674.639 114.813 674.676L107.626 679.62C107.521 679.692 107.449 679.803 107.426 679.929C107.403 680.054 107.43 680.184 107.503 680.289V680.289Z" fill="#E6663C"/>
<path d="M110.126 684.101C110.198 684.206 110.309 684.278 110.435 684.301C110.56 684.325 110.69 684.297 110.795 684.225L117.981 679.28C118.034 679.245 118.079 679.199 118.114 679.146C118.148 679.093 118.172 679.033 118.184 678.971C118.196 678.909 118.195 678.845 118.182 678.783C118.169 678.72 118.144 678.661 118.108 678.609V678.609C118.035 678.503 117.923 678.431 117.797 678.407C117.67 678.384 117.54 678.412 117.434 678.485L110.247 683.429C110.195 683.465 110.151 683.511 110.116 683.564C110.082 683.618 110.058 683.677 110.047 683.74C110.035 683.802 110.037 683.866 110.05 683.928C110.064 683.99 110.089 684.049 110.126 684.101V684.101Z" fill="#E6663C"/>
<path d="M112.746 687.911C112.818 688.017 112.93 688.089 113.055 688.113C113.181 688.137 113.311 688.11 113.417 688.038L120.603 683.093C120.709 683.021 120.782 682.909 120.805 682.782C120.829 682.656 120.801 682.525 120.728 682.419V682.419C120.692 682.367 120.646 682.322 120.593 682.288C120.539 682.254 120.48 682.23 120.417 682.219C120.355 682.207 120.291 682.209 120.229 682.222C120.167 682.236 120.108 682.261 120.056 682.298L112.87 687.242C112.764 687.314 112.692 687.425 112.669 687.551C112.646 687.677 112.673 687.806 112.746 687.911V687.911Z" fill="#E6663C"/>
<path d="M115.37 691.721C115.442 691.826 115.553 691.898 115.679 691.921C115.804 691.945 115.934 691.917 116.039 691.845L123.225 686.9C123.278 686.865 123.323 686.819 123.358 686.766C123.393 686.713 123.417 686.653 123.428 686.591C123.44 686.529 123.439 686.464 123.426 686.402C123.413 686.34 123.388 686.281 123.352 686.229V686.229C123.316 686.177 123.27 686.132 123.217 686.098C123.163 686.063 123.104 686.04 123.041 686.028C122.979 686.017 122.915 686.018 122.853 686.032C122.791 686.045 122.732 686.071 122.68 686.107L115.494 691.052C115.388 691.124 115.316 691.235 115.293 691.361C115.27 691.486 115.298 691.616 115.37 691.721V691.721Z" fill="#E6663C"/>
<path d="M117.989 695.533C118.025 695.585 118.07 695.63 118.123 695.665C118.176 695.7 118.236 695.724 118.298 695.736C118.361 695.748 118.425 695.747 118.487 695.734C118.549 695.721 118.608 695.695 118.66 695.659L125.847 690.715C125.952 690.642 126.025 690.53 126.048 690.404C126.072 690.277 126.044 690.147 125.971 690.041C125.935 689.989 125.889 689.944 125.836 689.91C125.782 689.875 125.723 689.852 125.66 689.84C125.598 689.829 125.534 689.83 125.472 689.844C125.41 689.857 125.351 689.883 125.299 689.919L118.113 694.864C118.008 694.936 117.935 695.047 117.912 695.173C117.889 695.298 117.917 695.428 117.989 695.533V695.533Z" fill="#E6663C"/>
<path d="M120.612 699.343C120.684 699.448 120.796 699.52 120.921 699.543C121.047 699.567 121.176 699.539 121.281 699.467L128.468 694.522C128.52 694.487 128.565 694.441 128.6 694.388C128.635 694.335 128.659 694.275 128.671 694.213C128.682 694.151 128.682 694.087 128.668 694.024C128.655 693.962 128.63 693.903 128.594 693.851V693.851C128.558 693.799 128.512 693.754 128.459 693.72C128.405 693.685 128.346 693.662 128.283 693.65C128.221 693.639 128.157 693.64 128.095 693.654C128.033 693.667 127.974 693.693 127.922 693.729L120.736 698.674C120.631 698.746 120.558 698.857 120.535 698.983C120.512 699.108 120.54 699.238 120.612 699.343V699.343Z" fill="#E6663C"/>
<path d="M123.236 703.154C123.308 703.259 123.42 703.331 123.545 703.354C123.671 703.377 123.8 703.35 123.905 703.277L131.092 698.333C131.144 698.297 131.189 698.252 131.224 698.199C131.259 698.146 131.283 698.086 131.295 698.024C131.306 697.961 131.306 697.897 131.292 697.835C131.279 697.773 131.254 697.714 131.218 697.662V697.662C131.145 697.556 131.033 697.483 130.907 697.46C130.78 697.437 130.65 697.465 130.544 697.537L123.358 702.482C123.306 702.518 123.261 702.564 123.226 702.617C123.192 702.67 123.168 702.73 123.157 702.792C123.146 702.855 123.147 702.919 123.16 702.981C123.174 703.043 123.2 703.102 123.236 703.154V703.154Z" fill="#E6663C"/>
<path d="M125.856 706.964C125.929 707.069 126.04 707.142 126.166 707.166C126.291 707.189 126.421 707.162 126.527 707.09L133.714 702.146C133.82 702.073 133.892 701.961 133.916 701.835C133.939 701.709 133.911 701.578 133.838 701.472V701.472C133.802 701.42 133.756 701.375 133.703 701.341C133.65 701.306 133.59 701.283 133.528 701.271C133.465 701.26 133.401 701.261 133.339 701.275C133.277 701.288 133.218 701.314 133.166 701.35L125.98 706.295C125.875 706.367 125.803 706.478 125.779 706.604C125.756 706.729 125.784 706.859 125.856 706.964V706.964Z" fill="#E6663C"/>
<path d="M128.478 710.777C128.551 710.883 128.662 710.955 128.787 710.978C128.913 711.001 129.042 710.974 129.148 710.901L136.334 705.957C136.386 705.921 136.431 705.876 136.466 705.822C136.501 705.769 136.525 705.71 136.537 705.648C136.549 705.585 136.548 705.521 136.535 705.459C136.522 705.397 136.496 705.338 136.46 705.286V705.286C136.424 705.233 136.378 705.189 136.325 705.154C136.272 705.12 136.212 705.096 136.15 705.085C136.087 705.074 136.023 705.075 135.961 705.088C135.899 705.102 135.84 705.128 135.788 705.164L128.602 710.108C128.497 710.181 128.425 710.292 128.402 710.417C128.378 710.543 128.406 710.672 128.478 710.777V710.777Z" fill="#E6663C"/>
<path d="M131.099 714.585C131.135 714.638 131.181 714.683 131.234 714.717C131.287 714.752 131.346 714.776 131.409 714.788C131.471 714.8 131.535 714.799 131.597 714.786C131.659 714.773 131.718 714.748 131.771 714.712L138.957 709.767C139.063 709.694 139.135 709.582 139.159 709.456C139.182 709.33 139.154 709.199 139.081 709.093C139.045 709.041 138.999 708.996 138.946 708.962C138.893 708.927 138.833 708.904 138.771 708.893C138.708 708.881 138.644 708.882 138.582 708.896C138.52 708.909 138.461 708.935 138.409 708.971L131.223 713.916C131.118 713.988 131.046 714.099 131.023 714.225C130.999 714.35 131.027 714.48 131.099 714.585V714.585Z" fill="#E6663C"/>
<path d="M133.723 718.396C133.796 718.501 133.907 718.573 134.032 718.596C134.158 718.619 134.288 718.592 134.393 718.519L141.579 713.575C141.632 713.539 141.677 713.494 141.711 713.441C141.746 713.388 141.77 713.328 141.782 713.266C141.794 713.203 141.793 713.139 141.78 713.077C141.767 713.015 141.741 712.956 141.705 712.904V712.904C141.669 712.852 141.623 712.807 141.57 712.772C141.517 712.738 141.457 712.714 141.395 712.703C141.332 712.692 141.268 712.693 141.206 712.706C141.144 712.72 141.085 712.746 141.033 712.782L133.847 717.726C133.742 717.799 133.67 717.91 133.647 718.035C133.623 718.161 133.651 718.29 133.723 718.396V718.396Z" fill="#E6663C"/>
<path d="M136.344 722.209C136.417 722.314 136.528 722.386 136.653 722.409C136.779 722.433 136.909 722.405 137.014 722.333L144.2 717.388C144.253 717.353 144.298 717.307 144.332 717.254C144.367 717.201 144.391 717.141 144.403 717.079C144.415 717.017 144.414 716.953 144.401 716.89C144.388 716.828 144.362 716.769 144.326 716.717V716.717C144.254 716.611 144.142 716.539 144.015 716.515C143.889 716.492 143.758 716.52 143.653 716.593L136.466 721.537C136.414 721.573 136.369 721.619 136.335 721.672C136.3 721.725 136.277 721.785 136.265 721.848C136.254 721.91 136.255 721.974 136.269 722.036C136.282 722.098 136.308 722.157 136.344 722.209V722.209Z" fill="#E6663C"/>
<path d="M107.446 648.217C107.544 648.157 107.615 648.062 107.643 647.95C107.672 647.839 107.655 647.721 107.597 647.622L106.387 645.864C106.315 645.774 106.211 645.716 106.097 645.703C105.983 645.689 105.868 645.721 105.778 645.792L103.702 647.22C103.603 647.279 103.532 647.374 103.504 647.486C103.476 647.598 103.493 647.716 103.552 647.815L104.763 649.576C104.835 649.666 104.939 649.724 105.053 649.738C105.167 649.751 105.282 649.719 105.373 649.648L107.446 648.217Z" fill="#E6663C"/>
<path d="M109.711 651.51C109.809 651.45 109.88 651.354 109.908 651.243C109.936 651.131 109.92 651.014 109.862 650.914L108.652 649.156C108.581 649.066 108.476 649.008 108.362 648.994C108.248 648.981 108.133 649.013 108.042 649.084L105.967 650.512C105.868 650.571 105.797 650.667 105.769 650.778C105.74 650.89 105.757 651.008 105.816 651.107L107.02 652.857C107.092 652.947 107.196 653.006 107.31 653.019C107.424 653.033 107.539 653 107.63 652.929L109.711 651.51Z" fill="#E6663C"/>
<path d="M111.976 654.798C112.074 654.739 112.146 654.643 112.174 654.531C112.202 654.42 112.185 654.301 112.126 654.202L110.917 652.444C110.845 652.355 110.74 652.297 110.626 652.284C110.512 652.27 110.398 652.302 110.307 652.372L108.231 653.8C108.133 653.859 108.061 653.955 108.033 654.067C108.005 654.178 108.022 654.296 108.081 654.395L109.291 656.153C109.362 656.244 109.466 656.302 109.581 656.316C109.695 656.329 109.81 656.297 109.9 656.226L111.976 654.798Z" fill="#E6663C"/>
<path d="M114.24 658.091C114.338 658.031 114.409 657.935 114.437 657.824C114.465 657.712 114.449 657.595 114.391 657.495L113.181 655.737C113.109 655.648 113.005 655.59 112.891 655.576C112.777 655.563 112.662 655.595 112.572 655.665L110.496 657.093C110.397 657.152 110.326 657.248 110.298 657.36C110.27 657.471 110.287 657.589 110.346 657.688L111.555 659.446C111.627 659.537 111.731 659.595 111.845 659.608C111.959 659.622 112.074 659.59 112.165 659.519L114.24 658.091Z" fill="#E6663C"/>
<path d="M87.2708 660.885C87.0603 661.03 86.8569 661.098 86.8174 661.04L86.4279 660.474C86.3865 660.414 86.5241 660.251 86.7347 660.106L88.8074 658.68C89.018 658.535 89.2195 658.465 89.2609 658.525L89.6503 659.091C89.6898 659.149 89.5542 659.314 89.3436 659.459L87.2708 660.885Z" fill="#E6663C"/>
<path d="M89.5355 664.179C89.3249 664.324 89.1215 664.391 89.0801 664.331L88.6926 663.768C88.6512 663.708 88.7887 663.544 88.9993 663.4L91.072 661.973C91.2826 661.829 91.4841 661.758 91.5255 661.819L91.9131 662.382C91.9545 662.442 91.8188 662.608 91.6082 662.753L89.5355 664.179Z" fill="#E6663C"/>
<path d="M91.7992 667.467C91.5886 667.612 91.3871 667.682 91.3457 667.622L90.9581 667.059C90.9167 666.999 91.0524 666.833 91.263 666.688L93.3357 665.262C93.5463 665.117 93.7497 665.05 93.7911 665.11L94.1786 665.673C94.22 665.733 94.0825 665.896 93.8719 666.041L91.7992 667.467Z" fill="#E6663C"/>
<path d="M94.0648 670.759C93.8542 670.904 93.6527 670.974 93.6113 670.914L93.2219 670.348C93.1824 670.291 93.318 670.125 93.5286 669.98L95.6013 668.554C95.8119 668.409 96.0153 668.342 96.0548 668.399L96.4443 668.965C96.4857 669.025 96.3481 669.188 96.1375 669.333L94.0648 670.759Z" fill="#E6663C"/>
<path d="M85.827 663.091C85.7365 663.162 85.6216 663.195 85.5073 663.181C85.393 663.168 85.2888 663.109 85.2174 663.019L84.0076 661.261C83.9489 661.162 83.9317 661.044 83.9599 660.932C83.9882 660.821 84.0594 660.725 84.1582 660.666L86.2309 659.24C86.3217 659.168 86.4369 659.136 86.5516 659.149C86.6662 659.162 86.7711 659.22 86.8433 659.31L88.0549 661.071C88.1132 661.171 88.1297 661.289 88.101 661.401C88.0723 661.513 88.0007 661.609 87.9016 661.668L85.827 663.091Z" fill="#E6663C"/>
<path d="M88.0907 666.384C88.0002 666.455 87.8852 666.487 87.771 666.474C87.6567 666.46 87.5524 666.402 87.481 666.312L86.2713 664.553C86.2125 664.454 86.1954 664.336 86.2236 664.225C86.2518 664.113 86.3231 664.017 86.4218 663.958L88.4946 662.532C88.5854 662.461 88.7006 662.428 88.8152 662.441C88.9299 662.455 89.0347 662.512 89.107 662.602L90.3111 664.352C90.3693 664.452 90.3859 664.571 90.3572 664.683C90.3285 664.794 90.2568 664.89 90.1578 664.95L88.0907 666.384Z" fill="#E6663C"/>
<path d="M90.3533 669.675C90.2629 669.746 90.1479 669.778 90.0336 669.765C89.9194 669.751 89.8151 669.693 89.7437 669.603L88.534 667.844C88.4752 667.745 88.4581 667.627 88.4863 667.516C88.5145 667.404 88.5858 667.308 88.6845 667.249L90.7573 665.823C90.8481 665.752 90.9633 665.719 91.0779 665.732C91.1926 665.746 91.2974 665.803 91.3697 665.893L92.5794 667.652C92.6376 667.751 92.6542 667.87 92.6255 667.982C92.5968 668.094 92.5251 668.189 92.4261 668.249L90.3533 669.675Z" fill="#E6663C"/>
<path d="M92.619 672.967C92.5285 673.038 92.4135 673.071 92.2993 673.057C92.185 673.044 92.0808 672.985 92.0094 672.895L90.7996 671.137C90.7409 671.038 90.7237 670.92 90.7519 670.808C90.7802 670.697 90.8514 670.601 90.9502 670.542L93.0229 669.116C93.1137 669.044 93.2289 669.012 93.3435 669.025C93.4582 669.038 93.5631 669.096 93.6353 669.186L94.845 670.944C94.9033 671.044 94.9198 671.162 94.8911 671.274C94.8624 671.386 94.7908 671.482 94.6917 671.541L92.619 672.967Z" fill="#E6663C"/>
<path d="M108 666.184L108.404 665.906L179.64 769.443L179.235 769.721L108 666.184Z" fill="#ED7C59"/>
<path d="M107.101 666.802L107.506 666.523L178.741 770.06L178.337 770.339L107.101 666.802Z" fill="#ED7C59"/>
<path d="M106.201 667.422L106.605 667.144L177.841 770.68L177.436 770.959L106.201 667.422Z" fill="#ED7C59"/>
<path d="M105.299 668.042L105.704 667.764L176.94 771.301L176.535 771.579L105.299 668.042Z" fill="#ED7C59"/>
<path d="M104.431 668.64L104.836 668.361L176.072 771.898L175.667 772.177L104.431 668.64Z" fill="#ED7C59"/>
<path d="M103.532 669.257L103.937 668.979L175.172 772.516L174.767 772.794L103.532 669.257Z" fill="#ED7C59"/>
<path d="M102.632 669.877L103.037 669.599L174.273 773.135L173.868 773.414L102.632 669.877Z" fill="#ED7C59"/>
<path d="M101.733 670.496L102.138 670.218L173.373 773.755L172.969 774.033L101.733 670.496Z" fill="#ED7C59"/>
<g filter="url(#filter0_d_6278_168053)">
<path d="M74.4153 728.455C74.5346 730.093 72.8684 731.546 70.6862 731.713C68.505 731.872 66.6437 730.682 66.5162 729.042C66.4042 727.413 68.0713 725.952 70.2444 725.792C72.4348 725.626 74.2961 726.816 74.4153 728.455Z" fill="#E6663C"/>
<path d="M73.7527 729.678C73.7118 729.674 73.6718 729.661 73.6318 729.648C73.3528 729.55 73.2136 729.244 73.3119 728.965L81.8953 705.1C81.9936 704.821 82.2998 704.681 82.5788 704.779C82.8578 704.877 82.997 705.183 82.8987 705.463L74.3144 729.336C74.2299 729.567 73.9901 729.705 73.7527 729.678Z" fill="#E6663C"/>
<path d="M85.655 716.316C85.5568 716.305 85.4542 716.26 85.3707 716.193C85.1439 716.001 85.1159 715.667 85.3077 715.439C86.7835 713.7 85.4218 711.688 83.8997 709.774L83.6026 709.4C81.9991 707.327 81.7521 706.371 81.8476 705.245C81.8732 704.95 82.1304 704.73 82.426 704.755C82.4342 704.756 82.4342 704.756 82.4424 704.757C82.7288 704.79 82.9399 705.046 82.9154 705.333C82.8566 706.065 82.9325 706.778 84.448 708.749L84.7297 709.113C85.9691 710.672 88.2813 713.579 86.115 716.136C86 716.273 85.8269 716.336 85.655 716.316Z" fill="#E6663C"/>
<path d="M82.8395 724.383C82.7413 724.371 82.6386 724.327 82.5551 724.259C82.3283 724.067 82.3003 723.733 82.4921 723.506C83.9679 721.766 82.6063 719.754 81.0842 717.84L80.787 717.466C79.1836 715.393 78.9365 714.437 79.0321 713.311C79.0576 713.016 79.3149 712.796 79.6105 712.821C79.9371 712.792 80.1254 713.104 80.0998 713.399C80.041 714.131 80.1169 714.844 81.6334 716.807L81.9233 717.172C83.1627 718.731 85.4667 721.637 83.3095 724.187C83.1844 724.339 83.0114 724.402 82.8395 724.383Z" fill="#E6663C"/>
<path d="M81.4115 728.309C81.3133 728.297 81.2107 728.253 81.1272 728.185C80.9004 727.993 80.8724 727.659 81.0642 727.432C82.54 725.692 81.1792 723.672 79.649 721.757L79.3591 721.392C77.7566 719.311 77.5168 718.364 77.6041 717.237C77.6297 716.942 77.8869 716.722 78.1825 716.747C78.5054 716.751 78.6974 717.03 78.6719 717.325C78.6131 718.057 78.689 718.77 80.2045 720.742L80.4799 721.088C81.7275 722.647 84.0478 725.556 81.8725 728.12C81.7565 728.265 81.5834 728.328 81.4115 728.309Z" fill="#E6663C"/>
<path d="M84.3001 720.227C84.2019 720.216 84.0992 720.171 84.0157 720.104C83.7889 719.912 83.7609 719.577 83.9527 719.35C85.4285 717.61 84.0668 715.598 82.5448 713.684L82.2558 713.312C80.6523 711.239 80.4053 710.282 80.5008 709.157C80.5264 708.861 80.7836 708.642 81.0792 708.667C81.3977 708.637 81.5941 708.949 81.5686 709.245C81.5098 709.976 81.5857 710.69 83.1021 712.653L83.3839 713.017C84.6233 714.575 86.9354 717.483 84.7692 720.04C84.645 720.183 84.4719 720.247 84.3001 720.227Z" fill="#E6663C"/>
</g>
<g filter="url(#filter1_d_6278_168053)">
<path d="M1608.43 724.603C1610.84 726.505 1610.73 730.711 1608.19 734.025C1605.64 737.328 1601.64 738.471 1599.22 736.579C1596.83 734.678 1596.94 730.461 1599.48 727.169C1602.03 723.844 1606.03 722.701 1608.43 724.603Z" fill="#E6663C"/>
<path d="M1609.38 727.17C1609.33 727.221 1609.26 727.261 1609.19 727.301C1608.71 727.567 1608.12 727.377 1607.86 726.89L1585.95 684.965C1585.7 684.477 1585.89 683.875 1586.37 683.609C1586.85 683.342 1587.44 683.532 1587.7 684.02L1609.62 725.956C1609.83 726.364 1609.72 726.872 1609.38 727.17Z" fill="#E6663C"/>
<path d="M1606.18 693.75C1606.04 693.874 1605.85 693.962 1605.65 693.995C1605.1 694.074 1604.61 693.693 1604.54 693.136C1604.01 688.866 1599.55 688.256 1595.01 687.995L1594.13 687.945C1589.28 687.6 1587.65 686.744 1586.24 685.194C1585.86 684.786 1585.89 684.147 1586.29 683.762C1586.3 683.752 1586.3 683.752 1586.32 683.741C1586.72 683.378 1587.34 683.402 1587.7 683.799C1588.63 684.801 1589.7 685.592 1594.3 685.934L1595.15 685.994C1598.85 686.206 1605.73 686.601 1606.51 692.874C1606.55 693.208 1606.42 693.532 1606.18 693.75Z" fill="#E6663C"/>
<path d="M1613.66 707.746C1613.52 707.87 1613.33 707.959 1613.13 707.992C1612.58 708.071 1612.09 707.689 1612.02 707.133C1611.5 702.862 1607.03 702.252 1602.5 701.992L1601.61 701.941C1596.76 701.596 1595.14 700.741 1593.72 699.191C1593.35 698.783 1593.37 698.143 1593.77 697.758C1594.15 697.26 1594.81 697.387 1595.18 697.795C1596.11 698.798 1597.18 699.588 1601.77 699.918L1602.64 699.968C1606.33 700.18 1613.21 700.586 1613.98 706.837C1614.03 707.204 1613.9 707.528 1613.66 707.746Z" fill="#E6663C"/>
<path d="M1617.23 714.64C1617.09 714.764 1616.9 714.853 1616.7 714.886C1616.15 714.965 1615.66 714.583 1615.59 714.027C1615.06 709.756 1610.59 709.135 1606.04 708.884L1605.18 708.835C1600.32 708.478 1598.72 707.624 1597.29 706.084C1596.91 705.677 1596.94 705.037 1597.34 704.652C1597.75 704.201 1598.38 704.281 1598.75 704.689C1599.68 705.692 1600.75 706.482 1605.35 706.824L1606.17 706.871C1609.88 707.073 1616.78 707.458 1617.55 713.753C1617.6 714.098 1617.47 714.422 1617.23 714.64Z" fill="#E6663C"/>
<path d="M1609.82 700.52C1609.68 700.645 1609.49 700.733 1609.29 700.766C1608.74 700.845 1608.25 700.463 1608.18 699.907C1607.66 695.637 1603.19 695.027 1598.66 694.766L1597.78 694.705C1592.93 694.36 1591.31 693.505 1589.89 691.955C1589.52 691.547 1589.54 690.908 1589.95 690.522C1590.31 690.035 1590.98 690.151 1591.35 690.559C1592.28 691.562 1593.35 692.352 1597.95 692.683L1598.8 692.742C1602.49 692.955 1609.38 693.35 1610.15 699.623C1610.19 699.979 1610.06 700.302 1609.82 700.52Z" fill="#E6663C"/>
</g>
<g filter="url(#filter2_d_6278_168053)">
<path d="M1680.93 797.154C1680.64 801.039 1676.19 803.864 1671 803.483C1665.8 803.089 1661.85 799.626 1662.14 795.74C1662.45 791.867 1666.88 789.03 1672.06 789.411C1677.23 789.816 1681.22 793.268 1680.93 797.154Z" fill="#E6663C"/>
<path d="M1703.02 756.758L1699.88 755.075L1676.57 798.504L1679.72 800.187L1703.02 756.758Z" fill="#E6663C"/>
<path d="M1719.55 807.573C1719.26 811.459 1714.83 814.297 1709.64 813.915C1704.46 813.533 1700.47 810.082 1700.8 806.185C1701.09 802.299 1705.54 799.474 1710.72 799.856C1715.89 800.225 1719.84 803.688 1719.55 807.573Z" fill="#E6663C"/>
<path d="M1742.35 766.002L1739.21 764.319L1715.91 807.748L1719.05 809.431L1742.35 766.002Z" fill="#E6663C"/>
<path d="M1696.75 760.791L1739.2 771.943L1744.24 762.551L1702 751.003L1696.75 760.791Z" fill="#E6663C"/>
<path d="M1695.67 766.472L1696.6 763.018L1735.81 773.572L1734.88 777.027L1695.67 766.472Z" fill="#E6663C"/>
</g>
</g>
</g>
<path d="M175.333 191.36C175.218 191.212 175.055 191.11 174.872 191.072C174.689 191.033 174.498 191.061 174.333 191.15C173.265 191.67 172.1 191.96 170.913 192C167.983 192.19 164.733 191.49 161.793 191C157.793 190.27 154.173 194.38 153.973 198C153.733 202.35 157.023 205.1 160.973 205.82C168.973 207.28 176.973 207.34 183.723 202.82C183.817 202.755 183.896 202.671 183.955 202.574C184.014 202.477 184.053 202.368 184.068 202.255C184.083 202.142 184.074 202.028 184.042 201.918C184.011 201.809 183.956 201.707 183.883 201.62L175.333 191.36Z" fill="#F9D929"/>
<path d="M109.944 210.58L118.094 213.36C118.612 213.537 119.16 213.609 119.706 213.571C120.252 213.533 120.784 213.387 121.273 213.14C121.761 212.893 122.195 212.551 122.549 212.133C122.903 211.716 123.17 211.232 123.334 210.71L129.334 191.41C129.655 190.375 129.554 189.256 129.054 188.296C128.554 187.335 127.695 186.611 126.664 186.28L118.074 183.55C117.569 183.396 117.039 183.344 116.514 183.396C115.988 183.448 115.479 183.604 115.014 183.854C114.549 184.104 114.139 184.444 113.806 184.853C113.473 185.262 113.224 185.734 113.074 186.24L107.414 205.68C107.127 206.665 107.229 207.723 107.7 208.636C108.171 209.548 108.974 210.244 109.944 210.58V210.58Z" fill="#EF5B81"/>
<path d="M89.6535 215.87C86.7135 218.87 86.6535 223.98 87.4035 227.87C87.7835 229.87 90.6335 235.97 96.2435 237.55C101.853 239.13 111.084 236.55 111.084 236.55L110.884 238.65C109.754 245.25 114.593 251 122.303 252.26C130.013 253.52 142.173 243.26 142.173 243.26C144.173 241.57 146.253 240 148.173 238.16C153.115 233.25 157.422 227.74 160.993 221.76C162.313 219.59 163.554 217.38 164.694 215.12C165.291 213.571 166.014 212.072 166.854 210.64C168.264 208.72 170.594 209.25 172.624 209.43C175.417 209.573 178.209 209.105 180.803 208.06C186.463 205.94 193.864 201.29 193.404 194.3C193.334 193.3 192.834 192.8 193.624 191.97C194.279 191.28 194.727 190.42 194.916 189.488C195.106 188.556 195.03 187.589 194.696 186.698C194.362 185.808 193.784 185.029 193.029 184.451C192.273 183.873 191.371 183.519 190.423 183.43C190.653 182.889 190.709 182.29 190.581 181.716C190.454 181.142 190.151 180.623 189.714 180.23C188.824 179.461 187.781 178.892 186.654 178.56C193.414 172.06 198.464 163.71 196.344 153.94C195.849 151.651 194.882 149.49 193.504 147.596C192.127 145.702 190.369 144.116 188.344 142.94C188.104 142.82 187.494 138.67 187.284 138.11C186.65 136.428 185.832 134.821 184.844 133.32C182.938 130.431 180.624 127.834 177.974 125.61C177.684 125.35 177.374 125.1 177.074 124.85C166.444 116.29 150.984 112.4 138.074 117.69C134.797 119.018 131.796 120.944 129.224 123.37C128.824 123.75 126.893 126.51 126.423 126.55C126.423 126.55 117.824 127.21 114.164 137.29C109.754 149.45 115.454 155.12 115.454 155.12C117.274 165.95 121.923 172.39 121.923 172.39C121.923 172.39 109.924 171.46 101.794 178.05C93.6635 184.64 92.3835 190.76 92.3835 190.77C91.978 193.033 92.3295 195.367 93.3835 197.41C94.5002 199.491 96.2518 201.162 98.3835 202.18C101.794 203.91 103.904 203.55 102.914 208.18C102.879 208.418 102.801 208.649 102.684 208.86C102.335 209.275 101.855 209.557 101.324 209.66C97.4861 210.875 93.8746 212.713 90.6335 215.1C90.2894 215.334 89.962 215.591 89.6535 215.87V215.87Z" fill="white"/>
<path d="M95.504 216.46C93.9243 217.386 92.6458 218.749 91.8226 220.385C90.9994 222.021 90.6665 223.859 90.864 225.68C91.334 230.68 96.494 235.83 101.864 234.77C103.314 234.48 104.724 234.17 106.114 233.83C106.114 233.83 96.794 221.62 95.754 217.31" fill="#3AC2DF"/>
<path d="M162.013 185C162.013 185 166.343 187.6 166.113 192.06C165.883 196.52 164.863 206.84 157.663 221.26C150.463 235.68 123.103 220 123.103 220C123.103 220 109.923 213.86 114.603 200.88C119.283 187.9 124.463 172.82 130.463 174.74C136.463 176.66 162.013 185 162.013 185Z" fill="white" stroke="#000405" stroke-width="1.06" stroke-miterlimit="10"/>
<path d="M99.9525 214.72C105.632 213.59 110.832 211.86 114.582 208C118.332 204.14 124.432 203.16 128.772 206.85C132.712 210.19 133.722 217.12 129.922 221.04C121.982 229.23 112.792 232.58 101.822 234.77C96.4925 235.83 91.3325 230.7 90.8225 225.68C90.3125 219.79 94.6025 215.79 99.9525 214.72Z" fill="#F9D929"/>
<path d="M115.784 4C116.574 14.15 115.444 40.22 115.734 50.4C116.174 66.49 116.594 82.74 113.964 98.68C112.723 106.577 110.544 114.299 107.474 121.68C104.734 128.12 100.374 133.97 96.7137 139.91C93.0463 145.958 90.9813 152.842 90.7137 159.91C90.3637 165.71 91.3036 171.76 94.4236 176.67C98.2536 182.67 105.194 186.54 111.054 190.36" stroke="white" stroke-width="7.42" stroke-miterlimit="10" stroke-linecap="round"/>
<path d="M115.784 4C116.574 14.15 115.444 40.22 115.734 50.4C116.174 66.49 116.594 82.74 113.964 98.68C112.723 106.577 110.544 114.299 107.474 121.68C104.734 128.12 100.374 133.97 96.7137 139.91C93.0463 145.958 90.9813 152.842 90.7137 159.91C90.3637 165.71 91.3036 171.76 94.4236 176.67C98.2536 182.67 105.194 186.54 111.054 190.36" stroke="#EF5B81" stroke-width="2.65" stroke-miterlimit="10" stroke-linecap="round"/>
<path d="M177.882 205.41L177.052 201.12C177.009 200.894 176.882 200.692 176.696 200.555C176.511 200.418 176.281 200.356 176.052 200.38L170.322 200.85C170.094 200.87 169.882 200.974 169.726 201.143C169.571 201.311 169.484 201.531 169.482 201.76C169.482 203.16 169.572 205.87 170.182 206.59C170.202 206.59 176.652 206.42 177.882 205.41Z" fill="#3AC2DF"/>
<path d="M188.793 191.62L192.383 189.03C192.587 188.875 192.755 188.678 192.877 188.453C192.999 188.227 193.071 187.979 193.089 187.723C193.107 187.467 193.071 187.211 192.982 186.971C192.892 186.73 192.753 186.512 192.573 186.33V186.33C192.25 185.97 191.808 185.74 191.328 185.681C190.848 185.622 190.363 185.739 189.963 186.01C188.643 187.01 186.843 188.32 186.843 188.32L187.943 184.9C188.073 184.417 188.019 183.903 187.789 183.459C187.56 183.015 187.172 182.673 186.703 182.5V182.5C186.479 182.407 186.239 182.359 185.996 182.358C185.754 182.358 185.514 182.406 185.29 182.499C185.066 182.592 184.863 182.728 184.691 182.9C184.52 183.072 184.385 183.276 184.293 183.5L182.553 188.07" fill="#FFAF80"/>
<path d="M121.063 229C127.274 225.946 132.398 221.06 135.743 215C138.373 210.24 143.943 207.71 149.123 210.12C153.803 212.3 156.643 218.71 154.003 223.49C148.172 234.215 139.061 242.79 128.003 247.96C123.103 250.31 116.833 246.7 115.103 241.96C113.043 236.39 116.203 231.38 121.063 229Z" fill="#F9D929"/>
<path d="M189.403 196.72L187.103 196.94C186.495 197.01 185.881 197.01 185.273 196.94C184.655 196.879 184.076 196.607 183.633 196.17C183.419 195.952 183.269 195.678 183.202 195.379C183.135 195.081 183.153 194.769 183.253 194.48C183.26 194.451 183.273 194.424 183.292 194.401C183.311 194.379 183.336 194.361 183.363 194.35C183.413 194.35 183.483 194.35 183.463 194.43" stroke="#000202" stroke-width="0.53" stroke-miterlimit="10" stroke-linecap="round"/>
<path d="M117.774 231.25C116.284 232.538 115.226 234.251 114.741 236.159C114.257 238.067 114.369 240.078 115.063 241.92C116.793 246.67 123.064 250.28 127.964 247.92C129.204 247.32 130.424 246.69 131.594 246.03C131.594 246.03 120.744 235.69 118.394 231.97" fill="#3AC2DF"/>
<path d="M185.332 201.73C186.22 201.052 186.999 200.243 187.642 199.33C188.352 199.4 188.902 199.47 189.362 198.8C189.519 198.568 189.611 198.298 189.629 198.019C189.647 197.739 189.589 197.46 189.462 197.21C189.332 196.96 189.132 196.91 189.352 196.68C189.521 196.568 189.702 196.478 189.892 196.41C190.244 196.261 190.546 196.015 190.762 195.7C191.652 194.31 190.902 192.84 189.762 191.98L186.472 189.54C184.992 188.44 182.982 186.35 181.012 186.63C179.552 186.84 179.012 188.26 178.152 189.22C177.397 190.253 176.353 191.039 175.152 191.48L175.742 192.25L179.992 197.83L182.172 200.69C182.552 201.18 183.382 202.69 184.112 202.53C184.229 202.496 184.34 202.446 184.442 202.38C184.75 202.179 185.047 201.962 185.332 201.73V201.73Z" fill="#FFAF80"/>
<path d="M189.094 193C187.921 192.938 186.744 192.962 185.574 193.07C185.574 193.07 185.574 193.07 185.574 193.07" stroke="#000202" stroke-width="0.53" stroke-miterlimit="10" stroke-linecap="round"/>
<path d="M101.202 183.93C101.072 184.01 96.6124 187.43 95.7024 190.11C94.7924 192.79 96.2024 193 96.2024 193C96.2024 193 96.5624 194.73 97.3024 195.22C98.0424 195.71 98.3724 196.64 99.4724 197.22C100.012 197.52 101.312 200.22 104.412 198.96L109.292 194.7L101.202 183.93Z" fill="#FFAF80"/>
<path d="M188.273 199.19L186.363 199.27C185.804 199.347 185.235 199.275 184.713 199.06C184.516 198.957 184.342 198.815 184.201 198.643C184.06 198.472 183.955 198.273 183.893 198.06C183.84 197.838 183.833 197.608 183.875 197.384C183.916 197.16 184.004 196.947 184.133 196.76" stroke="#000202" stroke-width="0.53" stroke-miterlimit="10" stroke-linecap="round"/>
<path d="M183.463 188.68L184.463 190.15C184.936 190.738 185.277 191.42 185.463 192.15C185.538 192.523 185.491 192.91 185.329 193.254C185.167 193.598 184.899 193.881 184.563 194.06C184.196 194.18 183.8 194.18 183.433 194.06C182.974 193.949 182.546 193.733 182.183 193.43C181.904 193.176 181.646 192.898 181.413 192.6L179.863 190.73" stroke="#000202" stroke-width="0.53" stroke-miterlimit="10" stroke-linecap="round"/>
<path d="M100.523 185C100.383 184.814 100.318 184.583 100.34 184.351C100.362 184.12 100.47 183.905 100.643 183.75C107.073 178.14 114.983 176.29 123.503 176.13C127.503 176.06 131.183 178.63 131.573 182.83C131.933 186.59 128.903 190.83 124.883 190.9C120.273 190.99 115.433 191.5 111.453 193.9C110.784 194.312 110.14 194.763 109.523 195.25C109.428 195.325 109.318 195.38 109.201 195.412C109.085 195.444 108.962 195.452 108.842 195.436C108.722 195.42 108.606 195.381 108.502 195.319C108.397 195.258 108.306 195.177 108.233 195.08L100.523 185Z" fill="#F9D929"/>
<path d="M105.783 194.16C105.619 194.137 105.452 194.18 105.319 194.279C105.186 194.378 105.098 194.526 105.073 194.69L104.433 198.98C104.369 199.438 104.486 199.902 104.758 200.275C105.031 200.649 105.438 200.901 105.893 200.98V200.98C106.353 201.046 106.82 200.929 107.194 200.654C107.568 200.379 107.819 199.968 107.893 199.51L108.603 195.56C108.624 195.441 108.622 195.319 108.595 195.201C108.568 195.083 108.517 194.971 108.446 194.873C108.375 194.775 108.285 194.693 108.182 194.63C108.078 194.568 107.963 194.527 107.843 194.51L105.783 194.16Z" fill="#FFAF80"/>
<path d="M159.563 182C159.563 182 164.493 182.25 163.743 185.11C162.993 187.97 151.743 189.04 143.583 185.83C135.423 182.62 127.583 177.73 129.863 174.2C129.863 174.2 130.223 173.01 132.573 174C134.923 174.99 139.323 181.42 153.103 182.3" fill="white"/>
<path d="M159.563 182C159.563 182 164.493 182.25 163.743 185.11C162.993 187.97 151.743 189.04 143.583 185.83C135.423 182.62 127.583 177.73 129.863 174.2C129.863 174.2 130.223 173.01 132.573 174C134.923 174.99 139.323 181.42 153.103 182.3" stroke="#000405" stroke-width="1.06" stroke-miterlimit="10"/>
<path d="M138.082 203.67C130.912 200.85 124.872 198.85 117.402 196.54" stroke="#000202" stroke-width="4.24" stroke-miterlimit="10" stroke-linecap="round"/>
<path d="M158.122 162.88C157.697 163.359 157.201 163.77 156.653 164.1C156.378 164.264 156.071 164.365 155.753 164.396C155.435 164.427 155.114 164.387 154.812 164.28" stroke="#000202" stroke-width="1.06" stroke-miterlimit="10" stroke-linecap="round"/>
<path d="M161.202 212.18C159.674 211.353 158.066 210.683 156.402 210.18" stroke="#000202" stroke-width="4.24" stroke-miterlimit="10" stroke-linecap="round"/>
<path d="M183.789 166.682C190.537 150.893 182.351 132.257 165.505 125.058C148.66 117.859 129.534 124.822 122.786 140.611C116.038 156.401 124.224 175.036 141.07 182.235C157.915 189.434 177.041 182.471 183.789 166.682Z" fill="#BEE9F3"/>
<path d="M97.7328 195.31L97.8127 195.39C97.7675 195.347 97.7331 195.293 97.7123 195.234C97.6914 195.175 97.6847 195.112 97.6927 195.05C97.6802 194.408 97.869 193.779 98.2328 193.25" stroke="#000202" stroke-width="0.53" stroke-miterlimit="10" stroke-linecap="round"/>
<path d="M128.937 145.175C130.652 141.489 129.847 137.48 127.138 136.219C124.429 134.958 120.843 136.923 119.127 140.609C117.412 144.294 118.217 148.303 120.926 149.564C123.635 150.825 127.221 148.86 128.937 145.175Z" fill="white"/>
<path d="M189.454 165.881C192.521 159.292 190.684 151.938 185.352 149.456C180.019 146.974 173.21 150.304 170.143 156.893C167.076 163.482 168.913 170.836 174.245 173.318C179.578 175.8 186.387 172.47 189.454 165.881Z" fill="#3AC2DF"/>
<path d="M136.901 148.513C139.968 141.924 138.132 134.57 132.799 132.088C127.467 129.606 120.657 132.935 117.59 139.525C114.523 146.114 116.36 153.468 121.692 155.95C127.025 158.432 133.834 155.102 136.901 148.513Z" fill="#3AC2DF"/>
<path d="M165.502 125.05C169.512 126.755 173.168 129.193 176.282 132.24C185.472 141.24 188.882 154.77 183.792 166.67C181.588 171.819 177.964 176.235 173.342 179.4C168.637 182.55 163.212 184.462 157.571 184.956C151.929 185.451 146.255 184.513 141.072 182.23C124.222 175.03 116.072 156.39 122.782 140.6C129.492 124.81 148.652 117.85 165.502 125.05Z" fill="#F9D929"/>
<path d="M113.983 177.23L115.983 181.61C116.032 181.72 116.058 181.838 116.059 181.959C116.06 182.079 116.036 182.198 115.988 182.308C115.939 182.419 115.869 182.517 115.78 182.599C115.691 182.68 115.587 182.742 115.473 182.78L110.393 184.43C110.209 184.49 110.01 184.486 109.828 184.419C109.647 184.352 109.493 184.225 109.393 184.06C108.593 182.74 106.723 179.65 106.783 179.73C106.843 179.81 110.413 177.67 113.983 177.23Z" fill="#3AC2DF"/>
<path d="M121.483 227.65C121.483 227.59 118.483 224.8 117.243 223.65C117.103 223.518 116.924 223.435 116.733 223.413C116.542 223.392 116.349 223.433 116.183 223.53L111.533 226.13C111.407 226.2 111.299 226.298 111.218 226.418C111.137 226.537 111.085 226.674 111.066 226.817C111.048 226.96 111.063 227.105 111.111 227.241C111.159 227.377 111.239 227.5 111.343 227.6C112.653 228.84 114.913 230.98 114.983 230.99C115.053 231 120.823 228.58 121.483 227.65Z" fill="#3AC2DF"/>
<path d="M143.354 237.51L138.424 234.43C138.249 234.327 138.048 234.28 137.846 234.294C137.645 234.309 137.452 234.384 137.294 234.51L133.204 237.9C133.097 237.994 133.012 238.109 132.954 238.238C132.895 238.368 132.865 238.508 132.865 238.65C132.865 238.792 132.895 238.932 132.954 239.061C133.012 239.191 133.097 239.306 133.204 239.4C134.554 240.506 136.048 241.424 137.644 242.13L143.354 237.51Z" fill="#3AC2DF"/>
<path d="M99.7939 197.53C99.7151 197.16 99.7428 196.775 99.8739 196.42C100.007 196.073 100.171 195.738 100.364 195.42" stroke="#000202" stroke-width="0.53" stroke-miterlimit="10" stroke-linecap="round"/>
<path d="M153.583 145.13C147.583 150.8 145.723 159.21 147.063 167.13C148.063 173.13 157.273 170.61 156.263 164.6C155.866 162.308 156.028 159.954 156.734 157.738C157.441 155.522 158.672 153.509 160.323 151.87C164.783 147.63 158.033 140.87 153.583 145.13Z" fill="#ACECF9"/>
<path d="M104.533 199.13C104.484 198.361 104.531 197.588 104.673 196.83C103.975 197.042 103.353 197.452 102.883 198.01" stroke="#000202" stroke-width="0.53" stroke-linecap="round" stroke-linejoin="round"/>
<path d="M144.013 199C148.111 200.225 152.12 201.729 156.013 203.5C157.803 204.36 157.683 206.09 157.013 207.69L154.303 214.45C153.463 216.53 148.953 214.45 147.593 214.03C144.593 213.03 141.593 211.72 138.693 210.39C136.203 209.26 137.253 207.76 138.033 205.66L139.323 202.18C139.673 201.18 140.133 199.53 140.973 198.87C141.813 198.21 143.103 198.73 144.013 199Z" fill="white" stroke="#000405" stroke-width="1.06" stroke-miterlimit="10"/>
<path d="M150.514 210.11C152.044 210.11 153.284 208.87 153.284 207.34C153.284 205.81 152.044 204.57 150.514 204.57C148.984 204.57 147.744 205.81 147.744 207.34C147.744 208.87 148.984 210.11 150.514 210.11Z" fill="#EF5B81"/>
<path d="M132.454 138.77C133.096 140.149 133.295 141.693 133.024 143.19C132.754 144.679 132.237 146.112 131.494 147.43" stroke="#000405" stroke-width="1.06" stroke-miterlimit="10" stroke-linecap="round"/>
<path d="M129.613 150C129.111 150.613 128.397 151.016 127.613 151.13" stroke="#000405" stroke-width="1.06" stroke-miterlimit="10" stroke-linecap="round"/>
<path d="M182.83 167.406C188.533 155.154 183.711 140.825 172.059 135.402C160.408 129.979 146.339 135.515 140.637 147.767C134.934 160.019 139.756 174.348 151.407 179.771C163.059 185.194 177.127 179.659 182.83 167.406Z" fill="white" stroke="#000405" stroke-width="1.16" stroke-miterlimit="10"/>
<path d="M1642.7 100.003C1641.69 98.2081 1639.38 96.262 1634.11 97.1365C1633.67 97.2522 1633.17 97.3267 1632.63 97.4683C1628.65 98.6772 1624.78 100.237 1621.07 102.131C1616.32 96.6346 1609.76 93.0028 1602.58 91.8804C1595.4 90.7581 1588.05 92.2177 1581.85 96.0001C1575.64 99.7825 1570.97 105.643 1568.68 112.54C1566.38 119.437 1566.61 126.924 1569.31 133.672C1561.7 140.424 1557.99 145.989 1558.26 150.248C1558.33 151.279 1558.64 152.279 1559.17 153.166C1559.7 154.052 1560.44 154.798 1561.31 155.341C1564.02 157.062 1568.4 157.069 1575.09 155.31C1579.25 154.168 1583.33 152.772 1587.31 151.13C1591.7 152.73 1596.39 153.309 1601.03 152.824C1605.68 152.34 1610.15 150.804 1614.11 148.334C1618.07 145.863 1621.42 142.523 1623.9 138.567C1626.37 134.61 1627.92 130.141 1628.41 125.499C1630.98 123.092 1633.43 120.554 1635.74 117.897C1637.61 115.684 1639.3 113.325 1640.79 110.843C1642.54 107.885 1644.65 103.479 1642.7 100.003Z" fill="white"/>
<path d="M1604.92 149.192C1619.79 145.282 1628.67 130.058 1624.76 115.189C1620.85 100.32 1605.62 91.436 1590.75 95.3466C1575.89 99.2571 1567 114.481 1570.91 129.35C1574.82 144.219 1590.05 153.103 1604.92 149.192Z" fill="#EF6F45"/>
<path d="M1622.22 108.688C1625.26 107.16 1630.86 104.535 1630.33 106.32C1629.14 110.43 1612.71 124.739 1603.83 130.641C1594.96 136.543 1574.04 146.204 1570.68 145.037C1567.87 144.048 1572.79 139.478 1574.5 137.983L1573.1 135.269C1570.32 137.624 1557.81 148.753 1563.31 152.279C1569.47 156.228 1597.51 143.055 1605.96 138.094C1619.5 130.129 1628.67 119.959 1632.92 115.54C1635.67 112.693 1645.89 98.9193 1634.71 100.781C1631.2 101.364 1624.17 104.617 1620.85 106.413L1622.22 108.688Z" fill="white"/>
<path d="M1574.38 152.569C1569.28 153.91 1565.02 154.31 1562.91 152.958C1562.41 152.659 1561.99 152.243 1561.69 151.746C1561.39 151.249 1561.21 150.686 1561.18 150.106C1560.85 145.278 1569.07 137.716 1572.62 134.691L1573.63 135.884C1568.46 140.291 1562.51 146.633 1562.75 149.993C1562.76 150.33 1562.86 150.657 1563.04 150.943C1563.22 151.23 1563.47 151.467 1563.76 151.632C1569.19 155.119 1596.12 143.203 1605.57 137.44C1615.57 131.356 1624.6 123.808 1632.35 115.048C1635.78 111.048 1640.1 104.416 1638.82 102.229C1638.26 101.234 1636.36 101.322 1634.86 101.578C1631.54 102.126 1624.77 105.212 1621.24 107.121L1620.49 105.745C1624.12 103.778 1631.11 100.6 1634.6 100.023C1637.5 99.5443 1639.38 100.024 1640.19 101.457C1641.11 103.095 1640.49 105.699 1638.29 109.431C1636.89 111.765 1635.31 113.985 1633.55 116.07C1625.69 124.95 1616.53 132.604 1606.4 138.779C1600.98 142.029 1585.64 149.607 1574.38 152.569Z" fill="#131313"/>
<path d="M1574.53 145.363C1572.64 145.86 1571.19 146.037 1570.41 145.763C1570.08 145.673 1569.78 145.492 1569.55 145.24C1569.31 144.988 1569.15 144.676 1569.08 144.338C1568.78 142.795 1570.44 140.47 1574 137.37L1575.03 138.55C1571.81 141.358 1570.49 143.36 1570.62 144.039C1570.62 144.039 1570.65 144.176 1570.93 144.281C1573.67 145.239 1593.97 136.301 1603.39 129.987C1617.86 120.262 1628.01 111.13 1629.47 106.507C1628.8 106.611 1627.05 107.144 1622.58 109.389L1621.86 107.956C1628.14 104.779 1629.88 104.526 1630.69 105.18C1630.87 105.33 1631.01 105.53 1631.08 105.757C1631.15 105.983 1631.16 106.225 1631.09 106.453C1629.96 111.397 1619.69 120.892 1604.26 131.251C1597.75 135.67 1582.35 143.305 1574.53 145.363Z" fill="#131313"/>
<defs>
<filter id="filter0_d_6278_168053" x="66.5107" y="704.748" width="20.4951" height="27.979" filterUnits="userSpaceOnUse" color-interpolation-filters="sRGB">
<feFlood flood-opacity="0" result="BackgroundImageFix"/>
<feColorMatrix in="SourceAlpha" type="matrix" values="0 0 0 0 0 0 0 0 0 0 0 0 0 0 0 0 0 0 127 0" result="hardAlpha"/>
<feOffset dy="1"/>
<feComposite in2="hardAlpha" operator="out"/>
<feColorMatrix type="matrix" values="0 0 0 0 0.835294 0 0 0 0 0.258824 0 0 0 0 0.141176 0 0 0 1 0"/>
<feBlend mode="normal" in2="BackgroundImageFix" result="effect1_dropShadow_6278_168053"/>
<feBlend mode="normal" in="SourceGraphic" in2="effect1_dropShadow_6278_168053" result="shape"/>
</filter>
<filter id="filter1_d_6278_168053" x="1585.84" y="683.484" width="31.7217" height="55.0073" filterUnits="userSpaceOnUse" color-interpolation-filters="sRGB">
<feFlood flood-opacity="0" result="BackgroundImageFix"/>
<feColorMatrix in="SourceAlpha" type="matrix" values="0 0 0 0 0 0 0 0 0 0 0 0 0 0 0 0 0 0 127 0" result="hardAlpha"/>
<feOffset dy="1"/>
<feComposite in2="hardAlpha" operator="out"/>
<feColorMatrix type="matrix" values="0 0 0 0 0.835294 0 0 0 0 0.258824 0 0 0 0 0.141176 0 0 0 1 0"/>
<feBlend mode="normal" in2="BackgroundImageFix" result="effect1_dropShadow_6278_168053"/>
<feBlend mode="normal" in="SourceGraphic" in2="effect1_dropShadow_6278_168053" result="shape"/>
</filter>
<filter id="filter2_d_6278_168053" x="1661.12" y="751.003" width="83.1201" height="62.9463" filterUnits="userSpaceOnUse" color-interpolation-filters="sRGB">
<feFlood flood-opacity="0" result="BackgroundImageFix"/>
<feColorMatrix in="SourceAlpha" type="matrix" values="0 0 0 0 0 0 0 0 0 0 0 0 0 0 0 0 0 0 127 0" result="hardAlpha"/>
<feOffset dx="-1"/>
<feComposite in2="hardAlpha" operator="out"/>
<feColorMatrix type="matrix" values="0 0 0 0 0.835294 0 0 0 0 0.258824 0 0 0 0 0.141176 0 0 0 1 0"/>
<feBlend mode="normal" in2="BackgroundImageFix" result="effect1_dropShadow_6278_168053"/>
<feBlend mode="normal" in="SourceGraphic" in2="effect1_dropShadow_6278_168053" result="shape"/>
</filter>
<linearGradient id="paint0_linear_6278_168053" x1="896.43" y1="2" x2="896.43" y2="922" gradientUnits="userSpaceOnUse">
<stop stop-color="#1D1A50"/>
<stop offset="1" stop-color="#3A257F"/>
</linearGradient>
<linearGradient id="paint1_linear_6278_168053" x1="896.715" y1="-199.794" x2="896.715" y2="921.1" gradientUnits="userSpaceOnUse">
<stop stop-color="#1D1A50"/>
<stop offset="1" stop-color="#3A257F"/>
</linearGradient>
</defs>
</svg>
