<svg width="1792" height="750" viewBox="0 0 1792 750" fill="none" xmlns="http://www.w3.org/2000/svg">
<g clip-path="url(#clip0_6278_168380)">
<rect width="1792" height="750" fill="#342092"/>
<path d="M-298.255 171.597C-326.821 337.051 -169.572 515.2 21.683 488.864C316.312 448.222 524.299 52.8847 336.41 -29.5481C114.209 -93.2224 188.196 -227.338 165.289 -303.66C141.442 -383.125 9.38407 -376.006 -50.3575 -200.805C-110.099 -25.6031 -269.601 5.6652 -298.255 171.597Z" fill="#F68B2A"/>
<path d="M-302.35 191.565C-328.731 344.363 -183.51 508.884 -6.88602 484.563C265.204 447.03 457.281 81.9345 283.766 5.80761C78.5619 -52.9958 146.889 -176.852 125.735 -247.335C103.712 -320.722 -18.244 -314.147 -73.4155 -152.348C-128.587 9.45088 -275.888 38.3272 -302.35 191.565Z" fill="#30207D"/>
<mask id="mask0_6278_168380" style="mask-type:alpha" maskUnits="userSpaceOnUse" x="0" y="0" width="1793" height="757">
<path d="M1792.5 756.092L0.5 756.092L0.500039 0.207452L1792.5 0.207545L1792.5 756.092Z" fill="url(#paint0_linear_6278_168380)"/>
</mask>
<g mask="url(#mask0_6278_168380)">
<path d="M1792.5 756.092L0.500107 756.092L0.50015 0.206998L1792.5 0.207102L1792.5 756.092Z" fill="url(#paint1_linear_6278_168380)"/>
<path opacity="0.5" d="M926.499 -15.6509L-2.50098 -15.6509L-2.50095 714.994L926.499 714.994L926.499 -15.6509Z" fill="url(#paint2_radial_6278_168380)"/>
<path opacity="0.5" d="M993.001 767.652L1800 767.652L1800 0.207077L993.001 0.207031L993.001 767.652Z" fill="url(#paint3_radial_6278_168380)"/>
<path opacity="0.3" d="M1359.5 775.242C1314.2 955.82 1477.16 1197.25 1691.11 1184.14C2020.69 1163.86 2237.53 694.517 2082.41 637.193C1841.63 548.173 1986.56 259.56 1967.5 173.241C1947.66 83.3663 1778.3 157.06 1691.11 431.242C1623.77 642.981 1425.47 512.238 1359.5 775.242Z" fill="#3D17AD"/>
<path d="M1619.88 631.519C1750.1 553.271 1724.48 390.248 1871.19 413.654C2034.75 439.75 2125.8 556.295 2087.35 727.79C2050.37 892.68 1900.99 948.066 1757.82 953.641C1607.42 959.553 1307.5 819.241 1619.88 631.519Z" fill="#612193" fill-opacity="0.5"/>
<path opacity="0.3" d="M-190.519 -81.5462C-336.756 0.952365 -375.324 235.424 -233.979 366.929C-16.1819 569.469 421.598 480.592 366.642 282.913C275.456 70.5149 426.139 43.0204 470.777 -22.9878C517.256 -91.7126 428.233 -189.512 254.731 -125.001C81.2289 -60.4895 -43.8574 -164.278 -190.519 -81.5462Z" fill="#3D17AD"/>
<path opacity="0.5" d="M-191.454 -109.819C-329.63 -45.3282 -380.924 164.29 -262.12 293.236C-79.0494 491.84 323.561 441.93 287.602 259.097C219.864 60.4062 358.225 46.0314 403.253 -10.6215C450.138 -69.6056 376.357 -164.378 214.749 -118.078C53.1405 -71.7781 -52.8768 -174.491 -191.454 -109.819Z" fill="#612193"/>
</g>
<path d="M99.4033 180.109C99.4033 180.211 99.4033 180.21 99.4033 180.21L99.809 180.92V180.92C100.107 181.218 100.35 181.406 100.738 181.566C101.057 181.697 101.392 181.732 101.736 181.732V181.732V181.732C101.871 181.732 102.006 181.723 102.138 181.692C102.69 181.561 103.476 181.227 103.843 180.589C103.943 180.414 103.968 180.209 103.968 180.008V180.008C103.968 179.534 103.702 178.972 103.42 178.57C103.38 178.514 103.346 178.454 103.305 178.398C103.269 178.349 103.227 178.307 103.185 178.27C103.041 178.143 102.886 178.013 102.75 177.877V177.877C102.548 177.675 102.243 177.269 101.939 177.269C101.782 177.269 101.625 177.323 101.482 177.417C101.2 177.603 101.062 177.943 100.823 178.182V178.182C100.722 178.283 100.62 178.385 100.62 178.486V178.486C100.62 178.587 100.489 178.641 100.42 178.714C100.327 178.813 100.233 178.862 100.14 178.9C99.9897 178.961 99.8627 179.064 99.761 179.191C99.5849 179.411 99.4033 179.639 99.4033 180.109Z" fill="white"/>
<path d="M144.336 65.3951C144.336 65.5979 144.437 65.8008 144.539 65.9022C144.742 66.1051 145.046 66.2065 145.35 66.2065C145.452 66.2065 145.452 66.2065 145.553 66.2065V66.2065C145.62 66.2065 145.686 66.1917 145.745 66.1605C145.958 66.0476 146.263 65.8484 146.263 65.4966V65.3951C146.263 65.2853 146.204 65.1458 146.133 65.0088C146.022 64.7923 145.928 64.553 145.756 64.3808V64.3808L145.654 64.2793C145.63 64.2543 145.611 64.2355 145.595 64.2198C145.503 64.128 145.379 64.0765 145.249 64.0765V64.0765H145.147V64.0765C145.082 64.0765 145.02 64.1023 144.974 64.1482L144.944 64.178C144.843 64.2794 144.742 64.4823 144.64 64.6851C144.539 64.888 144.336 65.0908 144.336 65.3951Z" fill="white"/>
<path d="M50.2066 314.697C50.2095 314.702 50.2111 314.701 50.2111 314.707V314.707C50.2111 314.737 50.2477 314.74 50.2678 314.763C50.3069 314.806 50.3118 314.825 50.3124 314.881C50.3126 314.898 50.3176 314.915 50.3272 314.929C50.5299 315.231 50.8269 315.625 51.1239 315.922C51.8339 316.632 52.8482 317.342 54.0654 317.646C54.2884 317.72 54.5115 317.74 54.7345 317.785C54.8981 317.818 55.0246 317.849 55.1915 317.849V317.849C55.2937 317.849 55.4352 317.841 55.5325 317.81C56.42 317.524 57.1377 316.307 57.5412 314.881C57.5933 314.697 57.6146 314.506 57.6742 314.325V314.325C57.7223 314.178 57.7331 314.02 57.7589 313.868C57.9179 312.931 57.8968 312.014 57.6153 311.357C57.5388 311.128 57.4044 310.898 57.2559 310.756C57.168 310.671 57.0649 310.6 56.956 310.546V310.546C56.8472 310.492 56.7496 310.413 56.6346 310.373C56.2615 310.244 55.8227 310.255 55.3839 310.343C54.8768 310.444 54.3696 310.647 53.8625 310.85C53.5582 310.952 53.2539 311.154 53.0511 311.256C52.8482 311.357 52.6454 311.459 52.5439 311.56V311.56C52.3714 311.733 52.1301 311.821 51.9269 311.956C51.5588 312.201 51.2508 312.468 50.9844 312.721C50.7359 312.957 50.4479 313.155 50.2294 313.419C49.9454 313.762 49.9107 314.174 50.2066 314.697Z" fill="white"/>
<path d="M361.29 8.18903C361.29 8.29046 361.29 8.29031 361.29 8.29031L361.696 8.69617V8.69617C362.101 8.69617 363.014 8.59464 363.826 9.10178C363.99 9.18371 364.153 9.26558 364.317 9.40095C364.395 9.46546 364.531 9.52086 364.61 9.5847V9.5847C364.648 9.61536 364.66 9.61937 364.706 9.63619C365.307 9.85787 365.825 9.57135 366.005 9.09464C366.052 8.96833 366.057 8.83114 366.057 8.69617V8.69617C366.057 8.34837 365.983 8.07504 365.897 7.74851C365.868 7.6369 365.825 7.52937 365.785 7.42112C365.767 7.37145 365.753 7.32573 365.736 7.27794C365.689 7.13997 365.659 7.00489 365.566 6.89287V6.89287C365.501 6.81531 365.426 6.72261 365.378 6.63402C365.161 6.2379 364.808 5.72239 364.536 5.45028C364.271 5.1855 364.083 5.07432 363.838 4.98308C363.763 4.95519 363.699 4.9409 363.619 4.94542V4.94542C363.422 4.95658 363.202 5.06308 363.061 5.20075C363.046 5.21608 363.03 5.23177 363.014 5.24747V5.24747C362.841 5.42034 362.743 5.6543 362.608 5.85772C362.563 5.92446 362.519 5.99057 362.476 6.05563C362.028 6.72738 361.31 7.32071 361.291 8.12784C361.29 8.14789 361.29 8.16828 361.29 8.18903Z" fill="white"/>
<path d="M397.908 387.332C397.907 387.328 397.906 387.32 397.906 387.316V387.316C397.906 387.279 397.862 387.226 397.851 387.191C397.801 387.043 397.783 386.909 397.712 386.829C397.706 386.822 397.701 386.816 397.696 386.809C397.542 386.586 397.276 386.474 396.983 386.39C396.789 386.334 396.587 386.312 396.385 386.312V386.312V386.312C396.317 386.312 396.249 386.318 396.187 386.344C395.875 386.469 395.699 386.79 395.6 387.128C395.581 387.192 395.573 387.259 395.573 387.327V387.327C395.573 387.497 395.573 387.738 395.633 387.931C395.655 388.002 395.668 388.082 395.711 388.143C395.721 388.159 395.734 388.173 395.748 388.186C395.817 388.247 395.914 388.276 395.979 388.341V388.341C395.991 388.353 396.005 388.364 396.02 388.373C396.237 388.515 396.531 388.544 396.79 388.544V388.544C396.892 388.544 396.993 388.544 396.993 388.544C396.993 388.544 396.993 388.544 396.993 388.544C397.095 388.544 397.095 388.544 397.196 388.544V388.544C397.263 388.544 397.329 388.529 397.388 388.498C397.448 388.468 397.507 388.438 397.561 388.408C397.732 388.313 397.842 388.145 397.893 387.956C397.949 387.748 397.976 387.54 397.908 387.332Z" fill="white"/>
<path d="M399.529 180.92C399.631 180.92 399.631 180.92 399.529 180.92C399.631 180.92 399.631 180.92 399.529 180.92C399.631 181.123 399.732 181.225 399.833 181.326C400.017 181.51 400.368 181.778 400.659 181.901C400.716 181.926 400.778 181.932 400.84 181.938C400.891 181.942 400.943 181.955 400.994 181.99C401.033 182.016 401.077 182.036 401.123 182.036V182.036C401.142 182.036 401.161 182.033 401.179 182.026C401.459 181.917 401.734 181.554 401.845 181.097C401.857 181.047 401.862 180.99 401.862 180.939V180.939C401.862 180.856 401.877 180.779 401.896 180.698C401.933 180.538 401.946 180.363 401.934 180.209C401.918 180.004 401.865 179.704 401.659 179.703V179.703C401.659 179.703 401.659 179.703 401.659 179.703V179.703C401.556 179.703 401.517 179.551 401.416 179.532C401.362 179.522 401.3 179.524 401.234 179.537C401.108 179.563 400.979 179.591 400.859 179.637C400.834 179.647 400.81 179.658 400.786 179.671C400.624 179.754 400.462 179.854 400.286 179.9C400.27 179.904 400.255 179.906 400.239 179.906C400.138 179.906 400.138 180.007 400.036 180.008C400.036 180.008 400.036 180.008 400.036 180.008C400.035 180.008 400.024 180.008 400.009 180.012C399.93 180.032 399.888 180.131 399.82 180.176C399.799 180.19 399.779 180.205 399.758 180.22C399.627 180.317 399.477 180.765 399.529 180.92V180.92Z" fill="white"/>
<path d="M120.298 337.12C120.298 337.323 120.399 337.424 120.501 337.526C120.644 337.669 120.736 337.761 120.921 337.839C121.107 337.917 121.313 337.931 121.515 337.931V337.931H121.616C121.896 337.931 122.434 337.674 122.597 337.317C122.625 337.255 122.631 337.187 122.631 337.12V337.12C122.631 336.937 122.594 336.754 122.521 336.615C122.432 336.447 122.258 336.341 122.124 336.207V336.207L122.022 336.105C121.921 336.004 121.819 335.801 121.616 335.801C121.414 335.801 121.312 335.903 121.211 336.004C121.141 336.074 121.119 336.096 121.112 336.135C121.105 336.181 121.091 336.225 121.059 336.258V336.258C121.026 336.29 121.013 336.339 120.985 336.375C120.983 336.378 120.981 336.38 120.979 336.382C120.944 336.419 120.887 336.432 120.844 336.461C120.764 336.515 120.683 336.532 120.602 336.613C120.501 336.714 120.298 336.815 120.298 337.12Z" fill="white"/>
</g>
<path d="M307.536 78.2899C308.97 75.9711 309.697 74.6194 309.697 74.6194L307.536 78.2899Z" stroke="#DEE4E7" stroke-width="1.3" stroke-miterlimit="10"/>
<path d="M146.859 204.581C140.829 210.603 151.099 212.134 145.791 229.119C143.231 237.31 159.56 250.816 164.52 254.269C183.526 267.431 197.3 258.206 210.111 247.805C221.785 238.323 236.166 219.106 233.562 210.967C229.597 198.614 247.186 189.472 242.538 183.108C240.514 180.346 237.558 178.412 234.217 177.662C230.877 176.912 227.378 177.398 224.368 179.03L148.057 206.69C146.853 207.34 148.611 220.218 147.639 221.182L146.859 204.581Z" fill="#5F6D80"/>
<path d="M189.178 250.178C189.178 250.178 206.719 243.857 220.335 224.943C231.981 208.722 224.028 189.599 224.028 189.599L229.308 183.675C233.974 189.789 236.65 197.188 236.976 204.873C235.683 206.721 233.919 209.469 233.919 209.469C235.286 213.798 231.59 221.29 231.59 221.29C226.722 228.549 220.129 237.545 202.968 250.257C192.806 257.779 189.178 250.178 189.178 250.178Z" fill="#48586F"/>
<path d="M141.301 239.561C143.916 238.328 148.371 237.737 148.541 240.563C148.609 243.576 149.622 246.49 151.438 248.895C151.77 249.303 152.19 249.63 152.666 249.853C153.143 250.076 153.663 250.19 154.189 250.184C154.715 250.179 155.233 250.055 155.704 249.822C156.175 249.589 156.588 249.253 156.912 248.838C161.104 243.481 164.942 240.933 165.891 240.409C166.865 240.15 167.9 240.235 168.819 240.651C169.738 241.066 170.485 241.785 170.935 242.688C172.619 245.791 170.965 247.942 170.965 247.942L171.114 247.867C168.603 249.45 166.412 251.491 164.656 253.885C163.218 255.733 161.367 257.219 159.252 258.224C157.137 259.229 154.816 259.726 152.475 259.674C144.97 259.514 138.681 253.629 137.767 245.025C137.599 243.581 136.559 241.808 141.301 239.561Z" fill="#5324FA"/>
<path opacity="0.49" d="M169.516 245.897C169.284 245.197 168.967 244.527 168.574 243.903C167.476 242.234 166.098 241.325 164.599 241.248C164.087 241.618 163.457 242.096 162.747 242.691C165.361 241.412 167.079 243.483 167.702 244.459C168.876 246.284 169.238 248.654 168.596 249.725C169.104 249.294 169.55 248.944 169.951 248.688C169.99 247.739 169.842 246.79 169.516 245.897Z" fill="#5B55FF"/>
<path opacity="0.49" d="M165.358 246.455C164.846 245.77 164.176 245.219 163.404 244.852C162.632 244.484 161.782 244.31 160.928 244.346C160.542 244.723 160.152 245.116 159.744 245.544L159.756 245.604C160.61 245.306 161.538 245.291 162.402 245.562C163.266 245.833 164.019 246.375 164.551 247.107C166.04 248.958 166.365 251.459 165.725 252.537C166.184 252.014 166.628 251.533 167.059 251.108C167.05 250.369 166.925 249.635 166.688 248.934C166.394 248.036 165.943 247.197 165.358 246.455V246.455Z" fill="#5B55FF"/>
<path opacity="0.49" d="M162.802 249.37C162.351 248.642 161.734 248.03 161.002 247.585C160.27 247.139 159.443 246.873 158.588 246.807C158.264 247.18 157.957 247.566 157.593 247.977C159.098 247.517 160.759 248.278 161.951 249.953C162.671 250.923 163.051 252.104 163.033 253.312C163.015 254.521 162.6 255.689 161.851 256.638C162.584 256.085 163.263 255.466 163.881 254.788C164.156 253.591 164.093 252.342 163.701 251.178C163.486 250.537 163.184 249.928 162.802 249.37V249.37Z" fill="#5B55FF"/>
<path opacity="0.49" d="M160.281 252.588C160.039 251.747 159.621 250.967 159.053 250.3C158.486 249.633 157.783 249.095 156.991 248.722L156.891 248.85C156.671 249.13 156.409 249.375 156.113 249.574C157.376 249.635 158.886 251.31 159.416 253.298C159.751 254.372 159.707 255.528 159.291 256.573C158.875 257.618 158.112 258.487 157.13 259.036C158.019 258.771 158.881 258.421 159.703 257.99C160.177 257.266 160.487 256.446 160.609 255.589C160.732 254.731 160.665 253.858 160.413 253.029L160.281 252.588Z" fill="#5B55FF"/>
<path opacity="0.49" d="M156.852 252.043C156.583 251.222 156.091 250.493 155.43 249.938C155.115 250.069 154.782 250.148 154.442 250.175C154.466 250.302 154.491 250.43 154.515 250.557C155.146 251.053 155.62 251.721 155.879 252.481C156.138 253.241 156.171 254.059 155.974 254.837C155.775 256.063 155.182 257.191 154.284 258.049C153.386 258.907 152.232 259.449 150.998 259.592C151.466 259.642 151.94 259.683 152.424 259.691C152.926 259.701 153.429 259.685 153.929 259.643C154.726 259.121 155.408 258.442 155.934 257.648C156.46 256.853 156.819 255.96 156.989 255.023C157.193 254.034 157.146 253.009 156.852 252.043V252.043Z" fill="#5B55FF"/>
<path opacity="0.49" d="M154.057 250.194C153.807 250.189 153.558 250.156 153.316 250.096C154.257 252.285 153.006 254.918 151.429 256.456C150.032 257.796 147.812 258.86 145.737 257.805C146.702 258.347 147.725 258.776 148.788 259.084C150.067 258.766 151.235 258.104 152.165 257.169C153.809 255.579 155.128 252.941 154.58 250.49C154.416 250.377 154.244 250.278 154.065 250.193L154.057 250.194Z" fill="#5B55FF"/>
<path opacity="0.49" d="M152.383 249.731C152.024 249.518 151.708 249.242 151.449 248.916C151.373 250.297 150.888 251.624 150.056 252.729C149.224 253.834 148.082 254.666 146.775 255.12C144.868 255.828 142.952 255.683 142.103 254.782L142.011 254.869C142.566 255.486 143.174 256.053 143.828 256.564C144.951 256.657 146.081 256.493 147.131 256.085C148.508 255.614 149.728 254.771 150.655 253.65C151.582 252.528 152.18 251.172 152.383 249.731V249.731Z" fill="#5B55FF"/>
<path opacity="0.49" d="M145.647 249.168C146.561 248.788 147.369 248.191 148.001 247.43C148.633 246.668 149.07 245.764 149.275 244.796C149.076 244.164 148.918 243.52 148.804 242.867L148.287 242.966C148.651 245.227 147.497 247.189 145.209 248.219C143.12 249.195 140.052 249.279 138.108 247.251C138.222 247.843 138.4 248.407 138.583 248.955C139.657 249.554 140.86 249.887 142.089 249.924C143.319 249.961 144.539 249.701 145.647 249.168V249.168Z" fill="#5B55FF"/>
<path opacity="0.49" d="M147.061 252.322C148.773 251.372 150.09 249.844 150.778 248.011C150.422 247.467 150.11 246.896 149.844 246.303C150.258 247.847 148.808 250.091 146.541 251.435C145.564 252.012 142.249 253.643 139.51 251.232C139.836 251.886 140.204 252.519 140.612 253.126C141.678 253.489 142.812 253.605 143.929 253.466C145.046 253.326 146.117 252.936 147.061 252.322V252.322Z" fill="#5B55FF"/>
<path d="M112.869 127.427L91.5088 117.824C91.5088 117.824 77.2517 126.195 73.2522 134.538C69.2528 142.881 69.939 152.32 69.939 152.32C69.939 152.32 74.761 155.745 78.0663 157.705C81.3717 159.665 85.1754 148.159 90.4915 146.47C99.1045 143.744 94.2681 144.735 110.926 145.265L112.869 127.427Z" fill="white"/>
<path d="M95.1394 119.458C95.1394 119.458 74.568 132.653 74.343 144.428" stroke="#DEE4E7" stroke-width="1.3" stroke-miterlimit="10"/>
<path d="M321.51 73.0973C309.501 68.1704 303.242 68.6731 303.242 68.6731C303.242 68.6731 301.913 71.1812 299.42 75.1484L301.08 72.3435C292.663 85.9631 259.9 133.214 206.845 139.447C141.718 147.098 91.4957 117.998 91.4957 117.998L95.0312 140.859C106.914 149.556 119.82 156.76 133.459 162.311C155.664 171.255 169.044 173.65 169.044 173.65L154.821 180.903C154.821 180.903 131.816 170.87 120.112 165.628C112.186 162.061 97.0618 157.624 88.169 155.09C90.0005 153.339 91.3119 151.51 90.8451 150.132C90.3449 148.62 88.4912 148.393 86.3708 148.598C81.6193 149.06 73.7993 145.356 70.8699 141.591C70.498 141.111 72.0686 137.477 72.0686 137.477C74.299 134.648 67.3324 131.464 63.527 139.684C57.2199 153.326 61.4497 157.672 69.0921 164.619C73.1771 168.333 92.0661 177.245 104.744 187.147C115.786 195.779 139.322 226.26 139.322 226.26C139.322 226.26 171.161 253.048 180.072 297.633C184.25 318.538 184.932 328.359 184.454 332.871L183.96 332.888C180.077 333.704 170.775 338.14 165.366 343.514C158.097 350.729 163.011 353.864 169.539 352.299C176.068 350.735 194.093 347.584 199.308 346.583C204.523 345.581 203.092 332.058 203.092 332.058C203.092 332.058 209.832 303.238 207.925 282.099C206.691 268.351 207.706 269.671 201.399 244.071C233.807 214.712 276.905 181.753 305.678 104.339C306.777 102.832 307.967 101.392 309.24 100.027C313.133 96.0245 332.873 99.9019 335.217 96.8569C336.635 95.0089 337.942 93.0793 339.134 91.078C339.134 91.078 336.92 79.4299 321.51 73.0973Z" fill="white"/>
<path opacity="0.3" d="M210.772 168.837C186.171 185.285 172.673 181.545 172.673 181.545L175.008 183.428C178.221 186.436 181.022 189.855 183.339 193.598C189.534 203.285 195.552 195.339 204.148 184.311C212.214 173.96 215.641 169.961 207.385 167.102" fill="#BECAD0"/>
<path opacity="0.3" d="M139.367 226.049C139.367 226.049 171.207 252.844 180.117 297.422C184.296 318.334 184.984 328.147 184.499 332.66L184.014 332.684C180.129 333.492 170.821 337.936 165.412 343.31C158.149 350.516 163.055 353.653 169.591 352.087C176.127 350.521 194.145 347.372 199.36 346.37C204.575 345.369 203.142 331.838 203.142 331.838C203.142 331.838 209.883 303.018 207.977 281.887C206.736 268.14 207.757 269.452 201.452 243.859L139.367 226.049Z" fill="#BECAD0"/>
<path opacity="0.3" d="M120.169 165.438C112.235 161.873 97.1187 157.434 88.2184 154.901C90.0499 153.151 91.3627 151.329 90.9034 149.949C90.3958 148.438 88.5495 148.21 86.4202 148.409C81.6687 148.871 73.8487 145.168 70.9193 141.403C70.5488 140.93 72.1255 137.287 72.1255 137.287C74.3544 134.45 67.3818 131.275 63.5824 139.487C57.2753 153.128 61.499 157.484 69.1476 164.421C73.2326 168.135 92.1215 177.047 104.799 186.95C115.849 195.58 139.378 226.062 139.378 226.062L154.82 180.739C154.82 180.739 131.834 170.679 120.169 165.438Z" fill="#BECAD0"/>
<path d="M90.2245 165.672C68.9733 158.053 62.5191 141.92 66.8415 162.284C67.5649 162.977 68.3361 163.676 69.1371 164.407C73.222 168.121 92.111 177.033 104.788 186.936C108.187 189.585 112.752 194.303 117.46 199.56C124.259 194.991 129.35 191.527 129.35 191.527C129.35 191.527 119.101 176.022 90.2245 165.672Z" fill="#BECAD0"/>
<path d="M120.168 165.438C112.235 161.873 97.1186 157.434 88.2183 154.901C90.0498 153.151 91.3626 151.329 90.9033 149.949C90.3956 148.438 88.5494 148.21 86.4201 148.409C81.6686 148.871 75.8884 145.716 70.9192 141.403L72.1254 137.287C73.756 133.64 67.3817 131.275 63.5823 139.486C59.6563 148.01 59.8135 152.874 62.3373 157.035C62.1068 152.76 61.4413 148.809 63.5609 144.999C67.2677 138.328 68.4458 148.023 80.547 154.44C92.6482 160.856 103.897 158.952 138.621 181.1C138.621 181.1 148.965 184.878 153.705 184.077L154.853 180.748C154.853 180.748 131.834 170.679 120.168 165.438Z" fill="white"/>
<g opacity="0.3">
<path opacity="0.3" d="M169.591 352.087C176.12 350.522 194.145 347.372 199.36 346.37C204.575 345.369 203.142 331.838 203.142 331.838C203.142 331.838 209.875 303.019 207.977 281.886C206.736 268.14 207.757 269.451 201.451 243.859C233.883 214.502 276.945 181.558 305.732 104.134C306.835 102.632 308.025 101.195 309.294 99.8298C313.186 95.8195 332.935 99.7029 335.278 96.6504C337.62 93.5978 334.163 89.6314 333.154 87.7352C329.221 81.2962 324.59 77.8115 315.138 79.3626C295.945 82.5043 287.293 122.002 251.848 160.428C243.521 169.455 209.216 195.73 213.333 181.125C215.179 174.556 214.736 169.979 210.782 168.812C212.659 171.947 214.857 172.31 192.088 197.162C187.021 202.695 178.88 185.387 173.381 185.154C166.213 180.393 165.617 199.542 165.617 199.542L139.602 223.836L140.576 227.129C145.921 232.023 159.575 233.014 169.435 266.314C169.303 265.625 167.535 251.242 167.388 250.392C162.218 221.085 194.674 264.233 197.685 285.378C201.803 314.304 200.264 336.229 196.773 337.754C192.828 339.459 185.614 340.572 181.99 341.16C175.892 342.136 179.141 347.363 179.141 347.363C179.141 347.363 166.002 350.756 162.893 346.334C159.665 351.375 164.058 353.413 169.591 352.087Z" fill="#BECAD0"/>
</g>
<path d="M156.605 248.493C163.544 258.41 153.313 242.801 162.479 254.606C167.847 261.523 176.782 265.409 187.153 282.801C202.074 307.905 200.278 336.218 196.773 337.754C192.828 339.459 185.614 340.573 181.99 341.16C175.893 342.137 179.141 347.363 179.141 347.363C179.141 347.363 166.003 350.756 162.893 346.334C159.696 351.369 164.058 353.414 169.591 352.087C176.12 350.522 194.145 347.372 199.36 346.37C204.575 345.369 203.142 331.838 203.142 331.838C203.142 331.838 209.876 303.019 207.977 281.886C206.736 268.14 207.757 269.452 201.452 243.859L169.324 236.161L156.605 248.493Z" fill="#BECAD0"/>
<path d="M216.147 214.023C216.147 214.023 191.119 229.66 189.081 214.676C187.863 205.626 175.301 185.197 173.825 187.827L162.242 253.618C162.242 253.618 176.737 272.091 198.25 255.024C196.03 243.501 216.147 214.023 216.147 214.023Z" fill="#BECAD0"/>
<path d="M201.439 243.877C228.946 219.622 278.49 180.585 305.719 104.152C306.823 102.65 308.013 101.213 309.282 99.8476C313.174 95.8373 332.923 99.7208 335.266 96.6682C335.49 96.3708 335.738 96.092 336.007 95.8345C330.218 87.5765 307.013 89.0415 302.722 97.8057C297.837 107.771 296.195 131.138 271.419 162.94C244.413 197.649 228.328 206.09 208.252 219.074C194.998 227.649 187.586 236.872 193.726 249.911C200.182 263.665 201.455 270.133 204.311 285.007C206.855 298.254 205.556 318.594 204.056 327.576C205.83 318.767 209.433 298.085 207.98 281.901C206.742 268.17 207.76 269.466 201.439 243.877Z" fill="#BECAD0"/>
<path d="M301.095 72.138C302.53 69.8192 303.257 68.4676 303.257 68.4676L301.095 72.138Z" fill="white"/>
<path fill-rule="evenodd" clip-rule="evenodd" d="M166.81 243.985C166.81 243.985 176.998 240.397 182.819 236.684C186.438 227.9 187.49 218.269 185.852 208.91L166.81 243.985Z" fill="white"/>
<path fill-rule="evenodd" clip-rule="evenodd" d="M155.155 183.293C155.155 183.293 165.947 182.852 172.729 184.145C179.345 190.964 183.89 199.52 185.835 208.82L155.155 183.293Z" fill="white"/>
<path d="M155.155 183.293C159.862 183.137 164.573 183.27 169.263 183.692C171.553 183.925 173.663 185.041 175.144 186.804C179.097 191.53 183.601 196.134 185.875 207.973" stroke="#DEE4E7" stroke-width="1.3" stroke-miterlimit="10"/>
<path fill-rule="evenodd" clip-rule="evenodd" d="M185.844 208.865C189.499 227.897 179.997 240.924 154.645 248.683C130.854 255.955 115.297 241.695 111.725 223.098C108.154 204.501 117.318 185.509 142.087 183.449C168.531 181.253 182.161 189.846 185.814 208.871" fill="white"/>
<g opacity="0.5">
<path opacity="0.5" d="M181.763 202.385C173.72 202.375 172.791 211.372 172.791 211.372C172.791 211.372 175.764 236.439 154.568 240.035C124.836 245.053 111.725 223.098 111.725 223.098C115.296 241.696 130.843 255.942 154.614 248.689C158.803 247.446 162.886 245.872 166.825 243.982C167.167 243.862 177.103 240.338 182.82 236.692C185.7 229.685 186.974 222.121 186.548 214.557C186.49 213.488 186.382 212.398 186.23 211.285L186.174 210.992L186.045 210.318C185.954 209.846 185.865 209.382 185.773 208.902C185.682 208.43 185.593 207.965 185.502 207.493L185.373 206.819L185.317 206.527C185.045 205.437 184.742 204.384 184.4 203.37C181.993 196.186 178.008 189.632 172.738 184.19C180.288 194.215 181.763 202.385 181.763 202.385Z" fill="#BECAD0"/>
</g>
<path d="M183.848 201.79C188.11 215.896 175.445 215.927 175.445 215.927C175.445 215.927 176.578 240.68 155.38 244.261C125.646 249.272 116.274 236.799 120.998 241.696C128.524 249.488 140.025 253.145 154.616 248.657C158.803 247.425 162.885 245.861 166.825 243.982C167.167 243.862 177.103 240.338 182.82 236.692C185.7 229.684 186.974 222.121 186.548 214.556C186.49 213.488 186.382 212.397 186.23 211.285L186.174 210.992L186.045 210.318C185.954 209.846 185.865 209.381 185.773 208.902C185.682 208.43 185.593 207.965 185.502 207.493L185.373 206.819L185.317 206.527C185.045 205.437 184.742 204.384 184.4 203.37C181.437 194.453 183.848 201.79 183.848 201.79Z" fill="#BECAD0"/>
<path d="M129.925 219.603C132.932 235.263 141.225 248.75 158.205 242.988C175.9 236.987 181.604 230.197 181.457 218.914C178.372 219.032 173.679 215.994 172.791 211.371C171.904 206.748 175.132 202.197 178.049 201.163C174.006 190.628 166.192 186.433 147.533 187.414C129.626 188.351 126.919 203.951 129.925 219.603Z" fill="#4000C7"/>
<path d="M157.445 247.082C162.814 245.696 166.874 243.441 166.514 242.045C166.154 240.65 161.509 240.643 156.14 242.029C150.771 243.416 146.71 245.671 147.07 247.067C147.431 248.462 152.075 248.469 157.445 247.082Z" fill="white"/>
<path d="M157.445 247.082C162.814 245.696 166.874 243.441 166.514 242.045C166.154 240.65 161.509 240.643 156.14 242.029C150.771 243.416 146.71 245.671 147.07 247.067C147.431 248.462 152.075 248.469 157.445 247.082Z" fill="#BECAD0"/>
<path fill-rule="evenodd" clip-rule="evenodd" d="M135.045 185.135L134.745 181.308C134.849 179.866 139.423 178.561 144.962 178.398C150.502 178.236 154.914 179.284 154.81 180.726L155.099 183.001C155.211 184.432 150.808 186.062 145.273 186.651C139.738 187.24 135.157 186.566 135.045 185.135Z" fill="white"/>
<path d="M155.796 185.376C155.612 183.946 151.004 183.363 145.504 184.072C140.005 184.782 135.696 186.516 135.88 187.945C136.064 189.374 140.672 189.958 146.172 189.248C151.672 188.539 155.981 186.805 155.796 185.376Z" fill="white"/>
<path opacity="0.3" fill-rule="evenodd" clip-rule="evenodd" d="M135.045 185.135L134.745 181.308C134.849 179.866 139.423 178.561 144.962 178.398C150.502 178.236 154.914 179.284 154.81 180.726L155.099 183.001C155.211 184.432 150.808 186.062 145.273 186.651C139.738 187.24 135.157 186.566 135.045 185.135Z" fill="#BECAD0"/>
<path d="M154.815 180.654C154.763 179.213 150.228 178.209 144.686 178.41C139.145 178.612 134.695 179.942 134.747 181.383C134.799 182.823 139.334 183.827 144.876 183.626C150.418 183.424 154.868 182.094 154.815 180.654Z" fill="white"/>
<path d="M154.815 180.654C154.763 179.213 150.228 178.209 144.686 178.41C139.145 178.612 134.695 179.942 134.747 181.383C134.799 182.823 139.334 183.827 144.876 183.626C150.418 183.424 154.868 182.094 154.815 180.654Z" fill="white"/>
<path fill-rule="evenodd" clip-rule="evenodd" d="M147.391 249.424L148.53 253.089C149.161 254.398 153.892 253.909 159.098 252.008C164.303 250.107 168.015 247.506 167.383 246.198L166.809 243.978C166.382 242.607 161.687 242.716 156.328 244.219C150.968 245.722 146.964 248.053 147.391 249.424Z" fill="white"/>
<path fill-rule="evenodd" clip-rule="evenodd" d="M147.391 249.424L148.53 253.089C149.161 254.398 153.892 253.909 159.098 252.008C164.303 250.107 168.015 247.506 167.383 246.198L166.809 243.978C166.382 242.607 161.687 242.716 156.328 244.219C150.968 245.722 146.964 248.053 147.391 249.424Z" fill="#BECAD0"/>
<path opacity="0.5" d="M158.842 252.093C164.064 250.227 167.904 247.614 167.42 246.257C166.935 244.9 162.308 245.312 157.086 247.178C151.864 249.044 148.024 251.656 148.509 253.013C148.994 254.371 153.62 253.958 158.842 252.093Z" fill="white"/>
<path opacity="0.5" d="M172.791 211.371C172.791 211.371 172.113 206.467 174.833 203.676C171.218 189.423 155.025 190.994 155.025 190.994C155.025 190.994 151.447 193.476 138.929 193.308C130.188 203.051 134.56 218.418 134.642 218.682C135.536 223.025 136.848 227.272 138.561 231.362C141.925 232.697 151.791 231.68 157.042 230.501C168.793 227.856 178.535 222.675 177.562 217.727C176.379 217.044 175.347 216.129 174.527 215.036C173.707 213.944 173.117 212.698 172.791 211.371V211.371Z" fill="#5B55FF"/>
<g opacity="0.3">
<path opacity="0.3" d="M106.373 133.817C90.9517 127.386 80.1404 125.259 74.9127 131.818C72.2943 135.094 71.8909 138.536 70.9262 141.401C72.635 142.572 75.4054 145.024 77.3701 146.193C79.8071 147.636 84.4838 148.929 88.0644 148.358C89.3529 148.149 89.108 146.914 90.506 146.467C96.5587 144.528 95.9726 144.469 100.872 144.779C111.131 151.641 122.052 157.457 133.472 162.137C155.677 171.081 169.057 173.476 169.057 173.476C169.057 173.476 186.162 164.201 211.712 160.623C167.421 164.956 117.536 138.464 106.373 133.817Z" fill="#BECAD0"/>
</g>
<path d="M187.115 259.951C184.748 261.163 182.205 261.995 179.579 262.416L179.41 262.628L179.224 262.469C176.588 262.846 173.901 262.599 171.379 261.747C168.857 260.896 166.569 259.464 164.702 257.566C165.155 258.349 165.618 259.138 166.068 259.945C168.126 261.508 170.496 262.61 173.018 263.175C175.539 263.741 178.153 263.757 180.681 263.222C183.066 262.742 185.374 261.941 187.543 260.84C194.978 257.16 200.052 249.115 201.919 245.851C201.829 245.379 201.683 244.902 201.567 244.419C200.439 246.555 195.082 256.005 187.115 259.951Z" fill="#DEE4E7"/>
<path d="M169.731 243.378L169.74 243.423C173.421 242.04 179.613 239.53 183.592 236.987L183.717 236.908L183.776 236.773C186.703 229.683 187.989 222.023 187.538 214.367C187.519 214.269 186.365 204.414 182.492 196.185L181.596 196.613C185.406 204.684 186.561 214.376 186.573 214.443C187.015 221.876 185.788 229.313 182.984 236.21C177.699 239.556 168.539 242.83 166.747 243.454L166.702 243.462L167.074 244.385C167.423 244.264 168.041 244.044 168.853 243.741C168.839 243.666 168.827 243.606 168.823 243.583L169.731 243.378Z" fill="#DEE4E7"/>
<path d="M250.339 167.858C236.378 154.185 201.66 161.155 187.432 164.781C183.711 166.017 180.06 167.457 176.498 169.095C176.911 169.101 177.327 169.122 177.729 169.154L178.658 168.812C179.651 168.443 180.64 168.09 181.623 167.746C182.35 167.489 183.078 167.233 183.809 166.992L183.861 166.252C184.371 166.296 184.878 166.37 185.379 166.473C186.257 166.149 186.979 165.901 187.495 165.756L187.435 165.767L187.627 164.744C187.748 164.767 188.555 164.923 189.784 165.215C204.94 161.528 236.654 155.865 249.62 168.564C255.065 173.897 256.648 182.022 254.34 192.697L255.658 191.147C257.52 180.977 255.736 173.146 250.339 167.858Z" fill="#DEE4E7"/>
<path d="M167.921 173.228L168.558 172.943C169.417 172.56 170.32 172.169 171.254 171.772C172.188 171.375 173.153 170.98 174.135 170.59L176.359 169.712L176.359 169.184C173.45 170.465 170.375 171.887 167.597 173.197L167.864 173.255L167.921 173.228Z" fill="#DEE4E7"/>
<path d="M154.859 180.701L155 180.946L160.572 177.879L160.436 177.858L154.859 180.701Z" fill="#DEE4E7"/>
<path d="M204.632 150.088L204.434 150.639C203.334 154.12 202.653 157.719 202.407 161.361L203.394 161.405C203.683 157.435 204.499 153.521 205.821 149.767L205.551 149.819L204.632 150.088Z" fill="#DEE4E7"/>
<path d="M205.035 148.954L205.274 148.908L206.261 148.626C208.148 144.006 211.249 139.603 216.354 138.273L216.248 137.719C215.394 137.883 214.539 138.047 213.678 138.213C209.983 140.049 207.04 143.698 205.035 148.954Z" fill="#DEE4E7"/>
<path d="M272.074 142.071C272.919 140.891 273.74 139.661 274.54 138.49C275.955 136.216 277.552 134.062 279.317 132.049L280.323 131.016C279.83 130.878 279.509 130.823 279.507 130.816L279.612 130.306C279.247 130.671 278.892 131.05 278.55 131.411C276.758 133.454 275.135 135.639 273.698 137.944C272.908 139.13 272.093 140.35 271.276 141.517C270.738 142.262 270.255 143.046 269.831 143.861L270.705 144.369C271.106 143.572 271.564 142.804 272.074 142.071V142.071Z" fill="#DEE4E7"/>
<path d="M272.893 156.131C271.98 155.559 271.194 154.806 270.582 153.919C269.971 153.031 269.548 152.028 269.339 150.971C269.088 149.008 269.416 147.015 270.28 145.235L269.406 144.727C268.424 146.714 268.058 148.949 268.354 151.145C268.89 153.516 270.313 155.593 272.332 156.949C274.35 158.305 276.811 158.838 279.21 158.437L279.509 158.38C279.764 157.966 280.02 157.559 280.267 157.147C279.048 157.588 277.739 157.726 276.455 157.549C275.17 157.372 273.948 156.885 272.893 156.131V156.131Z" fill="#DEE4E7"/>
<path d="M293.475 130.728C293.279 129.962 292.918 129.248 292.418 128.636C291.918 128.024 291.291 127.528 290.58 127.182V127.182C286.025 124.863 282.725 127.222 280.02 129.886C280.265 129.947 280.649 130.045 281.136 130.192C282.415 128.813 284.061 127.826 285.88 127.346C287.34 127.097 288.841 127.357 290.132 128.084C290.72 128.363 291.238 128.769 291.651 129.273C292.063 129.777 292.359 130.366 292.517 130.998C292.798 132.28 292.788 133.61 292.487 134.888C292.89 134.033 293.296 133.233 293.703 132.401C293.687 131.837 293.611 131.276 293.475 130.728V130.728Z" fill="#DEE4E7"/>
<path d="M270.258 145.24C272.78 146.721 279.306 150.44 283.429 151.808L283.937 150.934C279.95 149.671 273.17 145.799 270.685 144.35C270.537 144.627 270.392 144.927 270.258 145.24Z" fill="#DEE4E7"/>
<path d="M269.746 143.784L269.238 144.658L269.404 144.759C269.541 144.442 269.685 144.143 269.838 143.86L269.746 143.784Z" fill="#DEE4E7"/>
<path d="M270.684 144.342L269.809 143.834C269.656 144.117 269.512 144.417 269.376 144.733L270.25 145.241C270.392 144.926 270.536 144.627 270.684 144.342Z" fill="#DEE4E7"/>
<path d="M276.163 136.748L275.715 137.611C275.8 137.649 283.436 141.404 287.369 144.852L287.854 143.981C283.726 140.486 276.452 136.879 276.163 136.748Z" fill="#DEE4E7"/>
<path d="M279.726 129.849L279.628 130.31L280.026 129.915L279.726 129.849Z" fill="#DEE4E7"/>
<path d="M281.12 130.195C280.837 130.459 280.568 130.72 280.303 130.996C282.371 131.57 287.983 133.406 291.252 137.362C291.415 137.036 291.57 136.711 291.734 136.392C288.532 132.741 283.587 130.902 281.12 130.195Z" fill="#DEE4E7"/>
<path d="M280.318 130.994C280.584 130.717 280.852 130.456 281.136 130.192C280.649 130.045 280.265 129.947 280.02 129.886L279.622 130.281L279.518 130.79C279.518 130.79 279.826 130.855 280.318 130.994Z" fill="#DEE4E7"/>
<path d="M285.252 107.205C277.664 104.832 271.021 108.873 270.744 109.051L271.004 109.475L271.432 109.719L271.361 109.834C272.18 109.366 278.288 106.056 284.968 108.153C290.375 109.849 294.784 114.565 298.079 122.176L298.524 121.982C298.615 121.77 298.708 121.565 298.792 121.355C295.391 113.719 290.84 108.952 285.252 107.205Z" fill="#DEE4E7"/>
<path d="M116.231 140.323C113.333 145.867 114.734 151.743 115.255 153.485L115.888 153.829L116.353 153.662C116.339 153.587 113.939 146.838 117.118 140.774C117.378 140.276 117.67 139.794 117.991 139.332C117.554 139.082 117.297 138.914 117.27 138.896L117.809 138.062C117.809 138.062 118.111 138.26 118.609 138.545C120.807 135.831 124.123 133.804 128.522 132.516L126.795 132.017C121.762 133.768 118.202 136.549 116.231 140.323Z" fill="#DEE4E7"/>
<path d="M99.7843 158.289L98.1419 157.828C94.6748 159.193 86.8296 163.652 87.8289 175.774C88.179 175.978 88.523 176.192 88.8806 176.395C87.3718 162.025 98.1621 158.702 99.7843 158.289Z" fill="#DEE4E7"/>
<path d="M301.095 72.1379L300.911 72.4382L301.095 72.1379Z" fill="#DEE4E7"/>
<path d="M328.964 82.0604C322.171 75.0053 306.295 72.235 301.531 71.5415C301.363 71.838 301.174 72.1463 300.98 72.471C305.054 73.0559 321.532 75.8039 328.254 82.7717C334.339 89.0537 336.099 93.3617 335.729 95.3206C335.709 95.5207 335.638 95.7122 335.522 95.877C335.407 96.0419 335.252 96.1747 335.071 96.2628L335.274 96.7132C335.815 96.0111 336.313 95.3251 336.765 94.6866C336.662 91.7231 333.862 87.1332 328.964 82.0604Z" fill="#DEE4E7"/>
<path d="M73.8498 144.445L74.8403 144.464C75.0505 133.058 95.1974 119.998 95.4049 119.865L95.1387 119.45L94.602 119.203C91.035 121.602 87.6505 124.262 84.4764 127.161C77.5229 133.593 73.9468 139.407 73.8498 144.445Z" fill="#DEE4E7"/>
<path d="M181.194 302.949C181.285 303.421 181.376 303.893 181.465 304.357C184.029 306.017 188.647 307.974 195.128 306.729C201.871 305.434 205.894 302.51 207.87 300.623C207.911 300.11 207.944 299.591 207.972 299.05C206.55 300.628 202.542 304.272 194.936 305.733C188.055 307.077 183.352 304.516 181.194 302.949Z" fill="#DEE4E7"/>
<path d="M132.22 161.562C132.06 161.499 128.32 159.903 129.676 154.825C129.798 154.174 130.057 153.555 130.436 153.011C130.815 152.467 131.305 152.009 131.874 151.668C133.078 151.116 134.415 150.919 135.727 151.099C135.811 150.928 135.868 150.824 135.886 150.797L136.582 151.184C138.711 151.515 140.812 152.01 142.865 152.666L142.933 152.334L143.904 152.536L143.814 152.957C145.136 153.366 146.515 153.806 147.952 154.276L149.037 154.627C149.069 154.388 149.08 154.246 149.079 154.238L150.066 154.32C150.074 154.365 150.043 154.605 150.001 154.954C154.549 156.629 155.259 159.476 155.017 161.613C154.797 163.006 154.276 164.334 153.488 165.504C152.701 166.674 151.667 167.657 150.459 168.385L151.686 168.786C152.833 167.953 153.806 166.902 154.547 165.694C155.288 164.485 155.783 163.142 156.005 161.742C156.249 159.613 155.748 155.754 149.728 153.818L148.258 153.323C140.414 150.79 134.735 148.928 131.387 150.791C130.699 151.193 130.104 151.738 129.642 152.388C129.18 153.037 128.862 153.778 128.708 154.561C127.97 157.313 128.581 159.2 129.45 160.447C130.357 160.84 131.269 161.224 132.19 161.607L132.22 161.562Z" fill="#DEE4E7"/>
<path d="M136.779 151.278L136.612 151.178C136.318 151.141 136.032 151.111 135.757 151.094C134.115 154.622 133.567 158.562 134.184 162.404L135.229 162.825C134.491 158.91 135.035 154.861 136.779 151.278Z" fill="#DEE4E7"/>
<path d="M135.908 150.793C135.908 150.793 135.832 150.924 135.749 151.095C136.024 151.112 136.309 151.143 136.604 151.18L135.908 150.793Z" fill="#DEE4E7"/>
<path d="M142.864 152.666L140.392 164.794L141.33 165.15L143.806 152.92L142.864 152.666Z" fill="#DEE4E7"/>
<path d="M143.904 152.536L142.933 152.334L142.865 152.666L143.814 152.957L143.904 152.536Z" fill="#DEE4E7"/>
<path d="M149.425 154.747L149.045 154.625C148.883 156.21 148.151 162.108 145.87 166.819L146.812 167.151C149.02 162.469 149.801 156.826 150.009 154.953L149.425 154.747Z" fill="#DEE4E7"/>
<path d="M150.008 154.953C150.05 154.603 150.067 154.367 150.073 154.319L149.086 154.237C149.086 154.237 149.076 154.386 149.044 154.625L149.425 154.747L150.008 154.953Z" fill="#DEE4E7"/>
<path d="M271.353 109.835L271.255 109.893L270.997 109.476L270.568 109.224C270.414 109.479 255.069 134.879 206.259 148.61C206.1 148.998 205.949 149.385 205.805 149.77C253.938 136.432 270.177 111.723 271.353 109.835Z" fill="#DEE4E7"/>
<path d="M118.609 138.546C118.396 138.812 118.18 139.063 117.983 139.334C123.051 142.339 155.062 159.91 196.587 151.936C199.225 151.43 201.911 150.813 204.623 150.09C204.751 149.7 204.888 149.324 205.027 148.956C160.066 161.249 124.329 141.914 118.609 138.546Z" fill="#DEE4E7"/>
<path d="M205.035 148.955C204.896 149.323 204.759 149.699 204.631 150.089L205.54 149.844L205.81 149.793C205.953 149.408 206.105 149.021 206.263 148.633L205.276 148.916L205.035 148.955Z" fill="#DEE4E7"/>
<path d="M271.352 109.835L271.424 109.721L270.996 109.477L271.255 109.893L271.352 109.835Z" fill="#DEE4E7"/>
<path d="M117.809 138.062L117.27 138.896C117.27 138.896 117.554 139.082 117.991 139.332C118.18 139.063 118.396 138.812 118.616 138.544C118.111 138.26 117.837 138.088 117.809 138.062Z" fill="#DEE4E7"/>
<path d="M180.039 261.854C173.13 256.259 169.956 244.266 169.74 243.422L168.805 243.773C169.199 245.298 172.323 256.709 179.224 262.469L179.577 262.401L180.039 261.854Z" fill="#DEE4E7"/>
<path d="M179.579 262.416L179.227 262.484L179.412 262.642L179.579 262.416Z" fill="#DEE4E7"/>
<path d="M169.731 243.377L168.767 243.617C168.767 243.617 168.783 243.699 168.797 243.774L169.732 243.424L169.731 243.377Z" fill="#DEE4E7"/>
<path d="M211.308 174.336C211.011 174.92 210.685 175.489 210.329 176.039C210.685 175.489 211.011 174.92 211.308 174.336V174.336Z" fill="#BECAD0"/>
<path d="M175.251 183.684C175.637 184.037 176.019 184.406 176.404 184.791L176.355 184.738C175.989 184.373 175.619 184.025 175.251 183.684Z" fill="#BECAD0"/>
<path d="M182.146 191.831C182.553 192.413 182.946 193.005 183.345 193.628C183.779 194.312 184.265 194.962 184.798 195.571C184.265 194.962 183.779 194.312 183.345 193.628C182.946 193.005 182.553 192.413 182.146 191.831Z" fill="#BECAD0"/>
<path d="M198.167 191.799C200.039 189.653 202.027 187.096 204.177 184.337L205.156 183.084L204.177 184.337C202.004 187.1 200.017 189.657 198.167 191.799Z" fill="#BECAD0"/>
<path d="M212.116 171.384C212.12 170.978 212.042 170.575 211.889 170.2C212.042 170.575 212.12 170.978 212.116 171.384Z" fill="#BECAD0"/>
<path d="M208.973 178.039C209.353 177.508 209.705 176.998 210.025 176.517C209.699 177.007 209.36 177.546 208.973 178.039Z" fill="#BECAD0"/>
<path d="M211.169 169.204C211.28 169.317 211.383 169.437 211.479 169.564C211.383 169.437 211.28 169.317 211.169 169.204V169.204Z" fill="#BECAD0"/>
<path d="M211.592 169.705C211.697 169.858 211.79 170.02 211.871 170.188C211.79 170.02 211.697 169.858 211.592 169.705V169.705Z" fill="#BECAD0"/>
<path d="M210.497 168.618C210.686 168.759 210.866 168.911 211.035 169.074C210.866 168.911 210.686 168.759 210.497 168.618Z" fill="#BECAD0"/>
<path d="M187.693 165.819C186.956 166.03 186.223 166.256 185.431 166.502C186.2 166.261 186.956 166.03 187.693 165.819Z" fill="#BECAD0"/>
<path d="M160.579 177.877C160.808 177.887 161.038 177.879 161.266 177.854C161.656 177.779 162.033 177.8 162.458 177.789C162.063 177.795 161.684 177.805 161.266 177.854C161.038 177.879 160.808 177.887 160.579 177.877V177.877Z" fill="#BECAD0"/>
<path d="M192.566 164.611C193.456 164.556 194.364 164.507 195.393 164.526C194.364 164.507 193.456 164.556 192.566 164.611C191.734 164.771 190.827 164.984 189.863 165.223C190.827 164.984 191.734 164.771 192.566 164.611Z" fill="#BECAD0"/>
<path d="M160.443 177.857L160.58 177.878L160.443 177.857Z" fill="#BECAD0"/>
<path d="M178.663 168.842L177.734 169.184L178.663 168.842Z" fill="#BECAD0"/>
<path d="M183.837 167.018C183.106 167.259 182.378 167.515 181.651 167.771C182.378 167.515 183.106 167.259 183.837 167.018Z" fill="#BECAD0"/>
<path d="M168.559 172.95C169.418 172.568 170.322 172.177 171.256 171.78C170.313 172.171 169.417 172.56 168.559 172.95Z" fill="#BECAD0"/>
<path d="M171.254 171.772C172.189 171.383 173.153 170.98 174.135 170.589C173.191 170.973 172.189 171.383 171.254 171.772Z" fill="#BECAD0"/>
<path d="M205.624 171.644C205.786 171.76 205.942 171.886 206.097 172.003C207.637 173.208 209.051 174.566 210.317 176.057C210.673 175.506 210.999 174.938 211.295 174.354L211.287 174.309C211.531 173.823 211.733 173.316 211.889 172.795V172.795C212.018 172.362 212.081 171.912 212.076 171.461V171.461C212.08 171.055 212.002 170.653 211.849 170.277C211.768 170.11 211.675 169.948 211.57 169.795C211.57 169.795 211.57 169.795 211.558 169.735C209.533 170.214 207.548 170.852 205.624 171.644V171.644Z" fill="#BECAD0"/>
<path d="M211.591 169.705L211.579 169.645C211.579 169.645 211.579 169.684 211.591 169.705Z" fill="#BECAD0"/>
<path d="M199.043 180.622C200.111 179.749 200.779 178.129 200.002 177.036C199.735 176.659 199.441 176.258 199.14 175.904L198.643 175.339C197.826 175.861 196.996 176.432 196.153 177.021C195.311 177.61 194.467 178.192 193.643 178.715C194.201 179.276 194.697 179.795 195.118 180.25C195.343 180.544 195.626 180.789 195.95 180.968C196.273 181.148 196.631 181.259 196.999 181.294C197.368 181.329 197.74 181.287 198.092 181.172C198.443 181.056 198.767 180.869 199.043 180.622V180.622Z" fill="#BECAD0"/>
<path d="M209.997 176.53L209.608 176.853C208.359 175.363 206.956 174.01 205.422 172.817C205.129 172.583 204.826 172.354 204.513 172.129C202.814 172.916 201.16 173.796 199.558 174.766L199.954 175.211C200.286 175.606 200.591 176.021 200.877 176.417C202.024 178.022 201.192 180.241 199.724 181.416C199.204 181.841 198.588 182.132 197.929 182.266C197.274 182.38 196.599 182.318 195.976 182.086C195.352 181.853 194.802 181.458 194.381 180.943C193.921 180.448 193.4 179.88 192.77 179.271C191.099 180.291 189.364 181.203 187.577 182.001C188.65 182.183 189.631 182.719 190.363 183.524C192.173 185.508 192.122 188.314 190.084 189.514C188.045 190.713 185.444 189.628 184.211 187.534C183.804 186.907 183.585 186.176 183.579 185.429C183.573 184.681 183.781 183.948 184.177 183.314C181.66 184.161 179.035 184.644 176.381 184.749L176.43 184.802C176.534 184.898 176.633 185.011 176.731 185.117C177.049 185.436 177.369 185.771 177.7 186.119C177.81 186.246 177.927 186.371 178.045 186.496C178.423 186.928 178.804 187.376 179.187 187.831C179.289 187.958 179.393 188.094 179.502 188.22C179.839 188.638 180.18 189.077 180.528 189.515C180.593 189.611 180.666 189.706 180.738 189.801C181.134 190.323 181.526 190.87 181.912 191.425C182.009 191.562 182.105 191.699 182.193 191.837C182.601 192.419 182.994 193.012 183.393 193.634C183.827 194.318 184.313 194.968 184.846 195.577C185.274 196.081 185.76 196.533 186.293 196.923C186.811 197.32 187.395 197.621 188.018 197.812C188.796 198.028 189.617 198.041 190.403 197.851C190.822 197.753 191.229 197.612 191.62 197.431C192.282 197.12 192.909 196.739 193.491 196.294C193.785 196.083 194.074 195.849 194.369 195.605C194.664 195.362 195.077 195.003 195.439 194.662C196.096 194.038 196.776 193.333 197.461 192.572L198.158 191.793C200.03 189.647 202.018 187.09 204.168 184.331L205.147 183.078L205.277 182.906L207.183 180.45L207.307 180.286C207.885 179.53 208.423 178.813 208.907 178.138L208.987 178.029C209.36 177.546 209.7 177.007 209.997 176.53Z" fill="#BECAD0"/>
<path d="M208.893 178.148C208.409 178.823 207.871 179.541 207.293 180.296C207.871 179.541 208.409 178.823 208.893 178.148Z" fill="#BECAD0"/>
<path d="M207.17 180.46L205.264 182.916L207.17 180.46Z" fill="#BECAD0"/>
<path opacity="0.2" d="M207.418 167.15L207.373 167.159C204.491 166.102 201.515 165.318 198.486 164.818C201.528 165.305 204.517 166.079 207.414 167.128L207.418 167.15Z" fill="white"/>
<path d="M199.558 174.767C201.171 173.79 202.837 172.905 204.549 172.114C198.899 168.181 189.322 166.127 187.722 165.805C186.986 166.017 186.252 166.243 185.46 166.488C190.929 167.656 195.874 170.56 199.558 174.767V174.767Z" fill="#BECAD0"/>
<path opacity="0.2" d="M199.558 174.767C201.171 173.79 202.837 172.905 204.549 172.114C198.899 168.181 189.322 166.127 187.722 165.805C186.986 166.017 186.252 166.243 185.46 166.488C190.929 167.656 195.874 170.56 199.558 174.767V174.767Z" fill="white"/>
<path d="M189.863 165.223C193.545 166.07 200.979 168.17 205.624 171.644C207.544 170.824 209.525 170.157 211.55 169.651C211.529 169.62 211.505 169.591 211.479 169.564C211.383 169.438 211.28 169.317 211.169 169.204C211.128 169.157 211.084 169.114 211.035 169.074C210.866 168.911 210.686 168.759 210.497 168.618C210.352 168.509 210.2 168.408 210.043 168.317V168.317L209.547 168.039L209.486 168.004L208.964 167.755L208.87 167.711L208.312 167.476L208.178 167.424C207.959 167.334 207.717 167.249 207.475 167.163L207.43 167.172C204.548 166.114 201.573 165.331 198.543 164.83C197.801 164.724 197.134 164.651 196.506 164.616C196.135 164.586 195.776 164.577 195.432 164.566C194.402 164.546 193.495 164.596 192.604 164.65C191.734 164.771 190.827 164.984 189.863 165.223Z" fill="#BECAD0"/>
<path opacity="0.2" d="M189.863 165.223C193.545 166.07 200.979 168.17 205.624 171.644C207.544 170.824 209.525 170.157 211.55 169.651C211.529 169.62 211.505 169.591 211.479 169.564C211.383 169.438 211.28 169.317 211.169 169.204C211.128 169.157 211.084 169.114 211.035 169.074C210.866 168.911 210.686 168.759 210.497 168.618C210.352 168.509 210.2 168.408 210.043 168.317V168.317L209.547 168.039L209.486 168.004L208.964 167.755L208.87 167.711L208.312 167.476L208.178 167.424C207.959 167.334 207.717 167.249 207.475 167.163L207.43 167.172C204.548 166.114 201.573 165.331 198.543 164.83C197.801 164.724 197.134 164.651 196.506 164.616C196.135 164.586 195.776 164.577 195.432 164.566C194.402 164.546 193.495 164.596 192.604 164.65C191.734 164.771 190.827 164.984 189.863 165.223Z" fill="white"/>
<path d="M211.035 169.074C211.083 169.114 211.128 169.157 211.169 169.204C211.128 169.157 211.083 169.114 211.035 169.074V169.074Z" fill="#BECAD0"/>
<path opacity="0.2" d="M211.035 169.074C211.083 169.114 211.128 169.157 211.169 169.204C211.128 169.157 211.083 169.114 211.035 169.074V169.074Z" fill="white"/>
<path d="M211.557 169.65L211.479 169.564C211.505 169.591 211.529 169.62 211.55 169.652L211.557 169.65Z" fill="#BECAD0"/>
<path opacity="0.2" d="M211.557 169.65L211.479 169.564C211.505 169.591 211.529 169.62 211.55 169.652L211.557 169.65Z" fill="white"/>
<path d="M184.152 183.303C184.352 183.005 184.605 182.746 184.898 182.538C185.683 182.03 186.634 181.847 187.551 182.029C189.339 181.231 191.073 180.319 192.745 179.299C192.494 179.044 192.235 178.791 191.959 178.525L191.39 177.99C187.973 174.761 183.306 170.32 176.583 170.189C172.049 172.187 167.122 174.485 163.61 176.262L162.859 176.64L160.582 177.892C160.811 177.902 161.041 177.894 161.269 177.869C161.659 177.795 162.036 177.815 162.461 177.804L162.772 177.806C163.139 177.813 163.499 177.83 163.87 177.859L163.997 177.874C164.393 177.914 164.795 177.985 165.199 178.063L165.523 178.132C165.863 178.207 166.199 178.298 166.537 178.396C166.618 178.415 166.698 178.438 166.776 178.467C167.171 178.585 167.603 178.727 167.968 178.89L168.323 179.04C168.636 179.174 168.952 179.323 169.27 179.479L169.595 179.635C169.981 179.84 170.373 180.06 170.77 180.294C170.893 180.364 171.018 180.449 171.141 180.526C171.441 180.712 171.739 180.914 172.034 181.132L172.411 181.393C172.798 181.669 173.188 181.959 173.574 182.273C173.695 182.374 173.823 182.474 173.945 182.583C174.239 182.822 174.536 183.075 174.828 183.338L175.241 183.709C175.609 184.05 175.979 184.399 176.344 184.763C179.003 184.651 181.632 184.159 184.152 183.303ZM177.913 176.95C178.361 176.47 178.95 176.145 179.595 176.021C180.24 175.897 180.908 175.981 181.502 176.26C182.905 176.892 183.313 178.368 182.299 179.44C181.788 179.929 181.126 180.232 180.422 180.3C179.718 180.367 179.011 180.196 178.416 179.813C178.173 179.677 177.964 179.489 177.803 179.262C177.642 179.035 177.533 178.775 177.485 178.501C177.437 178.227 177.45 177.945 177.524 177.677C177.598 177.409 177.731 177.16 177.913 176.95V176.95ZM171.479 175.45C170.248 175.104 169.888 174.163 170.598 173.289C171.106 172.78 171.724 172.396 172.405 172.165C173.086 171.935 173.811 171.865 174.523 171.96C176.164 172.173 176.789 173.281 175.76 174.356C175.188 174.872 174.5 175.24 173.754 175.431C173.009 175.621 172.228 175.628 171.479 175.45V175.45Z" fill="#BECAD0"/>
<path opacity="0.2" d="M184.152 183.303C184.352 183.005 184.605 182.746 184.898 182.538C185.683 182.03 186.634 181.847 187.551 182.029C189.339 181.231 191.073 180.319 192.745 179.299C192.494 179.044 192.235 178.791 191.959 178.525L191.39 177.99C187.973 174.761 183.306 170.32 176.583 170.189C172.049 172.187 167.122 174.485 163.61 176.262L162.859 176.64L160.582 177.892C160.811 177.902 161.041 177.894 161.269 177.869C161.659 177.795 162.036 177.815 162.461 177.804L162.772 177.806C163.139 177.813 163.499 177.83 163.87 177.859L163.997 177.874C164.393 177.914 164.795 177.985 165.199 178.063L165.523 178.132C165.863 178.207 166.199 178.298 166.537 178.396C166.618 178.415 166.698 178.438 166.776 178.467C167.171 178.585 167.603 178.727 167.968 178.89L168.323 179.04C168.636 179.174 168.952 179.323 169.27 179.479L169.595 179.635C169.981 179.84 170.373 180.06 170.77 180.294C170.893 180.364 171.018 180.449 171.141 180.526C171.441 180.712 171.739 180.914 172.034 181.132L172.411 181.393C172.798 181.669 173.188 181.959 173.574 182.273C173.695 182.374 173.823 182.474 173.945 182.583C174.239 182.822 174.536 183.075 174.828 183.338L175.241 183.709C175.609 184.05 175.979 184.399 176.344 184.763C179.003 184.651 181.632 184.159 184.152 183.303ZM177.913 176.95C178.361 176.47 178.95 176.145 179.595 176.021C180.24 175.897 180.908 175.981 181.502 176.26C182.905 176.892 183.313 178.368 182.299 179.44C181.788 179.929 181.126 180.232 180.422 180.3C179.718 180.367 179.011 180.196 178.416 179.813C178.173 179.677 177.964 179.489 177.803 179.262C177.642 179.035 177.533 178.775 177.485 178.501C177.437 178.227 177.45 177.945 177.524 177.677C177.598 177.409 177.731 177.16 177.913 176.95V176.95ZM171.479 175.45C170.248 175.104 169.888 174.163 170.598 173.289C171.106 172.78 171.724 172.396 172.405 172.165C173.086 171.935 173.811 171.865 174.523 171.96C176.164 172.173 176.789 173.281 175.76 174.356C175.188 174.872 174.5 175.24 173.754 175.431C173.009 175.621 172.228 175.628 171.479 175.45V175.45Z" fill="white"/>
<path d="M192.105 177.223L192.667 177.76C193.02 178.091 193.341 178.41 193.628 178.718C194.452 178.194 195.282 177.623 196.138 177.024C196.994 176.424 197.811 175.863 198.627 175.341C194.79 170.996 189.537 168.151 183.8 167.312L183.814 167.099C182.298 167.701 180.501 168.458 178.57 169.287C184.64 170.149 188.902 174.179 192.105 177.223Z" fill="#BECAD0"/>
<path opacity="0.2" d="M192.105 177.223L192.667 177.76C193.02 178.091 193.341 178.41 193.628 178.718C194.452 178.194 195.282 177.623 196.138 177.024C196.994 176.424 197.811 175.863 198.627 175.341C194.79 170.996 189.537 168.151 183.8 167.312L183.814 167.099C182.298 167.701 180.501 168.458 178.57 169.287C184.64 170.149 188.902 174.179 192.105 177.223Z" fill="white"/>
<path d="M176.36 170.162L176.367 169.71L174.142 170.588C173.153 170.98 172.189 171.383 171.262 171.771C170.334 172.159 169.424 172.559 168.565 172.941L167.929 173.226L167.876 173.237C168.638 173.401 169.04 173.471 169.04 173.471L163.604 176.232C167.146 174.449 172.043 172.157 176.577 170.159L176.36 170.162Z" fill="#BECAD0"/>
<path opacity="0.2" d="M176.36 170.162L176.367 169.71L174.142 170.588C173.153 170.98 172.189 171.383 171.262 171.771C170.334 172.159 169.424 172.559 168.565 172.941L167.929 173.226L167.876 173.237C168.638 173.401 169.04 173.471 169.04 173.471L163.604 176.232C167.146 174.449 172.043 172.157 176.577 170.159L176.36 170.162Z" fill="white"/>
<path d="M162.856 176.625L160.445 177.865L160.581 177.885L162.856 176.625Z" fill="#BECAD0"/>
<path opacity="0.2" d="M162.856 176.625L160.445 177.865L160.581 177.885L162.856 176.625Z" fill="white"/>
<path d="M178.586 169.292C180.517 168.463 182.314 167.706 183.83 167.104L183.814 167.022C183.083 167.263 182.356 167.519 181.628 167.776C180.645 168.12 179.656 168.473 178.663 168.842L177.734 169.184C178.027 169.213 178.299 169.254 178.586 169.292Z" fill="#BECAD0"/>
<path opacity="0.2" d="M178.586 169.292C180.517 168.463 182.314 167.706 183.83 167.104L183.814 167.022C183.083 167.263 182.356 167.519 181.628 167.776C180.645 168.12 179.656 168.473 178.663 168.842L177.734 169.184C178.027 169.213 178.299 169.254 178.586 169.292Z" fill="white"/>
<path d="M178.663 168.842C179.657 168.473 180.646 168.12 181.628 167.776C180.646 168.12 179.66 168.488 178.663 168.842Z" fill="#BECAD0"/>
<path opacity="0.2" d="M178.663 168.842C179.657 168.473 180.646 168.12 181.628 167.776C180.646 168.12 179.66 168.488 178.663 168.842Z" fill="white"/>
<path d="M209.995 176.522L210.397 176.189L210.287 176.062L210.252 176.123L209.995 176.522Z" fill="#DEE4E7"/>
<path d="M189.863 165.223L189.811 165.233C189.061 165.377 188.325 165.588 187.682 165.758L187.525 165.789L187.695 165.826C188.475 165.598 189.167 165.403 189.863 165.223Z" fill="#DEE4E7"/>
<path d="M189.807 165.218C188.578 164.926 187.771 164.77 187.65 164.747L187.458 165.77L187.518 165.759L187.675 165.729C188.337 165.571 189.056 165.394 189.807 165.218Z" fill="#DEE4E7"/>
<path d="M187.693 165.818C188.43 165.607 189.167 165.403 189.863 165.223C189.167 165.403 188.445 165.604 187.693 165.818Z" fill="#DEE4E7"/>
<path d="M209.996 176.53L210.254 176.131L209.996 176.53Z" fill="#DEE4E7"/>
<path d="M210.283 176.118L210.318 176.057L210.283 176.118Z" fill="#DEE4E7"/>
<path d="M205.444 172.812C206.978 174.006 208.381 175.359 209.63 176.849L210.018 176.526L210.282 176.118L210.317 176.057C209.051 174.566 207.637 173.208 206.097 172.003C205.942 171.885 205.786 171.76 205.624 171.644L204.52 172.127C204.844 172.355 205.152 172.584 205.444 172.812Z" fill="#DEE4E7"/>
<path d="M205.624 171.644C200.979 168.169 193.549 166.092 189.863 165.223C189.167 165.403 188.445 165.604 187.693 165.818C189.308 166.137 198.871 168.193 204.521 172.127L205.624 171.644Z" fill="#DEE4E7"/>
<path d="M185.432 166.501L185.206 166.583L185.432 166.501Z" fill="#DEE4E7"/>
<path d="M176.37 169.12L176.382 169.18L176.524 169.152L176.37 169.12Z" fill="#DEE4E7"/>
<path d="M177.734 169.184C177.332 169.152 176.946 169.125 176.503 169.125L176.361 169.152L176.362 169.68L177.734 169.184Z" fill="#DEE4E7"/>
<path d="M185.182 166.58L185.407 166.498C184.906 166.395 184.399 166.321 183.888 166.277L183.836 167.017L184.685 166.745L185.182 166.58Z" fill="#DEE4E7"/>
<path d="M185.182 166.58L184.686 166.746L185.182 166.58Z" fill="#DEE4E7"/>
<path d="M184.686 166.746L183.837 167.018L184.686 166.746Z" fill="#DEE4E7"/>
<path d="M177.735 169.184L176.367 169.71L177.735 169.184Z" fill="#DEE4E7"/>
<path d="M199.139 175.904C199.44 176.257 199.735 176.659 200.001 177.035C200.778 178.129 200.11 179.749 199.043 180.622C198.767 180.874 198.441 181.066 198.086 181.185C197.732 181.304 197.356 181.347 196.984 181.313C196.612 181.278 196.251 181.166 195.924 180.984C195.598 180.802 195.313 180.554 195.088 180.255C194.666 179.8 194.17 179.282 193.612 178.721C193.316 178.917 193.011 179.108 192.711 179.29C193.326 179.902 193.862 180.467 194.322 180.962C194.743 181.478 195.293 181.872 195.917 182.105C196.54 182.337 197.215 182.399 197.87 182.285C198.529 182.151 199.145 181.86 199.665 181.435C201.129 180.237 201.965 178.041 200.818 176.436C200.532 176.04 200.227 175.625 199.895 175.23L199.558 174.767L198.67 175.325L199.139 175.904Z" fill="#DEE4E7"/>
<path d="M191.387 177.975L191.956 178.51C192.232 178.776 192.49 179.029 192.741 179.284C193.04 179.102 193.346 178.911 193.642 178.715C193.344 178.404 193.024 178.085 192.681 177.757L192.12 177.22C188.917 174.176 184.655 170.146 178.601 169.289L176.595 170.171C183.302 170.305 187.967 174.731 191.387 177.975Z" fill="#DEE4E7"/>
<path d="M198.642 175.339L199.557 174.767C195.873 170.56 190.928 167.656 185.459 166.488L185.205 166.537L183.852 167.061L183.839 167.273C189.571 168.127 194.816 170.985 198.642 175.339V175.339Z" fill="#DEE4E7"/>
<path d="M176.581 170.175L178.587 169.292C178.307 169.253 178.028 169.213 177.735 169.184L176.367 169.711L176.361 170.162L176.581 170.175Z" fill="#DEE4E7"/>
<path d="M184.686 166.746L183.837 167.018L183.853 167.1L185.205 166.576L184.686 166.746Z" fill="#DEE4E7"/>
<path d="M184.14 187.532C185.381 189.624 188.059 190.664 190.013 189.511C191.967 188.359 192.135 185.514 190.362 183.524C189.633 182.717 188.654 182.177 187.582 181.992C186.399 182.506 185.269 182.933 184.186 183.281C183.771 183.91 183.546 184.646 183.538 185.399C183.53 186.153 183.739 186.893 184.14 187.532V187.532Z" fill="#EB581A"/>
<path d="M184.898 182.538C184.605 182.746 184.352 183.005 184.152 183.303C185.235 182.955 186.335 182.534 187.548 182.014C186.63 181.838 185.68 182.026 184.898 182.538V182.538Z" fill="#EB581A"/>
<path d="M174.522 171.96C173.81 171.865 173.085 171.935 172.405 172.166C171.724 172.396 171.105 172.78 170.598 173.289C169.888 174.163 170.247 175.104 171.479 175.45C172.23 175.63 173.014 175.625 173.762 175.434C174.511 175.242 175.201 174.872 175.774 174.354C176.788 173.281 176.164 172.173 174.522 171.96Z" fill="#5B55FF"/>
<path d="M182.292 179.403C183.306 178.33 182.898 176.855 181.495 176.223C180.9 175.944 180.233 175.86 179.588 175.984C178.943 176.108 178.354 176.433 177.906 176.912C177.73 177.122 177.603 177.367 177.532 177.631C177.462 177.895 177.45 178.171 177.497 178.441C177.544 178.71 177.65 178.965 177.806 179.189C177.962 179.414 178.166 179.601 178.402 179.738C178.993 180.128 179.699 180.307 180.405 180.246C181.111 180.185 181.775 179.888 182.292 179.403Z" fill="#08C4C7"/>
<path d="M167.849 214.077C169.74 221.537 167.119 226.453 162.445 229.829" stroke="#5B55FF" stroke-width="2.71" stroke-miterlimit="10" stroke-linecap="round"/>
<path d="M164.521 230.813C164.521 230.813 161.8 231.452 160.939 228.021" stroke="#5B55FF" stroke-width="2.71" stroke-miterlimit="10" stroke-linecap="round"/>
<defs>
<linearGradient id="paint0_linear_6278_168380" x1="896.5" y1="756.092" x2="896.5" y2="0.207472" gradientUnits="userSpaceOnUse">
<stop stop-color="#1D1A50"/>
<stop offset="1" stop-color="#3A257F"/>
</linearGradient>
<linearGradient id="paint1_linear_6278_168380" x1="896.5" y1="756.092" x2="896.5" y2="0.207024" gradientUnits="userSpaceOnUse">
<stop stop-color="#1D1A50"/>
<stop offset="1" stop-color="#3A257F"/>
</linearGradient>
<radialGradient id="paint2_radial_6278_168380" cx="0" cy="0" r="1" gradientUnits="userSpaceOnUse" gradientTransform="translate(66.4991 38.3481) rotate(39.1984) scale(797.458 772.704)">
<stop offset="0.260417" stop-color="#4C2193" stop-opacity="0.6"/>
<stop offset="0.51" stop-color="#3D17AD" stop-opacity="0.3"/>
<stop offset="1" stop-color="#1C0958" stop-opacity="0"/>
</radialGradient>
<radialGradient id="paint3_radial_6278_168380" cx="0" cy="0" r="1" gradientUnits="userSpaceOnUse" gradientTransform="translate(1785.5 749.242) rotate(-134.601) scale(811.778 801.906)">
<stop offset="0.243855" stop-color="#4C2193" stop-opacity="0.6"/>
<stop offset="0.51" stop-color="#3D17AD" stop-opacity="0.3"/>
<stop offset="1" stop-color="#1C0958" stop-opacity="0"/>
</radialGradient>
<clipPath id="clip0_6278_168380">
<rect width="1792" height="750" fill="white"/>
</clipPath>
</defs>
</svg>
