<svg width="1792" height="750" viewBox="0 0 1792 750" fill="none" xmlns="http://www.w3.org/2000/svg">
<path d="M42.1777 533.188C39.318 532.571 37.631 529.145 38.4098 525.536C39.1885 521.926 42.1381 519.5 44.9978 520.117C47.8575 520.734 49.5445 524.16 48.7657 527.77C47.987 531.379 45.0374 533.805 42.1777 533.188Z" fill="white"/>
<g clip-path="url(#clip0_6234_168702)">
<rect width="1792" height="750" fill="#342092"/>
<mask id="mask0_6234_168702" style="mask-type:alpha" maskUnits="userSpaceOnUse" x="0" y="-10" width="1792" height="757">
<path d="M1792 746.792L0 746.792L3.90181e-05 -9.09284L1792 -9.09275L1792 746.792Z" fill="url(#paint0_linear_6234_168702)"/>
</mask>
<g mask="url(#mask0_6234_168702)">
<path d="M1792 746.792L-0.000869751 746.791L-0.000826197 -9.09329L1792 -9.09319L1792 746.792Z" fill="url(#paint1_linear_6234_168702)"/>
<path opacity="0.5" d="M925.999 -24.9512L-3.00098 -24.9512L-3.00095 705.693L925.999 705.693L925.999 -24.9512Z" fill="url(#paint2_radial_6234_168702)"/>
<path opacity="0.5" d="M992.5 758.352L1799.5 758.352L1799.5 -9.09322L992.5 -9.09326L992.5 758.352Z" fill="url(#paint3_radial_6234_168702)"/>
<path opacity="0.3" d="M1359 765.941C1313.7 946.52 1476.66 1187.95 1690.61 1174.83C2020.19 1154.56 2237.03 685.217 2081.91 627.892C1841.13 538.873 1986.06 250.26 1967 163.941C1947.16 74.066 1777.8 147.76 1690.61 421.941C1623.27 633.681 1424.97 502.938 1359 765.941Z" fill="#3D17AD"/>
<path d="M1619.38 622.219C1749.6 543.971 1723.98 380.947 1870.69 404.354C2034.25 430.449 2125.3 546.994 2086.85 718.49C2049.87 883.38 1900.49 938.766 1757.32 944.341C1606.92 950.253 1307 809.94 1619.38 622.219Z" fill="#612193" fill-opacity="0.5"/>
<path opacity="0.3" d="M-191.019 -90.8465C-337.256 -8.34793 -375.824 226.124 -234.479 357.629C-16.6819 560.169 421.098 471.292 366.142 273.613C274.956 61.2146 425.639 33.7201 470.277 -32.2881C516.756 -101.013 427.733 -198.813 254.231 -134.301C80.7289 -69.7897 -44.3574 -173.578 -191.019 -90.8465Z" fill="#3D17AD"/>
<path opacity="0.5" d="M-191.954 -119.119C-330.13 -54.6285 -381.424 154.99 -262.62 283.935C-79.5494 482.54 323.061 432.63 287.102 249.797C219.364 51.1059 357.725 36.7311 402.753 -19.9218C449.638 -78.9059 375.857 -173.678 214.249 -127.378C52.6405 -81.0784 -53.3768 -183.792 -191.954 -119.119Z" fill="#612193"/>
</g>
<path d="M99.4033 180.109C99.4033 180.211 99.4033 180.21 99.4033 180.21L99.809 180.92V180.92C100.107 181.218 100.35 181.406 100.738 181.566C101.057 181.697 101.392 181.732 101.736 181.732V181.732V181.732C101.871 181.732 102.006 181.723 102.138 181.692C102.69 181.561 103.476 181.227 103.843 180.589C103.943 180.414 103.968 180.209 103.968 180.008V180.008C103.968 179.534 103.702 178.972 103.42 178.57C103.38 178.514 103.346 178.454 103.305 178.398C103.269 178.349 103.227 178.307 103.185 178.27C103.041 178.143 102.886 178.013 102.75 177.877V177.877C102.548 177.675 102.243 177.269 101.939 177.269C101.782 177.269 101.625 177.323 101.482 177.417C101.2 177.603 101.062 177.943 100.823 178.182V178.182C100.722 178.283 100.62 178.385 100.62 178.486V178.486C100.62 178.587 100.489 178.641 100.42 178.714C100.327 178.813 100.233 178.862 100.14 178.9C99.9897 178.961 99.8627 179.064 99.761 179.191C99.5849 179.411 99.4033 179.639 99.4033 180.109Z" fill="white"/>
<path d="M144.336 65.3951C144.336 65.5979 144.437 65.8008 144.539 65.9022C144.742 66.1051 145.046 66.2065 145.35 66.2065C145.452 66.2065 145.452 66.2065 145.553 66.2065V66.2065C145.62 66.2065 145.686 66.1917 145.745 66.1605C145.958 66.0476 146.263 65.8484 146.263 65.4966V65.3951C146.263 65.2853 146.204 65.1458 146.133 65.0088C146.022 64.7923 145.928 64.553 145.756 64.3808V64.3808L145.654 64.2793C145.63 64.2543 145.611 64.2355 145.595 64.2198C145.503 64.128 145.379 64.0765 145.249 64.0765V64.0765H145.147V64.0765C145.082 64.0765 145.02 64.1023 144.974 64.1482L144.944 64.178C144.843 64.2794 144.742 64.4823 144.64 64.6851C144.539 64.888 144.336 65.0908 144.336 65.3951Z" fill="white"/>
<path d="M50.2066 314.697C50.2095 314.702 50.2111 314.701 50.2111 314.707V314.707C50.2111 314.737 50.2477 314.74 50.2678 314.763C50.3069 314.806 50.3118 314.825 50.3124 314.881C50.3126 314.898 50.3176 314.915 50.3272 314.929C50.5299 315.231 50.8269 315.625 51.1239 315.922C51.8339 316.632 52.8482 317.342 54.0654 317.646C54.2884 317.72 54.5115 317.74 54.7345 317.785C54.8981 317.818 55.0246 317.849 55.1915 317.849V317.849C55.2937 317.849 55.4352 317.841 55.5325 317.81C56.42 317.524 57.1377 316.307 57.5412 314.881C57.5933 314.697 57.6146 314.506 57.6742 314.325V314.325C57.7223 314.178 57.7331 314.02 57.7589 313.868C57.9179 312.931 57.8968 312.014 57.6153 311.357C57.5388 311.128 57.4044 310.898 57.2559 310.756C57.168 310.671 57.0649 310.6 56.956 310.546V310.546C56.8472 310.492 56.7496 310.413 56.6346 310.373C56.2615 310.244 55.8227 310.255 55.3839 310.343C54.8768 310.444 54.3696 310.647 53.8625 310.85C53.5582 310.952 53.2539 311.154 53.0511 311.256C52.8482 311.357 52.6454 311.459 52.5439 311.56V311.56C52.3714 311.733 52.1301 311.821 51.9269 311.956C51.5588 312.201 51.2508 312.468 50.9844 312.721C50.7359 312.957 50.4479 313.155 50.2294 313.419C49.9454 313.762 49.9107 314.174 50.2066 314.697Z" fill="white"/>
<path d="M361.29 8.18903C361.29 8.29046 361.29 8.29031 361.29 8.29031L361.696 8.69617V8.69617C362.101 8.69617 363.014 8.59464 363.826 9.10178C363.99 9.18371 364.153 9.26558 364.317 9.40095C364.395 9.46546 364.531 9.52086 364.61 9.5847V9.5847C364.648 9.61536 364.66 9.61937 364.706 9.63619C365.307 9.85787 365.825 9.57135 366.005 9.09464C366.052 8.96833 366.057 8.83114 366.057 8.69617V8.69617C366.057 8.34837 365.983 8.07504 365.897 7.74851C365.868 7.6369 365.825 7.52937 365.785 7.42112C365.767 7.37145 365.753 7.32573 365.736 7.27794C365.689 7.13997 365.659 7.00489 365.566 6.89287V6.89287C365.501 6.81531 365.426 6.72261 365.378 6.63402C365.161 6.2379 364.808 5.72239 364.536 5.45028C364.271 5.1855 364.083 5.07432 363.838 4.98308C363.763 4.95519 363.699 4.9409 363.619 4.94542V4.94542C363.422 4.95658 363.202 5.06308 363.061 5.20075C363.046 5.21608 363.03 5.23177 363.014 5.24747V5.24747C362.841 5.42034 362.743 5.6543 362.608 5.85772C362.563 5.92446 362.519 5.99057 362.476 6.05563C362.028 6.72738 361.31 7.32071 361.291 8.12784C361.29 8.14789 361.29 8.16828 361.29 8.18903Z" fill="white"/>
<path d="M397.908 387.332C397.907 387.328 397.906 387.32 397.906 387.316V387.316C397.906 387.279 397.862 387.226 397.851 387.191C397.801 387.043 397.783 386.909 397.712 386.829C397.706 386.822 397.701 386.816 397.696 386.809C397.542 386.586 397.276 386.474 396.983 386.39C396.789 386.334 396.587 386.312 396.385 386.312V386.312V386.312C396.317 386.312 396.249 386.318 396.187 386.344C395.875 386.469 395.699 386.79 395.6 387.128C395.581 387.192 395.573 387.259 395.573 387.327V387.327C395.573 387.497 395.573 387.738 395.633 387.931C395.655 388.002 395.668 388.082 395.711 388.143C395.721 388.159 395.734 388.173 395.748 388.186C395.817 388.247 395.914 388.276 395.979 388.341V388.341C395.991 388.353 396.005 388.364 396.02 388.373C396.237 388.515 396.531 388.544 396.79 388.544V388.544C396.892 388.544 396.993 388.544 396.993 388.544C396.993 388.544 396.993 388.544 396.993 388.544C397.095 388.544 397.095 388.544 397.196 388.544V388.544C397.263 388.544 397.329 388.529 397.388 388.498C397.448 388.468 397.507 388.438 397.561 388.408C397.732 388.313 397.842 388.145 397.893 387.956C397.949 387.748 397.976 387.54 397.908 387.332Z" fill="white"/>
<path d="M399.529 180.92C399.631 180.92 399.631 180.92 399.529 180.92C399.631 180.92 399.631 180.92 399.529 180.92C399.631 181.123 399.732 181.225 399.833 181.326C400.017 181.51 400.368 181.778 400.659 181.901C400.716 181.926 400.778 181.932 400.84 181.938C400.891 181.942 400.943 181.955 400.994 181.99C401.033 182.016 401.077 182.036 401.123 182.036V182.036C401.142 182.036 401.161 182.033 401.179 182.026C401.459 181.917 401.734 181.554 401.845 181.097C401.857 181.047 401.862 180.99 401.862 180.939V180.939C401.862 180.856 401.877 180.779 401.896 180.698C401.933 180.538 401.946 180.363 401.934 180.209C401.918 180.004 401.865 179.704 401.659 179.703V179.703C401.659 179.703 401.659 179.703 401.659 179.703V179.703C401.556 179.703 401.517 179.551 401.416 179.532C401.362 179.522 401.3 179.524 401.234 179.537C401.108 179.563 400.979 179.591 400.859 179.637C400.834 179.647 400.81 179.658 400.786 179.671C400.624 179.754 400.462 179.854 400.286 179.9C400.27 179.904 400.255 179.906 400.239 179.906C400.138 179.906 400.138 180.007 400.036 180.008C400.036 180.008 400.036 180.008 400.036 180.008C400.035 180.008 400.024 180.008 400.009 180.012C399.93 180.032 399.888 180.131 399.82 180.176C399.799 180.19 399.779 180.205 399.758 180.22C399.627 180.317 399.477 180.765 399.529 180.92V180.92Z" fill="white"/>
<path d="M120.298 337.12C120.298 337.323 120.399 337.424 120.501 337.526C120.644 337.669 120.736 337.761 120.921 337.839C121.107 337.917 121.313 337.931 121.515 337.931V337.931H121.616C121.896 337.931 122.434 337.674 122.597 337.317C122.625 337.255 122.631 337.187 122.631 337.12V337.12C122.631 336.937 122.594 336.754 122.521 336.615C122.432 336.447 122.258 336.341 122.124 336.207V336.207L122.022 336.105C121.921 336.004 121.819 335.801 121.616 335.801C121.414 335.801 121.312 335.903 121.211 336.004C121.141 336.074 121.119 336.096 121.112 336.135C121.105 336.181 121.091 336.225 121.059 336.258V336.258C121.026 336.29 121.013 336.339 120.985 336.375C120.983 336.378 120.981 336.38 120.979 336.382C120.944 336.419 120.887 336.432 120.844 336.461C120.764 336.515 120.683 336.532 120.602 336.613C120.501 336.714 120.298 336.815 120.298 337.12Z" fill="white"/>
</g>
<g clip-path="url(#clip1_6234_168702)">
<path opacity="0.1" fill-rule="evenodd" clip-rule="evenodd" d="M290.46 182.881C290.558 182.568 290.638 182.25 290.7 181.928C290.638 182.25 290.558 182.568 290.46 182.881V182.881Z" fill="#0E0D3F"/>
<path opacity="0.1" fill-rule="evenodd" clip-rule="evenodd" d="M205.464 93.1051L205.478 93.0219C205.532 92.7225 205.588 92.4148 205.703 92.1093C205.96 90.9707 206.198 89.7429 206.37 88.4003C206.435 88.0427 206.501 87.6768 206.567 87.3109L206.583 87.2194C206.583 87.2194 206.595 87.1528 206.601 87.1196C206.623 86.9262 206.657 86.7346 206.704 86.5458C206.713 86.5217 206.717 86.4964 206.718 86.4709C206.751 86.2879 206.842 86.1155 206.915 85.9484C207.043 85.6743 207.199 85.4146 207.382 85.1738C207.623 84.86 207.911 84.5847 208.236 84.3573C208.354 84.2691 208.478 84.1881 208.607 84.115C208.732 84.0431 208.864 83.981 208.996 83.9188C209.134 83.8665 209.265 83.8127 209.41 83.7702C209.778 83.653 210.161 83.5889 210.548 83.58L210.806 83.6265L210.957 83.6536L211.191 83.6957L211.591 83.7678L211.959 83.8339L212.009 83.8429C212.406 83.9901 212.796 84.1577 213.177 84.345V84.345C213.857 84.6736 214.508 85.0579 215.125 85.494L215.476 85.7461C212.525 89.2152 209.806 92.8728 207.334 96.6956C206.46 96.4782 205.546 96.288 204.618 96.1295C204.869 95.2131 205.186 94.2142 205.464 93.1051Z" fill="#0E0D3F"/>
<path d="M229.534 122.524C229.88 112.652 219.941 119.458 211.021 100.87C206.707 91.8947 182.108 93.3318 175.139 94.3184C148.546 98.1183 144.141 116.849 141.502 135.778C139.085 153.038 142.1 180.685 150.77 185.525C163.936 192.874 156.232 214.514 165.229 216.245C169.141 216.991 173.19 216.3 176.626 214.3C180.062 212.299 182.652 209.125 183.917 205.364L226.825 121.675C227.329 120.169 215.625 110.636 215.686 109.05L229.534 122.524Z" fill="#5F6D80"/>
<path d="M158.689 119.922C158.689 119.922 147.466 136.448 150.894 163.233C153.82 186.151 175.787 196.131 175.787 196.131L175.987 205.32C167.186 203.81 159.058 199.651 152.697 193.401C152.302 190.806 152.244 186.34 152.244 186.34C147.643 183.743 145.528 175.764 145.528 175.764C141.484 136.118 158.689 119.922 158.689 119.922Z" fill="#48586F"/>
<path d="M221.88 85.4561C220.001 88.2345 215.912 91.4652 214.057 88.7446C212.196 85.7898 209.449 83.4929 206.206 82.1803C205.63 81.9678 205.013 81.8881 204.402 81.9473C203.791 82.0064 203.201 82.2029 202.677 82.5218C202.154 82.8407 201.71 83.2739 201.379 83.7887C201.047 84.3035 200.838 84.8865 200.765 85.494C199.771 93.3169 197.457 98.1291 196.815 99.2069C195.998 100.043 194.917 100.572 193.753 100.705C192.589 100.839 191.414 100.567 190.426 99.9374C186.899 97.843 187.263 94.7148 187.263 94.7148L187.165 94.8774C188.727 91.8233 189.696 88.5024 190.022 85.0888C190.358 82.3963 191.321 79.8202 192.834 77.5659C194.347 75.3116 196.368 73.4414 198.736 72.1045C206.325 67.8209 216.112 69.9513 222.149 77.975C223.18 79.2852 225.267 80.4764 221.88 85.4561Z" fill="#5324FA"/>
<path opacity="0.49" d="M192.616 96.2448C190.361 95.1264 188.59 92.9446 188.599 91.5553C188.356 92.2842 188.117 92.8938 187.899 93.3868C188.419 94.3419 189.114 95.1919 189.947 95.8933C190.598 96.4509 191.314 96.9285 192.079 97.3157C194.151 98.3497 196.087 98.4148 197.63 97.602C197.922 96.9335 198.265 96.0851 198.61 95.0741C196.75 97.8902 193.801 96.8444 192.616 96.2448Z" fill="#5B55FF"/>
<path opacity="0.49" d="M194.158 91.7486C191.565 90.784 189.746 88.4905 189.741 87.0301C189.591 87.8617 189.464 88.5686 189.265 89.2454C189.716 89.972 190.275 90.6258 190.924 91.1838C191.761 91.9033 192.718 92.4707 193.751 92.8602C194.671 93.2385 195.669 93.3878 196.659 93.2952C197.649 93.2025 198.601 92.8707 199.432 92.3286C199.59 91.7388 199.755 91.1075 199.9 90.4467L199.841 90.3931C199.168 91.1994 198.251 91.767 197.227 92.0113C196.203 92.2556 195.126 92.1634 194.158 91.7486V91.7486Z" fill="#5B55FF"/>
<path opacity="0.49" d="M195.076 87.3637C193.78 86.8247 192.697 85.8757 191.994 84.6631C191.292 83.4505 191.009 82.0418 191.19 80.6544C190.79 81.6362 190.483 82.653 190.273 83.6918C190.71 85.0478 191.515 86.2568 192.601 87.1843C193.197 87.6965 193.864 88.1228 194.579 88.4505C195.462 88.9103 196.442 89.1555 197.437 89.1661C198.433 89.1767 199.417 88.9524 200.309 88.5114C200.41 87.9459 200.515 87.3637 200.624 86.7567C199.365 88.1012 197.226 88.3515 195.076 87.3637Z" fill="#5B55FF"/>
<path opacity="0.49" d="M195.6 82.5382C194.627 81.6651 193.984 80.4872 193.777 79.2002C193.569 77.9132 193.81 76.5949 194.459 75.4645C193.732 76.2615 193.08 77.1243 192.513 78.0419C192.473 79.0441 192.654 80.0433 193.043 80.9691C193.431 81.8948 194.019 82.7249 194.764 83.4008C194.888 83.5257 195.019 83.6439 195.157 83.7548C195.899 84.4495 196.781 84.9789 197.745 85.3077C198.708 85.6365 199.73 85.7572 200.743 85.6617C200.751 85.5973 200.762 85.5334 200.778 85.4704C200.828 85.0632 200.943 84.6666 201.119 84.2954C199.816 84.9711 197.318 84.1954 195.6 82.5382Z" fill="#5B55FF"/>
<path opacity="0.49" d="M198.086 79.0194C197.554 77.6798 197.474 76.204 197.861 74.8168C198.248 73.4295 199.079 72.2067 200.228 71.3343C199.721 71.5609 199.229 71.8071 198.74 72.0798C198.231 72.3692 197.737 72.6843 197.26 73.024C196.778 74.0153 196.504 75.0944 196.454 76.1954C196.404 77.2963 196.579 78.3962 196.97 79.4281C197.361 80.5321 198.029 81.5184 198.911 82.2929C199.663 82.955 200.59 83.3898 201.581 83.5462C201.824 83.236 202.108 82.9607 202.426 82.7281C202.312 82.6297 202.205 82.5243 202.104 82.4125C200.048 82.2485 198.698 80.5977 198.086 79.0194Z" fill="#5B55FF"/>
<path opacity="0.49" d="M201.718 74.6418C202.305 72.4809 203.896 70.1057 206.591 69.9296C205.305 69.9627 204.026 70.1417 202.781 70.463C201.703 71.538 200.937 72.8831 200.563 74.3566C199.869 76.9191 200.125 80.2877 202.113 82.3626C202.343 82.3811 202.574 82.3795 202.803 82.3581L202.79 82.4329C203.042 82.2899 203.308 82.1738 203.585 82.0866C201.351 80.4655 201.039 77.1211 201.718 74.6418Z" fill="#5B55FF"/>
<path opacity="0.49" d="M207.147 73.2146C208.631 71.3867 210.626 70.4064 212.012 70.7934L212.039 70.6437C211.117 70.3665 210.174 70.1623 209.219 70.0331C208.038 70.6055 207.004 71.4381 206.195 72.4681C205.098 73.7523 204.379 75.315 204.12 76.9826C203.861 78.6502 204.072 80.3574 204.728 81.9143C205.215 81.9119 205.699 81.999 206.155 82.1712C205.412 80.747 205.11 79.1356 205.286 77.5411C205.463 75.9466 206.11 74.4409 207.147 73.2146V73.2146Z" fill="#5B55FF"/>
<path opacity="0.49" d="M212.8 79.1601C214.301 76.949 217.314 75.0529 220.46 75.9194C219.994 75.4258 219.503 74.9564 218.989 74.5129C217.561 74.5551 216.165 74.939 214.918 75.6321C213.671 76.3252 212.61 77.3072 211.825 78.4952C211.141 79.4165 210.691 80.4895 210.514 81.6224C210.337 82.7553 210.439 83.9145 210.81 85.0006C211.385 85.5111 211.925 86.0587 212.428 86.6398L212.896 86.2432C211.158 84.2134 211.15 81.5761 212.8 79.1601Z" fill="#5B55FF"/>
<path opacity="0.49" d="M209.563 76.7914C210.192 75.6425 212.528 72.0533 216.718 72.8589C216.007 72.3898 215.265 71.9694 214.497 71.6006C213.212 71.8635 212.005 72.4138 210.966 73.2099C209.927 74.006 209.083 75.0271 208.498 76.1962C207.348 78.1505 206.934 80.4501 207.331 82.6829C208.01 83.0127 208.662 83.397 209.279 83.8319C208.015 82.5226 208.103 79.4476 209.563 76.7914Z" fill="#5B55FF"/>
<path d="M191.824 229.96C191.824 229.96 201.605 262.156 155.075 287.515C127.227 302.697 121.087 320.532 121.087 320.532C121.087 320.532 133.783 331.402 135.482 333.837C137.182 336.272 135.632 343.016 135.632 343.016C135.632 343.016 131.157 345.422 113.614 340.84C96.0717 336.257 90.8841 330.121 90.8841 330.121C90.8841 330.121 91.353 311.806 113.823 282.736C137.433 252.118 145.733 231.281 146.635 209.361C147.538 187.442 191.824 229.96 191.824 229.96Z" fill="#BECAD0"/>
<path opacity="0.3" d="M144.723 293.886C144.723 293.886 118.141 312.283 112.442 321.251C120.009 326.665 123.209 328.091 127.111 331.936C131.013 335.78 129.761 340.535 128.962 343.585C131.675 344.073 135.598 343.01 135.598 343.01C135.598 343.01 137.145 335.708 135.449 333.831C133.752 331.955 124.35 323.188 121.053 320.526C124.434 312.901 131.722 303.437 144.723 293.886Z" fill="white"/>
<path opacity="0.3" d="M154.683 242.516C153.555 248.786 153.211 252.949 139.342 263.967C125.474 274.984 113.244 281.592 106.585 292.731C117.035 276.857 128.332 264.561 135.667 249.233C143.115 233.66 146.09 227.43 146.692 205.886C146.683 205.884 143.983 228.888 154.683 242.516Z" fill="white"/>
<path d="M262.478 184.061C257.854 185.805 246.919 189.099 236.157 176.628C231.876 171.677 230.059 158.162 229.409 148.653C225.878 131.061 211.156 141.839 205.386 148.039C202.964 150.625 202.721 157.724 202.721 157.724C202.721 157.724 204.832 193.168 224.567 203.622C234.338 208.815 253.249 209.333 265.313 203.03C275.504 197.695 272.166 180.464 262.478 184.061Z" fill="white"/>
<path d="M262.478 184.061C257.854 185.805 246.919 189.099 236.157 176.628C231.876 171.677 230.23 157.214 229.409 148.653C225.878 131.061 211.156 141.839 205.386 148.039C202.964 150.625 202.721 157.724 202.721 157.724C202.721 157.724 204.832 193.168 224.567 203.622C234.338 208.815 253.249 209.333 265.313 203.03C275.504 197.695 272.166 180.464 262.478 184.061Z" fill="#BECAD0"/>
<path d="M179.119 322.252C186.075 315.837 192.38 309.966 192.38 309.966C192.38 309.966 226.001 315.055 220.884 319.586C201.403 336.84 212.903 354.071 211.454 352.403C211.454 352.403 215.57 356.303 215.044 360.226C214.82 361.903 214.504 362.035 213.51 364.441C213.047 365.293 209.896 364.649 199.729 362.476C186.517 359.694 178.462 324.804 179.119 322.252Z" fill="white"/>
<path d="M233.525 139.331L227.706 142.929C227.706 142.929 232.898 142.241 226.335 159.553C216.456 185.713 209.622 195.91 214.457 211.857C214.478 221.656 243.406 266.803 243.767 285.678C244.143 305.287 208.923 329.204 208.923 329.204C208.923 329.204 190.489 332.687 183.913 317.835C206.93 295.302 206.886 283.334 194.635 269.513C187.838 261.877 180.744 256.71 174.254 251.25C158.626 238.135 146.896 229.945 146.621 204.027C146.424 185.104 146.436 186.711 147.374 170.722C148.291 155.09 148.855 145.112 149.605 134.094C150.393 122.577 151.777 101.86 160.947 100.333C184.003 96.4978 190.081 98.0723 197.86 99.1461C215.464 101.567 233.525 139.331 233.525 139.331Z" fill="white"/>
<path opacity="0.3" d="M215.159 224.818C219.781 228.941 223.518 233.954 226.143 239.553C229.871 247.238 214.323 218.211 213.043 204.871C210.665 204.915 202.96 169.135 199.62 160.635C199.532 160.405 199.603 159.198 199.516 159.011C199.147 158.932 198.79 158.805 198.455 158.631C191.925 170.875 190.147 201.395 215.159 224.818Z" fill="#BECAD0"/>
<path opacity="0.3" d="M201.81 118.822C201.81 118.822 209.855 134.222 202.979 151.212C201.346 163.641 222.801 164.97 222.801 164.97C224.363 160.646 226.148 156.405 228.147 152.264C230.952 146.638 201.81 118.822 201.81 118.822Z" fill="#BECAD0"/>
<path opacity="0.3" d="M218.362 282.789C213.762 265.245 184.354 244.559 174.895 233.756C150.961 206.499 150.8 182.199 184.882 138.845C184.882 138.845 152.287 105.686 150.977 119.531C149.666 133.375 148.396 153.031 148.396 153.031L147.495 170.581L147.363 170.694C146.425 186.683 146.405 185.117 146.61 203.999C146.884 229.917 158.569 238.124 174.242 251.222C180.732 256.683 187.85 261.818 194.624 269.485C206.878 283.289 206.376 298.387 179.094 322.256C179.094 322.256 180.153 329.109 181.99 335.853C193.148 327.971 223.382 302.074 218.362 282.789Z" fill="#BECAD0"/>
<path fill-rule="evenodd" clip-rule="evenodd" d="M273.266 86.4697C279.591 98.3057 280.458 109.58 277.389 119.159C277.351 119.308 277.272 119.445 277.161 119.552C277.05 119.66 276.911 119.736 276.76 119.771C276.609 119.805 276.451 119.798 276.304 119.75C276.156 119.701 276.025 119.614 275.924 119.496V119.496L273.266 86.4697Z" fill="#BECAD0"/>
<path fill-rule="evenodd" clip-rule="evenodd" d="M256.019 139.439C243.479 146.094 232.491 151.449 224.784 151.41C220.075 148.845 214.613 144.565 207.864 132.593C201.85 121.903 196.224 103.883 200.904 96.0279C205.737 87.754 217.752 74.2476 225.092 68.0904C245.372 59.8575 263.116 67.5325 273.266 86.4701C285.963 110.219 275.009 129.368 256.019 139.439Z" fill="white"/>
<path opacity="0.3" fill-rule="evenodd" clip-rule="evenodd" d="M273.265 86.47C285.962 110.219 275.026 129.371 255.977 139.431C243.437 146.086 232.449 151.441 224.742 151.402C220.032 148.837 214.571 144.558 207.822 132.585C201.808 121.896 203.414 122.451 200.501 111.435C200.501 111.435 212.7 90.106 234.018 79.4071C253.582 74.9604 262.129 77.8035 273.257 86.4685" fill="#BECAD0"/>
<path fill-rule="evenodd" clip-rule="evenodd" d="M273.266 86.47C285.963 110.219 275.026 129.371 255.978 139.431C243.437 146.086 232.45 151.441 224.743 151.402C220.033 148.837 214.572 144.558 207.823 132.585C201.808 121.896 196.182 103.875 200.863 96.0203C200.863 96.0203 197.728 110.756 210.93 128.44C224.133 146.124 250.04 134.688 258.951 127.843C267.862 120.999 279.018 103.981 273.224 86.4625" fill="#BECAD0"/>
<path d="M275.924 119.496C275.814 119.339 261.997 94.4871 241.411 96.758C230.772 97.9256 218.548 111.781 217.779 119.979C217.113 127.08 218.76 134.21 226.236 144.828C233.557 143.372 238.313 144.769 239.884 147.533C244.551 145.548 249.804 142.75 255.99 139.459C264.997 134.667 272.194 127.866 275.924 119.496Z" fill="#4000C7"/>
<path d="M231.279 105.598C233.799 103.834 235.604 101.23 236.367 98.2551C237.129 95.2804 236.801 92.1306 235.439 89.3732L216.278 105.474C218.457 107.047 221.073 107.904 223.761 107.926C226.45 107.948 229.078 107.134 231.279 105.598V105.598Z" fill="white"/>
<path opacity="0.3" d="M231.279 105.598C233.799 103.834 235.604 101.23 236.367 98.2551C237.129 95.2804 236.801 92.1306 235.439 89.3732L216.278 105.474C218.457 107.047 221.073 107.904 223.761 107.926C226.45 107.948 229.078 107.134 231.279 105.598V105.598Z" fill="#BECAD0"/>
<path d="M229.469 101.684C233.953 97.7174 234.68 91.2377 231.092 87.211C227.503 83.1843 220.958 83.1353 216.474 87.1016C211.989 91.0679 211.263 97.5475 214.851 101.574C218.44 105.601 224.984 105.65 229.469 101.684Z" fill="white"/>
<path d="M227.184 101.692C231.151 99.5879 232.651 94.6753 230.534 90.7196C228.416 86.7638 223.484 85.2627 219.517 87.3669C215.549 89.471 214.049 94.3836 216.167 98.3393C218.284 102.295 223.216 103.796 227.184 101.692Z" fill="white"/>
<path opacity="0.3" d="M227.184 101.692C231.151 99.5879 232.651 94.6753 230.534 90.7196C228.416 86.7638 223.484 85.2627 219.517 87.3669C215.549 89.471 214.049 94.3836 216.167 98.3393C218.284 102.295 223.216 103.796 227.184 101.692Z" fill="#BECAD0"/>
<path d="M259.587 184.991C259.587 184.991 268.249 181.974 274.356 177.733C280.463 173.492 285.262 175.128 285.16 177.849C285.186 179.182 284.948 180.508 284.458 181.749C284.458 181.749 306.748 187.203 303.809 193.954C293.365 217.411 279.514 205.345 266.951 203.934L255.762 206.385L259.587 184.991Z" fill="#BECAD0"/>
<path d="M259.587 184.992C259.587 184.992 268.249 181.974 274.356 177.733C280.463 173.492 285.262 175.128 285.16 177.849C285.186 179.183 284.948 180.508 284.459 181.749C284.459 181.749 299.605 185.66 303.789 191.435C305.321 193.557 302.693 196.999 301.123 199.069C302.73 194.688 298.878 191.668 294.167 189.824C290.069 188.109 285.741 187.001 281.322 186.534C282.545 185.442 283.519 184.102 284.178 182.603C284.837 181.105 285.166 179.483 285.144 177.846C279.17 173.972 267.219 192.1 258 193.712C258 193.712 226.259 202.029 225.861 154.625C226.259 152.413 226.16 152.962 227.532 153.338C228.767 153.496 230.021 153.403 231.218 153.065C231.218 153.065 228.916 174.527 243.841 183.12C246.207 184.465 248.821 185.324 251.525 185.646C254.23 185.967 256.971 185.745 259.587 184.992V184.992Z" fill="white"/>
<path d="M259.586 184.991C259.586 184.991 268.249 181.974 274.356 177.733C280.463 173.492 285.262 175.128 285.16 177.849C285.186 179.182 284.947 180.508 284.458 181.749C284.458 181.749 300.075 180.842 304.499 190.507C305.859 194.014 301.122 199.069 301.122 199.069C302.729 194.687 298.877 191.667 294.167 189.824C290.068 188.109 285.741 187 281.322 186.533C282.545 185.442 283.518 184.102 284.178 182.603C284.837 181.105 285.166 179.482 285.143 177.846C279.169 173.972 267.219 192.1 258 193.712C258 193.712 226.259 202.029 225.86 154.625C226.259 152.413 226.178 152.046 227.6 152.002C229.758 151.935 231.277 151.728 231.277 151.728C231.277 151.728 228.906 174.482 243.84 183.119C246.207 184.465 248.82 185.324 251.525 185.645C254.23 185.967 256.971 185.745 259.586 184.991V184.991Z" fill="white"/>
<path opacity="0.3" d="M259.586 184.991C259.586 184.991 268.249 181.974 274.356 177.733C280.463 173.492 285.262 175.128 285.16 177.849C285.186 179.182 284.947 180.508 284.458 181.749C284.458 181.749 300.075 180.842 304.499 190.507C305.859 194.014 301.122 199.069 301.122 199.069C302.729 194.687 298.877 191.667 294.167 189.824C290.068 188.109 285.741 187.001 281.322 186.533C282.545 185.442 283.518 184.102 284.178 182.603C284.837 181.105 285.166 179.482 285.143 177.846C279.169 173.972 267.219 192.1 258 193.712C258 193.712 226.259 202.029 225.86 154.625C226.259 152.413 226.057 151.715 227.48 151.705C228.904 151.696 231.167 151.433 231.167 151.433C231.167 151.433 228.916 174.527 243.84 183.119C246.207 184.465 248.82 185.324 251.525 185.645C254.23 185.967 256.971 185.745 259.586 184.991V184.991Z" fill="#BECAD0"/>
<path opacity="0.3" d="M266.926 203.93C266.926 203.93 274.36 197.919 277.503 193.53C280.645 189.142 294.837 194.572 294.475 196.585C294.113 198.597 291.139 204.252 282.391 207.795C277.59 206.836 266.926 203.93 266.926 203.93Z" fill="white"/>
<path d="M195.967 120.252C197.076 106.714 185.14 97.5606 171.618 98.8962C165.702 99.4886 157.251 100.423 148.906 101.677C133.74 104.005 116.944 111.989 113.634 126.023C111.495 135.082 109.185 154.766 108.147 171.741C105.499 177.549 101.727 185.817 100.172 189.289C98.5215 192.95 102.227 199.704 106.292 204.659C106.292 204.659 115.7 218.14 126.439 214.595C133.149 212.369 125.235 207.253 124.801 201.328C124.654 197.336 125.413 193.364 127.022 189.708C127.353 189.639 127.668 189.566 127.977 189.476C129.976 191.26 132.508 192.34 135.181 192.55C143.045 193.106 141.681 184.688 138.773 183.752C137.254 183.281 134.642 180.605 132.474 178.137C128.928 172.699 130.078 165.54 130.773 162.591C133.556 152.875 135.543 146.476 138.83 140.903C139.495 139.802 140.462 138.913 141.617 138.341C142.771 137.769 144.067 137.537 145.35 137.672C160.406 139.214 161.471 138.71 171.94 140.594C182.409 142.478 194.624 136.675 195.967 120.252Z" fill="white"/>
<path opacity="0.3" d="M124.797 201.353C125.23 207.278 133.232 212.719 126.434 214.62C114.501 217.951 106.287 204.684 106.287 204.684C106.287 204.684 100.192 198.273 100.682 195.554C112.924 201.663 121.678 195.263 124.797 201.353Z" fill="#BECAD0"/>
<g opacity="0.3">
<path opacity="0.3" d="M195.967 120.252C196.162 117.994 195.965 115.719 195.384 113.527C194.949 117.622 192.261 132.798 176.54 130.93C162.298 129.226 138.704 120.43 132.557 136.246C128.36 146.608 127.473 158.011 130.016 168.903C130.032 166.8 130.281 164.705 130.76 162.658C133.543 152.942 135.531 146.543 138.818 140.97C139.483 139.869 140.449 138.98 141.604 138.408C142.759 137.835 144.054 137.603 145.338 137.739C160.393 139.28 161.458 138.777 171.927 140.661C182.396 142.545 194.623 136.675 195.967 120.252Z" fill="#BECAD0"/>
</g>
<path d="M201.567 154.984C202.699 152.767 204.886 151.34 206.963 151.774C207.246 151.826 207.519 151.919 207.775 152.049C212.506 154.497 220.26 157.343 226.385 159.562C228.535 165.959 226.158 162.5 226.158 162.5C226.158 162.5 218.236 185.973 214.849 193.348C212.517 198.406 208.642 199.099 201.666 197.397C200.293 197.073 197.654 196.272 195.117 195.472C193.364 194.918 191.894 193.708 191.015 192.098C190.137 190.488 189.918 188.602 190.405 186.837C192.112 180.705 194.665 171.737 196.425 166.654C197.872 162.652 199.59 158.753 201.567 154.984V154.984Z" fill="white"/>
<path d="M201.048 155.715C202.382 153.096 205.274 151.393 207.69 151.905C208.003 151.987 208.31 152.094 208.606 152.224C215.061 154.673 219.044 155.193 225.948 156.435C229.033 157.162 226.887 161.756 226.887 161.756C226.887 161.756 218.081 187.224 213.871 197.731C213.395 199.438 213.081 201.187 212.931 202.953C213.065 204.892 211.501 207.212 202.502 206.932C199.201 206.836 194.882 206.599 191.872 205.654C189.808 205.005 188.076 203.583 187.043 201.688C186.009 199.793 185.754 197.573 186.331 195.496C188.337 188.276 191.494 179.254 193.769 173.319C196.222 166.729 199.547 158.647 201.048 155.715Z" fill="#BECAD0"/>
<path d="M227.461 162.014C227.461 162.014 219.244 181.861 215.445 195.258" stroke="#DEE4E7" stroke-width="1.4" stroke-miterlimit="10"/>
<g opacity="0.2">
<path opacity="0.2" d="M193.731 173.295C191.477 179.208 188.315 188.255 186.292 195.472C185.715 197.549 185.97 199.769 187.004 201.664C188.038 203.559 189.769 204.981 191.833 205.63C194.947 206.425 198.145 206.842 201.358 206.872C195.404 195.664 193.128 182.883 194.851 170.328C194.478 171.343 194.092 172.338 193.731 173.295Z" fill="white"/>
</g>
<path opacity="0.5" d="M199.516 159.01L198.448 158.672C198.448 158.672 199.107 157.211 199.948 155.508C200.789 153.805 201.664 152.151 202.985 151.178C202.926 151.766 202.915 152.359 202.951 152.949C202.169 153.886 201.515 154.924 201.008 156.034C200.179 157.722 199.527 158.995 199.516 159.01Z" fill="#DEE4E7"/>
<path d="M127.968 189.526C127.968 189.526 123.889 188.243 122.658 191.541C120.323 197.809 127.548 208.047 127.548 208.047C127.548 208.047 129.381 211.081 128.235 213.811C131.739 211.772 131.644 207.367 131.729 206.035C132.054 200.633 125.006 192.865 127.968 189.526Z" fill="#BECAD0"/>
<path opacity="0.5" d="M226.429 137.719C226.429 137.719 216.586 118.708 226.737 110.816C236.226 110.343 239.294 100.764 239.294 100.764C239.294 100.764 244.031 99.3499 251.658 102.131C258.558 104.734 264.322 109.674 267.936 116.084C267.936 116.084 264.14 126.785 247.462 134.069C231.071 141.19 226.429 137.719 226.429 137.719Z" fill="#5B55FF"/>
<path fill-rule="evenodd" clip-rule="evenodd" d="M239.907 147.503C239.907 147.503 240.003 147.683 240.115 147.927C240.225 148.17 240.236 148.446 240.146 148.698C240.056 148.949 239.871 149.155 239.631 149.273C237.327 150.315 234.878 151.006 232.367 151.323C231.484 151.439 227.708 152.451 224.786 151.401L227.081 150.715L239.907 147.503Z" fill="#BECAD0"/>
<path d="M174.44 234.172C177.244 237.364 181.672 241.355 186.796 245.977C199.046 257.025 214.294 270.767 217.773 282.898C217.866 283.773 219.021 297.804 209.122 307.647C209.462 307.863 209.803 308.079 210.163 308.281C220.537 297.759 218.967 282.872 218.951 282.723L218.968 282.632C215.411 270.161 200.001 256.27 187.625 245.105C182.531 240.505 178.128 236.527 175.364 233.394C152.002 206.79 154.136 184.302 168.291 140.848L167.092 140.709C153.097 183.609 150.886 207.345 174.44 234.172Z" fill="#DEE4E7"/>
<path d="M167.19 140.306L168.314 140.671L168.283 140.846L171.857 141.24C174.687 141.784 177.598 141.734 180.406 141.094C183.213 140.453 185.854 139.236 188.162 137.521C193.059 133.775 195.942 127.811 196.587 120.303C196.865 117.317 196.469 114.306 195.428 111.491C194.386 108.675 192.726 106.127 190.568 104.032C187.431 100.993 183.476 98.9271 179.184 98.0857C177.014 98.2189 174.578 98.4416 171.794 98.7735L171.775 98.8816C175.021 98.5046 178.311 98.8455 181.411 99.8797C184.511 100.914 187.345 102.616 189.712 104.865C191.741 106.843 193.302 109.246 194.281 111.9C195.26 114.554 195.633 117.391 195.372 120.205C194.781 127.37 192.028 133.039 187.409 136.578C185.226 138.197 182.727 139.344 180.072 139.946C177.417 140.547 174.664 140.59 171.99 140.071L149.406 137.544L149.302 138.126C149.267 138.317 149.233 138.508 149.265 138.712L167.008 140.694C167.099 140.573 167.144 140.418 167.19 140.306Z" fill="#DEE4E7"/>
<path d="M167.19 140.306C167.166 140.439 167.141 140.581 167.058 140.703L168.258 140.842L168.289 140.667L167.19 140.306Z" fill="#DEE4E7"/>
<path d="M170.606 267.455C167.275 268.29 165.13 270.058 162.66 272.095C159.881 274.519 156.789 276.561 153.465 278.168C149.527 280.034 145.48 283.075 145.961 285.909C146.255 287.628 148.136 288.816 151.532 289.487L152.633 288.827C149.095 288.276 147.037 287.21 146.789 285.766C146.54 284.322 148.038 282.462 150.656 280.701L151.267 280.133L151.398 280.268C152.191 279.778 153.011 279.332 153.853 278.933C155.155 278.309 156.298 277.656 157.329 277.051L156.995 276.751L157.577 276.152C157.577 276.152 157.762 276.322 158.077 276.585C159.87 275.404 161.588 274.113 163.22 272.72L163.513 272.481L163.13 272.214L163.637 271.55C163.637 271.55 163.843 271.699 164.2 271.917C166.093 270.193 168.365 268.935 170.834 268.243C173.923 267.46 177.726 268.264 179.593 268.763L180.21 268.016C178.434 267.585 174.155 266.557 170.606 267.455Z" fill="#DEE4E7"/>
<path d="M164.17 271.938L163.483 272.501C165.876 273.952 168.527 274.931 171.29 275.382C171.716 275.459 172.125 275.533 172.608 275.577C172.893 275.336 173.171 275.086 173.451 274.87C170.181 274.576 167.014 273.576 164.17 271.938V271.938Z" fill="#DEE4E7"/>
<path d="M163.649 271.578L163.142 272.242L163.525 272.508L164.212 271.945C163.813 271.719 163.649 271.578 163.649 271.578Z" fill="#DEE4E7"/>
<path d="M158.047 276.605L157.3 277.072C159.581 279.092 162.333 280.511 165.305 281.2L166.29 280.518C162.519 280.063 159.252 277.621 158.047 276.605Z" fill="#DEE4E7"/>
<path d="M157.547 276.172L156.965 276.771L157.299 277.072L158.047 276.605C157.732 276.343 157.562 276.183 157.547 276.172Z" fill="#DEE4E7"/>
<path d="M150.648 280.743C152.793 282.974 155.448 284.654 158.386 285.638L159.359 285.023C155.327 284.152 152.015 280.954 151.368 280.288L150.648 280.743Z" fill="#DEE4E7"/>
<path d="M151.237 280.153L150.626 280.721L151.345 280.267L151.237 280.153Z" fill="#DEE4E7"/>
<path d="M126.297 294.742C126.098 295.033 125.891 295.322 125.7 295.614L124.714 294.964C124.869 294.726 125.031 294.497 125.193 294.269C120.156 292.096 115.857 288.516 112.817 283.962C112.566 284.304 112.307 284.643 112.057 284.976C113.649 287.361 115.614 289.477 117.876 291.243C122.382 294.745 127.695 297.068 133.33 298C135.052 298.307 136.792 298.509 138.539 298.602C138.986 298.228 139.441 297.854 139.914 297.476C135.247 297.395 130.633 296.468 126.297 294.742Z" fill="#DEE4E7"/>
<path d="M149.234 272.847C151.746 270.861 154.119 268.979 156.39 267.086C166.633 258.541 166.953 244.742 166.96 244.606L165.774 244.589C165.751 244.714 165.449 257.985 155.621 266.184C153.37 268.063 151.007 269.938 148.495 271.924C139.881 278.745 130.984 285.798 125.197 294.244L126.302 294.718C131.998 286.53 140.746 279.588 149.234 272.847Z" fill="#DEE4E7"/>
<path d="M125.709 295.615C125.899 295.323 126.106 295.034 126.305 294.744L125.201 294.27C125.039 294.499 124.877 294.727 124.722 294.965L125.709 295.615Z" fill="#DEE4E7"/>
<path d="M229.006 300.708C228.711 300.544 228.455 300.317 228.256 300.045C228.056 299.773 227.919 299.461 227.852 299.131C227.786 298.801 227.791 298.46 227.869 298.133C227.947 297.805 228.095 297.498 228.304 297.233C229.075 296.11 229.696 295.097 230.221 294.144C229.907 293.976 229.73 293.858 229.721 293.857L230.183 293.159L230.612 293.408C231.614 291.697 232.182 289.77 232.27 287.79L231.643 287.729L231.793 286.898L232.26 286.982C232.026 285.596 231.541 284.264 230.83 283.05C230.562 282.529 230.297 281.992 230.053 281.433L229.469 281.8L229.025 281.154C229.34 281.931 229.695 282.691 230.089 283.432C231.688 286.57 232.957 289.048 227.695 296.738C226.535 298.392 226.896 300.122 228.589 301.346C229.506 301.976 230.553 302.396 231.652 302.575C233.857 302.968 236.129 302.578 238.073 301.473C238.545 300.768 239.008 300.061 239.438 299.349C236.329 302.593 231.365 302.395 229.006 300.708Z" fill="#DEE4E7"/>
<path d="M228.156 275.777C228.025 277.575 228.289 279.38 228.928 281.067C228.997 281.02 229.252 280.851 229.648 280.613C229.085 279.072 228.855 277.43 228.972 275.795C229.063 275.192 229.293 274.619 229.644 274.121C229.996 273.622 230.459 273.212 230.997 272.923C233.772 271.296 236.947 270.467 240.168 270.529L239.856 269.675C236.57 269.666 233.345 270.549 230.527 272.229C229.879 272.591 229.325 273.101 228.913 273.718C228.501 274.335 228.242 275.041 228.156 275.777V275.777Z" fill="#DEE4E7"/>
<path d="M229.669 280.643C229.767 280.909 229.874 281.177 229.992 281.431C231.932 280.234 238.405 276.591 242.534 277.927C242.46 277.621 242.371 277.305 242.283 277.023C237.845 275.967 231.771 279.355 229.669 280.643Z" fill="#DEE4E7"/>
<path d="M229.967 281.426C229.849 281.173 229.742 280.905 229.643 280.638C229.247 280.876 228.993 281.045 228.924 281.092L228.915 281.142L229.359 281.789L229.967 281.426Z" fill="#DEE4E7"/>
<path d="M232.27 287.79C236.14 288.136 240.04 287.801 243.791 286.798C243.842 286.516 243.801 286.216 243.799 285.941C240.033 286.973 236.111 287.32 232.22 286.966C232.251 287.239 232.268 287.515 232.27 287.79V287.79Z" fill="#DEE4E7"/>
<path d="M231.619 287.759L232.246 287.82C232.248 287.531 232.234 287.242 232.204 286.954L231.736 286.87L231.619 287.759Z" fill="#DEE4E7"/>
<path d="M230.609 293.424C230.489 293.66 230.357 293.911 230.218 294.161C231.676 294.97 233.255 295.544 234.894 295.861C237.198 296.327 239.591 296.005 241.686 294.945C241.877 294.507 242.05 294.075 242.222 293.642C237.537 296.834 232.137 294.274 230.609 293.424Z" fill="#DEE4E7"/>
<path d="M229.718 293.873C229.718 293.873 229.904 293.993 230.218 294.161C230.358 293.911 230.489 293.66 230.609 293.424L230.18 293.175L229.718 293.873Z" fill="#DEE4E7"/>
<path d="M210.162 308.281C209.866 308.588 209.562 308.885 209.242 309.18L208.441 308.314C208.67 308.098 208.9 307.873 209.122 307.647C203.245 303.902 200.776 299.663 199.935 297.82C199.719 298.254 199.477 298.691 199.233 299.136C201.195 302.984 207.357 311.468 224.363 314.528C225.031 314.648 225.715 314.772 226.417 314.898C226.772 314.55 227.142 314.17 227.469 313.842C219.874 312.793 214.263 310.684 210.162 308.281Z" fill="#DEE4E7"/>
<path d="M208.441 308.314L209.242 309.18C209.563 308.885 209.866 308.588 210.163 308.281C209.803 308.079 209.462 307.863 209.122 307.647C208.9 307.873 208.67 308.098 208.441 308.314Z" fill="#DEE4E7"/>
<path d="M113.899 335.619C106.119 332.964 98.6281 329.53 91.541 325.371C91.4617 325.812 91.3914 326.203 91.3195 326.602C98.3761 330.705 105.823 334.102 113.551 336.741C117.44 338.021 121.416 339.023 125.448 339.741C128.929 340.38 132.449 340.789 135.984 340.967C136.048 340.61 136.119 340.219 136.127 339.791C128.565 339.398 121.089 337.994 113.899 335.619V335.619Z" fill="#DEE4E7"/>
<path d="M199.236 349.603L199.11 350.782C203.486 351.236 207.824 352.003 212.091 353.075C211.855 352.809 211.666 352.612 211.556 352.507C211.648 352.523 211.507 352.249 211.269 351.657C207.306 350.715 203.287 350.028 199.236 349.603Z" fill="#DEE4E7"/>
<path d="M195.15 354.156C186.51 343.638 182.979 324.131 182.222 319.385L181.185 320.357C182.154 326.275 185.72 344.535 194.24 354.902C197.31 358.632 204.386 360.549 209.612 361.489C211.641 361.854 213.385 362.074 214.51 362.191C214.684 361.823 214.816 361.439 214.907 361.043C211.31 360.67 199.173 359.053 195.15 354.156Z" fill="#DEE4E7"/>
<path d="M188.621 188.516L187.884 189.448C188.104 189.616 191.473 192.206 198.786 193.522C204.531 194.462 210.384 194.537 216.148 193.744L216.005 192.577C196.997 194.891 188.695 188.581 188.621 188.516Z" fill="#DEE4E7"/>
<path d="M224.191 164.189C223.235 162.506 220.867 162.449 218.923 164.057C216.979 165.665 216.166 168.36 217.113 170.042C218.068 171.725 220.437 171.782 222.39 170.176C224.342 168.57 225.146 165.872 224.191 164.189Z" fill="#EB581A"/>
<path d="M212.854 168.133C214.029 167.16 214.521 165.531 213.945 164.518C213.369 163.504 211.937 163.461 210.762 164.434C209.587 165.408 209.087 167.035 209.672 168.05C210.256 169.065 211.679 169.107 212.854 168.133Z" fill="#08C4C7"/>
<path d="M205.373 166.787C206.557 165.815 207.04 164.185 206.464 163.171C205.888 162.158 204.456 162.115 203.281 163.088C202.106 164.061 201.615 165.69 202.191 166.704C202.767 167.717 204.198 167.761 205.373 166.787Z" fill="#5B55FF"/>
<path d="M216.953 176.538L215.394 176.386C210.529 176.025 205.703 175.249 200.97 174.065C199.603 173.782 198.18 174.021 196.982 174.734C195.784 175.447 194.899 176.582 194.502 177.915C194.225 178.532 194.077 179.199 194.068 179.875C194.059 180.551 194.189 181.222 194.45 181.847C195.078 183.144 196.549 183.735 197.857 184.177C199.525 184.686 201.221 185.097 202.936 185.409C206.458 186.007 210.034 186.225 213.602 186.057L215.116 186.029C217.34 186.026 219.38 184.221 220.219 181.616C220.452 181.047 220.553 180.433 220.514 179.819C220.475 179.206 220.298 178.609 219.995 178.073C219.636 177.605 219.176 177.225 218.65 176.959C218.123 176.693 217.543 176.549 216.953 176.538V176.538ZM219.06 181.21C218.415 183.309 216.796 184.786 215.114 184.793L213.574 184.825C208.386 185.097 203.188 184.475 198.21 182.987C197.138 182.665 195.98 182.208 195.507 181.29C195.324 180.805 195.241 180.29 195.261 179.773C195.282 179.256 195.406 178.749 195.626 178.281C195.931 177.267 196.589 176.395 197.482 175.822C198.375 175.249 199.445 175.013 200.498 175.156L200.707 175.194C205.501 176.391 210.388 177.176 215.316 177.54L216.875 177.692C217.284 177.686 217.69 177.771 218.063 177.939C218.436 178.107 218.768 178.355 219.035 178.664C219.226 179.064 219.326 179.501 219.328 179.944C219.33 180.386 219.235 180.824 219.049 181.225L219.06 181.21Z" fill="#DEE4E7"/>
<path d="M261.008 195.147C261.531 189.986 258.143 187.119 255.504 185.691C254.806 185.756 254.105 185.781 253.404 185.768L253.035 185.761L252.843 185.727L252.643 185.691C254.329 186.235 260.48 188.647 259.839 194.988C259.25 200.797 254.837 205.154 252.804 206.875C253.55 206.751 254.289 206.618 255.013 206.474C257.374 204.229 260.518 200.261 261.008 195.147Z" fill="#DEE4E7"/>
<path d="M120.167 149.204C116.498 149.284 112.916 150.331 109.787 152.238C109.698 152.729 109.685 153.233 109.63 153.73C112.763 151.66 116.412 150.501 120.171 150.381C125.721 150.384 129.693 152.738 132.264 157.562C132.42 157.032 132.574 156.511 132.733 156.007C129.926 151.492 125.71 149.197 120.167 149.204Z" fill="#DEE4E7"/>
<path d="M242.768 135.483L231.567 120.185C231.345 119.877 231.044 119.634 230.695 119.482C230.346 119.329 229.962 119.274 229.585 119.321C229.207 119.369 228.849 119.517 228.549 119.75C228.25 119.983 228.019 120.293 227.881 120.647C226.999 122.933 226.702 125.403 227.017 127.834C227.332 130.264 228.249 132.58 229.685 134.571V134.571C230.514 135.698 231.672 136.542 233.001 136.987C234.33 137.432 235.764 137.457 237.107 137.057L242.768 135.483Z" stroke="#5B55FF" stroke-width="2.12" stroke-linecap="round" stroke-linejoin="round"/>
</g>
<defs>
<linearGradient id="paint0_linear_6234_168702" x1="896" y1="746.792" x2="896" y2="-9.09282" gradientUnits="userSpaceOnUse">
<stop stop-color="#1D1A50"/>
<stop offset="1" stop-color="#3A257F"/>
</linearGradient>
<linearGradient id="paint1_linear_6234_168702" x1="895.999" y1="746.791" x2="895.999" y2="-9.09327" gradientUnits="userSpaceOnUse">
<stop stop-color="#1D1A50"/>
<stop offset="1" stop-color="#3A257F"/>
</linearGradient>
<radialGradient id="paint2_radial_6234_168702" cx="0" cy="0" r="1" gradientUnits="userSpaceOnUse" gradientTransform="translate(65.9991 29.0478) rotate(39.1984) scale(797.458 772.704)">
<stop offset="0.260417" stop-color="#4C2193" stop-opacity="0.6"/>
<stop offset="0.51" stop-color="#3D17AD" stop-opacity="0.3"/>
<stop offset="1" stop-color="#1C0958" stop-opacity="0"/>
</radialGradient>
<radialGradient id="paint3_radial_6234_168702" cx="0" cy="0" r="1" gradientUnits="userSpaceOnUse" gradientTransform="translate(1785 739.942) rotate(-134.601) scale(811.778 801.906)">
<stop offset="0.243855" stop-color="#4C2193" stop-opacity="0.6"/>
<stop offset="0.51" stop-color="#3D17AD" stop-opacity="0.3"/>
<stop offset="1" stop-color="#1C0958" stop-opacity="0"/>
</radialGradient>
<clipPath id="clip0_6234_168702">
<rect width="1792" height="750" fill="white"/>
</clipPath>
<clipPath id="clip1_6234_168702">
<rect width="202" height="301" fill="white" transform="translate(126.253 43.6406) rotate(10.2018)"/>
</clipPath>
</defs>
</svg>
