<svg width="141" height="217" viewBox="0 0 141 217" fill="none" xmlns="http://www.w3.org/2000/svg">
<rect opacity="0.1" width="80" height="80" rx="10" fill="#F3A4B7"/>
<path d="M56.6445 33.5106L28.0405 22.0584C27.5586 21.8653 27.0355 21.8057 26.5248 21.8857C26.0141 21.9656 25.5344 22.1823 25.1349 22.5134C24.7354 22.8444 24.4307 23.2779 24.252 23.7692C24.0734 24.2606 24.0273 24.792 24.1184 25.3089L29.7608 57.3086C29.8523 57.8252 30.0777 58.3085 30.4137 58.7088C30.7496 59.1092 31.1842 59.4121 31.6726 59.5865C32.161 59.7609 32.6858 59.8005 33.1929 59.7013C33.7 59.602 34.1712 59.3674 34.5581 59.0216L57.5202 38.4769C57.8932 38.143 58.1748 37.7171 58.3383 37.24C58.5017 36.7628 58.5413 36.2505 58.4535 35.752C58.3656 35.2535 58.1531 34.7856 57.8363 34.3932C57.5195 34.0007 57.1092 33.6968 56.6445 33.5106Z" fill="#F3A4B7"/>
<g clip-path="url(#clip0_4336_79473)">
<g clip-path="url(#clip1_4336_79473)">
<path d="M121.529 194.832L132.421 192.537C133.004 192.414 133.547 192.969 133.424 193.542L132.644 199.364L135.462 203.211C135.805 203.686 135.533 204.413 134.95 204.536L125.339 206.561C124.64 206.708 123.935 206.249 123.788 205.55L121.529 194.832Z" fill="#E6663C" fill-opacity="0.2"/>
<path d="M126.973 204.209L117.944 206.112L115.416 194.113L122.289 192.664C123.512 192.407 124.653 193.2 124.898 194.365L126.973 204.209Z" fill="#F7CEC0"/>
<path d="M122.289 192.664L115.416 194.113L115.821 196.035L124.849 194.132C124.5 193.05 123.396 192.431 122.289 192.664Z" fill="#E6663C" fill-opacity="0.3"/>
<path opacity="0.7" d="M133.351 194.348L133.424 193.542C133.547 192.969 133.004 192.414 132.421 192.536L127.703 193.531L128.108 195.453L133.351 194.348Z" fill="#E6663C" fill-opacity="0.3"/>
<path d="M127.704 193.531L124.849 194.132L125.254 196.054L128.109 195.453L127.704 193.531Z" fill="#E6663C" fill-opacity="0.3"/>
<path fill-rule="evenodd" clip-rule="evenodd" d="M113.577 192.029C114.264 191.823 115.028 192.27 115.175 192.969L118.451 208.514L118.451 208.514L119.197 212.053C119.332 212.694 118.988 213.374 118.372 213.626C117.686 213.831 116.922 213.384 116.775 212.685L116.004 209.03L115.219 205.303L112.753 193.602C112.618 192.961 112.961 192.28 113.577 192.029Z" fill="#E6663C" fill-opacity="0.5"/>
</g>
</g>
<g clip-path="url(#clip2_4336_79473)">
<path d="M120.729 161.275L122.55 155.468C122.608 155.368 122.616 155.24 122.545 155.132C122.523 155.053 122.452 154.946 122.381 154.838C122.281 154.78 122.182 154.723 122.082 154.665C121.953 154.657 121.874 154.678 121.745 154.671C121.745 154.671 117.956 155.812 116.323 156.335C115.851 156.461 115.47 156.774 115.211 157.224L113.135 160.82C112.673 161.619 113.363 162.616 114.25 162.463L120.141 161.602L120.22 161.581C120.299 161.56 120.406 161.489 120.485 161.467C120.692 161.454 120.75 161.354 120.729 161.275Z" fill="#E6663C" fill-opacity="0.3"/>
<path d="M124.874 163.669L128.993 159.188C129.05 159.088 129.158 159.017 129.287 159.025C129.366 159.003 129.494 159.011 129.623 159.019C129.723 159.077 129.823 159.134 129.923 159.192C129.994 159.299 130.015 159.378 130.086 159.486C130.086 159.486 130.991 163.338 131.356 165.014C131.483 165.486 131.402 165.972 131.142 166.422L129.066 170.018C128.605 170.817 127.396 170.718 127.085 169.873L124.886 164.341L124.864 164.262C124.843 164.183 124.851 164.055 124.83 163.976C124.788 163.818 124.845 163.719 124.874 163.669Z" fill="#E6663C" fill-opacity="0.3"/>
<path d="M123.227 167.246C123.377 167.332 123.556 167.369 123.734 167.405C123.913 167.442 124.07 167.4 124.257 167.307C128.959 165.161 131.742 160.109 132.429 156.843C133.239 153.249 132.382 149.89 131.881 148.336C131.796 148.021 131.654 147.806 131.404 147.661C131.155 147.517 130.897 147.502 130.611 147.536C129.014 147.88 125.677 148.816 122.969 151.315C120.534 153.572 117.472 158.529 117.993 163.624C118.035 163.782 118.077 163.94 118.17 164.126C118.291 164.262 118.412 164.399 118.561 164.485L123.256 167.196L123.227 167.246Z" fill="#F9E2DA"/>
<path d="M131.39 147.653C131.141 147.509 130.883 147.494 130.597 147.528C129 147.872 125.663 148.808 122.955 151.307C120.52 153.563 117.458 158.521 117.979 163.616C118.021 163.774 118.063 163.931 118.156 164.118C118.277 164.254 118.398 164.391 118.547 164.477L120.895 165.832L131.39 147.653Z" fill="#E6663C" fill-opacity="0.5"/>
<path d="M117.966 163.675C118.007 163.832 118.049 163.99 118.14 164.175C118.26 164.311 118.38 164.447 118.528 164.533L123.239 167.253C123.388 167.339 123.566 167.375 123.743 167.411C123.921 167.447 124.078 167.404 124.263 167.311C125.27 166.827 126.207 166.236 127.073 165.537L118.097 160.355C117.925 161.455 117.881 162.561 117.966 163.675Z" fill="#E6663C"/>
<path d="M120.866 165.882L123.213 167.238C123.363 167.324 123.542 167.361 123.72 167.397C123.899 167.434 124.056 167.392 124.243 167.299C125.254 166.818 126.193 166.228 127.062 165.531L122.567 162.936L120.866 165.882Z" fill="#E6663C"/>
<path d="M132.686 152.33C132.563 150.928 132.283 149.567 131.846 148.249C131.782 148.013 131.64 147.798 131.39 147.654L129.689 150.6L132.686 152.33Z" fill="#E6663C" fill-opacity="0.5"/>
<path d="M126.693 148.87C127.968 148.275 129.241 147.821 130.601 147.541C130.837 147.478 131.141 147.509 131.39 147.654L129.689 150.6L126.693 148.87Z" fill="#E6663C" fill-opacity="0.3"/>
<path d="M129.291 154.803C129.447 155.392 129.39 155.988 129.154 156.534C128.917 157.08 128.473 157.532 127.94 157.776C127.396 158.039 126.803 158.117 126.203 157.98C125.622 157.854 125.115 157.51 124.739 157.03C124.382 156.562 124.175 155.97 124.202 155.381C124.228 154.793 124.456 154.216 124.85 153.761C125.243 153.305 125.779 153.011 126.364 152.903C126.949 152.794 127.561 152.911 128.071 153.206C128.364 153.375 128.624 153.604 128.831 153.881C129.056 154.168 129.22 154.473 129.291 154.803Z" fill="#E6663C"/>
<path d="M122.653 164.584C121.373 166.801 120.415 167.688 119.946 167.417C119.545 167.185 119.767 165.873 121.047 163.656C122.327 161.439 124.106 159.131 124.575 159.401C125.043 159.672 123.966 162.31 122.653 164.584Z" fill="#F3B39E"/>
</g>
<circle opacity="0.9" cx="124" cy="115" r="12" fill="#E6663C" fill-opacity="0.3"/>
<path fill-rule="evenodd" clip-rule="evenodd" d="M117.97 125.377C115.668 123.191 114.233 120.101 114.233 116.676C114.233 110.048 119.606 104.676 126.233 104.676C128.431 104.676 130.492 105.267 132.263 106.298C130.112 104.254 127.202 103 124 103C117.373 103 112 108.373 112 115C112 119.429 114.4 123.298 117.97 125.377Z" fill="#E6663C" fill-opacity="0.3"/>
<path d="M128.775 114.373L122.183 110.345C122.072 110.277 121.945 110.24 121.815 110.238C121.685 110.235 121.556 110.267 121.443 110.331C121.329 110.395 121.235 110.487 121.169 110.6C121.103 110.712 121.068 110.84 121.068 110.97V119.027C121.069 119.158 121.103 119.285 121.169 119.397C121.235 119.51 121.329 119.602 121.443 119.666C121.556 119.73 121.685 119.762 121.815 119.76C121.945 119.757 122.072 119.72 122.183 119.652L128.775 115.624C128.882 115.558 128.97 115.467 129.032 115.357C129.093 115.248 129.125 115.124 129.125 114.999C129.125 114.873 129.093 114.75 129.032 114.64C128.97 114.531 128.882 114.439 128.775 114.373Z" fill="white"/>
<path d="M37.5 81.0625C37.5 81.6148 37.9477 82.0625 38.5 82.0625C39.0523 82.0625 39.5 81.6148 39.5 81.0625H37.5ZM39.5 87.4375C39.5 86.8852 39.0523 86.4375 38.5 86.4375C37.9477 86.4375 37.5 86.8852 37.5 87.4375H39.5ZM37.5 89.5625C37.5 90.1148 37.9477 90.5625 38.5 90.5625C39.0523 90.5625 39.5 90.1148 39.5 89.5625H37.5ZM39.5 95.9375C39.5 95.3852 39.0523 94.9375 38.5 94.9375C37.9477 94.9375 37.5 95.3852 37.5 95.9375H39.5ZM37.5 98.0625C37.5 98.6148 37.9477 99.0625 38.5 99.0625C39.0523 99.0625 39.5 98.6148 39.5 98.0625H37.5ZM39.5 104.438C39.5 103.885 39.0523 103.438 38.5 103.438C37.9477 103.438 37.5 103.885 37.5 104.438H39.5ZM37.5 106.562C37.5 107.115 37.9477 107.562 38.5 107.562C39.0523 107.562 39.5 107.115 39.5 106.562H37.5ZM39.5 112.938C39.5 112.385 39.0523 111.938 38.5 111.938C37.9477 111.938 37.5 112.385 37.5 112.938H39.5ZM102.977 113C102.424 113 101.977 113.448 101.977 114C101.977 114.552 102.424 115 102.977 115V113ZM96.8359 115C97.3882 115 97.8359 114.552 97.8359 114C97.8359 113.448 97.3882 113 96.8359 113V115ZM94.7891 113C94.2368 113 93.7891 113.448 93.7891 114C93.7891 114.552 94.2368 115 94.7891 115V113ZM88.6484 115C89.2007 115 89.6484 114.552 89.6484 114C89.6484 113.448 89.2007 113 88.6484 113V115ZM86.6016 113C86.0493 113 85.6016 113.448 85.6016 114C85.6016 114.552 86.0493 115 86.6016 115V113ZM80.4609 115C81.0132 115 81.4609 114.552 81.4609 114C81.4609 113.448 81.0132 113 80.4609 113V115ZM78.4141 113C77.8618 113 77.4141 113.448 77.4141 114C77.4141 114.552 77.8618 115 78.4141 115V113ZM72.2734 115C72.8257 115 73.2734 114.552 73.2734 114C73.2734 113.448 72.8257 113 72.2734 113V115ZM70.2266 113C69.6743 113 69.2266 113.448 69.2266 114C69.2266 114.552 69.6743 115 70.2266 115V113ZM64.0859 115C64.6382 115 65.0859 114.552 65.0859 114C65.0859 113.448 64.6382 113 64.0859 113V115ZM62.0391 113C61.4868 113 61.0391 113.448 61.0391 114C61.0391 114.552 61.4868 115 62.0391 115V113ZM55.8984 115C56.4507 115 56.8984 114.552 56.8984 114C56.8984 113.448 56.4507 113 55.8984 113V115ZM53.8516 113C53.2993 113 52.8516 113.448 52.8516 114C52.8516 114.552 53.2993 115 53.8516 115V113ZM47.7109 115C48.2632 115 48.7109 114.552 48.7109 114C48.7109 113.448 48.2632 113 47.7109 113V115ZM45.6641 113C45.1118 113 44.6641 113.448 44.6641 114C44.6641 114.552 45.1118 115 45.6641 115V113ZM39.5234 115C40.0757 115 40.5234 114.552 40.5234 114C40.5234 113.448 40.0757 113 39.5234 113V115ZM37.5 114.927C37.5 115.479 37.9477 115.927 38.5 115.927C39.0523 115.927 39.5 115.479 39.5 114.927H37.5ZM39.5 120.49C39.5 119.937 39.0523 119.49 38.5 119.49C37.9477 119.49 37.5 119.937 37.5 120.49H39.5ZM37.5 122.344C37.5 122.896 37.9477 123.344 38.5 123.344C39.0523 123.344 39.5 122.896 39.5 122.344H37.5ZM39.5 127.906C39.5 127.354 39.0523 126.906 38.5 126.906C37.9477 126.906 37.5 127.354 37.5 127.906H39.5ZM37.5 129.76C37.5 130.313 37.9477 130.76 38.5 130.76C39.0523 130.76 39.5 130.313 39.5 129.76H37.5ZM39.5 135.323C39.5 134.771 39.0523 134.323 38.5 134.323C37.9477 134.323 37.5 134.771 37.5 135.323H39.5ZM37.5 137.177C37.5 137.729 37.9477 138.177 38.5 138.177C39.0523 138.177 39.5 137.729 39.5 137.177H37.5ZM39.5 142.74C39.5 142.187 39.0523 141.74 38.5 141.74C37.9477 141.74 37.5 142.187 37.5 142.74H39.5ZM37.5 144.594C37.5 145.146 37.9477 145.594 38.5 145.594C39.0523 145.594 39.5 145.146 39.5 144.594H37.5ZM39.5 150.156C39.5 149.604 39.0523 149.156 38.5 149.156C37.9477 149.156 37.5 149.604 37.5 150.156H39.5ZM37.5 152.01C37.5 152.563 37.9477 153.01 38.5 153.01C39.0523 153.01 39.5 152.563 39.5 152.01H37.5ZM39.5 157.573C39.5 157.021 39.0523 156.573 38.5 156.573C37.9477 156.573 37.5 157.021 37.5 157.573H39.5ZM102.977 157.5C102.424 157.5 101.977 157.948 101.977 158.5C101.977 159.052 102.424 159.5 102.977 159.5V157.5ZM96.8359 159.5C97.3882 159.5 97.8359 159.052 97.8359 158.5C97.8359 157.948 97.3882 157.5 96.8359 157.5V159.5ZM94.7891 157.5C94.2368 157.5 93.7891 157.948 93.7891 158.5C93.7891 159.052 94.2368 159.5 94.7891 159.5V157.5ZM88.6484 159.5C89.2007 159.5 89.6484 159.052 89.6484 158.5C89.6484 157.948 89.2007 157.5 88.6484 157.5V159.5ZM86.6016 157.5C86.0493 157.5 85.6016 157.948 85.6016 158.5C85.6016 159.052 86.0493 159.5 86.6016 159.5V157.5ZM80.4609 159.5C81.0132 159.5 81.4609 159.052 81.4609 158.5C81.4609 157.948 81.0132 157.5 80.4609 157.5V159.5ZM78.4141 157.5C77.8618 157.5 77.4141 157.948 77.4141 158.5C77.4141 159.052 77.8618 159.5 78.4141 159.5V157.5ZM72.2734 159.5C72.8257 159.5 73.2734 159.052 73.2734 158.5C73.2734 157.948 72.8257 157.5 72.2734 157.5V159.5ZM70.2266 157.5C69.6743 157.5 69.2266 157.948 69.2266 158.5C69.2266 159.052 69.6743 159.5 70.2266 159.5V157.5ZM64.0859 159.5C64.6382 159.5 65.0859 159.052 65.0859 158.5C65.0859 157.948 64.6382 157.5 64.0859 157.5V159.5ZM62.0391 157.5C61.4868 157.5 61.0391 157.948 61.0391 158.5C61.0391 159.052 61.4868 159.5 62.0391 159.5V157.5ZM55.8984 159.5C56.4507 159.5 56.8984 159.052 56.8984 158.5C56.8984 157.948 56.4507 157.5 55.8984 157.5V159.5ZM53.8516 157.5C53.2993 157.5 52.8516 157.948 52.8516 158.5C52.8516 159.052 53.2993 159.5 53.8516 159.5V157.5ZM47.7109 159.5C48.2632 159.5 48.7109 159.052 48.7109 158.5C48.7109 157.948 48.2632 157.5 47.7109 157.5V159.5ZM45.6641 157.5C45.1118 157.5 44.6641 157.948 44.6641 158.5C44.6641 159.052 45.1118 159.5 45.6641 159.5V157.5ZM39.5234 159.5C40.0757 159.5 40.5234 159.052 40.5234 158.5C40.5234 157.948 40.0757 157.5 39.5234 157.5V159.5ZM37.5 159.531C37.5 160.084 37.9477 160.531 38.5 160.531C39.0523 160.531 39.5 160.084 39.5 159.531H37.5ZM39.5 165.719C39.5 165.166 39.0523 164.719 38.5 164.719C37.9477 164.719 37.5 165.166 37.5 165.719H39.5ZM37.5 167.781C37.5 168.334 37.9477 168.781 38.5 168.781C39.0523 168.781 39.5 168.334 39.5 167.781H37.5ZM39.5 173.969C39.5 173.416 39.0523 172.969 38.5 172.969C37.9477 172.969 37.5 173.416 37.5 173.969H39.5ZM37.5 176.031C37.5 176.584 37.9477 177.031 38.5 177.031C39.0523 177.031 39.5 176.584 39.5 176.031H37.5ZM39.5 182.219C39.5 181.666 39.0523 181.219 38.5 181.219C37.9477 181.219 37.5 181.666 37.5 182.219H39.5ZM37.5 184.281C37.5 184.834 37.9477 185.281 38.5 185.281C39.0523 185.281 39.5 184.834 39.5 184.281H37.5ZM39.5 190.469C39.5 189.916 39.0523 189.469 38.5 189.469C37.9477 189.469 37.5 189.916 37.5 190.469H39.5ZM37.5617 192.774C37.6152 193.323 38.1041 193.725 38.6538 193.672C39.2035 193.618 39.6058 193.129 39.5523 192.58L37.5617 192.774ZM41.9962 198.478C41.6456 198.051 41.0154 197.99 40.5887 198.34C40.162 198.691 40.1003 199.321 40.4509 199.748L41.9962 198.478ZM42.2523 201.549C42.6791 201.9 43.3092 201.838 43.6598 201.411C44.0104 200.985 43.9487 200.354 43.522 200.004L42.2523 201.549ZM49.4202 202.448C48.8705 202.394 48.3815 202.796 48.328 203.346C48.2745 203.896 48.6768 204.385 49.2265 204.438L49.4202 202.448ZM51.4554 204.5C52.0076 204.5 52.4554 204.052 52.4554 203.5C52.4554 202.948 52.0076 202.5 51.4554 202.5V204.5ZM57.1875 202.5C56.6352 202.5 56.1875 202.948 56.1875 203.5C56.1875 204.052 56.6352 204.5 57.1875 204.5V202.5ZM59.0982 204.5C59.6505 204.5 60.0982 204.052 60.0982 203.5C60.0982 202.948 59.6505 202.5 59.0982 202.5V204.5ZM64.8304 202.5C64.2781 202.5 63.8304 202.948 63.8304 203.5C63.8304 204.052 64.2781 204.5 64.8304 204.5V202.5ZM66.7411 204.5C67.2934 204.5 67.7411 204.052 67.7411 203.5C67.7411 202.948 67.2934 202.5 66.7411 202.5V204.5ZM72.4732 202.5C71.9209 202.5 71.4732 202.948 71.4732 203.5C71.4732 204.052 71.9209 204.5 72.4732 204.5V202.5ZM74.3839 204.5C74.9362 204.5 75.3839 204.052 75.3839 203.5C75.3839 202.948 74.9362 202.5 74.3839 202.5V204.5ZM80.1161 202.5C79.5638 202.5 79.1161 202.948 79.1161 203.5C79.1161 204.052 79.5638 204.5 80.1161 204.5V202.5ZM82.0268 204.5C82.5791 204.5 83.0268 204.052 83.0268 203.5C83.0268 202.948 82.5791 202.5 82.0268 202.5V204.5ZM87.7589 202.5C87.2066 202.5 86.7589 202.948 86.7589 203.5C86.7589 204.052 87.2066 204.5 87.7589 204.5V202.5ZM89.6696 204.5C90.2219 204.5 90.6696 204.052 90.6696 203.5C90.6696 202.948 90.2219 202.5 89.6696 202.5V204.5ZM95.4018 202.5C94.8495 202.5 94.4018 202.948 94.4018 203.5C94.4018 204.052 94.8495 204.5 95.4018 204.5V202.5ZM97.3125 204.5C97.8648 204.5 98.3125 204.052 98.3125 203.5C98.3125 202.948 97.8648 202.5 97.3125 202.5L97.3125 204.5ZM103.045 202.5C102.492 202.5 102.045 202.948 102.045 203.5C102.045 204.052 102.492 204.5 103.045 204.5V202.5ZM37.5 80V81.0625H39.5V80H37.5ZM37.5 87.4375V89.5625H39.5V87.4375H37.5ZM37.5 95.9375V98.0625H39.5V95.9375H37.5ZM37.5 104.438V106.562H39.5V104.438H37.5ZM37.5 112.938V114H39.5V112.938H37.5ZM104 113H102.977V115H104V113ZM96.8359 113H94.7891V115H96.8359V113ZM88.6484 113H86.6016V115H88.6484V113ZM80.4609 113H78.4141V115H80.4609V113ZM72.2734 113H70.2266V115H72.2734V113ZM64.0859 113H62.0391V115H64.0859V113ZM55.8984 113H53.8516V115H55.8984V113ZM47.7109 113H45.6641V115H47.7109V113ZM39.5234 113H38.5V115H39.5234V113ZM37.5 114V114.927H39.5V114H37.5ZM37.5 120.49V122.344H39.5V120.49H37.5ZM37.5 127.906V129.76H39.5V127.906H37.5ZM37.5 135.323V137.177H39.5V135.323H37.5ZM37.5 142.74V144.594H39.5V142.74H37.5ZM37.5 150.156V152.01H39.5V150.156H37.5ZM37.5 157.573V158.5H39.5V157.573H37.5ZM104 157.5H102.977V159.5H104V157.5ZM96.8359 157.5H94.7891V159.5H96.8359V157.5ZM88.6484 157.5H86.6016V159.5H88.6484V157.5ZM80.4609 157.5H78.4141V159.5H80.4609V157.5ZM72.2734 157.5H70.2266V159.5H72.2734V157.5ZM64.0859 157.5H62.0391V159.5H64.0859V157.5ZM55.8984 157.5H53.8516V159.5H55.8984V157.5ZM47.7109 157.5H45.6641V159.5H47.7109V157.5ZM39.5234 157.5H38.5V159.5H39.5234V157.5ZM37.5 158.5V159.531H39.5V158.5H37.5ZM37.5 165.719V167.781H39.5V165.719H37.5ZM37.5 173.969V176.031H39.5V173.969H37.5ZM37.5 182.219V184.281H39.5V182.219H37.5ZM37.5 190.469V191.5H39.5V190.469H37.5ZM37.5 191.5C37.5 191.929 37.5209 192.354 37.5617 192.774L39.5523 192.58C39.5177 192.225 39.5 191.865 39.5 191.5H37.5ZM40.4509 199.748C40.9912 200.405 41.5947 201.009 42.2523 201.549L43.522 200.004C42.965 199.546 42.4538 199.035 41.9962 198.478L40.4509 199.748ZM49.2265 204.438C49.6457 204.479 50.0706 204.5 50.5 204.5V202.5C50.1354 202.5 49.7752 202.482 49.4202 202.448L49.2265 204.438ZM50.5 204.5H51.4554V202.5H50.5V204.5ZM57.1875 204.5H59.0982V202.5H57.1875V204.5ZM64.8304 204.5H66.7411V202.5H64.8304V204.5ZM72.4732 204.5H74.3839V202.5H72.4732V204.5ZM80.1161 204.5H82.0268V202.5H80.1161V204.5ZM87.7589 204.5H89.6696V202.5H87.7589V204.5ZM95.4018 204.5H97.3125L97.3125 202.5H95.4018V204.5ZM103.045 204.5H104V202.5H103.045V204.5Z" fill="#F3A4B7"/>
<defs>
<clipPath id="clip0_4336_79473">
<rect width="26.3448" height="26.3448" fill="white" transform="translate(109 190.433) rotate(-11.9006)"/>
</clipPath>
<clipPath id="clip1_4336_79473">
<rect width="26.3448" height="26.3448" fill="white" transform="translate(109 190.433) rotate(-11.9006)"/>
</clipPath>
<clipPath id="clip2_4336_79473">
<rect width="18.3962" height="24.0388" fill="white" transform="translate(124 142) rotate(30)"/>
</clipPath>
</defs>
</svg>
