<svg width="30" height="30" viewBox="0 0 30 30" fill="none" xmlns="http://www.w3.org/2000/svg">
<path d="M25.4072 10.9442L7.52969 3.78656C7.22854 3.6659 6.90156 3.62864 6.58239 3.67862C6.26321 3.72859 5.96337 3.864 5.71371 4.07091C5.46405 4.27782 5.27359 4.54875 5.16193 4.85584C5.05026 5.16292 5.02143 5.49507 5.07839 5.8181L8.60492 25.8179C8.66212 26.1408 8.80295 26.4429 9.01294 26.6931C9.22293 26.9433 9.49451 27.1326 9.79979 27.2416C10.1051 27.3506 10.433 27.3754 10.75 27.3133C11.0669 27.2513 11.3614 27.1047 11.6032 26.8886L25.9545 14.0481C26.1876 13.8395 26.3637 13.5733 26.4658 13.275C26.568 12.9768 26.5927 12.6566 26.5378 12.3451C26.4829 12.0335 26.3501 11.7411 26.1521 11.4958C25.9541 11.2505 25.6976 11.0606 25.4072 10.9442Z" fill="#F3A4B7"/>
</svg>
