<svg width="158" height="56" viewBox="0 0 158 56" fill="none" xmlns="http://www.w3.org/2000/svg">
<rect width="158" height="56" rx="8" fill="#130C30"/>
<path d="M60.114 34.6V36.994C60.114 37.714 59.88 38.266 59.412 38.65C58.176 39.706 56.706 40.234 55.002 40.234C53.226 40.258 51.708 39.676 50.448 38.488C49.2 37.3 48.588 35.806 48.612 34.006C48.588 32.182 49.2 30.688 50.448 29.524C51.696 28.348 53.214 27.772 55.002 27.796C56.574 27.796 57.912 28.3 59.016 29.308C59.268 29.548 59.394 29.848 59.394 30.208C59.394 30.532 59.28 30.814 59.052 31.054C58.824 31.282 58.542 31.396 58.206 31.396C57.882 31.396 57.606 31.282 57.378 31.054C56.706 30.394 55.914 30.064 55.002 30.064C53.922 30.064 53.022 30.442 52.302 31.198C51.594 31.942 51.24 32.878 51.24 34.006C51.24 35.134 51.594 36.076 52.302 36.832C53.022 37.576 53.922 37.948 55.002 37.948C56.034 37.948 56.886 37.642 57.558 37.03V35.59H55.362C55.062 35.59 54.798 35.482 54.57 35.266C54.354 35.05 54.246 34.792 54.246 34.492C54.246 34.192 54.354 33.928 54.57 33.7C54.798 33.472 55.062 33.358 55.362 33.358H58.89C59.262 33.358 59.556 33.472 59.772 33.7C60 33.928 60.114 34.228 60.114 34.6ZM61.5311 35.644C61.5311 34.36 61.9511 33.28 62.7911 32.404C63.6431 31.528 64.7531 31.09 66.1211 31.09C67.5011 31.09 68.6111 31.528 69.4511 32.404C70.3031 33.28 70.7291 34.36 70.7291 35.644C70.7291 36.94 70.3031 38.026 69.4511 38.902C68.6111 39.778 67.5011 40.216 66.1211 40.216C64.7411 40.216 63.6311 39.778 62.7911 38.902C61.9511 38.026 61.5311 36.94 61.5311 35.644ZM68.3531 35.644C68.3531 34.924 68.1491 34.324 67.7411 33.844C67.3331 33.364 66.7931 33.124 66.1211 33.124C65.4491 33.124 64.9091 33.364 64.5011 33.844C64.1051 34.312 63.9071 34.912 63.9071 35.644C63.9071 36.376 64.1051 36.982 64.5011 37.462C64.9091 37.942 65.4491 38.182 66.1211 38.182C66.7931 38.182 67.3331 37.942 67.7411 37.462C68.1491 36.982 68.3531 36.376 68.3531 35.644ZM71.867 35.644C71.867 34.36 72.287 33.28 73.127 32.404C73.979 31.528 75.089 31.09 76.457 31.09C77.837 31.09 78.947 31.528 79.787 32.404C80.639 33.28 81.065 34.36 81.065 35.644C81.065 36.94 80.639 38.026 79.787 38.902C78.947 39.778 77.837 40.216 76.457 40.216C75.077 40.216 73.967 39.778 73.127 38.902C72.287 38.026 71.867 36.94 71.867 35.644ZM78.689 35.644C78.689 34.924 78.485 34.324 78.077 33.844C77.669 33.364 77.129 33.124 76.457 33.124C75.785 33.124 75.245 33.364 74.837 33.844C74.441 34.312 74.243 34.912 74.243 35.644C74.243 36.376 74.441 36.982 74.837 37.462C75.245 37.942 75.785 38.182 76.457 38.182C77.129 38.182 77.669 37.942 78.077 37.462C78.485 36.982 78.689 36.376 78.689 35.644ZM91.023 32.332V39.406C91.023 40.894 90.561 41.956 89.637 42.592C88.725 43.216 87.621 43.528 86.325 43.528C85.149 43.528 84.129 43.258 83.265 42.718C82.953 42.538 82.797 42.268 82.797 41.908C82.797 41.644 82.887 41.416 83.067 41.224C83.259 41.044 83.487 40.954 83.751 40.954C83.907 40.954 84.069 41.002 84.237 41.098C84.801 41.47 85.497 41.656 86.325 41.656C87.021 41.656 87.591 41.476 88.035 41.116C88.491 40.756 88.719 40.204 88.719 39.46V38.596C87.975 39.496 87.081 39.946 86.037 39.946C84.897 39.946 83.973 39.556 83.265 38.776C82.557 37.984 82.203 36.898 82.203 35.518C82.203 34.15 82.557 33.07 83.265 32.278C83.973 31.486 84.897 31.09 86.037 31.09C87.117 31.09 88.011 31.534 88.719 32.422V32.278C88.719 31.978 88.833 31.72 89.061 31.504C89.301 31.288 89.577 31.18 89.889 31.18C90.201 31.18 90.465 31.294 90.681 31.522C90.909 31.75 91.023 32.02 91.023 32.332ZM88.719 36.922V34.114C88.527 33.826 88.245 33.592 87.873 33.412C87.513 33.22 87.141 33.124 86.757 33.124C86.097 33.124 85.563 33.346 85.155 33.79C84.759 34.222 84.561 34.798 84.561 35.518C84.561 36.238 84.759 36.82 85.155 37.264C85.563 37.696 86.097 37.912 86.757 37.912C87.129 37.912 87.501 37.816 87.873 37.624C88.245 37.432 88.527 37.198 88.719 36.922ZM93.2903 38.974V29.02C93.2903 28.708 93.3983 28.438 93.6143 28.21C93.8423 27.982 94.1183 27.868 94.4423 27.868C94.7543 27.868 95.0183 27.982 95.2343 28.21C95.4623 28.438 95.5763 28.708 95.5763 29.02V38.974C95.5763 39.286 95.4623 39.556 95.2343 39.784C95.0183 40.012 94.7543 40.126 94.4423 40.126C94.1183 40.126 93.8423 40.012 93.6143 39.784C93.3983 39.556 93.2903 39.286 93.2903 38.974ZM101.785 31.09C103.033 31.09 104.071 31.504 104.899 32.332C105.727 33.148 106.141 34.138 106.141 35.302C106.141 36.022 105.691 36.382 104.791 36.382H99.679C99.751 36.97 100.009 37.456 100.453 37.84C100.909 38.212 101.485 38.398 102.181 38.398C102.781 38.398 103.369 38.236 103.945 37.912C104.065 37.84 104.209 37.804 104.377 37.804C104.617 37.804 104.827 37.894 105.007 38.074C105.187 38.254 105.277 38.464 105.277 38.704C105.277 39.052 105.115 39.316 104.791 39.496C103.951 39.976 102.997 40.216 101.929 40.216C100.585 40.216 99.475 39.796 98.599 38.956C97.723 38.104 97.285 37 97.285 35.644C97.285 34.372 97.711 33.298 98.563 32.422C99.415 31.534 100.489 31.09 101.785 31.09ZM99.643 34.834H103.927C103.891 34.294 103.687 33.838 103.315 33.466C102.943 33.094 102.433 32.908 101.785 32.908C101.173 32.908 100.681 33.094 100.309 33.466C99.937 33.838 99.715 34.294 99.643 34.834ZM112.452 38.848V29.344C112.452 28.912 112.566 28.582 112.794 28.354C113.034 28.114 113.37 27.994 113.802 27.994H118.068C119.304 27.994 120.282 28.366 121.002 29.11C121.734 29.842 122.1 30.76 122.1 31.864C122.1 32.956 121.734 33.868 121.002 34.6C120.282 35.332 119.304 35.698 118.068 35.698H115.008V38.848C115.008 39.196 114.882 39.496 114.63 39.748C114.39 40 114.096 40.126 113.748 40.126C113.388 40.126 113.082 40 112.83 39.748C112.578 39.496 112.452 39.196 112.452 38.848ZM117.726 30.19H115.008V33.502H117.726C118.242 33.502 118.662 33.352 118.986 33.052C119.322 32.74 119.49 32.338 119.49 31.846C119.49 31.354 119.322 30.958 118.986 30.658C118.65 30.346 118.23 30.19 117.726 30.19ZM123.63 38.974V29.02C123.63 28.708 123.738 28.438 123.954 28.21C124.182 27.982 124.458 27.868 124.782 27.868C125.094 27.868 125.358 27.982 125.574 28.21C125.802 28.438 125.916 28.708 125.916 29.02V38.974C125.916 39.286 125.802 39.556 125.574 39.784C125.358 40.012 125.094 40.126 124.782 40.126C124.458 40.126 124.182 40.012 123.954 39.784C123.738 39.556 123.63 39.286 123.63 38.974ZM135.689 34.384V38.938C135.689 39.262 135.575 39.544 135.347 39.784C135.131 40.012 134.861 40.126 134.537 40.126C134.249 40.126 133.991 40.03 133.763 39.838C133.547 39.646 133.421 39.4 133.385 39.1C132.773 39.844 131.861 40.216 130.649 40.216C129.857 40.216 129.155 39.958 128.543 39.442C127.931 38.926 127.625 38.224 127.625 37.336C127.625 36.436 127.925 35.752 128.525 35.284C129.125 34.804 129.833 34.564 130.649 34.564C131.909 34.564 132.827 34.918 133.403 35.626V34.42C133.403 33.976 133.229 33.622 132.881 33.358C132.533 33.094 132.071 32.962 131.495 32.962C130.835 32.962 130.193 33.154 129.569 33.538C129.437 33.622 129.287 33.664 129.119 33.664C128.879 33.664 128.675 33.58 128.507 33.412C128.339 33.232 128.255 33.022 128.255 32.782C128.255 32.446 128.393 32.194 128.669 32.026C129.617 31.402 130.691 31.09 131.891 31.09C133.019 31.09 133.931 31.348 134.627 31.864C135.335 32.392 135.689 33.232 135.689 34.384ZM133.403 37.912V36.832C133.031 36.328 132.419 36.076 131.567 36.076C131.087 36.076 130.691 36.196 130.379 36.436C130.079 36.676 129.929 36.994 129.929 37.39C129.929 37.774 130.079 38.086 130.379 38.326C130.691 38.554 131.087 38.668 131.567 38.668C132.419 38.668 133.031 38.416 133.403 37.912ZM138.568 41.512L138.676 41.494C139.276 41.482 139.672 41.272 139.864 40.864L140.188 40.126L137.2 32.728C137.152 32.632 137.128 32.494 137.128 32.314C137.128 32.002 137.236 31.738 137.452 31.522C137.668 31.294 137.932 31.18 138.244 31.18C138.784 31.18 139.132 31.414 139.288 31.882L141.376 37.426L143.446 31.882C143.626 31.414 143.98 31.18 144.508 31.18C144.832 31.18 145.102 31.294 145.318 31.522C145.534 31.738 145.642 32.002 145.642 32.314C145.642 32.446 145.612 32.59 145.552 32.746L142.024 41.422C141.484 42.802 140.434 43.504 138.874 43.528C138.742 43.528 138.658 43.522 138.622 43.51C138.322 43.498 138.076 43.396 137.884 43.204C137.692 43.012 137.596 42.772 137.596 42.484C137.596 42.208 137.692 41.98 137.884 41.8C138.076 41.62 138.304 41.524 138.568 41.512Z" fill="white"/>
<path opacity="0.9" d="M48.936 21.472V14.524C48.936 14.172 49.112 13.996 49.464 13.996H51.672C52.872 13.98 53.86 14.36 54.636 15.136C55.412 15.912 55.792 16.868 55.776 18.004C55.792 19.14 55.412 20.092 54.636 20.86C53.86 21.628 52.872 22.008 51.672 22H49.464C49.112 22 48.936 21.824 48.936 21.472ZM49.932 21.112H51.672C52.6 21.112 53.344 20.816 53.904 20.224C54.464 19.632 54.744 18.892 54.744 18.004C54.744 17.1 54.468 16.356 53.916 15.772C53.364 15.18 52.616 14.884 51.672 14.884H49.932V21.112ZM57.7583 21.268C57.2303 20.684 56.9663 19.96 56.9663 19.096C56.9663 18.232 57.2303 17.512 57.7583 16.936C58.2943 16.352 58.9863 16.06 59.8343 16.06C60.6823 16.06 61.3703 16.352 61.8983 16.936C62.4343 17.512 62.7023 18.232 62.7023 19.096C62.7023 19.96 62.4343 20.684 61.8983 21.268C61.3703 21.852 60.6823 22.144 59.8343 22.144C58.9863 22.144 58.2943 21.852 57.7583 21.268ZM61.7543 19.096C61.7543 18.472 61.5783 17.944 61.2263 17.512C60.8823 17.08 60.4183 16.864 59.8343 16.864C59.2503 16.864 58.7823 17.08 58.4303 17.512C58.0783 17.944 57.9023 18.472 57.9023 19.096C57.9023 19.728 58.0783 20.26 58.4303 20.692C58.7823 21.124 59.2503 21.34 59.8343 21.34C60.4183 21.34 60.8823 21.124 61.2263 20.692C61.5783 20.26 61.7543 19.728 61.7543 19.096ZM69.0655 21.628L67.6735 17.344L66.2815 21.628C66.2495 21.756 66.1815 21.86 66.0775 21.94C65.9735 22.012 65.8535 22.048 65.7175 22.048C65.5815 22.048 65.4575 22.012 65.3455 21.94C65.2415 21.86 65.1735 21.756 65.1415 21.628L63.5815 16.744C63.5655 16.664 63.5575 16.616 63.5575 16.6C63.5575 16.472 63.6015 16.368 63.6895 16.288C63.7775 16.2 63.8815 16.156 64.0015 16.156C64.2335 16.156 64.3775 16.26 64.4335 16.468L65.7655 20.824L67.1815 16.504C67.2535 16.272 67.4175 16.156 67.6735 16.156C67.9295 16.156 68.0935 16.272 68.1655 16.504L69.5815 20.824L70.9135 16.468C70.9695 16.26 71.1135 16.156 71.3455 16.156C71.4655 16.156 71.5695 16.2 71.6575 16.288C71.7455 16.376 71.7895 16.48 71.7895 16.6C71.7895 16.64 71.7815 16.692 71.7655 16.756L70.2055 21.628C70.1735 21.756 70.1015 21.86 69.9895 21.94C69.8855 22.012 69.7655 22.048 69.6295 22.048C69.4935 22.048 69.3735 22.012 69.2695 21.94C69.1655 21.86 69.0975 21.756 69.0655 21.628ZM77.794 17.932V21.604C77.794 21.724 77.75 21.828 77.662 21.916C77.574 22.004 77.466 22.048 77.338 22.048C77.218 22.048 77.114 22.004 77.026 21.916C76.938 21.828 76.894 21.724 76.894 21.604V18.208C76.894 17.736 76.786 17.396 76.57 17.188C76.354 16.972 76.03 16.864 75.598 16.864C75.27 16.864 74.946 16.952 74.626 17.128C74.306 17.296 74.058 17.508 73.882 17.764V21.604C73.882 21.724 73.838 21.828 73.75 21.916C73.662 22.004 73.558 22.048 73.438 22.048C73.31 22.048 73.202 22.004 73.114 21.916C73.026 21.828 72.982 21.724 72.982 21.604V16.6C72.982 16.48 73.026 16.376 73.114 16.288C73.202 16.2 73.306 16.156 73.426 16.156C73.554 16.156 73.662 16.2 73.75 16.288C73.838 16.376 73.882 16.48 73.882 16.6V17.056C74.114 16.768 74.414 16.532 74.782 16.348C75.158 16.156 75.546 16.06 75.946 16.06C77.178 16.06 77.794 16.684 77.794 17.932ZM79.5914 21.604V14.392C79.5914 14.272 79.6354 14.168 79.7234 14.08C79.8114 13.992 79.9194 13.948 80.0474 13.948C80.1674 13.948 80.2714 13.992 80.3594 14.08C80.4474 14.168 80.4914 14.272 80.4914 14.392V21.604C80.4914 21.724 80.4474 21.828 80.3594 21.916C80.2714 22.004 80.1674 22.048 80.0474 22.048C79.9194 22.048 79.8114 22.004 79.7234 21.916C79.6354 21.828 79.5914 21.724 79.5914 21.604ZM82.7427 21.268C82.2147 20.684 81.9507 19.96 81.9507 19.096C81.9507 18.232 82.2147 17.512 82.7427 16.936C83.2787 16.352 83.9707 16.06 84.8187 16.06C85.6667 16.06 86.3547 16.352 86.8827 16.936C87.4187 17.512 87.6867 18.232 87.6867 19.096C87.6867 19.96 87.4187 20.684 86.8827 21.268C86.3547 21.852 85.6667 22.144 84.8187 22.144C83.9707 22.144 83.2787 21.852 82.7427 21.268ZM86.7387 19.096C86.7387 18.472 86.5627 17.944 86.2107 17.512C85.8667 17.08 85.4027 16.864 84.8187 16.864C84.2347 16.864 83.7667 17.08 83.4147 17.512C83.0627 17.944 82.8867 18.472 82.8867 19.096C82.8867 19.728 83.0627 20.26 83.4147 20.692C83.7667 21.124 84.2347 21.34 84.8187 21.34C85.4027 21.34 85.8667 21.124 86.2107 20.692C86.5627 20.26 86.7387 19.728 86.7387 19.096ZM93.6779 18.016V21.604C93.6779 21.724 93.6339 21.828 93.5459 21.916C93.4579 22.004 93.3499 22.048 93.2219 22.048C93.1019 22.048 92.9979 22.004 92.9099 21.916C92.8219 21.828 92.7779 21.724 92.7779 21.604V21.34C92.3299 21.876 91.6899 22.144 90.8579 22.144C90.3139 22.144 89.8379 21.972 89.4299 21.628C89.0299 21.276 88.8299 20.808 88.8299 20.224C88.8299 19.64 89.0299 19.176 89.4299 18.832C89.8379 18.488 90.3139 18.316 90.8579 18.316C91.6819 18.316 92.3219 18.58 92.7779 19.108V18.064C92.7779 17.688 92.6419 17.392 92.3699 17.176C92.1059 16.952 91.7539 16.84 91.3139 16.84C90.7379 16.84 90.2339 17.032 89.8019 17.416C89.7219 17.464 89.6419 17.488 89.5619 17.488C89.4579 17.488 89.3699 17.452 89.2979 17.38C89.2259 17.308 89.1899 17.22 89.1899 17.116C89.1899 16.988 89.2419 16.888 89.3459 16.816C89.9219 16.312 90.6179 16.06 91.4339 16.06C92.1219 16.06 92.6659 16.224 93.0659 16.552C93.4739 16.88 93.6779 17.368 93.6779 18.016ZM92.7779 20.776V19.684C92.4339 19.204 91.9019 18.964 91.1819 18.964C90.7659 18.964 90.4219 19.084 90.1499 19.324C89.8859 19.556 89.7539 19.86 89.7539 20.236C89.7539 20.604 89.8859 20.908 90.1499 21.148C90.4219 21.38 90.7659 21.496 91.1819 21.496C91.9019 21.496 92.4339 21.256 92.7779 20.776ZM100.582 14.392V21.604C100.582 21.724 100.538 21.828 100.45 21.916C100.362 22.004 100.254 22.048 100.126 22.048C100.006 22.048 99.902 22.004 99.814 21.916C99.726 21.828 99.682 21.724 99.682 21.604V21.136C99.458 21.448 99.17 21.696 98.818 21.88C98.474 22.056 98.11 22.144 97.726 22.144C96.958 22.144 96.334 21.872 95.854 21.328C95.382 20.776 95.146 20.036 95.146 19.108C95.146 18.196 95.382 17.46 95.854 16.9C96.334 16.34 96.958 16.06 97.726 16.06C98.526 16.06 99.178 16.404 99.682 17.092V14.392C99.682 14.272 99.726 14.168 99.814 14.08C99.902 13.992 100.006 13.948 100.126 13.948C100.254 13.948 100.362 13.992 100.45 14.08C100.538 14.168 100.582 14.272 100.582 14.392ZM99.682 20.428V17.8C99.514 17.536 99.266 17.316 98.938 17.14C98.61 16.956 98.278 16.864 97.942 16.864C97.374 16.864 96.922 17.076 96.586 17.5C96.25 17.924 96.082 18.46 96.082 19.108C96.082 19.756 96.25 20.292 96.586 20.716C96.922 21.132 97.374 21.34 97.942 21.34C98.286 21.34 98.618 21.256 98.938 21.088C99.266 20.912 99.514 20.692 99.682 20.428ZM105.934 21.268C105.406 20.684 105.142 19.96 105.142 19.096C105.142 18.232 105.406 17.512 105.934 16.936C106.47 16.352 107.162 16.06 108.01 16.06C108.858 16.06 109.546 16.352 110.074 16.936C110.61 17.512 110.878 18.232 110.878 19.096C110.878 19.96 110.61 20.684 110.074 21.268C109.546 21.852 108.858 22.144 108.01 22.144C107.162 22.144 106.47 21.852 105.934 21.268ZM109.93 19.096C109.93 18.472 109.754 17.944 109.402 17.512C109.058 17.08 108.594 16.864 108.01 16.864C107.426 16.864 106.958 17.08 106.606 17.512C106.254 17.944 106.078 18.472 106.078 19.096C106.078 19.728 106.254 20.26 106.606 20.692C106.958 21.124 107.426 21.34 108.01 21.34C108.594 21.34 109.058 21.124 109.402 20.692C109.754 20.26 109.93 19.728 109.93 19.096ZM117.157 17.932V21.604C117.157 21.724 117.113 21.828 117.025 21.916C116.937 22.004 116.829 22.048 116.701 22.048C116.581 22.048 116.477 22.004 116.389 21.916C116.301 21.828 116.257 21.724 116.257 21.604V18.208C116.257 17.736 116.149 17.396 115.933 17.188C115.717 16.972 115.393 16.864 114.961 16.864C114.633 16.864 114.309 16.952 113.989 17.128C113.669 17.296 113.421 17.508 113.245 17.764V21.604C113.245 21.724 113.201 21.828 113.113 21.916C113.025 22.004 112.921 22.048 112.801 22.048C112.673 22.048 112.565 22.004 112.477 21.916C112.389 21.828 112.345 21.724 112.345 21.604V16.6C112.345 16.48 112.389 16.376 112.477 16.288C112.565 16.2 112.669 16.156 112.789 16.156C112.917 16.156 113.025 16.2 113.113 16.288C113.201 16.376 113.245 16.48 113.245 16.6V17.056C113.477 16.768 113.777 16.532 114.145 16.348C114.521 16.156 114.909 16.06 115.309 16.06C116.541 16.06 117.157 16.684 117.157 17.932Z" fill="white"/>
<path d="M26.9205 28.3349L13.2372 41.5623C12.5965 41.1227 12.216 40.3915 12.2227 39.6124V17.0574C12.216 16.2783 12.5965 15.547 13.2372 15.1074L26.9205 28.3349Z" fill="#2196F3"/>
<path d="M31.7055 23.7174L26.9176 28.3377L13.2344 15.1103C13.2859 15.0702 13.3396 15.0328 13.3952 14.9985C14.1184 14.5585 15.0217 14.5443 15.7582 14.9612L31.7055 23.7174Z" fill="#4CAF50"/>
<path d="M37.5122 28.3361C37.5211 29.2156 37.045 30.028 36.275 30.4476L31.7098 32.9564L26.9219 28.3361L31.7098 23.7158L36.275 26.2247C37.045 26.6442 37.5211 27.4566 37.5122 28.3361Z" fill="#FFC107"/>
<path d="M31.7055 32.9553L15.7582 41.7115C15.02 42.122 14.1202 42.1078 13.3952 41.6742C13.3396 41.6399 13.2859 41.6026 13.2344 41.5624L26.9177 28.335L31.7055 32.9553Z" fill="#F44336"/>
</svg>
