<svg width="141" height="217" viewBox="0 0 141 217" fill="none" xmlns="http://www.w3.org/2000/svg">
<rect opacity="0.1" width="80" height="80" rx="10" fill="#F3B8A4"/>
<path d="M23.5 56.501V25.001" stroke="#F3B8A4" stroke-width="5.31485" stroke-linecap="round" stroke-linejoin="round"/>
<path d="M23.4998 47.5007C35.4998 38.5007 44.4998 56.5007 56.4998 47.5007V25.0007C44.4998 34.0007 35.4998 16.0007 23.4998 25.0007" fill="#F3B8A4"/>
<path d="M23.4998 47.5007C35.4998 38.5007 44.4998 56.5007 56.4998 47.5007V25.0007C44.4998 34.0007 35.4998 16.0007 23.4998 25.0007" stroke="#F3B8A4" stroke-width="5.31485" stroke-linecap="round" stroke-linejoin="round"/>
<g clip-path="url(#clip0_4336_79439)">
<g clip-path="url(#clip1_4336_79439)">
<path d="M121.552 107.832L132.445 105.537C133.027 105.414 133.57 105.969 133.448 106.542L132.667 112.364L135.485 116.211C135.829 116.687 135.556 117.413 134.974 117.536L125.363 119.561C124.664 119.709 123.958 119.249 123.811 118.55L121.552 107.832Z" fill="#F3B8A5"/>
<path d="M127.727 106.531L132.445 105.537C133.027 105.414 133.57 105.969 133.448 106.542L133.185 111.647L135.485 116.211C135.829 116.687 135.556 117.413 134.974 117.536L130.256 118.53L127.727 106.531Z" fill="#F9DCD2"/>
<path d="M126.996 117.21L117.968 119.112L115.439 107.113L122.312 105.665C123.536 105.407 124.676 106.201 124.922 107.366L126.996 117.21Z" fill="#F9DCD2"/>
<path d="M122.312 105.665L115.439 107.113L115.844 109.035L124.873 107.133C124.523 106.051 123.419 105.431 122.312 105.665Z" fill="#F3B8A5"/>
<path opacity="0.7" d="M133.374 107.349L133.448 106.542C133.57 105.969 133.027 105.414 132.445 105.537L127.727 106.531L128.132 108.453L133.374 107.349Z" fill="#F3B8A5"/>
<path d="M127.727 106.531L124.873 107.133L125.278 109.055L128.132 108.453L127.727 106.531Z" fill="#F3B8A5"/>
<path fill-rule="evenodd" clip-rule="evenodd" d="M113.601 105.029C114.287 104.824 115.051 105.271 115.198 105.97L118.474 121.515L118.474 121.515L119.22 125.053C119.355 125.694 119.012 126.375 118.396 126.626C117.709 126.832 116.945 126.385 116.798 125.686L114.519 114.87L112.776 106.602C112.641 105.961 112.985 105.281 113.601 105.029Z" fill="#F3B8A5"/>
</g>
</g>
<g clip-path="url(#clip2_4336_79439)">
<path d="M120.752 161.275L122.574 155.468C122.631 155.368 122.639 155.239 122.568 155.132C122.547 155.053 122.476 154.945 122.405 154.838C122.305 154.78 122.205 154.722 122.105 154.665C121.976 154.657 121.898 154.678 121.769 154.67C121.769 154.67 117.98 155.812 116.347 156.334C115.874 156.461 115.494 156.774 115.234 157.224L113.158 160.819C112.697 161.619 113.386 162.616 114.274 162.462L120.164 161.602L120.243 161.581C120.322 161.559 120.43 161.488 120.508 161.467C120.716 161.454 120.774 161.354 120.752 161.275Z" fill="#F9DCD2"/>
<path d="M124.898 163.668L129.016 159.188C129.074 159.088 129.182 159.017 129.31 159.024C129.389 159.003 129.518 159.011 129.646 159.019C129.746 159.076 129.846 159.134 129.946 159.192C130.017 159.299 130.038 159.378 130.109 159.486C130.109 159.486 131.015 163.338 131.379 165.013C131.506 165.486 131.425 165.972 131.166 166.422L129.09 170.018C128.628 170.817 127.42 170.718 127.109 169.873L124.909 164.341L124.888 164.262C124.867 164.183 124.874 164.055 124.853 163.976C124.811 163.818 124.869 163.718 124.898 163.668Z" fill="#F9DCD2"/>
<path d="M123.251 167.246C123.4 167.332 123.579 167.369 123.758 167.405C123.936 167.442 124.094 167.4 124.28 167.307C128.982 165.161 131.766 160.109 132.453 156.843C133.263 153.249 132.405 149.89 131.904 148.336C131.82 148.021 131.677 147.806 131.428 147.661C131.178 147.517 130.921 147.502 130.634 147.536C129.038 147.88 125.7 148.816 122.992 151.315C120.558 153.572 117.495 158.529 118.016 163.624C118.059 163.782 118.101 163.94 118.193 164.126C118.314 164.262 118.435 164.399 118.585 164.485L123.279 167.196L123.251 167.246Z" fill="white"/>
<path d="M131.414 147.653C131.164 147.509 130.907 147.494 130.62 147.528C129.024 147.872 125.686 148.808 122.978 151.307C120.544 153.563 117.481 158.521 118.002 163.616C118.045 163.774 118.087 163.931 118.179 164.118C118.3 164.254 118.421 164.391 118.571 164.477L120.918 165.832L131.414 147.653Z" fill="#FFC8B6"/>
<path d="M117.989 163.675C118.03 163.832 118.072 163.989 118.163 164.175C118.283 164.311 118.403 164.447 118.552 164.533L123.263 167.253C123.411 167.339 123.589 167.375 123.767 167.41C123.944 167.446 124.101 167.404 124.287 167.311C125.294 166.827 126.23 166.236 127.096 165.537L118.121 160.355C117.949 161.454 117.905 162.561 117.989 163.675Z" fill="#F9DCD2"/>
<path d="M120.889 165.882L123.237 167.238C123.386 167.324 123.565 167.361 123.744 167.397C123.922 167.434 124.08 167.392 124.266 167.299C125.277 166.818 126.217 166.228 127.085 165.531L122.59 162.936L120.889 165.882Z" fill="#F9DCD2"/>
<path d="M132.709 152.33C132.587 150.928 132.307 149.567 131.869 148.249C131.806 148.013 131.664 147.798 131.414 147.653L129.713 150.6L132.709 152.33Z" fill="#F9DCD2"/>
<path d="M126.716 148.87C127.992 148.275 129.264 147.821 130.624 147.541C130.861 147.478 131.164 147.509 131.414 147.653L129.713 150.6L126.716 148.87Z" fill="#F9DCD2"/>
<path d="M129.315 154.803C129.471 155.392 129.414 155.988 129.177 156.534C128.94 157.08 128.496 157.532 127.964 157.776C127.42 158.039 126.826 158.117 126.226 157.98C125.645 157.854 125.139 157.51 124.762 157.03C124.406 156.562 124.199 155.97 124.225 155.381C124.251 154.793 124.48 154.216 124.873 153.761C125.267 153.305 125.802 153.011 126.388 152.903C126.973 152.794 127.584 152.911 128.094 153.206C128.388 153.375 128.648 153.604 128.854 153.881C129.08 154.168 129.244 154.473 129.315 154.803Z" fill="#F9DCD2"/>
<path d="M122.677 164.584C121.397 166.801 120.438 167.688 119.97 167.417C119.568 167.185 119.79 165.873 121.07 163.656C122.35 161.439 124.129 159.131 124.598 159.401C125.067 159.672 123.99 162.31 122.677 164.584Z" fill="#F9DCD2"/>
</g>
<g clip-path="url(#clip3_4336_79439)">
<path d="M120.752 205.275L122.574 199.468C122.631 199.368 122.639 199.239 122.568 199.132C122.547 199.053 122.476 198.945 122.405 198.838C122.305 198.78 122.205 198.722 122.105 198.665C121.976 198.657 121.898 198.678 121.769 198.67C121.769 198.67 117.98 199.812 116.347 200.334C115.874 200.461 115.494 200.774 115.234 201.224L113.158 204.819C112.697 205.619 113.386 206.616 114.274 206.462L120.164 205.602L120.243 205.581C120.322 205.559 120.43 205.488 120.508 205.467C120.716 205.454 120.774 205.354 120.752 205.275Z" fill="#F9DCD2"/>
<path d="M124.898 207.668L129.016 203.188C129.074 203.088 129.182 203.017 129.31 203.024C129.389 203.003 129.518 203.011 129.646 203.019C129.746 203.076 129.846 203.134 129.946 203.192C130.017 203.299 130.038 203.378 130.109 203.486C130.109 203.486 131.015 207.338 131.379 209.013C131.506 209.486 131.425 209.972 131.166 210.422L129.09 214.018C128.628 214.817 127.42 214.718 127.109 213.873L124.909 208.341L124.888 208.262C124.867 208.183 124.874 208.055 124.853 207.976C124.811 207.818 124.869 207.718 124.898 207.668Z" fill="#F9DCD2"/>
<path d="M123.251 211.246C123.4 211.332 123.579 211.369 123.758 211.405C123.936 211.442 124.094 211.4 124.28 211.307C128.982 209.161 131.766 204.109 132.453 200.843C133.263 197.249 132.405 193.89 131.904 192.336C131.82 192.021 131.677 191.806 131.428 191.661C131.178 191.517 130.921 191.502 130.634 191.536C129.038 191.88 125.7 192.816 122.992 195.315C120.558 197.572 117.495 202.529 118.016 207.624C118.059 207.782 118.101 207.94 118.193 208.126C118.314 208.262 118.435 208.399 118.585 208.485L123.279 211.196L123.251 211.246Z" fill="white"/>
<path d="M131.414 191.653C131.164 191.509 130.907 191.494 130.62 191.528C129.024 191.872 125.686 192.808 122.978 195.307C120.544 197.563 117.481 202.521 118.002 207.616C118.045 207.774 118.087 207.931 118.179 208.118C118.3 208.254 118.421 208.391 118.571 208.477L120.918 209.832L131.414 191.653Z" fill="#FFC8B6"/>
<path d="M117.989 207.675C118.03 207.832 118.072 207.989 118.163 208.175C118.283 208.311 118.403 208.447 118.552 208.533L123.263 211.253C123.411 211.339 123.589 211.375 123.767 211.41C123.944 211.446 124.101 211.404 124.287 211.311C125.294 210.827 126.23 210.236 127.096 209.537L118.121 204.355C117.949 205.454 117.905 206.561 117.989 207.675Z" fill="#F9DCD2"/>
<path d="M120.889 209.882L123.237 211.238C123.386 211.324 123.565 211.361 123.744 211.397C123.922 211.434 124.08 211.392 124.266 211.299C125.277 210.818 126.217 210.228 127.085 209.531L122.59 206.936L120.889 209.882Z" fill="#F9DCD2"/>
<path d="M132.709 196.33C132.587 194.928 132.307 193.567 131.869 192.249C131.806 192.013 131.664 191.798 131.414 191.653L129.713 194.6L132.709 196.33Z" fill="#F9DCD2"/>
<path d="M126.716 192.87C127.992 192.275 129.264 191.821 130.624 191.541C130.861 191.478 131.164 191.509 131.414 191.653L129.713 194.6L126.716 192.87Z" fill="#F9DCD2"/>
<path d="M129.315 198.803C129.471 199.392 129.414 199.988 129.177 200.534C128.94 201.08 128.496 201.532 127.964 201.776C127.42 202.039 126.826 202.117 126.226 201.98C125.645 201.854 125.139 201.51 124.762 201.03C124.406 200.562 124.199 199.97 124.225 199.381C124.251 198.793 124.48 198.216 124.873 197.761C125.267 197.305 125.802 197.011 126.388 196.903C126.973 196.794 127.584 196.911 128.094 197.206C128.388 197.375 128.648 197.604 128.854 197.881C129.08 198.168 129.244 198.473 129.315 198.803Z" fill="#F9DCD2"/>
<path d="M122.677 208.584C121.397 210.801 120.438 211.688 119.97 211.417C119.568 211.185 119.79 209.873 121.07 207.656C122.35 205.439 124.129 203.131 124.598 203.401C125.067 203.672 123.99 206.31 122.677 208.584Z" fill="#F9DCD2"/>
</g>
<path d="M35.5 81.0625C35.5 81.6148 35.9477 82.0625 36.5 82.0625C37.0523 82.0625 37.5 81.6148 37.5 81.0625H35.5ZM37.5 87.4375C37.5 86.8852 37.0523 86.4375 36.5 86.4375C35.9477 86.4375 35.5 86.8852 35.5 87.4375H37.5ZM35.5 89.5625C35.5 90.1148 35.9477 90.5625 36.5 90.5625C37.0523 90.5625 37.5 90.1148 37.5 89.5625H35.5ZM37.5 95.9375C37.5 95.3852 37.0523 94.9375 36.5 94.9375C35.9477 94.9375 35.5 95.3852 35.5 95.9375H37.5ZM35.5 98.0625C35.5 98.6148 35.9477 99.0625 36.5 99.0625C37.0523 99.0625 37.5 98.6148 37.5 98.0625H35.5ZM37.5 104.438C37.5 103.885 37.0523 103.438 36.5 103.438C35.9477 103.438 35.5 103.885 35.5 104.438H37.5ZM35.5 106.562C35.5 107.115 35.9477 107.562 36.5 107.562C37.0523 107.562 37.5 107.115 37.5 106.562H35.5ZM37.5 112.938C37.5 112.385 37.0523 111.938 36.5 111.938C35.9477 111.938 35.5 112.385 35.5 112.938H37.5ZM100.977 113C100.424 113 99.9766 113.448 99.9766 114C99.9766 114.552 100.424 115 100.977 115V113ZM94.8359 115C95.3882 115 95.8359 114.552 95.8359 114C95.8359 113.448 95.3882 113 94.8359 113V115ZM92.7891 113C92.2368 113 91.7891 113.448 91.7891 114C91.7891 114.552 92.2368 115 92.7891 115V113ZM86.6484 115C87.2007 115 87.6484 114.552 87.6484 114C87.6484 113.448 87.2007 113 86.6484 113V115ZM84.6016 113C84.0493 113 83.6016 113.448 83.6016 114C83.6016 114.552 84.0493 115 84.6016 115V113ZM78.4609 115C79.0132 115 79.4609 114.552 79.4609 114C79.4609 113.448 79.0132 113 78.4609 113V115ZM76.4141 113C75.8618 113 75.4141 113.448 75.4141 114C75.4141 114.552 75.8618 115 76.4141 115V113ZM70.2734 115C70.8257 115 71.2734 114.552 71.2734 114C71.2734 113.448 70.8257 113 70.2734 113V115ZM68.2266 113C67.6743 113 67.2266 113.448 67.2266 114C67.2266 114.552 67.6743 115 68.2266 115V113ZM62.0859 115C62.6382 115 63.0859 114.552 63.0859 114C63.0859 113.448 62.6382 113 62.0859 113V115ZM60.0391 113C59.4868 113 59.0391 113.448 59.0391 114C59.0391 114.552 59.4868 115 60.0391 115V113ZM53.8984 115C54.4507 115 54.8984 114.552 54.8984 114C54.8984 113.448 54.4507 113 53.8984 113V115ZM51.8516 113C51.2993 113 50.8516 113.448 50.8516 114C50.8516 114.552 51.2993 115 51.8516 115V113ZM45.7109 115C46.2632 115 46.7109 114.552 46.7109 114C46.7109 113.448 46.2632 113 45.7109 113V115ZM43.6641 113C43.1118 113 42.6641 113.448 42.6641 114C42.6641 114.552 43.1118 115 43.6641 115V113ZM37.5234 115C38.0757 115 38.5234 114.552 38.5234 114C38.5234 113.448 38.0757 113 37.5234 113V115ZM35.5 114.927C35.5 115.479 35.9477 115.927 36.5 115.927C37.0523 115.927 37.5 115.479 37.5 114.927H35.5ZM37.5 120.49C37.5 119.937 37.0523 119.49 36.5 119.49C35.9477 119.49 35.5 119.937 35.5 120.49H37.5ZM35.5 122.344C35.5 122.896 35.9477 123.344 36.5 123.344C37.0523 123.344 37.5 122.896 37.5 122.344H35.5ZM37.5 127.906C37.5 127.354 37.0523 126.906 36.5 126.906C35.9477 126.906 35.5 127.354 35.5 127.906H37.5ZM35.5 129.76C35.5 130.313 35.9477 130.76 36.5 130.76C37.0523 130.76 37.5 130.313 37.5 129.76H35.5ZM37.5 135.323C37.5 134.771 37.0523 134.323 36.5 134.323C35.9477 134.323 35.5 134.771 35.5 135.323H37.5ZM35.5 137.177C35.5 137.729 35.9477 138.177 36.5 138.177C37.0523 138.177 37.5 137.729 37.5 137.177H35.5ZM37.5 142.74C37.5 142.187 37.0523 141.74 36.5 141.74C35.9477 141.74 35.5 142.187 35.5 142.74H37.5ZM35.5 144.594C35.5 145.146 35.9477 145.594 36.5 145.594C37.0523 145.594 37.5 145.146 37.5 144.594H35.5ZM37.5 150.156C37.5 149.604 37.0523 149.156 36.5 149.156C35.9477 149.156 35.5 149.604 35.5 150.156H37.5ZM35.5 152.01C35.5 152.563 35.9477 153.01 36.5 153.01C37.0523 153.01 37.5 152.563 37.5 152.01H35.5ZM37.5 157.573C37.5 157.021 37.0523 156.573 36.5 156.573C35.9477 156.573 35.5 157.021 35.5 157.573H37.5ZM100.977 157.5C100.424 157.5 99.9766 157.948 99.9766 158.5C99.9766 159.052 100.424 159.5 100.977 159.5V157.5ZM94.8359 159.5C95.3882 159.5 95.8359 159.052 95.8359 158.5C95.8359 157.948 95.3882 157.5 94.8359 157.5V159.5ZM92.7891 157.5C92.2368 157.5 91.7891 157.948 91.7891 158.5C91.7891 159.052 92.2368 159.5 92.7891 159.5V157.5ZM86.6484 159.5C87.2007 159.5 87.6484 159.052 87.6484 158.5C87.6484 157.948 87.2007 157.5 86.6484 157.5V159.5ZM84.6016 157.5C84.0493 157.5 83.6016 157.948 83.6016 158.5C83.6016 159.052 84.0493 159.5 84.6016 159.5V157.5ZM78.4609 159.5C79.0132 159.5 79.4609 159.052 79.4609 158.5C79.4609 157.948 79.0132 157.5 78.4609 157.5V159.5ZM76.4141 157.5C75.8618 157.5 75.4141 157.948 75.4141 158.5C75.4141 159.052 75.8618 159.5 76.4141 159.5V157.5ZM70.2734 159.5C70.8257 159.5 71.2734 159.052 71.2734 158.5C71.2734 157.948 70.8257 157.5 70.2734 157.5V159.5ZM68.2266 157.5C67.6743 157.5 67.2266 157.948 67.2266 158.5C67.2266 159.052 67.6743 159.5 68.2266 159.5V157.5ZM62.0859 159.5C62.6382 159.5 63.0859 159.052 63.0859 158.5C63.0859 157.948 62.6382 157.5 62.0859 157.5V159.5ZM60.0391 157.5C59.4868 157.5 59.0391 157.948 59.0391 158.5C59.0391 159.052 59.4868 159.5 60.0391 159.5V157.5ZM53.8984 159.5C54.4507 159.5 54.8984 159.052 54.8984 158.5C54.8984 157.948 54.4507 157.5 53.8984 157.5V159.5ZM51.8516 157.5C51.2993 157.5 50.8516 157.948 50.8516 158.5C50.8516 159.052 51.2993 159.5 51.8516 159.5V157.5ZM45.7109 159.5C46.2632 159.5 46.7109 159.052 46.7109 158.5C46.7109 157.948 46.2632 157.5 45.7109 157.5V159.5ZM43.6641 157.5C43.1118 157.5 42.6641 157.948 42.6641 158.5C42.6641 159.052 43.1118 159.5 43.6641 159.5V157.5ZM37.5234 159.5C38.0757 159.5 38.5234 159.052 38.5234 158.5C38.5234 157.948 38.0757 157.5 37.5234 157.5V159.5ZM35.5 159.531C35.5 160.084 35.9477 160.531 36.5 160.531C37.0523 160.531 37.5 160.084 37.5 159.531H35.5ZM37.5 165.719C37.5 165.166 37.0523 164.719 36.5 164.719C35.9477 164.719 35.5 165.166 35.5 165.719H37.5ZM35.5 167.781C35.5 168.334 35.9477 168.781 36.5 168.781C37.0523 168.781 37.5 168.334 37.5 167.781H35.5ZM37.5 173.969C37.5 173.416 37.0523 172.969 36.5 172.969C35.9477 172.969 35.5 173.416 35.5 173.969H37.5ZM35.5 176.031C35.5 176.584 35.9477 177.031 36.5 177.031C37.0523 177.031 37.5 176.584 37.5 176.031H35.5ZM37.5 182.219C37.5 181.666 37.0523 181.219 36.5 181.219C35.9477 181.219 35.5 181.666 35.5 182.219H37.5ZM35.5 184.281C35.5 184.834 35.9477 185.281 36.5 185.281C37.0523 185.281 37.5 184.834 37.5 184.281H35.5ZM37.5 190.469C37.5 189.916 37.0523 189.469 36.5 189.469C35.9477 189.469 35.5 189.916 35.5 190.469H37.5ZM35.5617 192.774C35.6152 193.323 36.1041 193.725 36.6538 193.672C37.2035 193.618 37.6058 193.129 37.5523 192.58L35.5617 192.774ZM39.9962 198.478C39.6456 198.051 39.0154 197.99 38.5887 198.34C38.162 198.691 38.1003 199.321 38.4509 199.748L39.9962 198.478ZM40.2523 201.549C40.6791 201.9 41.3092 201.838 41.6598 201.411C42.0104 200.985 41.9487 200.354 41.522 200.004L40.2523 201.549ZM47.4202 202.448C46.8705 202.394 46.3815 202.796 46.328 203.346C46.2745 203.896 46.6768 204.385 47.2265 204.438L47.4202 202.448ZM49.4554 204.5C50.0076 204.5 50.4554 204.052 50.4554 203.5C50.4554 202.948 50.0076 202.5 49.4554 202.5V204.5ZM55.1875 202.5C54.6352 202.5 54.1875 202.948 54.1875 203.5C54.1875 204.052 54.6352 204.5 55.1875 204.5V202.5ZM57.0982 204.5C57.6505 204.5 58.0982 204.052 58.0982 203.5C58.0982 202.948 57.6505 202.5 57.0982 202.5V204.5ZM62.8304 202.5C62.2781 202.5 61.8304 202.948 61.8304 203.5C61.8304 204.052 62.2781 204.5 62.8304 204.5V202.5ZM64.7411 204.5C65.2934 204.5 65.7411 204.052 65.7411 203.5C65.7411 202.948 65.2934 202.5 64.7411 202.5V204.5ZM70.4732 202.5C69.9209 202.5 69.4732 202.948 69.4732 203.5C69.4732 204.052 69.9209 204.5 70.4732 204.5V202.5ZM72.3839 204.5C72.9362 204.5 73.3839 204.052 73.3839 203.5C73.3839 202.948 72.9362 202.5 72.3839 202.5V204.5ZM78.1161 202.5C77.5638 202.5 77.1161 202.948 77.1161 203.5C77.1161 204.052 77.5638 204.5 78.1161 204.5V202.5ZM80.0268 204.5C80.5791 204.5 81.0268 204.052 81.0268 203.5C81.0268 202.948 80.5791 202.5 80.0268 202.5V204.5ZM85.7589 202.5C85.2066 202.5 84.7589 202.948 84.7589 203.5C84.7589 204.052 85.2066 204.5 85.7589 204.5V202.5ZM87.6696 204.5C88.2219 204.5 88.6696 204.052 88.6696 203.5C88.6696 202.948 88.2219 202.5 87.6696 202.5V204.5ZM93.4018 202.5C92.8495 202.5 92.4018 202.948 92.4018 203.5C92.4018 204.052 92.8495 204.5 93.4018 204.5V202.5ZM95.3125 204.5C95.8648 204.5 96.3125 204.052 96.3125 203.5C96.3125 202.948 95.8648 202.5 95.3125 202.5L95.3125 204.5ZM101.045 202.5C100.492 202.5 100.045 202.948 100.045 203.5C100.045 204.052 100.492 204.5 101.045 204.5V202.5ZM35.5 80V81.0625H37.5V80H35.5ZM35.5 87.4375V89.5625H37.5V87.4375H35.5ZM35.5 95.9375V98.0625H37.5V95.9375H35.5ZM35.5 104.438V106.562H37.5V104.438H35.5ZM35.5 112.938V114H37.5V112.938H35.5ZM102 113H100.977V115H102V113ZM94.8359 113H92.7891V115H94.8359V113ZM86.6484 113H84.6016V115H86.6484V113ZM78.4609 113H76.4141V115H78.4609V113ZM70.2734 113H68.2266V115H70.2734V113ZM62.0859 113H60.0391V115H62.0859V113ZM53.8984 113H51.8516V115H53.8984V113ZM45.7109 113H43.6641V115H45.7109V113ZM37.5234 113H36.5V115H37.5234V113ZM35.5 114V114.927H37.5V114H35.5ZM35.5 120.49V122.344H37.5V120.49H35.5ZM35.5 127.906V129.76H37.5V127.906H35.5ZM35.5 135.323V137.177H37.5V135.323H35.5ZM35.5 142.74V144.594H37.5V142.74H35.5ZM35.5 150.156V152.01H37.5V150.156H35.5ZM35.5 157.573V158.5H37.5V157.573H35.5ZM102 157.5H100.977V159.5H102V157.5ZM94.8359 157.5H92.7891V159.5H94.8359V157.5ZM86.6484 157.5H84.6016V159.5H86.6484V157.5ZM78.4609 157.5H76.4141V159.5H78.4609V157.5ZM70.2734 157.5H68.2266V159.5H70.2734V157.5ZM62.0859 157.5H60.0391V159.5H62.0859V157.5ZM53.8984 157.5H51.8516V159.5H53.8984V157.5ZM45.7109 157.5H43.6641V159.5H45.7109V157.5ZM37.5234 157.5H36.5V159.5H37.5234V157.5ZM35.5 158.5V159.531H37.5V158.5H35.5ZM35.5 165.719V167.781H37.5V165.719H35.5ZM35.5 173.969V176.031H37.5V173.969H35.5ZM35.5 182.219V184.281H37.5V182.219H35.5ZM35.5 190.469V191.5H37.5V190.469H35.5ZM35.5 191.5C35.5 191.929 35.5209 192.354 35.5617 192.774L37.5523 192.58C37.5177 192.225 37.5 191.865 37.5 191.5H35.5ZM38.4509 199.748C38.9912 200.405 39.5947 201.009 40.2523 201.549L41.522 200.004C40.965 199.546 40.4538 199.035 39.9962 198.478L38.4509 199.748ZM47.2265 204.438C47.6457 204.479 48.0706 204.5 48.5 204.5V202.5C48.1354 202.5 47.7752 202.482 47.4202 202.448L47.2265 204.438ZM48.5 204.5H49.4554V202.5H48.5V204.5ZM55.1875 204.5H57.0982V202.5H55.1875V204.5ZM62.8304 204.5H64.7411V202.5H62.8304V204.5ZM70.4732 204.5H72.3839V202.5H70.4732V204.5ZM78.1161 204.5H80.0268V202.5H78.1161V204.5ZM85.7589 204.5H87.6696V202.5H85.7589V204.5ZM93.4018 204.5H95.3125L95.3125 202.5H93.4018V204.5ZM101.045 204.5H102V202.5H101.045V204.5Z" fill="#F3B8A4"/>
<defs>
<clipPath id="clip0_4336_79439">
<rect width="26.3448" height="26.3448" fill="white" transform="translate(109.023 103.433) rotate(-11.9006)"/>
</clipPath>
<clipPath id="clip1_4336_79439">
<rect width="26.3448" height="26.3448" fill="white" transform="translate(109.023 103.433) rotate(-11.9006)"/>
</clipPath>
<clipPath id="clip2_4336_79439">
<rect width="18.3962" height="24.0388" fill="white" transform="translate(124.023 142) rotate(30)"/>
</clipPath>
<clipPath id="clip3_4336_79439">
<rect width="18.3962" height="24.0388" fill="white" transform="translate(124.023 186) rotate(30)"/>
</clipPath>
</defs>
</svg>
