<svg width="62" height="48" viewBox="0 0 62 48" fill="none" xmlns="http://www.w3.org/2000/svg">
<path d="M28.5356 35.3556C28.5424 37.0421 28.1941 38.7102 27.5146 40.2456C26.8351 41.781 25.8406 43.1474 24.599 44.2511C21.9349 46.7481 18.4338 48.0898 14.8284 47.9953C10.2514 47.9953 6.63761 46.3591 3.98697 43.0866C1.33908 39.8327 -0.0756396 35.706 0.00311986 31.4659C0.00311986 21.3142 2.71413 13.6748 8.13615 8.54778C13.5582 3.42073 19.5602 0.582259 26.1422 0.0323542V11.1679C22.8253 11.5308 19.6852 12.8861 17.1116 15.0658C15.7871 16.0836 14.6961 17.3873 13.9153 18.8851C13.1344 20.3829 12.6829 22.0384 12.5924 23.7348C13.6855 23.1879 14.888 22.911 16.1038 22.9262C20.0352 22.9262 23.09 24.0718 25.2683 26.3631C26.3686 27.5629 27.2244 28.9764 27.7855 30.5206C28.3466 32.0649 28.6016 33.7087 28.5356 35.3556ZM61.9968 35.3556C62.0051 37.0424 61.6575 38.711 60.9779 40.2466C60.2984 41.7822 59.303 43.1484 58.0602 44.2511C55.3961 46.7481 51.8949 48.0898 48.2896 47.9953C43.7231 47.9953 40.1381 46.3591 37.5347 43.0866C34.9187 39.8172 33.523 35.6971 33.5981 31.4659C33.5981 21.3142 36.2803 13.6748 41.6446 8.54778C47.0088 3.42073 53.003 0.571469 59.627 0V11.1356C56.3174 11.5124 53.1883 12.879 50.6279 15.0658C49.2935 16.0775 48.1926 17.3789 47.4033 18.8772C46.6141 20.3755 46.1559 22.034 46.0614 23.7348C47.1517 23.1877 48.3517 22.9108 49.565 22.9262C53.4911 22.9262 56.5459 24.0718 58.7294 26.3631C59.8298 27.5625 60.6852 28.9761 61.245 30.5206C61.8048 32.0651 62.0578 33.7091 61.9889 35.3556H61.9968Z" fill="#EFEBFF"/>
</svg>
