<svg width="306" height="377" viewBox="0 0 306 377" fill="none" xmlns="http://www.w3.org/2000/svg">
<rect y="0.300781" width="306" height="376" rx="20" fill="white"/>
<path opacity="0.8" d="M125.423 10.1504L125.423 17.108C121.355 19.8231 118.078 23.8959 115.592 29.3262C113.106 34.6433 111.862 40.2999 111.862 46.2959C111.862 49.2373 112.088 52.009 112.54 54.611C117.852 54.9504 122.09 56.9302 125.254 60.5504C128.418 64.0575 130 68.5827 130 74.1262C130 79.7827 128.022 84.5342 124.067 88.3807C120.225 92.2272 115.366 94.1504 109.489 94.1504C102.144 94.1504 96.1545 91.1524 91.5213 85.1565C87.001 79.1605 84.7409 71.411 84.7409 61.908C84.7409 54.3282 86.323 46.9746 89.4872 39.8474C92.7644 32.7201 97.1151 26.9504 102.539 22.5383C107.964 18.013 115.592 13.8837 125.423 10.1504ZM50.952 54.611L52.4776 54.611C56.6589 54.611 60.3316 56.5908 63.4958 60.5504C66.7729 64.51 68.4115 69.0352 68.4115 74.1261C68.4115 79.7827 66.5469 84.5342 62.8177 88.3807C59.0885 92.2272 54.4552 94.1504 48.9179 94.1504C41.7985 94.1504 35.8657 90.9827 31.1194 84.6474C26.3731 78.312 24 70.3928 24 60.8898C24 48.8979 27.5032 38.4332 34.5096 29.4958C41.629 20.4453 51.4041 13.9969 63.8348 10.1504L63.8348 17.4474C54.7943 24.6878 50.274 34.1908 50.274 45.9564L50.952 54.611Z" fill="url(#paint0_linear_4627_182510)"/>
<defs>
<linearGradient id="paint0_linear_4627_182510" x1="80.9405" y1="120.836" x2="81.3389" y2="15.0437" gradientUnits="userSpaceOnUse">
<stop stop-color="#99A9FF" stop-opacity="0.08"/>
<stop offset="1" stop-color="#99A9FF" stop-opacity="0.24"/>
</linearGradient>
</defs>
</svg>
