<svg width="70" height="70" viewBox="0 0 70 70" fill="none" xmlns="http://www.w3.org/2000/svg">
<circle opacity="0.1" cx="35" cy="35" r="35" fill="#44CB6C"/>
<path d="M18.1572 28.9844V42.8203C18.1572 43.618 18.4741 44.3831 19.0382 44.9472C19.6023 45.5112 20.3673 45.8281 21.165 45.8281" stroke="#44CB6C" stroke-width="3.11429" stroke-linecap="round" stroke-linejoin="round"/>
<path d="M31.3916 31.9922H42.2197" stroke="#44CB6C" stroke-width="3.11429" stroke-linecap="round" stroke-linejoin="round"/>
<path d="M31.3916 38.0078H42.2197" stroke="#44CB6C" stroke-width="3.11429" stroke-linecap="round" stroke-linejoin="round"/>
<path d="M24.1729 42.8203V25.375C24.1729 25.0559 24.2996 24.7499 24.5252 24.5243C24.7509 24.2986 25.0569 24.1719 25.376 24.1719H48.2353C48.5544 24.1719 48.8605 24.2986 49.0861 24.5243C49.3117 24.7499 49.4385 25.0559 49.4385 25.375V43.4219C49.4385 44.0601 49.185 44.6721 48.7337 45.1233C48.2824 45.5746 47.6704 45.8281 47.0322 45.8281H21.165C21.56 45.8281 21.9512 45.7503 22.3161 45.5992C22.681 45.448 23.0126 45.2265 23.2919 44.9472C23.5712 44.6679 23.7927 44.3363 23.9439 43.9714C24.0951 43.6064 24.1729 43.2153 24.1729 42.8203V42.8203Z" stroke="#44CB6C" stroke-width="3.11429" stroke-linecap="round" stroke-linejoin="round"/>
</svg>
