<svg width="143" height="18" viewBox="0 0 143 18" fill="none" xmlns="http://www.w3.org/2000/svg">
<path d="M3.52717 5.0275C1.53661 3.93245 4.48614 4.02716 5.7899 3.94903C14.1675 3.44703 22.6239 3.48312 30.9753 3.44305C59.1843 3.30769 87.3403 3.83771 115.345 5.62218C121.659 6.02454 128.089 6.39371 134.315 7.28858C134.59 7.32809 135.396 7.46873 135.114 7.48868C132.817 7.65117 130.546 7.30975 128.265 7.19875C102.262 5.93322 75.9421 6.07013 49.7585 7.74224C39.124 8.42137 28.4299 9.5519 17.8734 11.3021C15.0059 11.7775 8.24349 12.9786 16.6733 12.9367C30.2274 12.8694 43.8209 12.0618 57.3814 11.9717C74.5686 11.8574 91.6828 12.3052 108.788 13.0213C116.012 13.3238 123.226 13.7624 130.477 13.8332C133.379 13.8616 137.028 14.2364 139.952 13.6843C142.112 13.2764 135.678 13.0791 133.506 12.9937C129.271 12.8273 125.279 13.2098 121.062 13.6053" stroke="#36C6DA" stroke-width="4" stroke-linecap="round" stroke-linejoin="round"/>
</svg>
