<svg width="123" height="18" viewBox="0 0 123 18" fill="none" xmlns="http://www.w3.org/2000/svg">
<path d="M3.03405 5.0275C1.32189 3.93245 3.8589 4.02716 4.98031 3.94903C12.1862 3.44703 19.4599 3.48312 26.6433 3.44305C50.907 3.30769 75.1251 3.83772 99.2126 5.62218C104.644 6.02454 110.174 6.39371 115.53 7.28858C115.766 7.3281 116.459 7.46873 116.217 7.48868C114.242 7.65117 112.288 7.30975 110.326 7.19875C87.9599 5.93322 65.321 6.07013 42.7994 7.74224C33.6523 8.42137 24.4539 9.5519 15.3738 11.3021C12.9074 11.7775 7.09074 12.9786 14.3416 12.9367C25.9999 12.8694 37.6923 12.0618 49.3563 11.9717C64.1396 11.8574 78.8602 12.3052 93.5728 13.0213C99.7868 13.3238 105.991 13.7624 112.229 13.8332C114.725 13.8616 117.864 14.2364 120.378 13.6843C122.236 13.2764 116.702 13.0791 114.834 12.9937C111.191 12.8273 107.758 13.2098 104.13 13.6053" stroke="#EC5928" stroke-width="4" stroke-linecap="round" stroke-linejoin="round"/>
</svg>
