<svg width="160" height="160" viewBox="0 0 160 160" fill="none" xmlns="http://www.w3.org/2000/svg">
<mask id="mask0_3716_140427" style="mask-type:alpha" maskUnits="userSpaceOnUse" x="34" y="34" width="92" height="92">
<path d="M112.061 112.061C129.768 94.3543 129.768 65.6462 112.061 47.9395C94.3542 30.2328 65.6461 30.2328 47.9394 47.9395C30.2327 65.6462 30.2327 94.3543 47.9394 112.061C65.6461 129.768 94.3542 129.768 112.061 112.061Z" fill="white"/>
</mask>
<g mask="url(#mask0_3716_140427)">
<path d="M112.061 112.061C129.768 94.3543 129.768 65.6462 112.061 47.9395C94.3542 30.2328 65.6461 30.2328 47.9394 47.9395C30.2327 65.6462 30.2327 94.3543 47.9394 112.061C65.6461 129.768 94.3542 129.768 112.061 112.061Z" fill="#C1402C"/>
<path d="M107.682 54.6268C116.462 78.0765 104.547 104.206 81.097 112.985C57.6473 121.764 -34.4412 134.515 -43.2206 111.047C-52 87.578 25.8553 36.802 49.324 28.0416C72.7927 19.2812 98.9029 31.1771 107.682 54.6268Z" fill="#EE5827"/>
<path opacity="0.5" d="M101.183 130.525C96.7556 130.525 92.3089 129.689 88.1092 127.997C79.4438 124.539 72.5267 117.774 68.8592 109.203C65.1916 100.633 65.0776 90.9606 68.5361 82.2952C71.9947 73.6298 78.7597 66.7128 87.3301 63.0452C90.4466 61.715 93.5441 60.3087 96.5085 58.9025C108.518 53.1826 118.875 47.0256 126.495 41.0967C133.849 35.3578 143.18 32.7924 152.434 33.9326C161.689 35.0727 170.107 39.8425 175.846 47.1967C181.585 54.5508 184.15 63.8813 183.01 73.1358C181.87 82.3902 177.1 90.8086 169.746 96.5475C158.002 105.707 143.541 114.41 126.761 122.392C122.942 124.197 119.008 125.983 115.017 127.693C110.609 129.575 105.896 130.525 101.183 130.525Z" fill="#D8491A"/>
<path opacity="0.5" d="M51.6043 131.874C51.1293 132.045 50.6352 132.216 50.1411 132.349C33.4565 136.986 18.102 139.703 4.51488 140.425C-5.17665 140.939 -13.462 133.508 -13.975 123.817C-14.4881 114.125 -7.05795 105.84 2.63359 105.327C13.5223 104.738 26.7104 102.381 40.7156 98.4859C50.0651 95.8824 59.7566 101.355 62.36 110.705C64.8304 119.56 60.0417 128.701 51.6043 131.874Z" fill="#D8491A"/>
<path opacity="0.6" d="M22.1116 138.639C15.1375 138.639 9.39861 137.898 5.00891 136.435C2.80457 135.694 1.60738 133.318 2.34849 131.095C3.08961 128.872 5.46499 127.693 7.68834 128.435C10.8428 129.48 16.9048 130.62 27.7745 130.05C45.3143 129.119 67.3958 124.102 89.9714 115.912C92.1567 115.114 94.5891 116.254 95.3682 118.439C96.1663 120.624 95.0262 123.057 92.8408 123.836C69.5051 132.292 46.5495 137.48 28.2116 138.449C26.0833 138.582 24.0499 138.639 22.1116 138.639Z" fill="#EE5827"/>
<path d="M2.50051 80.205C-4.92966 80.205 -11.1246 74.39 -11.5237 66.8839C-11.9418 59.1306 -5.99383 52.4986 1.7784 52.0995C19.2042 51.1684 41.3427 45.9615 64.1273 37.4482C71.4054 34.7308 79.5007 38.4173 82.2181 45.6955C84.9356 52.9737 81.249 61.0689 73.9708 63.7864C48.6018 73.2689 23.4798 79.1028 3.27964 80.167C2.99459 80.205 2.74755 80.205 2.50051 80.205Z" fill="#FF8666" fill-opacity="0.3"/>
<path opacity="0.2" d="M3.79289 96.7186C-4.01735 96.7186 -10.5354 95.8634 -15.6472 94.1532L-8.42604 72.4707C-6.31671 73.1738 -1.26191 74.257 8.99971 73.7249C26.6915 72.7748 49.1151 67.53 72.1277 58.9216C95.1403 50.3132 115.512 39.5575 129.479 28.6688C137.574 22.3598 140.672 18.1982 141.793 16.2979L161.461 27.9277C158.002 33.7996 151.959 40.1086 143.503 46.7027C127.75 58.9786 105.231 70.9315 80.109 80.319C54.968 89.7255 30.1501 95.4834 10.1969 96.5475C7.99256 96.6616 5.84522 96.7186 3.79289 96.7186Z" fill="#FF8666"/>
<path opacity="0.5" d="M13.0472 87.8822C12.116 87.8822 11.3369 87.1601 11.2989 86.2099C11.2419 85.2408 11.983 84.4046 12.9522 84.3666C24.9811 83.7205 39.3283 81.1551 54.4357 76.9555C58.0273 75.9483 61.7139 74.8461 65.3624 73.6679C66.2936 73.3639 67.2817 73.877 67.5668 74.8081C67.8518 75.7393 67.3577 76.7274 66.4266 77.0125C62.721 78.2097 58.9964 79.3118 55.3669 80.338C40.0124 84.6137 25.4181 87.2171 13.1232 87.8632C13.1042 87.8822 13.0852 87.8822 13.0472 87.8822Z" fill="#FF8666"/>
<path opacity="0.3" d="M92.0427 75.3022C90.3324 75.3022 88.7171 74.295 87.995 72.6417C87.0449 70.4184 88.071 67.834 90.3134 66.8648C93.8099 65.3636 97.2875 63.8053 100.613 62.2091C114.599 55.539 126.932 48.1659 136.282 40.8877C138.201 39.3865 140.956 39.7285 142.458 41.6478C143.959 43.5671 143.617 46.3226 141.698 47.8238C131.854 55.501 118.951 63.2162 104.395 70.1523C100.955 71.7866 97.3825 73.4019 93.7719 74.9411C93.2018 75.1881 92.6128 75.3022 92.0427 75.3022Z" fill="#FF8666"/>
<path fill-rule="evenodd" clip-rule="evenodd" d="M120.421 85.9348C120.012 86.0556 119.604 86.1915 119.198 86.3428C118.672 86.5388 118.16 86.7566 117.663 86.9946C118.162 86.761 118.675 86.5451 119.201 86.3483C119.607 86.1968 120.013 86.059 120.421 85.9348ZM141.729 94.9443C141.559 94.2308 141.352 93.5173 141.07 92.8038C137.536 83.3783 127.027 78.5895 117.602 82.1051C108.176 85.6397 103.387 96.1483 106.903 105.574C107.169 106.296 107.492 106.98 107.834 107.645C107.825 107.608 107.817 107.572 107.808 107.535C107.821 107.569 107.833 107.602 107.846 107.636C110.933 115.894 121.022 119.751 130.381 116.253C139.74 112.754 144.824 103.223 141.737 94.965C141.734 94.9581 141.732 94.9512 141.729 94.9443Z" fill="#D8491A"/>
<path opacity="0.5" d="M50.7113 61.202C49.4761 61.202 48.355 60.3849 48.0129 59.1497C47.5948 57.6484 48.469 56.1092 49.9702 55.6911C55.12 54.2469 60.4028 52.6126 65.6667 50.8074C67.1299 50.3133 68.7262 51.0924 69.2393 52.5556C69.7333 54.0189 68.9542 55.6151 67.491 56.1282C62.1321 57.9525 56.7543 59.6438 51.4904 61.107C51.2244 61.164 50.9584 61.202 50.7113 61.202Z" fill="#FF8666"/>
<path d="M68.061 45.2964C69.5432 46.5126 70.3983 48.2039 70.6264 49.9712C70.8544 51.8525 70.3413 53.8288 69.0491 55.406C66.5217 58.4655 61.999 58.9026 58.9395 56.3942C58.2174 55.7861 57.6283 55.083 57.2102 54.2849C55.842 51.7765 56.051 48.603 57.9703 46.2656C60.4597 43.2061 64.9825 42.769 68.061 45.2964Z" fill="#E65627"/>
<path opacity="0.5" d="M97.4208 46.8167C98.5799 47.1017 99.5301 47.8238 100.138 48.755C100.784 49.7621 101.031 50.9973 100.727 52.2515C100.138 54.6649 97.7058 56.1472 95.2924 55.5581C94.7223 55.425 94.1902 55.178 93.7342 54.8549C92.2899 53.8098 91.5298 51.9665 91.9859 50.1422C92.575 47.6908 95.0074 46.2276 97.4208 46.8167Z" fill="#D04012"/>
<path opacity="0.7" d="M84.4226 74.9601C85.0687 75.8343 85.2968 76.8604 85.1637 77.8676C85.0307 78.9317 84.4796 79.9389 83.5485 80.623C81.7432 81.9342 79.2158 81.5542 77.9046 79.7489C77.5816 79.3118 77.3725 78.8557 77.2585 78.3617C76.8594 76.8034 77.4105 75.1121 78.7787 74.105C80.565 72.7748 83.0924 73.1738 84.4226 74.9601Z" fill="#D04012"/>
<path opacity="0.5" d="M90.3895 40.3555C90.6556 40.7165 90.7506 41.1536 90.6936 41.5527C90.6366 41.9897 90.4085 42.4078 90.0285 42.6929C89.2873 43.2439 88.2422 43.0729 87.6911 42.3318C87.5581 42.1608 87.4631 41.9517 87.4251 41.7617C87.254 41.1156 87.4821 40.4125 88.0522 39.9944C88.7933 39.4623 89.8574 39.6144 90.3895 40.3555Z" fill="#C1402C"/>
<path d="M115.322 73.0979C115.588 73.459 115.683 73.8961 115.626 74.2951C115.569 74.7322 115.341 75.1503 114.96 75.4353C114.219 75.9864 113.174 75.8154 112.623 75.0743C112.49 74.9032 112.395 74.6942 112.357 74.5042C112.186 73.8581 112.414 73.155 112.984 72.7369C113.725 72.1858 114.77 72.3378 115.322 73.0979Z" fill="#AE3421"/>
<path opacity="0.7" d="M47.5566 70.1525C47.9937 70.0575 48.4308 70.1525 48.7728 70.3806C49.1529 70.6086 49.4379 70.9887 49.5329 71.4637C49.723 72.3759 49.1339 73.25 48.2217 73.4401C48.0127 73.4781 47.7847 73.4781 47.5946 73.4401C46.9485 73.326 46.3974 72.813 46.2454 72.1289C46.0554 71.2167 46.6445 70.3236 47.5566 70.1525Z" fill="#D04012"/>
<path opacity="0.3" d="M121.302 98.8189C110.899 121.622 83.9887 131.682 61.1859 121.298C38.3831 110.914 28.3034 83.9847 38.7064 61.1818C49.1093 38.379 76.0201 28.3184 98.8229 38.7023C121.626 49.0863 131.686 76.016 121.302 98.8189Z" fill="url(#paint0_radial_3716_140427)"/>
</g>
<path fill-rule="evenodd" clip-rule="evenodd" d="M72.2182 61.2551C71.2298 61.5001 70.5356 62.3873 70.5356 63.4056V64.69V68.7009V89.8688C68.7691 89.2178 66.5653 89.232 64.4166 90.0548C60.8061 91.4682 58.6397 94.7151 59.1718 97.6565L59.1715 97.6566C59.2476 97.9622 59.3236 98.2678 59.4376 98.5352C60.6538 101.668 64.8344 102.928 68.8251 101.4C72.2343 100.074 74.3353 97.0769 74.1048 94.2951H74.1462V70.6491L94.5552 65.6067V82.0328V83.9428V84.295C92.8189 83.6786 90.5216 83.5478 88.4364 84.3338C84.8258 85.7472 82.6595 88.9942 83.1916 91.8974L83.2104 91.8932C83.2596 92.159 83.3587 92.4248 83.4579 92.6906C84.6741 95.823 88.8548 97.0836 92.8454 95.5556C96.2279 94.1422 98.3563 91.1626 98.1282 88.374V88.0684L98.1278 88.0685V58.7689V57.5083L98.128 57.5083C98.128 56.1489 96.8519 55.1505 95.5325 55.4775L72.2182 61.2551Z" fill="#191234"/>
<defs>
<radialGradient id="paint0_radial_3716_140427" cx="0" cy="0" r="1" gradientUnits="userSpaceOnUse" gradientTransform="translate(65.1828 63.1959) rotate(45.929) scale(61.7882)">
<stop offset="0.2034" stop-color="#FFB884" stop-opacity="0.5"/>
<stop offset="0.7836" stop-color="#CF592E" stop-opacity="0.5"/>
<stop offset="0.9982" stop-color="#4B27F8" stop-opacity="0.5"/>
</radialGradient>
</defs>
</svg>
