<svg width="160" height="160" viewBox="0 0 160 160" fill="none" xmlns="http://www.w3.org/2000/svg">
<path d="M123.32 95.2622C131.846 71.3168 119.379 45.0046 95.4738 36.4923C71.5683 27.9799 45.277 40.4908 36.7504 64.4363C28.2238 88.3817 40.6909 114.694 64.5963 123.206C88.5018 131.719 114.793 119.208 123.32 95.2622Z" fill="#3EC8F0"/>
<path d="M106.603 60.1137C107.719 56.9788 106.087 53.5338 102.957 52.4193C99.8272 51.3048 96.3848 52.9428 95.2685 56.0777C94.1522 59.2126 95.7847 62.6574 98.9146 63.7719C102.045 64.8865 105.487 63.2487 106.603 60.1137Z" fill="#23B6E1"/>
<path d="M95.5234 36.5408C84.032 32.4606 71.3908 33.1116 60.3794 38.3508C49.368 43.59 40.8884 52.9882 36.8055 64.4786C34.6298 70.5633 33.7628 77.0388 34.261 83.4816C35.2069 83.2653 36.0712 82.7828 36.7518 82.0912C37.4324 81.3995 37.9009 80.5275 38.1019 79.5782L39.6574 72.2709C39.8081 71.5625 40.1081 70.8946 40.5374 70.3114C40.9667 69.7281 41.5155 69.2431 42.147 68.8887C42.7786 68.5343 43.4784 68.3187 44.1999 68.2561C44.9214 68.1936 45.6478 68.2856 46.3309 68.5261L50.1718 69.8799C51.4135 70.3174 52.7764 70.2567 53.9743 69.7106C55.1721 69.1645 56.1119 68.1755 56.5959 66.9513L57.2873 65.2132C57.5683 64.501 58.0063 63.8614 58.5689 63.3421C59.1315 62.8227 59.8041 62.437 60.5365 62.2137C61.2688 61.9903 62.0421 61.9351 62.7987 62.0521C63.5554 62.1691 64.2758 62.4553 64.9065 62.8894L72.3724 68.0459C73.1086 68.5525 73.9651 68.8564 74.856 68.9273C75.7468 68.9981 76.6406 68.8333 77.4476 68.4495C78.2546 68.0657 78.9466 67.4764 79.4539 66.7406C79.9611 66.0049 80.2658 65.1486 80.3374 64.2578L81.1441 54.2762C81.2064 53.4987 81.4463 52.746 81.8455 52.0759C82.2447 51.4059 82.7926 50.8364 83.4467 50.4115C84.1008 49.9866 84.8437 49.7175 85.6182 49.6251C86.3927 49.5326 87.1781 49.6193 87.9138 49.8784L90.3718 50.7474C91.6141 51.1851 92.9777 51.1246 94.1763 50.5785C95.375 50.0324 96.3155 49.0433 96.8006 47.8187C97.0814 47.1063 97.5195 46.4666 98.0822 45.9472C98.6449 45.4278 99.3177 45.0422 100.05 44.8192C100.783 44.5963 101.556 44.5418 102.313 44.6596C103.07 44.7774 103.79 45.0645 104.42 45.4997L110.662 49.8207C111.341 50.2968 112.127 50.5969 112.951 50.6941C113.775 50.7913 114.61 50.6826 115.381 50.3777C110.127 44.0633 103.267 39.283 95.5234 36.5408Z" fill="#58D3F7"/>
<path d="M57.9305 120.234C57.5929 119.454 57.3976 118.62 57.3542 117.771L58.4586 104.102C58.5303 103.212 58.835 102.355 59.3422 101.62C59.8495 100.884 60.5414 100.294 61.3485 99.9106C62.1555 99.5268 63.0493 99.362 63.9401 99.4329C64.831 99.5037 65.6874 99.8078 66.4237 100.314L72.6652 104.635C73.2955 105.07 74.0158 105.356 74.7722 105.473C75.5286 105.591 76.3017 105.536 77.034 105.313C77.7663 105.09 78.4388 104.705 79.0016 104.186C79.5644 103.667 80.003 103.028 80.2846 102.316C80.7697 101.092 81.7102 100.103 82.9088 99.5567C84.1075 99.0106 85.4711 98.95 86.7134 99.3876L89.1714 100.257C89.9075 100.515 90.693 100.601 91.4674 100.508C92.2419 100.414 92.9846 100.145 93.6385 99.7195C94.2924 99.2942 94.84 98.7246 95.2392 98.0544C95.6384 97.3843 95.8785 96.6316 95.9411 95.8541L96.7478 85.8773C96.8194 84.9865 97.1241 84.1302 97.6313 83.3944C98.1386 82.6586 98.8306 82.0693 99.6376 81.6855C100.445 81.3017 101.338 81.1369 102.229 81.2078C103.12 81.2786 103.977 81.5826 104.713 82.0892L112.179 87.2408C112.809 87.676 113.529 87.9631 114.286 88.0809C115.042 88.1987 115.816 88.1442 116.548 87.9213C117.281 87.6983 117.954 87.3127 118.516 86.7933C119.079 86.2739 119.517 85.6342 119.798 84.9218L120.489 83.1838C120.915 82.1055 121.697 81.2051 122.704 80.6315C123.712 80.0579 124.885 79.8456 126.03 80.0295C126.049 74.0666 124.907 68.1571 122.669 62.6302L116.989 59.711C116.293 59.3549 115.524 59.1638 114.742 59.1526C113.96 59.1415 113.186 59.3106 112.48 59.6467C111.774 59.9828 111.155 60.4769 110.67 61.0909C110.186 61.7049 109.849 62.4221 109.687 63.1871L108.131 70.4944C107.981 71.2027 107.681 71.8708 107.251 72.454C106.822 73.0372 106.273 73.5221 105.642 73.8765C105.01 74.2309 104.31 74.4466 103.589 74.5091C102.867 74.5717 102.141 74.4797 101.458 74.2393L97.6168 72.8853C96.3745 72.4464 95.0105 72.5064 93.8115 73.0526C92.6126 73.5988 91.6721 74.5887 91.188 75.8141L90.4967 77.5568C90.2151 78.2686 89.7764 78.9077 89.2136 79.4265C88.6508 79.9454 87.9783 80.3306 87.2461 80.5535C86.5138 80.7763 85.7407 80.8311 84.9843 80.7138C84.2278 80.5965 83.5076 80.3101 82.8772 79.8758L75.4115 74.7194C74.675 74.2127 73.818 73.9088 72.9268 73.8382C72.0356 73.7676 71.1414 73.9326 70.3342 74.317C69.527 74.7014 68.8353 75.2915 68.3284 76.0279C67.8215 76.7643 67.5172 77.6211 67.4463 78.5123L66.6398 88.4891C66.5775 89.2665 66.3374 90.0194 65.9382 90.6894C65.5389 91.3595 64.9913 91.9289 64.3372 92.3538C63.6832 92.7787 62.9402 93.0477 62.1657 93.1402C61.3912 93.2326 60.6059 93.146 59.8702 92.887L57.4119 92.0179C56.1703 91.5805 54.8075 91.6411 53.6097 92.1872C52.4118 92.7333 51.4721 93.7223 50.988 94.9466C50.7064 95.6589 50.2678 96.2986 49.7048 96.8179C49.1417 97.3372 48.4687 97.7229 47.736 97.9462C47.0033 98.1695 46.2298 98.2248 45.4728 98.1078C44.7158 97.9907 43.995 97.7045 43.3639 97.2704L37.1224 92.9493C36.7113 92.6632 36.2598 92.44 35.7829 92.2868C37.4232 98.1814 40.2247 103.689 44.0231 108.486C47.8215 113.282 52.54 117.272 57.9016 120.22L57.9305 120.234Z" fill="#23B6E1"/>
<path d="M109.643 95.6725C110.475 93.3369 109.259 90.7708 106.929 89.9409C104.598 89.111 102.035 90.3316 101.203 92.6672C100.371 95.0028 101.587 97.569 103.917 98.3989C106.248 99.2288 108.811 98.0081 109.643 95.6725Z" fill="#23B6E1"/>
<path d="M89.8147 114.633C90.6829 112.195 89.4143 109.516 86.9812 108.65C84.5482 107.784 81.8722 109.058 81.004 111.496C80.1359 113.934 81.4044 116.612 83.8374 117.479C86.2705 118.345 88.9466 117.071 89.8147 114.633Z" fill="#00ADDF"/>
<path d="M132.511 39.0808C132.792 39.0808 133.06 38.9695 133.258 38.7714C133.456 38.5733 133.568 38.3047 133.568 38.0245C133.568 37.8854 133.542 37.7476 133.489 37.6188C133.436 37.4901 133.358 37.3731 133.26 37.2745C133.162 37.1759 133.045 37.0976 132.917 37.0443C132.788 36.9909 132.651 36.9634 132.511 36.9634C132.373 36.964 132.236 36.992 132.108 37.0457C131.98 37.0993 131.864 37.1777 131.766 37.2762C131.668 37.3748 131.591 37.4915 131.539 37.6199C131.486 37.7483 131.459 37.8858 131.46 38.0245C131.46 38.3038 131.571 38.5717 131.768 38.7697C131.965 38.9676 132.232 39.0795 132.511 39.0808Z" fill="white"/>
<path d="M109.303 138.805C109.388 138.805 109.473 138.788 109.552 138.755C109.631 138.722 109.702 138.674 109.763 138.614C109.823 138.553 109.871 138.481 109.903 138.402C109.935 138.323 109.952 138.238 109.951 138.152C109.952 138.067 109.935 137.982 109.903 137.903C109.871 137.824 109.823 137.751 109.763 137.691C109.702 137.63 109.631 137.582 109.552 137.549C109.473 137.516 109.388 137.499 109.303 137.499C109.13 137.499 108.964 137.568 108.841 137.69C108.719 137.813 108.65 137.979 108.65 138.152C108.65 138.325 108.719 138.491 108.841 138.614C108.964 138.736 109.13 138.805 109.303 138.805Z" fill="white"/>
<path d="M21.0529 56.4463C21.2261 56.4463 21.3923 56.3775 21.5147 56.2551C21.6372 56.1326 21.7058 55.9666 21.7058 55.7934C21.7058 55.6202 21.6372 55.4541 21.5147 55.3317C21.3923 55.2092 21.2261 55.1404 21.0529 55.1404C20.8797 55.1404 20.7138 55.2092 20.5913 55.3317C20.4689 55.4541 20.4 55.6202 20.4 55.7934C20.4 55.9666 20.4689 56.1326 20.5913 56.2551C20.7138 56.3775 20.8797 56.4463 21.0529 56.4463Z" fill="white"/>
<path opacity="0.1" d="M88.9869 34.6452C86.4256 34.1374 83.8249 33.8541 81.2145 33.7986C87.9544 36.7915 93.8432 41.4209 98.3484 47.268C105.61 56.6537 108.864 68.5408 107.396 80.3254C105.929 92.1101 99.8595 102.831 90.5183 110.141C85.8376 113.802 77.5131 118.829 67.3307 124.091C68.6317 124.476 69.9759 124.803 71.3394 125.054C77.2566 126.213 83.3437 126.192 89.2527 124.992C95.1618 123.792 100.777 121.436 105.776 118.059C110.776 114.682 115.062 110.35 118.389 105.312C121.716 100.273 124.018 94.6271 125.166 88.696C127.51 76.7223 125.017 64.3056 118.234 54.1719C111.451 44.0381 100.932 37.0154 88.9869 34.6452Z" fill="#0035BE"/>
<g style="mix-blend-mode:color">
<path d="M121.574 98.9259C119.077 104.419 115.517 109.366 111.099 113.486C106.681 117.605 101.491 120.815 95.8267 122.931C90.1624 125.048 84.1347 126.03 78.0892 125.82C72.0437 125.611 66.099 124.215 60.5956 121.712C49.4768 116.633 40.8322 107.365 36.5575 95.9412C32.2828 84.5171 32.7271 71.8693 37.7927 60.7712C40.2905 55.2788 43.8504 50.3315 48.2686 46.2127C52.6868 42.0938 57.8764 38.8843 63.5406 36.7677C69.2047 34.6511 75.232 33.6692 81.2774 33.8781C87.3227 34.087 93.2672 35.4826 98.7708 37.985C109.89 43.0641 118.534 52.3318 122.809 63.7558C127.084 75.1799 126.639 87.8278 121.574 98.9259Z" fill="#48C8D8"/>
</g>
<path opacity="0.5" d="M122.054 98.9259C119.557 104.419 115.997 109.366 111.579 113.486C107.161 117.605 101.971 120.815 96.3068 122.931C90.6425 125.048 84.6148 126.03 78.5693 125.82C72.5239 125.611 66.5792 124.215 61.0757 121.712C49.9569 116.633 41.3123 107.365 37.0376 95.9412C32.7629 84.5171 33.2073 71.8693 38.2728 60.7712C40.7706 55.2788 44.3305 50.3315 48.7487 46.2127C53.1669 42.0938 58.3566 38.8843 64.0207 36.7677C69.6848 34.6511 75.7122 33.6692 81.7575 33.8781C87.8028 34.087 93.7473 35.4826 99.2509 37.985C110.37 43.0641 119.014 52.3318 123.289 63.7558C127.564 75.1799 127.12 87.8278 122.054 98.9259Z" fill="url(#paint0_radial_3716_140464)"/>
<path fill-rule="evenodd" clip-rule="evenodd" d="M69.9044 86.5506C69.8526 86.306 69.7834 86.0964 69.6624 85.8868C69.6451 85.8518 69.6278 85.8344 69.6106 85.7994C69.4723 85.5898 69.3167 85.4151 69.1265 85.2579C69.0574 85.2054 68.9709 85.153 68.9018 85.1006L67.3805 84.2446L58.5642 79.2132L68.8845 73.3433C69.5414 72.9765 69.939 72.2777 69.939 71.509V67.8053C69.939 66.1632 68.1757 65.1674 66.7755 66.0059L52.2026 74.9506C51.5803 75.3349 51.2 76.0162 51.2 76.75V78.165V81.659C51.2 82.3928 51.5803 83.0741 52.2026 83.4584L66.7928 92.3856C68.1757 93.2416 69.9563 92.2284 69.9563 90.5862V86.935C69.939 86.8127 69.9217 86.6729 69.9044 86.5506Z" fill="#191234"/>
<path fill-rule="evenodd" clip-rule="evenodd" d="M108.8 77.5187V76.7325C108.8 75.9988 108.42 75.3175 107.797 74.9331L93.2245 66.006C91.8415 65.15 90.061 66.1632 90.061 67.8054V71.509C90.061 72.2602 90.4586 72.959 91.1155 73.3434L101.453 79.2308L98.0475 81.1524L91.1155 85.1007C90.4586 85.4675 90.061 86.1663 90.061 86.935V87.4067V88.8567V90.5862C90.061 92.2284 91.8243 93.2242 93.2245 92.3856L107.815 83.4585C108.437 83.0741 108.817 82.3928 108.817 81.6591L108.8 77.5187Z" fill="#191234"/>
<path fill-rule="evenodd" clip-rule="evenodd" d="M85.6009 60.2407H85.4108H82.472H82.1436C81.9188 60.2407 81.6941 60.2757 81.4867 60.3455C80.8125 60.5727 80.2939 61.1317 80.121 61.8654L74.9349 84.1047L72.3937 94.9885C72.2554 95.565 72.3765 96.124 72.653 96.5783C73.0161 97.1722 73.6557 97.5741 74.4163 97.5741H74.6065H77.8737C78.8418 97.5741 79.6715 96.9102 79.8963 95.9493L83.8031 79.2131L87.6235 62.8088C87.9347 61.4986 86.932 60.2407 85.6009 60.2407Z" fill="#191234"/>
<defs>
<radialGradient id="paint0_radial_3716_140464" cx="0" cy="0" r="1" gradientUnits="userSpaceOnUse" gradientTransform="translate(65.0512 61.4048) rotate(45.6923) scale(65.1973 65.3106)">
<stop offset="0.09" stop-color="#ACECFF" stop-opacity="0"/>
<stop offset="0.35" stop-color="#3EC8F0" stop-opacity="0.3"/>
<stop offset="0.69" stop-color="#29A9CE" stop-opacity="0.3"/>
<stop offset="0.98" stop-color="#005E93" stop-opacity="0.5"/>
</radialGradient>
</defs>
</svg>
