<svg width="160" height="160" viewBox="0 0 160 160" fill="none" xmlns="http://www.w3.org/2000/svg">
<mask id="mask0_3888_141993" style="mask-type:alpha" maskUnits="userSpaceOnUse" x="33" y="33" width="94" height="94">
<path d="M124.212 66.8926C121.277 57.0683 115.369 48.9392 107.762 43.2373C101.815 38.7682 94.8637 35.8016 87.488 34.5688C80.8073 33.4515 73.7791 33.8368 66.8667 35.8787C59.7612 37.9976 53.544 41.6577 48.4852 46.3965C44.6235 50.018 41.4183 54.2559 38.9855 58.9176C33.7336 69.0887 32.2276 81.2631 35.7803 93.1293C38.9083 103.609 45.4345 112.161 53.8143 117.902C64.8972 125.53 79.224 128.266 93.126 124.105C107.105 119.982 117.648 109.811 122.745 97.3287C126.568 88.0053 127.34 77.3334 124.212 66.8926Z" fill="white"/>
</mask>
<g mask="url(#mask0_3888_141993)">
<path opacity="0.5" fill-rule="evenodd" clip-rule="evenodd" d="M66.8672 35.8785C59.7618 37.9975 53.5445 41.6575 48.4857 46.3963C44.624 50.0178 41.4189 54.2557 38.986 58.9175C33.7342 69.0885 32.2281 81.2629 35.7808 93.1292C38.9088 103.608 45.435 112.161 53.8148 117.902C64.8978 125.53 79.2245 128.265 93.1265 124.105C107.106 119.982 117.648 109.811 122.745 97.3286C126.568 87.9666 127.341 77.3332 124.213 66.8925C121.278 57.0682 115.37 48.9391 107.762 43.2371C101.815 38.768 94.8642 35.8015 87.4885 34.5686C80.8078 33.4899 73.7796 33.8366 66.8672 35.8785Z" fill="#A44030"/>
<path d="M124.213 66.8926C121.278 57.0683 115.37 48.9392 107.762 43.2373C101.815 38.7682 94.8642 35.8016 87.4885 34.5688C80.8078 33.4515 73.7796 33.8368 66.8672 35.8787C59.7618 37.9976 53.5445 41.6577 48.4857 46.3965C44.624 50.018 41.4189 54.2559 38.986 58.9176C33.7342 69.0887 32.2281 81.2631 35.7808 93.1293C38.9088 103.609 45.435 112.161 53.8148 117.902C64.8978 125.53 79.2245 128.266 93.1265 124.105C107.106 119.982 117.648 109.811 122.745 97.3287C126.568 88.0053 127.341 77.3334 124.213 66.8926Z" fill="#A44030"/>
<path d="M124.213 66.8926C121.278 57.0683 115.37 48.9392 107.762 43.2373C101.815 38.7682 94.8642 35.8016 87.4885 34.5688C80.8078 33.4515 73.7796 33.8368 66.8672 35.8787C59.7618 37.9976 53.5445 41.6577 48.4857 46.3965C44.624 50.018 41.4189 54.2559 38.986 58.9176C33.7342 69.0887 32.2281 81.2631 35.7808 93.1293C38.9088 103.609 45.435 112.161 53.8148 117.902C64.8978 125.53 79.2245 128.266 93.1265 124.105C107.106 119.982 117.648 109.811 122.745 97.3287C126.568 88.0053 127.341 77.3334 124.213 66.8926Z" fill="#D8491A"/>
<path opacity="0.5" d="M124.213 66.8926C121.278 57.0683 115.37 48.9392 107.762 43.2373C101.815 38.7682 94.8642 35.8016 87.4885 34.5688C80.8078 33.4515 73.7796 33.8368 66.8672 35.8787C59.7618 37.9976 53.5445 41.6577 48.4857 46.3965C44.624 50.018 41.4189 54.2559 38.986 58.9176C33.7342 69.0887 32.2281 81.2631 35.7808 93.1293C38.9088 103.609 45.435 112.161 53.8148 117.902C64.8978 125.53 79.2245 128.266 93.1265 124.105C107.106 119.982 117.648 109.811 122.745 97.3287C126.568 88.0053 127.341 77.3334 124.213 66.8926Z" fill="#EE5827"/>
<path d="M108.07 54.3322C116.991 78.1032 104.904 104.61 81.0385 113.471C57.1735 122.332 -36.3173 135.277 -45.2377 111.506C-54.1581 87.7349 24.9673 36.2632 48.7937 27.3636C72.6201 18.4639 99.1497 30.5228 108.07 54.3322Z" fill="#EE5827"/>
<path opacity="0.3" d="M68.2962 48.7463C43.8519 57.8772 19.8324 63.4635 0.717178 64.4652" stroke="#FF8666" stroke-width="54.652" stroke-miterlimit="10" stroke-linecap="round"/>
<path opacity="0.2" d="M132.477 70.668C132.477 70.668 136.03 68.5876 132.477 70.668C129.349 72.5173 120.699 74.174 111.392 88.5444C106.411 96.1727 92.5473 105.496 78.0275 103.493C66.2108 101.836 56.2477 99.7171 51.0345 102.144C39.3336 107.538 27.3625 102.106 27.3625 102.106C27.3625 102.106 59.0281 141.442 107.26 123.18C129.388 114.743 132.477 70.668 132.477 70.668Z" fill="#B22F0B"/>
<path opacity="0.2" d="M110.543 37.9975C118.112 43.9306 107.029 50.9039 101.506 53.1385C95.9843 55.373 86.6005 66.5843 77.5256 69.5123C68.4507 72.4403 57.3291 72.1707 48.1384 75.9077C38.9476 79.6448 20.7978 82.5729 15.237 75.8692C8.86529 68.2024 56.5568 27.6724 56.5568 27.6724L135.142 26.0928L110.543 37.9975Z" fill="#FF8666"/>
<path opacity="0.5" d="M74.938 33.2589C74.938 33.2589 82.0821 32.8737 81.9276 34.7615C81.7732 36.6493 70.4585 43.9693 64.6274 46.0883C58.7577 48.2073 47.443 51.8288 46.5162 49.9025C45.5894 47.9761 52.5404 42.0045 57.4447 39.192C62.3876 36.4181 74.938 33.2589 74.938 33.2589Z" fill="#FF8666"/>
<path opacity="0.2" d="M155.028 41.927C152.595 45.5485 147.807 50.634 138.809 56.8753C123.092 67.7784 100.733 78.1035 75.787 85.8859C50.8407 93.6683 26.5895 97.9833 7.43563 97.9448C-3.49286 97.9448 -10.328 96.5193 -14.4214 94.9397" stroke="#FF8666" stroke-width="29.6347" stroke-miterlimit="10"/>
<mask id="mask1_3888_141993" style="mask-type:alpha" maskUnits="userSpaceOnUse" x="33" y="33" width="94" height="94">
<path d="M124.226 66.8303C121.311 56.9826 115.383 48.8534 107.756 43.1186C101.828 38.6581 94.8571 35.6459 87.481 34.4294C80.8 33.3288 73.7907 33.6764 66.8587 35.7424C59.753 37.8472 53.5354 41.5159 48.4764 46.266C44.5952 49.8961 41.4092 54.1441 38.9956 58.8169C33.7242 69.0315 32.2374 81.2156 35.7709 93.1101C38.899 103.634 45.4255 112.188 53.825 117.961C64.9085 125.588 79.2359 128.33 93.1579 124.198C107.138 120.046 117.661 109.87 122.759 97.3388C126.563 87.9738 127.335 77.2765 124.226 66.8303Z" fill="white"/>
</mask>
<g mask="url(#mask1_3888_141993)">
<path opacity="0.6" fill-rule="evenodd" clip-rule="evenodd" d="M66.8498 35.7424C59.744 37.8472 53.5264 41.5159 48.4674 46.266C44.5863 49.8961 41.4002 54.1441 38.9866 58.8169C33.7152 69.0315 32.2284 81.2156 35.762 93.1101C38.89 103.634 45.4166 112.188 53.8161 117.961C64.8995 125.588 79.227 128.33 93.1489 124.198C107.129 120.046 117.652 109.87 122.75 97.3388C126.573 87.9738 127.345 77.2765 124.237 66.8303C121.321 56.9826 115.393 48.8534 107.766 43.1186C101.838 38.6581 94.8674 35.6459 87.4913 34.4294C80.791 33.3288 73.7625 33.6764 66.8498 35.7424Z" fill="#A44030"/>
<path d="M124.226 66.8303C121.311 56.9826 115.383 48.8534 107.756 43.1186C101.828 38.6581 94.8571 35.6459 87.481 34.4294C80.8 33.3288 73.7908 33.6764 66.8588 35.7424C59.753 37.8472 53.5354 41.5159 48.4764 46.266C44.5953 49.8961 41.4092 54.1441 38.9956 58.8169C33.7242 69.0315 32.2374 81.2156 35.771 93.1101C38.899 103.634 45.4256 112.188 53.8251 117.961C64.9085 125.588 79.236 128.33 93.1579 124.198C107.138 120.046 117.661 109.87 122.759 97.3388C126.563 87.9738 127.335 77.2765 124.226 66.8303Z" fill="#A44030"/>
<path d="M124.226 66.8303C121.311 56.9826 115.383 48.8534 107.756 43.1186C101.828 38.6581 94.8571 35.6459 87.481 34.4294C80.8 33.3288 73.7908 33.6764 66.8588 35.7424C59.753 37.8472 53.5354 41.5159 48.4764 46.266C44.5953 49.8961 41.4092 54.1441 38.9956 58.8169C33.7242 69.0315 32.2374 81.2156 35.771 93.1101C38.899 103.634 45.4256 112.188 53.8251 117.961C64.9085 125.588 79.236 128.33 93.1579 124.198C107.138 120.046 117.661 109.87 122.759 97.3388C126.563 87.9738 127.335 77.2765 124.226 66.8303Z" fill="#E7AE57"/>
<path d="M110.09 53.2117C119.01 77.0393 106.904 103.589 83.076 112.51C59.2485 121.431 -34.3239 134.368 -43.2448 110.541C-52.1656 86.7132 26.9442 35.0997 50.7717 26.1982C74.5993 17.2966 101.169 29.3649 110.09 53.2117Z" fill="#FFE968"/>
<path d="M110.09 53.2117C119.01 77.0393 106.903 103.589 83.0759 112.51C59.2484 121.431 -34.324 134.368 -43.2448 110.541C-52.1657 86.7132 26.9441 35.0997 50.7717 26.1982C74.5992 17.2966 101.169 29.3649 110.09 53.2117Z" fill="#F2C469"/>
<path opacity="0.3" d="M134.477 69.6051C134.477 69.6051 138.03 67.5197 134.477 69.6051C131.349 71.4394 122.698 73.1193 113.372 87.5047C108.41 95.1704 94.507 104.497 80.0058 102.469C68.1885 100.809 58.2443 98.6847 53.0308 101.098C41.3294 106.505 29.3384 101.06 29.3384 101.06C29.3384 101.06 60.9862 140.508 109.24 122.184C131.388 113.785 134.477 69.6051 134.477 69.6051Z" fill="#FCB25A"/>
<path opacity="0.5" d="M112.522 36.8567C120.111 42.8232 108.989 49.7745 103.466 52.053C97.9439 54.3315 88.5596 65.5308 79.5036 68.4658C70.4476 71.4008 59.3062 71.1112 50.115 74.8765C40.9238 78.6225 22.7538 81.5382 17.2314 74.8379C10.8787 67.1335 58.5338 26.4877 58.5338 26.4877L137.142 24.9043L112.522 36.8567Z" fill="#FFE968"/>
<path opacity="0.5" d="M9.54653 104.709C9.52722 104.709 9.48861 104.709 9.4693 104.709C-0.919053 104.709 -9.22201 103.512 -15.2272 101.137L-9.55027 86.7132C-7.19454 87.64 -1.59488 89.2041 9.4693 89.2041C9.48861 89.2041 9.50791 89.2041 9.54653 89.2041C27.9289 89.2041 51.3316 85.0333 75.4874 77.4641C99.6819 69.8756 121.308 59.912 136.408 49.4078C145.483 43.0744 149.191 38.614 150.6 36.5093L163.499 45.1019C159.927 50.4698 153.786 56.1853 145.271 62.1326C128.935 73.525 105.803 84.2223 80.141 92.2549C54.5177 100.268 29.4543 104.709 9.54653 104.709Z" fill="#FFE968"/>
<path opacity="0.3" d="M122.001 98.9548C111.448 122.107 84.147 132.314 61.0137 121.76C37.8805 111.206 27.6548 83.9056 38.2085 60.7724C48.7622 37.6392 76.0629 27.4328 99.1961 37.9672C122.329 48.5016 132.536 75.8216 122.001 98.9548Z" fill="url(#paint0_radial_3888_141993)"/>
<g style="mix-blend-mode:darken" opacity="0.4">
<path d="M124.226 66.8303C121.31 56.9826 115.383 48.8534 107.755 43.1186C101.828 38.6581 94.8569 35.6459 87.4808 34.4294C80.7998 33.3288 73.7906 33.6764 66.8585 35.7424C59.7528 37.8472 53.5352 41.5159 48.4762 46.266C44.595 49.8961 41.409 54.1441 38.9954 58.8169C33.724 69.0315 32.2372 81.2156 35.7707 93.1101C38.8988 103.634 45.4253 112.188 53.8248 117.961C64.9083 125.588 79.2357 128.33 93.1577 124.198C107.138 120.046 117.661 109.87 122.759 97.3388C126.563 87.9738 127.335 77.2765 124.226 66.8303Z" fill="#F8D829"/>
</g>
<path opacity="0.4" d="M2.7111 77.6573C-4.8388 77.6573 -11.1336 71.7487 -11.5391 64.1216C-11.9639 56.2434 -5.92011 49.5045 1.97735 49.099C19.6839 48.1529 42.1791 42.8621 65.3308 34.2116C72.7262 31.4504 80.952 35.1964 83.7132 42.5918C86.4744 49.9872 82.7284 58.213 75.333 60.9742C49.5552 70.6095 24.0285 76.5374 3.50277 77.6187C3.21313 77.6573 2.96212 77.6573 2.7111 77.6573Z" fill="#FFFC6D"/>
<path opacity="0.6" d="M76.9163 32.1065C76.9163 32.1065 84.0414 31.7396 83.9255 33.6126C83.8097 35.4856 72.4752 42.8424 66.6052 44.9664C60.7545 47.0904 49.4393 50.7012 48.4932 48.7703C47.547 46.8394 54.5176 40.8342 59.4415 38.0537C64.3846 35.2539 76.9163 32.1065 76.9163 32.1065Z" fill="#FFFDA0"/>
<path opacity="0.07" d="M131.768 83.4637C131.768 83.4637 135.321 81.3833 131.768 83.4637C128.64 85.313 119.99 86.9696 110.683 101.34C105.702 108.968 91.8383 118.292 77.3185 116.288C65.5018 114.632 55.5387 112.513 50.3255 114.94C38.6247 120.334 26.6535 114.901 26.6535 114.901C26.6535 114.901 58.3191 154.237 106.551 135.976C128.679 127.538 131.768 83.4637 131.768 83.4637Z" fill="#B22F0B"/>
</g>
</g>
<path d="M94.1854 57.7598L95.3823 54.0408C95.7457 52.8011 95.019 51.5187 93.7793 51.1981L93.5869 51.1554C92.4114 50.8348 91.1931 51.5187 90.8297 52.6943L89.6756 56.3064C85.3795 55.9858 81.3185 58.5293 79.9719 62.6758C79.0315 65.5826 79.6299 68.6176 81.3398 70.9474L81.1902 71.2039L70.9523 88.6447C70.9095 88.5379 70.824 88.4524 70.7171 88.3883L68.4943 87.1272L71.9141 81.335C72.2347 80.7792 72.0423 80.0525 71.4866 79.7319L68.9431 78.2572L66.3783 76.7824C65.8226 76.4618 65.1172 76.6541 64.7966 77.2098L61.3555 83.0449L60.6715 82.6601C60.3723 82.4891 59.9876 82.5746 59.8166 82.8739L56.6533 88.2173C56.4823 88.5165 56.5678 88.9012 56.867 89.0722L57.5724 89.4783L54.9434 93.924L54.751 97.8995L54.6014 100.742C54.58 101.191 54.8152 101.576 55.1571 101.768C55.4991 101.961 55.948 101.982 56.3327 101.747L57.9357 100.699L58.7265 100.187L62.0822 98.0278L64.6898 93.6248L66.8913 94.8858C67.0195 94.95 67.1477 94.9927 67.2974 94.9713H72.9186C73.9659 94.9286 74.9277 94.3729 75.4621 93.4752L86.4054 74.7305V101.79C86.4054 102.324 86.8329 102.73 87.3458 102.73H88.0725L88.9275 107.222C88.9916 107.714 89.7183 107.735 89.8038 107.244L90.9366 102.751H91.6847C92.219 102.751 92.6251 102.324 92.6251 101.811V74.4526C92.9457 74.3244 93.2877 74.1962 93.5869 74.0465C95.8739 72.9351 97.5411 71.0115 98.3105 68.639C99.6784 64.4712 97.8617 60.0254 94.1854 57.7598ZM92.1549 71.1397C91.5992 71.4176 91.0221 71.5886 90.4236 71.6954H89.5259H88.2863C87.9657 71.6313 87.6451 71.5672 87.3245 71.4603C87.3031 71.4603 87.2817 71.439 87.2603 71.439C87.1748 71.4176 87.0894 71.3748 87.0039 71.3535C83.8619 70.1565 82.152 66.8009 83.1566 63.7017C84.0115 61.03 86.6191 59.4056 89.3763 59.5338C89.932 59.5552 90.5091 59.6621 91.0648 59.8545C94.3991 60.9231 96.2586 64.407 95.2327 67.6131C94.7411 69.152 93.6297 70.413 92.1549 71.1397Z" fill="#191234"/>
<defs>
<radialGradient id="paint0_radial_3888_141993" cx="0" cy="0" r="1" gradientUnits="userSpaceOnUse" gradientTransform="translate(61.7362 64.5053) rotate(40.9144) scale(66.6243)">
<stop offset="0.1579" stop-color="#FFF2AB" stop-opacity="0.5"/>
<stop offset="0.4729" stop-color="#FFE968" stop-opacity="0.5"/>
<stop offset="0.7641" stop-color="#FCC55A" stop-opacity="0.5"/>
<stop offset="0.9986" stop-color="#A07300" stop-opacity="0.3"/>
</radialGradient>
</defs>
</svg>
