<svg width="24" height="24" viewBox="0 0 24 24" fill="none" xmlns="http://www.w3.org/2000/svg">
<path d="M22.4216 9.13208C22.328 8.8381 22.1479 8.57916 21.9049 8.38906C21.6619 8.19896 21.3672 8.08652 21.0593 8.06641L15.4915 7.67676L13.426 2.47583C13.3143 2.1883 13.1182 1.94124 12.8637 1.76702C12.6091 1.59281 12.3078 1.49956 11.9993 1.49951H11.9978C11.6898 1.50006 11.3891 1.59354 11.1351 1.76773C10.8811 1.94192 10.6855 2.18871 10.574 2.47583L8.4778 7.70678L2.94069 8.06641C2.63281 8.08652 2.33814 8.19896 2.09512 8.38906C1.8521 8.57916 1.67203 8.8381 1.57839 9.13208C1.4796 9.43024 1.47288 9.75123 1.5591 10.0533C1.64532 10.3553 1.82048 10.6244 2.06178 10.8254L6.32155 14.426L5.05446 19.4102C4.96712 19.7459 4.98318 20.1002 5.10054 20.4266C5.21789 20.7531 5.43107 21.0365 5.71217 21.2397C5.98357 21.4372 6.30812 21.5484 6.64358 21.5588C6.97903 21.5693 7.30987 21.4785 7.59303 21.2983L11.9876 18.5144C11.9934 18.51 11.9993 18.5071 12.0125 18.5144L16.741 21.51C16.9977 21.674 17.2979 21.7567 17.6024 21.7473C17.9069 21.7379 18.2014 21.6368 18.4475 21.4573C18.7022 21.2732 18.8954 21.0164 19.0018 20.7207C19.1082 20.425 19.1228 20.104 19.0437 19.7998L17.6975 14.355L21.9382 10.8254C22.1795 10.6244 22.3547 10.3553 22.4409 10.0533C22.5272 9.75123 22.5204 9.43024 22.4216 9.13208Z" fill="#813589"/>
</svg>
