<svg width="1440" height="140" viewBox="0 0 1440 140" fill="none" xmlns="http://www.w3.org/2000/svg">
<g clip-path="url(#clip0_56_782)">
<rect width="1440" height="140" fill="white"/>
<g filter="url(#filter0_f_56_782)">
<path d="M237.075 26.0665C171.704 97.2394 -23.3064 165.764 -94.4877 100.385C-165.669 35.0058 -86.0663 -139.519 -20.6951 -210.692C44.6761 -281.865 155.374 -286.561 226.555 -221.182C297.736 -155.803 302.446 -45.1063 237.075 26.0665Z" fill="#B1F04A" fill-opacity="0.2"/>
</g>
<g filter="url(#filter1_f_56_782)">
<path d="M509.938 92.7316C676.544 52.1868 1022.23 104.115 1053.29 231.745C1084.35 359.375 789.021 514.375 622.415 554.92C455.809 595.465 295.569 524.869 264.509 397.239C233.45 269.609 343.332 133.276 509.938 92.7316Z" fill="#C4EFFF" fill-opacity="0.5"/>
</g>
<g filter="url(#filter2_f_56_782)">
<path d="M1490.42 128.771C1368.35 143.554 1122.7 45.2799 1107.52 -80.0899C1092.34 -205.46 1313.37 -310.45 1435.43 -325.233C1557.5 -340.016 1668.76 -250.368 1683.94 -124.998C1699.13 0.37181 1612.48 113.988 1490.42 128.771Z" fill="#FFDCC4" fill-opacity="0.5"/>
</g>
</g>
<defs>
<filter id="filter0_f_56_782" x="-322.438" y="-467.302" width="805.62" height="793.996" filterUnits="userSpaceOnUse" color-interpolation-filters="sRGB">
<feFlood flood-opacity="0" result="BackgroundImageFix"/>
<feBlend mode="normal" in="SourceGraphic" in2="BackgroundImageFix" result="shape"/>
<feGaussianBlur stdDeviation="100" result="effect1_foregroundBlur_56_782"/>
</filter>
<filter id="filter1_f_56_782" x="59.2578" y="-120.783" width="1196.3" height="887.148" filterUnits="userSpaceOnUse" color-interpolation-filters="sRGB">
<feFlood flood-opacity="0" result="BackgroundImageFix"/>
<feBlend mode="normal" in="SourceGraphic" in2="BackgroundImageFix" result="shape"/>
<feGaussianBlur stdDeviation="100" result="effect1_foregroundBlur_56_782"/>
</filter>
<filter id="filter2_f_56_782" x="906.775" y="-526.828" width="978.894" height="857.074" filterUnits="userSpaceOnUse" color-interpolation-filters="sRGB">
<feFlood flood-opacity="0" result="BackgroundImageFix"/>
<feBlend mode="normal" in="SourceGraphic" in2="BackgroundImageFix" result="shape"/>
<feGaussianBlur stdDeviation="100" result="effect1_foregroundBlur_56_782"/>
</filter>
<clipPath id="clip0_56_782">
<rect width="1440" height="140" fill="white"/>
</clipPath>
</defs>
</svg>
