<svg width="72" height="72" viewBox="0 0 72 72" fill="none" xmlns="http://www.w3.org/2000/svg">
<path d="M29.25 49.5C34.2206 49.5 38.25 45.4706 38.25 40.5C38.25 35.5294 34.2206 31.5 29.25 31.5C24.2794 31.5 20.25 35.5294 20.25 40.5C20.25 45.4706 24.2794 49.5 29.25 49.5Z" stroke="#8270FC" stroke-width="3" stroke-linecap="round" stroke-linejoin="round"/>
<path d="M15.0158 58.4997C16.2941 55.8067 18.3101 53.5316 20.8297 51.9386C23.3493 50.3456 26.2691 49.5 29.25 49.5C32.2309 49.5 35.1507 50.3456 37.6703 51.9386C40.1899 53.5316 42.2059 55.8067 43.4842 58.4997L60.75 58.5C61.0454 58.5 61.338 58.4418 61.611 58.3287C61.884 58.2157 62.132 58.0499 62.341 57.841C62.5499 57.6321 62.7156 57.384 62.8287 57.111C62.9418 56.8381 63 56.5455 63 56.25V15.75C63 15.1533 62.7629 14.581 62.341 14.159C61.919 13.7371 61.3467 13.5 60.75 13.5H11.25C10.6533 13.5 10.081 13.7371 9.65901 14.159C9.23705 14.581 9 15.1533 9 15.75V56.2502C9 56.5457 9.0582 56.8382 9.17128 57.1112C9.28435 57.3842 9.45009 57.6322 9.65902 57.8411C9.86796 58.05 10.116 58.2158 10.389 58.3288C10.662 58.4419 10.9545 58.5 11.25 58.5L15.0158 58.4997Z" stroke="#8270FC" stroke-width="3" stroke-linecap="round" stroke-linejoin="round"/>
<path d="M49.5 49.5H54V22.5H18V27" stroke="#8270FC" stroke-width="3" stroke-linecap="round" stroke-linejoin="round"/>
</svg>
