<svg width="30" height="31" viewBox="0 0 30 31" fill="none" xmlns="http://www.w3.org/2000/svg">
<path fill-rule="evenodd" clip-rule="evenodd" d="M15 0.00292969C6.71573 0.00292969 0 6.71866 0 15.0029C0 23.2872 6.71573 30.0029 15 30.0029C23.2843 30.0029 30 23.2872 30 15.0029C30 6.71866 23.2843 0.00292969 15 0.00292969ZM15.5822 12.4049L15.5508 11.9291C15.4563 10.696 16.2852 9.56962 17.5967 9.13268C18.0794 8.97732 18.8978 8.9579 19.4329 9.09384C19.6427 9.15209 20.0414 9.34629 20.3247 9.52107L20.8388 9.84149L21.4054 9.67642C21.7202 9.58904 22.1398 9.44339 22.3287 9.34629C22.5071 9.2589 22.6645 9.21035 22.6645 9.23948C22.6645 9.40455 22.2762 9.96772 21.951 10.2784C21.5103 10.7154 21.6362 10.7542 22.5281 10.4629C23.0632 10.2979 23.0737 10.2979 22.9687 10.4823C22.9058 10.5794 22.5805 10.9193 22.2343 11.23C21.6467 11.764 21.6152 11.8223 21.6152 12.2689C21.6152 12.9583 21.2585 14.3954 20.9018 15.1819C20.2408 16.6578 18.8243 18.1822 17.4079 18.9493C15.4144 20.0271 12.7598 20.299 10.525 19.6678C9.78005 19.4542 8.5 18.9105 8.5 18.8134C8.5 18.7842 8.88821 18.7454 9.36036 18.7357C10.3466 18.7163 11.3329 18.4638 12.1723 18.0172L12.7388 17.7064L12.0883 17.5025C11.165 17.2112 10.3361 16.5413 10.1263 15.9101C10.0633 15.7062 10.0843 15.6965 10.6719 15.6965L11.2804 15.6868L10.7663 15.4635C10.1578 15.1819 9.60168 14.7061 9.32888 14.2206C9.12953 13.8711 8.87772 12.9875 8.95116 12.9195C8.97215 12.8904 9.19248 12.9486 9.4443 13.0263C10.1683 13.2691 10.2627 13.2108 9.843 12.803C9.05609 12.065 8.81477 10.9678 9.19248 9.92888L9.37085 9.46281L10.0633 10.0939C11.4798 11.3659 13.148 12.1233 15.0576 12.3466L15.5822 12.4049Z" fill="#4B205A"/>
</svg>
