<svg width="30" height="31" viewBox="0 0 30 31" fill="none" xmlns="http://www.w3.org/2000/svg">
<path fill-rule="evenodd" clip-rule="evenodd" d="M15 0.00390625C6.71573 0.00390625 0 6.71964 0 15.0039C0 23.2882 6.71573 30.0039 15 30.0039C23.2843 30.0039 30 23.2882 30 15.0039C30 6.71964 23.2843 0.00390625 15 0.00390625ZM15.5822 12.4059L15.5508 11.9301C15.4563 10.6969 16.2852 9.57059 17.5967 9.13365C18.0794 8.97829 18.8978 8.95887 19.4329 9.09481C19.6427 9.15307 20.0414 9.34727 20.3247 9.52204L20.8388 9.84247L21.4054 9.6774C21.7202 9.59001 22.1398 9.44437 22.3287 9.34727C22.5071 9.25988 22.6645 9.21133 22.6645 9.24046C22.6645 9.40553 22.2762 9.9687 21.951 10.2794C21.5103 10.7164 21.6362 10.7552 22.5281 10.4639C23.0632 10.2988 23.0737 10.2988 22.9687 10.4833C22.9058 10.5804 22.5805 10.9203 22.2343 11.231C21.6467 11.765 21.6152 11.8233 21.6152 12.2699C21.6152 12.9593 21.2585 14.3964 20.9018 15.1829C20.2408 16.6588 18.8243 18.1832 17.4079 18.9503C15.4144 20.0281 12.7598 20.2999 10.525 19.6688C9.78005 19.4552 8.5 18.9114 8.5 18.8143C8.5 18.7852 8.88821 18.7464 9.36036 18.7367C10.3466 18.7172 11.3329 18.4648 12.1723 18.0181L12.7388 17.7074L12.0883 17.5035C11.165 17.2122 10.3361 16.5422 10.1263 15.9111C10.0633 15.7072 10.0843 15.6975 10.6719 15.6975L11.2804 15.6878L10.7663 15.4645C10.1578 15.1829 9.60168 14.7071 9.32888 14.2216C9.12953 13.872 8.87772 12.9884 8.95116 12.9205C8.97215 12.8914 9.19248 12.9496 9.4443 13.0273C10.1683 13.27 10.2627 13.2118 9.843 12.804C9.05609 12.066 8.81477 10.9688 9.19248 9.92986L9.37085 9.46379L10.0633 10.0949C11.4798 11.3669 13.148 12.1243 15.0576 12.3476L15.5822 12.4059Z" fill="white"/>
</svg>
