<svg width="30" height="30" viewBox="0 0 30 30" fill="none" xmlns="http://www.w3.org/2000/svg">
<path d="M0 7.54916V10.8333H4.69L0 7.54916ZM3.88667 25.8333H10.8333V20.9692L3.88667 25.8333ZM19.1667 20.97V25.8333H26.1125L19.1667 20.97ZM0 19.1667V22.4508L4.69167 19.1667H0ZM26.1142 4.16666H19.1667V9.03082L26.1142 4.16666ZM30 22.4517V19.1667H25.3075L30 22.4517ZM30 10.8333V7.54916L25.3092 10.8333H30ZM10.8333 4.16666H3.88667L10.8333 9.03082V4.16666Z" fill="#00247D"/>
<path d="M20.95 19.1667L29.0433 24.8342C29.4358 24.435 29.7166 23.9325 29.8683 23.3767L23.8558 19.1667H20.95ZM10.8333 19.1667H9.04913L0.956632 24.8333C1.3908 25.275 1.94746 25.5908 2.57163 25.7375L10.8333 19.9525V19.1667ZM19.1666 10.8333H20.9508L29.0433 5.16668C28.6091 4.72501 28.0533 4.40918 27.4291 4.26251L19.1666 10.0475V10.8333ZM9.04913 10.8333L0.956632 5.16668C0.564132 5.56668 0.283298 6.06835 0.130798 6.62418L6.1433 10.8333H9.04913Z" fill="#CF1B2B"/>
<path d="M30 17.5H17.5V25.8333H19.1667V20.97L26.1125 25.8333H26.6667C27.5975 25.8333 28.4383 25.4492 29.0433 24.8342L20.95 19.1667H23.8558L29.8683 23.3767C29.9458 23.0958 30 22.805 30 22.5V22.4517L25.3075 19.1667H30V17.5ZM0 17.5V19.1667H4.69167L0 22.4508V22.5C0 23.4092 0.365833 24.2317 0.956667 24.8333L9.04917 19.1667H10.8333V19.9525L2.57167 25.7367C2.81667 25.795 3.07 25.8333 3.33333 25.8333H3.88667L10.8333 20.9692V25.8333H12.5V17.5H0ZM30 7.49999C30 6.59082 29.6342 5.76832 29.0433 5.16666L20.9508 10.8333H19.1667V10.0475L27.4292 4.26249C27.1833 4.20499 26.93 4.16666 26.6667 4.16666H26.1142L19.1667 9.03082V4.16666H17.5V12.5H30V10.8333H25.3092L30 7.54916V7.49999ZM10.8333 4.16666V9.03082L3.88667 4.16666H3.33333C2.40167 4.16666 1.56167 4.55082 0.956667 5.16666L9.04917 10.8333H6.14333L0.130833 6.62416C0.0541667 6.90499 0 7.19499 0 7.49999V7.54916L4.69 10.8333H0V12.5H12.5V4.16666H10.8333Z" fill="#EEEEEE"/>
<path d="M17.5 12.5V4.16666H12.5V12.5H0V17.5H12.5V25.8333H17.5V17.5H30V12.5H17.5Z" fill="#CF1B2B"/>
</svg>
