<svg width="1792" height="750" viewBox="0 0 1792 750" fill="none" xmlns="http://www.w3.org/2000/svg">
<g clip-path="url(#clip0_4627_182337)">
<rect width="1792" height="750" fill="#30207D"/>
<path d="M1792 750L0 750L6.60815e-05 -5.88492L1792 -5.88477L1792 750Z" fill="url(#paint0_linear_4627_182337)"/>
<path opacity="0.5" d="M926 -21.7432H-3V708.901H926V-21.7432Z" fill="url(#paint1_radial_4627_182337)"/>
<path opacity="0.5" d="M992.501 761.56L1799.5 761.561L1799.5 -5.88477L992.501 -5.88484L992.501 761.56Z" fill="url(#paint2_radial_4627_182337)"/>
<path opacity="0.3" d="M1359 769.15C1313.7 949.729 1476.66 1191.15 1690.61 1178.04C2020.19 1157.77 2237.03 688.425 2081.91 631.101C1841.13 542.081 1986.06 253.468 1967 167.149C1947.16 77.2744 1777.81 150.968 1690.61 425.15C1623.27 636.889 1424.97 506.146 1359 769.15Z" fill="#3D17AD"/>
<path d="M1619.38 625.428C1749.6 547.179 1723.98 384.156 1870.69 407.562C2034.25 433.658 2125.3 550.203 2086.85 721.698C2049.87 886.588 1900.49 941.974 1757.32 947.549C1606.92 953.461 1307 813.149 1619.38 625.428Z" fill="#612193" fill-opacity="0.5"/>
<path opacity="0.3" d="M-191.019 -87.6384C-337.256 -5.13992 -375.823 229.332 -234.478 360.837C-16.6814 563.377 421.099 474.5 366.143 276.821C274.957 64.4226 425.639 36.9281 470.278 -29.0801C516.757 -97.8049 427.733 -195.605 254.231 -131.093C80.7294 -66.5817 -44.3569 -170.37 -191.019 -87.6384Z" fill="#3D17AD"/>
<path opacity="0.5" d="M-191.954 -115.911C-330.13 -51.4205 -381.423 158.198 -262.619 287.144C-79.5489 485.748 323.061 435.838 287.102 253.005C219.364 54.314 357.725 39.9391 402.754 -16.7137C449.639 -75.6979 375.858 -170.47 214.249 -124.17C52.641 -77.8704 -53.3763 -180.584 -191.954 -115.911Z" fill="#612193"/>
<g clip-path="url(#clip1_4627_182337)">
<path d="M153.577 123.244C146.802 118.295 146.873 128.51 129.546 125.928C121.19 124.681 110.548 142.608 107.947 147.942C98.0279 168.422 109.095 180.421 121.15 191.3C132.136 201.22 156.213 222.326 163.736 218.548C175.154 212.82 183.509 218.517 188.994 213.031C191.373 210.644 192.806 207.476 193.028 204.114C193.25 200.751 192.246 197.423 190.201 194.744L151.704 124.732C150.888 123.656 138.633 127.318 137.52 126.528L153.577 123.244Z" fill="#5F6D80"/>
<path d="M114.506 184.828C114.506 184.828 122.583 174.078 143.043 184.451C160.555 193.351 179.851 196.041 179.851 196.041L186.408 200.282C181.172 205.733 174.392 209.449 166.98 210.928C164.99 209.953 161.811 207.867 161.811 207.867C157.809 209.86 143.737 209.999 143.737 209.999C142.488 209.265 141.304 208.423 140.2 207.484C129.851 189.576 124.317 188.779 118.983 189.274C117.373 187.915 115.876 186.428 114.506 184.828Z" fill="#48586F"/>
<path d="M118.232 109.778C119.827 112.135 121.077 116.377 118.353 116.965C115.445 117.494 112.776 118.918 110.718 121.039C110.372 121.425 110.117 121.883 109.972 122.38C109.827 122.878 109.796 123.401 109.881 123.912C109.966 124.423 110.164 124.908 110.462 125.332C110.759 125.756 111.149 126.107 111.6 126.361C117.45 129.621 120.503 132.969 121.161 133.815C121.561 134.723 121.636 135.742 121.372 136.699C121.109 137.656 120.523 138.492 119.714 139.067C116.95 141.176 114.603 139.894 114.603 139.894L114.697 140.022C112.783 137.816 110.467 135.994 107.872 134.654C105.857 133.535 104.131 131.96 102.833 130.056C101.534 128.151 100.7 125.969 100.395 123.684C99.4077 116.364 104.181 109.348 112.404 107.156C113.774 106.804 115.343 105.527 118.232 109.778Z" fill="#5324FA"/>
<path opacity="0.49" d="M117.483 136.22C115.887 137.64 113.637 138.351 112.523 137.882C113.017 138.308 113.441 138.686 113.741 139.019C114.658 138.914 115.547 138.636 116.361 138.2C117.009 137.872 117.612 137.462 118.154 136.979C119.621 135.683 120.292 134.187 120.133 132.711C119.706 132.273 119.182 131.73 118.449 131.136C120.088 133.477 118.34 135.461 117.483 136.22Z" fill="#5B55FF"/>
<path opacity="0.49" d="M114.438 133.558C112.864 135.294 110.482 135.992 109.331 135.531C109.914 135.902 110.448 136.259 110.928 136.611C111.643 136.493 112.335 136.26 112.976 135.923C113.808 135.493 114.558 134.921 115.193 134.232C115.79 133.635 116.231 132.899 116.477 132.091C116.724 131.283 116.767 130.427 116.605 129.598C116.192 129.279 115.727 129.001 115.274 128.628L115.207 128.641C115.631 129.433 115.785 130.341 115.646 131.228C115.507 132.115 115.083 132.933 114.438 133.558Z" fill="#5B55FF"/>
<path opacity="0.49" d="M111.293 131.457C110.46 132.303 109.371 132.852 108.195 133.018C107.018 133.183 105.82 132.957 104.786 132.374C105.431 133.002 106.135 133.567 106.888 134.061C108.095 134.149 109.302 133.898 110.374 133.337C110.967 133.036 111.512 132.649 111.99 132.188C112.633 131.641 113.136 130.95 113.46 130.171C113.783 129.392 113.918 128.547 113.852 127.706C113.436 127.449 112.987 127.182 112.561 126.912C113.204 128.318 112.728 130.076 111.293 131.457Z" fill="#5B55FF"/>
<path opacity="0.49" d="M107.633 129.501C106.639 129.988 105.507 130.119 104.428 129.872C103.348 129.625 102.386 129.015 101.702 128.145C102.096 128.97 102.568 129.756 103.112 130.491C103.889 130.844 104.734 131.021 105.586 131.011C106.439 131 107.28 130.803 108.047 130.431L108.447 130.24C109.228 129.876 109.922 129.35 110.485 128.698C111.047 128.045 111.465 127.28 111.71 126.455C111.667 126.423 111.621 126.396 111.572 126.374C111.267 126.202 110.991 125.984 110.753 125.727C110.889 126.962 109.488 128.681 107.633 129.501Z" fill="#5B55FF"/>
<path opacity="0.49" d="M105.617 126.414C104.395 126.404 103.209 125.997 102.24 125.253C101.27 124.509 100.57 123.469 100.245 122.291C100.266 122.761 100.301 123.228 100.367 123.697C100.434 124.194 100.528 124.686 100.648 125.173C101.277 125.868 102.041 126.427 102.893 126.817C103.745 127.207 104.668 127.419 105.606 127.44C106.597 127.483 107.583 127.272 108.47 126.827C109.229 126.446 109.865 125.858 110.304 125.132C110.135 124.841 110.006 124.529 109.921 124.204L109.576 124.361C109.186 125.05 108.604 125.611 107.901 125.975C107.198 126.34 106.405 126.492 105.617 126.414Z" fill="#5B55FF"/>
<path opacity="0.49" d="M103.345 122.19C101.826 121.042 100.452 119.04 101.169 116.863C100.786 117.88 100.523 118.938 100.385 120.016C100.89 121.211 101.714 122.244 102.766 123.004C104.554 124.368 107.323 125.256 109.598 124.356C109.684 124.182 109.754 123.999 109.808 123.812L109.867 123.801C109.831 123.549 109.823 123.294 109.845 123.04C107.835 124.333 105.087 123.51 103.345 122.19Z" fill="#5B55FF"/>
<path opacity="0.49" d="M103.937 117.467C102.964 115.726 102.815 113.859 103.561 112.876L103.463 112.803C102.944 113.433 102.484 114.109 102.088 114.822C102.168 115.929 102.498 117.004 103.053 117.964C103.719 119.236 104.724 120.298 105.957 121.033C107.19 121.767 108.602 122.145 110.038 122.125C110.185 121.737 110.402 121.38 110.678 121.07C109.324 121.206 107.959 120.937 106.759 120.295C105.559 119.653 104.576 118.669 103.937 117.467Z" fill="#5B55FF"/>
<path opacity="0.49" d="M110.44 114.916C109.171 113.032 108.628 110.054 110.306 107.862C109.766 108.076 109.238 108.317 108.723 108.583C108.306 109.719 108.168 110.939 108.32 112.139C108.473 113.339 108.911 114.485 109.599 115.481C110.108 116.311 110.811 117.006 111.647 117.505C112.484 118.004 113.43 118.291 114.402 118.343C114.989 118.056 115.592 117.803 116.208 117.587L116.046 117.098C113.877 117.794 111.78 116.977 110.44 114.916Z" fill="#5B55FF"/>
<path opacity="0.49" d="M107.49 116.692C106.784 115.833 104.697 112.858 106.649 109.819C106.062 110.236 105.502 110.689 104.973 111.177C104.778 112.269 104.833 113.39 105.134 114.457C105.435 115.524 105.974 116.509 106.711 117.337C107.892 118.86 109.577 119.911 111.464 120.301C111.939 119.871 112.447 119.48 112.985 119.133C111.546 119.766 109.142 118.702 107.49 116.692Z" fill="#5B55FF"/>
<path d="M173.205 114.533C173.205 114.533 221.616 89.2217 247.306 75.2057C272.996 61.1897 285.759 55.2142 285.759 55.2142C285.759 55.2142 288.757 53.4129 290.259 57.0489C291.762 60.685 280.926 67.4636 280.926 67.4636C282.003 70.242 282.229 73.2779 281.576 76.1852C280.41 80.7036 272.108 83.124 272.108 83.124C272.108 83.124 266.456 84.3142 264.333 83.4031C254.326 91.8893 215.943 119.199 207.194 131.681C198.445 144.164 210.651 176.129 227.762 199.035C245.396 222.644 260.766 248.495 270.798 302.632C270.798 302.632 279.239 309.099 285.234 309.671C290.365 310.155 291.33 311.615 292.54 314.756C292.81 316.135 292.994 317.53 293.09 318.933C276.712 328.692 252.389 327.869 252.389 327.869C252.389 327.869 247.122 302.878 237.347 286.023C227.573 269.168 209.517 236.756 190.988 247.865C174.01 258.045 168.646 278.873 166.91 289.318C165.174 299.763 180.836 342.66 180.836 342.66C180.836 342.66 162.485 353.743 138.698 353.208C138.041 351.972 137.554 350.653 137.249 349.287C136.4 344.464 139.115 342.502 143.031 340.542C147.653 338.233 153.561 331.91 153.561 331.91C153.561 331.91 135.912 304.688 132.705 291.17C129.498 277.652 137.228 253.384 144.281 231.944C149.402 216.344 138.161 182.422 119.04 183.025C112.831 183.22 75.6589 211.026 58.9022 205.17C29.2367 194.836 82.4039 163.176 104.362 151.086C122.906 140.937 173.205 114.533 173.205 114.533Z" fill="white"/>
<path d="M143.979 189.372C136.501 169.596 119.077 183.056 119.077 183.056C138.202 182.475 149.438 216.376 144.317 231.975C144.288 231.98 151.458 209.149 143.979 189.372Z" fill="#BECAD0"/>
<path d="M151.175 126.132C135.254 134.513 114.796 145.408 104.374 151.145C82.4136 163.228 29.2478 194.895 58.9133 205.228C70.4991 209.262 91.8534 197.21 105.973 189.325C109.821 184.717 107.712 180.463 110.367 176.257C121.526 171.374 128.621 165.468 125.122 156.562C136.219 148.748 137.979 144.774 137.979 144.774L151.175 126.132Z" fill="#BECAD0"/>
<path opacity="0.3" d="M192.053 247.31L191.782 247.454L192.053 247.31Z" fill="#BECAD0"/>
<path opacity="0.3" d="M194.925 246.175C194.593 246.238 194.274 246.368 193.946 246.492C194.274 246.368 194.599 246.268 194.925 246.175Z" fill="#BECAD0"/>
<path opacity="0.3" d="M192.9 246.943L192.561 247.091L192.9 246.943Z" fill="#BECAD0"/>
<path opacity="0.3" d="M195.661 245.982L195.1 246.127L195.661 245.982Z" fill="#BECAD0"/>
<path opacity="0.3" d="M193.695 246.577L193.319 246.733L193.695 246.577Z" fill="#BECAD0"/>
<path opacity="0.3" d="M162.845 339.722L168.173 332.845C168.173 332.845 153.064 311.256 151.993 299.358C150.921 287.459 169.504 249.346 192.377 243.51C188.664 244.087 179.917 248.465 179.397 248.862C171.73 254.656 154.594 251.792 160.249 228.951C161.958 221.966 165.123 215.421 169.536 209.743C173.95 204.066 179.513 199.384 185.862 196.006C194.261 191.487 194.098 190.111 192.398 187.002C181.486 192.136 176.664 194.72 172.679 196.197C168.051 197.911 166.447 197.154 165.957 196.268C158.882 183.555 150.319 168.442 150.109 162.962C149.95 158.872 161.751 155.113 164.224 153.526C162.214 148.465 162.985 142.677 163.122 141.986C173.553 135.414 179.307 128.524 177.05 122.769C174.947 117.382 170.076 119.83 164.344 119.72C153.188 125.581 120.146 142.464 104.36 151.155C82.4138 163.228 29.2479 194.895 58.9134 205.228C75.6659 211.062 112.838 183.256 119.052 183.083C123.936 182.919 128.299 185.032 132.016 188.499C136.406 192.602 139.883 198.622 142.209 205.099L142.22 205.158C142.572 206.123 142.889 207.11 143.184 208.093C143.191 208.13 143.198 208.167 143.205 208.204C143.352 208.686 143.49 209.169 143.618 209.654C143.746 210.14 143.867 210.614 143.98 211.076C143.99 211.128 144 211.18 144.01 211.231C144.104 211.725 144.197 212.212 144.342 212.697L144.352 212.749C144.439 213.206 144.526 213.663 144.613 214.121L144.653 214.327C144.742 214.8 144.831 215.264 144.921 215.737C144.929 215.76 144.934 215.785 144.935 215.81C145.018 216.246 145.1 216.681 145.123 217.12C145.138 217.201 145.154 217.282 145.169 217.364C145.255 217.814 145.274 218.276 145.323 218.733C145.323 218.733 145.334 218.792 145.339 218.822C145.418 219.235 145.414 219.656 145.44 220.072C145.457 220.161 145.473 220.249 145.49 220.338C145.52 220.775 145.542 221.214 145.556 221.648C145.559 221.68 145.565 221.712 145.574 221.744L145.593 222.925C145.611 223.021 145.629 223.117 145.587 223.217C145.59 223.636 145.585 224.05 145.563 224.46C145.573 224.488 145.578 224.518 145.58 224.548C145.561 224.926 145.544 225.32 145.512 225.677C145.529 225.766 145.503 225.87 145.49 225.964C145.466 226.359 145.424 226.741 145.385 227.139L145.398 227.205C145.352 227.566 145.304 227.919 145.249 228.273C145.265 228.354 145.223 228.454 145.202 228.55C145.142 228.913 145.075 229.285 145.004 229.635C144.931 229.975 144.85 230.311 144.76 230.644L144.694 230.901C144.598 231.241 144.508 231.571 144.402 231.897L143.444 234.901L143.287 235.397C142.947 236.425 142.61 237.468 142.272 238.503L142.188 238.786C141.475 240.986 140.774 243.196 140.086 245.417L140.057 245.507C138.994 248.92 137.982 252.323 137.055 255.687C133.224 269.505 130.835 282.466 132.874 291.092C136.086 304.639 153.729 331.832 153.729 331.832C153.729 331.832 147.822 338.154 143.2 340.463C139.282 342.417 136.567 344.378 137.417 349.209C137.254 349.316 157.518 346.6 162.845 339.722Z" fill="#BECAD0"/>
<path opacity="0.3" d="M193.946 246.491L193.695 246.577L193.946 246.491Z" fill="#BECAD0"/>
<path opacity="0.3" d="M193.319 246.733L192.895 246.913L193.319 246.733Z" fill="#BECAD0"/>
<path opacity="0.3" d="M191.782 247.454C191.518 247.596 191.254 247.737 190.994 247.894C191.254 247.737 191.496 247.6 191.782 247.454Z" fill="#BECAD0"/>
<path opacity="0.3" d="M292.546 314.785C279.235 318.082 254.295 317.835 254.295 317.835C254.295 317.835 253.167 291.292 245.618 272.232C240.834 260.146 215.249 237.668 192.376 243.503C193.295 244.314 195.911 245.124 196.427 245.828C212.988 242.983 228.544 270.856 237.368 286.049C247.141 302.897 252.409 327.895 252.409 327.895C252.409 327.895 274.652 329.114 293.11 318.959C293.009 317.557 292.821 316.163 292.546 314.785Z" fill="#BECAD0"/>
<path opacity="0.3" d="M192.556 247.062L192.052 247.311L192.556 247.062Z" fill="#BECAD0"/>
<path opacity="0.3" d="M192.376 243.503C169.504 249.345 150.929 287.496 151.991 299.35C153.054 311.204 168.172 332.838 168.172 332.838L162.844 339.715C157.516 346.592 137.253 349.309 137.253 349.309C137.558 350.675 138.046 351.994 138.702 353.23C162.504 353.762 180.84 342.682 180.84 342.682C180.84 342.682 165.172 299.793 166.914 289.34C168.656 278.886 174.015 258.066 190.993 247.887C191.253 247.73 191.517 247.588 191.781 247.446L192.051 247.303L192.555 247.054L192.9 246.943L193.325 246.763L193.7 246.607L193.952 246.521C194.28 246.397 194.605 246.297 194.931 246.205L195.108 246.171L195.669 246.026L196.407 245.886C195.912 245.131 193.295 244.314 192.376 243.503Z" fill="#BECAD0"/>
<path d="M192.376 243.503C169.504 249.345 150.929 287.496 151.991 299.35C153.054 311.204 168.172 332.838 168.172 332.838L162.844 339.715C157.516 346.592 137.253 349.309 137.253 349.309C137.558 350.675 138.046 351.994 138.702 353.23C162.504 353.762 180.84 342.682 180.84 342.682C180.84 342.682 165.172 299.793 166.914 289.34C168.656 278.886 174.015 258.066 190.993 247.887C191.253 247.73 191.517 247.588 191.781 247.446L192.051 247.303L192.555 247.054L192.9 246.943L193.325 246.763L193.7 246.607L193.952 246.521C194.28 246.397 194.605 246.297 194.931 246.205L195.108 246.171L195.669 246.026L196.407 245.886C195.912 245.131 193.295 244.314 192.376 243.503Z" fill="#BECAD0"/>
<path d="M247.932 279.009C243.198 259.513 215.22 237.674 192.346 243.509C169.473 249.344 150.899 287.502 151.962 299.356" stroke="#DEE4E7" stroke-width="1.49" stroke-miterlimit="10"/>
<path d="M159.648 86.196C168.926 101.25 163.898 121.395 148.866 130.669C133.834 139.944 111.183 133.527 101.91 118.503C99.1406 102.785 102.07 88.4433 117.103 79.1764C132.137 69.9095 150.382 71.1705 159.648 86.196Z" fill="white"/>
<path d="M123.071 142.649C123.071 142.649 127.019 146.4 137.997 144.747C157.771 141.75 174.174 127.865 173.228 123.374C174.062 122.496 174.04 120.046 173.938 119.072C173.135 111.312 170.584 110.804 170.584 110.804L105.122 122.808L123.071 142.649Z" fill="white"/>
<path d="M105.129 122.806L123.071 142.649C123.071 142.649 127.019 146.4 137.997 144.747C137.997 144.747 124.759 143.765 107.505 118.983C99.1975 107.062 102.84 97.1952 106.244 89.4072C95.9373 103.027 101.905 118.519 101.905 118.519L105.129 122.806Z" fill="#BECAD0"/>
<path opacity="0.5" d="M129.976 73.9823C91.8387 84.2965 101.91 118.503 101.91 118.503L105.129 122.806L120.186 139.459L120.193 139.496L123.109 142.764C123.109 142.764 127.049 146.517 138.034 144.863C145.139 143.697 151.987 141.305 158.272 137.794C152.535 140.004 146.242 140.321 140.312 138.7C134.381 137.079 129.125 133.604 125.311 128.782L125.215 128.961C120.582 123.215 116.188 117.682 114.994 116.029C114.972 116.033 100.171 89.714 129.976 73.9823Z" fill="#BECAD0"/>
<path d="M156.72 82.5022C156.72 82.5022 137.213 85.0518 124.068 105.534C123.233 106.823 122.794 108.328 122.805 109.864C122.816 111.4 123.276 112.899 124.13 114.176C126.551 117.783 128.661 120.791 130.448 123.272C132.834 126.59 136.19 129.087 140.054 130.421C143.918 131.754 148.1 131.858 152.025 130.718C154.764 129.928 157.422 128.877 159.96 127.58C160.019 124.151 162.395 119.961 164.839 118.464C166.993 117.007 168.578 117.539 169.724 118.781C170.476 117.463 171.053 116.052 171.441 114.586C167.108 93.3006 156.72 82.5022 156.72 82.5022Z" fill="#0089D8"/>
<path d="M123.409 113.12C122.515 111.737 121.919 110.184 121.657 108.559C121.395 106.933 121.474 105.271 121.887 103.678C123.349 98.1781 127.337 89.6444 138.26 83.4072C150.02 76.6593 153.148 80.1235 156.72 82.5019C159.252 86.4466 140.744 114.141 129.082 121.039C127.052 118.502 125.159 115.858 123.409 113.12Z" fill="#0089D8"/>
<path d="M156.72 82.5019C153.148 80.1235 150.02 76.6593 138.26 83.4072C127.341 89.6665 123.349 98.1781 121.887 103.678C121.474 105.271 121.395 106.933 121.657 108.559C121.919 110.184 122.515 111.737 123.409 113.12C123.615 113.44 123.837 113.803 124.069 114.141C126.12 114.992 127.893 116.396 129.191 118.197C130.591 120.064 131.408 122.302 131.539 124.631C134.011 127.507 137.259 129.611 140.894 130.691C144.53 131.772 148.4 131.782 152.041 130.722C154.782 129.936 157.439 128.885 159.976 127.584C160.035 124.156 162.411 119.965 164.855 118.468C167.009 117.011 168.594 117.543 169.74 118.785C170.491 117.467 171.069 116.057 171.457 114.59C167.108 93.3002 156.72 82.5019 156.72 82.5019Z" fill="white"/>
<path d="M128.793 131.01C132.3 128.431 132.472 122.703 129.176 118.2C125.881 113.698 120.378 112.138 116.847 114.721L128.793 131.01Z" fill="white"/>
<path d="M125.304 132.041C128.476 129.709 128.637 124.526 125.645 120.455C122.653 116.383 117.669 114.977 114.495 117.301C111.32 119.625 111.169 124.815 114.153 128.887C117.137 132.96 122.13 134.365 125.304 132.041Z" fill="white"/>
<path opacity="0.5" d="M125.304 132.041C128.476 129.709 128.637 124.526 125.645 120.455C122.653 116.383 117.669 114.977 114.495 117.301C111.32 119.625 111.169 124.815 114.153 128.887C117.137 132.96 122.13 134.365 125.304 132.041Z" fill="#BECAD0"/>
<path d="M126.242 129.66C128.892 127.719 129.023 123.382 126.533 119.98C124.043 116.578 119.867 115.4 117.21 117.35C114.554 119.301 114.422 123.63 116.919 127.031C119.416 130.432 123.549 131.579 126.242 129.66Z" fill="white"/>
<path d="M156.72 82.5019C153.148 80.1235 150.02 76.6593 138.26 83.4072C127.341 89.6665 123.349 98.1781 121.887 103.678C121.474 105.271 121.395 106.933 121.657 108.559C121.919 110.184 122.515 111.737 123.409 113.12C123.615 113.44 123.837 113.803 124.069 114.141C126.12 114.992 127.893 116.396 129.191 118.197C130.591 120.064 131.408 122.302 131.539 124.631C134.011 127.507 137.259 129.611 140.894 130.691C144.53 131.772 148.4 131.782 152.041 130.722C154.782 129.936 157.439 128.885 159.976 127.584C160.035 124.156 162.411 119.965 164.855 118.468C167.009 117.011 168.594 117.543 169.74 118.785C170.491 117.467 171.069 116.057 171.457 114.59C167.108 93.3002 156.72 82.5019 156.72 82.5019Z" fill="#4000C7"/>
<path opacity="0.5" d="M156.72 82.5021C154.171 80.8006 153.023 76.0116 142.708 81.1851C144.077 81.5218 145.342 82.1926 146.389 83.1374C146.389 83.1374 133.902 89.8328 129.998 98.4881C133.094 109.137 139.61 121.123 152.054 127.494C155.115 127.172 158.047 126.089 160.583 124.342C160.583 124.342 162.124 120.387 164.817 118.468C166.923 117.043 168.46 117.523 169.625 118.707C170.368 117.403 170.97 116.022 171.418 114.59C167.108 93.3005 156.72 82.5021 156.72 82.5021Z" fill="#5B55FF"/>
<path d="M155.398 81.3394C155.398 81.3394 150.593 79.5931 140.696 86.5219L138.26 83.4074C138.26 83.4074 149.997 75.0508 155.398 81.3394Z" fill="#4000C7"/>
<path d="M80.0325 201.141C94.3898 191.292 97.5425 175.716 107.519 167.235C109.642 168.146 115.295 166.956 115.295 166.956C115.295 166.956 123.596 164.536 124.763 160.017C125.416 157.11 125.19 154.074 124.113 151.296C124.113 151.296 134.956 144.516 133.446 140.881C131.937 137.246 128.953 139.083 128.953 139.083C128.953 139.083 69.5198 164.251 54.6709 185.501C39.8221 206.751 64.5178 211.738 80.0325 201.141Z" fill="white"/>
<path d="M195.175 179.899L183.351 150.988C183.068 150.297 182.648 149.671 182.116 149.147C181.585 148.624 180.952 148.213 180.257 147.941C179.562 147.669 178.819 147.54 178.073 147.563C177.327 147.586 176.593 147.76 175.916 148.075L164.23 153.517L152.293 159.091L162.588 154.288C162.588 154.288 165.901 173.955 181.917 184.356C184.342 185.899 186.897 187.226 189.553 188.323L192.408 187.015C193.699 186.416 194.707 185.34 195.223 184.014C195.739 182.687 195.722 181.213 195.175 179.899Z" fill="#BECAD0"/>
<path opacity="0.2" d="M195.175 179.899L183.351 150.988C183.068 150.297 182.648 149.671 182.116 149.147C181.585 148.624 180.952 148.213 180.257 147.941C179.562 147.669 178.819 147.54 178.073 147.563C177.327 147.586 176.593 147.76 175.916 148.075L164.23 153.517L152.293 159.091L162.588 154.288C162.588 154.288 165.901 173.955 181.917 184.356C184.342 185.899 186.897 187.226 189.553 188.323L192.408 187.015C193.699 186.416 194.707 185.34 195.223 184.014C195.739 182.687 195.722 181.213 195.175 179.899Z" fill="white"/>
<path d="M189.545 188.324L192.404 186.993L189.545 188.324Z" fill="#BECAD0"/>
<path d="M162.558 154.294L152.267 159.112C151.589 159.427 150.982 159.877 150.484 160.433C149.985 160.99 149.604 161.642 149.365 162.35C149.126 163.059 149.033 163.808 149.092 164.553C149.151 165.298 149.361 166.024 149.709 166.685L164.243 194.293C164.9 195.552 166.016 196.51 167.36 196.966C168.705 197.422 170.173 197.342 171.46 196.743L189.544 188.318C186.888 187.221 184.333 185.893 181.909 184.35C165.872 173.961 162.558 154.294 162.558 154.294Z" fill="#BECAD0"/>
<path d="M162.558 154.294L152.267 159.112C151.589 159.427 150.982 159.877 150.484 160.433C149.985 160.99 149.604 161.642 149.365 162.35C149.126 163.059 149.033 163.808 149.092 164.553C149.151 165.298 149.361 166.024 149.709 166.685L164.243 194.293C164.9 195.552 166.016 196.51 167.36 196.966C168.705 197.422 170.173 197.342 171.46 196.743L189.544 188.318C186.888 187.221 184.333 185.893 181.909 184.35C165.872 173.961 162.558 154.294 162.558 154.294Z" fill="#BECAD0"/>
<path d="M171.816 156.784C170.948 159.168 172.177 161.803 174.56 162.671C176.944 163.539 179.58 162.31 180.447 159.927C181.315 157.543 180.087 154.908 177.703 154.04C175.32 153.172 172.684 154.401 171.816 156.784Z" fill="#EB581A"/>
<path d="M167.087 159.597C165.894 159.163 164.575 159.778 164.141 160.97C163.707 162.163 164.321 163.482 165.514 163.916C166.707 164.35 168.026 163.736 168.46 162.543C168.894 161.35 168.279 160.031 167.087 159.597Z" fill="#08C4C7"/>
<path d="M156.289 164.596C155.855 165.789 156.47 167.108 157.662 167.542C158.855 167.976 160.174 167.361 160.608 166.169C161.042 164.976 160.428 163.657 159.235 163.223C158.042 162.789 156.723 163.403 156.289 164.596Z" fill="#5B55FF"/>
<path d="M192.54 174.208L177.507 180.944L161.149 188.277" stroke="#DEE4E7" stroke-width="1.36" stroke-miterlimit="10"/>
<path d="M163.395 174.325L169.491 171.522L181.267 166.109C182.013 165.772 182.862 165.741 183.631 166.024C184.4 166.307 185.027 166.88 185.377 167.62V167.62C185.714 168.367 185.745 169.216 185.462 169.984C185.179 170.753 184.606 171.38 183.865 171.73L173.032 176.712L166.001 179.946C165.255 180.281 164.406 180.31 163.638 180.028C162.87 179.745 162.243 179.173 161.891 178.434V178.434C161.556 177.688 161.526 176.841 161.807 176.074C162.088 175.306 162.658 174.678 163.395 174.325V174.325Z" stroke="#DEE4E7" stroke-width="1.36" stroke-miterlimit="10"/>
<path opacity="0.3" d="M274.196 68.9425C278.851 69.861 279.533 75.2511 269.681 76.9573C262.123 78.2578 260.872 80.8045 247.866 90.0831C232.074 101.352 186.433 126.32 190.789 149.213C193.385 162.855 206.189 184.784 224.367 202.211C236.256 213.626 241.445 218.594 244.922 223.406C239.684 214.847 233.974 207.378 227.767 199.064C210.658 176.166 198.45 144.193 207.2 131.711C215.949 119.228 254.332 91.9186 264.338 83.4324C266.461 84.3434 272.114 83.1532 272.114 83.1532C272.114 83.1532 280.415 80.7328 281.581 76.2144C282.235 73.3071 282.008 70.2712 280.931 67.4929C280.931 67.4929 291.774 60.7128 290.265 57.0782C290.037 56.4615 289.67 55.906 289.191 55.4552L289.037 55.3242C289.305 55.5712 288.712 59.927 274.196 68.9425Z" fill="#BECAD0"/>
<g opacity="0.3">
<path opacity="0.3" d="M80.0324 201.141C94.3897 191.292 97.5424 175.716 107.519 167.235C109.642 168.146 115.295 166.956 115.295 166.956C115.295 166.956 123.596 164.536 124.763 160.017C125.416 157.11 125.19 154.074 124.112 151.296C121.673 164.955 113.556 160.108 105.92 163.327C98.2826 166.546 87.6356 185.047 74.3822 195.153C62.8452 203.953 53.4612 202.008 51.2342 201.353C55.3184 208.313 69.695 208.169 80.0324 201.141Z" fill="#BECAD0"/>
</g>
<path d="M243.232 86.905C241.257 84.4038 238.577 82.5517 235.538 81.5878L234.11 82.3565C237.357 83.1419 240.253 84.9808 242.345 87.5861C245.24 91.3471 244.812 97.2158 244.629 98.7872L245.843 97.8529C246.012 95.405 245.933 90.4124 243.232 86.905Z" fill="#DEE4E7"/>
<path d="M115.848 166.889L114.742 167.023C114.819 167.429 115.952 176.517 122.427 183.305C123.168 183.444 123.9 183.635 124.615 183.875C117.185 177.253 115.86 166.994 115.848 166.889Z" fill="#DEE4E7"/>
<path d="M188.197 114.815C185.388 113.042 182.218 111.921 178.919 111.534L176.959 112.565C180.738 112.611 184.429 113.721 187.606 115.768C197.554 121.918 201.877 134.795 203.753 144.576C203.491 145.528 202.102 151.006 203.399 159.031C204.697 167.056 209.006 178.896 222.104 190.876C221.28 189.603 220.484 188.31 219.701 187.006C209.26 176.332 205.669 165.976 204.517 158.917C203.814 154.837 203.796 150.668 204.463 146.581C204.315 144.992 204.266 143.395 204.318 141.8C200.661 125.554 193.626 118.155 188.197 114.815Z" fill="#DEE4E7"/>
<path d="M79.5832 165.991C79.5327 165.404 79.5121 164.934 79.5076 164.629L78.4155 165.319C78.4355 165.705 78.4754 166.156 78.5382 166.687C79.1155 171.409 81.8559 181.391 94.555 185.29L94.8789 184.219C82.2369 180.34 79.9758 170.144 79.5832 165.991Z" fill="#DEE4E7"/>
<path d="M136.485 300.787C136.69 301.184 136.894 301.573 137.107 301.968C139.854 302.124 142.611 301.976 145.326 301.528C145.798 301.438 146.293 301.344 146.802 301.247C153.975 299.813 160.778 296.927 166.794 292.765C166.757 292.303 166.742 291.862 166.749 291.443C152.151 301.636 139.203 301.05 136.485 300.787Z" fill="#DEE4E7"/>
<path d="M233.278 279.06C233.542 279.484 233.684 279.908 233.946 280.325C236.835 280.761 240.086 280.93 246.815 279.65C252.563 278.556 258.462 276.127 263.355 270.983C263.273 270.555 263.12 270.149 262.995 269.737C254.078 280.409 237.038 279.736 233.278 279.06Z" fill="#DEE4E7"/>
<path d="M137.207 348.988C137.228 349.099 137.248 349.202 137.269 349.313C137.29 349.424 137.361 349.8 137.472 350.138C139.716 350.323 146.652 350.609 158.103 348.43C165.814 347.034 173.158 344.076 179.683 339.737C179.551 339.403 179.41 339.025 179.265 338.662C177.584 339.877 169.932 345.025 157.891 347.316C145.979 349.605 138.889 349.15 137.207 348.988Z" fill="#DEE4E7"/>
<path d="M251.229 323.541C251.353 323.953 251.456 324.331 251.561 324.685C258.479 324.982 265.407 324.48 272.21 323.188C279.4 321.893 286.342 319.475 292.781 316.025C292.733 315.634 292.659 315.247 292.561 314.866C275.28 324.538 254.92 323.771 251.229 323.541Z" fill="#DEE4E7"/>
<path d="M143.864 296.134C146.666 293.261 146.526 288.869 146.406 284.985C146.393 284.636 146.389 284.293 146.379 283.958C146.178 275.992 144.982 267.856 137.563 267.922C136.317 267.918 135.074 268.024 133.847 268.239C133.771 268.605 133.703 268.97 133.635 269.335C134.928 269.057 136.249 268.923 137.573 268.937C140.711 268.913 142.802 270.541 144.028 274.176C140.173 274.134 136.328 274.593 132.591 275.542C132.539 275.911 132.494 276.279 132.455 276.638C137.058 275.235 142.813 275.18 144.337 275.196C144.903 277.539 145.226 279.934 145.3 282.344C143.84 282.469 137.419 283.079 131.968 284.001C131.966 284.353 131.978 284.695 131.988 285.03C137.376 284.096 143.798 283.494 145.34 283.361C145.378 283.56 145.357 283.77 145.359 283.984L145.395 285.017C145.49 286.77 145.453 288.527 145.287 290.274C143.696 290.791 137.963 292.486 132.916 292.001C132.984 292.355 133.116 292.728 133.215 293.045C135.696 293.191 138.186 293.015 140.623 292.523C142.139 292.232 143.637 291.857 145.111 291.401C144.857 292.904 144.172 294.301 143.14 295.423C141.483 297.122 138.851 297.959 135.117 297.981C135.273 298.319 135.434 298.685 135.592 298.992C136.632 298.973 137.668 298.87 138.691 298.685C140.64 298.397 142.449 297.504 143.864 296.134Z" fill="#DEE4E7"/>
<path d="M246.123 240.731C239.623 244.299 242.553 251.983 246.275 259.05C246.524 259.515 246.769 259.996 247.014 260.484C248.688 263.774 250.575 267.505 254.168 268.587C255.357 268.93 256.609 268.993 257.827 268.771C259.406 268.431 260.929 267.866 262.347 267.092L262.065 266.091C259.094 267.635 256.509 268.234 254.464 267.614C253.011 267.131 251.745 266.206 250.842 264.97C254.249 264.297 257.547 263.155 260.64 261.576C260.539 261.244 260.434 260.974 260.332 260.641C257.139 262.287 253.721 263.452 250.187 264.1C249.353 262.806 248.599 261.461 247.93 260.073C247.683 259.577 247.438 259.096 247.188 258.624L246.899 258.067C248.181 257.495 253.151 255.287 257.908 253.526L257.565 252.567C252.715 254.361 247.631 256.613 246.436 257.162C245.307 254.996 244.412 252.716 243.766 250.361C245.1 249.618 250.221 246.839 254.956 245.885C254.826 245.565 254.689 245.248 254.554 244.937C250.703 245.905 246.999 247.381 243.538 249.326C242.836 245.637 243.899 243.187 246.627 241.69C249.563 240.084 251.471 239.904 252.316 239.927C252.153 239.591 251.991 239.224 251.833 238.918C249.818 239.086 247.866 239.706 246.123 240.731Z" fill="#DEE4E7"/>
<path d="M190.505 215.427C168.793 225.2 149.062 222.999 145.511 222.459C145.515 222.84 145.519 223.222 145.513 223.59C154.157 224.601 162.906 224.26 171.445 222.578C174.991 221.901 178.492 221.007 181.93 219.903C184.402 235.632 191.674 243.552 191.989 243.882L192.808 243.123C191.227 241.279 189.861 239.261 188.735 237.109C185.836 231.63 183.895 225.696 182.996 219.562C185.604 218.684 188.277 217.663 190.974 216.447C211.862 207.044 220.797 195.261 222.912 192.114C222.687 191.774 222.462 191.435 222.243 191.087C220.866 193.252 212.295 205.624 190.505 215.427Z" fill="#DEE4E7"/>
<path d="M143.173 114.49C142.614 114.816 142.147 115.277 141.815 115.832C141.483 116.387 141.297 117.017 141.274 117.663C141.252 118.31 141.393 118.951 141.685 119.528C141.977 120.105 142.41 120.598 142.944 120.963C144.95 122.287 147.288 123.02 149.69 123.079C152.093 123.138 154.464 122.521 156.533 121.298C167.169 115 164.397 112.08 162.451 106.999C162.298 106.606 162.061 106.25 161.756 105.958C161.452 105.666 161.087 105.443 160.687 105.306C160.288 105.168 159.864 105.12 159.443 105.163C159.023 105.207 158.618 105.342 158.255 105.558L143.173 114.49Z" stroke="#5B55FF" stroke-width="2.38" stroke-miterlimit="10" stroke-linecap="round"/>
</g>
<path d="M79.4038 180.109C79.4038 180.21 79.4038 180.21 79.4038 180.21L79.8095 180.92C80.1072 181.217 80.3502 181.406 80.739 181.565C81.0578 181.696 81.3921 181.731 81.7367 181.731C81.8717 181.731 82.0067 181.722 82.138 181.691C82.6901 181.56 83.4765 181.227 83.8434 180.589C83.9439 180.414 83.9681 180.209 83.9681 180.007C83.9681 179.534 83.703 178.972 83.4202 178.569C83.3807 178.513 83.3462 178.453 83.3053 178.398C83.2692 178.349 83.2276 178.307 83.185 178.269C83.0415 178.143 82.8862 178.012 82.7509 177.877C82.5481 177.674 82.2438 177.269 81.9395 177.269C81.7825 177.269 81.6255 177.323 81.4825 177.417C81.2003 177.602 81.0626 177.942 80.8238 178.181C80.7224 178.283 80.621 178.384 80.621 178.486C80.621 178.586 80.489 178.64 80.4202 178.714C80.327 178.813 80.2339 178.862 80.1407 178.899C79.9902 178.961 79.8632 179.064 79.7615 179.191C79.5854 179.41 79.4038 179.638 79.4038 180.109Z" fill="white"/>
<path d="M144.336 65.3951C144.336 65.5979 144.438 65.8008 144.539 65.9022C144.742 66.1051 145.046 66.2065 145.351 66.2065C145.452 66.2065 145.452 66.2065 145.554 66.2065C145.62 66.2065 145.686 66.1917 145.745 66.1605C145.959 66.0476 146.264 65.8484 146.264 65.4966V65.3951C146.264 65.2853 146.204 65.1458 146.134 65.0088C146.022 64.7923 145.929 64.553 145.756 64.3808L145.655 64.2793C145.63 64.2543 145.611 64.2355 145.596 64.2198C145.504 64.128 145.379 64.0765 145.249 64.0765H145.148C145.083 64.0765 145.021 64.1023 144.975 64.1482L144.945 64.178C144.844 64.2794 144.742 64.4823 144.641 64.6851C144.539 64.888 144.336 65.0908 144.336 65.3951Z" fill="white"/>
<path d="M50.2066 314.697C50.2095 314.702 50.2111 314.701 50.2111 314.707C50.2111 314.737 50.2477 314.74 50.2678 314.763C50.3069 314.806 50.3118 314.825 50.3124 314.881C50.3126 314.898 50.3176 314.915 50.3272 314.929C50.5299 315.231 50.8269 315.625 51.1239 315.922C51.8339 316.632 52.8482 317.342 54.0654 317.646C54.2884 317.72 54.5115 317.74 54.7345 317.785C54.8981 317.818 55.0246 317.849 55.1915 317.849C55.2937 317.849 55.4352 317.841 55.5325 317.81C56.42 317.524 57.1377 316.307 57.5412 314.881C57.5933 314.697 57.6146 314.506 57.6742 314.325C57.7223 314.178 57.7331 314.02 57.7589 313.868C57.9179 312.931 57.8968 312.014 57.6153 311.357C57.5388 311.128 57.4044 310.898 57.2559 310.756C57.168 310.671 57.0649 310.6 56.956 310.546C56.8472 310.492 56.7496 310.413 56.6346 310.373C56.2615 310.244 55.8227 310.255 55.3839 310.343C54.8768 310.444 54.3696 310.647 53.8625 310.85C53.5582 310.952 53.2539 311.154 53.0511 311.256C52.8482 311.357 52.6454 311.459 52.5439 311.56C52.3714 311.733 52.1301 311.821 51.9269 311.956C51.5588 312.201 51.2508 312.468 50.9844 312.721C50.7359 312.957 50.4479 313.155 50.2294 313.419C49.9454 313.762 49.9107 314.174 50.2066 314.697Z" fill="white"/>
<path d="M361.29 8.18903C361.29 8.29046 361.29 8.29031 361.29 8.29031L361.696 8.69617C362.101 8.69617 363.014 8.59464 363.826 9.10178C363.99 9.18371 364.153 9.26558 364.317 9.40095C364.395 9.46546 364.531 9.52086 364.61 9.5847C364.648 9.61536 364.66 9.61937 364.706 9.63619C365.307 9.85787 365.825 9.57135 366.005 9.09464C366.052 8.96833 366.057 8.83114 366.057 8.69617C366.057 8.34837 365.983 8.07504 365.897 7.74851C365.868 7.6369 365.825 7.52937 365.785 7.42112C365.767 7.37145 365.753 7.32573 365.736 7.27794C365.689 7.13997 365.659 7.00489 365.566 6.89287C365.501 6.81531 365.426 6.72261 365.378 6.63402C365.161 6.2379 364.808 5.72239 364.536 5.45028C364.271 5.1855 364.083 5.07432 363.838 4.98308C363.763 4.95519 363.699 4.9409 363.619 4.94542C363.422 4.95658 363.202 5.06308 363.061 5.20075C363.046 5.21607 363.03 5.23177 363.014 5.24747C362.841 5.42034 362.743 5.6543 362.608 5.85772C362.563 5.92446 362.519 5.99057 362.476 6.05563C362.028 6.72738 361.31 7.32071 361.291 8.12784C361.29 8.14789 361.29 8.16828 361.29 8.18903Z" fill="white"/>
<path d="M397.908 387.332C397.907 387.328 397.906 387.32 397.906 387.316C397.906 387.279 397.862 387.226 397.851 387.191C397.801 387.043 397.783 386.909 397.712 386.829C397.706 386.822 397.701 386.816 397.696 386.809C397.542 386.586 397.276 386.474 396.983 386.39C396.789 386.334 396.587 386.312 396.385 386.312C396.317 386.312 396.249 386.318 396.187 386.344C395.875 386.469 395.699 386.79 395.6 387.128C395.581 387.192 395.573 387.259 395.573 387.327C395.573 387.497 395.573 387.738 395.633 387.931C395.655 388.002 395.668 388.082 395.711 388.143C395.721 388.159 395.734 388.173 395.748 388.186C395.817 388.247 395.914 388.276 395.979 388.341C395.991 388.353 396.005 388.364 396.02 388.373C396.237 388.515 396.531 388.544 396.79 388.544C396.892 388.544 396.993 388.544 396.993 388.544C396.993 388.544 396.993 388.544 396.993 388.544C397.095 388.544 397.095 388.544 397.196 388.544C397.263 388.544 397.329 388.529 397.388 388.498C397.448 388.468 397.507 388.438 397.561 388.408C397.732 388.313 397.842 388.145 397.893 387.956C397.949 387.748 397.976 387.54 397.908 387.332Z" fill="white"/>
<path d="M399.529 180.92C399.631 180.92 399.631 180.92 399.529 180.92C399.631 180.92 399.631 180.92 399.529 180.92C399.631 181.123 399.732 181.225 399.833 181.326C400.017 181.51 400.368 181.778 400.659 181.901C400.716 181.926 400.778 181.932 400.84 181.938C400.891 181.942 400.943 181.955 400.994 181.99C401.033 182.016 401.077 182.036 401.123 182.036C401.142 182.036 401.161 182.033 401.179 182.026C401.459 181.917 401.734 181.554 401.845 181.097C401.857 181.047 401.862 180.99 401.862 180.939C401.862 180.856 401.877 180.779 401.896 180.698C401.933 180.538 401.946 180.363 401.934 180.209C401.918 180.004 401.865 179.704 401.659 179.703C401.659 179.703 401.659 179.703 401.659 179.703C401.556 179.703 401.517 179.551 401.416 179.532C401.362 179.522 401.3 179.524 401.234 179.537C401.108 179.563 400.979 179.591 400.859 179.637C400.834 179.647 400.81 179.658 400.786 179.671C400.624 179.754 400.462 179.854 400.286 179.9C400.27 179.904 400.255 179.906 400.239 179.906C400.138 179.906 400.138 180.007 400.036 180.008C400.036 180.008 400.036 180.008 400.036 180.008C400.035 180.008 400.024 180.008 400.009 180.012C399.93 180.032 399.888 180.131 399.82 180.176C399.799 180.19 399.779 180.205 399.758 180.22C399.627 180.317 399.477 180.765 399.529 180.92Z" fill="white"/>
<path d="M120.298 337.12C120.298 337.323 120.399 337.424 120.501 337.526C120.644 337.669 120.736 337.761 120.921 337.839C121.107 337.917 121.313 337.931 121.515 337.931H121.616C121.896 337.931 122.434 337.674 122.597 337.317C122.625 337.255 122.631 337.187 122.631 337.12C122.631 336.937 122.594 336.754 122.521 336.615C122.432 336.447 122.258 336.341 122.124 336.207L122.022 336.105C121.921 336.004 121.819 335.801 121.616 335.801C121.414 335.801 121.312 335.903 121.211 336.004C121.141 336.074 121.119 336.096 121.112 336.135C121.105 336.181 121.091 336.225 121.059 336.258C121.026 336.29 121.013 336.339 120.985 336.375C120.983 336.378 120.981 336.38 120.979 336.382C120.944 336.419 120.887 336.432 120.844 336.461C120.764 336.515 120.683 336.532 120.602 336.613C120.501 336.714 120.298 336.815 120.298 337.12Z" fill="white"/>
<g opacity="0.7">
<path d="M1702.86 36.4617L1700.75 45.0723L1692.47 48.2179C1690.98 48.7777 1690.79 50.8171 1692.14 51.6435L1699.66 56.3086L1700.09 65.1591C1700.17 66.7586 1702.04 67.5583 1703.24 66.532L1710.01 60.8005L1718.55 63.1331C1720.07 63.5463 1721.44 62.0401 1720.83 60.5606L1717.48 52.3499L1722.32 44.939C1723.2 43.6061 1722.16 41.8466 1720.58 41.9666L1711.75 42.6197L1706.21 35.702C1705.23 34.489 1703.23 34.9156 1702.86 36.4617Z" fill="#FAD902"/>
<path d="M1741.78 76.0639L1744.02 74.6426C1744.65 74.2388 1744.43 73.2536 1743.68 73.1729L1741.03 72.8821C1740.79 72.8498 1740.58 72.7206 1740.45 72.5107L1739.03 70.2656C1738.62 69.6357 1737.63 69.8618 1737.55 70.6048L1737.26 73.2536C1737.23 73.4959 1737.1 73.7059 1736.89 73.8351L1734.64 75.2564C1734.01 75.6602 1734.24 76.6454 1734.98 76.7261L1737.63 77.0169C1737.88 77.0492 1738.09 77.1784 1738.22 77.3883L1739.64 79.6334C1740.04 80.2633 1741.03 80.0372 1741.11 79.2942L1741.4 76.6454C1741.42 76.4031 1741.56 76.1931 1741.78 76.0639Z" fill="#FFDE43"/>
</g>
</g>
<defs>
<linearGradient id="paint0_linear_4627_182337" x1="896" y1="750" x2="896" y2="-5.88484" gradientUnits="userSpaceOnUse">
<stop stop-color="#1D1A50"/>
<stop offset="1" stop-color="#3A257F"/>
</linearGradient>
<radialGradient id="paint1_radial_4627_182337" cx="0" cy="0" r="1" gradientUnits="userSpaceOnUse" gradientTransform="translate(66 32.2558) rotate(39.1984) scale(797.458 772.704)">
<stop offset="0.260417" stop-color="#4C2193" stop-opacity="0.6"/>
<stop offset="0.51" stop-color="#3D17AD" stop-opacity="0.3"/>
<stop offset="1" stop-color="#1C0958" stop-opacity="0"/>
</radialGradient>
<radialGradient id="paint2_radial_4627_182337" cx="0" cy="0" r="1" gradientUnits="userSpaceOnUse" gradientTransform="translate(1785 743.15) rotate(-134.601) scale(811.778 801.906)">
<stop offset="0.243855" stop-color="#4C2193" stop-opacity="0.6"/>
<stop offset="0.51" stop-color="#3D17AD" stop-opacity="0.3"/>
<stop offset="1" stop-color="#1C0958" stop-opacity="0"/>
</radialGradient>
<clipPath id="clip0_4627_182337">
<rect width="1792" height="750" fill="white"/>
</clipPath>
<clipPath id="clip1_4627_182337">
<rect width="262.296" height="277.677" fill="white" transform="translate(30.1401 92.9775) rotate(-10.7725)"/>
</clipPath>
</defs>
</svg>
