<svg width="30" height="30" viewBox="0 0 30 30" fill="none" xmlns="http://www.w3.org/2000/svg">
<rect y="4" width="30" height="22" rx="4" fill="#EBEBEB"/>
<path d="M21.581 18.1861C22.0507 17.2166 22.3003 16.1553 22.3121 15.0781C22.3238 14.001 22.0973 12.9345 21.6489 11.955C21.2004 10.9755 20.5411 10.1073 19.718 9.4123C18.8948 8.71734 17.9283 8.21287 16.8875 7.93497C16.8749 7.93102 16.862 7.92762 16.8491 7.92457C15.7073 7.62639 14.5103 7.60923 13.3604 7.87457C12.2105 8.13992 11.142 8.67985 10.2463 9.4482C10.212 9.47198 10.1805 9.49953 10.1524 9.53032C9.04126 10.5137 8.25576 11.812 7.90031 13.2526C7.54486 14.6932 7.6363 16.2079 8.16246 17.5953C8.68863 18.9827 9.6246 20.1771 10.846 21.0197C12.0673 21.8623 13.5162 22.3132 15 22.3125C15.0517 22.3125 15.1033 22.3116 15.1548 22.3105C15.156 22.3105 15.1573 22.3107 15.1585 22.3107C15.161 22.3107 15.1634 22.3104 15.1658 22.3104C16.4939 22.2791 17.7883 21.887 18.9106 21.1762C20.0328 20.4654 20.9406 19.4627 21.5365 18.2755L21.5376 18.274C21.5546 18.246 21.5691 18.2166 21.581 18.1861V18.1861ZM21.1875 15C21.1881 15.7372 21.0564 16.4685 20.7986 17.1591L17.5361 15.1524C17.4023 15.07 17.2528 15.0167 17.0971 14.9959L15.4926 14.7796C15.2864 14.7528 15.0767 14.7834 14.8867 14.8679C14.6967 14.9524 14.5336 15.0876 14.4153 15.2587H13.8146L13.5471 14.7061C13.4731 14.5518 13.3646 14.4165 13.23 14.3108C13.0954 14.2051 12.9383 14.1317 12.7709 14.0962L12.3091 13.997L12.6311 13.2326H14.1319C14.3221 13.2326 14.5092 13.1843 14.6758 13.0924L15.5366 12.6171C15.6124 12.5752 15.6831 12.5248 15.7473 12.4668L17.6394 10.7555C17.8025 10.6091 17.919 10.418 17.9745 10.206C18.0299 9.99394 18.0218 9.77028 17.9512 9.5628C18.9296 10.0944 19.7466 10.88 20.3162 11.8369C20.8857 12.7937 21.1867 13.8865 21.1875 15ZM8.8125 15C8.8114 14.0309 9.03934 13.0753 9.47772 12.2111L10.2106 14.1672C10.2764 14.344 10.3858 14.5013 10.5286 14.6246C10.6715 14.7478 10.8431 14.833 11.0277 14.8722L11.4153 14.9555L11.4185 14.9562L12.5345 15.1961L12.802 15.7489C12.8948 15.9387 13.0387 16.0987 13.2177 16.2109C13.3967 16.3231 13.6035 16.383 13.8147 16.3837H13.8926L13.3516 17.5979C13.2618 17.7989 13.2331 18.0218 13.2689 18.239C13.3047 18.4561 13.4036 18.658 13.5531 18.8195L14.8749 20.2493L14.6949 21.1799C13.1093 21.0998 11.615 20.4139 10.5203 19.264C9.42572 18.114 8.81438 16.5876 8.8125 15V15Z" fill="black"/>
</svg>
