<svg width="30" height="31" viewBox="0 0 30 31" fill="none" xmlns="http://www.w3.org/2000/svg">
<path fill-rule="evenodd" clip-rule="evenodd" d="M15 0.00292969C6.71573 0.00292969 0 6.71866 0 15.0029C0 23.2872 6.71573 30.0029 15 30.0029C23.2843 30.0029 30 23.2872 30 15.0029C30 6.71866 23.2843 0.00292969 15 0.00292969ZM21.251 9.84626C21.9395 10.0352 22.4816 10.5918 22.6656 11.2987C23 12.5798 23 15.2529 23 15.2529C23 15.2529 23 17.9259 22.6656 19.2072C22.4816 19.914 21.9395 20.4707 21.251 20.6597C20.0034 21.0029 15 21.0029 15 21.0029C15 21.0029 9.99664 21.0029 8.74891 20.6597C8.06045 20.4707 7.51827 19.914 7.33427 19.2072C7 17.9259 7 15.2529 7 15.2529C7 15.2529 7 12.5798 7.33427 11.2987C7.51827 10.5918 8.06045 10.0352 8.74891 9.84626C9.99664 9.50293 15 9.50293 15 9.50293C15 9.50293 20.0034 9.50293 21.251 9.84626Z" fill="#4B205A"/>
<path fill-rule="evenodd" clip-rule="evenodd" d="M13.5 18.0029V13.0029L17.5 15.503L13.5 18.0029Z" fill="#4B205A"/>
</svg>
