<svg width="30" height="31" viewBox="0 0 30 31" fill="none" xmlns="http://www.w3.org/2000/svg">
<path fill-rule="evenodd" clip-rule="evenodd" d="M15 0.00390625C6.71573 0.00390625 0 6.71964 0 15.0039C0 23.2882 6.71573 30.0039 15 30.0039C23.2843 30.0039 30 23.2882 30 15.0039C30 6.71964 23.2843 0.00390625 15 0.00390625ZM21.251 9.84724C21.9395 10.0362 22.4816 10.5928 22.6656 11.2997C23 12.5808 23 15.2539 23 15.2539C23 15.2539 23 17.9269 22.6656 19.2081C22.4816 19.915 21.9395 20.4717 21.251 20.6607C20.0034 21.0039 15 21.0039 15 21.0039C15 21.0039 9.99664 21.0039 8.74891 20.6607C8.06045 20.4717 7.51827 19.915 7.33427 19.2081C7 17.9269 7 15.2539 7 15.2539C7 15.2539 7 12.5808 7.33427 11.2997C7.51827 10.5928 8.06045 10.0362 8.74891 9.84724C9.99664 9.50391 15 9.50391 15 9.50391C15 9.50391 20.0034 9.50391 21.251 9.84724Z" fill="white"/>
<path fill-rule="evenodd" clip-rule="evenodd" d="M13.5 18.0039V13.0039L17.5 15.504L13.5 18.0039Z" fill="white"/>
</svg>
