<svg width="131" height="32" viewBox="0 0 131 32" fill="none" xmlns="http://www.w3.org/2000/svg">
<g clip-path="url(#clip0_50_655)">
<path d="M12.1988 29.1362C8.14353 29.1127 4.78906 20.8022 4.78906 16.5698C4.78906 9.65621 9.95525 8.14265 11.9463 8.14265C12.8435 8.14265 13.8016 8.49638 14.6467 8.80941C15.2376 9.02776 15.8488 9.25316 16.1887 9.25316C16.3921 9.25316 16.8716 9.06142 17.2949 8.89318C18.1976 8.53239 19.321 8.08398 20.6291 8.08398C20.6314 8.08398 20.6345 8.08398 20.6368 8.08398C21.6136 8.08398 24.5752 8.29919 26.3557 10.9835L26.7728 11.6127L26.1726 12.0674C25.3151 12.717 23.7504 13.9019 23.7504 16.249C23.7504 19.0288 25.5224 20.0978 26.3737 20.612C26.7495 20.839 27.1384 21.073 27.1384 21.5848C27.1384 21.919 24.4817 29.0947 20.6236 29.0947C19.6795 29.0947 19.0122 28.8098 18.4236 28.5586C17.8281 28.3043 17.3143 28.0852 16.4654 28.0852C16.035 28.0852 15.4909 28.2894 14.9148 28.5062C14.1275 28.8012 13.2364 29.1362 12.2253 29.1362H12.1988Z" fill="white"/>
<path d="M21.037 1.77734C21.1375 5.41439 18.5465 7.9376 15.9586 7.77936C15.5322 4.87687 18.5462 1.77734 21.037 1.77734Z" fill="white"/>
</g>
<path d="M51.808 26.83C51.808 27.19 51.676 27.496 51.412 27.748C51.16 28 50.854 28.126 50.494 28.126C50.218 28.126 49.966 28.048 49.738 27.892C49.522 27.724 49.372 27.514 49.288 27.262L48.802 25.858H43.402L42.916 27.262C42.832 27.514 42.676 27.724 42.448 27.892C42.22 28.048 41.968 28.126 41.692 28.126C41.332 28.126 41.026 28 40.774 27.748C40.522 27.496 40.396 27.19 40.396 26.83C40.396 26.746 40.426 26.596 40.486 26.38L43.996 17.308C44.164 16.876 44.44 16.528 44.824 16.264C45.208 16 45.634 15.868 46.102 15.868C46.57 15.868 46.996 16 47.38 16.264C47.764 16.528 48.04 16.876 48.208 17.308L51.7 26.38C51.772 26.548 51.808 26.698 51.808 26.83ZM44.194 23.644H48.01L46.102 18.208L44.194 23.644ZM61.0732 20.314C61.7932 21.13 62.1532 22.24 62.1532 23.644C62.1532 25.048 61.7932 26.164 61.0732 26.992C60.3652 27.808 59.4412 28.216 58.3012 28.216C57.2212 28.216 56.3272 27.772 55.6192 26.884V30.286C55.6192 30.598 55.5052 30.868 55.2772 31.096C55.0612 31.324 54.7972 31.438 54.4852 31.438C54.1612 31.438 53.8852 31.324 53.6572 31.096C53.4412 30.868 53.3332 30.598 53.3332 30.286V20.332C53.3332 20.008 53.4412 19.732 53.6572 19.504C53.8852 19.264 54.1612 19.144 54.4852 19.144C54.7972 19.144 55.0672 19.264 55.2952 19.504C55.5232 19.732 55.6372 20.008 55.6372 20.332V20.386C56.3212 19.522 57.2092 19.09 58.3012 19.09C59.4412 19.09 60.3652 19.498 61.0732 20.314ZM59.7772 23.644C59.7772 22.9 59.5732 22.294 59.1652 21.826C58.7692 21.358 58.2412 21.124 57.5812 21.124C57.2092 21.124 56.8372 21.22 56.4652 21.412C56.0932 21.604 55.8112 21.838 55.6192 22.114V25.192C55.8112 25.468 56.0932 25.702 56.4652 25.894C56.8492 26.086 57.2212 26.182 57.5812 26.182C58.2412 26.182 58.7692 25.948 59.1652 25.48C59.5732 25.012 59.7772 24.4 59.7772 23.644ZM71.6025 20.314C72.3225 21.13 72.6825 22.24 72.6825 23.644C72.6825 25.048 72.3225 26.164 71.6025 26.992C70.8945 27.808 69.9705 28.216 68.8305 28.216C67.7505 28.216 66.8565 27.772 66.1485 26.884V30.286C66.1485 30.598 66.0345 30.868 65.8065 31.096C65.5905 31.324 65.3265 31.438 65.0145 31.438C64.6905 31.438 64.4145 31.324 64.1865 31.096C63.9705 30.868 63.8625 30.598 63.8625 30.286V20.332C63.8625 20.008 63.9705 19.732 64.1865 19.504C64.4145 19.264 64.6905 19.144 65.0145 19.144C65.3265 19.144 65.5965 19.264 65.8245 19.504C66.0525 19.732 66.1665 20.008 66.1665 20.332V20.386C66.8505 19.522 67.7385 19.09 68.8305 19.09C69.9705 19.09 70.8945 19.498 71.6025 20.314ZM70.3065 23.644C70.3065 22.9 70.1025 22.294 69.6945 21.826C69.2985 21.358 68.7705 21.124 68.1105 21.124C67.7385 21.124 67.3665 21.22 66.9945 21.412C66.6225 21.604 66.3405 21.838 66.1485 22.114V25.192C66.3405 25.468 66.6225 25.702 66.9945 25.894C67.3785 26.086 67.7505 26.182 68.1105 26.182C68.7705 26.182 69.2985 25.948 69.6945 25.48C70.1025 25.012 70.3065 24.4 70.3065 23.644ZM78.5473 26.02C78.5473 25.684 78.6613 25.402 78.8893 25.174C79.1293 24.934 79.4113 24.814 79.7353 24.814C79.9993 24.814 80.2273 24.886 80.4193 25.03C81.3433 25.666 82.3513 25.984 83.4433 25.984C84.0793 25.984 84.5833 25.858 84.9553 25.606C85.3393 25.342 85.5313 25.018 85.5313 24.634C85.5313 24.25 85.3453 23.95 84.9733 23.734C84.6013 23.518 83.9773 23.308 83.1013 23.104C82.1773 22.888 81.4153 22.672 80.8153 22.456C80.1673 22.216 79.6393 21.844 79.2313 21.34C78.8233 20.836 78.6193 20.2 78.6193 19.432C78.6193 18.388 79.0453 17.524 79.8973 16.84C80.7613 16.156 81.9133 15.814 83.3533 15.814C84.7093 15.814 85.9513 16.144 87.0793 16.804C87.4753 17.02 87.6733 17.356 87.6733 17.812C87.6733 18.136 87.5533 18.418 87.3133 18.658C87.0853 18.886 86.8153 19 86.5033 19C86.2633 19 86.0593 18.94 85.8913 18.82C84.9793 18.304 84.0733 18.046 83.1733 18.046C82.5373 18.046 82.0513 18.154 81.7153 18.37C81.3913 18.586 81.2293 18.886 81.2293 19.27C81.2293 19.618 81.3973 19.882 81.7333 20.062C82.0693 20.23 82.6993 20.428 83.6233 20.656C84.4753 20.836 85.2313 21.058 85.8913 21.322C87.3793 21.874 88.1233 22.888 88.1233 24.364C88.1233 25.54 87.7033 26.476 86.8633 27.172C86.0233 27.868 84.8413 28.216 83.3173 28.216C81.6373 28.216 80.2273 27.814 79.0873 27.01C78.7273 26.782 78.5473 26.452 78.5473 26.02ZM94.3849 27.136C94.3849 27.592 94.1569 27.892 93.7009 28.036C93.3769 28.156 92.9809 28.216 92.5129 28.216C91.7089 28.216 91.0969 28.012 90.6769 27.604C90.2569 27.196 90.0469 26.608 90.0469 25.84V21.304H89.4889C89.2129 21.304 88.9729 21.208 88.7689 21.016C88.5769 20.824 88.4809 20.59 88.4809 20.314C88.4809 20.038 88.5769 19.804 88.7689 19.612C88.9729 19.408 89.2129 19.306 89.4889 19.306H90.0469V17.956C90.0469 17.644 90.1609 17.374 90.3889 17.146C90.6169 16.918 90.8929 16.804 91.2169 16.804C91.5289 16.804 91.7929 16.918 92.0089 17.146C92.2369 17.374 92.3509 17.644 92.3509 17.956V19.306H93.2509C93.5269 19.306 93.7609 19.408 93.9529 19.612C94.1449 19.804 94.2409 20.038 94.2409 20.314C94.2409 20.578 94.1449 20.812 93.9529 21.016C93.7609 21.208 93.5269 21.304 93.2509 21.304H92.3509V25.228C92.3509 25.516 92.4169 25.75 92.5489 25.93C92.6929 26.098 92.8849 26.182 93.1249 26.182C93.1849 26.182 93.2569 26.176 93.3409 26.164C93.4249 26.152 93.4789 26.146 93.5029 26.146C93.7669 26.158 93.9769 26.26 94.1329 26.452C94.3009 26.632 94.3849 26.86 94.3849 27.136ZM95.1209 23.644C95.1209 22.36 95.5409 21.28 96.3809 20.404C97.2329 19.528 98.3429 19.09 99.7109 19.09C101.091 19.09 102.201 19.528 103.041 20.404C103.893 21.28 104.319 22.36 104.319 23.644C104.319 24.94 103.893 26.026 103.041 26.902C102.201 27.778 101.091 28.216 99.7109 28.216C98.3309 28.216 97.2209 27.778 96.3809 26.902C95.5409 26.026 95.1209 24.94 95.1209 23.644ZM101.943 23.644C101.943 22.924 101.739 22.324 101.331 21.844C100.923 21.364 100.383 21.124 99.7109 21.124C99.0389 21.124 98.4989 21.364 98.0909 21.844C97.6949 22.312 97.4969 22.912 97.4969 23.644C97.4969 24.376 97.6949 24.982 98.0909 25.462C98.4989 25.942 99.0389 26.182 99.7109 26.182C100.383 26.182 100.923 25.942 101.331 25.462C101.739 24.982 101.943 24.376 101.943 23.644ZM110.983 19.432C111.163 19.624 111.253 19.87 111.253 20.17C111.253 20.47 111.157 20.722 110.965 20.926C110.773 21.13 110.509 21.256 110.173 21.304C109.825 21.34 109.465 21.448 109.093 21.628C108.733 21.808 108.469 22.018 108.301 22.258V26.974C108.301 27.286 108.187 27.556 107.959 27.784C107.743 28.012 107.479 28.126 107.167 28.126C106.843 28.126 106.567 28.012 106.339 27.784C106.123 27.556 106.015 27.286 106.015 26.974V20.35C106.015 20.026 106.123 19.75 106.339 19.522C106.567 19.294 106.837 19.18 107.149 19.18C107.473 19.18 107.749 19.294 107.977 19.522C108.205 19.738 108.319 20.008 108.319 20.332L108.301 20.494C108.757 19.882 109.231 19.48 109.723 19.288C109.975 19.192 110.167 19.144 110.299 19.144C110.587 19.144 110.815 19.24 110.983 19.432ZM116.443 19.09C117.691 19.09 118.729 19.504 119.557 20.332C120.385 21.148 120.799 22.138 120.799 23.302C120.799 24.022 120.349 24.382 119.449 24.382H114.337C114.409 24.97 114.667 25.456 115.111 25.84C115.567 26.212 116.143 26.398 116.839 26.398C117.439 26.398 118.027 26.236 118.603 25.912C118.723 25.84 118.867 25.804 119.035 25.804C119.275 25.804 119.485 25.894 119.665 26.074C119.845 26.254 119.935 26.464 119.935 26.704C119.935 27.052 119.773 27.316 119.449 27.496C118.609 27.976 117.655 28.216 116.587 28.216C115.243 28.216 114.133 27.796 113.257 26.956C112.381 26.104 111.943 25 111.943 23.644C111.943 22.372 112.369 21.298 113.221 20.422C114.073 19.534 115.147 19.09 116.443 19.09ZM114.301 22.834H118.585C118.549 22.294 118.345 21.838 117.973 21.466C117.601 21.094 117.091 20.908 116.443 20.908C115.831 20.908 115.339 21.094 114.967 21.466C114.595 21.838 114.373 22.294 114.301 22.834Z" fill="white"/>
<path opacity="0.6" d="M41.464 10H43.672C46.156 10 47.776 8.284 47.776 6.004C47.776 3.736 46.156 1.996 43.672 1.996H41.464C41.128 1.996 40.936 2.188 40.936 2.524V9.472C40.936 9.808 41.128 10 41.464 10ZM41.932 9.112V2.884H43.672C45.652 2.884 46.744 4.276 46.744 6.004C46.744 7.72 45.616 9.112 43.672 9.112H41.932ZM51.8343 10.144C53.5983 10.144 54.7023 8.776 54.7023 7.096C54.7023 5.416 53.5983 4.06 51.8343 4.06C50.0703 4.06 48.9663 5.416 48.9663 7.096C48.9663 8.776 50.0703 10.144 51.8343 10.144ZM51.8343 9.34C50.5983 9.34 49.9023 8.284 49.9023 7.096C49.9023 5.92 50.5983 4.864 51.8343 4.864C53.0703 4.864 53.7543 5.92 53.7543 7.096C53.7543 8.284 53.0703 9.34 51.8343 9.34ZM61.6295 10.048C61.8935 10.048 62.1335 9.88 62.2055 9.628L63.7655 4.756C63.7775 4.72 63.7895 4.648 63.7895 4.6C63.7895 4.36 63.5855 4.156 63.3455 4.156C63.1415 4.156 62.9615 4.288 62.9135 4.468L61.5815 8.824L60.1655 4.504C60.0935 4.288 59.9015 4.156 59.6735 4.156C59.4455 4.156 59.2535 4.288 59.1815 4.504L57.7655 8.824L56.4335 4.468C56.3855 4.288 56.2055 4.156 56.0015 4.156C55.7615 4.156 55.5575 4.348 55.5575 4.6C55.5575 4.648 55.5695 4.696 55.5815 4.744L57.1415 9.628C57.2135 9.88 57.4535 10.048 57.7175 10.048C57.9815 10.048 58.2095 9.88 58.2815 9.628L59.6735 5.344L61.0655 9.628C61.1375 9.88 61.3655 10.048 61.6295 10.048ZM67.946 4.06C67.058 4.06 66.278 4.576 65.882 5.056V4.6C65.882 4.36 65.678 4.156 65.426 4.156C65.186 4.156 64.982 4.36 64.982 4.6V9.604C64.982 9.844 65.186 10.048 65.438 10.048C65.678 10.048 65.882 9.844 65.882 9.604V5.764C66.218 5.296 66.89 4.864 67.598 4.864C68.378 4.864 68.894 5.188 68.894 6.208V9.604C68.894 9.844 69.098 10.048 69.338 10.048C69.59 10.048 69.794 9.844 69.794 9.604V5.932C69.794 4.672 69.158 4.06 67.946 4.06ZM72.0474 10.048C72.2874 10.048 72.4914 9.844 72.4914 9.604V2.392C72.4914 2.152 72.2874 1.948 72.0474 1.948C71.7954 1.948 71.5914 2.152 71.5914 2.392V9.604C71.5914 9.844 71.7954 10.048 72.0474 10.048ZM76.8187 10.144C78.5827 10.144 79.6867 8.776 79.6867 7.096C79.6867 5.416 78.5827 4.06 76.8187 4.06C75.0547 4.06 73.9507 5.416 73.9507 7.096C73.9507 8.776 75.0547 10.144 76.8187 10.144ZM76.8187 9.34C75.5827 9.34 74.8867 8.284 74.8867 7.096C74.8867 5.92 75.5827 4.864 76.8187 4.864C78.0547 4.864 78.7387 5.92 78.7387 7.096C78.7387 8.284 78.0547 9.34 76.8187 9.34ZM83.4339 4.06C82.6059 4.06 81.9339 4.3 81.3459 4.816C81.2619 4.876 81.1899 4.996 81.1899 5.116C81.1899 5.32 81.3579 5.488 81.5619 5.488C81.6579 5.488 81.7419 5.452 81.8019 5.416C82.2579 5.008 82.7379 4.84 83.3139 4.84C84.1539 4.84 84.7779 5.284 84.7779 6.064V7.108C84.3099 6.568 83.6499 6.316 82.8579 6.316C81.8739 6.316 80.8299 6.928 80.8299 8.224C80.8299 9.484 81.8739 10.144 82.8579 10.144C83.6499 10.144 84.3219 9.868 84.7779 9.34V9.604C84.7779 9.844 84.9819 10.048 85.2219 10.048C85.4739 10.048 85.6779 9.844 85.6779 9.604V6.016C85.6779 4.612 84.6579 4.06 83.4339 4.06ZM83.1819 9.496C82.3419 9.496 81.7539 8.968 81.7539 8.236C81.7539 7.492 82.3419 6.964 83.1819 6.964C83.8179 6.964 84.4299 7.204 84.7779 7.684V8.776C84.4299 9.256 83.8179 9.496 83.1819 9.496ZM92.126 1.948C91.886 1.948 91.682 2.152 91.682 2.392V5.092C91.202 4.444 90.506 4.06 89.726 4.06C88.202 4.06 87.146 5.26 87.146 7.108C87.146 8.992 88.214 10.144 89.726 10.144C90.542 10.144 91.25 9.724 91.682 9.136V9.604C91.682 9.844 91.886 10.048 92.126 10.048C92.378 10.048 92.582 9.844 92.582 9.604V2.392C92.582 2.152 92.378 1.948 92.126 1.948ZM89.942 9.34C88.778 9.34 88.082 8.392 88.082 7.108C88.082 5.824 88.778 4.864 89.942 4.864C90.662 4.864 91.358 5.296 91.682 5.8V8.428C91.358 8.932 90.662 9.34 89.942 9.34ZM100.01 10.144C101.774 10.144 102.878 8.776 102.878 7.096C102.878 5.416 101.774 4.06 100.01 4.06C98.2461 4.06 97.1421 5.416 97.1421 7.096C97.1421 8.776 98.2461 10.144 100.01 10.144ZM100.01 9.34C98.7741 9.34 98.0781 8.284 98.0781 7.096C98.0781 5.92 98.7741 4.864 100.01 4.864C101.246 4.864 101.93 5.92 101.93 7.096C101.93 8.284 101.246 9.34 100.01 9.34ZM107.309 4.06C106.421 4.06 105.641 4.576 105.245 5.056V4.6C105.245 4.36 105.041 4.156 104.789 4.156C104.549 4.156 104.345 4.36 104.345 4.6V9.604C104.345 9.844 104.549 10.048 104.801 10.048C105.041 10.048 105.245 9.844 105.245 9.604V5.764C105.581 5.296 106.253 4.864 106.961 4.864C107.741 4.864 108.257 5.188 108.257 6.208V9.604C108.257 9.844 108.461 10.048 108.701 10.048C108.953 10.048 109.157 9.844 109.157 9.604V5.932C109.157 4.672 108.521 4.06 107.309 4.06ZM116.172 9.232C116.052 9.232 115.968 9.34 115.716 9.34C115.32 9.34 115.128 9.028 115.128 8.596V4.996H115.956C116.172 4.996 116.364 4.816 116.364 4.6C116.364 4.384 116.172 4.204 115.956 4.204H115.128V3.016C115.128 2.776 114.924 2.572 114.684 2.572C114.432 2.572 114.228 2.776 114.228 3.016V4.204H113.616C113.4 4.204 113.22 4.384 113.22 4.6C113.22 4.816 113.4 4.996 113.616 4.996H114.228V8.788C114.228 9.652 114.66 10.144 115.512 10.144C115.872 10.144 116.124 10.072 116.328 9.952C116.472 9.892 116.556 9.784 116.556 9.616C116.556 9.388 116.4 9.232 116.172 9.232ZM121.944 10.048C122.196 10.048 122.4 9.844 122.4 9.604V5.908C122.4 4.648 121.764 4.06 120.552 4.06C119.676 4.06 118.884 4.564 118.476 5.044V2.392C118.476 2.152 118.272 1.948 118.032 1.948C117.78 1.948 117.576 2.152 117.576 2.392V9.604C117.576 9.844 117.78 10.048 118.032 10.048C118.272 10.048 118.476 9.844 118.476 9.604V5.764C118.824 5.296 119.496 4.864 120.192 4.864C120.972 4.864 121.5 5.164 121.5 6.184V9.604C121.5 9.844 121.704 10.048 121.944 10.048ZM123.861 7.096C123.861 8.908 125.097 10.144 126.813 10.144C127.617 10.144 128.301 9.904 128.877 9.46C128.973 9.388 129.033 9.28 129.033 9.16C129.033 8.956 128.865 8.8 128.661 8.8C128.589 8.8 128.517 8.812 128.457 8.848C128.001 9.208 127.461 9.4 126.897 9.4C125.649 9.4 124.881 8.488 124.809 7.396H128.973C129.309 7.396 129.501 7.228 129.501 6.94C129.501 5.428 128.469 4.06 126.717 4.06C125.061 4.06 123.861 5.416 123.861 7.096ZM126.705 4.804C128.025 4.804 128.601 5.872 128.613 6.736H124.809C124.857 5.848 125.469 4.804 126.705 4.804Z" fill="white"/>
<defs>
<clipPath id="clip0_50_655">
<rect width="27.2479" height="27.3542" fill="white" transform="translate(2.33984 1.7832)"/>
</clipPath>
</defs>
</svg>
