<svg width="138" height="32" viewBox="0 0 138 32" fill="none" xmlns="http://www.w3.org/2000/svg">
<path d="M52.114 22.6V24.994C52.114 25.714 51.88 26.266 51.412 26.65C50.176 27.706 48.706 28.234 47.002 28.234C45.226 28.258 43.708 27.676 42.448 26.488C41.2 25.3 40.588 23.806 40.612 22.006C40.588 20.182 41.2 18.688 42.448 17.524C43.696 16.348 45.214 15.772 47.002 15.796C48.574 15.796 49.912 16.3 51.016 17.308C51.268 17.548 51.394 17.848 51.394 18.208C51.394 18.532 51.28 18.814 51.052 19.054C50.824 19.282 50.542 19.396 50.206 19.396C49.882 19.396 49.606 19.282 49.378 19.054C48.706 18.394 47.914 18.064 47.002 18.064C45.922 18.064 45.022 18.442 44.302 19.198C43.594 19.942 43.24 20.878 43.24 22.006C43.24 23.134 43.594 24.076 44.302 24.832C45.022 25.576 45.922 25.948 47.002 25.948C48.034 25.948 48.886 25.642 49.558 25.03V23.59H47.362C47.062 23.59 46.798 23.482 46.57 23.266C46.354 23.05 46.246 22.792 46.246 22.492C46.246 22.192 46.354 21.928 46.57 21.7C46.798 21.472 47.062 21.358 47.362 21.358H50.89C51.262 21.358 51.556 21.472 51.772 21.7C52 21.928 52.114 22.228 52.114 22.6ZM53.5311 23.644C53.5311 22.36 53.9511 21.28 54.7911 20.404C55.6431 19.528 56.7531 19.09 58.1211 19.09C59.5011 19.09 60.6111 19.528 61.4511 20.404C62.3031 21.28 62.7291 22.36 62.7291 23.644C62.7291 24.94 62.3031 26.026 61.4511 26.902C60.6111 27.778 59.5011 28.216 58.1211 28.216C56.7411 28.216 55.6311 27.778 54.7911 26.902C53.9511 26.026 53.5311 24.94 53.5311 23.644ZM60.3531 23.644C60.3531 22.924 60.1491 22.324 59.7411 21.844C59.3331 21.364 58.7931 21.124 58.1211 21.124C57.4491 21.124 56.9091 21.364 56.5011 21.844C56.1051 22.312 55.9071 22.912 55.9071 23.644C55.9071 24.376 56.1051 24.982 56.5011 25.462C56.9091 25.942 57.4491 26.182 58.1211 26.182C58.7931 26.182 59.3331 25.942 59.7411 25.462C60.1491 24.982 60.3531 24.376 60.3531 23.644ZM63.867 23.644C63.867 22.36 64.287 21.28 65.127 20.404C65.979 19.528 67.089 19.09 68.457 19.09C69.837 19.09 70.947 19.528 71.787 20.404C72.639 21.28 73.065 22.36 73.065 23.644C73.065 24.94 72.639 26.026 71.787 26.902C70.947 27.778 69.837 28.216 68.457 28.216C67.077 28.216 65.967 27.778 65.127 26.902C64.287 26.026 63.867 24.94 63.867 23.644ZM70.689 23.644C70.689 22.924 70.485 22.324 70.077 21.844C69.669 21.364 69.129 21.124 68.457 21.124C67.785 21.124 67.245 21.364 66.837 21.844C66.441 22.312 66.243 22.912 66.243 23.644C66.243 24.376 66.441 24.982 66.837 25.462C67.245 25.942 67.785 26.182 68.457 26.182C69.129 26.182 69.669 25.942 70.077 25.462C70.485 24.982 70.689 24.376 70.689 23.644ZM83.023 20.332V27.406C83.023 28.894 82.561 29.956 81.637 30.592C80.725 31.216 79.621 31.528 78.325 31.528C77.149 31.528 76.129 31.258 75.265 30.718C74.953 30.538 74.797 30.268 74.797 29.908C74.797 29.644 74.887 29.416 75.067 29.224C75.259 29.044 75.487 28.954 75.751 28.954C75.907 28.954 76.069 29.002 76.237 29.098C76.801 29.47 77.497 29.656 78.325 29.656C79.021 29.656 79.591 29.476 80.035 29.116C80.491 28.756 80.719 28.204 80.719 27.46V26.596C79.975 27.496 79.081 27.946 78.037 27.946C76.897 27.946 75.973 27.556 75.265 26.776C74.557 25.984 74.203 24.898 74.203 23.518C74.203 22.15 74.557 21.07 75.265 20.278C75.973 19.486 76.897 19.09 78.037 19.09C79.117 19.09 80.011 19.534 80.719 20.422V20.278C80.719 19.978 80.833 19.72 81.061 19.504C81.301 19.288 81.577 19.18 81.889 19.18C82.201 19.18 82.465 19.294 82.681 19.522C82.909 19.75 83.023 20.02 83.023 20.332ZM80.719 24.922V22.114C80.527 21.826 80.245 21.592 79.873 21.412C79.513 21.22 79.141 21.124 78.757 21.124C78.097 21.124 77.563 21.346 77.155 21.79C76.759 22.222 76.561 22.798 76.561 23.518C76.561 24.238 76.759 24.82 77.155 25.264C77.563 25.696 78.097 25.912 78.757 25.912C79.129 25.912 79.501 25.816 79.873 25.624C80.245 25.432 80.527 25.198 80.719 24.922ZM85.2903 26.974V17.02C85.2903 16.708 85.3983 16.438 85.6143 16.21C85.8423 15.982 86.1183 15.868 86.4423 15.868C86.7543 15.868 87.0183 15.982 87.2343 16.21C87.4623 16.438 87.5763 16.708 87.5763 17.02V26.974C87.5763 27.286 87.4623 27.556 87.2343 27.784C87.0183 28.012 86.7543 28.126 86.4423 28.126C86.1183 28.126 85.8423 28.012 85.6143 27.784C85.3983 27.556 85.2903 27.286 85.2903 26.974ZM93.785 19.09C95.033 19.09 96.071 19.504 96.899 20.332C97.727 21.148 98.141 22.138 98.141 23.302C98.141 24.022 97.691 24.382 96.791 24.382H91.679C91.751 24.97 92.009 25.456 92.453 25.84C92.909 26.212 93.485 26.398 94.181 26.398C94.781 26.398 95.369 26.236 95.945 25.912C96.065 25.84 96.209 25.804 96.377 25.804C96.617 25.804 96.827 25.894 97.007 26.074C97.187 26.254 97.277 26.464 97.277 26.704C97.277 27.052 97.115 27.316 96.791 27.496C95.951 27.976 94.997 28.216 93.929 28.216C92.585 28.216 91.475 27.796 90.599 26.956C89.723 26.104 89.285 25 89.285 23.644C89.285 22.372 89.711 21.298 90.563 20.422C91.415 19.534 92.489 19.09 93.785 19.09ZM91.643 22.834H95.927C95.891 22.294 95.687 21.838 95.315 21.466C94.943 21.094 94.433 20.908 93.785 20.908C93.173 20.908 92.681 21.094 92.309 21.466C91.937 21.838 91.715 22.294 91.643 22.834ZM104.452 26.848V17.344C104.452 16.912 104.566 16.582 104.794 16.354C105.034 16.114 105.37 15.994 105.802 15.994H110.068C111.304 15.994 112.282 16.366 113.002 17.11C113.734 17.842 114.1 18.76 114.1 19.864C114.1 20.956 113.734 21.868 113.002 22.6C112.282 23.332 111.304 23.698 110.068 23.698H107.008V26.848C107.008 27.196 106.882 27.496 106.63 27.748C106.39 28 106.096 28.126 105.748 28.126C105.388 28.126 105.082 28 104.83 27.748C104.578 27.496 104.452 27.196 104.452 26.848ZM109.726 18.19H107.008V21.502H109.726C110.242 21.502 110.662 21.352 110.986 21.052C111.322 20.74 111.49 20.338 111.49 19.846C111.49 19.354 111.322 18.958 110.986 18.658C110.65 18.346 110.23 18.19 109.726 18.19ZM115.63 26.974V17.02C115.63 16.708 115.738 16.438 115.954 16.21C116.182 15.982 116.458 15.868 116.782 15.868C117.094 15.868 117.358 15.982 117.574 16.21C117.802 16.438 117.916 16.708 117.916 17.02V26.974C117.916 27.286 117.802 27.556 117.574 27.784C117.358 28.012 117.094 28.126 116.782 28.126C116.458 28.126 116.182 28.012 115.954 27.784C115.738 27.556 115.63 27.286 115.63 26.974ZM127.689 22.384V26.938C127.689 27.262 127.575 27.544 127.347 27.784C127.131 28.012 126.861 28.126 126.537 28.126C126.249 28.126 125.991 28.03 125.763 27.838C125.547 27.646 125.421 27.4 125.385 27.1C124.773 27.844 123.861 28.216 122.649 28.216C121.857 28.216 121.155 27.958 120.543 27.442C119.931 26.926 119.625 26.224 119.625 25.336C119.625 24.436 119.925 23.752 120.525 23.284C121.125 22.804 121.833 22.564 122.649 22.564C123.909 22.564 124.827 22.918 125.403 23.626V22.42C125.403 21.976 125.229 21.622 124.881 21.358C124.533 21.094 124.071 20.962 123.495 20.962C122.835 20.962 122.193 21.154 121.569 21.538C121.437 21.622 121.287 21.664 121.119 21.664C120.879 21.664 120.675 21.58 120.507 21.412C120.339 21.232 120.255 21.022 120.255 20.782C120.255 20.446 120.393 20.194 120.669 20.026C121.617 19.402 122.691 19.09 123.891 19.09C125.019 19.09 125.931 19.348 126.627 19.864C127.335 20.392 127.689 21.232 127.689 22.384ZM125.403 25.912V24.832C125.031 24.328 124.419 24.076 123.567 24.076C123.087 24.076 122.691 24.196 122.379 24.436C122.079 24.676 121.929 24.994 121.929 25.39C121.929 25.774 122.079 26.086 122.379 26.326C122.691 26.554 123.087 26.668 123.567 26.668C124.419 26.668 125.031 26.416 125.403 25.912ZM130.568 29.512L130.676 29.494C131.276 29.482 131.672 29.272 131.864 28.864L132.188 28.126L129.2 20.728C129.152 20.632 129.128 20.494 129.128 20.314C129.128 20.002 129.236 19.738 129.452 19.522C129.668 19.294 129.932 19.18 130.244 19.18C130.784 19.18 131.132 19.414 131.288 19.882L133.376 25.426L135.446 19.882C135.626 19.414 135.98 19.18 136.508 19.18C136.832 19.18 137.102 19.294 137.318 19.522C137.534 19.738 137.642 20.002 137.642 20.314C137.642 20.446 137.612 20.59 137.552 20.746L134.024 29.422C133.484 30.802 132.434 31.504 130.874 31.528C130.742 31.528 130.658 31.522 130.622 31.51C130.322 31.498 130.076 31.396 129.884 31.204C129.692 31.012 129.596 30.772 129.596 30.484C129.596 30.208 129.692 29.98 129.884 29.8C130.076 29.62 130.304 29.524 130.568 29.512Z" fill="white"/>
<path opacity="0.6" d="M40.936 9.472V2.524C40.936 2.172 41.112 1.996 41.464 1.996H43.672C44.872 1.98 45.86 2.36 46.636 3.136C47.412 3.912 47.792 4.868 47.776 6.004C47.792 7.14 47.412 8.092 46.636 8.86C45.86 9.628 44.872 10.008 43.672 10H41.464C41.112 10 40.936 9.824 40.936 9.472ZM41.932 9.112H43.672C44.6 9.112 45.344 8.816 45.904 8.224C46.464 7.632 46.744 6.892 46.744 6.004C46.744 5.1 46.468 4.356 45.916 3.772C45.364 3.18 44.616 2.884 43.672 2.884H41.932V9.112ZM49.7583 9.268C49.2303 8.684 48.9663 7.96 48.9663 7.096C48.9663 6.232 49.2303 5.512 49.7583 4.936C50.2943 4.352 50.9863 4.06 51.8343 4.06C52.6823 4.06 53.3703 4.352 53.8983 4.936C54.4343 5.512 54.7023 6.232 54.7023 7.096C54.7023 7.96 54.4343 8.684 53.8983 9.268C53.3703 9.852 52.6823 10.144 51.8343 10.144C50.9863 10.144 50.2943 9.852 49.7583 9.268ZM53.7543 7.096C53.7543 6.472 53.5783 5.944 53.2263 5.512C52.8823 5.08 52.4183 4.864 51.8343 4.864C51.2503 4.864 50.7823 5.08 50.4303 5.512C50.0783 5.944 49.9023 6.472 49.9023 7.096C49.9023 7.728 50.0783 8.26 50.4303 8.692C50.7823 9.124 51.2503 9.34 51.8343 9.34C52.4183 9.34 52.8823 9.124 53.2263 8.692C53.5783 8.26 53.7543 7.728 53.7543 7.096ZM61.0655 9.628L59.6735 5.344L58.2815 9.628C58.2495 9.756 58.1815 9.86 58.0775 9.94C57.9735 10.012 57.8535 10.048 57.7175 10.048C57.5815 10.048 57.4575 10.012 57.3455 9.94C57.2415 9.86 57.1735 9.756 57.1415 9.628L55.5815 4.744C55.5655 4.664 55.5575 4.616 55.5575 4.6C55.5575 4.472 55.6015 4.368 55.6895 4.288C55.7775 4.2 55.8815 4.156 56.0015 4.156C56.2335 4.156 56.3775 4.26 56.4335 4.468L57.7655 8.824L59.1815 4.504C59.2535 4.272 59.4175 4.156 59.6735 4.156C59.9295 4.156 60.0935 4.272 60.1655 4.504L61.5815 8.824L62.9135 4.468C62.9695 4.26 63.1135 4.156 63.3455 4.156C63.4655 4.156 63.5695 4.2 63.6575 4.288C63.7455 4.376 63.7895 4.48 63.7895 4.6C63.7895 4.64 63.7815 4.692 63.7655 4.756L62.2055 9.628C62.1735 9.756 62.1015 9.86 61.9895 9.94C61.8855 10.012 61.7655 10.048 61.6295 10.048C61.4935 10.048 61.3735 10.012 61.2695 9.94C61.1655 9.86 61.0975 9.756 61.0655 9.628ZM69.794 5.932V9.604C69.794 9.724 69.75 9.828 69.662 9.916C69.574 10.004 69.466 10.048 69.338 10.048C69.218 10.048 69.114 10.004 69.026 9.916C68.938 9.828 68.894 9.724 68.894 9.604V6.208C68.894 5.736 68.786 5.396 68.57 5.188C68.354 4.972 68.03 4.864 67.598 4.864C67.27 4.864 66.946 4.952 66.626 5.128C66.306 5.296 66.058 5.508 65.882 5.764V9.604C65.882 9.724 65.838 9.828 65.75 9.916C65.662 10.004 65.558 10.048 65.438 10.048C65.31 10.048 65.202 10.004 65.114 9.916C65.026 9.828 64.982 9.724 64.982 9.604V4.6C64.982 4.48 65.026 4.376 65.114 4.288C65.202 4.2 65.306 4.156 65.426 4.156C65.554 4.156 65.662 4.2 65.75 4.288C65.838 4.376 65.882 4.48 65.882 4.6V5.056C66.114 4.768 66.414 4.532 66.782 4.348C67.158 4.156 67.546 4.06 67.946 4.06C69.178 4.06 69.794 4.684 69.794 5.932ZM71.5914 9.604V2.392C71.5914 2.272 71.6354 2.168 71.7234 2.08C71.8114 1.992 71.9194 1.948 72.0474 1.948C72.1674 1.948 72.2714 1.992 72.3594 2.08C72.4474 2.168 72.4914 2.272 72.4914 2.392V9.604C72.4914 9.724 72.4474 9.828 72.3594 9.916C72.2714 10.004 72.1674 10.048 72.0474 10.048C71.9194 10.048 71.8114 10.004 71.7234 9.916C71.6354 9.828 71.5914 9.724 71.5914 9.604ZM74.7427 9.268C74.2147 8.684 73.9507 7.96 73.9507 7.096C73.9507 6.232 74.2147 5.512 74.7427 4.936C75.2787 4.352 75.9707 4.06 76.8187 4.06C77.6667 4.06 78.3547 4.352 78.8827 4.936C79.4187 5.512 79.6867 6.232 79.6867 7.096C79.6867 7.96 79.4187 8.684 78.8827 9.268C78.3547 9.852 77.6667 10.144 76.8187 10.144C75.9707 10.144 75.2787 9.852 74.7427 9.268ZM78.7387 7.096C78.7387 6.472 78.5627 5.944 78.2107 5.512C77.8667 5.08 77.4027 4.864 76.8187 4.864C76.2347 4.864 75.7667 5.08 75.4147 5.512C75.0627 5.944 74.8867 6.472 74.8867 7.096C74.8867 7.728 75.0627 8.26 75.4147 8.692C75.7667 9.124 76.2347 9.34 76.8187 9.34C77.4027 9.34 77.8667 9.124 78.2107 8.692C78.5627 8.26 78.7387 7.728 78.7387 7.096ZM85.6779 6.016V9.604C85.6779 9.724 85.6339 9.828 85.5459 9.916C85.4579 10.004 85.3499 10.048 85.2219 10.048C85.1019 10.048 84.9979 10.004 84.9099 9.916C84.8219 9.828 84.7779 9.724 84.7779 9.604V9.34C84.3299 9.876 83.6899 10.144 82.8579 10.144C82.3139 10.144 81.8379 9.972 81.4299 9.628C81.0299 9.276 80.8299 8.808 80.8299 8.224C80.8299 7.64 81.0299 7.176 81.4299 6.832C81.8379 6.488 82.3139 6.316 82.8579 6.316C83.6819 6.316 84.3219 6.58 84.7779 7.108V6.064C84.7779 5.688 84.6419 5.392 84.3699 5.176C84.1059 4.952 83.7539 4.84 83.3139 4.84C82.7379 4.84 82.2339 5.032 81.8019 5.416C81.7219 5.464 81.6419 5.488 81.5619 5.488C81.4579 5.488 81.3699 5.452 81.2979 5.38C81.2259 5.308 81.1899 5.22 81.1899 5.116C81.1899 4.988 81.2419 4.888 81.3459 4.816C81.9219 4.312 82.6179 4.06 83.4339 4.06C84.1219 4.06 84.6659 4.224 85.0659 4.552C85.4739 4.88 85.6779 5.368 85.6779 6.016ZM84.7779 8.776V7.684C84.4339 7.204 83.9019 6.964 83.1819 6.964C82.7659 6.964 82.4219 7.084 82.1499 7.324C81.8859 7.556 81.7539 7.86 81.7539 8.236C81.7539 8.604 81.8859 8.908 82.1499 9.148C82.4219 9.38 82.7659 9.496 83.1819 9.496C83.9019 9.496 84.4339 9.256 84.7779 8.776ZM92.582 2.392V9.604C92.582 9.724 92.538 9.828 92.45 9.916C92.362 10.004 92.254 10.048 92.126 10.048C92.006 10.048 91.902 10.004 91.814 9.916C91.726 9.828 91.682 9.724 91.682 9.604V9.136C91.458 9.448 91.17 9.696 90.818 9.88C90.474 10.056 90.11 10.144 89.726 10.144C88.958 10.144 88.334 9.872 87.854 9.328C87.382 8.776 87.146 8.036 87.146 7.108C87.146 6.196 87.382 5.46 87.854 4.9C88.334 4.34 88.958 4.06 89.726 4.06C90.526 4.06 91.178 4.404 91.682 5.092V2.392C91.682 2.272 91.726 2.168 91.814 2.08C91.902 1.992 92.006 1.948 92.126 1.948C92.254 1.948 92.362 1.992 92.45 2.08C92.538 2.168 92.582 2.272 92.582 2.392ZM91.682 8.428V5.8C91.514 5.536 91.266 5.316 90.938 5.14C90.61 4.956 90.278 4.864 89.942 4.864C89.374 4.864 88.922 5.076 88.586 5.5C88.25 5.924 88.082 6.46 88.082 7.108C88.082 7.756 88.25 8.292 88.586 8.716C88.922 9.132 89.374 9.34 89.942 9.34C90.286 9.34 90.618 9.256 90.938 9.088C91.266 8.912 91.514 8.692 91.682 8.428ZM97.9341 9.268C97.4061 8.684 97.1421 7.96 97.1421 7.096C97.1421 6.232 97.4061 5.512 97.9341 4.936C98.4701 4.352 99.1621 4.06 100.01 4.06C100.858 4.06 101.546 4.352 102.074 4.936C102.61 5.512 102.878 6.232 102.878 7.096C102.878 7.96 102.61 8.684 102.074 9.268C101.546 9.852 100.858 10.144 100.01 10.144C99.1621 10.144 98.4701 9.852 97.9341 9.268ZM101.93 7.096C101.93 6.472 101.754 5.944 101.402 5.512C101.058 5.08 100.594 4.864 100.01 4.864C99.4261 4.864 98.9581 5.08 98.6061 5.512C98.2541 5.944 98.0781 6.472 98.0781 7.096C98.0781 7.728 98.2541 8.26 98.6061 8.692C98.9581 9.124 99.4261 9.34 100.01 9.34C100.594 9.34 101.058 9.124 101.402 8.692C101.754 8.26 101.93 7.728 101.93 7.096ZM109.157 5.932V9.604C109.157 9.724 109.113 9.828 109.025 9.916C108.937 10.004 108.829 10.048 108.701 10.048C108.581 10.048 108.477 10.004 108.389 9.916C108.301 9.828 108.257 9.724 108.257 9.604V6.208C108.257 5.736 108.149 5.396 107.933 5.188C107.717 4.972 107.393 4.864 106.961 4.864C106.633 4.864 106.309 4.952 105.989 5.128C105.669 5.296 105.421 5.508 105.245 5.764V9.604C105.245 9.724 105.201 9.828 105.113 9.916C105.025 10.004 104.921 10.048 104.801 10.048C104.673 10.048 104.565 10.004 104.477 9.916C104.389 9.828 104.345 9.724 104.345 9.604V4.6C104.345 4.48 104.389 4.376 104.477 4.288C104.565 4.2 104.669 4.156 104.789 4.156C104.917 4.156 105.025 4.2 105.113 4.288C105.201 4.376 105.245 4.48 105.245 4.6V5.056C105.477 4.768 105.777 4.532 106.145 4.348C106.521 4.156 106.909 4.06 107.309 4.06C108.541 4.06 109.157 4.684 109.157 5.932Z" fill="white"/>
<path d="M18.9205 16.3349L5.23722 29.5623C4.59645 29.1227 4.21602 28.3915 4.22274 27.6124V5.05737C4.21602 4.27827 4.59645 3.54704 5.23722 3.10742L18.9205 16.3349Z" fill="#2196F3"/>
<path d="M23.7055 11.7174L18.9176 16.3377L5.23438 3.11028C5.28593 3.07016 5.33963 3.03284 5.39519 2.99849C6.11836 2.55847 7.02166 2.54427 7.75823 2.96123L23.7055 11.7174Z" fill="#4CAF50"/>
<path d="M29.5122 16.3371C29.5211 17.2166 29.045 18.029 28.275 18.4485L23.7098 20.9574L18.9219 16.3371L23.7098 11.7168L28.275 14.2256C29.045 14.6452 29.5211 15.4576 29.5122 16.3371Z" fill="#FFC107"/>
<path d="M23.7055 20.9562L7.75823 29.7125C7.02004 30.123 6.12016 30.1088 5.39519 29.6752C5.33963 29.6408 5.28593 29.6035 5.23438 29.5634L18.9177 16.3359L23.7055 20.9562Z" fill="#F44336"/>
</svg>
